<?xml version="1.0" encoding="UTF-8" standalone="no"?>
<!-- Created with Inkscape (http://www.inkscape.org/) -->

<svg
   width="16"
   height="16"
   viewBox="0 0 16 16"
   version="1.1"
   id="svg371"
   xml:space="preserve"
   inkscape:version="1.3 (0e150ed6c4, 2023-07-21)"
   sodipodi:docname="application-x-executable.svg"
   xmlns:inkscape="http://www.inkscape.org/namespaces/inkscape"
   xmlns:sodipodi="http://sodipodi.sourceforge.net/DTD/sodipodi-0.dtd"
   xmlns:xlink="http://www.w3.org/1999/xlink"
   xmlns="http://www.w3.org/2000/svg"
   xmlns:svg="http://www.w3.org/2000/svg"><sodipodi:namedview
     id="namedview373"
     pagecolor="#ffffff"
     bordercolor="#000000"
     borderopacity="0.25"
     inkscape:showpageshadow="2"
     inkscape:pageopacity="0.0"
     inkscape:pagecheckerboard="0"
     inkscape:deskcolor="#d1d1d1"
     inkscape:document-units="px"
     showgrid="false"
     inkscape:zoom="49.75"
     inkscape:cx="7.9899497"
     inkscape:cy="8"
     inkscape:window-width="1920"
     inkscape:window-height="1000"
     inkscape:window-x="0"
     inkscape:window-y="0"
     inkscape:window-maximized="1"
     inkscape:current-layer="svg371"
     showguides="false"
     inkscape:lockguides="true" /><defs
     id="defs368"><linearGradient
       inkscape:collect="always"
       id="linearGradient3038"><stop
         style="stop-color:#3f495d;stop-opacity:1;"
         offset="0"
         id="stop3034" /><stop
         style="stop-color:#4f5b70;stop-opacity:1;"
         offset="1"
         id="stop3036" /></linearGradient><linearGradient
       inkscape:collect="always"
       xlink:href="#linearGradient3038"
       id="linearGradient2"
       x1="11"
       y1="18"
       x2="11"
       y2="4"
       gradientUnits="userSpaceOnUse"
       gradientTransform="translate(-3.0000012,-3)" /></defs><path
     id="path1179"
     style="fill:url(#linearGradient2);stroke-width:1.75;stroke-linecap:round;stroke-linejoin:round"
     d="M 7.124999,1 C 6.640251,1 6.351568,1.4010118 6.249999,1.875 L 5.7656238,4.1308594 3.5703113,3.421875 C 3.1204491,3.2413058 2.617373,3.322383 2.3749988,3.7421875 l -0.875,1.515625 C 1.2576245,5.6776169 1.4606099,6.12817 1.8203113,6.453125 L 3.5332019,8 1.8203113,9.546875 C 1.4606095,9.871831 1.2576245,10.322383 1.4999988,10.742188 l 0.875,1.515624 c 0.2423742,0.419806 0.7454509,0.500883 1.1953125,0.320313 L 5.7656238,11.869141 6.249999,14.125 C 6.318559,14.604876 6.640251,15 7.124999,15 h 1.75 c 0.48475,0 0.773431,-0.401012 0.875,-0.875 l 0.484375,-2.255859 2.195313,0.708984 c 0.44986,0.18057 0.952938,0.0995 1.195312,-0.320313 l 0.875,-1.515624 c 0.242375,-0.419805 0.0394,-0.870357 -0.320312,-1.195313 L 12.466796,8 14.179687,6.453125 C 14.539389,6.12817 14.742374,5.6776169 14.499999,5.2578125 l -0.875,-1.515625 C 13.382625,3.322383 12.879548,3.2413058 12.429687,3.421875 L 10.234374,4.1308594 9.749999,1.875 C 9.681439,1.3951235 9.359749,1 8.874999,1 Z m 0.875,4 c 1.656852,0 3,1.343148 3,3 0,1.656852 -1.343148,3 -3,3 -1.656852,0 -3.0000002,-1.343148 -3.0000002,-3 0,-1.656852 1.3431482,-3 3.0000002,-3 z" /></svg>
