<?xml version="1.0" encoding="UTF-8" standalone="no"?>
<!-- Created with Inkscape (http://www.inkscape.org/) -->

<svg
   width="16"
   height="16"
   viewBox="0 0 16 16"
   version="1.1"
   id="svg371"
   xml:space="preserve"
   inkscape:version="1.2.2 (1:1.2.2+202305151914+b0a8486541)"
   sodipodi:docname="application-x-deb.svg"
   xmlns:inkscape="http://www.inkscape.org/namespaces/inkscape"
   xmlns:sodipodi="http://sodipodi.sourceforge.net/DTD/sodipodi-0.dtd"
   xmlns="http://www.w3.org/2000/svg"
   xmlns:svg="http://www.w3.org/2000/svg"><sodipodi:namedview
     id="namedview373"
     pagecolor="#ffffff"
     bordercolor="#000000"
     borderopacity="0.25"
     inkscape:showpageshadow="2"
     inkscape:pageopacity="0.0"
     inkscape:pagecheckerboard="0"
     inkscape:deskcolor="#d1d1d1"
     inkscape:document-units="px"
     showgrid="false"
     inkscape:zoom="50.375"
     inkscape:cx="8"
     inkscape:cy="8"
     inkscape:window-width="1920"
     inkscape:window-height="1008"
     inkscape:window-x="0"
     inkscape:window-y="0"
     inkscape:window-maximized="1"
     inkscape:current-layer="svg371"
     showguides="false" /><defs
     id="defs368" /><path
     d="m 0,4 v 7 H 2 C 3.4942375,11 4.9999998,9.728578 4.9999998,7.5 4.9999998,5.271422 3.4942375,4 2,4 Z m 5.9999998,0 v 7 h 4 v -1 h -3 V 8 h 3 V 7 h -3 V 5 h 3 V 4 Z M 11,4 v 7 h 3 c 1.104569,0 2,-0.895431 2,-2 C 15.999746,8.1486 15.460511,7.390693 14.65625,7.111328 14.878414,6.783127 14.998059,6.396319 15,6 15,4.895431 14.104569,4 13,4 Z M 1,5 H 2 C 3.0714299,5.204693 3.8950241,5.851395 4,7.5 3.8950241,9.148604 3.0714299,9.795306 2,10 H 1 Z m 11,0 h 1 c 0.552285,0 1,0.447716 1,1 0,0.552285 -0.447715,1 -1,1 h -1 z m 0,3 h 2 c 0.552285,0 1,0.447715 1,1 0,0.552285 -0.447715,1 -1,1 h -2 z"
     style="fill:#ed72a4;fill-opacity:1;stroke-width:1.87083;stroke-linecap:round;stroke-linejoin:round"
     id="path1572" /></svg>
