<?xml version="1.0" encoding="UTF-8" standalone="no"?>
<!-- Created with Inkscape (http://www.inkscape.org/) -->

<svg
   width="16"
   height="16"
   viewBox="0 0 16 16"
   version="1.1"
   id="svg371"
   xml:space="preserve"
   inkscape:version="1.2.2 (1:1.2.2+202305151914+b0a8486541)"
   sodipodi:docname="application-x-theme.svg"
   xmlns:inkscape="http://www.inkscape.org/namespaces/inkscape"
   xmlns:sodipodi="http://sodipodi.sourceforge.net/DTD/sodipodi-0.dtd"
   xmlns="http://www.w3.org/2000/svg"
   xmlns:svg="http://www.w3.org/2000/svg"><sodipodi:namedview
     id="namedview373"
     pagecolor="#ffffff"
     bordercolor="#000000"
     borderopacity="0.25"
     inkscape:showpageshadow="2"
     inkscape:pageopacity="0.0"
     inkscape:pagecheckerboard="0"
     inkscape:deskcolor="#d1d1d1"
     inkscape:document-units="px"
     showgrid="false"
     inkscape:zoom="50.375"
     inkscape:cx="8.0198511"
     inkscape:cy="8"
     inkscape:window-width="1920"
     inkscape:window-height="1008"
     inkscape:window-x="0"
     inkscape:window-y="0"
     inkscape:window-maximized="1"
     inkscape:current-layer="svg371"
     showguides="true" /><defs
     id="defs368" /><path
     d="M 2.0000021,2.0000819 V 5.0000284 H 13.999981 V 2.4999649 c -0.74622,-0.26412 -1.178784,-0.50506 -2.749954,-0.499883 -2.524646,-0.003 -4.001951,0.970599 -6.0000939,0.999875 -1.306187,-0.0018 -2.166725,-0.08105 -3.249931,-0.999875 z m 0,3.9999285 v 3.250009 c -0.002,0.7548876 1.407291,0.9734696 3.000053,1.2500786 1.1678649,0.217636 1.9945469,0.400957 1.9999649,1.499974 0.0017,0.337794 -0.496425,1.045459 -0.499992,1.499974 0,0.82841 0.671563,1.499973 1.499973,1.499973 0.828411,0 1.499974,-0.671563 1.499974,-1.499973 -0.0036,-0.454515 -0.4965,-1.146369 -0.49999,-1.499974 -0.01563,-1.098919 0.832099,-1.282337 1.999964,-1.499974 1.592761,-0.276609 3.001981,-0.495191 3.000031,-1.2500786 v -3.250009 z"
     style="fill:#e85e9f;fill-opacity:1;stroke-width:0.374993"
     id="path598"
     sodipodi:nodetypes="ccccccccccscscccccc" /></svg>
