<?xml version="1.0" encoding="UTF-8" standalone="no"?>
<!-- Created with Inkscape (http://www.inkscape.org/) -->

<svg
   width="16"
   height="16"
   viewBox="0 0 16 16"
   version="1.1"
   id="svg371"
   xml:space="preserve"
   inkscape:version="1.2.2 (1:1.2.2+202305151914+b0a8486541)"
   sodipodi:docname="audio-x-generic.svg"
   xmlns:inkscape="http://www.inkscape.org/namespaces/inkscape"
   xmlns:sodipodi="http://sodipodi.sourceforge.net/DTD/sodipodi-0.dtd"
   xmlns="http://www.w3.org/2000/svg"
   xmlns:svg="http://www.w3.org/2000/svg"><sodipodi:namedview
     id="namedview373"
     pagecolor="#ffffff"
     bordercolor="#000000"
     borderopacity="0.25"
     inkscape:showpageshadow="2"
     inkscape:pageopacity="0.0"
     inkscape:pagecheckerboard="0"
     inkscape:deskcolor="#d1d1d1"
     inkscape:document-units="px"
     showgrid="false"
     inkscape:zoom="50.375"
     inkscape:cx="8"
     inkscape:cy="8"
     inkscape:window-width="1920"
     inkscape:window-height="1008"
     inkscape:window-x="0"
     inkscape:window-y="0"
     inkscape:window-maximized="1"
     inkscape:current-layer="svg371"
     showguides="false" /><defs
     id="defs368" /><path
     id="path517"
     style="fill:#3daacc;fill-opacity:1;stroke-linecap:round;stroke-linejoin:round"
     d="M 8,1 C 7.446003,1 7,1.4460026 7,2 V 7.537109 C 6.392041,7.185614 5.702256,7.000368 5,7 2.7908632,7 1,8.790863 1,11 c 0,2.209137 1.7908632,4 4,4 2.209137,0 4,-1.790863 4,-4 V 3.0566406 C 11.06505,3.0822161 13,4.2314703 13,7 v 1 c 0.0055,0.552255 0.447718,1 1,1 0.552282,0 1,-0.447718 1,-1 V 7 C 15,3.1357277 11.768048,1 9,1 Z M 5,9 A 2,2 0 0 1 7,11 2,2 0 0 1 5,13 2,2 0 0 1 3,11 2,2 0 0 1 5,9 Z" /></svg>
