<?xml version="1.0" encoding="UTF-8" standalone="no"?>
<!-- Created with Inkscape (http://www.inkscape.org/) -->

<svg
   width="16"
   height="16"
   viewBox="0 0 16 16"
   version="1.1"
   id="svg371"
   xml:space="preserve"
   inkscape:version="1.2.2 (1:1.2.2+202305151914+b0a8486541)"
   sodipodi:docname="font-x-generic.svg"
   xmlns:inkscape="http://www.inkscape.org/namespaces/inkscape"
   xmlns:sodipodi="http://sodipodi.sourceforge.net/DTD/sodipodi-0.dtd"
   xmlns="http://www.w3.org/2000/svg"
   xmlns:svg="http://www.w3.org/2000/svg"><sodipodi:namedview
     id="namedview373"
     pagecolor="#ffffff"
     bordercolor="#000000"
     borderopacity="0.25"
     inkscape:showpageshadow="2"
     inkscape:pageopacity="0.0"
     inkscape:pagecheckerboard="0"
     inkscape:deskcolor="#d1d1d1"
     inkscape:document-units="px"
     showgrid="false"
     inkscape:zoom="50.375"
     inkscape:cx="8"
     inkscape:cy="8"
     inkscape:window-width="1920"
     inkscape:window-height="1008"
     inkscape:window-x="0"
     inkscape:window-y="0"
     inkscape:window-maximized="1"
     inkscape:current-layer="svg371"
     showguides="true" /><defs
     id="defs368" /><path
     d="M 4.306641,3.4296875 1,12.857422 h 1.367188 l 0.767578,-2.371094 h 3.75 l 0.769531,2.371094 H 9.033203 L 5.740234,3.4296875 Z M 4.998047,4.7324219 6.507813,9.353516 H 3.5 Z m 7.681641,0.9375 c -0.755206,0 -1.476348,0.1692719 -2.16211,0.5078121 l 0.326172,1.015625 c 0.520831,-0.243054 1.06771,-0.365234 1.640625,-0.365234 0.503471,0 0.886069,0.104168 1.146484,0.3125 0.260416,0.208332 0.390625,0.512805 0.390625,0.912109 v 0.402344 c -1.432286,0.0087 -2.483943,0.213977 -3.152343,0.613281 -0.668401,0.390624 -1.001953,1.002608 -1.001953,1.835938 0,0.668401 0.187283,1.184246 0.560546,1.548828 C 10.809677,12.817707 11.343536,13 12.029297,13 12.975475,13 13.673613,12.643443 14.125,11.931641 v 0.925781 h 1.146484 V 7.921875 c 0,-0.729164 -0.234376,-1.284072 -0.703125,-1.666016 C 14.108292,5.8652357 13.478296,5.6699219 12.679688,5.6699219 Z m 1.341796,3.7109371 v 1.730469 c -0.477428,0.520832 -1.04232,0.78125 -1.693359,0.78125 -0.407985,0 -0.715496,-0.09115 -0.923828,-0.273437 -0.208333,-0.182291 -0.3125,-0.450739 -0.3125,-0.806641 0,-0.48611 0.234377,-0.842666 0.703125,-1.068359 0.468748,-0.225695 1.210941,-0.345922 2.226562,-0.363282 z"
     style="font-weight:500;font-size:13.3333px;font-family:'Noto Sans';-inkscape-font-specification:'SamsungOneKorean Semi-Bold';fill:#b3b3b3;stroke-width:1.96205;stroke-linecap:round;stroke-linejoin:round"
     id="path465" /></svg>
