<?xml version="1.0" encoding="UTF-8" standalone="no"?>
<!-- Created with Inkscape (http://www.inkscape.org/) -->

<svg
   width="16"
   height="16"
   viewBox="0 0 16 16"
   version="1.1"
   id="svg371"
   xml:space="preserve"
   inkscape:version="1.3 (0e150ed6c4, 2023-07-21)"
   sodipodi:docname="package-x-generic.svg"
   xmlns:inkscape="http://www.inkscape.org/namespaces/inkscape"
   xmlns:sodipodi="http://sodipodi.sourceforge.net/DTD/sodipodi-0.dtd"
   xmlns:xlink="http://www.w3.org/1999/xlink"
   xmlns="http://www.w3.org/2000/svg"
   xmlns:svg="http://www.w3.org/2000/svg"><sodipodi:namedview
     id="namedview373"
     pagecolor="#ffffff"
     bordercolor="#000000"
     borderopacity="0.25"
     inkscape:showpageshadow="2"
     inkscape:pageopacity="0.0"
     inkscape:pagecheckerboard="0"
     inkscape:deskcolor="#d1d1d1"
     inkscape:document-units="px"
     showgrid="false"
     inkscape:zoom="49.75"
     inkscape:cx="7.9899497"
     inkscape:cy="8"
     inkscape:window-width="1920"
     inkscape:window-height="1000"
     inkscape:window-x="0"
     inkscape:window-y="0"
     inkscape:window-maximized="1"
     inkscape:current-layer="svg371"
     showguides="false" /><defs
     id="defs368"><linearGradient
       inkscape:collect="always"
       id="linearGradient1836"><stop
         style="stop-color:#f69000;stop-opacity:1;"
         offset="0"
         id="stop1832" /><stop
         style="stop-color:#f9a900;stop-opacity:1;"
         offset="1"
         id="stop1834" /></linearGradient><linearGradient
       inkscape:collect="always"
       xlink:href="#linearGradient1836"
       id="linearGradient2"
       x1="37"
       y1="36"
       x2="37"
       y2="12"
       gradientUnits="userSpaceOnUse"
       gradientTransform="matrix(0.5,0,0,0.5,-3.5,-4)" /></defs><path
     id="rect419"
     style="fill:url(#linearGradient2);fill-opacity:1;stroke-width:0.53033"
     d="M 2,2 C 1.4460045,2 1,2.4460044 1,3 v 9.5 C 1,13.330994 1.6690052,14 2.5,14 h 11 c 0.830994,0 1.5,-0.669006 1.5,-1.5 v -7 C 15,4.6690052 14.330994,4 13.5,4 h -5 V 3 C 8.5,2.4460044 8.053994,2 7.5,2 H 5 C 5,2.5522826 4.5522826,3 4,3 3.4477174,3 3,2.5522826 3,2 Z M 4,4 C 4.5522826,4 5,4.4477173 5,5 5,5.5522826 4.5522826,6 4,6 3.4477174,6 3,5.5522826 3,5 3,4.4477173 3.4477174,4 4,4 Z M 4,7 C 4.5522826,7 5,7.447719 5,8 5,8.552281 4.5522826,9 4,9 3.4477174,9 3,8.552281 3,8 3,7.447719 3.4477174,7 4,7 Z m 0,3 c 0.5522826,0 1,0.447719 1,1 0,0.552281 -0.4477174,1 -1,1 -0.5522826,0 -1,-0.447719 -1,-1 0,-0.552281 0.4477174,-1 1,-1 z" /></svg>
