<?xml version="1.0" encoding="UTF-8" standalone="no"?>
<!-- Created with Inkscape (http://www.inkscape.org/) -->

<svg
   width="16"
   height="16"
   viewBox="0 0 16 16"
   version="1.1"
   id="svg371"
   xml:space="preserve"
   inkscape:version="1.2.2 (1:1.2.2+202305151914+b0a8486541)"
   sodipodi:docname="x-office-presentation.svg"
   xmlns:inkscape="http://www.inkscape.org/namespaces/inkscape"
   xmlns:sodipodi="http://sodipodi.sourceforge.net/DTD/sodipodi-0.dtd"
   xmlns="http://www.w3.org/2000/svg"
   xmlns:svg="http://www.w3.org/2000/svg"><sodipodi:namedview
     id="namedview373"
     pagecolor="#ffffff"
     bordercolor="#000000"
     borderopacity="0.25"
     inkscape:showpageshadow="2"
     inkscape:pageopacity="0.0"
     inkscape:pagecheckerboard="0"
     inkscape:deskcolor="#d1d1d1"
     inkscape:document-units="px"
     showgrid="false"
     inkscape:zoom="50.375"
     inkscape:cx="8"
     inkscape:cy="8"
     inkscape:window-width="1920"
     inkscape:window-height="1008"
     inkscape:window-x="0"
     inkscape:window-y="0"
     inkscape:window-maximized="1"
     inkscape:current-layer="svg371"
     showguides="true" /><defs
     id="defs368" /><path
     id="rect509"
     style="fill:#fd8d2e;fill-opacity:1;stroke-width:0.25;stroke-linecap:round;stroke-linejoin:round"
     d="M 9.5,3 C 9.223001,3 9,3.2230005 9,3.5 9,3.777 9.223001,4 9.5,4 h 5 C 14.776999,4 15,3.777 15,3.5 15,3.2230005 14.776999,3 14.5,3 Z m 0,3 C 9.223001,6 9,6.223001 9,6.5 9,6.777 9.223001,7 9.5,7 h 5 C 14.776999,7 15,6.777 15,6.5 15,6.223001 14.776999,6 14.5,6 Z m -8,3 C 1.2230005,9 1,9.223 1,9.5 1,9.777 1.2230005,10 1.5,10 h 13 C 14.776999,10 15,9.777 15,9.5 15,9.223 14.776999,9 14.5,9 Z m 0,3 C 1.2230005,12 1,12.223 1,12.5 1,12.776999 1.2230005,13 1.5,13 H 8 C 8.277,13 8.5,12.776999 8.5,12.5 8.5,12.223 8.277,12 8,12 Z"
     sodipodi:nodetypes="ssssssssssssssssssssssssssss" /><path
     id="path290"
     style="fill:#fec999;fill-opacity:1;stroke-width:0.75;stroke-linecap:round"
     d="M 4,2 A 3,3 0 0 0 1,5 3,3 0 0 0 4,8 3,3 0 0 0 7,5 H 4 Z" /></svg>
