<?xml version="1.0" encoding="UTF-8" standalone="no"?>
<!-- Created with Inkscape (http://www.inkscape.org/) -->

<svg
   width="16"
   height="16"
   viewBox="0 0 16 16"
   version="1.1"
   id="svg5"
   inkscape:version="1.2.2 (1:1.2.2+202305151914+b0a8486541)"
   sodipodi:docname="document-print.svg"
   xmlns:inkscape="http://www.inkscape.org/namespaces/inkscape"
   xmlns:sodipodi="http://sodipodi.sourceforge.net/DTD/sodipodi-0.dtd"
   xmlns="http://www.w3.org/2000/svg"
   xmlns:svg="http://www.w3.org/2000/svg">
  <sodipodi:namedview
     id="namedview7"
     pagecolor="#ffffff"
     bordercolor="#000000"
     borderopacity="0.25"
     inkscape:showpageshadow="2"
     inkscape:pageopacity="0.0"
     inkscape:pagecheckerboard="0"
     inkscape:deskcolor="#d1d1d1"
     inkscape:document-units="px"
     showgrid="false"
     inkscape:zoom="50.375"
     inkscape:cx="8.0198511"
     inkscape:cy="8"
     inkscape:window-width="1920"
     inkscape:window-height="1008"
     inkscape:window-x="0"
     inkscape:window-y="0"
     inkscape:window-maximized="1"
     inkscape:current-layer="svg5" />
  <defs
     id="defs2">
    <style
       id="current-color-scheme"
       type="text/css">
         .ColorScheme-Text { color:#dfdfdf; }
        </style>
  </defs>
  <path
     d="M 5,1 C 3.8920021,1 3,1.8920019 3,3 V 8 C 1.8920022,8 1,8.8920022 1,10 v 3 c 0,1.107997 0.8920022,2 2,2 h 10 c 1.107998,0 2,-0.892003 2,-2 V 10 C 15,8.8920022 14.107998,8 13,8 V 5.5 C 13.0035,4.6594834 12.825643,4.3296725 12.5,4 L 10,1.5 C 9.537031,1.0712064 9.195497,1 8.5,1 Z m 0,1 h 3 v 2 c 0,1.1079977 0.8920026,2 2,2 h 2 V 8 H 4 V 3 C 4,2.4460011 4.4460006,2 5,2 Z m 4,0 3,3 H 10 C 9.4460013,5 9,4.553999 9,4 Z M 3,9 h 10 c 0.553998,0 1,0.4460012 1,1 v 3 c 0,0.553998 -0.446002,1 -1,1 h -1 v -2 c 0,-0.553997 -0.446003,-1 -1,-1 H 5 c -0.5539982,0 -1,0.446003 -1,1 v 2 H 3 C 2.4460012,14 2,13.553998 2,13 V 10 C 2,9.4460012 2.4460012,9 3,9 Z m 2,3 h 6 v 2 H 5 Z"
     style="fill:currentColor;stroke:none;stroke-width:2;stroke-linecap:round;stroke-linejoin:round;stroke-dasharray:none;stroke-opacity:1"
     class="ColorScheme-Text"
     id="path1407" />
</svg>
