<?xml version="1.0" encoding="UTF-8" standalone="no"?>
<!-- Created with Inkscape (http://www.inkscape.org/) -->

<svg
   width="16"
   height="16"
   viewBox="0 0 16 16"
   version="1.1"
   id="svg405"
   inkscape:version="1.2.2 (1:1.2.2+202305151914+b0a8486541)"
   sodipodi:docname="fcitx-wubi.svg"
   xmlns:inkscape="http://www.inkscape.org/namespaces/inkscape"
   xmlns:sodipodi="http://sodipodi.sourceforge.net/DTD/sodipodi-0.dtd"
   xmlns="http://www.w3.org/2000/svg"
   xmlns:svg="http://www.w3.org/2000/svg">
  <sodipodi:namedview
     id="namedview407"
     pagecolor="#ffffff"
     bordercolor="#000000"
     borderopacity="0.25"
     inkscape:showpageshadow="2"
     inkscape:pageopacity="0.0"
     inkscape:pagecheckerboard="0"
     inkscape:deskcolor="#d1d1d1"
     inkscape:document-units="px"
     showgrid="false"
     inkscape:zoom="50.375"
     inkscape:cx="7.9900744"
     inkscape:cy="8"
     inkscape:window-width="1920"
     inkscape:window-height="1008"
     inkscape:window-x="0"
     inkscape:window-y="0"
     inkscape:window-maximized="1"
     inkscape:current-layer="svg405" />
  <defs
     id="defs402">
    <style
       id="current-color-scheme"
       type="text/css">
         .ColorScheme-Text { color:#dfdfdf; }
        </style>
  </defs>
  <path
     id="path343"
     style="fill:currentColor;fill-opacity:1;stroke-linecap:round;stroke-linejoin:round"
     class="ColorScheme-Text"
     d="M 3 1 C 1.8920044 1 1 1.8920044 1 3 L 1 13 C 1 14.107996 1.8920044 15 3 15 L 13 15 C 14.107996 15 15 14.107996 15 13 L 15 3 C 15 1.8920044 14.107996 1 13 1 L 3 1 z M 3 2 L 13 2 C 13.553997 2 14 2.4460018 14 3 L 14 13 C 14 13.553997 13.553997 14 13 14 L 3 14 C 2.4460018 14 2 13.553997 2 13 L 2 3 C 2 2.4460018 2.4460018 2 3 2 z M 3 3 L 3 4 L 6.8769531 4 L 6.2109375 7 L 4 7 L 4 8 L 5.9882812 8 L 5.0996094 12 L 3 12 L 3 13 L 13 13 L 13 12 L 11 12 L 11 7 L 7.2363281 7 L 7.9023438 4 L 12 4 L 12 3 L 3 3 z M 7.0136719 8 L 10 8 L 10 12 L 6.1230469 12 L 7.0136719 8 z " />
</svg>
