<?xml version="1.0" encoding="UTF-8" standalone="no"?>
<!-- Created with Inkscape (http://www.inkscape.org/) -->

<svg
   width="16"
   height="16"
   viewBox="0 0 16 16"
   version="1.1"
   id="svg5"
   inkscape:version="1.2.2 (1:1.2.2+202305151914+b0a8486541)"
   sodipodi:docname="folder-new.svg"
   xmlns:inkscape="http://www.inkscape.org/namespaces/inkscape"
   xmlns:sodipodi="http://sodipodi.sourceforge.net/DTD/sodipodi-0.dtd"
   xmlns="http://www.w3.org/2000/svg"
   xmlns:svg="http://www.w3.org/2000/svg">
  <sodipodi:namedview
     id="namedview7"
     pagecolor="#ffffff"
     bordercolor="#000000"
     borderopacity="0.25"
     inkscape:showpageshadow="2"
     inkscape:pageopacity="0.0"
     inkscape:pagecheckerboard="0"
     inkscape:deskcolor="#d1d1d1"
     inkscape:document-units="px"
     showgrid="false"
     inkscape:zoom="50.375"
     inkscape:cx="8"
     inkscape:cy="8"
     inkscape:window-width="1920"
     inkscape:window-height="1008"
     inkscape:window-x="0"
     inkscape:window-y="0"
     inkscape:window-maximized="1"
     inkscape:current-layer="svg5"
     showguides="false" />
  <defs
     id="defs2">
    <style
       id="current-color-scheme"
       type="text/css">
         .ColorScheme-Text { color:#dfdfdf; }
        </style>
  </defs>
  <path
     id="rect788"
     style="fill:currentColor;stroke:none"
     class="ColorScheme-Text"
     d="M 3 2 C 1.8920033 2 1 2.8920033 1 4 L 1 13 C 1 14.107997 1.8920033 15 3 15 L 10 15 L 10 14 L 3 14 C 2.4460018 14 2 13.553997 2 13 L 2 4 C 2 3.4460018 2.4460018 3 3 3 L 6 3 C 6.5508346 2.99717 6.6299215 3.1121012 6.9121094 3.4121094 L 7.5253906 4.5253906 C 7.9159259 4.9446621 8.1947387 5.002665 8.8105469 5 L 13 5 C 13.67359 4.99787 14.012178 5.3007609 14 6 L 14 10 L 15 10 L 15 6 C 15 4.8920033 14.107997 3.9999743 13 4 L 8.5 4 L 7.6542969 2.6542969 C 7.0818751 2.038247 6.809981 2 6 2 L 3 2 z M 13 11 L 13 13 L 11 13 L 11 14 L 13 14 L 13 16 L 14 16 L 14 14 L 16 14 L 16 13 L 14 13 L 14 11 L 13 11 z " />
</svg>
