<?xml version="1.0" encoding="UTF-8" standalone="no"?>
<!-- Created with Inkscape (http://www.inkscape.org/) -->

<svg
   width="16"
   height="16"
   viewBox="0 0 4.2333332 4.2333335"
   version="1.1"
   id="svg11945"
   inkscape:version="1.2.2 (1:1.2.2+202305151914+b0a8486541)"
   sodipodi:docname="im-user-offline.svg"
   xmlns:inkscape="http://www.inkscape.org/namespaces/inkscape"
   xmlns:sodipodi="http://sodipodi.sourceforge.net/DTD/sodipodi-0.dtd"
   xmlns="http://www.w3.org/2000/svg"
   xmlns:svg="http://www.w3.org/2000/svg">
  <sodipodi:namedview
     id="namedview11947"
     pagecolor="#ffffff"
     bordercolor="#666666"
     borderopacity="1.0"
     inkscape:pageshadow="2"
     inkscape:pageopacity="0.0"
     inkscape:pagecheckerboard="0"
     inkscape:document-units="px"
     showgrid="false"
     units="in"
     inkscape:zoom="25.1875"
     inkscape:cx="4.5657568"
     inkscape:cy="7.8213399"
     inkscape:window-width="1920"
     inkscape:window-height="1008"
     inkscape:window-x="0"
     inkscape:window-y="0"
     inkscape:window-maximized="1"
     inkscape:current-layer="svg11945"
     showguides="true"
     inkscape:showpageshadow="2"
     inkscape:deskcolor="#d1d1d1" />
  <defs
     id="defs11942">
    <style
       id="current-color-scheme"
       type="text/css">
         .ColorScheme-Text { color:#dfdfdf; }
        </style>
  </defs>
  <path
     id="path1130"
     style="fill:currentColor;fill-opacity:1;stroke-width:0.132291;opacity:0.35"
     class="ColorScheme-Text"
     d="m 2.1166666,0.26453386 c -0.4383721,0 -0.79375,0.35537759 -0.79375,0.79375004 0,0.4383721 0.3553779,0.79375 0.79375,0.79375 0.4383722,0 0.7937499,-0.3553779 0.7937499,-0.79375 0,-0.43837245 -0.3553777,-0.79375004 -0.7937499,-0.79375004 z m 0,0.26458333 c 0.2922497,0 0.5291666,0.23691686 0.5291666,0.52916671 0,0.2922498 -0.2369169,0.5291667 -0.5291666,0.5291667 -0.2922499,0 -0.5291667,-0.2369169 -0.5291667,-0.5291667 0,-0.29224985 0.2369168,-0.52916671 0.5291667,-0.52916671 z m 0,1.85208331 c -0.7865623,0 -1.46149416,0.5721612 -1.58749993,1.3229167 0,0.1465784 0.11800464,0.2645833 0.26458333,0.2645833 h 2.6458332 c 0.1465784,0 0.2645833,-0.1180049 0.2645833,-0.2645833 C 3.5781603,2.9533617 2.9032286,2.3812005 2.1166666,2.3812005 Z m 0,0.2645834 c 0.6881127,-3.44e-4 1.1759779,0.38447 1.3229166,1.0583333 H 0.79375 C 0.94068895,3.0302539 1.4285536,2.6454399 2.1166666,2.6457839 Z" />
</svg>
