<?xml version="1.0" encoding="UTF-8" standalone="no"?>
<!-- Created with Inkscape (http://www.inkscape.org/) -->

<svg
   width="16"
   height="16"
   viewBox="0 0 16 16"
   version="1.1"
   id="svg5"
   inkscape:version="1.2.2 (1:1.2.2+202305151914+b0a8486541)"
   sodipodi:docname="preferences-desktop-wallpaper.svg"
   xmlns:inkscape="http://www.inkscape.org/namespaces/inkscape"
   xmlns:sodipodi="http://sodipodi.sourceforge.net/DTD/sodipodi-0.dtd"
   xmlns="http://www.w3.org/2000/svg"
   xmlns:svg="http://www.w3.org/2000/svg">
  <sodipodi:namedview
     id="namedview7"
     pagecolor="#ffffff"
     bordercolor="#000000"
     borderopacity="0.25"
     inkscape:showpageshadow="2"
     inkscape:pageopacity="0.0"
     inkscape:pagecheckerboard="0"
     inkscape:deskcolor="#d1d1d1"
     inkscape:document-units="px"
     showgrid="false"
     inkscape:zoom="50.375"
     inkscape:cx="8"
     inkscape:cy="8"
     inkscape:window-width="1920"
     inkscape:window-height="1008"
     inkscape:window-x="0"
     inkscape:window-y="0"
     inkscape:window-maximized="1"
     inkscape:current-layer="svg5" />
  <defs
     id="defs2">
    <style
       id="current-color-scheme"
       type="text/css">
         .ColorScheme-Text { color:#dfdfdf; }
        </style>
  </defs>
  <path
     d="M 3,2 C 1.8920001,2 1.0000001,2.892 1.0000001,4 v 8 c 0,1.108 0.892,2 1.9999999,2 h 10 c 1.107999,0 1.999999,-0.892 1.999999,-2 V 4 c 0,-1.108 -0.892,-2 -1.999999,-2 z m 0,1 h 10 c 0.553999,0 0.999999,0.446 0.999999,1 V 8.5863914 L 11.705078,6.288751 C 11.510051,6.0949369 11.254972,5.997735 11,5.997735 c -0.254971,0 -0.51005,0.097202 -0.705077,0.291016 L 6.9980467,10.185672 4.7089842,8.291141 c -0.3909007,-0.3925451 -1.0251153,-0.3925451 -1.4160154,0 L 2.0000001,9.5860628 V 4 C 2.0000001,3.446 2.446,3 3,3 Z m 8.017578,3.9977356 c 0.125593,0.00307 0.248178,0.054153 0.339843,0.1445291 l 2.642578,2.6433431 v 2.2143902 c 0,0.554 -0.446,1.000001 -0.999999,1.000001 H 3 c -0.554,0 -0.9999999,-0.446001 -0.9999999,-1.000001 V 10.785281 L 3.6464844,9.1427028 c 0.1829667,-0.181397 0.4738119,-0.1940767 0.671875,-0.0293 l 2.3828122,1.9824222 c 0.1736013,0.156193 0.4485676,0.127559 0.5781249,-0.01954 L 10.669922,7.1266315 c 0.06323,-0.056697 0.139857,-0.096355 0.222655,-0.1152341 0.04178,-0.00975 0.08314,-0.014702 0.125001,-0.013682 z"
     style="fill:currentColor;fill-opacity:1;stroke:none;stroke-width:4.31947;stroke-linecap:round;stroke-miterlimit:4;stroke-dasharray:none"
     class="ColorScheme-Text"
     id="path7782"
     sodipodi:nodetypes="ssssssssssssccscccccsscccssssccccccccc" />
</svg>
