<?xml version="1.0" encoding="UTF-8" standalone="no"?>
<!-- Created with Inkscape (http://www.inkscape.org/) -->

<svg
   width="24"
   height="24"
   viewBox="0 0 24 24"
   version="1.1"
   id="svg371"
   xml:space="preserve"
   inkscape:version="1.2.2 (1:1.2.2+202305151914+b0a8486541)"
   sodipodi:docname="configure.svg"
   xmlns:inkscape="http://www.inkscape.org/namespaces/inkscape"
   xmlns:sodipodi="http://sodipodi.sourceforge.net/DTD/sodipodi-0.dtd"
   xmlns="http://www.w3.org/2000/svg"
   xmlns:svg="http://www.w3.org/2000/svg"><sodipodi:namedview
   id="namedview373"
   pagecolor="#ffffff"
   bordercolor="#000000"
   borderopacity="0.25"
   inkscape:showpageshadow="2"
   inkscape:pageopacity="0.0"
   inkscape:pagecheckerboard="0"
   inkscape:deskcolor="#d1d1d1"
   inkscape:document-units="px"
   showgrid="false"
   inkscape:zoom="33.583333"
   inkscape:cx="12"
   inkscape:cy="12"
   inkscape:window-width="1920"
   inkscape:window-height="1008"
   inkscape:window-x="0"
   inkscape:window-y="0"
   inkscape:window-maximized="1"
   inkscape:current-layer="svg371"
   showguides="false" />
    <defs
   id="defs368">
        <style
   id="current-color-scheme"
   type="text/css">
         .ColorScheme-Text { color:#4d4d4d; }
        </style>
    </defs>
    
    <path
   id="path1430"
   style="fill:currentColor;stroke:none;stroke-width:2;stroke-linecap:round;stroke-linejoin:round;-inkscape-stroke:none"
   class="ColorScheme-Text"
   d="M 10.999998,4 C 10.446001,4 10.116077,4.4583003 9.9999982,5 L 9.4472638,7.578125 6.9374982,6.7675781 C 6.423371,6.5612137 5.8492623,6.65499 5.5722638,7.1347656 l -1,1.7304688 C 4.2952652,9.3450099 4.5264117,9.8610447 4.9374982,10.232422 L 6.8945294,12 4.9374982,13.767578 c -0.411087,0.371378 -0.642233,0.887411 -0.3652344,1.367188 l 1,1.730468 c 0.2769985,0.479778 0.8511079,0.573554 1.3652344,0.367188 L 9.4472638,16.421875 9.9999982,19 c 0.07835,0.548428 0.4460028,1 0.9999998,1 h 2 c 0.553999,0 0.883921,-0.458301 1,-1 l 0.552734,-2.578125 2.509766,0.810547 c 0.514124,0.206366 1.088237,0.112598 1.365234,-0.367188 l 1,-1.730468 c 0.277,-0.479777 0.04587,-0.99581 -0.365234,-1.367188 L 17.105467,12 19.062498,10.232422 c 0.411088,-0.3713773 0.642234,-0.8874121 0.365234,-1.3671876 l -1,-1.7304688 C 18.150735,6.65499 17.576623,6.5612137 17.062498,6.7675781 L 14.552732,7.578125 13.999998,5 c -0.07835,-0.5484292 -0.446001,-1 -1,-1 z m 0.0625,1 h 1.896484 c 0.01149,0.016525 0.03882,0.056927 0.05078,0.140625 a 1.0001,1.0001 0 0 0 0.01172,0.068359 l 0.554688,2.578125 a 1.0001,1.0001 0 0 0 1.285156,0.7421879 L 17.369139,7.71875 a 1.0001,1.0001 0 0 0 0.06641,-0.023437 c 0.078,-0.031309 0.126035,-0.02705 0.146484,-0.025391 L 18.531248,9.3125 c -0.01379,0.028557 -0.04728,0.095167 -0.138672,0.1777344 l -1.957031,1.7675786 a 1.0001,1.0001 0 0 0 0,1.484375 l 1.957031,1.767578 c 0.0914,0.08256 0.124889,0.149182 0.138672,0.177734 l -0.949219,1.642578 c -0.02045,0.0017 -0.06848,0.0059 -0.146484,-0.02539 a 1.0001,1.0001 0 0 0 -0.06641,-0.02344 l -2.507809,-0.810545 a 1.0001,1.0001 0 0 0 -1.285156,0.742188 l -0.554688,2.578125 C 12.995629,18.911665 12.955248,18.973963 12.937498,19 h -1.896484 c -0.01149,-0.01652 -0.03882,-0.05693 -0.05078,-0.140625 a 1.0001,1.0001 0 0 0 -0.01172,-0.06836 L 10.423826,16.212891 A 1.0001,1.0001 0 0 0 9.1386701,15.470703 L 6.6308576,16.28125 a 1.0001,1.0001 0 0 0 -0.066406,0.02344 C 6.4864496,16.336 6.4384156,16.33174 6.4179673,16.33008 L 5.4687482,14.6875 c 0.013786,-0.02856 0.047275,-0.09517 0.1386719,-0.177734 l 1.9570312,-1.767578 a 1.0001,1.0001 0 0 0 0,-1.484375 L 5.6074201,9.4902344 C 5.5160238,9.4076667 5.4825338,9.3410578 5.4687482,9.3125 L 6.417967,7.6699219 c 0.020449,-0.00166 0.068481,-0.00592 0.1464843,0.025391 A 1.0001,1.0001 0 0 0 6.6308576,7.71875 L 9.1386701,8.5292969 A 1.0001,1.0001 0 0 0 10.423826,7.7871094 l 0.554688,-2.578125 C 11.004367,5.0883362 11.044747,5.026037 11.062498,5 Z m 0.9375,4 c -1.656849,0 -2.9999998,1.343151 -2.9999998,3 0,1.656849 1.3431508,3 2.9999998,3 1.656849,0 3,-1.343151 3,-3 0,-1.656849 -1.343151,-3 -3,-3 z m 0,1 c 1.104566,0 2,0.895434 2,2 0,1.104566 -0.895434,2 -2,2 -1.104566,0 -1.9999998,-0.895434 -1.9999998,-2 0,-1.104566 0.8954338,-2 1.9999998,-2 z" /></svg>
