<?xml version="1.0" encoding="UTF-8" standalone="no"?>
<!-- Created with Inkscape (http://www.inkscape.org/) -->

<svg
   width="24"
   height="24"
   viewBox="0 0 24 24"
   version="1.1"
   id="svg5"
   inkscape:version="1.2.2 (1:1.2.2+202305151914+b0a8486541)"
   sodipodi:docname="go-top.svg"
   xmlns:inkscape="http://www.inkscape.org/namespaces/inkscape"
   xmlns:sodipodi="http://sodipodi.sourceforge.net/DTD/sodipodi-0.dtd"
   xmlns="http://www.w3.org/2000/svg"
   xmlns:svg="http://www.w3.org/2000/svg">
  <sodipodi:namedview
     id="namedview7"
     pagecolor="#ffffff"
     bordercolor="#000000"
     borderopacity="0.25"
     inkscape:showpageshadow="2"
     inkscape:pageopacity="0.0"
     inkscape:pagecheckerboard="0"
     inkscape:deskcolor="#d1d1d1"
     inkscape:document-units="px"
     showgrid="false"
     inkscape:zoom="33.583333"
     inkscape:cx="11.985112"
     inkscape:cy="12"
     inkscape:window-width="1920"
     inkscape:window-height="1008"
     inkscape:window-x="0"
     inkscape:window-y="0"
     inkscape:window-maximized="1"
     inkscape:current-layer="svg5" />
  <defs
     id="defs2">
    <style
       id="current-color-scheme"
       type="text/css">
         .ColorScheme-Text { color:#4d4d4d; }
        </style>
  </defs>
  <path
     id="path342"
     style="fill:currentColor;fill-opacity:1;stroke-width:5.00001;stroke-linecap:round;stroke-linejoin:round"
     class="ColorScheme-Text"
     d="m 12,6 c -0.552284,0 -1,0.4477159 -1,1 0,0.5522841 0.447716,1 1,1 0.552284,0 1,-0.4477159 1,-1 0,-0.5522841 -0.447716,-1 -1,-1 z m 0,3.34375 c -0.127808,1.4e-6 -0.255575,0.048555 -0.353516,0.1464844 L 3.9902344,17.146484 c -0.1958696,0.195869 -0.1958698,0.511162 0,0.707032 0.1958677,0.19587 0.5111644,0.19587 0.7070312,0 L 12,10.550781 l 7.302734,7.302735 c 0.195867,0.195869 0.511162,0.19587 0.707032,0 0.195868,-0.195868 0.195857,-0.51115 0,-0.707032 L 12.373047,9.5097656 c -0.0057,-0.00635 -0.01343,-0.013431 -0.01953,-0.019531 C 12.255582,9.3922995 12.127808,9.3437486 12,9.34375 Z" />
</svg>
