<?xml version="1.0" encoding="UTF-8" standalone="no"?>
<!-- Created with Inkscape (http://www.inkscape.org/) -->

<svg
   width="24"
   height="24"
   viewBox="0 0 24 24"
   version="1.1"
   id="svg5"
   inkscape:version="1.2.2 (1:1.2.2+202305151914+b0a8486541)"
   sodipodi:docname="media-skip-forward.svg"
   xmlns:inkscape="http://www.inkscape.org/namespaces/inkscape"
   xmlns:sodipodi="http://sodipodi.sourceforge.net/DTD/sodipodi-0.dtd"
   xmlns="http://www.w3.org/2000/svg"
   xmlns:svg="http://www.w3.org/2000/svg">
  <sodipodi:namedview
     id="namedview7"
     pagecolor="#ffffff"
     bordercolor="#000000"
     borderopacity="0.25"
     inkscape:showpageshadow="2"
     inkscape:pageopacity="0.0"
     inkscape:pagecheckerboard="0"
     inkscape:deskcolor="#d1d1d1"
     inkscape:document-units="px"
     showgrid="false"
     inkscape:zoom="33.583333"
     inkscape:cx="12"
     inkscape:cy="12"
     inkscape:window-width="1920"
     inkscape:window-height="1008"
     inkscape:window-x="0"
     inkscape:window-y="0"
     inkscape:window-maximized="1"
     inkscape:current-layer="svg5" />
  <defs
     id="defs2">
    <style
       id="current-color-scheme"
       type="text/css">
         .ColorScheme-Text { color:#4d4d4d; }
        </style>
  </defs>
  <path
     id="path924"
     style="fill:currentColor;fill-opacity:1;stroke-width:0.746246;stroke-linecap:round;stroke-linejoin:round;stroke-miterlimit:1"
     class="ColorScheme-Text"
     d="m 19.499773,7.0002678 c 0.277,0 0.5,0.2230003 0.5,0.5 v 9.0000002 c 0,0.277 -0.223,0.5 -0.5,0.5 -0.277,0 -0.5,-0.223 -0.5,-0.5 v -3.925966 l -7.314227,4.369325 c -0.309078,0.169061 -0.684947,-0.05647 -0.685547,-0.410156 v -3.968934 l -7.314452,4.37909 C 3.376469,17.112688 3.000599,16.887157 3,16.533471 V 7.4670647 C 3.000557,7.1133792 3.376469,6.8898001 3.685547,7.0588616 l 7.314452,4.3787214 V 7.4670647 c 4.18e-4,-0.2652641 0.210944,-0.4583942 0.447267,-0.4667969 0.07877,-0.0028 0.161011,0.016328 0.23828,0.058594 l 7.314227,4.3670032 V 7.5002678 c 0,-0.2769997 0.223,-0.5 0.5,-0.5 z"
     sodipodi:nodetypes="sssssccccccccccsccss" />
</svg>
