<?xml version="1.0" encoding="UTF-8" standalone="no"?>
<!-- Created with Inkscape (http://www.inkscape.org/) -->

<svg
   width="24"
   height="24"
   viewBox="0 0 24 24"
   version="1.1"
   id="svg5"
   inkscape:version="1.2.2 (1:1.2.2+202305151914+b0a8486541)"
   sodipodi:docname="media-playlist-play.svg"
   xmlns:inkscape="http://www.inkscape.org/namespaces/inkscape"
   xmlns:sodipodi="http://sodipodi.sourceforge.net/DTD/sodipodi-0.dtd"
   xmlns="http://www.w3.org/2000/svg"
   xmlns:svg="http://www.w3.org/2000/svg">
  <sodipodi:namedview
     id="namedview7"
     pagecolor="#ffffff"
     bordercolor="#000000"
     borderopacity="0.25"
     inkscape:showpageshadow="2"
     inkscape:pageopacity="0.0"
     inkscape:pagecheckerboard="0"
     inkscape:deskcolor="#d1d1d1"
     inkscape:document-units="px"
     showgrid="false"
     inkscape:zoom="33.583333"
     inkscape:cx="12"
     inkscape:cy="12"
     inkscape:window-width="1920"
     inkscape:window-height="1008"
     inkscape:window-x="0"
     inkscape:window-y="0"
     inkscape:window-maximized="1"
     inkscape:current-layer="svg5" />
  <defs
     id="defs2">
    <style
       id="current-color-scheme"
       type="text/css">
         .ColorScheme-Text { color:#4d4d4d; }
        </style>
  </defs>
  <path
     id="rect286"
     style="fill:currentColor;stroke-width:2;stroke-linecap:round;stroke-linejoin:round"
     class="ColorScheme-Text"
     d="M 4.5,5 C 4.2230009,5 4,5.2230009 4,5.5 4,5.7769991 4.2230009,6 4.5,6 h 15 C 19.777,6 20,5.7769991 20,5.5 20,5.2230009 19.777,5 19.5,5 Z M 4.3359375,9 C 4.158693,9.0063022 4.0003135,9.1506575 4,9.3496094 v 4.3007816 c 4.475e-4,0.265268 0.2818592,0.433438 0.5136719,0.30664 l 3.8046875,-2.15039 c 0.2423364,-0.132566 0.2423364,-0.480715 0,-0.613282 L 4.5136719,9.0429688 C 4.4557187,9.0112691 4.395019,8.9978993 4.3359375,9 Z M 10.5,9 C 10.223001,9 10,9.2230009 10,9.5 10,9.7769991 10.223001,10 10.5,10 h 9 C 19.777,10 20,9.7769991 20,9.5 20,9.2230009 19.777,9 19.5,9 Z m 0,4 c -0.276999,0 -0.5,0.223 -0.5,0.5 0,0.277 0.223001,0.5 0.5,0.5 h 9 C 19.777,14 20,13.777 20,13.5 20,13.223 19.777,13 19.5,13 Z m -6,4 C 4.2230009,17 4,17.223 4,17.5 4,17.777 4.2230009,18 4.5,18 h 15 C 19.777,18 20,17.777 20,17.5 20,17.223 19.777,17 19.5,17 Z" />
</svg>
