<?xml version="1.0" encoding="UTF-8" standalone="no"?>
<!-- Created with Inkscape (http://www.inkscape.org/) -->

<svg
   width="48"
   height="48"
   viewBox="0 0 48 48"
   version="1.1"
   id="svg371"
   xml:space="preserve"
   inkscape:version="1.2.1 (1:1.2.1+202210291243+9c6d41e410)"
   sodipodi:docname="accessories-calculator.svg"
   xmlns:inkscape="http://www.inkscape.org/namespaces/inkscape"
   xmlns:sodipodi="http://sodipodi.sourceforge.net/DTD/sodipodi-0.dtd"
   xmlns:xlink="http://www.w3.org/1999/xlink"
   xmlns="http://www.w3.org/2000/svg"
   xmlns:svg="http://www.w3.org/2000/svg"><sodipodi:namedview
     id="namedview373"
     pagecolor="#ffffff"
     bordercolor="#000000"
     borderopacity="0.25"
     inkscape:showpageshadow="2"
     inkscape:pageopacity="0.0"
     inkscape:pagecheckerboard="0"
     inkscape:deskcolor="#d1d1d1"
     inkscape:document-units="px"
     showgrid="false"
     inkscape:zoom="17.1875"
     inkscape:cx="23.970909"
     inkscape:cy="24"
     inkscape:window-width="1920"
     inkscape:window-height="1018"
     inkscape:window-x="0"
     inkscape:window-y="28"
     inkscape:window-maximized="1"
     inkscape:current-layer="svg371"
     showguides="false" /><defs
     id="defs368"><linearGradient
       inkscape:collect="always"
       xlink:href="#linearGradient1285"
       id="linearGradient3040"
       x1="32"
       y1="62"
       x2="32"
       y2="2"
       gradientUnits="userSpaceOnUse"
       gradientTransform="matrix(0.73333335,0,0,0.73333335,0.53333337,0.53333337)" /><linearGradient
       inkscape:collect="always"
       id="linearGradient1285"><stop
         style="stop-color:#2e781e;stop-opacity:1;"
         offset="0"
         id="stop1281" /><stop
         style="stop-color:#83ba52;stop-opacity:1;"
         offset="1"
         id="stop1283" /></linearGradient></defs><path
     d="M 2,24 C 2,7.5 7.5,2 24,2 40.5,2 46,7.5 46,24 46,40.5 40.5,46 24,46 7.5,46 2,40.5 2,24"
     style="fill:url(#linearGradient3040);fill-opacity:1.0;stroke-width:0.22"
     id="path311" /><path
     id="rect898"
     style="fill:#ffffff;stroke-width:3.94834;stroke-linecap:round;stroke-linejoin:round"
     d="m 11.90334,26.903339 c -0.587605,0.587605 -0.587649,1.533759 0,2.121321 L 14.379044,31.5 11.90334,33.97534 c -0.587648,0.587562 -0.587605,1.533714 10e-7,2.12132 0.587605,0.587605 1.533671,0.587561 2.121319,0 l 2.475704,-2.475339 2.474976,2.475339 c 0.587562,0.587648 1.533715,0.587605 2.12132,0 0.587606,-0.587605 0.587562,-1.533672 0,-2.12132 L 18.621684,31.5 21.09666,29.02466 c 0.587562,-0.587649 0.587605,-1.533716 0,-2.12132 -0.587606,-0.587607 -1.533757,-0.58765 -2.12132,0 l -2.474976,2.47534 -2.475704,-2.475341 c -0.587648,-0.587561 -1.533714,-0.587606 -2.12132,0 z"
     sodipodi:nodetypes="sscssscssscssscss" /><rect
     style="fill:#ffffff;stroke-width:2.8966;stroke-linecap:round;stroke-linejoin:round"
     id="rect900"
     width="11"
     height="3"
     x="26"
     y="15"
     ry="1.5" /><path
     id="rect902"
     style="fill:#ffffff;stroke-width:3.78073;stroke-linecap:round;stroke-linejoin:round"
     d="M 31.5,26 C 30.671573,26 30,26.671573 30,27.5 30,28.328427 30.671573,29 31.5,29 32.328427,29 33,28.328427 33,27.5 33,26.671573 32.328427,26 31.5,26 Z m -4,4 c -0.830999,0 -1.5,0.669001 -1.5,1.5 0,0.830999 0.669001,1.5 1.5,1.5 h 8 C 36.330999,33 37,32.330999 37,31.5 37,30.669001 36.330999,30 35.5,30 Z m 4,4 C 30.671573,34 30,34.671573 30,35.5 30,36.328427 30.671573,37 31.5,37 32.328427,37 33,36.328427 33,35.5 33,34.671573 32.328427,34 31.5,34 Z"
     sodipodi:nodetypes="sssssssssssssssss" /><path
     id="rect904"
     style="fill:#ffffff;stroke-width:4;stroke-linecap:round;stroke-linejoin:round"
     d="m 16.5,11 c -0.830999,10e-7 -1.5,0.669001 -1.5,1.5 V 15 h -2.5 c -0.830999,0 -1.5,0.669001 -1.5,1.5 0,0.831 0.669001,1.5 1.5,1.5 H 15 v 2.5 c 0,0.831 0.669001,1.5 1.5,1.5 0.830999,0 1.5,-0.669 1.5,-1.5 V 18 h 2.500001 c 0.830999,0 1.5,-0.669 1.5,-1.5 0,-0.830999 -0.669001,-1.5 -1.5,-1.5 H 18 V 12.5 C 18,11.669001 17.330999,11 16.5,11 Z"
     sodipodi:nodetypes="sscssscssscssscss" /></svg>
