<?xml version="1.0" encoding="UTF-8" standalone="no"?>
<!-- Created with Inkscape (http://www.inkscape.org/) -->

<svg
   width="48"
   height="48"
   viewBox="0 0 48 48"
   version="1.1"
   id="svg371"
   xml:space="preserve"
   inkscape:version="1.2.2 (1:1.2.2+202305151914+b0a8486541)"
   sodipodi:docname="applications-graphics.svg"
   xmlns:inkscape="http://www.inkscape.org/namespaces/inkscape"
   xmlns:sodipodi="http://sodipodi.sourceforge.net/DTD/sodipodi-0.dtd"
   xmlns:xlink="http://www.w3.org/1999/xlink"
   xmlns="http://www.w3.org/2000/svg"
   xmlns:svg="http://www.w3.org/2000/svg"><sodipodi:namedview
     id="namedview373"
     pagecolor="#ffffff"
     bordercolor="#000000"
     borderopacity="0.25"
     inkscape:showpageshadow="2"
     inkscape:pageopacity="0.0"
     inkscape:pagecheckerboard="0"
     inkscape:deskcolor="#d1d1d1"
     inkscape:document-units="px"
     showgrid="false"
     inkscape:zoom="17.291667"
     inkscape:cx="23.971084"
     inkscape:cy="24"
     inkscape:window-width="1920"
     inkscape:window-height="1008"
     inkscape:window-x="0"
     inkscape:window-y="0"
     inkscape:window-maximized="1"
     inkscape:current-layer="svg371"
     showguides="false" /><defs
     id="defs368"><linearGradient
       inkscape:collect="always"
       id="linearGradient2222"><stop
         style="stop-color:#8550ec;stop-opacity:1;"
         offset="0"
         id="stop2218" /><stop
         style="stop-color:#7c86fc;stop-opacity:1;"
         offset="1"
         id="stop2220" /></linearGradient><linearGradient
       inkscape:collect="always"
       xlink:href="#linearGradient2222"
       id="linearGradient3251"
       x1="16"
       y1="31"
       x2="16"
       y2="1"
       gradientUnits="userSpaceOnUse"
       gradientTransform="matrix(1.4666667,0,0,1.4666667,0.5333333,0.5333333)" /></defs><path
     d="M 2,24 C 2,7.5 7.5,2 24,2 40.5,2 46,7.5 46,24 46,40.5 40.5,46 24,46 7.5,46 2,40.5 2,24"
     style="fill:url(#linearGradient3251);fill-opacity:1;stroke-width:0.22"
     id="path311" /><path
     id="path3653"
     style="opacity:0.5;fill:#ffffff;stroke-width:0.188232"
     d="m 24.007812,11.000636 c -1.158764,0.0099 -2.124365,0.133172 -2.802734,0.220703 -1.556113,0.213967 -4.574474,0.604564 -7.492187,2.763672 -4.1820561,3.092776 -7.1756921,9.101498 -5.2500004,11.941406 0.7002512,1.011476 1.8667134,1.40151 2.7031254,1.673829 3.637414,1.186536 6.05147,-1.264729 7.646484,-0.09766 1.381052,1.011474 -0.389941,3.734385 1.205078,5.640625 0.758607,0.914216 2.516779,2.281705 4.166016,2.248047 l 5.685547,-4.888672 7.083984,-12.863281 C 35.416464,15.402402 32.07732,13.168161 30.929688,12.584621 28.401001,11.283806 25.939089,10.98411 24.007812,11.000636 Z M 26,13.999855 c 1.104569,0 2,0.895431 2,2 0,1.104569 -0.895431,2 -2,2 -1.104569,0 -2,-0.895431 -2,-2 0,-1.104569 0.895431,-2 2,-2 z m -7,1 c 1.104569,0 2,0.895431 2,2 0,1.104569 -0.895431,2 -2,2 -1.104569,0 -2,-0.895431 -2,-2 0,-1.104569 0.895431,-2 2,-2 z m -5,4 c 1.104569,0 2,0.895431 2,2 0,1.104569 -0.895431,2 -2,2 -1.104569,0 -2,-0.895431 -2,-2 0,-1.104569 0.895431,-2 2,-2 z"
     sodipodi:nodetypes="ccccccccccccsssssssssssssss" /><path
     d="m 38.075789,13.000719 c -0.588761,-0.01714 -1.170357,0.272939 -1.493879,0.803516 -3.030534,4.950496 -6.061709,9.167709 -9.092239,14.118201 l 3.839973,2.221485 c 0.150588,0.09412 0.357269,0.03784 0.432553,-0.150391 2.635242,-5.006962 5.308095,-9.263062 7.962161,-14.270024 0.470581,-0.847044 0.16957,-1.919916 -0.677474,-2.390495 l -0.187631,-0.113153 c -0.247054,-0.141167 -0.515844,-0.211351 -0.783464,-0.219139 z m -12.137598,16.96151 c -0.135637,0.0028 -0.271149,0.02968 -0.401042,0.08021 -0.865948,0.346379 -2.482008,1.173531 -3.19401,3.059375 -0.731247,1.885845 -0.269578,4.040557 1.154426,5.541536 0.07697,0.115456 0.460743,0.712487 0.961069,0.693229 0.307891,-0.01924 0.501675,-0.250391 0.578645,-0.346614 0.962166,-1.058382 1.423931,-1.597593 1.770312,-2.463541 0.365623,-0.885194 1.11543,-2.116925 2.982031,-3.752605 0.250158,-0.250163 0.211931,-0.673289 -0.09596,-0.846483 L 26.595613,30.1384 c -0.204461,-0.120281 -0.431351,-0.180869 -0.657422,-0.176171 z"
     style="fill:#ffffff;stroke-width:0.188232"
     id="path3825"
     sodipodi:nodetypes="scccccccsccccccccccc" /><path
     id="rect1333"
     style="fill:#5637bb;stroke-width:2.93333;stroke-linecap:square"
     d="m 27.810849,28.108242 3.074495,1.778644 -1.191686,2.040447 -3.098045,-1.788933 z"
     sodipodi:nodetypes="ccccc" /></svg>
