<?xml version="1.0" encoding="UTF-8" standalone="no"?>
<!-- Created with Inkscape (http://www.inkscape.org/) -->

<svg
   width="48"
   height="48"
   viewBox="0 0 48 48"
   version="1.1"
   id="svg371"
   xml:space="preserve"
   inkscape:version="1.3.2 (1:1.3.2+202311252150+091e20ef0f)"
   sodipodi:docname="com.github.maoschanz.drawing.svg"
   xmlns:inkscape="http://www.inkscape.org/namespaces/inkscape"
   xmlns:sodipodi="http://sodipodi.sourceforge.net/DTD/sodipodi-0.dtd"
   xmlns:xlink="http://www.w3.org/1999/xlink"
   xmlns="http://www.w3.org/2000/svg"
   xmlns:svg="http://www.w3.org/2000/svg"><sodipodi:namedview
     id="namedview373"
     pagecolor="#ffffff"
     bordercolor="#000000"
     borderopacity="0.25"
     inkscape:showpageshadow="2"
     inkscape:pageopacity="0.0"
     inkscape:pagecheckerboard="0"
     inkscape:deskcolor="#d1d1d1"
     inkscape:document-units="px"
     showgrid="false"
     inkscape:zoom="16.791667"
     inkscape:cx="24.029776"
     inkscape:cy="24.029776"
     inkscape:window-width="1920"
     inkscape:window-height="1008"
     inkscape:window-x="0"
     inkscape:window-y="0"
     inkscape:window-maximized="1"
     inkscape:current-layer="svg371"
     showguides="false" /><defs
     id="defs368"><linearGradient
       inkscape:collect="always"
       id="linearGradient1120"><stop
         style="stop-color:#db280f;stop-opacity:1;"
         offset="0"
         id="stop1116" /><stop
         style="stop-color:#dd5b4e;stop-opacity:1;"
         offset="1"
         id="stop1118" /></linearGradient><linearGradient
       inkscape:collect="always"
       xlink:href="#linearGradient1120"
       id="linearGradient3040"
       x1="32"
       y1="62"
       x2="32"
       y2="2"
       gradientUnits="userSpaceOnUse"
       gradientTransform="matrix(0.73333335,0,0,0.73333335,0.53333333,0.53333333)" /></defs><path
     d="M 2,24 C 2,7.5 7.5,2 24,2 40.5,2 46,7.5 46,24 46,40.5 40.5,46 24,46 7.5,46 2,40.5 2,24"
     style="fill:url(#linearGradient3040);fill-opacity:1;stroke-width:0.22"
     id="path311" /><path
     d="m 7.321691,20.053579 c -0.5231832,-0.17834 -1.091812,0.1016 -1.2695316,0.625 -0.175428,0.523134 0.106008,1.0895 0.6289064,1.265626 1.0274102,0.348688 1.1330322,0.62715 1.2187502,1.066406 0.08572,0.439254 -0.04857,1.185204 -0.183594,2.039062 -0.135022,0.85386 -0.269774,1.946824 0.425781,2.902344 0.695555,0.95552 1.963979,1.41038 3.914063,1.535156 1.65685,0.10602 2.573525,1.333336 3.187499,2.757812 0.613976,1.424478 0.76172,2.851562 0.76172,2.851562 0.05348,0.550372 0.54347,0.95287 1.09375,0.898438 0.550372,-0.05348 0.95287,-0.543472 0.898438,-1.09375 0,0 -0.15882,-1.687944 -0.91797,-3.449218 -0.75914,-1.761274 -2.281104,-3.79347 -4.898437,-3.960936 -1.68633,-0.1079 -2.255758,-0.49055 -2.421874,-0.71875 C 9.593076,26.544125 9.57431,26.111395 9.692782,25.362173 9.811258,24.612949 10.069849,23.679295 9.864656,22.627799 9.659468,21.576303 8.789173,20.551621 7.321691,20.053579 Z"
     style="color:#000000;opacity:1;fill:#ee9f95;stroke-width:2;stroke-linecap:round;-inkscape-stroke:none;fill-opacity:1"
     id="path6379" /><path
     id="path1166"
     style="fill:#f9f9f9;stroke-width:0.75"
     d="m 19.159857,29.597343 -2.121322,6.36396 6.363962,-2.121322 16.971036,-16.971038 c 0.783472,-0.783474 0.783474,-2.04495 2e-6,-2.828426 l -1.414216,-1.414212 c -0.783472,-0.783476 -2.044952,-0.783476 -2.828426,-2e-6 z"
     sodipodi:nodetypes="ccccsssc" /></svg>
