<?xml version="1.0" encoding="UTF-8" standalone="no"?>
<!-- Created with Inkscape (http://www.inkscape.org/) -->

<svg
   width="48"
   height="48"
   viewBox="0 0 48 48"
   version="1.1"
   id="svg371"
   xml:space="preserve"
   inkscape:version="1.2.2 (1:1.2.2+202305151914+b0a8486541)"
   sodipodi:docname="discord.svg"
   xmlns:inkscape="http://www.inkscape.org/namespaces/inkscape"
   xmlns:sodipodi="http://sodipodi.sourceforge.net/DTD/sodipodi-0.dtd"
   xmlns:xlink="http://www.w3.org/1999/xlink"
   xmlns="http://www.w3.org/2000/svg"
   xmlns:svg="http://www.w3.org/2000/svg"><sodipodi:namedview
     id="namedview373"
     pagecolor="#ffffff"
     bordercolor="#000000"
     borderopacity="0.25"
     inkscape:showpageshadow="2"
     inkscape:pageopacity="0.0"
     inkscape:pagecheckerboard="0"
     inkscape:deskcolor="#d1d1d1"
     inkscape:document-units="px"
     showgrid="false"
     inkscape:zoom="16.791667"
     inkscape:cx="24"
     inkscape:cy="24"
     inkscape:window-width="1920"
     inkscape:window-height="1008"
     inkscape:window-x="0"
     inkscape:window-y="0"
     inkscape:window-maximized="1"
     inkscape:current-layer="svg371"
     showguides="false" /><defs
     id="defs368"><linearGradient
       inkscape:collect="always"
       id="linearGradient1503"><stop
         style="stop-color:#5865f2;stop-opacity:1;"
         offset="0"
         id="stop1499" /><stop
         style="stop-color:#6887f3;stop-opacity:1;"
         offset="1"
         id="stop1501" /></linearGradient><linearGradient
       inkscape:collect="always"
       xlink:href="#linearGradient1503"
       id="linearGradient1505"
       x1="32"
       y1="62"
       x2="32"
       y2="2"
       gradientUnits="userSpaceOnUse"
       gradientTransform="matrix(0.73333335,0,0,0.73333335,0.5333333,0.5333333)" /></defs><path
     d="M 2,24 C 2,7.5 7.5,2 24,2 40.5,2 46,7.5 46,24 46,40.5 40.5,46 24,46 7.5,46 2,40.5 2,24"
     style="fill:url(#linearGradient1505);fill-opacity:1;stroke-width:0.22"
     id="path311" /><path
     id="path1215"
     style="fill:#ffffff;stroke-width:1.15194"
     d="m 19.701172,13.001953 c -2.141981,0.371255 -4.192762,1.020861 -6.105469,1.904297 -0.01662,0.0069 -0.0296,0.01767 -0.03906,0.0332 -3.8892188,5.844594 -4.9562486,11.547485 -4.4335941,17.177735 0.0023,0.0276 0.017713,0.05158 0.039063,0.06836 2.5659971,1.895495 5.0507901,3.047813 7.4902341,3.810547 0.039,0.01196 0.08261,-0.0027 0.107422,-0.03516 0.577057,-0.792659 1.090207,-1.283175 1.53125,-2.16211 0.02608,-0.05152 0.0022,-0.112421 -0.05078,-0.132812 -0.815912,-0.31133 -1.592502,-0.690046 -2.339842,-1.121094 -0.05908,-0.03474 -0.06583,-0.121387 -0.01172,-0.16211 0.157267,-0.118534 0.316624,-0.240695 0.466796,-0.365234 0.02723,-0.02277 0.0657,-0.02804 0.09766,-0.01367 4.909648,2.254759 10.224446,2.254759 15.076172,0 0.03196,-0.01553 0.06732,-0.01139 0.0957,0.01172 0.150207,0.124527 0.30835,0.250606 0.466797,0.369141 0.05434,0.04072 0.05147,0.125436 -0.0078,0.160156 -0.747329,0.439421 -1.524706,0.810961 -2.341796,1.121094 -0.05319,0.02035 -0.07675,0.08136 -0.05078,0.132812 0.450505,0.877705 0.964843,1.367452 1.53125,2.160156 0.02365,0.03358 0.06647,0.04919 0.105469,0.03711 2.451283,-0.762734 4.935958,-1.915051 7.501953,-3.810547 0.0225,-0.0168 0.03859,-0.04076 0.04102,-0.06836 0.625518,-6.509185 -1.049683,-12.163385 -4.4375,-17.175782 -0.0081,-0.0168 -0.02244,-0.02804 -0.03906,-0.03516 -1.912082,-0.882511 -3.959663,-1.531912 -6.103515,-1.904297 -0.039,-0.0069 -0.07953,0.0092 -0.09961,0.04492 -0.263698,0.471772 -0.555213,0.856088 -0.759765,1.339844 -2.305841,-0.347234 -4.600819,-0.347234 -6.859375,0 -0.204587,-0.494509 -0.506598,-0.868072 -0.771485,-1.339844 -0.01974,-0.03415 -0.05929,-0.05006 -0.09766,-0.04492 z M 19.007812,23 c 1.689401,0 3.038134,1.35821 3.011719,3 0,1.653609 -1.335525,3 -3.011719,3 C 17.357926,29 16,27.653609 16,26 c 0,-1.653609 1.33157,-3 3.007812,-3 z m 9.982422,0 c 1.689449,0 3.036132,1.35821 3.009766,3 0,1.653609 -1.320317,3 -3.009766,3 -1.649827,0 -3.009765,-1.346391 -3.009765,-3 0,-1.653609 1.333524,-3 3.009765,-3 z"
     sodipodi:nodetypes="ccccccccccccccccccccccccccccccccscsssscsss" /></svg>
