<?xml version="1.0" encoding="UTF-8" standalone="no"?>
<!-- Created with Inkscape (http://www.inkscape.org/) -->

<svg
   width="48"
   height="48"
   viewBox="0 0 48 48"
   version="1.1"
   id="svg371"
   xml:space="preserve"
   inkscape:version="1.2.1 (1:1.2.1+202210291243+9c6d41e410)"
   sodipodi:docname="emacs.svg"
   xmlns:inkscape="http://www.inkscape.org/namespaces/inkscape"
   xmlns:sodipodi="http://sodipodi.sourceforge.net/DTD/sodipodi-0.dtd"
   xmlns:xlink="http://www.w3.org/1999/xlink"
   xmlns="http://www.w3.org/2000/svg"
   xmlns:svg="http://www.w3.org/2000/svg"><sodipodi:namedview
     id="namedview373"
     pagecolor="#ffffff"
     bordercolor="#000000"
     borderopacity="0.25"
     inkscape:showpageshadow="2"
     inkscape:pageopacity="0.0"
     inkscape:pagecheckerboard="0"
     inkscape:deskcolor="#d1d1d1"
     inkscape:document-units="px"
     showgrid="false"
     inkscape:zoom="17.1875"
     inkscape:cx="23.970909"
     inkscape:cy="24"
     inkscape:window-width="1920"
     inkscape:window-height="1018"
     inkscape:window-x="0"
     inkscape:window-y="28"
     inkscape:window-maximized="1"
     inkscape:current-layer="svg371"
     showguides="false" /><defs
     id="defs368"><linearGradient
       inkscape:collect="always"
       id="linearGradient1451"><stop
         style="stop-color:#923ec0;stop-opacity:1;"
         offset="0"
         id="stop1447" /><stop
         style="stop-color:#ab72cf;stop-opacity:1;"
         offset="1"
         id="stop1449" /></linearGradient><linearGradient
       inkscape:collect="always"
       xlink:href="#linearGradient1451"
       id="linearGradient3040"
       x1="32"
       y1="62"
       x2="32"
       y2="2"
       gradientUnits="userSpaceOnUse"
       gradientTransform="matrix(0.73333333,0,0,0.73333333,0.53333333,0.53333333)" /></defs><path
     d="M 2,24 C 2,7.5 7.5,2 24,2 40.5,2 46,7.5 46,24 46,40.5 40.5,46 24,46 7.5,46 2,40.5 2,24"
     style="fill:url(#linearGradient3040);fill-opacity:1;stroke-width:0.22"
     id="path311" /><path
     d="m 13.676503,37.654274 c 0,0 1.788306,0.519258 4.168605,0.816121 0.96402,0.12024 4.631931,0.540392 7.444223,0.529392 0,0 3.424948,0.0031 5.315589,-0.264697 1.978303,-0.281028 3.098953,-0.639657 3.72261,-1.355379 0.01633,-0.170631 0.301063,-0.726923 -0.467925,-1.263315 -1.966638,-1.373313 -4.5066,-1.746641 -9.444527,-2.919956 -5.45892,-1.373313 -7.090228,-2.686629 -7.905217,-3.636613 -0.772988,-0.953987 0.145005,-2.933624 4.5436,-3.904941 2.226966,-0.541994 10.522844,-0.64166 10.522844,-0.64166 -2.379965,-1.889304 -6.848565,-5.271921 -7.761552,-5.991243 -0.800922,-0.630924 -2.091635,-1.599109 -2.230301,-2.464295 -0.187162,-0.842222 1.138551,-1.24775 1.840475,-1.294517 2.261464,-0.155965 5.349586,0.10917 8.094544,0.655058 1.379813,0.274396 1.622043,0.233964 1.622043,0.233964 1.965138,0.0936 3.493616,-0.935787 3.415617,-3.103787 -0.01568,-2.199135 -2.214301,-3.9626078 -4.647598,-4.0396078 -2.291633,-0.07256 -7.938548,0.327529 -7.938548,0.327529 6.581901,1.3569128 7.657886,1.7031408 8.001213,2.4954628 0.203331,0.46816 -0.338328,0.933319 -2.151633,0.842488 -1.974972,-0.099 -6.021579,-0.577158 -6.021579,-0.577158 -3.851608,-0.592659 -6.534903,-1.15415 -7.704885,0.374328 -0.764223,0.998585 0.1092,2.214798 0.452294,2.932122 1.528476,2.667127 4.171605,4.496933 5.848579,5.786246 0.631058,0.485195 2.557796,1.559679 2.557796,1.559679 -5.988912,-1.637643 -10.761509,-0.717456 -13.787462,0.87342 -3.4779491,2.058801 -2.8831251,5.532917 2.635793,8.78087 3.259785,1.91847 4.882596,2.839957 10.219849,3.49528 3.119619,0.497427 3.58428,0.700956 3.560615,0.96062 -0.03346,0.365595 -3.69228,0.504126 -4.697933,0.573492 -2.558628,0.176463 -9.175863,0.220563 -9.208863,0.220563 z"
     style="fill:#ffffff;stroke-width:3.33328"
     id="path397"
     sodipodi:nodetypes="cscccccccccccccccccccccccccccccc" /></svg>
