<?xml version="1.0" encoding="UTF-8" standalone="no"?>
<!-- Created with Inkscape (http://www.inkscape.org/) -->

<svg
   width="48"
   height="48"
   viewBox="0 0 48 48"
   version="1.1"
   id="svg371"
   xml:space="preserve"
   inkscape:version="1.3.2 (091e20ef0f, 2023-11-25, custom)"
   sodipodi:docname="evolution.svg"
   xmlns:inkscape="http://www.inkscape.org/namespaces/inkscape"
   xmlns:sodipodi="http://sodipodi.sourceforge.net/DTD/sodipodi-0.dtd"
   xmlns:xlink="http://www.w3.org/1999/xlink"
   xmlns="http://www.w3.org/2000/svg"
   xmlns:svg="http://www.w3.org/2000/svg"><sodipodi:namedview
     id="namedview373"
     pagecolor="#ffffff"
     bordercolor="#000000"
     borderopacity="0.25"
     inkscape:showpageshadow="2"
     inkscape:pageopacity="0.0"
     inkscape:pagecheckerboard="0"
     inkscape:deskcolor="#d1d1d1"
     inkscape:document-units="px"
     showgrid="false"
     inkscape:zoom="16.979167"
     inkscape:cx="24"
     inkscape:cy="24"
     inkscape:window-width="1920"
     inkscape:window-height="1004"
     inkscape:window-x="0"
     inkscape:window-y="30"
     inkscape:window-maximized="1"
     inkscape:current-layer="svg371"
     showguides="false" /><defs
     id="defs368"><linearGradient
       inkscape:collect="always"
       id="linearGradient1258"><stop
         style="stop-color:#583cbb;stop-opacity:1;"
         offset="0"
         id="stop1254" /><stop
         style="stop-color:#9370c9;stop-opacity:1;"
         offset="1"
         id="stop1256" /></linearGradient><linearGradient
       inkscape:collect="always"
       xlink:href="#linearGradient1258"
       id="linearGradient3040"
       x1="32"
       y1="62"
       x2="32"
       y2="2"
       gradientUnits="userSpaceOnUse"
       gradientTransform="matrix(0.73333333,0,0,0.73333333,0.53333333,0.53333333)" /></defs><path
     d="M 2,24 C 2,7.5 7.5,2 24,2 40.5,2 46,7.5 46,24 46,40.5 40.5,46 24,46 7.5,46 2,40.5 2,24"
     style="fill:url(#linearGradient3040);fill-opacity:1;stroke-width:0.22"
     id="path311" /><rect
     style="fill:#ffffff;stroke-width:4.43023;stroke-linecap:round;stroke-linejoin:round"
     id="rect898"
     width="28"
     height="22"
     x="10"
     y="13"
     ry="3" /><path
     id="rect952"
     style="fill:#483b8e;fill-opacity:1;stroke-width:4.46262;stroke-linecap:round;stroke-linejoin:round"
     d="m 14.490119,15.999999 c -0.424602,-0.0037 -0.848469,0.178055 -1.143959,0.536133 -0.525317,0.636582 -0.444689,1.581079 0.181359,2.115234 l 9.476399,7.730008 c 0.290779,0.248098 0.645879,0.360318 0.996082,0.348633 0.350204,0.01168 0.705303,-0.100535 0.996082,-0.348633 l 9.476399,-7.730008 c 0.626048,-0.534156 0.706676,-1.478652 0.181358,-2.115235 -0.525315,-0.636581 -1.452608,-0.718725 -2.078656,-0.184569 L 24,23.313991 15.424817,16.351561 c -0.273896,-0.233692 -0.604452,-0.348684 -0.934698,-0.351562 z"
     sodipodi:nodetypes="sscccccscccs" /></svg>
