<?xml version="1.0" encoding="UTF-8" standalone="no"?>
<!-- Created with Inkscape (http://www.inkscape.org/) -->

<svg
   width="48"
   height="48"
   viewBox="0 0 48 48"
   version="1.1"
   id="svg371"
   xml:space="preserve"
   inkscape:version="1.3.2 (091e20ef0f, 2023-11-25, custom)"
   sodipodi:docname="github-desktop.svg"
   xmlns:inkscape="http://www.inkscape.org/namespaces/inkscape"
   xmlns:sodipodi="http://sodipodi.sourceforge.net/DTD/sodipodi-0.dtd"
   xmlns:xlink="http://www.w3.org/1999/xlink"
   xmlns="http://www.w3.org/2000/svg"
   xmlns:svg="http://www.w3.org/2000/svg"><sodipodi:namedview
     id="namedview373"
     pagecolor="#ffffff"
     bordercolor="#000000"
     borderopacity="0.25"
     inkscape:showpageshadow="2"
     inkscape:pageopacity="0.0"
     inkscape:pagecheckerboard="0"
     inkscape:deskcolor="#d1d1d1"
     inkscape:document-units="px"
     showgrid="false"
     inkscape:zoom="16.979167"
     inkscape:cx="24"
     inkscape:cy="24"
     inkscape:window-width="1920"
     inkscape:window-height="1004"
     inkscape:window-x="0"
     inkscape:window-y="30"
     inkscape:window-maximized="1"
     inkscape:current-layer="svg371"
     showguides="false" /><defs
     id="defs368"><linearGradient
       inkscape:collect="always"
       xlink:href="#linearGradient2"
       id="linearGradient3040"
       x1="32"
       y1="62"
       x2="32"
       y2="2"
       gradientUnits="userSpaceOnUse"
       gradientTransform="matrix(0.73333335,0,0,0.73333335,0.53333333,0.53333333)" /><linearGradient
       inkscape:collect="always"
       id="linearGradient2"><stop
         style="stop-color:#7944bb;stop-opacity:1;"
         offset="0"
         id="stop1" /><stop
         style="stop-color:#9d5bc5;stop-opacity:1;"
         offset="1"
         id="stop2" /></linearGradient></defs><path
     d="M 2,24 C 2,7.5 7.5,2 24,2 40.5,2 46,7.5 46,24 46,40.5 40.5,46 24,46 7.5,46 2,40.5 2,24"
     style="fill:url(#linearGradient3040);fill-opacity:1;stroke-width:0.22"
     id="path311" /><path
     id="path920"
     style="fill:#ffffff;stroke-width:4.5;stroke-linecap:round;stroke-linejoin:round"
     d="M 24 9 A 15 15 0 0 0 9 24 A 15 15 0 0 0 20.091797 38.460938 C 20.090705 37.261079 20.089307 35.843219 20.087891 35.603516 C 16.182441 36.474051 15.460938 33.457031 15.460938 33.457031 C 14.822206 31.792097 13.900391 31.349609 13.900391 31.349609 C 12.62555 30.456127 13.996094 30.472656 13.996094 30.472656 C 15.405396 30.574335 16.146484 31.958984 16.146484 31.958984 C 17.398876 34.160907 19.319266 33.739986 20.119141 33.371094 C 20.246704 32.440452 21.034747 31.910835 21.435547 31.550781 C 18.317907 31.187139 15.427734 29.736767 15.427734 24.214844 C 15.427734 22.641988 15.955381 21.354383 16.853516 20.347656 C 16.708712 19.983264 16.225696 18.19621 16.990234 16.212891 C 16.990234 16.212891 17.062487 16.190794 17.214844 16.183594 C 17.671807 16.162058 18.699867 16.579981 20.710938 17.978516 C 21.900002 17.633423 23.352746 17.586496 24.4375 17.572266 C 25.709247 17.555587 27.025271 17.62806 28.1875 17.978516 C 30.197927 16.579906 31.48294 16.160321 31.939453 16.181641 L 31.941406 16.181641 C 32.093581 16.188741 32.167969 16.212891 32.167969 16.212891 C 32.934222 18.19621 32.448633 19.983178 32.304688 20.347656 C 33.204505 21.354369 33.642578 22.640035 33.642578 24.212891 C 33.642578 29.748956 30.627025 31.184508 27.5 31.541016 C 28.003367 31.985979 29.003906 32.650356 29.003906 33.994141 C 29.003906 34.508371 28.999828 36.444056 28.998047 38.103516 A 15 15 0 0 0 39 24 A 15 15 0 0 0 24 9 z " /></svg>
