<?xml version="1.0" encoding="UTF-8" standalone="no"?>
<!-- Created with Inkscape (http://www.inkscape.org/) -->

<svg
   width="48"
   height="48"
   viewBox="0 0 48 48"
   version="1.1"
   id="svg371"
   xml:space="preserve"
   inkscape:version="1.2 (1:1.2.1+202207142221+cd75a1ee6d)"
   sodipodi:docname="gmail.svg"
   xmlns:inkscape="http://www.inkscape.org/namespaces/inkscape"
   xmlns:sodipodi="http://sodipodi.sourceforge.net/DTD/sodipodi-0.dtd"
   xmlns="http://www.w3.org/2000/svg"
   xmlns:svg="http://www.w3.org/2000/svg"><sodipodi:namedview
     id="namedview373"
     pagecolor="#ffffff"
     bordercolor="#000000"
     borderopacity="0.25"
     inkscape:showpageshadow="2"
     inkscape:pageopacity="0.0"
     inkscape:pagecheckerboard="0"
     inkscape:deskcolor="#d1d1d1"
     inkscape:document-units="px"
     showgrid="false"
     inkscape:zoom="17.1875"
     inkscape:cx="23.970909"
     inkscape:cy="24"
     inkscape:window-width="1920"
     inkscape:window-height="1018"
     inkscape:window-x="0"
     inkscape:window-y="28"
     inkscape:window-maximized="1"
     inkscape:current-layer="svg371"
     showguides="false" /><defs
     id="defs368" /><path
     d="M 2,24 C 2,7.5 7.5,2 24,2 40.5,2 46,7.5 46,24 46,40.5 40.5,46 24,46 7.5,46 2,40.5 2,24"
     style="fill:#f5f5f5;fill-opacity:1;stroke-width:0.22"
     id="path311" /><path
     id="path523"
     style="fill:#4285f4;stroke-width:0.75"
     d="m 9,17.300782 v 16.654757 c 0,1.129835 0.905602,2.044922 2.024414,2.044922 h 3.975585 V 21.844726 Z"
     sodipodi:nodetypes="cssccc" /><path
     id="path391"
     style="fill:#34a853;stroke-width:0.75"
     d="m 39,17.300782 -6,4.543944 v 14.155735 h 3.975586 C 38.094396,36.000461 39,35.085372 39,33.955539 Z"
     sodipodi:nodetypes="cccssc" /><path
     d="M 13.86,21.933845 V 13.618997 L 24,21.181819 34.140001,13.618997 v 8.314848 L 24,29.498836 Z"
     style="fill:#ea4335;stroke-width:0.75"
     id="path457"
     sodipodi:nodetypes="ccccccc" /><path
     id="path424"
     style="fill:#fbbc04;stroke-width:0.75"
     d="m 35.950195,13 c -0.61589,1.3e-5 -1.247188,0.191601 -1.810546,0.618163 L 33,14.482421 v 8.314454 l 6,-4.543946 V 16.073242 C 39,14.256805 37.524136,12.999965 35.950195,13 Z"
     sodipodi:nodetypes="sccccss" /><path
     id="path490"
     style="fill:#c5221f;stroke-width:0.75"
     d="M 12.049804,13 C 10.475861,12.999965 9,14.256805 9,16.073242 v 2.18092 l 5.999999,4.543944 V 14.482421 L 13.86035,13.618163 C 13.296991,13.191599 12.665694,13.000013 12.049804,13 Z"
     sodipodi:nodetypes="ssccccs" /></svg>
