<?xml version="1.0" encoding="UTF-8" standalone="no"?>
<!-- Created with Inkscape (http://www.inkscape.org/) -->

<svg
   width="48"
   height="48"
   viewBox="0 0 48 48"
   version="1.1"
   id="svg371"
   xml:space="preserve"
   inkscape:version="1.2.2 (1:1.2.2+202305151914+b0a8486541)"
   sodipodi:docname="gnome-sudoku.svg"
   xmlns:inkscape="http://www.inkscape.org/namespaces/inkscape"
   xmlns:sodipodi="http://sodipodi.sourceforge.net/DTD/sodipodi-0.dtd"
   xmlns:xlink="http://www.w3.org/1999/xlink"
   xmlns="http://www.w3.org/2000/svg"
   xmlns:svg="http://www.w3.org/2000/svg"><sodipodi:namedview
     id="namedview373"
     pagecolor="#ffffff"
     bordercolor="#000000"
     borderopacity="0.25"
     inkscape:showpageshadow="2"
     inkscape:pageopacity="0.0"
     inkscape:pagecheckerboard="0"
     inkscape:deskcolor="#d1d1d1"
     inkscape:document-units="px"
     showgrid="false"
     inkscape:zoom="17.291667"
     inkscape:cx="23.971084"
     inkscape:cy="24"
     inkscape:window-width="1920"
     inkscape:window-height="1008"
     inkscape:window-x="0"
     inkscape:window-y="0"
     inkscape:window-maximized="1"
     inkscape:current-layer="svg371"
     showguides="false" /><defs
     id="defs368"><linearGradient
       inkscape:collect="always"
       id="linearGradient920"><stop
         style="stop-color:#c0a278;stop-opacity:1;"
         offset="0"
         id="stop916" /><stop
         style="stop-color:#c5b69d;stop-opacity:1;"
         offset="1"
         id="stop918" /></linearGradient><linearGradient
       inkscape:collect="always"
       xlink:href="#linearGradient920"
       id="linearGradient3040"
       x1="32"
       y1="62"
       x2="32"
       y2="2"
       gradientUnits="userSpaceOnUse"
       gradientTransform="matrix(0.73333335,0,0,0.73333335,0.5333333,0.5333333)" /></defs><path
     d="M 2,24 C 2,7.5 7.5,2 24,2 40.5,2 46,7.5 46,24 46,40.5 40.5,46 24,46 7.5,46 2,40.5 2,24"
     style="fill:url(#linearGradient3040);fill-opacity:1;stroke-width:0.22"
     id="path311" /><rect
     style="opacity:1;fill:#c4b195;fill-opacity:1;stroke-width:3;stroke-linecap:square"
     id="rect1122"
     width="12"
     height="12"
     x="18"
     y="18" /><path
     id="rect974"
     style="opacity:1;fill:#ffffff;fill-opacity:1;stroke-width:3;stroke-linecap:square"
     d="M 18.5,9 C 17.669002,9 17,9.6690015 17,10.5 V 17 H 10.5 C 9.6690015,17 9,17.669002 9,18.5 9,19.330999 9.6690015,20 10.5,20 H 17 v 8 H 10.5 C 9.6690015,28 9,28.669001 9,29.5 9,30.330998 9.6690015,31 10.5,31 H 17 v 6.5 c 0,0.830998 0.669002,1.5 1.5,1.5 0.830999,0 1.5,-0.669002 1.5,-1.5 V 31 h 8 v 6.5 c 0,0.830998 0.669001,1.5 1.5,1.5 0.830998,0 1.5,-0.669002 1.5,-1.5 V 31 h 6.5 C 38.330998,31 39,30.330998 39,29.5 39,28.669001 38.330998,28 37.5,28 H 31 v -8 h 6.5 C 38.330998,20 39,19.330999 39,18.5 39,17.669002 38.330998,17 37.5,17 H 31 V 10.5 C 31,9.6690015 30.330998,9 29.5,9 28.669001,9 28,9.6690015 28,10.5 V 17 H 20 V 10.5 C 20,9.6690015 19.330999,9 18.5,9 Z M 20,20 h 8 v 8 h -8 z"
     sodipodi:nodetypes="sscsssccssscsssccssscsssccssscsssccssccccc" /></svg>
