<?xml version="1.0" encoding="UTF-8" standalone="no"?>
<!-- Created with Inkscape (http://www.inkscape.org/) -->

<svg
   width="48"
   height="48"
   viewBox="0 0 48 48"
   version="1.1"
   id="svg371"
   xml:space="preserve"
   inkscape:version="1.2.2 (1:1.2.2+202212051552+b0a8486541)"
   sodipodi:docname="hwinfo.svg"
   xmlns:inkscape="http://www.inkscape.org/namespaces/inkscape"
   xmlns:sodipodi="http://sodipodi.sourceforge.net/DTD/sodipodi-0.dtd"
   xmlns:xlink="http://www.w3.org/1999/xlink"
   xmlns="http://www.w3.org/2000/svg"
   xmlns:svg="http://www.w3.org/2000/svg"><sodipodi:namedview
     id="namedview373"
     pagecolor="#ffffff"
     bordercolor="#000000"
     borderopacity="0.25"
     inkscape:showpageshadow="2"
     inkscape:pageopacity="0.0"
     inkscape:pagecheckerboard="0"
     inkscape:deskcolor="#d1d1d1"
     inkscape:document-units="px"
     showgrid="false"
     inkscape:zoom="16.875"
     inkscape:cx="24"
     inkscape:cy="24"
     inkscape:window-width="1920"
     inkscape:window-height="1012"
     inkscape:window-x="0"
     inkscape:window-y="0"
     inkscape:window-maximized="1"
     inkscape:current-layer="svg371" /><defs
     id="defs368"><linearGradient
       inkscape:collect="always"
       xlink:href="#linearGradient869"
       id="linearGradient3040"
       x1="32"
       y1="62"
       x2="32"
       y2="2"
       gradientUnits="userSpaceOnUse"
       gradientTransform="matrix(0.73333335,0,0,0.73333335,0.5333333,0.5333333)" /><linearGradient
       inkscape:collect="always"
       id="linearGradient869"><stop
         style="stop-color:#268f82;stop-opacity:1;"
         offset="0"
         id="stop865" /><stop
         style="stop-color:#31b7a5;stop-opacity:1;"
         offset="1"
         id="stop867" /></linearGradient></defs><path
     d="M 2,24 C 2,7.5 7.5,2 24,2 40.5,2 46,7.5 46,24 46,40.5 40.5,46 24,46 7.5,46 2,40.5 2,24"
     style="fill:url(#linearGradient3040);fill-opacity:1;stroke-width:0.22"
     id="path311" /><path
     id="rect469"
     style="fill:#b5ebe4;stroke-width:0.790567"
     d="m 18,9 c -0.553998,0 -1,0.4460012 -1,1 v 7 h -7 c -0.5539984,0 -1,0.446002 -1,1 0,0.553998 0.4460016,1 1,1 h 7 v 4 h -7 c -0.5539984,0 -1,0.446002 -1,1 0,0.553998 0.4460016,1 1,1 h 7 v 4 h -7 c -0.5539984,0 -1,0.446002 -1,1 0,0.553998 0.4460016,1 1,1 h 7 v 7 c 0,0.553998 0.446002,1 1,1 0.553998,0 1,-0.446002 1,-1 v -7 h 4 v 7 c 0,0.553998 0.446002,1 1,1 0.553998,0 1,-0.446002 1,-1 v -7 h 4 v 7 c 0,0.553998 0.446002,1 1,1 0.553998,0 1,-0.446002 1,-1 v -7 h 7 c 0.553998,0 1,-0.446002 1,-1 0,-0.553998 -0.446002,-1 -1,-1 h -7 v -4 h 7 c 0.553998,0 1,-0.446002 1,-1 0,-0.553998 -0.446002,-1 -1,-1 h -7 v -4 h 7 c 0.553998,0 1,-0.446002 1,-1 0,-0.553998 -0.446002,-1 -1,-1 H 31 V 10 C 31,9.4460012 30.553998,9 30,9 29.446002,9 29,9.4460012 29,10 v 7 H 25 V 10 C 25,9.4460012 24.553998,9 24,9 23.446002,9 23,9.4460012 23,10 v 7 H 19 V 10 C 19,9.4460012 18.553998,9 18,9 Z m 1,10 h 4 v 4 h -4 z m 6,0 h 4 v 4 h -4 z m -6,6 h 4 v 4 h -4 z m 6,0 h 4 v 4 h -4 z" /><rect
     style="fill:#ffffff;fill-opacity:1;stroke-width:0.75"
     id="rect2521"
     width="24"
     height="24"
     x="12"
     y="12"
     ry="4" /><path
     id="path1021"
     style="fill:#196359;fill-opacity:1;stroke-width:2.25;stroke-linecap:round;stroke-linejoin:round"
     d="M 23.5,16 C 22.671571,16 22,16.671572 22,17.5 22,18.328427 22.671571,19 23.5,19 24.328426,19 25,18.328427 25,17.5 25,16.671572 24.328426,16 23.5,16 Z m 0,5 C 22.669,21 22,21.669 22,22.5 v 8 c 0,0.830997 0.669,1.5 1.5,1.5 0.830998,0 1.5,-0.669003 1.5,-1.5 v -8 C 25,21.669 24.330998,21 23.5,21 Z"
     sodipodi:nodetypes="ssssssssssss" /></svg>
