<?xml version="1.0" encoding="UTF-8" standalone="no"?>
<!-- Created with Inkscape (http://www.inkscape.org/) -->

<svg
   width="48"
   height="48"
   viewBox="0 0 48 48"
   version="1.1"
   id="svg371"
   xml:space="preserve"
   inkscape:version="1.2 (1:1.2.1+202207142221+cd75a1ee6d)"
   sodipodi:docname="internet-web-browser.svg"
   xmlns:inkscape="http://www.inkscape.org/namespaces/inkscape"
   xmlns:sodipodi="http://sodipodi.sourceforge.net/DTD/sodipodi-0.dtd"
   xmlns:xlink="http://www.w3.org/1999/xlink"
   xmlns="http://www.w3.org/2000/svg"
   xmlns:svg="http://www.w3.org/2000/svg"><sodipodi:namedview
     id="namedview373"
     pagecolor="#ffffff"
     bordercolor="#000000"
     borderopacity="0.25"
     inkscape:showpageshadow="2"
     inkscape:pageopacity="0.0"
     inkscape:pagecheckerboard="0"
     inkscape:deskcolor="#d1d1d1"
     inkscape:document-units="px"
     showgrid="false"
     inkscape:zoom="17.1875"
     inkscape:cx="23.970909"
     inkscape:cy="24.058182"
     inkscape:window-width="1920"
     inkscape:window-height="1018"
     inkscape:window-x="0"
     inkscape:window-y="28"
     inkscape:window-maximized="1"
     inkscape:current-layer="svg371"
     showguides="false" /><defs
     id="defs368"><linearGradient
       inkscape:collect="always"
       id="linearGradient1258"><stop
         style="stop-color:#583cbb;stop-opacity:1;"
         offset="0"
         id="stop1254" /><stop
         style="stop-color:#9370c9;stop-opacity:1;"
         offset="1"
         id="stop1256" /></linearGradient><linearGradient
       inkscape:collect="always"
       xlink:href="#linearGradient1258"
       id="linearGradient3040"
       x1="32"
       y1="62"
       x2="32"
       y2="2"
       gradientUnits="userSpaceOnUse"
       gradientTransform="matrix(0.73333333,0,0,0.73333333,0.53333333,0.53333333)" /></defs><path
     d="M 2,24 C 2,7.5 7.5,2 24,2 40.5,2 46,7.5 46,24 46,40.5 40.5,46 24,46 7.5,46 2,40.5 2,24"
     style="fill:url(#linearGradient3040);fill-opacity:1;stroke-width:0.22"
     id="path311" /><circle
     style="fill:#ffffff;stroke-width:5.24999;stroke-linecap:round;stroke-linejoin:round"
     id="path898"
     cx="23.999973"
     cy="23.999981"
     r="13.999974" /><ellipse
     style="fill:#483b8e;fill-opacity:1;stroke-width:4.5;stroke-linecap:round;stroke-linejoin:round"
     id="path952"
     cx="30.761106"
     cy="14.344139"
     rx="18"
     ry="8.5"
     transform="rotate(20)" /><path
     id="path898-3"
     style="fill:#ffffff;stroke-width:5.24999;stroke-linecap:round;stroke-linejoin:round"
     d="m 23.999974,10.000005 c -5.870316,0.0018 -11.116141,3.665638 -13.138648,9.176546 l 0.0055,0.0028 a 13.999974,4.1999921 20 0 0 -0.02187,0.03281 13.999974,4.1999921 20 0 0 11.71951,8.733576 13.999974,4.1999921 20 0 0 14.590598,0.842188 13.999974,4.1999921 20 0 0 0.01089,-0.03829 C 37.71664,27.226531 37.998822,25.619493 38.000006,23.999974 37.999954,16.268011 31.731943,10 23.99998,10 Z" /></svg>
