<?xml version="1.0" encoding="UTF-8" standalone="no"?>
<!-- Created with Inkscape (http://www.inkscape.org/) -->

<svg
   width="48"
   height="48"
   viewBox="0 0 48 48"
   version="1.1"
   id="svg371"
   xml:space="preserve"
   inkscape:version="1.2.2 (1:1.2.2+202305151914+b0a8486541)"
   sodipodi:docname="kalarm.svg"
   xmlns:inkscape="http://www.inkscape.org/namespaces/inkscape"
   xmlns:sodipodi="http://sodipodi.sourceforge.net/DTD/sodipodi-0.dtd"
   xmlns:xlink="http://www.w3.org/1999/xlink"
   xmlns="http://www.w3.org/2000/svg"
   xmlns:svg="http://www.w3.org/2000/svg"><sodipodi:namedview
     id="namedview373"
     pagecolor="#ffffff"
     bordercolor="#000000"
     borderopacity="0.25"
     inkscape:showpageshadow="2"
     inkscape:pageopacity="0.0"
     inkscape:pagecheckerboard="0"
     inkscape:deskcolor="#d1d1d1"
     inkscape:document-units="px"
     showgrid="false"
     inkscape:zoom="16.791667"
     inkscape:cx="24"
     inkscape:cy="24"
     inkscape:window-width="1920"
     inkscape:window-height="1008"
     inkscape:window-x="0"
     inkscape:window-y="0"
     inkscape:window-maximized="1"
     inkscape:current-layer="svg371"
     showguides="false" /><defs
     id="defs368"><linearGradient
       inkscape:collect="always"
       id="linearGradient1836"><stop
         style="stop-color:#ff9b11;stop-opacity:1;"
         offset="0"
         id="stop1832" /><stop
         style="stop-color:#f9c100;stop-opacity:1;"
         offset="1"
         id="stop1834" /></linearGradient><linearGradient
       inkscape:collect="always"
       xlink:href="#linearGradient1836"
       id="linearGradient2961"
       x1="24"
       y1="46"
       x2="24"
       y2="2"
       gradientUnits="userSpaceOnUse" /></defs><path
     d="M 2,24 C 2,7.5 7.5,2 24,2 40.5,2 46,7.5 46,24 46,40.5 40.5,46 24,46 7.5,46 2,40.5 2,24"
     style="fill:url(#linearGradient2961);fill-opacity:1;stroke-width:0.22"
     id="path311" /><path
     id="path6057"
     style="color:#000000;display:inline;overflow:visible;visibility:visible;fill:#ffffff;fill-opacity:1;fill-rule:nonzero;stroke:none;stroke-width:6;marker:none;enable-background:accumulate"
     d="m 24,9 c -1.038773,0 -2.249985,0.836295 -2.25,1.875 -4.35e-4,0.02072 -2.7e-4,0.03854 0,0.05859 -4.246274,0.802912 -5.993182,3.919045 -6,8.566406 0.0089,4.555048 -0.118729,8.7261 -3.75,10.5 0.449113,1.421669 6.703648,2.945046 12,3 5.296352,-0.05496 11.550886,-1.578331 12,-3 -3.631276,-1.773899 -3.75885,-5.944952 -3.75,-10.5 -0.0068,-4.647361 -1.753726,-7.763494 -6,-8.566406 2.7e-4,-0.02005 4.35e-4,-0.03788 0,-0.05859 C 26.249985,9.836296 25.038773,9 24,9 Z"
     sodipodi:nodetypes="scccccccccs" /><circle
     style="fill:#ffdd86;stroke-width:2;stroke-linecap:round;stroke-linejoin:round;fill-opacity:1"
     id="path415"
     cx="24"
     cy="37"
     r="2" /></svg>
