<?xml version="1.0" encoding="UTF-8" standalone="no"?>
<!-- Created with Inkscape (http://www.inkscape.org/) -->

<svg
   width="48"
   height="48"
   viewBox="0 0 48 48"
   version="1.1"
   id="svg371"
   xml:space="preserve"
   inkscape:version="1.2 (1:1.2.1+202207142221+cd75a1ee6d)"
   sodipodi:docname="kate.svg"
   xmlns:inkscape="http://www.inkscape.org/namespaces/inkscape"
   xmlns:sodipodi="http://sodipodi.sourceforge.net/DTD/sodipodi-0.dtd"
   xmlns:xlink="http://www.w3.org/1999/xlink"
   xmlns="http://www.w3.org/2000/svg"
   xmlns:svg="http://www.w3.org/2000/svg"><sodipodi:namedview
     id="namedview373"
     pagecolor="#ffffff"
     bordercolor="#000000"
     borderopacity="0.25"
     inkscape:showpageshadow="2"
     inkscape:pageopacity="0.0"
     inkscape:pagecheckerboard="0"
     inkscape:deskcolor="#d1d1d1"
     inkscape:document-units="px"
     showgrid="false"
     inkscape:zoom="17.1875"
     inkscape:cx="23.970909"
     inkscape:cy="24"
     inkscape:window-width="1920"
     inkscape:window-height="1018"
     inkscape:window-x="0"
     inkscape:window-y="28"
     inkscape:window-maximized="1"
     inkscape:current-layer="svg371"
     showguides="true" /><defs
     id="defs368"><linearGradient
       inkscape:collect="always"
       id="linearGradient1795"><stop
         style="stop-color:#2374eb;stop-opacity:1;"
         offset="0"
         id="stop1791" /><stop
         style="stop-color:#1ebee9;stop-opacity:1;"
         offset="1"
         id="stop1793" /></linearGradient><linearGradient
       inkscape:collect="always"
       xlink:href="#linearGradient1795"
       id="linearGradient3040"
       x1="32"
       y1="62"
       x2="32"
       y2="2"
       gradientUnits="userSpaceOnUse"
       gradientTransform="matrix(0.73333333,0,0,0.73333333,0.53333333,0.53333333)" /></defs><path
     d="M 2,24 C 2,7.5 7.5,2 24,2 40.5,2 46,7.5 46,24 46,40.5 40.5,46 24,46 7.5,46 2,40.5 2,24"
     style="fill:url(#linearGradient3040);fill-opacity:1.0;stroke-width:0.22"
     id="path311" /><path
     d="m 19.521672,17.346564 c -1.140172,-3.785193 -7.583456,-2.866695 -8.660473,-2.948871 1.208829,-0.600061 2.294393,-0.378135 4.786457,-2.183407 4.800792,-3.4777253 8.168973,-3.5239489 10.714286,-2.142857 -6.958514,0.264522 -3.911409,4.143638 -2.886483,6.141143 -1.303404,0.378598 -3.360925,0.950118 -3.953787,1.133992 z"
     style="fill:#ececec;stroke-width:1.07143;fill-opacity:1"
     id="path1099" /><path
     d="m 36.698161,12.137968 c -2.505767,3.30981 -6.671863,7.781594 -11.231416,8.370641 -4.559553,0.589045 -9.334852,-0.0635 -10.341749,3.332234 -0.927256,3.127168 2.762507,6.046851 6.144985,5.343172 3.613546,-0.751755 2.833146,-4.847448 0.856681,-7.636512 1.501312,-0.08609 0.617954,0.437967 3.163851,0.30964 l 1.653654,5.156232 c 0.949261,2.382732 3.263998,7.790584 3.703489,11.986625 -2.11345,-3.036898 -3.200478,-4.152951 -6.475829,-6.343862 -4.195509,-2.806414 -8.021894,-2.901422 -9.988533,-7.03613 -1.962392,-4.125775 1.063603,-7.097728 5.71162,-8.384793 6.642356,-1.839312 12.365631,-3.583147 16.803247,-5.097247 z"
     style="fill:#ffffff;stroke-width:1.07143"
     id="path918" /><path
     d="m 22.126662,21.547503 c 1.501313,-0.08609 1.222045,-0.0638 3.767943,-0.19213 3.794799,3.234658 5.052623,4.35386 11.682367,9.073199 -6.663785,-0.476703 -11.705784,-2.639008 -15.45031,-8.881069 z"
     style="fill:#ececec;stroke-width:1.07143;fill-opacity:1"
     id="path1066" /><path
     d="m 10.861199,14.397693 c 1.208829,-0.600061 2.301263,-1.094685 4.793327,-2.899957 4.800792,-3.4777248 9.883559,-2.7192825 12.428872,-1.338191 -6.958514,0.264523 -6.061929,1.650996 -6.087609,2.737908 -4.623255,-0.974523 -5.973147,0.351406 -11.13459,1.50024 z"
     style="fill:#cccccc;stroke-width:1.07143;fill-opacity:1"
     id="path1033" /><path
     d="m 28.083398,10.159545 c -6.958514,0.264523 -5.632865,4.055521 -4.607939,6.053026 -0.812019,0.235864 -1.156943,0.504568 -2.242446,0.791853 -4.37989,-7.8042222 3.275618,-8.8195045 6.850385,-6.844879 z"
     style="fill:#ffffff;stroke-width:1.07143"
     id="path1132" /><path
     d="M 15.436304,27.564215 C 12.031188,23.17971 13.088407,19.160927 19.756117,17.072901 26.336041,15.012362 32.260545,13.652068 36.698161,12.137968 24.722672,16.70089 9.2985124,19.749813 15.436304,27.564215 Z"
     style="fill:#cccccc;stroke-width:1.07143;fill-opacity:1"
     id="path1000" /></svg>
