<?xml version="1.0" encoding="UTF-8" standalone="no"?>
<!-- Created with Inkscape (http://www.inkscape.org/) -->

<svg
   width="48"
   height="48"
   viewBox="0 0 48 48"
   version="1.1"
   id="svg371"
   xml:space="preserve"
   inkscape:version="1.2 (1:1.2.1+202207142221+cd75a1ee6d)"
   sodipodi:docname="konquest.svg"
   xmlns:inkscape="http://www.inkscape.org/namespaces/inkscape"
   xmlns:sodipodi="http://sodipodi.sourceforge.net/DTD/sodipodi-0.dtd"
   xmlns:xlink="http://www.w3.org/1999/xlink"
   xmlns="http://www.w3.org/2000/svg"
   xmlns:svg="http://www.w3.org/2000/svg"><sodipodi:namedview
     id="namedview373"
     pagecolor="#ffffff"
     bordercolor="#000000"
     borderopacity="0.25"
     inkscape:showpageshadow="2"
     inkscape:pageopacity="0.0"
     inkscape:pagecheckerboard="0"
     inkscape:deskcolor="#d1d1d1"
     inkscape:document-units="px"
     showgrid="false"
     inkscape:zoom="17.1875"
     inkscape:cx="23.970909"
     inkscape:cy="24"
     inkscape:window-width="1920"
     inkscape:window-height="1018"
     inkscape:window-x="0"
     inkscape:window-y="28"
     inkscape:window-maximized="1"
     inkscape:current-layer="svg371"
     showguides="false" /><defs
     id="defs368"><linearGradient
       inkscape:collect="always"
       id="linearGradient1014"><stop
         style="stop-color:#9e704b;stop-opacity:1;"
         offset="0"
         id="stop1010" /><stop
         style="stop-color:#c99970;stop-opacity:1;"
         offset="1"
         id="stop1012" /></linearGradient><linearGradient
       inkscape:collect="always"
       xlink:href="#linearGradient1014"
       id="linearGradient3040"
       x1="32"
       y1="62"
       x2="32"
       y2="2"
       gradientUnits="userSpaceOnUse"
       gradientTransform="matrix(0.73333335,0,0,0.73333335,0.5333333,0.5333333)" /></defs><path
     d="M 2,24 C 2,7.5 7.5,2 24,2 40.5,2 46,7.5 46,24 46,40.5 40.5,46 24,46 7.5,46 2,40.5 2,24"
     style="fill:url(#linearGradient3040);fill-opacity:1;stroke-width:0.22"
     id="path311" /><circle
     style="fill:#ffffff;stroke-width:4.5;stroke-linecap:round;stroke-linejoin:round"
     id="path898"
     cx="24"
     cy="24"
     r="11.999999" /><path
     id="path952"
     style="fill:#71542a;fill-opacity:1;stroke-width:4.5;stroke-linecap:round;stroke-linejoin:round"
     d="M 16.371094,14.258787 A 17.249998,8.249999 20 0 0 7.7900409,18.099607 17.249998,8.249999 20 0 0 21.178711,31.751949 17.249998,8.249999 20 0 0 40.209959,29.900387 17.249998,8.249999 20 0 0 26.821288,16.248044 17.249998,8.249999 20 0 0 16.371094,14.258787 Z m -0.846679,3.480468 a 13.499998,4.4999995 20 0 1 10.013671,2.033203 13.499998,4.4999995 20 0 1 11.147459,8.844726 13.499998,4.4999995 20 0 1 -14.223631,-0.389649 13.499998,4.4999995 20 0 1 -11.147459,-8.844725 13.499998,4.4999995 20 0 1 4.20996,-1.643555 z" /><path
     id="path898-3"
     style="fill:#ffffff;stroke-width:4.5;stroke-linecap:round;stroke-linejoin:round"
     d="m 24,11.999998 c -5.031709,0.0015 -9.528139,3.141982 -11.261718,7.865624 l 0.0047,0.0024 a 11.999999,3.5999996 20 0 0 -0.01875,0.02811 11.999999,3.5999996 20 0 0 10.045311,7.485937 11.999999,3.5999996 20 0 0 12.506249,0.721875 11.999999,3.5999996 20 0 0 0.0093,-0.0328 c 0.472026,-1.305518 0.713895,-2.68298 0.71491,-4.071142 C 35.999998,17.372588 30.627408,11.999998 24,11.999998 Z" /></svg>
