<?xml version="1.0" encoding="UTF-8" standalone="no"?>
<!-- Created with Inkscape (http://www.inkscape.org/) -->

<svg
   width="48"
   height="48"
   viewBox="0 0 48 48"
   version="1.1"
   id="svg371"
   xml:space="preserve"
   inkscape:version="1.2.2 (b0a8486541, 2022-12-01)"
   sodipodi:docname="konversation.svg"
   xmlns:inkscape="http://www.inkscape.org/namespaces/inkscape"
   xmlns:sodipodi="http://sodipodi.sourceforge.net/DTD/sodipodi-0.dtd"
   xmlns:xlink="http://www.w3.org/1999/xlink"
   xmlns="http://www.w3.org/2000/svg"
   xmlns:svg="http://www.w3.org/2000/svg"><sodipodi:namedview
     id="namedview373"
     pagecolor="#ffffff"
     bordercolor="#000000"
     borderopacity="0.25"
     inkscape:showpageshadow="2"
     inkscape:pageopacity="0.0"
     inkscape:pagecheckerboard="0"
     inkscape:deskcolor="#d1d1d1"
     inkscape:document-units="px"
     showgrid="false"
     inkscape:zoom="16.458333"
     inkscape:cx="23.96962"
     inkscape:cy="24"
     inkscape:window-width="1920"
     inkscape:window-height="1011"
     inkscape:window-x="0"
     inkscape:window-y="0"
     inkscape:window-maximized="1"
     inkscape:current-layer="svg371"
     showguides="true" /><defs
     id="defs368"><linearGradient
       inkscape:collect="always"
       id="linearGradient1078"><stop
         style="stop-color:#139cde;stop-opacity:1;"
         offset="0"
         id="stop1074" /><stop
         style="stop-color:#1ecfe9;stop-opacity:1;"
         offset="1"
         id="stop1076" /></linearGradient><linearGradient
       inkscape:collect="always"
       xlink:href="#linearGradient1078"
       id="linearGradient3040"
       x1="32"
       y1="62"
       x2="32"
       y2="2"
       gradientUnits="userSpaceOnUse"
       gradientTransform="matrix(0.73333333,0,0,0.73333333,0.53333333,0.53333333)" /></defs><path
     d="M 2,24 C 2,7.5 7.5,2 24,2 40.5,2 46,7.5 46,24 46,40.5 40.5,46 24,46 7.5,46 2,40.5 2,24"
     style="fill:url(#linearGradient3040);fill-opacity:1;stroke-width:0.22"
     id="path311" /><path
     id="path921"
     style="fill:#ffffff;stroke-width:2.0494"
     d="M 24,9 A 16,14 0 0 0 8,23 16,14 0 0 0 13.353516,33.433594 C 13.053163,35.382802 12.633823,37.198912 12,39 c 1.919483,-1.169133 3.603385,-2.116785 5.189453,-3.34375 A 16,14 0 0 0 24,37 16,14 0 0 0 40,23 16,14 0 0 0 24,9 Z" /><path
     id="rect345"
     d="m 34,14 -17,4 v 8 l 17,4 z m -20,4 c -1.107998,0 -2,0.892004 -2,2 v 4 c 0,1.107996 0.892002,2 2,2 h 2 v -8 z m 3,9 v 5 h 2 v -5 z"
     style="fill:#0f78a8;fill-opacity:1;stroke-width:2"
     sodipodi:nodetypes="cccccssssccsccccc" /></svg>
