<?xml version="1.0" encoding="UTF-8" standalone="no"?>
<!-- Created with Inkscape (http://www.inkscape.org/) -->

<svg
   width="48"
   height="48"
   viewBox="0 0 48 48"
   version="1.1"
   id="svg371"
   xml:space="preserve"
   inkscape:version="1.2.1 (1:1.2.1+202210291243+9c6d41e410)"
   sodipodi:docname="kopete.svg"
   xmlns:inkscape="http://www.inkscape.org/namespaces/inkscape"
   xmlns:sodipodi="http://sodipodi.sourceforge.net/DTD/sodipodi-0.dtd"
   xmlns:xlink="http://www.w3.org/1999/xlink"
   xmlns="http://www.w3.org/2000/svg"
   xmlns:svg="http://www.w3.org/2000/svg"><sodipodi:namedview
     id="namedview373"
     pagecolor="#ffffff"
     bordercolor="#000000"
     borderopacity="0.25"
     inkscape:showpageshadow="2"
     inkscape:pageopacity="0.0"
     inkscape:pagecheckerboard="0"
     inkscape:deskcolor="#d1d1d1"
     inkscape:document-units="px"
     showgrid="false"
     inkscape:zoom="17.1875"
     inkscape:cx="23.970909"
     inkscape:cy="24"
     inkscape:window-width="1920"
     inkscape:window-height="1018"
     inkscape:window-x="0"
     inkscape:window-y="28"
     inkscape:window-maximized="1"
     inkscape:current-layer="svg371"
     showguides="true" /><defs
     id="defs368"><linearGradient
       inkscape:collect="always"
       xlink:href="#linearGradient3251"
       id="linearGradient3040"
       x1="32"
       y1="62"
       x2="32"
       y2="2"
       gradientUnits="userSpaceOnUse"
       gradientTransform="matrix(0.73333333,0,0,0.73333333,0.53333333,0.53333333)" /><linearGradient
       inkscape:collect="always"
       id="linearGradient3251"><stop
         style="stop-color:#1365de;stop-opacity:1;"
         offset="0"
         id="stop3247" /><stop
         style="stop-color:#1e87e9;stop-opacity:1;"
         offset="1"
         id="stop3249" /></linearGradient></defs><path
     d="M 2,24 C 2,7.5 7.5,2 24,2 40.5,2 46,7.5 46,24 46,40.5 40.5,46 24,46 7.5,46 2,40.5 2,24"
     style="fill:url(#linearGradient3040);fill-opacity:1;stroke-width:0.22"
     id="path311" /><path
     id="path921"
     style="opacity:1;fill:#ffffff;stroke-width:2.0494"
     d="M 24,9 A 16,14 0 0 0 8,23 16,14 0 0 0 13.353516,33.433594 C 13.053163,35.382802 12.633823,37.198912 12,39 c 1.919483,-1.169133 3.603385,-2.116785 5.189453,-3.34375 A 16,14 0 0 0 24,37 16,14 0 0 0 40,23 16,14 0 0 0 24,9 Z" /><path
     id="path1127"
     style="fill:#1c5cd7;fill-opacity:1;stroke-width:0.499999;stroke:none"
     d="M 30.691406 14.990234 A 1.5 1.5 0 0 0 29.630859 15.429688 A 1.5 1.5 0 0 0 29.630859 17.550781 C 32.377088 20.29701 32.377088 24.70299 29.630859 27.449219 A 1.5 1.5 0 0 0 29.630859 29.570312 A 1.5 1.5 0 0 0 31.751953 29.570312 C 35.644625 25.677641 35.644625 19.322359 31.751953 15.429688 A 1.5 1.5 0 0 0 30.691406 14.990234 z M 16.5 16 C 15.671574 16 15 16.671574 15 17.5 C 15 18.328426 15.671574 19 16.5 19 C 17.328426 19 18 18.328426 18 17.5 C 18 16.671574 17.328426 16 16.5 16 z M 20.5 21 C 19.669001 21 19 21.669001 19 22.5 C 19 23.330999 19.669001 24 20.5 24 L 26.5 24 C 27.330999 24 28 23.330999 28 22.5 C 28 21.669001 27.330999 21 26.5 21 L 20.5 21 z M 16.5 26 C 15.671574 26 15 26.671573 15 27.5 C 15 28.328425 15.671574 29 16.5 29 C 17.328426 29 18 28.328425 18 27.5 C 18 26.671573 17.328426 26 16.5 26 z " /></svg>
