<?xml version="1.0" encoding="UTF-8" standalone="no"?>
<!-- Created with Inkscape (http://www.inkscape.org/) -->

<svg
   width="48"
   height="48"
   viewBox="0 0 48 48"
   version="1.1"
   id="svg371"
   xml:space="preserve"
   inkscape:version="1.2.2 (b0a8486541, 2022-12-01)"
   sodipodi:docname="libreoffice-calc.svg"
   xmlns:inkscape="http://www.inkscape.org/namespaces/inkscape"
   xmlns:sodipodi="http://sodipodi.sourceforge.net/DTD/sodipodi-0.dtd"
   xmlns:xlink="http://www.w3.org/1999/xlink"
   xmlns="http://www.w3.org/2000/svg"
   xmlns:svg="http://www.w3.org/2000/svg"><sodipodi:namedview
     id="namedview373"
     pagecolor="#ffffff"
     bordercolor="#000000"
     borderopacity="0.25"
     inkscape:showpageshadow="2"
     inkscape:pageopacity="0.0"
     inkscape:pagecheckerboard="0"
     inkscape:deskcolor="#d1d1d1"
     inkscape:document-units="px"
     showgrid="false"
     inkscape:zoom="16.458333"
     inkscape:cx="23.96962"
     inkscape:cy="24"
     inkscape:window-width="1920"
     inkscape:window-height="1011"
     inkscape:window-x="0"
     inkscape:window-y="0"
     inkscape:window-maximized="1"
     inkscape:current-layer="svg371"
     showguides="true" /><defs
     id="defs368"><linearGradient
       inkscape:collect="always"
       id="linearGradient1177"><stop
         style="stop-color:#129f15;stop-opacity:1;"
         offset="0"
         id="stop1173" /><stop
         style="stop-color:#7edc29;stop-opacity:1;"
         offset="1"
         id="stop1175" /></linearGradient><linearGradient
       inkscape:collect="always"
       xlink:href="#linearGradient1177"
       id="linearGradient3040"
       x1="32"
       y1="62"
       x2="32"
       y2="2"
       gradientUnits="userSpaceOnUse"
       gradientTransform="matrix(0.73333333,0,0,0.73333333,0.53333333,0.5333333)" /></defs><path
     d="M 2,24 C 2,7.5 7.5,2 24,2 40.5,2 46,7.5 46,24 46,40.5 40.5,46 24,46 7.5,46 2,40.5 2,24"
     style="fill:url(#linearGradient3040);fill-opacity:1;stroke-width:0.22"
     id="path311" /><path
     id="rect293"
     style="fill:#ffffff;stroke-width:4;stroke-linecap:round;stroke-linejoin:round"
     d="m 12,13 c -2.215992,0 -4,1.784008 -4,4 v 14 c 0,2.215994 1.784008,4 4,4 h 18 c 2.215994,0 4,-1.784006 4,-4 V 17 c 0,-2.215992 -1.784006,-4 -4,-4 z m 0,2 h 4 v 3 h -6 v -1 c 0,-1.107996 0.892004,-2 2,-2 z m 6,0 h 6 v 3 h -6 z m 8,0 h 4 c 1.107994,0 2,0.892004 2,2 v 1 h -6 z m -16,5 h 6 v 3 h -6 z m 8,0 h 6 v 3 h -6 z m 8,0 h 6 v 3 h -6 z m -16,5 h 6 v 3 h -6 z m 8,0 h 6 v 3 h -6 z m 8,0 h 6 v 3 h -6 z m -16,5 h 6 v 3 h -4 c -1.107996,0 -2,-0.892006 -2,-2 z m 8,0 h 6 v 3 h -6 z m 8,0 h 6 v 1 c 0,1.107994 -0.892006,2 -2,2 h -4 z"
     sodipodi:nodetypes="sssssssssscccssccccccssccccccccccccccccccccccccccccccccccccssccccccccsscc" /><rect
     style="fill:#c1f0aa;fill-opacity:1;stroke-width:4;stroke-linecap:round;stroke-linejoin:round"
     id="rect549"
     width="15"
     height="12"
     x="25"
     y="25"
     ry="2" /><path
     id="rect4651"
     style="fill:#4dad1f;fill-opacity:1;stroke-width:4;stroke-linecap:round;stroke-linejoin:round"
     d="m 31,27 v 8 h 3 v -8 z m 4,3 v 5 h 3 v -5 z m -8,2 v 3 h 3 v -3 z"
     sodipodi:nodetypes="ccccccccccccccc" /></svg>
