<?xml version="1.0" encoding="UTF-8" standalone="no"?>
<!-- Created with Inkscape (http://www.inkscape.org/) -->

<svg
   width="48"
   height="48"
   viewBox="0 0 48 48"
   version="1.1"
   id="svg371"
   xml:space="preserve"
   inkscape:version="1.2.2 (1:1.2.2+202305151914+b0a8486541)"
   sodipodi:docname="libreoffice-draw.svg"
   xmlns:inkscape="http://www.inkscape.org/namespaces/inkscape"
   xmlns:sodipodi="http://sodipodi.sourceforge.net/DTD/sodipodi-0.dtd"
   xmlns:xlink="http://www.w3.org/1999/xlink"
   xmlns="http://www.w3.org/2000/svg"
   xmlns:svg="http://www.w3.org/2000/svg"><sodipodi:namedview
     id="namedview373"
     pagecolor="#ffffff"
     bordercolor="#000000"
     borderopacity="0.25"
     inkscape:showpageshadow="2"
     inkscape:pageopacity="0.0"
     inkscape:pagecheckerboard="0"
     inkscape:deskcolor="#d1d1d1"
     inkscape:document-units="px"
     showgrid="false"
     inkscape:zoom="16.791667"
     inkscape:cx="24"
     inkscape:cy="24"
     inkscape:window-width="1920"
     inkscape:window-height="1008"
     inkscape:window-x="0"
     inkscape:window-y="0"
     inkscape:window-maximized="1"
     inkscape:current-layer="svg371"
     showguides="true" /><defs
     id="defs368"><linearGradient
       inkscape:collect="always"
       xlink:href="#linearGradient1836"
       id="linearGradient3040"
       x1="32"
       y1="62"
       x2="32"
       y2="2"
       gradientUnits="userSpaceOnUse"
       gradientTransform="matrix(0.73333333,0,0,0.73333333,0.53333333,0.53333333)" /><linearGradient
       inkscape:collect="always"
       id="linearGradient1836"><stop
         style="stop-color:#ff9b11;stop-opacity:1;"
         offset="0"
         id="stop1832" /><stop
         style="stop-color:#f9c100;stop-opacity:1;"
         offset="1"
         id="stop1834" /></linearGradient></defs><path
     d="M 2,24 C 2,7.5 7.5,2 24,2 40.5,2 46,7.5 46,24 46,40.5 40.5,46 24,46 7.5,46 2,40.5 2,24"
     style="fill:url(#linearGradient3040);fill-opacity:1.0;stroke-width:0.22"
     id="path311" /><path
     id="rect292"
     style="fill:#ffffff;stroke-width:2;stroke-linecap:round;stroke-linejoin:round"
     d="m 28,18 c -1.107998,0 -2,0.892002 -2,2 v 10 c 0,1.107998 0.892002,2 2,2 h 10 c 1.107998,0 2,-0.892002 2,-2 V 20 c 0,-1.107998 -0.892002,-2 -2,-2 z m 0,2 H 38 V 30 H 28 Z"
     sodipodi:nodetypes="sssssssssccccc" /><circle
     style="fill:#ffffff;stroke-width:1.6;stroke-linecap:round;stroke-linejoin:round"
     id="path452"
     cx="16"
     cy="22"
     r="8" /><path
     id="path2642"
     style="color:#000000;fill:#fad9a2;fill-opacity:1;stroke:none;stroke-width:2;stroke-linecap:round;stroke-linejoin:round;-inkscape-stroke:none"
     d="m 22.999611,22 c -0.329378,-1.3e-5 -0.637642,0.162155 -0.824218,0.433594 l -7.999891,12 C 13.719635,35.097153 14.19466,35.999922 14.99972,36 h 15.999782 c 0.805061,-7.9e-5 1.280083,-0.902847 0.824218,-1.566406 l -7.999891,-12 C 23.637253,22.162155 23.328989,21.999987 22.999611,22 Z"
     sodipodi:nodetypes="cccccccc" /></svg>
