<?xml version="1.0" encoding="UTF-8" standalone="no"?>
<!-- Created with Inkscape (http://www.inkscape.org/) -->

<svg
   width="48"
   height="48"
   viewBox="0 0 48 48"
   version="1.1"
   id="svg371"
   xml:space="preserve"
   inkscape:version="1.3 (0e150ed6c4, 2023-07-21)"
   sodipodi:docname="lollypop.svg"
   xmlns:inkscape="http://www.inkscape.org/namespaces/inkscape"
   xmlns:sodipodi="http://sodipodi.sourceforge.net/DTD/sodipodi-0.dtd"
   xmlns:xlink="http://www.w3.org/1999/xlink"
   xmlns="http://www.w3.org/2000/svg"
   xmlns:svg="http://www.w3.org/2000/svg"><sodipodi:namedview
     id="namedview373"
     pagecolor="#ffffff"
     bordercolor="#000000"
     borderopacity="0.25"
     inkscape:showpageshadow="2"
     inkscape:pageopacity="0.0"
     inkscape:pagecheckerboard="0"
     inkscape:deskcolor="#d1d1d1"
     inkscape:document-units="px"
     showgrid="false"
     inkscape:zoom="16.583333"
     inkscape:cx="24"
     inkscape:cy="24"
     inkscape:window-width="1920"
     inkscape:window-height="1000"
     inkscape:window-x="0"
     inkscape:window-y="0"
     inkscape:window-maximized="1"
     inkscape:current-layer="svg371"
     showguides="false" /><defs
     id="defs368"><linearGradient
       inkscape:collect="always"
       xlink:href="#linearGradient3"
       id="linearGradient3040"
       x1="32"
       y1="62"
       x2="32"
       y2="2"
       gradientUnits="userSpaceOnUse"
       gradientTransform="matrix(0.73333335,0,0,0.73333335,0.53333333,0.53333333)" /><linearGradient
       id="linearGradient1"
       inkscape:collect="always"><stop
         style="stop-color:#fa4b8c;stop-opacity:1;"
         offset="0"
         id="stop1" /><stop
         style="stop-color:#fa5994;stop-opacity:1;"
         offset="1"
         id="stop2" /></linearGradient><linearGradient
       id="linearGradient3"
       inkscape:collect="always"><stop
         style="stop-color:#e4e4e4;stop-opacity:1;"
         offset="0"
         id="stop3" /><stop
         style="stop-color:#f1f1f1;stop-opacity:1;"
         offset="1"
         id="stop4" /></linearGradient><linearGradient
       inkscape:collect="always"
       xlink:href="#linearGradient1"
       id="linearGradient6"
       x1="24"
       y1="46"
       x2="24"
       y2="2"
       gradientUnits="userSpaceOnUse" /></defs><path
     d="M 2,24 C 2,7.5 7.5,2 24,2 40.5,2 46,7.5 46,24 46,40.5 40.5,46 24,46 7.5,46 2,40.5 2,24"
     style="fill:url(#linearGradient3040);fill-opacity:1.0;stroke-width:0.22"
     id="path311" /><path
     id="path5170"
     mask="none"
     style="fill:url(#linearGradient6);fill-opacity:1;stroke-width:4.74342;stroke-linecap:round;stroke-linejoin:round"
     d="M 24 2 C 22.033776 2 20.227577 2.0825362 18.564453 2.2480469 C 18.223239 4.1076575 17.9951 6.2945421 18 9 C 17.999193 9.4221412 18.012906 9.8412484 18.041016 10.253906 A 15 15 0 0 1 24 9 A 15 15 0 0 1 27.46875 9.4101562 C 28.414086 7.0509736 29.611691 4.6614938 31.123047 2.4511719 C 29.016406 2.1441142 26.652229 2 24 2 z M 8.9316406 5.1171875 C 5.1711759 7.5219838 3.1494102 11.467753 2.3769531 17.429688 C 3.8338756 18.826022 5.6437654 20.336954 8.0097656 21.697266 C 8.37711 21.910594 8.7491505 22.100296 9.1230469 22.283203 A 15 15 0 0 1 13.587891 13.253906 C 11.780899 10.808713 10.116373 8.0551181 8.9316406 5.1171875 z M 41.685547 7.3476562 C 39.28965 8.2315183 37.054906 9.5259348 33.990234 11.302734 C 33.628451 11.510394 33.280946 11.731154 32.941406 11.958984 A 15 15 0 0 1 37.974609 18.5625 C 40.397798 18.066909 42.997625 17.770046 45.671875 17.84375 C 45.128549 13.24453 43.872582 9.814296 41.685547 7.3476562 z M 18.65625 15.001953 C 17.783661 15.034364 17.001541 15.775649 17 16.798828 L 17 31.201172 C 17.0021 32.565412 18.391972 33.431404 19.533203 32.779297 L 32.105469 25.580078 C 33.29851 24.898312 33.29851 23.10169 32.105469 22.419922 L 19.533203 15.220703 C 19.247895 15.057676 18.947113 14.991149 18.65625 15.001953 z M 38.876953 25.716797 A 15 15 0 0 1 34.863281 34.294922 C 36.505515 36.811192 37.874603 39.780802 38.546875 43.193359 C 42.791449 40.735686 44.974304 36.501939 45.707031 29.871094 C 44.165807 28.803655 42.601791 27.804225 39.990234 26.302734 C 39.622889 26.089406 39.250852 25.899698 38.876953 25.716797 z M 9.5976562 28.177734 C 7.3192042 28.473447 4.8234953 28.632247 2.1699219 28.582031 C 2.5771444 33.699354 3.7537432 37.489755 5.9414062 40.205078 C 8.172278 39.573675 10.772115 38.574354 14.009766 36.697266 C 14.381653 36.483816 14.739498 36.258162 15.087891 36.023438 A 15 15 0 0 1 9.5976562 28.177734 z M 29.953125 37.746094 A 15 15 0 0 1 24 39 A 15 15 0 0 1 20.542969 38.560547 C 19.595811 40.92918 18.394587 43.32933 16.876953 45.548828 C 18.983594 45.855886 21.347771 46 24 46 C 25.83125 46 27.52011 45.926216 29.087891 45.783203 C 29.561464 43.918446 30.004927 41.725341 30 39 C 30.0011 38.577171 29.981415 38.15948 29.953125 37.746094 z " /></svg>
