<?xml version="1.0" encoding="UTF-8" standalone="no"?>
<!-- Created with Inkscape (http://www.inkscape.org/) -->

<svg
   width="48"
   height="48"
   viewBox="0 0 48 48"
   version="1.1"
   id="svg371"
   xml:space="preserve"
   inkscape:version="1.2.2 (1:1.2.2+202212051552+b0a8486541)"
   sodipodi:docname="mintinstall.svg"
   xmlns:inkscape="http://www.inkscape.org/namespaces/inkscape"
   xmlns:sodipodi="http://sodipodi.sourceforge.net/DTD/sodipodi-0.dtd"
   xmlns:xlink="http://www.w3.org/1999/xlink"
   xmlns="http://www.w3.org/2000/svg"
   xmlns:svg="http://www.w3.org/2000/svg"><sodipodi:namedview
     id="namedview373"
     pagecolor="#ffffff"
     bordercolor="#000000"
     borderopacity="0.25"
     inkscape:showpageshadow="2"
     inkscape:pageopacity="0.0"
     inkscape:pagecheckerboard="0"
     inkscape:deskcolor="#d1d1d1"
     inkscape:document-units="px"
     showgrid="false"
     inkscape:zoom="16.875"
     inkscape:cx="23.97037"
     inkscape:cy="24"
     inkscape:window-width="1920"
     inkscape:window-height="1012"
     inkscape:window-x="0"
     inkscape:window-y="0"
     inkscape:window-maximized="1"
     inkscape:current-layer="svg371"
     showguides="true" /><defs
     id="defs368"><linearGradient
       inkscape:collect="always"
       xlink:href="#linearGradient918"
       id="linearGradient3040"
       x1="62"
       y1="62"
       x2="17.700407"
       y2="7.6766477"
       gradientUnits="userSpaceOnUse"
       gradientTransform="matrix(0.73333335,0,0,0.73333335,0.53333337,0.53333337)" /><linearGradient
       inkscape:collect="always"
       id="linearGradient918"><stop
         style="stop-color:#55ab3e;stop-opacity:1;"
         offset="0"
         id="stop914" /><stop
         style="stop-color:#69bc84;stop-opacity:1;"
         offset="1"
         id="stop916" /></linearGradient></defs><path
     d="M 2,24 C 2,7.5 7.5,2 24,2 40.5,2 46,7.5 46,24 46,40.5 40.5,46 24,46 7.5,46 2,40.5 2,24"
     style="fill:url(#linearGradient3040);fill-opacity:1.0;stroke-width:0.22"
     id="path311" /><path
     id="rect790"
     style="fill:#ffffff;stroke-width:2.12132;stroke-linecap:round;stroke-linejoin:round"
     d="m 24,9 c -4.418261,0 -8,3.581739 -8,8 h -6 l 2,15 c 0.439312,3.294833 2.676009,6 6,6 h 12 c 3.323991,0 5.560689,-2.705168 6,-6 L 38,17 H 32 C 32,12.581739 28.418261,9 24,9 Z m 0,3.199219 c 2.650955,0 4.800781,2.149826 4.800781,4.800781 h -9.601562 c 0,-2.650955 2.149826,-4.800781 4.800781,-4.800781 z" /></svg>
