<?xml version="1.0" encoding="UTF-8" standalone="no"?>
<!-- Created with Inkscape (http://www.inkscape.org/) -->

<svg
   width="48"
   height="48"
   viewBox="0 0 48 48"
   version="1.1"
   id="svg371"
   xml:space="preserve"
   inkscape:version="1.2.2 (1:1.2.2+202305151914+b0a8486541)"
   sodipodi:docname="naver-whale.svg"
   xmlns:inkscape="http://www.inkscape.org/namespaces/inkscape"
   xmlns:sodipodi="http://sodipodi.sourceforge.net/DTD/sodipodi-0.dtd"
   xmlns:xlink="http://www.w3.org/1999/xlink"
   xmlns="http://www.w3.org/2000/svg"
   xmlns:svg="http://www.w3.org/2000/svg"><sodipodi:namedview
     id="namedview373"
     pagecolor="#ffffff"
     bordercolor="#000000"
     borderopacity="0.25"
     inkscape:showpageshadow="2"
     inkscape:pageopacity="0.0"
     inkscape:pagecheckerboard="0"
     inkscape:deskcolor="#d1d1d1"
     inkscape:document-units="px"
     showgrid="false"
     inkscape:zoom="16.791667"
     inkscape:cx="23.970223"
     inkscape:cy="24"
     inkscape:window-width="1920"
     inkscape:window-height="1008"
     inkscape:window-x="0"
     inkscape:window-y="0"
     inkscape:window-maximized="1"
     inkscape:current-layer="svg371"
     showguides="true" /><defs
     id="defs368"><linearGradient
       inkscape:collect="always"
       xlink:href="#linearGradient1969"
       id="linearGradient3040"
       x1="32"
       y1="2"
       x2="31.999887"
       y2="52.455219"
       gradientUnits="userSpaceOnUse"
       gradientTransform="matrix(0.73333333,0,0,0.73333333,0.53333333,0.53333333)" /><linearGradient
       inkscape:collect="always"
       id="linearGradient1969"><stop
         style="stop-color:#1b34a8;stop-opacity:1;"
         offset="0"
         id="stop1965" /><stop
         style="stop-color:#3683ae;stop-opacity:1"
         offset="1"
         id="stop1967" /></linearGradient><linearGradient
       inkscape:collect="always"
       xlink:href="#linearGradient17511"
       id="linearGradient17513"
       x1="38.999996"
       y1="24.000418"
       x2="38.999996"
       y2="39.000496"
       gradientUnits="userSpaceOnUse" /><linearGradient
       inkscape:collect="always"
       id="linearGradient17511"><stop
         style="stop-color:#e4e5e7;stop-opacity:1;"
         offset="0"
         id="stop17507" /><stop
         style="stop-color:#c1c1c5;stop-opacity:1;"
         offset="1"
         id="stop17509" /></linearGradient><linearGradient
       inkscape:collect="always"
       xlink:href="#linearGradient15319"
       id="linearGradient15327"
       x1="9.0688782"
       y1="25.661974"
       x2="9"
       y2="38.999268"
       gradientUnits="userSpaceOnUse" /><linearGradient
       inkscape:collect="always"
       id="linearGradient15319"><stop
         style="stop-color:#00dcb4;stop-opacity:1;"
         offset="0"
         id="stop15315" /><stop
         style="stop-color:#1f9ea2;stop-opacity:1;"
         offset="1"
         id="stop15317" /></linearGradient><linearGradient
       inkscape:collect="always"
       xlink:href="#linearGradient10097"
       id="linearGradient15313"
       x1="9.0688782"
       y1="25.661974"
       x2="9.0184727"
       y2="38.999268"
       gradientUnits="userSpaceOnUse" /><linearGradient
       inkscape:collect="always"
       id="linearGradient10097"><stop
         style="stop-color:#00dcb4;stop-opacity:1;"
         offset="0"
         id="stop10093" /><stop
         style="stop-color:#0baeb5;stop-opacity:1"
         offset="1"
         id="stop10095" /></linearGradient></defs><path
     d="M 2,24 C 2,7.5 7.5,2 24,2 40.5,2 46,7.5 46,24 46,40.5 40.5,46 24,46 7.5,46 2,40.5 2,24"
     style="fill:url(#linearGradient3040);fill-opacity:1;stroke-width:0.22"
     id="path311" /><path
     d="m 24,11 c -0.276142,0 -0.5,0.223858 -0.5,0.5 0,0.276142 0.223858,0.5 0.5,0.5 0.276142,0 0.5,-0.223858 0.5,-0.5 C 24.5,11.223858 24.276142,11 24,11 Z m 3.75,1.5 c -0.138071,0 -0.25,0.111929 -0.25,0.25 0,0.138071 0.111929,0.25 0.25,0.25 C 27.888071,13 28,12.888071 28,12.75 28,12.611929 27.888071,12.5 27.75,12.5 Z m -9.144531,2.790039 c -0.05797,-2.6e-4 -0.105189,0.04652 -0.105469,0.104492 -2.61e-4,0.05836 0.04711,0.10573 0.105469,0.105469 0.05797,-2.8e-4 0.104752,-0.04749 0.104492,-0.105469 -2.78e-4,-0.05759 -0.0469,-0.104214 -0.104492,-0.104492 z M 22.75,15.5 c -0.138071,0 -0.25,0.111929 -0.25,0.25 0,0.138071 0.111929,0.25 0.25,0.25 C 22.888071,16 23,15.888071 23,15.75 23,15.611929 22.888071,15.5 22.75,15.5 Z m -4.344727,0.290039 c -0.05798,-2.6e-4 -0.105189,0.04652 -0.105469,0.104492 -2.61e-4,0.05836 0.04711,0.10573 0.105469,0.105469 0.05797,-2.8e-4 0.104752,-0.04749 0.104492,-0.105469 -2.78e-4,-0.05759 -0.0469,-0.104214 -0.104492,-0.104492 z M 15.25,16 C 15.111929,16 15,16.111929 15,16.25 c 0,0.138071 0.111929,0.25 0.25,0.25 0.138071,0 0.25,-0.111929 0.25,-0.25 C 15.5,16.111929 15.388071,16 15.25,16 Z m 2.25,1.450196 c -0.276142,0 -0.5,0.223858 -0.5,0.5 0,0.276142 0.223858,0.5 0.5,0.5 0.276142,0 0.5,-0.223858 0.5,-0.5 0,-0.276142 -0.223858,-0.5 -0.5,-0.5 z"
     style="fill:#ffffff;stroke-width:0.5"
     id="path40148" /><path
     d="m 38.999995,24.000418 c 0,8.284314 -6.715763,15.000077 -15.000077,15.000077 -2.418712,0 -4.703717,-0.572467 -6.726912,-1.5893 0.630962,-3.235734 1.454722,-5.998527 2.40524,-8.357355 1.099237,-2.727893 3.748978,-2.365412 5.085134,-4.119472 2.140183,-2.809556 3.072288,-7.056855 5.138549,-8.080109 2.553902,-1.264744 6.172709,-1.770024 6.172709,-1.770024 l 0.163353,0.240467 c 0.158694,0.223451 0.311421,0.451435 0.457949,0.683719 1.459525,2.313724 2.304055,5.054235 2.304055,7.991997 z"
     style="fill:url(#linearGradient17513);fill-opacity:1;stroke-width:0.535718"
     id="path405" /><path
     id="path372"
     style="fill:url(#linearGradient15327);fill-opacity:1;stroke-width:0.535718"
     d="m 34.554688,14.888672 c -1.94564,2.57e-4 -4.04086,0.567242 -5.777344,1.388672 -1.487526,0.703663 -2.938718,1.920223 -5.751953,4.154297 -2.081296,1.652821 -3.480714,2.221895 -4.820313,2.484375 -0.528642,0.103585 -1.592476,0.08041 -2.152344,-0.04687 -2.393108,-0.544024 -4.229527,-2.336958 -4.570312,-4.78711 -0.104153,-0.748808 -0.03161,-1.76104 0.173828,-2.435547 0.04295,-0.141047 0.07009,-0.263887 0.06055,-0.273437 -0.02842,-0.02841 -0.621734,0.907696 -0.904297,1.427734 -0.8495751,1.563585 -1.3782462,3.12481 -1.6699219,4.925781 -0.1532836,0.946447 -0.1911464,2.922604 -0.074219,3.935547 0.4016636,3.4797 1.9876579,6.721873 4.4570319,9.111329 l 0.40039,0.386718 -0.330078,0.306641 c -1.298955,1.198522 -2.945526,2.217564 -4.5234377,2.800781 -0.088607,0.03274 -0.073699,0.04779 0.1035156,0.111328 0.63936,0.22921 1.9789331,0.498982 2.9257811,0.587891 0.750121,0.07044 2.102246,0.02163 2.820313,-0.101563 0.889891,-0.152676 1.705183,-0.381387 2.537109,-0.710937 l 1.199219,-0.552735 c 1.493426,-0.771324 3.046264,-2.049435 3.939453,-3.242187 1.166726,-1.558029 2.64593,-4.622659 4.257813,-8.826172 0.777219,-2.026857 1.131202,-2.863562 1.660156,-3.923828 0.740429,-1.484162 1.486887,-2.608096 2.244141,-3.373047 1.199212,-1.211401 3.140342,-2.521841 5.011718,-3.02539 l 0.28711,-0.117188 -0.0078,-0.01172 -0.673828,-0.164062 c -0.270315,-0.01898 -0.544318,-0.02935 -0.822265,-0.0293 z M 24,23 c 0.552284,0 1,0.447714 1,1 0,0.552284 -0.447717,1 -1,1 -0.552285,0 -1,-0.447716 -1,-1 0,-0.552286 0.447715,-1 1,-1 z" /><path
     id="path5945"
     style="fill:url(#linearGradient15313);fill-opacity:1;stroke-width:0.535718"
     d="m 19,28 c -1.213865,3.737099 -3.730831,5.874293 -5.074219,7.160156 l -0.330078,0.306641 c -0.324738,0.29963 -0.671517,0.588138 -1.033203,0.861328 -0.361686,0.27319 -0.737422,0.530793 -1.123047,0.769531 -4.62e-4,2.86e-4 -0.0015,-2.86e-4 -0.002,0 -0.770815,0.477086 -1.576768,0.878495 -2.3652343,1.169922 -0.022152,0.0082 -0.038581,0.01448 -0.046875,0.02148 -0.00829,0.0071 -0.00936,0.01351 -0.00195,0.02148 0.014821,0.01595 0.063736,0.03659 0.1523437,0.06836 0.6393606,0.22921 1.9789327,0.498982 2.9257807,0.587891 0.750121,0.07044 2.102246,0.02163 2.820313,-0.101563 0.889891,-0.152676 1.705183,-0.381387 2.537109,-0.710937 l 1.199219,-0.552735 C 20.151585,36.83023 21.704423,35.552119 22.597612,34.359367 23.520922,33.126459 24.64148,30.93801 25.867188,28 Z" /></svg>
