<?xml version="1.0" encoding="UTF-8" standalone="no"?>
<!-- Created with Inkscape (http://www.inkscape.org/) -->

<svg
   width="48"
   height="48"
   viewBox="0 0 48 48"
   version="1.1"
   id="svg371"
   xml:space="preserve"
   inkscape:version="1.2.2 (1:1.2.2+202212051552+b0a8486541)"
   sodipodi:docname="office-calendar.svg"
   xmlns:inkscape="http://www.inkscape.org/namespaces/inkscape"
   xmlns:sodipodi="http://sodipodi.sourceforge.net/DTD/sodipodi-0.dtd"
   xmlns:xlink="http://www.w3.org/1999/xlink"
   xmlns="http://www.w3.org/2000/svg"
   xmlns:svg="http://www.w3.org/2000/svg"><sodipodi:namedview
     id="namedview373"
     pagecolor="#ffffff"
     bordercolor="#000000"
     borderopacity="0.25"
     inkscape:showpageshadow="2"
     inkscape:pageopacity="0.0"
     inkscape:pagecheckerboard="0"
     inkscape:deskcolor="#d1d1d1"
     inkscape:document-units="px"
     showgrid="false"
     inkscape:zoom="16.875"
     inkscape:cx="24"
     inkscape:cy="24"
     inkscape:window-width="1920"
     inkscape:window-height="1012"
     inkscape:window-x="0"
     inkscape:window-y="0"
     inkscape:window-maximized="1"
     inkscape:current-layer="svg371"
     showguides="true" /><defs
     id="defs368"><linearGradient
       inkscape:collect="always"
       id="linearGradient1186"><stop
         style="stop-color:#097897;stop-opacity:1;"
         offset="0"
         id="stop1182" /><stop
         style="stop-color:#1d9eb8;stop-opacity:1;"
         offset="1"
         id="stop1184" /></linearGradient><linearGradient
       inkscape:collect="always"
       xlink:href="#linearGradient1186"
       id="linearGradient1564"
       x1="24"
       y1="46"
       x2="24"
       y2="2"
       gradientUnits="userSpaceOnUse" /></defs><path
     d="M 2,24 C 2,7.5 7.5,2 24,2 40.5,2 46,7.5 46,24 46,40.5 40.5,46 24,46 7.5,46 2,40.5 2,24"
     style="fill:url(#linearGradient1564);fill-opacity:1;stroke-width:0.22"
     id="path311" /><path
     id="rect900"
     style="fill:#ffffff;stroke-width:4.2;stroke-linecap:round;stroke-linejoin:round"
     d="M 14 10 C 11.784002 10 10 11.784002 10 14 L 10 34 C 10 36.215998 11.784002 38 14 38 L 34 38 C 36.215998 38 38 36.215998 38 34 L 38 14 C 38 11.784002 36.215998 10 34 10 L 32 10 A 3 3 0 0 1 29 13 A 3 3 0 0 1 26 10 L 22 10 A 3 3 0 0 1 19 13 A 3 3 0 0 1 16 10 L 14 10 z " /><path
     id="path1512"
     style="fill:#025c80;fill-opacity:1;stroke-width:2"
     d="m 15,18 c -1.104569,0 -2,0.895429 -2,2 0,1.104571 0.895431,2 2,2 1.104569,0 2,-0.895429 2,-2 0,-1.104571 -0.895431,-2 -2,-2 z m 6,0 c -1.104571,0 -2,0.895429 -2,2 0,1.104571 0.895429,2 2,2 1.104571,0 2,-0.895429 2,-2 0,-1.104571 -0.895429,-2 -2,-2 z m 6,0 c -1.104571,0 -2,0.895429 -2,2 0,1.104571 0.895429,2 2,2 1.104571,0 2,-0.895429 2,-2 0,-1.104571 -0.895429,-2 -2,-2 z m 6,0 c -1.104571,0 -2,0.895429 -2,2 0,1.104571 0.895429,2 2,2 1.104571,0 2,-0.895429 2,-2 0,-1.104571 -0.895429,-2 -2,-2 z m -18,6 c -1.104569,0 -2,0.895429 -2,2 0,1.104571 0.895431,2 2,2 1.104569,0 2,-0.895429 2,-2 0,-1.104571 -0.895431,-2 -2,-2 z m 6,0 c -1.104571,0 -2,0.895429 -2,2 0,1.104571 0.895429,2 2,2 1.104571,0 2,-0.895429 2,-2 0,-1.104571 -0.895429,-2 -2,-2 z m 6,0 c -1.104571,0 -2,0.895429 -2,2 0,1.104571 0.895429,2 2,2 1.104571,0 2,-0.895429 2,-2 0,-1.104571 -0.895429,-2 -2,-2 z m 6,0 c -1.104571,0 -2,0.895429 -2,2 0,1.104571 0.895429,2 2,2 1.104571,0 2,-0.895429 2,-2 0,-1.104571 -0.895429,-2 -2,-2 z m -18,6 c -1.104568,0 -2,0.895432 -2,2 0,1.104568 0.895432,2 2,2 1.104569,0 2,-0.895432 2,-2 0,-1.104568 -0.895431,-2 -2,-2 z m 6,0 c -1.104568,0 -2,0.895432 -2,2 0,1.104568 0.895432,2 2,2 1.104568,0 2,-0.895432 2,-2 0,-1.104568 -0.895432,-2 -2,-2 z m 6,0 c -1.104568,0 -2,0.895432 -2,2 0,1.104568 0.895432,2 2,2 1.104568,0 2,-0.895432 2,-2 0,-1.104568 -0.895432,-2 -2,-2 z"
     sodipodi:nodetypes="sssssssssssssssssssssssssssssssssssssssssssssssssssssss" /></svg>
