<?xml version="1.0" encoding="UTF-8" standalone="no"?>
<!-- Created with Inkscape (http://www.inkscape.org/) -->

<svg
   width="48"
   height="48"
   viewBox="0 0 48 48"
   version="1.1"
   id="svg371"
   xml:space="preserve"
   inkscape:version="1.2.2 (b0a8486541, 2022-12-01)"
   sodipodi:docname="okular.svg"
   xmlns:inkscape="http://www.inkscape.org/namespaces/inkscape"
   xmlns:sodipodi="http://sodipodi.sourceforge.net/DTD/sodipodi-0.dtd"
   xmlns:xlink="http://www.w3.org/1999/xlink"
   xmlns="http://www.w3.org/2000/svg"
   xmlns:svg="http://www.w3.org/2000/svg"><sodipodi:namedview
     id="namedview373"
     pagecolor="#ffffff"
     bordercolor="#000000"
     borderopacity="0.25"
     inkscape:showpageshadow="2"
     inkscape:pageopacity="0.0"
     inkscape:pagecheckerboard="0"
     inkscape:deskcolor="#d1d1d1"
     inkscape:document-units="px"
     showgrid="false"
     inkscape:zoom="16.458333"
     inkscape:cx="23.96962"
     inkscape:cy="24"
     inkscape:window-width="1920"
     inkscape:window-height="1011"
     inkscape:window-x="0"
     inkscape:window-y="0"
     inkscape:window-maximized="1"
     inkscape:current-layer="svg371"
     showguides="false" /><defs
     id="defs368"><linearGradient
       inkscape:collect="always"
       id="linearGradient1318"><stop
         style="stop-color:#2a67b6;stop-opacity:1;"
         offset="0"
         id="stop1314" /><stop
         style="stop-color:#5d78bb;stop-opacity:1;"
         offset="1"
         id="stop1316" /></linearGradient><linearGradient
       inkscape:collect="always"
       xlink:href="#linearGradient1318"
       id="linearGradient3040"
       x1="32"
       y1="62"
       x2="32"
       y2="2"
       gradientUnits="userSpaceOnUse"
       gradientTransform="matrix(0.73333333,0,0,0.73333333,0.53333333,0.53333333)" /></defs><path
     d="M 2,24 C 2,7.5 7.5,2 24,2 40.5,2 46,7.5 46,24 46,40.5 40.5,46 24,46 7.5,46 2,40.5 2,24"
     style="fill:url(#linearGradient3040);fill-opacity:1;stroke-width:0.22"
     id="path311" /><rect
     style="fill:#ffffff;stroke-width:1.5"
     id="rect292"
     width="24"
     height="30"
     x="12"
     y="9"
     ry="4" /><path
     id="path452"
     style="fill:#2c5a8d;fill-opacity:1;stroke-width:1.81141"
     d="m 27.000023,9 -1.810546,1.939454 C 19.330985,16.797687 17.156428,24.871356 21.257812,28.971679 24.631751,32.346489 30.693504,32.499767 36,29 V 26 C 31.906376,28.721954 26.488328,30.013361 23.548828,27.07617 20.033076,23.561431 22.523562,16.100802 26.625,12 L 30,9 Z"
     sodipodi:nodetypes="ccccccccc" /></svg>
