<?xml version="1.0" encoding="UTF-8" standalone="no"?>
<!-- Created with Inkscape (http://www.inkscape.org/) -->

<svg
   width="48"
   height="48"
   viewBox="0 0 48 48"
   version="1.1"
   id="svg371"
   xml:space="preserve"
   inkscape:version="1.3.2 (091e20ef0f, 2023-11-25, custom)"
   sodipodi:docname="org.kde.merkuro.calendar.svg"
   xmlns:inkscape="http://www.inkscape.org/namespaces/inkscape"
   xmlns:sodipodi="http://sodipodi.sourceforge.net/DTD/sodipodi-0.dtd"
   xmlns:xlink="http://www.w3.org/1999/xlink"
   xmlns="http://www.w3.org/2000/svg"
   xmlns:svg="http://www.w3.org/2000/svg"><sodipodi:namedview
     id="namedview373"
     pagecolor="#ffffff"
     bordercolor="#000000"
     borderopacity="0.25"
     inkscape:showpageshadow="2"
     inkscape:pageopacity="0.0"
     inkscape:pagecheckerboard="0"
     inkscape:deskcolor="#d1d1d1"
     inkscape:document-units="px"
     showgrid="false"
     inkscape:zoom="16.333333"
     inkscape:cx="23.969388"
     inkscape:cy="24"
     inkscape:window-width="1920"
     inkscape:window-height="1004"
     inkscape:window-x="0"
     inkscape:window-y="0"
     inkscape:window-maximized="1"
     inkscape:current-layer="svg371"
     showguides="true" /><defs
     id="defs368"><linearGradient
       inkscape:collect="always"
       xlink:href="#linearGradient2"
       id="linearGradient1564"
       x1="24"
       y1="46"
       x2="24"
       y2="2"
       gradientUnits="userSpaceOnUse" /><linearGradient
       id="linearGradient2"
       inkscape:collect="always"><stop
         style="stop-color:#fd7f01;stop-opacity:1;"
         offset="0"
         id="stop2" /><stop
         style="stop-color:#f8ae41;stop-opacity:1;"
         offset="1"
         id="stop3" /></linearGradient></defs><path
     d="M 2,24 C 2,7.5 7.5,2 24,2 40.5,2 46,7.5 46,24 46,40.5 40.5,46 24,46 7.5,46 2,40.5 2,24"
     style="fill:url(#linearGradient1564);fill-opacity:1;stroke-width:0.22"
     id="path311" /><path
     id="rect900"
     style="fill:#ffffff;stroke-width:4.2;stroke-linecap:round;stroke-linejoin:round"
     d="M 14 10 C 11.784002 10 10 11.784002 10 14 L 10 34 C 10 36.215998 11.784002 38 14 38 L 34 38 C 36.215998 38 38 36.215998 38 34 L 38 14 C 38 11.784002 36.215998 10 34 10 L 32 10 A 3 3 0 0 1 29 13 A 3 3 0 0 1 26 10 L 22 10 A 3 3 0 0 1 19 13 A 3 3 0 0 1 16 10 L 14 10 z " /><rect
     style="opacity:1;fill:#f47f08;fill-opacity:1"
     width="4"
     height="4"
     x="25"
     y="20"
     ry="1"
     id="rect3" /><rect
     style="opacity:1;fill:#f47f08;fill-opacity:1"
     width="4"
     height="4"
     x="31"
     y="26"
     ry="1"
     id="rect4" /><path
     id="path6"
     style="color:#000000;fill:#f47f08;stroke-linecap:round;stroke-linejoin:round;-inkscape-stroke:none;fill-opacity:1"
     d="M 28.955078 26.001953 A 0.5 0.5 0 0 0 28.615234 26.179688 L 26.466797 28.759766 L 25.853516 28.146484 A 0.5 0.5 0 0 0 25.146484 28.146484 A 0.5 0.5 0 0 0 25.146484 28.853516 L 26.146484 29.853516 A 0.50005 0.50005 0 0 0 26.884766 29.820312 L 29.384766 26.820312 A 0.5 0.5 0 0 0 29.320312 26.115234 A 0.5 0.5 0 0 0 28.955078 26.001953 z " /><rect
     style="fill:#f47f08;opacity:1;fill-opacity:1"
     width="4"
     height="4"
     x="31"
     y="20"
     ry="1"
     id="rect7" /><rect
     style="fill:#f47f08;opacity:1;fill-opacity:1"
     width="4"
     height="4"
     x="19"
     y="20"
     ry="1"
     id="rect8" /><rect
     style="fill:#f47f08;opacity:1;fill-opacity:1"
     width="4"
     height="4"
     x="19"
     y="26"
     ry="1"
     id="rect9" /><rect
     style="fill:#f47f08;opacity:1;fill-opacity:1"
     width="4"
     height="4"
     x="13"
     y="26"
     ry="1"
     id="rect10" /></svg>
