<?xml version="1.0" encoding="UTF-8" standalone="no"?>
<!-- Created with Inkscape (http://www.inkscape.org/) -->

<svg
   width="48"
   height="48"
   viewBox="0 0 48 48"
   version="1.1"
   id="svg371"
   xml:space="preserve"
   inkscape:version="1.2 (1:1.2.1+202207142221+cd75a1ee6d)"
   sodipodi:docname="org.gnome.Polari.svg"
   xmlns:inkscape="http://www.inkscape.org/namespaces/inkscape"
   xmlns:sodipodi="http://sodipodi.sourceforge.net/DTD/sodipodi-0.dtd"
   xmlns:xlink="http://www.w3.org/1999/xlink"
   xmlns="http://www.w3.org/2000/svg"
   xmlns:svg="http://www.w3.org/2000/svg"><sodipodi:namedview
     id="namedview373"
     pagecolor="#ffffff"
     bordercolor="#000000"
     borderopacity="0.25"
     inkscape:showpageshadow="2"
     inkscape:pageopacity="0.0"
     inkscape:pagecheckerboard="0"
     inkscape:deskcolor="#d1d1d1"
     inkscape:document-units="px"
     showgrid="false"
     inkscape:zoom="17.1875"
     inkscape:cx="23.970909"
     inkscape:cy="24.058182"
     inkscape:window-width="1920"
     inkscape:window-height="1018"
     inkscape:window-x="0"
     inkscape:window-y="28"
     inkscape:window-maximized="1"
     inkscape:current-layer="svg371"
     showguides="true" /><defs
     id="defs368"><linearGradient
       inkscape:collect="always"
       id="linearGradient1070"><stop
         style="stop-color:#1f9424;stop-opacity:1;"
         offset="0"
         id="stop1066" /><stop
         style="stop-color:#61b855;stop-opacity:1;"
         offset="1"
         id="stop1068" /></linearGradient><linearGradient
       inkscape:collect="always"
       xlink:href="#linearGradient1070"
       id="linearGradient3040"
       x1="32"
       y1="62"
       x2="32"
       y2="2"
       gradientUnits="userSpaceOnUse"
       gradientTransform="matrix(0.73333333,0,0,0.73333333,0.53333333,0.53333333)" /></defs><path
     d="M 2,24 C 2,7.5 7.5,2 24,2 40.5,2 46,7.5 46,24 46,40.5 40.5,46 24,46 7.5,46 2,40.5 2,24"
     style="fill:url(#linearGradient3040);fill-opacity:1.0;stroke-width:0.22"
     id="path311" /><path
     id="path921"
     style="opacity:1;fill:#ffffff;stroke-width:2.0494"
     d="M 24,9 A 16,14 0 0 0 8,23 16,14 0 0 0 13.353516,33.433594 C 13.053163,35.382802 12.633823,37.198912 12,39 c 1.919483,-1.169133 3.603385,-2.116785 5.189453,-3.34375 A 16,14 0 0 0 24,37 16,14 0 0 0 40,23 16,14 0 0 0 24,9 Z" /><path
     id="rect845"
     style="fill:#1e8522;fill-opacity:1"
     d="M 21 15 C 20.446002 15 20 15.446002 20 16 L 20 19 L 17 19 C 16.446002 19 16 19.446002 16 20 C 16 20.553998 16.446002 21 17 21 L 20 21 L 20 25 L 17 25 C 16.446002 25 16 25.446002 16 26 C 16 26.553998 16.446002 27 17 27 L 20 27 L 20 30 C 20 30.553998 20.446002 31 21 31 C 21.553998 31 22 30.553998 22 30 L 22 27 L 26 27 L 26 30 C 26 30.553998 26.446002 31 27 31 C 27.553998 31 28 30.553998 28 30 L 28 27 L 31 27 C 31.553998 27 32 26.553998 32 26 C 32 25.446002 31.553998 25 31 25 L 28 25 L 28 21 L 31 21 C 31.553998 21 32 20.553998 32 20 C 32 19.446002 31.553998 19 31 19 L 28 19 L 28 16 C 28 15.446002 27.553998 15 27 15 C 26.446002 15 26 15.446002 26 16 L 26 19 L 22 19 L 22 16 C 22 15.446002 21.553998 15 21 15 z M 22 21 L 26 21 L 26 25 L 22 25 L 22 21 z " /></svg>
