<?xml version="1.0" encoding="UTF-8" standalone="no"?>
<!-- Created with Inkscape (http://www.inkscape.org/) -->

<svg
   width="48"
   height="48"
   viewBox="0 0 48 48"
   version="1.1"
   id="svg371"
   xml:space="preserve"
   inkscape:version="1.2.1 (9c6d41e410, 2022-07-14, custom)"
   sodipodi:docname="preferences-system.svg"
   xmlns:inkscape="http://www.inkscape.org/namespaces/inkscape"
   xmlns:sodipodi="http://sodipodi.sourceforge.net/DTD/sodipodi-0.dtd"
   xmlns:xlink="http://www.w3.org/1999/xlink"
   xmlns="http://www.w3.org/2000/svg"
   xmlns:svg="http://www.w3.org/2000/svg"><sodipodi:namedview
     id="namedview373"
     pagecolor="#ffffff"
     bordercolor="#000000"
     borderopacity="0.25"
     inkscape:showpageshadow="2"
     inkscape:pageopacity="0.0"
     inkscape:pagecheckerboard="0"
     inkscape:deskcolor="#d1d1d1"
     inkscape:document-units="px"
     showgrid="false"
     inkscape:zoom="15.083333"
     inkscape:cx="23.966851"
     inkscape:cy="24"
     inkscape:window-width="1920"
     inkscape:window-height="947"
     inkscape:window-x="0"
     inkscape:window-y="0"
     inkscape:window-maximized="1"
     inkscape:current-layer="svg371"
     showguides="false" /><defs
     id="defs368"><linearGradient
       inkscape:collect="always"
       id="linearGradient3038"><stop
         style="stop-color:#3f495d;stop-opacity:1;"
         offset="0"
         id="stop3034" /><stop
         style="stop-color:#4f5b70;stop-opacity:1;"
         offset="1"
         id="stop3036" /></linearGradient><linearGradient
       inkscape:collect="always"
       xlink:href="#linearGradient3038"
       id="linearGradient3040"
       x1="32"
       y1="62"
       x2="32"
       y2="2"
       gradientUnits="userSpaceOnUse"
       gradientTransform="matrix(0.73333335,0,0,0.73333335,0.53333337,0.53333337)" /></defs><path
     d="M 2,24 C 2,7.5 7.5,2 24,2 40.5,2 46,7.5 46,24 46,40.5 40.5,46 24,46 7.5,46 2,40.5 2,24"
     style="fill:url(#linearGradient3040);fill-opacity:1;stroke-width:0.22"
     id="path311" /><path
     id="path235"
     style="fill:#ffffff;stroke-width:0.875"
     d="M 24 10 A 14 14 0 0 0 21.527344 10.246094 A 3 3 0 0 1 19.791016 13.837891 A 3 3 0 0 1 16.050781 12.507812 A 14 14 0 0 0 12.527344 16.025391 A 3 3 0 0 1 13.837891 19.791016 A 3 3 0 0 1 10.253906 21.494141 A 14 14 0 0 0 10 24 A 14 14 0 0 0 10.251953 26.496094 A 3 3 0 0 1 10.673828 26.382812 A 3 3 0 0 1 13.837891 28.208984 A 3 3 0 0 1 12.527344 31.974609 A 14 14 0 0 0 16.044922 35.486328 A 3 3 0 0 1 18.25 33.960938 A 3 3 0 0 1 19.791016 34.162109 A 3 3 0 0 1 21.527344 37.753906 A 14 14 0 0 0 24 38 A 14 14 0 0 0 26.505859 37.746094 A 3 3 0 0 1 28.208984 34.162109 A 3 3 0 0 1 28.966797 33.960938 A 3 3 0 0 1 31.947266 35.494141 A 14 14 0 0 0 35.492188 31.949219 A 3 3 0 0 1 34.162109 28.208984 A 3 3 0 0 1 36.542969 26.382812 A 3 3 0 0 1 37.748047 26.496094 A 14 14 0 0 0 38 24 A 14 14 0 0 0 37.769531 21.488281 A 3 3 0 0 1 34.162109 19.791016 A 3 3 0 0 1 35.511719 16.039062 A 14 14 0 0 0 31.960938 12.488281 A 3 3 0 0 1 28.208984 13.837891 A 3 3 0 0 1 26.511719 10.230469 A 14 14 0 0 0 24 10 z " /><circle
     style="fill:#3c4862;fill-opacity:1;stroke-width:1.16667"
     id="path686"
     cx="24"
     cy="24"
     r="7" /></svg>
