<?xml version="1.0" encoding="UTF-8" standalone="no"?>
<!-- Created with Inkscape (http://www.inkscape.org/) -->

<svg
   width="48"
   height="48"
   viewBox="0 0 48 48"
   version="1.1"
   id="svg371"
   xml:space="preserve"
   inkscape:version="1.3 (0e150ed6c4, 2023-07-21)"
   sodipodi:docname="system-software-install.svg"
   xmlns:inkscape="http://www.inkscape.org/namespaces/inkscape"
   xmlns:sodipodi="http://sodipodi.sourceforge.net/DTD/sodipodi-0.dtd"
   xmlns:xlink="http://www.w3.org/1999/xlink"
   xmlns="http://www.w3.org/2000/svg"
   xmlns:svg="http://www.w3.org/2000/svg"><sodipodi:namedview
     id="namedview373"
     pagecolor="#ffffff"
     bordercolor="#000000"
     borderopacity="0.25"
     inkscape:showpageshadow="2"
     inkscape:pageopacity="0.0"
     inkscape:pagecheckerboard="0"
     inkscape:deskcolor="#d1d1d1"
     inkscape:document-units="px"
     showgrid="false"
     inkscape:zoom="16.3125"
     inkscape:cx="23.969349"
     inkscape:cy="24"
     inkscape:window-width="1920"
     inkscape:window-height="984"
     inkscape:window-x="0"
     inkscape:window-y="29"
     inkscape:window-maximized="1"
     inkscape:current-layer="svg371"
     showguides="true" /><defs
     id="defs368"><linearGradient
       inkscape:collect="always"
       id="linearGradient1349"><stop
         style="stop-color:#ef3b00;stop-opacity:1;"
         offset="0"
         id="stop1345" /><stop
         style="stop-color:#fe2794;stop-opacity:1;"
         offset="1"
         id="stop1347" /></linearGradient><linearGradient
       inkscape:collect="always"
       xlink:href="#linearGradient1349"
       id="linearGradient3040"
       x1="62"
       y1="62"
       x2="17.700407"
       y2="7.6766477"
       gradientUnits="userSpaceOnUse"
       gradientTransform="matrix(0.73333335,0,0,0.73333335,0.53333337,0.53333337)" /></defs><path
     d="M 2,24 C 2,7.5 7.5,2 24,2 40.5,2 46,7.5 46,24 46,40.5 40.5,46 24,46 7.5,46 2,40.5 2,24"
     style="fill:url(#linearGradient3040);fill-opacity:1;stroke-width:0.22"
     id="path311" /><path
     id="rect1"
     style="opacity:1;fill:#ffffff;stroke-linecap:round;stroke-linejoin:round"
     d="M 13.5 10 C 11.561002 10 10 11.561002 10 13.5 L 10 18.5 C 10 20.438998 11.561002 22 13.5 22 L 18.5 22 C 20.438998 22 22 20.438998 22 18.5 L 22 13.5 C 22 11.561002 20.438998 10 18.5 10 L 13.5 10 z M 29.5 10 C 27.561002 10 26 11.561002 26 13.5 L 26 18.5 C 26 20.438998 27.561002 22 29.5 22 L 34.5 22 C 36.438998 22 38 20.438998 38 18.5 L 38 13.5 C 38 11.561002 36.438998 10 34.5 10 L 29.5 10 z M 13.5 26 C 11.561002 26 10 27.561002 10 29.5 L 10 34.5 C 10 36.438998 11.561002 38 13.5 38 L 18.5 38 C 20.438998 38 22 36.438998 22 34.5 L 22 29.5 C 22 27.561002 20.438998 26 18.5 26 L 13.5 26 z " /><path
     id="rect2"
     style="opacity:0.6;fill:#ffffff;stroke-linecap:round;stroke-linejoin:round"
     d="M 32 26 C 30.892001 26 30 26.892001 30 28 L 30 32 L 26 32 L 32 38 L 38 32 L 34 32 L 34 28 C 34 26.892001 33.107999 26 32 26 z " /></svg>
