<?xml version="1.0" encoding="UTF-8" standalone="no"?>
<!-- Created with Inkscape (http://www.inkscape.org/) -->

<svg
   width="48"
   height="48"
   viewBox="0 0 48 48"
   version="1.1"
   id="svg371"
   xml:space="preserve"
   inkscape:version="1.3.2 (091e20ef0f, 2023-11-25, custom)"
   sodipodi:docname="telegram.svg"
   xmlns:inkscape="http://www.inkscape.org/namespaces/inkscape"
   xmlns:sodipodi="http://sodipodi.sourceforge.net/DTD/sodipodi-0.dtd"
   xmlns:xlink="http://www.w3.org/1999/xlink"
   xmlns="http://www.w3.org/2000/svg"
   xmlns:svg="http://www.w3.org/2000/svg"><sodipodi:namedview
     id="namedview373"
     pagecolor="#ffffff"
     bordercolor="#000000"
     borderopacity="0.25"
     inkscape:showpageshadow="2"
     inkscape:pageopacity="0.0"
     inkscape:pagecheckerboard="0"
     inkscape:deskcolor="#d1d1d1"
     inkscape:document-units="px"
     showgrid="false"
     inkscape:zoom="16.5625"
     inkscape:cx="23.969811"
     inkscape:cy="24"
     inkscape:window-width="1920"
     inkscape:window-height="1008"
     inkscape:window-x="0"
     inkscape:window-y="0"
     inkscape:window-maximized="1"
     inkscape:current-layer="svg371"
     showguides="false" /><defs
     id="defs368"><linearGradient
       inkscape:collect="always"
       xlink:href="#linearGradient1595"
       id="linearGradient3040"
       x1="32"
       y1="62"
       x2="32"
       y2="2"
       gradientUnits="userSpaceOnUse"
       gradientTransform="matrix(0.73333333,0,0,0.73333333,0.53333333,0.53333333)" /><linearGradient
       inkscape:collect="always"
       id="linearGradient1595"><stop
         style="stop-color:#1d9ad8;stop-opacity:1"
         offset="0"
         id="stop1591" /><stop
         style="stop-color:#3cacde;stop-opacity:1"
         offset="1"
         id="stop1593" /></linearGradient></defs><path
     d="M 2,24 C 2,7.5 7.5,2 24,2 40.5,2 46,7.5 46,24 46,40.5 40.5,46 24,46 7.5,46 2,40.5 2,24"
     style="fill:url(#linearGradient3040);fill-opacity:1;stroke-width:0.22"
     id="path311" /><path
     id="path10"
     style="fill:#ffffff;stroke-width:1.59765"
     d="m 36.010186,13.000976 c -0.595888,0.01712 -1.300944,0.256253 -1.98526,0.486528 -4.477157,1.511982 -18.633444,7.63981 -22.507876,9.66157 -0.953726,0.395349 -1.364072,1.067758 -0.670023,1.647928 0.597504,0.491783 2.784093,1.169031 4.547481,1.512956 1.503235,0.454815 2.66878,0.01896 3.747172,-0.590117 2.590372,-1.534801 10.308981,-6.418947 10.723509,-6.692157 0.416106,-0.271603 0.87088,0.232829 0.639,0.477113 -0.231875,0.245889 -5.696579,5.147662 -7.491251,7.363885 -0.951335,1.218198 -0.924015,1.86848 0.05283,2.636687 2.191727,1.718014 8.046237,5.636661 8.918162,5.872908 1.110156,0.302132 1.76179,0.05108 2.230312,-0.856923 0.427149,-0.83088 2.887361,-15.020018 3.238355,-18.68908 0.238252,-2.271567 -0.449237,-2.859814 -1.442406,-2.831298 z" /></svg>
