<?xml version="1.0" encoding="UTF-8" standalone="no"?>
<!-- Created with Inkscape (http://www.inkscape.org/) -->

<svg
   width="48"
   height="48"
   viewBox="0 0 48 48"
   version="1.1"
   id="svg371"
   xml:space="preserve"
   inkscape:version="1.2.2 (1:1.2.2+202305151914+b0a8486541)"
   sodipodi:docname="utilities-log-viewer.svg"
   xmlns:inkscape="http://www.inkscape.org/namespaces/inkscape"
   xmlns:sodipodi="http://sodipodi.sourceforge.net/DTD/sodipodi-0.dtd"
   xmlns:xlink="http://www.w3.org/1999/xlink"
   xmlns="http://www.w3.org/2000/svg"
   xmlns:svg="http://www.w3.org/2000/svg"><sodipodi:namedview
     id="namedview373"
     pagecolor="#ffffff"
     bordercolor="#000000"
     borderopacity="0.25"
     inkscape:showpageshadow="2"
     inkscape:pageopacity="0.0"
     inkscape:pagecheckerboard="0"
     inkscape:deskcolor="#d1d1d1"
     inkscape:document-units="px"
     showgrid="false"
     inkscape:zoom="16.791667"
     inkscape:cx="23.970223"
     inkscape:cy="24"
     inkscape:window-width="1920"
     inkscape:window-height="1008"
     inkscape:window-x="0"
     inkscape:window-y="0"
     inkscape:window-maximized="1"
     inkscape:current-layer="svg371"
     showguides="false"
     inkscape:lockguides="true" /><defs
     id="defs368"><linearGradient
       inkscape:collect="always"
       id="linearGradient3038"><stop
         style="stop-color:#3f495d;stop-opacity:1;"
         offset="0"
         id="stop3034" /><stop
         style="stop-color:#4f5b70;stop-opacity:1;"
         offset="1"
         id="stop3036" /></linearGradient><linearGradient
       inkscape:collect="always"
       xlink:href="#linearGradient3038"
       id="linearGradient1409"
       x1="24"
       y1="46"
       x2="24"
       y2="2"
       gradientUnits="userSpaceOnUse" /></defs><path
     d="M 2,24 C 2,7.5 7.5,2 24,2 40.5,2 46,7.5 46,24 46,40.5 40.5,46 24,46 7.5,46 2,40.5 2,24"
     style="fill:url(#linearGradient1409);fill-opacity:1;stroke-width:0.22"
     id="path311" /><path
     id="path950"
     style="fill:#ffffff;fill-opacity:1;stroke-width:3.15;stroke-linecap:round;stroke-linejoin:round"
     d="M 19.5,9 C 13.70101,9 9,13.70101 9,19.5 9,25.29899 13.70101,30 19.5,30 c 2.261857,-0.0097 4.460116,-0.749532 6.267578,-2.109375 l 9.302734,9.302734 c 0.587606,0.587606 1.535443,0.587606 2.123047,0 0.587606,-0.587604 0.587606,-1.535441 0,-2.123047 L 27.890625,25.767578 C 29.250468,23.960116 29.9903,21.761857 30,19.5 30,13.70101 25.29899,9 19.5,9 Z"
     sodipodi:nodetypes="ssccsssccs" /><path
     d="m 14,14 c -0.553999,0 -1,0.446001 -1,1 0,0.553999 0.446001,1 1,1 h 11 c 0.553999,0 1,-0.446001 1,-1 0,-0.553999 -0.446001,-1 -1,-1 z m 0,4 c -0.553999,0 -1,0.446001 -1,1 0,0.553999 0.446001,1 1,1 h 11 c 0.553999,0 1,-0.446001 1,-1 0,-0.553999 -0.446001,-1 -1,-1 z m 0,4 c -0.553999,0 -1,0.446001 -1,1 0,0.553999 0.446001,1 1,1 h 5.999999 c 0.554,0 1,-0.446001 1,-1 0,-0.553999 -0.446,-1 -1,-1 z"
     style="fill:#3c4862;fill-opacity:1;stroke-width:2;stroke-linecap:round"
     id="path299"
     sodipodi:nodetypes="sssssssssssssssssssss" /></svg>
