<?xml version="1.0" encoding="UTF-8" standalone="no"?>
<!-- Created with Inkscape (http://www.inkscape.org/) -->

<svg
   width="48"
   height="48"
   viewBox="0 0 48 48"
   version="1.1"
   id="svg371"
   xml:space="preserve"
   inkscape:version="1.2.1 (9c6d41e410, 2022-07-14, custom)"
   sodipodi:docname="vim.svg"
   xmlns:inkscape="http://www.inkscape.org/namespaces/inkscape"
   xmlns:sodipodi="http://sodipodi.sourceforge.net/DTD/sodipodi-0.dtd"
   xmlns:xlink="http://www.w3.org/1999/xlink"
   xmlns="http://www.w3.org/2000/svg"
   xmlns:svg="http://www.w3.org/2000/svg"><sodipodi:namedview
     id="namedview373"
     pagecolor="#ffffff"
     bordercolor="#000000"
     borderopacity="0.25"
     inkscape:showpageshadow="2"
     inkscape:pageopacity="0.0"
     inkscape:pagecheckerboard="0"
     inkscape:deskcolor="#d1d1d1"
     inkscape:document-units="px"
     showgrid="false"
     inkscape:zoom="15.083333"
     inkscape:cx="23.966851"
     inkscape:cy="24"
     inkscape:window-width="1920"
     inkscape:window-height="947"
     inkscape:window-x="0"
     inkscape:window-y="0"
     inkscape:window-maximized="1"
     inkscape:current-layer="svg371"
     showguides="false" /><defs
     id="defs368"><linearGradient
       inkscape:collect="always"
       id="linearGradient1034"><stop
         style="stop-color:#51c251;stop-opacity:1;"
         offset="0"
         id="stop1030" /><stop
         style="stop-color:#6fcd6f;stop-opacity:1;"
         offset="1"
         id="stop1032" /></linearGradient><linearGradient
       inkscape:collect="always"
       xlink:href="#linearGradient1034"
       id="linearGradient1036"
       x1="32"
       y1="62"
       x2="32"
       y2="2"
       gradientUnits="userSpaceOnUse"
       gradientTransform="matrix(0.73333333,0,0,0.73333333,0.53333333,0.53333333)" /></defs><path
     d="M 2,24 C 2,7.5 7.5,2 24,2 40.5,2 46,7.5 46,24 46,40.5 40.5,46 24,46 7.5,46 2,40.5 2,24"
     style="fill:url(#linearGradient1036);fill-opacity:1;stroke-width:0.22"
     id="path311" /><rect
     style="opacity:0.5;fill:#ffffff;stroke:none;stroke-width:6;stroke-linecap:square;stroke-linejoin:miter;stroke-dasharray:none;stroke-opacity:1;paint-order:stroke fill markers"
     id="rect4147"
     width="24"
     height="24"
     x="21.941126"
     y="-12"
     ry="3"
     transform="rotate(45)" /><path
     id="rect898"
     style="fill:#ffffff;stroke:none;stroke-width:2.25;stroke-linecap:round;stroke-linejoin:round;paint-order:stroke fill markers"
     d="m 12.500003,14.000001 c -0.830998,0 -1.5,0.669002 -1.5,1.5 0,0.830998 0.669002,1.5 1.5,1.5 h 1.75 v 0.375 16.874847 c 0.0023,2.049383 2.521153,3.029175 3.908203,1.520508 L 35.396487,16.704102 c 0.366918,-0.27294 0.603516,-0.709634 0.603516,-1.204101 0,-0.830998 -0.669002,-1.5 -1.5,-1.5 h -6 c -0.830999,0 -1.5,0.669002 -1.5,1.5 0,0.830998 0.669001,1.5 1.5,1.5 h 0.457032 L 18.750003,28.466644 v -11.091643 -0.375 h 0.75 c 0.830998,0 1.5,-0.669002 1.5,-1.5 0,-0.830998 -0.669002,-1.5 -1.5,-1.5 z"
     sodipodi:nodetypes="ssscccccsssssccccssss" /></svg>
