<?xml version="1.0" encoding="UTF-8" standalone="no"?>
<!-- Created with Inkscape (http://www.inkscape.org/) -->

<svg
   width="48"
   height="48"
   viewBox="0 0 48 48"
   version="1.1"
   id="svg371"
   xml:space="preserve"
   inkscape:version="1.3.2 (091e20ef0f, 2023-11-25, custom)"
   sodipodi:docname="vlc.svg"
   xmlns:inkscape="http://www.inkscape.org/namespaces/inkscape"
   xmlns:sodipodi="http://sodipodi.sourceforge.net/DTD/sodipodi-0.dtd"
   xmlns:xlink="http://www.w3.org/1999/xlink"
   xmlns="http://www.w3.org/2000/svg"
   xmlns:svg="http://www.w3.org/2000/svg"><sodipodi:namedview
     id="namedview373"
     pagecolor="#ffffff"
     bordercolor="#000000"
     borderopacity="0.25"
     inkscape:showpageshadow="2"
     inkscape:pageopacity="0.0"
     inkscape:pagecheckerboard="0"
     inkscape:deskcolor="#d1d1d1"
     inkscape:document-units="px"
     showgrid="false"
     inkscape:zoom="16.5625"
     inkscape:cx="23.969811"
     inkscape:cy="24"
     inkscape:window-width="1920"
     inkscape:window-height="1008"
     inkscape:window-x="0"
     inkscape:window-y="0"
     inkscape:window-maximized="1"
     inkscape:current-layer="svg371"
     showguides="false" /><defs
     id="defs368"><linearGradient
       inkscape:collect="always"
       xlink:href="#linearGradient2"
       id="linearGradient3040"
       x1="32"
       y1="62"
       x2="32"
       y2="2"
       gradientUnits="userSpaceOnUse"
       gradientTransform="matrix(0.73333333,0,0,0.73333333,0.53333333,0.53333333)" /><linearGradient
       inkscape:collect="always"
       id="linearGradient2"><stop
         style="stop-color:#ff8111;stop-opacity:1;"
         offset="0"
         id="stop1" /><stop
         style="stop-color:#ffae22;stop-opacity:1;"
         offset="1"
         id="stop2" /></linearGradient></defs><path
     d="M 2,24 C 2,7.5 7.5,2 24,2 40.5,2 46,7.5 46,24 46,40.5 40.5,46 24,46 7.5,46 2,40.5 2,24"
     style="fill:url(#linearGradient3040);fill-opacity:1;stroke-width:0.22"
     id="path311" /><path
     d="m 24.002706,9.00035 c -0.68099,-0.0076 -1.37654,0.108088 -2.06248,0.383785 -0.42509,0.170847 -0.74606,0.527291 -0.87596,0.966785 l -1.37987,4.661079 c 1.0174,0.737732 2.7007,1.101399 4.31537,1.113093 1.66669,0.012 3.26537,-0.351597 4.31539,-1.113093 l -1.37987,-4.661079 c -0.13649,-0.465143 -0.49022,-0.835505 -0.9492,-0.993153 -0.6345,-0.218846 -1.30239,-0.349917 -1.98338,-0.357417 z m -6.09368,12.008649 -1.77537,5.997 c 2.41321,1.342994 5.17172,1.885695 7.86611,1.868945 2.74283,-0.01705 5.42151,-0.616709 7.86613,-1.868945 l -1.77537,-5.997 c -4.12284,1.639775 -7.59007,2.06142 -12.1815,0 z m 13.95687,5.997 1.06639,3.609333 c 0.19223,0.649942 -0.0758,1.347353 -0.65331,1.702129 -2.35317,1.444464 -5.29215,2.153957 -8.27921,2.182591 -2.98676,0.0285 -6.0448,-0.618189 -8.35536,-2.229466 -0.5291,-0.36919 -0.76292,-1.036482 -0.58007,-1.655254 l 1.06932,-3.609333 h -1.87791 c -0.60504,1.42e-4 -1.15289,0.364368 -1.38572,0.922841 L 9.1229959,36.922875 C 8.7114759,37.909864 9.4361559,39 10.505796,39 h 26.98796 c 1.06969,-3.37e-4 1.79427,-1.089656 1.3828,-2.077125 l -3.74703,-8.994035 c -0.23284,-0.558458 -0.78072,-0.922691 -1.38572,-0.922841 z"
     id="path3767"
     style="fill:#ffffff;stroke-width:1.49998"
     sodipodi:nodetypes="ccccsccccccscccccccccccccsccccc" /></svg>
