<?xml version="1.0" encoding="UTF-8" standalone="no"?>
<!-- Created with Inkscape (http://www.inkscape.org/) -->

<svg
   width="48"
   height="48"
   viewBox="0 0 48 48"
   version="1.1"
   id="svg371"
   xml:space="preserve"
   inkscape:version="1.2.2 (1:1.2.2+202305151914+b0a8486541)"
   sodipodi:docname="weather-app.svg"
   xmlns:inkscape="http://www.inkscape.org/namespaces/inkscape"
   xmlns:sodipodi="http://sodipodi.sourceforge.net/DTD/sodipodi-0.dtd"
   xmlns:xlink="http://www.w3.org/1999/xlink"
   xmlns="http://www.w3.org/2000/svg"
   xmlns:svg="http://www.w3.org/2000/svg"><sodipodi:namedview
     id="namedview373"
     pagecolor="#ffffff"
     bordercolor="#000000"
     borderopacity="0.25"
     inkscape:showpageshadow="2"
     inkscape:pageopacity="0.0"
     inkscape:pagecheckerboard="0"
     inkscape:deskcolor="#d1d1d1"
     inkscape:document-units="px"
     showgrid="false"
     inkscape:zoom="16.791667"
     inkscape:cx="24"
     inkscape:cy="24"
     inkscape:window-width="1920"
     inkscape:window-height="1008"
     inkscape:window-x="0"
     inkscape:window-y="0"
     inkscape:window-maximized="1"
     inkscape:current-layer="svg371"
     showguides="false" /><defs
     id="defs368"><linearGradient
       inkscape:collect="always"
       id="linearGradient1846"><stop
         style="stop-color:#358ff8;stop-opacity:1;"
         offset="0"
         id="stop1842" /><stop
         style="stop-color:#61b0f8;stop-opacity:1;"
         offset="1"
         id="stop1844" /></linearGradient><linearGradient
       inkscape:collect="always"
       xlink:href="#linearGradient1846"
       id="linearGradient1505"
       x1="32"
       y1="62"
       x2="32"
       y2="2"
       gradientUnits="userSpaceOnUse"
       gradientTransform="matrix(0.73333333,0,0,0.73333333,0.53333333,0.53333333)" /></defs><path
     d="M 2,24 C 2,7.5 7.5,2 24,2 40.5,2 46,7.5 46,24 46,40.5 40.5,46 24,46 7.5,46 2,40.5 2,24"
     style="fill:url(#linearGradient1505);fill-opacity:1;stroke-width:0.22"
     id="path311" /><path
     id="path1965"
     style="fill:#fdbb1c;fill-opacity:1;stroke-width:2;stroke-linecap:round;stroke-linejoin:round"
     d="m 28.09375,9.3769531 c -0.06643,0.00405 -0.132329,0.013327 -0.199219,0.03125 C 27.35941,9.5515885 27.044115,10.097691 27.1875,10.632812 l 0.257812,0.966797 c 0.143385,0.535122 0.689488,0.850415 1.22461,0.707032 0.535121,-0.143385 0.850416,-0.689488 0.707031,-1.22461 L 29.119141,10.115234 C 28.993682,9.6470028 28.558754,9.348576 28.09375,9.3769531 Z m 5.8125,0 C 33.441246,9.3485762 33.006318,9.647003 32.880859,10.115234 l -0.257812,0.966797 c -0.143385,0.535122 0.17191,1.081225 0.707031,1.22461 0.535122,0.143383 1.081225,-0.17191 1.22461,-0.707032 L 34.8125,10.632812 C 34.955885,10.097691 34.64059,9.5515879 34.105469,9.4082031 34.038579,9.39028 33.972679,9.381007 33.90625,9.3769531 Z M 23.222656,12.220703 c -0.255618,0 -0.511165,0.09905 -0.707031,0.294922 -0.391738,0.391737 -0.391737,1.022323 0,1.414063 l 0.707031,0.707031 c 0.391737,0.391734 1.022321,0.391738 1.414063,0 0.391735,-0.391738 0.391734,-1.022326 0,-1.414063 l -0.707031,-0.707031 c -0.195869,-0.195868 -0.451412,-0.294922 -0.707032,-0.294922 z m 15.556641,0 c -0.255619,0 -0.511166,0.09905 -0.707031,0.294922 l -0.707032,0.707031 c -0.391732,0.391737 -0.391737,1.022326 0,1.414063 0.391735,0.391733 1.022327,0.391735 1.414063,0 l 0.707031,-0.707031 c 0.391737,-0.391738 0.391737,-1.022327 0,-1.414063 -0.195868,-0.195868 -0.451412,-0.294922 -0.707031,-0.294922 z M 31,14 c -3.865989,0 -7,3.134011 -7,7 0,3.865989 3.134011,7 7,7 3.865989,0 7,-3.134011 7,-7 0,-3.865989 -3.134011,-7 -7,-7 z m 10.566406,3.154297 c -0.06643,0.0041 -0.13233,0.01528 -0.199218,0.0332 l -0.966797,0.257812 c -0.535114,0.143387 -0.850418,0.689488 -0.707032,1.22461 0.143386,0.535112 0.689488,0.850417 1.22461,0.707031 l 0.966797,-0.257812 c 0.535123,-0.143385 0.850418,-0.68949 0.707031,-1.22461 -0.125464,-0.468224 -0.56039,-0.768613 -1.025391,-0.740234 z m -0.849609,5.435547 c -0.465003,-0.02838 -0.897975,0.272011 -1.023438,0.740234 -0.143386,0.535122 0.171918,1.081223 0.707032,1.22461 l 0.966797,0.257812 c 0.535117,0.143391 1.081222,-0.171918 1.224609,-0.707031 0.143387,-0.53512 -0.171908,-1.081225 -0.707031,-1.22461 l -0.966797,-0.257812 c -0.06689,-0.01792 -0.134743,-0.02915 -0.201172,-0.0332 z"
     sodipodi:nodetypes="ssccsccssccsccssssssssssscssssssssssssccsccssssccsccs" /><path
     id="path1162"
     style="fill:#ffffff;stroke-width:3.11112;stroke-linecap:round;stroke-linejoin:round"
     d="M 19,15 A 11,11 0 0 0 8,26 11,11 0 0 0 19,37 h 14 c 3.877993,0 7,-3.122008 7,-7 0,-3.877993 -3.122007,-7 -7,-7 H 29.578125 A 11,11 0 0 0 19,15 Z" /></svg>
