<?xml version="1.0" encoding="UTF-8" standalone="no"?>
<!-- Created with Inkscape (http://www.inkscape.org/) -->

<svg
   width="48"
   height="48"
   viewBox="0 0 48 48"
   version="1.1"
   id="svg371"
   xml:space="preserve"
   inkscape:version="1.2.2 (1:1.2.2+202212051552+b0a8486541)"
   sodipodi:docname="xorg.svg"
   xmlns:inkscape="http://www.inkscape.org/namespaces/inkscape"
   xmlns:sodipodi="http://sodipodi.sourceforge.net/DTD/sodipodi-0.dtd"
   xmlns:xlink="http://www.w3.org/1999/xlink"
   xmlns="http://www.w3.org/2000/svg"
   xmlns:svg="http://www.w3.org/2000/svg"><sodipodi:namedview
     id="namedview373"
     pagecolor="#ffffff"
     bordercolor="#000000"
     borderopacity="0.25"
     inkscape:showpageshadow="2"
     inkscape:pageopacity="0.0"
     inkscape:pagecheckerboard="0"
     inkscape:deskcolor="#d1d1d1"
     inkscape:document-units="px"
     showgrid="false"
     inkscape:zoom="16.875"
     inkscape:cx="23.97037"
     inkscape:cy="24"
     inkscape:window-width="1920"
     inkscape:window-height="1012"
     inkscape:window-x="0"
     inkscape:window-y="0"
     inkscape:window-maximized="1"
     inkscape:current-layer="svg371"
     showguides="false" /><defs
     id="defs368"><linearGradient
       inkscape:collect="always"
       id="linearGradient2587"><stop
         style="stop-color:#d3d3d3;stop-opacity:1;"
         offset="0"
         id="stop2583" /><stop
         style="stop-color:#e9e9e9;stop-opacity:1;"
         offset="1"
         id="stop2585" /></linearGradient><linearGradient
       inkscape:collect="always"
       xlink:href="#linearGradient2587"
       id="linearGradient3213"
       x1="24"
       y1="46"
       x2="24"
       y2="2"
       gradientUnits="userSpaceOnUse" /><linearGradient
       inkscape:collect="always"
       xlink:href="#linearGradient3678"
       id="linearGradient3680"
       x1="11.2"
       y1="21.507999"
       x2="52.799999"
       y2="48.809299"
       gradientUnits="userSpaceOnUse"
       gradientTransform="matrix(0.80582248,0,0,0.80582248,-1.7752117,-2.3316282)" /><linearGradient
       inkscape:collect="always"
       id="linearGradient3678"><stop
         style="stop-color:#ec6e28;stop-opacity:1;"
         offset="0"
         id="stop3674" /><stop
         style="stop-color:#f3bf21;stop-opacity:1;"
         offset="1"
         id="stop3676" /></linearGradient></defs><path
     d="M 2,24 C 2,7.5 7.5,2 24,2 40.5,2 46,7.5 46,24 46,40.5 40.5,46 24,46 7.5,46 2,40.5 2,24"
     style="fill:url(#linearGradient3213);fill-opacity:1;stroke-width:0.22"
     id="path311" /><path
     d="m 11,11 10,13.683595 -9,12.316407 h 2 L 25.5,21.263673 18,11 Z M 34,11 22.5,26.736329 30,37.000002 h 7 L 27,23.316407 36,11 Z"
     style="fill:#373a3d;stroke-width:2.03851"
     id="path1543" /><path
     id="path3649"
     style="fill:url(#linearGradient3680);fill-opacity:1;stroke-width:0.805823"
     d="m 24.009766,15.000001 c -0.818152,0 -1.69179,0.06233 -2.478516,0.136719 1.401646,1.806007 2.565505,3.336303 3.904297,5.074219 -0.751107,-1.59754 -2.296884,-3.130199 -1.763672,-3.917969 0.529021,-0.779392 1.503748,-0.648438 1.578125,-0.648438 1.560876,0 3.063959,0.174492 4.46875,0.496094 l 0.328125,-0.447266 c -1.8741,-0.476645 -3.908451,-0.693359 -6.037109,-0.693359 z m 8.455078,1.458984 -0.302735,0.425782 c 4.328551,1.675061 7.25586,4.874669 7.25586,8.539062 0,5.398118 -6.346824,9.777344 -14.167969,9.777344 -7.821142,0 -14.171875,-4.379226 -14.171875,-9.777344 0,-2.758531 1.658597,-5.252477 4.324219,-7.03125 L 14.363281,16.970704 C 10.062413,18.966601 7.25,22.254187 7.25,25.976563 c 0,6.085321 7.509596,11.023438 16.761719,11.023438 9.251074,0 16.759765,-4.935256 16.759765,-11.019531 0,-4.058278 -3.338023,-7.607577 -8.30664,-9.521485 z" /></svg>
