<?xml version="1.0" encoding="UTF-8" standalone="no"?>
<!-- Created with Inkscape (http://www.inkscape.org/) -->

<svg
   width="32"
   height="32"
   viewBox="0 0 32 32"
   version="1.1"
   id="svg371"
   xml:space="preserve"
   inkscape:version="1.2.2 (1:1.2.2+202305151914+b0a8486541)"
   sodipodi:docname="folder-default-recent.svg"
   xmlns:inkscape="http://www.inkscape.org/namespaces/inkscape"
   xmlns:sodipodi="http://sodipodi.sourceforge.net/DTD/sodipodi-0.dtd"
   xmlns:xlink="http://www.w3.org/1999/xlink"
   xmlns="http://www.w3.org/2000/svg"
   xmlns:svg="http://www.w3.org/2000/svg"><sodipodi:namedview
     id="namedview373"
     pagecolor="#ffffff"
     bordercolor="#000000"
     borderopacity="0.25"
     inkscape:showpageshadow="2"
     inkscape:pageopacity="0.0"
     inkscape:pagecheckerboard="0"
     inkscape:deskcolor="#d1d1d1"
     inkscape:document-units="px"
     showgrid="false"
     inkscape:zoom="25.1875"
     inkscape:cx="16"
     inkscape:cy="16"
     inkscape:window-width="1920"
     inkscape:window-height="1008"
     inkscape:window-x="0"
     inkscape:window-y="0"
     inkscape:window-maximized="1"
     inkscape:current-layer="svg371"
     showguides="false" /><defs
     id="defs368"><linearGradient
       inkscape:collect="always"
       xlink:href="#linearGradient1836"
       id="linearGradient3251"
       x1="16"
       y1="31"
       x2="16"
       y2="1"
       gradientUnits="userSpaceOnUse" /><linearGradient
       inkscape:collect="always"
       id="linearGradient1836"><stop
         style="stop-color:#f69000;stop-opacity:1;"
         offset="0"
         id="stop1832" /><stop
         style="stop-color:#f9a900;stop-opacity:1;"
         offset="1"
         id="stop1834" /></linearGradient></defs><path
     d="M 1,16 C 1,4.75 4.75,1 16,1 27.25,1 31,4.75 31,16 31,27.25 27.25,31 16,31 4.75,31 1,27.25 1,16"
     style="fill:url(#linearGradient3251);fill-opacity:1;stroke-width:0.15"
     id="path311" /><path
     d="M 7.5,7 C 6.669,7 6,7.669 6,8.5 V 16 h 11 v -4 c -0.552285,0 -1,-0.447716 -1,-1 V 8.5 C 16,7.669 15.331,7 14.5,7 Z"
     style="opacity:1;fill:#ffdea2;fill-opacity:1;stroke-width:2;stroke-linecap:round;stroke-linejoin:round"
     id="path294"
     sodipodi:nodetypes="sscccssss" /><rect
     style="fill:#ffffff;fill-opacity:1;stroke-width:0.71439;opacity:0.99"
     id="rect556"
     width="20"
     height="15"
     x="6"
     y="10"
     ry="2" /><path
     d="M 15.5,13 C 13.014721,13 11,15.014721 11,17.5 11,19.985279 13.014721,22 15.5,22 17.985279,22 20,19.985279 20,17.5 20,15.014721 17.985279,13 15.5,13 Z m 0,1 c 0.276999,0 0.5,0.223001 0.5,0.5 v 2.791992 l 1.475515,1.476492 c 0.195868,0.195868 0.195868,0.511163 0,0.707031 -0.195868,0.195868 -0.511162,0.19587 -0.707031,0 l -1.621999,-1.622 c -0.01141,-0.01141 -0.02215,-0.02298 -0.03223,-0.03516 -7.5e-4,-8.99e-4 -0.0012,-0.002 -0.002,-0.0029 -0.01944,-0.02391 -0.03696,-0.04984 -0.05176,-0.07715 -10e-4,-0.0019 -0.0019,-0.0039 -0.003,-0.0059 -0.0076,-0.01441 -0.01435,-0.02874 -0.02051,-0.04395 -0.0052,-0.01285 -0.01053,-0.0259 -0.01465,-0.03907 -4.79e-4,-0.0015 -5e-4,-0.0033 -10e-4,-0.0049 -0.002,-0.0065 -0.0042,-0.01296 -0.0059,-0.01953 -0.0022,-0.0086 -0.0041,-0.01761 -0.0059,-0.02636 -0.0031,-0.01574 -0.0052,-0.03193 -0.0068,-0.04785 -0.0017,-0.01688 -0.0029,-0.03377 -0.0029,-0.05075 V 14.5 c 0,-0.276999 0.223001,-0.5 0.5,-0.5 z"
     style="fill:#e38300;fill-opacity:1;stroke-width:0.9;stroke-linecap:round;stroke-linejoin:round"
     id="path6128"
     sodipodi:nodetypes="sssssssccsssscccsccccsssss" /></svg>
