<?xml version="1.0" encoding="UTF-8" standalone="no"?>
<!-- Created with Inkscape (http://www.inkscape.org/) -->

<svg
   width="22"
   height="22"
   viewBox="0 0 22 22"
   version="1.1"
   id="svg371"
   xml:space="preserve"
   inkscape:version="1.2.2 (1:1.2.2+202305151914+b0a8486541)"
   sodipodi:docname="folder-default-documents.svg"
   xmlns:inkscape="http://www.inkscape.org/namespaces/inkscape"
   xmlns:sodipodi="http://sodipodi.sourceforge.net/DTD/sodipodi-0.dtd"
   xmlns:xlink="http://www.w3.org/1999/xlink"
   xmlns="http://www.w3.org/2000/svg"
   xmlns:svg="http://www.w3.org/2000/svg"><sodipodi:namedview
     id="namedview373"
     pagecolor="#ffffff"
     bordercolor="#000000"
     borderopacity="0.25"
     inkscape:showpageshadow="2"
     inkscape:pageopacity="0.0"
     inkscape:pagecheckerboard="0"
     inkscape:deskcolor="#d1d1d1"
     inkscape:document-units="px"
     showgrid="false"
     inkscape:zoom="36.636364"
     inkscape:cx="11"
     inkscape:cy="11"
     inkscape:window-width="1920"
     inkscape:window-height="1008"
     inkscape:window-x="0"
     inkscape:window-y="0"
     inkscape:window-maximized="1"
     inkscape:current-layer="svg371"
     showguides="false" /><defs
     id="defs368"><linearGradient
       inkscape:collect="always"
       xlink:href="#linearGradient7272"
       id="linearGradient3251"
       x1="16"
       y1="31"
       x2="16"
       y2="1"
       gradientUnits="userSpaceOnUse"
       gradientTransform="matrix(0.66666668,0,0,0.66666668,0.3333332,0.3333333)" /><linearGradient
       inkscape:collect="always"
       id="linearGradient7272"><stop
         style="stop-color:#637588;stop-opacity:1;"
         offset="0"
         id="stop7268" /><stop
         style="stop-color:#8aa8bd;stop-opacity:1;"
         offset="1"
         id="stop7270" /></linearGradient></defs><path
     d="M 1,11 C 1,3.5 3.5,1 11,1 18.5,1 21,3.5 21,11 21,18.5 18.5,21 11,21 3.5,21 1,18.5 1,11"
     style="fill:url(#linearGradient3251);fill-opacity:1;stroke-width:0.1"
     id="path311" /><path
     d="M 8,4 C 6.338004,4 5,5.338004 5,7 v 8 c 0,1.661996 1.338004,3 3,3 h 6 c 1.661996,0 3,-1.338004 3,-3 V 9 L 12,4 Z m 0,2 h 3 v 2 c 0,1.107999 0.892001,2 2,2 h 2 v 5 c 0,0.553998 -0.446002,1 -1,1 H 8 C 7.446002,16 7,15.553998 7,15 V 7 C 7,6.446002 7.446002,6 8,6 Z"
     style="fill:#ffffff;stroke-linecap:round;stroke-linejoin:round"
     id="path8132"
     sodipodi:nodetypes="ssssssccsscsscssssss" /></svg>
