<?xml version="1.0" encoding="UTF-8" standalone="no"?>
<!-- Created with Inkscape (http://www.inkscape.org/) -->

<svg
   width="22"
   height="22"
   viewBox="0 0 22 22"
   version="1.1"
   id="svg371"
   xml:space="preserve"
   inkscape:version="1.2.2 (1:1.2.2+202305151914+b0a8486541)"
   sodipodi:docname="folder-default-development.svg"
   xmlns:inkscape="http://www.inkscape.org/namespaces/inkscape"
   xmlns:sodipodi="http://sodipodi.sourceforge.net/DTD/sodipodi-0.dtd"
   xmlns:xlink="http://www.w3.org/1999/xlink"
   xmlns="http://www.w3.org/2000/svg"
   xmlns:svg="http://www.w3.org/2000/svg"><sodipodi:namedview
     id="namedview373"
     pagecolor="#ffffff"
     bordercolor="#000000"
     borderopacity="0.25"
     inkscape:showpageshadow="2"
     inkscape:pageopacity="0.0"
     inkscape:pagecheckerboard="0"
     inkscape:deskcolor="#d1d1d1"
     inkscape:document-units="px"
     showgrid="false"
     inkscape:zoom="36.636364"
     inkscape:cx="11"
     inkscape:cy="11"
     inkscape:window-width="1920"
     inkscape:window-height="1008"
     inkscape:window-x="0"
     inkscape:window-y="0"
     inkscape:window-maximized="1"
     inkscape:current-layer="svg371"
     showguides="false"
     inkscape:lockguides="true" /><defs
     id="defs368"><linearGradient
       inkscape:collect="always"
       xlink:href="#linearGradient1836"
       id="linearGradient2101"
       x1="11"
       y1="21"
       x2="11"
       y2="1"
       gradientUnits="userSpaceOnUse" /><linearGradient
       inkscape:collect="always"
       id="linearGradient1836"><stop
         style="stop-color:#f69000;stop-opacity:1;"
         offset="0"
         id="stop1832" /><stop
         style="stop-color:#f9a900;stop-opacity:1;"
         offset="1"
         id="stop1834" /></linearGradient></defs><path
     d="M 1,11 C 1,3.5 3.5,1 11,1 18.5,1 21,3.5 21,11 21,18.5 18.5,21 11,21 3.5,21 1,18.5 1,11"
     style="fill:url(#linearGradient2101);fill-opacity:1.0;stroke-width:0.1"
     id="path311" /><path
     id="path1179"
     style="fill:#ffffff;fill-opacity:1;stroke-width:1.75;stroke-linecap:round;stroke-linejoin:round"
     d="M 10.125 4 C 9.6402517 4 9.351569 4.4010118 9.25 4.875 L 8.765625 7.1308594 L 6.5703125 6.421875 C 6.1204503 6.2413058 5.6173742 6.322383 5.375 6.7421875 L 4.5 8.2578125 C 4.2576257 8.6776169 4.4606111 9.1281695 4.8203125 9.453125 L 6.5332031 11 L 4.8203125 12.546875 C 4.4606107 12.871831 4.2576257 13.322383 4.5 13.742188 L 5.375 15.257812 C 5.6173742 15.677618 6.1204509 15.758695 6.5703125 15.578125 L 8.765625 14.869141 L 9.25 17.125 C 9.3185561 17.604876 9.6402517 18 10.125 18 L 11.875 18 C 12.35975 18 12.648431 17.598988 12.75 17.125 L 13.234375 14.869141 L 15.429688 15.578125 C 15.879548 15.758695 16.382626 15.677621 16.625 15.257812 L 17.5 13.742188 C 17.742375 13.322383 17.539397 12.871831 17.179688 12.546875 L 15.466797 11 L 17.179688 9.453125 C 17.53939 9.1281695 17.742375 8.6776169 17.5 8.2578125 L 16.625 6.7421875 C 16.382626 6.322383 15.879549 6.2413058 15.429688 6.421875 L 13.234375 7.1308594 L 12.75 4.875 C 12.68144 4.3951235 12.35975 4 11.875 4 L 10.125 4 z M 11 8 C 12.656852 8 14 9.3431476 14 11 C 14 12.656852 12.656852 14 11 14 C 9.3431476 14 8 12.656852 8 11 C 8 9.3431476 9.3431476 8 11 8 z " /></svg>
