<?xml version="1.0" encoding="UTF-8" standalone="no"?>
<!-- Created with Inkscape (http://www.inkscape.org/) -->

<svg
   width="22"
   height="22"
   viewBox="0 0 22 22"
   version="1.1"
   id="svg371"
   xml:space="preserve"
   inkscape:version="1.2.2 (1:1.2.2+202305151914+b0a8486541)"
   sodipodi:docname="folder-default-home.svg"
   xmlns:inkscape="http://www.inkscape.org/namespaces/inkscape"
   xmlns:sodipodi="http://sodipodi.sourceforge.net/DTD/sodipodi-0.dtd"
   xmlns:xlink="http://www.w3.org/1999/xlink"
   xmlns="http://www.w3.org/2000/svg"
   xmlns:svg="http://www.w3.org/2000/svg"><sodipodi:namedview
     id="namedview373"
     pagecolor="#ffffff"
     bordercolor="#000000"
     borderopacity="0.25"
     inkscape:showpageshadow="2"
     inkscape:pageopacity="0.0"
     inkscape:pagecheckerboard="0"
     inkscape:deskcolor="#d1d1d1"
     inkscape:document-units="px"
     showgrid="false"
     inkscape:zoom="36.636364"
     inkscape:cx="11"
     inkscape:cy="11"
     inkscape:window-width="1920"
     inkscape:window-height="1008"
     inkscape:window-x="0"
     inkscape:window-y="0"
     inkscape:window-maximized="1"
     inkscape:current-layer="svg371"
     showguides="false" /><defs
     id="defs368"><linearGradient
       inkscape:collect="always"
       id="linearGradient1836"><stop
         style="stop-color:#f69000;stop-opacity:1;"
         offset="0"
         id="stop1832" /><stop
         style="stop-color:#f9a900;stop-opacity:1;"
         offset="1"
         id="stop1834" /></linearGradient><linearGradient
       inkscape:collect="always"
       xlink:href="#linearGradient1836"
       id="linearGradient1164"
       x1="12"
       y1="22"
       x2="12"
       y2="2"
       gradientUnits="userSpaceOnUse"
       gradientTransform="translate(-1,-1)" /></defs><path
     d="M 1,11 C 1,3.5 3.5,1 11,1 18.5,1 21,3.5 21,11 21,18.5 18.5,21 11,21 3.5,21 1,18.5 1,11"
     style="fill:url(#linearGradient1164);fill-opacity:1;stroke-width:0.1"
     id="path311" /><path
     id="path15392"
     style="fill:#ffffff;fill-opacity:1;stroke-width:0.5;stroke-linecap:round;stroke-linejoin:round"
     d="m 11,5.023 c -0.383427,0 -0.766726,0.147621 -1.060547,0.441406 L 5.464844,9.939156 C 5.023102,10.323411 4.999752,10.445402 5,10.999703 v 5 c 0,0.552282 0.447718,1 1,1 h 2.5 c 0.2761424,0 0.5,-0.223858 0.5,-0.5 2.15e-4,-0.0085 2.15e-4,-0.01693 0,-0.02539 v -4.47461 c 0,-0.553998 0.446002,-1 1,-1 h 2 c 0.553998,0 1,0.446002 1,1 v 4.5 c 0,0.276142 0.223858,0.5 0.5,0.5 H 16 c 0.552282,0 1,-0.447718 1,-1 v -5 C 16.9674,10.430299 16.880872,10.297241 16.535156,9.939156 L 12.060547,5.464406 C 11.766726,5.170621 11.383427,5.023 11,5.023 Z"
     sodipodi:nodetypes="scccsssccsssssssscccs" /></svg>
