<?xml version="1.0" encoding="UTF-8" standalone="no"?>
<!-- Created with Inkscape (http://www.inkscape.org/) -->

<svg
   width="48"
   height="48"
   viewBox="0 0 48 48"
   version="1.1"
   id="svg371"
   xml:space="preserve"
   inkscape:version="1.2.2 (1:1.2.2+202212051552+b0a8486541)"
   sodipodi:docname="accessories-notes.svg"
   xmlns:inkscape="http://www.inkscape.org/namespaces/inkscape"
   xmlns:sodipodi="http://sodipodi.sourceforge.net/DTD/sodipodi-0.dtd"
   xmlns:xlink="http://www.w3.org/1999/xlink"
   xmlns="http://www.w3.org/2000/svg"
   xmlns:svg="http://www.w3.org/2000/svg"><sodipodi:namedview
     id="namedview373"
     pagecolor="#ffffff"
     bordercolor="#000000"
     borderopacity="0.25"
     inkscape:showpageshadow="2"
     inkscape:pageopacity="0.0"
     inkscape:pagecheckerboard="0"
     inkscape:deskcolor="#d1d1d1"
     inkscape:document-units="px"
     showgrid="false"
     inkscape:zoom="16.875"
     inkscape:cx="22.637037"
     inkscape:cy="24"
     inkscape:window-width="1920"
     inkscape:window-height="1012"
     inkscape:window-x="0"
     inkscape:window-y="0"
     inkscape:window-maximized="1"
     inkscape:current-layer="svg371"
     showguides="true" /><defs
     id="defs368"><linearGradient
       inkscape:collect="always"
       xlink:href="#linearGradient2604"
       id="linearGradient3040"
       x1="32"
       y1="62"
       x2="32"
       y2="2"
       gradientUnits="userSpaceOnUse"
       gradientTransform="matrix(0.73333333,0,0,0.73333333,0.53333333,0.53333333)" /><linearGradient
       inkscape:collect="always"
       id="linearGradient2604"><stop
         style="stop-color:#ff3512;stop-opacity:1;"
         offset="0"
         id="stop2600" /><stop
         style="stop-color:#ff6723;stop-opacity:1"
         offset="1"
         id="stop2602" /></linearGradient></defs><path
     d="M 2,24 C 2,7.5 7.5,2 24,2 40.5,2 46,7.5 46,24 46,40.5 40.5,46 24,46 7.5,46 2,40.5 2,24"
     style="fill:url(#linearGradient3040);fill-opacity:1.0;stroke-width:0.22"
     id="path311" /><path
     id="rect900"
     style="fill:#ffffff;stroke-width:4.2;stroke-linecap:round;stroke-linejoin:round"
     d="M 14 10 C 12.12818 10 10.569452 11.274938 10.128906 13.005859 C 11.7255 13.073874 13 14.386667 13 16 C 13 17.656852 11.656852 19 10 19 L 10 21 C 11.656852 21 13 22.343148 13 24 C 13 25.656852 11.656852 27 10 27 L 10 29 C 11.656852 29 13 30.343148 13 32 C 13 33.613333 11.7255 34.926126 10.128906 34.994141 C 10.569452 36.725062 12.12818 38 14 38 L 26 38 L 30 30 L 38 26 L 38 14 C 38 11.784002 36.215998 10 34 10 L 14 10 z " /><path
     id="rect481"
     style="fill:#e1301f;fill-opacity:1;stroke-width:0.875003"
     d="M 30.5,26 H 38 L 26,38 V 30.5 C 26,28.007 28.007001,26 30.5,26 Z"
     sodipodi:nodetypes="sccss" /></svg>
