<?xml version="1.0" encoding="UTF-8" standalone="no"?>
<!-- Created with Inkscape (http://www.inkscape.org/) -->

<svg
   width="48"
   height="48"
   viewBox="0 0 48 48"
   version="1.1"
   id="svg371"
   xml:space="preserve"
   inkscape:version="1.2 (1:1.2.1+202207142221+cd75a1ee6d)"
   sodipodi:docname="accessories-clock.svg"
   xmlns:inkscape="http://www.inkscape.org/namespaces/inkscape"
   xmlns:sodipodi="http://sodipodi.sourceforge.net/DTD/sodipodi-0.dtd"
   xmlns:xlink="http://www.w3.org/1999/xlink"
   xmlns="http://www.w3.org/2000/svg"
   xmlns:svg="http://www.w3.org/2000/svg"><sodipodi:namedview
     id="namedview373"
     pagecolor="#ffffff"
     bordercolor="#000000"
     borderopacity="0.25"
     inkscape:showpageshadow="2"
     inkscape:pageopacity="0.0"
     inkscape:pagecheckerboard="0"
     inkscape:deskcolor="#d1d1d1"
     inkscape:document-units="px"
     showgrid="false"
     inkscape:zoom="17.1875"
     inkscape:cx="23.970909"
     inkscape:cy="24.058182"
     inkscape:window-width="1920"
     inkscape:window-height="1018"
     inkscape:window-x="0"
     inkscape:window-y="28"
     inkscape:window-maximized="1"
     inkscape:current-layer="svg371"
     showguides="false" /><defs
     id="defs368"><linearGradient
       inkscape:collect="always"
       id="linearGradient16694"><stop
         style="stop-color:#4449bb;stop-opacity:1;"
         offset="0"
         id="stop16690" /><stop
         style="stop-color:#695bc5;stop-opacity:1;"
         offset="1"
         id="stop16692" /></linearGradient><linearGradient
       inkscape:collect="always"
       xlink:href="#linearGradient16694"
       id="linearGradient3040"
       x1="32"
       y1="62"
       x2="32"
       y2="2"
       gradientUnits="userSpaceOnUse"
       gradientTransform="matrix(0.73333335,0,0,0.73333335,0.53333333,0.53333333)" /></defs><path
     d="M 2,24 C 2,7.5 7.5,2 24,2 40.5,2 46,7.5 46,24 46,40.5 40.5,46 24,46 7.5,46 2,40.5 2,24"
     style="fill:url(#linearGradient3040);fill-opacity:1;stroke-width:0.22"
     id="path311" /><circle
     style="fill:#ffffff;stroke-width:4.5;stroke-linecap:round;stroke-linejoin:round"
     id="path920"
     cx="24"
     cy="24"
     r="15" /><path
     id="rect1026"
     style="fill:#4233a1;fill-opacity:1;stroke-width:4.5;stroke-linecap:round;stroke-linejoin:round"
     d="M 23.5,13 C 22.669001,13 22,13.669001 22,14.5 v 9.98812 0.01172 c 0,0.01005 0.0027,0.01934 0.003,0.0293 7.76e-4,0.04107 0.0017,0.08218 0.0058,0.123045 0.0042,0.04087 0.01005,0.08262 0.01758,0.123045 0.0078,0.04217 0.01806,0.08516 0.02929,0.12597 0.002,0.0069 0.0039,0.01365 0.0059,0.0205 0.01275,0.04385 0.02743,0.08684 0.04395,0.12891 0.01215,0.03093 0.024,0.06095 0.03808,0.09082 0.0117,0.0248 0.02496,0.04902 0.03809,0.07325 0.01845,0.03405 0.03735,0.06684 0.05859,0.09962 0.02622,0.04061 0.05505,0.07943 0.08496,0.117195 0.02421,0.03054 0.04969,0.05936 0.07617,0.08788 0.0108,0.0117 0.021,0.0238 0.03222,0.03516 0.0102,0.01035 0.02168,0.01923 0.03224,0.0293 0.02352,0.02244 0.04505,0.04619 0.07031,0.06738 0.0027,0.0023 0.0062,0.0036 0.0088,0.0058 l 6.887426,5.777345 c 0.636581,0.534156 1.578148,0.452011 2.112304,-0.184571 0.534156,-0.636582 0.452013,-1.578148 -0.18457,-2.112304 L 25,23.799642 V 14.5 C 25,13.669001 24.330998,13 23.5,13 Z"
     sodipodi:nodetypes="sscscscscscscscscsccsccss" /></svg>
