<?xml version="1.0" encoding="UTF-8" standalone="no"?>
<!-- Created with Inkscape (http://www.inkscape.org/) -->

<svg
   width="48"
   height="48"
   viewBox="0 0 48 48"
   version="1.1"
   id="svg371"
   xml:space="preserve"
   inkscape:version="1.2.2 (1:1.2.2+202305151914+b0a8486541)"
   sodipodi:docname="akregator.svg"
   xmlns:inkscape="http://www.inkscape.org/namespaces/inkscape"
   xmlns:sodipodi="http://sodipodi.sourceforge.net/DTD/sodipodi-0.dtd"
   xmlns:xlink="http://www.w3.org/1999/xlink"
   xmlns="http://www.w3.org/2000/svg"
   xmlns:svg="http://www.w3.org/2000/svg"><sodipodi:namedview
     id="namedview373"
     pagecolor="#ffffff"
     bordercolor="#000000"
     borderopacity="0.25"
     inkscape:showpageshadow="2"
     inkscape:pageopacity="0.0"
     inkscape:pagecheckerboard="0"
     inkscape:deskcolor="#d1d1d1"
     inkscape:document-units="px"
     showgrid="false"
     inkscape:zoom="16.791667"
     inkscape:cx="23.970223"
     inkscape:cy="24"
     inkscape:window-width="1920"
     inkscape:window-height="1008"
     inkscape:window-x="0"
     inkscape:window-y="0"
     inkscape:window-maximized="1"
     inkscape:current-layer="svg371"
     showguides="true" /><defs
     id="defs368"><linearGradient
       inkscape:collect="always"
       id="linearGradient997"><stop
         style="stop-color:#fe7008;stop-opacity:1;"
         offset="0"
         id="stop993" /><stop
         style="stop-color:#ff940a;stop-opacity:1;"
         offset="1"
         id="stop995" /></linearGradient><linearGradient
       inkscape:collect="always"
       xlink:href="#linearGradient997"
       id="linearGradient3040"
       x1="32"
       y1="62"
       x2="32"
       y2="2"
       gradientUnits="userSpaceOnUse"
       gradientTransform="matrix(0.73333335,0,0,0.73333335,0.5333333,0.5333333)" /></defs><path
     d="M 2,24 C 2,7.5 7.5,2 24,2 40.5,2 46,7.5 46,24 46,40.5 40.5,46 24,46 7.5,46 2,40.5 2,24"
     style="fill:url(#linearGradient3040);fill-opacity:1;stroke-width:0.22"
     id="path311" /><rect
     style="fill:#ffffff;stroke-width:3.11111;stroke-linecap:round"
     id="rect1051"
     width="28"
     height="28"
     x="10"
     y="10"
     ry="4" /><path
     id="path1097"
     style="color:#000000;fill:#da5b02;fill-opacity:1;stroke:none;stroke-linecap:round;stroke-linejoin:round;-inkscape-stroke:none"
     d="M 15.5,14 A 1.5,1.5 0 0 0 14,15.5 1.5,1.5 0 0 0 15.5,17 C 24.078163,17 31,23.921837 31,32.5 A 1.5,1.5 0 0 0 32.5,34 1.5,1.5 0 0 0 34,32.5 C 34,22.300519 25.699481,14 15.5,14 Z m 0,8 A 1.5,1.5 0 0 0 14,23.5 1.5,1.5 0 0 0 15.5,25 c 4.159894,0 7.5,3.340106 7.5,7.5 A 1.5,1.5 0 0 0 24.5,34 1.5,1.5 0 0 0 26,32.5 C 26,26.718789 21.281211,22 15.5,22 Z m 0.5,8 a 2,2 0 0 0 -2,2 2,2 0 0 0 2,2 2,2 0 0 0 2,-2 2,2 0 0 0 -2,-2 z" /></svg>
