<?xml version="1.0" encoding="UTF-8" standalone="no"?>
<!-- Created with Inkscape (http://www.inkscape.org/) -->

<svg
   width="48"
   height="48"
   viewBox="0 0 48 48"
   version="1.1"
   id="svg371"
   xml:space="preserve"
   inkscape:version="1.2.2 (1:1.2.2+202212051552+b0a8486541)"
   sodipodi:docname="applets-screenshooter.svg"
   xmlns:inkscape="http://www.inkscape.org/namespaces/inkscape"
   xmlns:sodipodi="http://sodipodi.sourceforge.net/DTD/sodipodi-0.dtd"
   xmlns:xlink="http://www.w3.org/1999/xlink"
   xmlns="http://www.w3.org/2000/svg"
   xmlns:svg="http://www.w3.org/2000/svg"><sodipodi:namedview
     id="namedview373"
     pagecolor="#ffffff"
     bordercolor="#000000"
     borderopacity="0.25"
     inkscape:showpageshadow="2"
     inkscape:pageopacity="0.0"
     inkscape:pagecheckerboard="0"
     inkscape:deskcolor="#d1d1d1"
     inkscape:document-units="px"
     showgrid="false"
     inkscape:zoom="16.875"
     inkscape:cx="23.97037"
     inkscape:cy="24"
     inkscape:window-width="1920"
     inkscape:window-height="1012"
     inkscape:window-x="0"
     inkscape:window-y="0"
     inkscape:window-maximized="1"
     inkscape:current-layer="svg371"
     showguides="false" /><defs
     id="defs368"><linearGradient
       inkscape:collect="always"
       xlink:href="#linearGradient966"
       id="linearGradient3040"
       x1="32"
       y1="62"
       x2="32"
       y2="2"
       gradientUnits="userSpaceOnUse"
       gradientTransform="matrix(0.73333335,0,0,0.73333335,0.53333333,0.53333333)" /><linearGradient
       inkscape:collect="always"
       id="linearGradient966"><stop
         style="stop-color:#2e36bc;stop-opacity:1;"
         offset="0"
         id="stop962" /><stop
         style="stop-color:#4960d1;stop-opacity:1;"
         offset="1"
         id="stop964" /></linearGradient></defs><path
     d="M 2,24 C 2,7.5 7.5,2 24,2 40.5,2 46,7.5 46,24 46,40.5 40.5,46 24,46 7.5,46 2,40.5 2,24"
     style="fill:url(#linearGradient3040);fill-opacity:1.0;stroke-width:0.22"
     id="path311" /><path
     d="m 13,9.000002 c -2.215989,0 -4,1.784011 -4,4.000001 v 3 c 0,0.552282 0.447716,0.999999 1,0.999999 0.552284,0 1,-0.447717 1,-0.999999 4.3e-4,-0.017 4.3e-4,-0.03386 0,-0.05078 v -2.94922 c 0,-1.107994 0.892007,-2 2,-2 h 3 c 0.552284,0 1,-0.447718 1,-1 0,-0.552285 -0.447716,-1.000001 -1,-1.000001 z m 19,0 c -0.552284,0 -1,0.447716 -1,1.000001 0,0.552282 0.447716,1 1,1 h 3 c 1.107993,0 2,0.892006 2,2 v 2.949218 c -4.3e-4,0.017 -4.3e-4,0.03378 0,0.05078 0,0.552282 0.447716,1 1,1 0.552284,0 1,-0.447718 1,-1 v -3 C 39,10.784011 37.21599,8.999999 35,9 Z m -22,22 c -0.552284,0 -1,0.447716 -1,1 v 3 c 0,2.21599 1.784011,4 4,4 h 3 c 0.552284,0 1,-0.447716 1,-1 0,-0.552284 -0.447716,-1 -1,-1 h -3 c -1.107993,0 -2,-0.892008 -2,-2 v -2.949218 c 4.3e-4,-0.017 4.3e-4,-0.03378 0,-0.05078 0,-0.552284 -0.447716,-1 -1,-1.000002 z m 28,0 c -0.552284,0 -1,0.447716 -1,1 -4.3e-4,0.017 -4.3e-4,0.03378 0,0.05078 v 2.94922 c 0,1.107992 -0.892007,2 -2,2 h -3 c -0.552284,0 -1,0.447716 -1,1 0,0.552284 0.447716,1 1,1 h 3 c 2.21599,0 4,-1.78401 4,-4 v -3 c 0,-0.552284 -0.447716,-1 -1,-1 z"
     style="opacity:0.6;fill:#ffffff;stroke-width:4;stroke-linecap:round;stroke-linejoin:round"
     id="path425"
     sodipodi:nodetypes="ssssccsssssssssssccssssssssssssssccssccsssssssss" /><path
     id="rect1859"
     style="fill:#ffffff;stroke-width:2;stroke-linecap:round;stroke-linejoin:round"
     d="m 22,16 -2,3 h -1 c -1.661996,0 -3,1.338004 -3,3 v 6 c 0,1.661996 1.338004,3 3,3 h 10 c 1.661996,0 3,-1.338004 3,-3 v -6 c 0,-1.661996 -1.338004,-3 -3,-3 h -1 l -2,-3 z m 2,6 a 3,3 0 0 1 3,3 3,3 0 0 1 -3,3 3,3 0 0 1 -3,-3 3,3 0 0 1 3,-3 z" /></svg>
