<?xml version="1.0" encoding="UTF-8" standalone="no"?>
<!-- Created with Inkscape (http://www.inkscape.org/) -->

<svg
   width="48"
   height="48"
   viewBox="0 0 48 48"
   version="1.1"
   id="svg371"
   xml:space="preserve"
   inkscape:version="1.2.2 (1:1.2.2+202212051552+b0a8486541)"
   sodipodi:docname="calls-app.svg"
   xmlns:inkscape="http://www.inkscape.org/namespaces/inkscape"
   xmlns:sodipodi="http://sodipodi.sourceforge.net/DTD/sodipodi-0.dtd"
   xmlns:xlink="http://www.w3.org/1999/xlink"
   xmlns="http://www.w3.org/2000/svg"
   xmlns:svg="http://www.w3.org/2000/svg"><sodipodi:namedview
     id="namedview373"
     pagecolor="#ffffff"
     bordercolor="#000000"
     borderopacity="0.25"
     inkscape:showpageshadow="2"
     inkscape:pageopacity="0.0"
     inkscape:pagecheckerboard="0"
     inkscape:deskcolor="#d1d1d1"
     inkscape:document-units="px"
     showgrid="false"
     inkscape:zoom="16.875"
     inkscape:cx="24"
     inkscape:cy="24"
     inkscape:window-width="1920"
     inkscape:window-height="1012"
     inkscape:window-x="0"
     inkscape:window-y="0"
     inkscape:window-maximized="1"
     inkscape:current-layer="svg371"
     showguides="false" /><defs
     id="defs368"><linearGradient
       inkscape:collect="always"
       id="linearGradient2030"><stop
         style="stop-color:#03a169;stop-opacity:1;"
         offset="0"
         id="stop2026" /><stop
         style="stop-color:#10b86b;stop-opacity:1;"
         offset="1"
         id="stop2028" /></linearGradient><linearGradient
       inkscape:collect="always"
       xlink:href="#linearGradient2030"
       id="linearGradient10470"
       x1="24"
       y1="46"
       x2="24"
       y2="2"
       gradientUnits="userSpaceOnUse" /></defs><path
     d="M 2,24 C 2,7.5 7.5,2 24,2 40.5,2 46,7.5 46,24 46,40.5 40.5,46 24,46 7.5,46 2,40.5 2,24"
     style="fill:url(#linearGradient10470);fill-opacity:1;stroke-width:0.22"
     id="path311" /><path
     d="M 25.999999,10 C 19.441279,10 16,14.46 16,20 v 8 c 0,5.539998 2.796179,10 10,10 h 2 c 1.108,0 2,-0.892002 2,-2.000002 V 32 c 0,-1.108 -0.892,-2 -2.000001,-2 H 24 c -1.108001,0 -2.000001,-0.892 -2.000001,-2 v -8 c 0,-1.108 0.892,-2 2.000001,-2 h 3.999999 C 29.108,18 30,17.108 30,16 v -4 c 0,-1.108 -0.892,-2 -2.000001,-2 z"
     style="fill:#ffffff;fill-opacity:1;stroke-width:7.99998;stroke-linejoin:round"
     id="path342"
     sodipodi:nodetypes="sssssssssssssssss" /></svg>
