<?xml version="1.0" encoding="UTF-8" standalone="no"?>
<!-- Created with Inkscape (http://www.inkscape.org/) -->

<svg
   width="48"
   height="48"
   viewBox="0 0 48 48"
   version="1.1"
   id="svg371"
   xml:space="preserve"
   inkscape:version="1.2.2 (1:1.2.2+202305151914+b0a8486541)"
   sodipodi:docname="fcitx.svg"
   xmlns:inkscape="http://www.inkscape.org/namespaces/inkscape"
   xmlns:sodipodi="http://sodipodi.sourceforge.net/DTD/sodipodi-0.dtd"
   xmlns:xlink="http://www.w3.org/1999/xlink"
   xmlns="http://www.w3.org/2000/svg"
   xmlns:svg="http://www.w3.org/2000/svg"><sodipodi:namedview
     id="namedview373"
     pagecolor="#ffffff"
     bordercolor="#000000"
     borderopacity="0.25"
     inkscape:showpageshadow="2"
     inkscape:pageopacity="0.0"
     inkscape:pagecheckerboard="0"
     inkscape:deskcolor="#d1d1d1"
     inkscape:document-units="px"
     showgrid="false"
     inkscape:zoom="16.791667"
     inkscape:cx="23.970223"
     inkscape:cy="24"
     inkscape:window-width="1920"
     inkscape:window-height="1008"
     inkscape:window-x="0"
     inkscape:window-y="0"
     inkscape:window-maximized="1"
     inkscape:current-layer="svg371"
     showguides="true" /><defs
     id="defs368"><linearGradient
       inkscape:collect="always"
       id="linearGradient1186"><stop
         style="stop-color:#097897;stop-opacity:1;"
         offset="0"
         id="stop1182" /><stop
         style="stop-color:#1d9eb8;stop-opacity:1;"
         offset="1"
         id="stop1184" /></linearGradient><linearGradient
       inkscape:collect="always"
       xlink:href="#linearGradient1186"
       id="linearGradient888"
       x1="24"
       y1="46"
       x2="24"
       y2="2"
       gradientUnits="userSpaceOnUse" /></defs><path
     d="M 2,24 C 2,7.5 7.5,2 24,2 40.5,2 46,7.5 46,24 46,40.5 40.5,46 24,46 7.5,46 2,40.5 2,24"
     style="fill:url(#linearGradient888);fill-opacity:1;stroke-width:0.22"
     id="path311" /><path
     id="rect924"
     style="fill:#ffffff;stroke-width:3;stroke-linecap:round;stroke-linejoin:round"
     d="m 12,14 c -1.661996,0 -3,1.338004 -3,3 v 13 c 0,1.661996 1.338004,3 3,3 h 23 c 1.661996,0 3,-1.338004 3,-3 V 17 c 0,-1.661996 -1.338004,-3 -3,-3 z m 1.5,3 C 14.328427,17 15,17.671573 15,18.5 15,19.328427 14.328427,20 13.5,20 12.671573,20 12,19.328427 12,18.5 12,17.671573 12.671573,17 13.5,17 Z m 5,0 C 19.328427,17 20,17.671573 20,18.5 20,19.328427 19.328427,20 18.5,20 17.671573,20 17,19.328427 17,18.5 17,17.671573 17.671573,17 18.5,17 Z m 5,0 C 24.328427,17 25,17.671573 25,18.5 25,19.328427 24.328427,20 23.5,20 22.671573,20 22,19.328427 22,18.5 22,17.671573 22.671573,17 23.5,17 Z m 5,0 C 29.328427,17 30,17.671573 30,18.5 30,19.328427 29.328427,20 28.5,20 27.671573,20 27,19.328427 27,18.5 27,17.671573 27.671573,17 28.5,17 Z m 5,0 C 34.328427,17 35,17.671573 35,18.5 35,19.328427 34.328427,20 33.5,20 32.671573,20 32,19.328427 32,18.5 32,17.671573 32.671573,17 33.5,17 Z m -20,5 C 14.328427,22 15,22.671573 15,23.5 15,24.328427 14.328427,25 13.5,25 12.671573,25 12,24.328427 12,23.5 12,22.671573 12.671573,22 13.5,22 Z m 5,0 C 19.328427,22 20,22.671573 20,23.5 20,24.328427 19.328427,25 18.5,25 17.671573,25 17,24.328427 17,23.5 17,22.671573 17.671573,22 18.5,22 Z m 5,0 C 24.328427,22 25,22.671573 25,23.5 25,24.328427 24.328427,25 23.5,25 22.671573,25 22,24.328427 22,23.5 22,22.671573 22.671573,22 23.5,22 Z m 5,0 C 29.328427,22 30,22.671573 30,23.5 30,24.328427 29.328427,25 28.5,25 27.671573,25 27,24.328427 27,23.5 27,22.671573 27.671573,22 28.5,22 Z m 5,0 C 34.328427,22 35,22.671573 35,23.5 35,24.328427 34.328427,25 33.5,25 32.671573,25 32,24.328427 32,23.5 32,22.671573 32.671573,22 33.5,22 Z"
     sodipodi:nodetypes="sssssssssssssssssssssssssssssssssssssssssssssssssssssssssss" /><rect
     style="fill:#025c80;fill-opacity:1;stroke-width:3.19374;stroke-linecap:round;stroke-linejoin:round"
     id="rect1702"
     width="17"
     height="3"
     x="15"
     y="27" /></svg>
