<?xml version="1.0" encoding="UTF-8" standalone="no"?>
<!-- Created with Inkscape (http://www.inkscape.org/) -->

<svg
   width="48"
   height="48"
   viewBox="0 0 48 48"
   version="1.1"
   id="svg371"
   xml:space="preserve"
   inkscape:version="1.2 (1:1.2.1+202207142221+cd75a1ee6d)"
   sodipodi:docname="gwenview.svg"
   xmlns:inkscape="http://www.inkscape.org/namespaces/inkscape"
   xmlns:sodipodi="http://sodipodi.sourceforge.net/DTD/sodipodi-0.dtd"
   xmlns:xlink="http://www.w3.org/1999/xlink"
   xmlns="http://www.w3.org/2000/svg"
   xmlns:svg="http://www.w3.org/2000/svg"><sodipodi:namedview
     id="namedview373"
     pagecolor="#ffffff"
     bordercolor="#000000"
     borderopacity="0.25"
     inkscape:showpageshadow="2"
     inkscape:pageopacity="0.0"
     inkscape:pagecheckerboard="0"
     inkscape:deskcolor="#d1d1d1"
     inkscape:document-units="px"
     showgrid="false"
     inkscape:zoom="17.1875"
     inkscape:cx="23.970909"
     inkscape:cy="24"
     inkscape:window-width="1920"
     inkscape:window-height="1018"
     inkscape:window-x="0"
     inkscape:window-y="28"
     inkscape:window-maximized="1"
     inkscape:current-layer="svg371"
     showguides="false" /><defs
     id="defs368"><linearGradient
       inkscape:collect="always"
       id="linearGradient2223"><stop
         style="stop-color:#ab1b50;stop-opacity:1;"
         offset="0"
         id="stop2219" /><stop
         style="stop-color:#b93f8a;stop-opacity:1;"
         offset="1"
         id="stop2221" /></linearGradient><linearGradient
       inkscape:collect="always"
       xlink:href="#linearGradient2223"
       id="linearGradient3040"
       x1="32"
       y1="62"
       x2="32"
       y2="2"
       gradientUnits="userSpaceOnUse"
       gradientTransform="matrix(0.73333335,0,0,0.73333335,0.53333337,0.53333337)" /></defs><path
     d="M 2,24 C 2,7.5 7.5,2 24,2 40.5,2 46,7.5 46,24 46,40.5 40.5,46 24,46 7.5,46 2,40.5 2,24"
     style="fill:url(#linearGradient3040);fill-opacity:1;stroke-width:0.22"
     id="path311" /><path
     id="path1110"
     style="color:#000000;fill:#ffffff;stroke:none;stroke-width:3.00002;stroke-linecap:round;stroke-linejoin:round"
     d="m 23.999999,14.999931 c -5.723829,-0.02283 -10.522056,2.805063 -14.6778451,8.07135 a 1.5001614,1.5001614 0 0 0 0.01026,1.870619 c 4.2103911,5.212517 9.0524751,8.062705 14.6675851,8.058168 5.61511,0.0045 10.457193,-2.845651 14.667592,-8.058168 a 1.5001614,1.5001614 0 0 0 0.0102,-1.870619 c -4.155735,-5.266287 -8.953964,-8.09418 -14.677792,-8.07135 z" /><path
     id="path2163"
     style="fill:#95144b;fill-opacity:1;stroke-width:6.00005;stroke-linecap:round;stroke-linejoin:round"
     d="m 23.999999,17.999954 a 6.0000457,6.0000457 0 0 0 -6.000045,6.000045 6.0000457,6.0000457 0 0 0 6.000045,6.000046 6.0000457,6.0000457 0 0 0 6.000046,-6.000046 6.0000457,6.0000457 0 0 0 -6.000046,-6.000045 z m 0,3.000022 a 3.0000229,3.0000229 0 0 1 3.000023,3.000023 3.0000229,3.0000229 0 0 1 -3.000023,3.000023 3.0000229,3.0000229 0 0 1 -3.000023,-3.000023 3.0000229,3.0000229 0 0 1 3.000023,-3.000023 z" /></svg>
