<?xml version="1.0" encoding="UTF-8" standalone="no"?>
<!-- Created with Inkscape (http://www.inkscape.org/) -->

<svg
   width="48"
   height="48"
   viewBox="0 0 48 48"
   version="1.1"
   id="svg371"
   xml:space="preserve"
   inkscape:version="1.2.2 (1:1.2.2+202305151914+b0a8486541)"
   sodipodi:docname="htop.svg"
   xmlns:inkscape="http://www.inkscape.org/namespaces/inkscape"
   xmlns:sodipodi="http://sodipodi.sourceforge.net/DTD/sodipodi-0.dtd"
   xmlns:xlink="http://www.w3.org/1999/xlink"
   xmlns="http://www.w3.org/2000/svg"
   xmlns:svg="http://www.w3.org/2000/svg"><sodipodi:namedview
     id="namedview373"
     pagecolor="#ffffff"
     bordercolor="#000000"
     borderopacity="0.25"
     inkscape:showpageshadow="2"
     inkscape:pageopacity="0.0"
     inkscape:pagecheckerboard="0"
     inkscape:deskcolor="#d1d1d1"
     inkscape:document-units="px"
     showgrid="false"
     inkscape:zoom="16.791667"
     inkscape:cx="24"
     inkscape:cy="24"
     inkscape:window-width="1920"
     inkscape:window-height="1008"
     inkscape:window-x="0"
     inkscape:window-y="0"
     inkscape:window-maximized="1"
     inkscape:current-layer="svg371" /><defs
     id="defs368"><linearGradient
       inkscape:collect="always"
       xlink:href="#linearGradient869"
       id="linearGradient3040"
       x1="32"
       y1="62"
       x2="32"
       y2="2"
       gradientUnits="userSpaceOnUse"
       gradientTransform="matrix(0.73333335,0,0,0.73333335,0.5333333,0.5333333)" /><linearGradient
       inkscape:collect="always"
       id="linearGradient869"><stop
         style="stop-color:#268f82;stop-opacity:1;"
         offset="0"
         id="stop865" /><stop
         style="stop-color:#31b7a5;stop-opacity:1;"
         offset="1"
         id="stop867" /></linearGradient></defs><path
     d="M 2,24 C 2,7.5 7.5,2 24,2 40.5,2 46,7.5 46,24 46,40.5 40.5,46 24,46 7.5,46 2,40.5 2,24"
     style="fill:url(#linearGradient3040);fill-opacity:1;stroke-width:0.22"
     id="path311" /><path
     style="color:#000000;fill:#9bf8e7;stroke:none;stroke-linecap:round;stroke-linejoin:round;-inkscape-stroke:none;fill-opacity:1"
     d="m 26.951172,7.2578125 a 1.5,1.5 0 0 0 -1.736328,1.2167969 1.5,1.5 0 0 0 1.216797,1.7382816 c 4.928094,0.868956 9.0131,4.295714 10.724609,8.998046 C 38.867759,23.91327 37.941194,29.166623 34.724609,33 a 1.5,1.5 0 0 0 0.185547,2.111328 1.5,1.5 0 0 0 2.113281,-0.183594 C 40.925868,30.276999 42.051049,23.890519 39.974609,18.185547 37.898169,12.480575 32.930042,8.3120487 26.951172,7.2578125 Z"
     id="path1531" /><path
     style="color:#000000;fill:#18e1c7;stroke:none;stroke-linecap:round;stroke-linejoin:round;-inkscape-stroke:none;fill-opacity:1"
     d="M 21.048828,7.2578125 C 14.369964,8.4354762 9.0229976,13.480989 7.4589844,20.080078 5.8949711,26.679168 8.40774,33.586851 13.847656,37.636719 19.287573,41.686587 26.626705,42.113604 32.5,38.722656 A 1.5,1.5 0 0 0 33.048828,36.673828 1.5,1.5 0 0 0 31,36.125 c -4.843229,2.796239 -10.873518,2.445066 -15.359375,-0.894531 -4.485857,-3.339597 -6.5533865,-9.017252 -5.263672,-14.458985 1.289715,-5.441732 5.68389,-9.58747 11.191406,-10.558593 A 1.5,1.5 0 0 0 22.785156,8.4746094 1.5,1.5 0 0 0 21.048828,7.2578125 Z"
     id="path1537" /><path
     d="m 18,16 h 3 v 6 h 6 v -6 h 3 v 15 h -3 v -6 h -6 v 6 h -3 z"
     style="fill:#ffffff;stroke-width:1.5;stroke-linecap:round"
     id="path453"
     sodipodi:nodetypes="ccccccccccccc" /></svg>
