<?xml version="1.0" encoding="UTF-8" standalone="no"?>
<!-- Created with Inkscape (http://www.inkscape.org/) -->

<svg
   width="48"
   height="48"
   viewBox="0 0 48 48"
   version="1.1"
   id="svg371"
   xml:space="preserve"
   inkscape:version="1.2.2 (1:1.2.2+202305151914+b0a8486541)"
   sodipodi:docname="hwloc.svg"
   xmlns:inkscape="http://www.inkscape.org/namespaces/inkscape"
   xmlns:sodipodi="http://sodipodi.sourceforge.net/DTD/sodipodi-0.dtd"
   xmlns:xlink="http://www.w3.org/1999/xlink"
   xmlns="http://www.w3.org/2000/svg"
   xmlns:svg="http://www.w3.org/2000/svg"><sodipodi:namedview
     id="namedview373"
     pagecolor="#ffffff"
     bordercolor="#000000"
     borderopacity="0.25"
     inkscape:showpageshadow="2"
     inkscape:pageopacity="0.0"
     inkscape:pagecheckerboard="0"
     inkscape:deskcolor="#d1d1d1"
     inkscape:document-units="px"
     showgrid="false"
     inkscape:zoom="16.791667"
     inkscape:cx="24"
     inkscape:cy="24"
     inkscape:window-width="1920"
     inkscape:window-height="1008"
     inkscape:window-x="0"
     inkscape:window-y="0"
     inkscape:window-maximized="1"
     inkscape:current-layer="svg371" /><defs
     id="defs368"><linearGradient
       inkscape:collect="always"
       xlink:href="#linearGradient869"
       id="linearGradient3040"
       x1="32"
       y1="62"
       x2="32"
       y2="2"
       gradientUnits="userSpaceOnUse"
       gradientTransform="matrix(0.73333335,0,0,0.73333335,0.5333333,0.5333333)" /><linearGradient
       inkscape:collect="always"
       id="linearGradient869"><stop
         style="stop-color:#268f82;stop-opacity:1;"
         offset="0"
         id="stop865" /><stop
         style="stop-color:#31b7a5;stop-opacity:1;"
         offset="1"
         id="stop867" /></linearGradient></defs><path
     d="M 2,24 C 2,7.5 7.5,2 24,2 40.5,2 46,7.5 46,24 46,40.5 40.5,46 24,46 7.5,46 2,40.5 2,24"
     style="fill:url(#linearGradient3040);fill-opacity:1;stroke-width:0.22"
     id="path311" /><path
     id="rect469"
     style="fill:#b5ebe4;stroke-width:0.790567"
     d="m 30.363961,9.1507576 c -0.391736,-0.3917357 -1.022477,-0.3917363 -1.414214,0 L 24,14.100505 19.050253,9.1507576 c -0.391736,-0.391736 -1.022478,-0.3917357 -1.414214,0 -0.391736,0.3917357 -0.391736,1.0224774 0,1.4142134 l 4.949747,4.949748 -2.828427,2.828427 -4.949747,-4.949748 c -0.391736,-0.391736 -1.022478,-0.391735 -1.414214,0 -0.391735,0.391736 -0.391736,1.022478 0,1.414214 l 4.949748,4.949747 -2.828427,2.828427 -4.949748,-4.949747 c -0.391736,-0.391736 -1.0224777,-0.391736 -1.4142134,0 -0.3917357,0.391736 -0.391736,1.022478 0,1.414214 L 14.100505,24 9.1507576,28.949747 c -0.3917357,0.391736 -0.3917357,1.022478 0,1.414214 0.3917357,0.391736 1.0224774,0.391736 1.4142134,0 l 4.949748,-4.949747 2.828427,2.828427 -4.949748,4.949747 c -0.391735,0.391736 -0.391735,1.022478 0,1.414214 0.391736,0.391735 1.022478,0.391735 1.414214,0 l 4.949747,-4.949748 2.828427,2.828427 -4.949747,4.949748 c -0.391736,0.391736 -0.391736,1.022478 0,1.414213 0.391736,0.391736 1.022478,0.391736 1.414214,0 L 24,33.899495 l 4.949747,4.949747 c 0.391736,0.391736 1.022478,0.391736 1.414214,0 0.391736,-0.391735 0.391736,-1.022477 0,-1.414213 l -4.949747,-4.949748 2.828427,-2.828427 4.949747,4.949748 c 0.391736,0.391735 1.022478,0.391735 1.414214,0 0.391735,-0.391736 0.391735,-1.022478 0,-1.414214 l -4.949748,-4.949747 2.828427,-2.828427 4.949748,4.949747 c 0.391736,0.391736 1.022478,0.391736 1.414213,0 0.391736,-0.391736 0.391736,-1.022478 0,-1.414214 L 33.899495,24 38.849242,19.050253 c 0.391737,-0.391737 0.391736,-1.022478 0,-1.414214 -0.391735,-0.391736 -1.022477,-0.391736 -1.414213,0 l -4.949748,4.949747 -2.828427,-2.828427 4.949748,-4.949747 c 0.391736,-0.391736 0.391735,-1.022478 0,-1.414214 -0.391736,-0.391735 -1.022478,-0.391736 -1.414214,0 l -4.949747,4.949748 -2.828427,-2.828427 4.949747,-4.949748 c 0.391736,-0.391736 0.391736,-1.0224777 0,-1.4142134 z M 24,16.928932 26.828427,19.757359 24,22.585786 21.171573,19.757359 Z M 28.242641,21.171573 31.071068,24 28.242641,26.828427 25.414214,24 Z m -8.485282,0 L 22.585786,24 19.757359,26.828427 16.928932,24 Z M 24,25.414214 26.828427,28.242641 24,31.071068 21.171573,28.242641 Z" /><rect
     style="fill:#ffffff;fill-opacity:1;stroke-width:0.75"
     id="rect2521"
     width="24"
     height="24"
     x="21.941126"
     y="-12"
     ry="4"
     transform="rotate(45)" /><rect
     style="fill:#196359;fill-opacity:1;stroke-linecap:round;stroke-linejoin:round"
     id="rect6876"
     width="9"
     height="9"
     x="23.941126"
     y="1"
     ry="2"
     transform="rotate(45)" /><rect
     style="fill:#196359;fill-opacity:1;stroke-linecap:round;stroke-linejoin:round"
     id="rect6878"
     width="9"
     height="9"
     x="34.941124"
     y="1"
     ry="2"
     transform="rotate(45)" /></svg>
