<?xml version="1.0" encoding="UTF-8" standalone="no"?>
<!-- Created with Inkscape (http://www.inkscape.org/) -->

<svg
   width="48"
   height="48"
   viewBox="0 0 48 48"
   version="1.1"
   id="svg371"
   xml:space="preserve"
   inkscape:version="1.2.2 (1:1.2.2+202212051552+b0a8486541)"
   sodipodi:docname="io.github.seadve.Kooha.svg"
   xmlns:inkscape="http://www.inkscape.org/namespaces/inkscape"
   xmlns:sodipodi="http://sodipodi.sourceforge.net/DTD/sodipodi-0.dtd"
   xmlns:xlink="http://www.w3.org/1999/xlink"
   xmlns="http://www.w3.org/2000/svg"
   xmlns:svg="http://www.w3.org/2000/svg"><sodipodi:namedview
     id="namedview373"
     pagecolor="#ffffff"
     bordercolor="#000000"
     borderopacity="0.25"
     inkscape:showpageshadow="2"
     inkscape:pageopacity="0.0"
     inkscape:pagecheckerboard="0"
     inkscape:deskcolor="#d1d1d1"
     inkscape:document-units="px"
     showgrid="false"
     inkscape:zoom="16.875"
     inkscape:cx="24"
     inkscape:cy="24"
     inkscape:window-width="1920"
     inkscape:window-height="1012"
     inkscape:window-x="0"
     inkscape:window-y="0"
     inkscape:window-maximized="1"
     inkscape:current-layer="svg371"
     showguides="false" /><defs
     id="defs368"><linearGradient
       inkscape:collect="always"
       id="linearGradient1505"><stop
         style="stop-color:#ca205f;stop-opacity:1;"
         offset="0"
         id="stop1501" /><stop
         style="stop-color:#e55eb0;stop-opacity:1;"
         offset="1"
         id="stop1503" /></linearGradient><linearGradient
       inkscape:collect="always"
       xlink:href="#linearGradient1505"
       id="linearGradient3040"
       x1="32"
       y1="62"
       x2="32"
       y2="2"
       gradientUnits="userSpaceOnUse"
       gradientTransform="matrix(0.73333333,0,0,0.73333333,0.53333333,0.53333333)" /></defs><path
     d="M 2,24 C 2,7.5 7.5,2 24,2 40.5,2 46,7.5 46,24 46,40.5 40.5,46 24,46 7.5,46 2,40.5 2,24"
     style="fill:url(#linearGradient3040);fill-opacity:1;stroke-width:0.22"
     id="path311" /><path
     id="rect1495"
     style="fill:#ffffff;stroke-width:3;stroke-linecap:round;stroke-linejoin:round"
     d="m 15.300783,18.000046 c -0.04772,-5.64e-4 -0.0965,0.0015 -0.144531,0.0059 -0.125595,0.0123 -0.246894,0.04217 -0.363281,0.08789 -0.480609,0.185757 -0.793274,0.622178 -0.792969,1.107422 v 9.59375 c -0.0025,1.070622 1.38682,1.607787 2.197266,0.849609 l 3.802734,-3.693359 v 2.048788 c 0,1.107997 0.892003,2 2,2 h 10 c 1.107997,0 2,-0.892003 2,-2 v -8 c 0,-1.107997 -0.892003,-2 -2,-2 h -10 c -1.107997,0 -2,0.892003 -2,2 v 2.048828 l -3.802734,-3.697266 c -0.23855,-0.223161 -0.56241,-0.347613 -0.896485,-0.351562 z m 11.699219,2 c 2.20913,0 4,1.79087 4,4 0,2.20913 -1.790872,4 -4,4 -2.209132,0 -4,-1.79087 -4,-4 0,-2.20913 1.79087,-4 4,-4 z m 0,1 c -1.65685,0 -3,1.34315 -3,3 0,1.65685 1.34315,3 3,3 1.656849,0 3,-1.34315 3,-3 0,-1.65685 -1.343151,-3 -3,-3 z" /><path
     d="m 13,9.0000015 c -2.21599,0 -4,1.7840105 -4,4.0000005 v 3 c 0,0.552282 0.447716,0.999999 1,0.999999 0.552284,0 1,-0.447717 1,-0.999999 4.3e-4,-0.017 4.3e-4,-0.03386 0,-0.05078 v -2.94922 c 0,-1.107994 0.892006,-2 2,-2 h 3 c 0.552284,0 1,-0.447718 1,-1 0,-0.5522845 -0.447716,-1.0000005 -1,-1.0000005 z m 19,0 c -0.552284,0 -1,0.447716 -1,1.0000005 0,0.552282 0.447716,1 1,1 h 3 c 1.107992,0 2,0.892006 2,2 v 2.949218 c -4.3e-4,0.017 -4.3e-4,0.03378 0,0.05078 0,0.552282 0.447716,1 1,1 0.552284,0 1,-0.447718 1,-1 V 13 C 39,10.78401 37.21599,8.9999985 35,8.9999995 Z M 10,31.000001 c -0.552284,0 -1,0.447716 -1,1 v 3 c 0,2.21599 1.78401,4 4,4 h 3 c 0.552284,0 1,-0.447716 1,-1 0,-0.552284 -0.447716,-1 -1,-1 h -3 c -1.107994,0 -2,-0.892008 -2,-2 v -2.949218 c 4.3e-4,-0.017 4.3e-4,-0.03378 0,-0.05078 0,-0.552284 -0.447716,-1 -1,-1.000002 z m 28,0 c -0.552284,0 -1,0.447716 -1,1 -4.3e-4,0.017 -4.3e-4,0.03378 0,0.05078 v 2.94922 c 0,1.107992 -0.892008,2 -2,2 h -3 c -0.552284,0 -1,0.447716 -1,1 0,0.552284 0.447716,1 1,1 h 3 c 2.21599,0 4,-1.78401 4,-4 v -3 c 0,-0.552284 -0.447716,-1 -1,-1 z"
     style="opacity:0.6;fill:#ffffff;stroke-width:4;stroke-linecap:round;stroke-linejoin:round"
     id="path425"
     sodipodi:nodetypes="ssssccsssssssssssccssssssssssssssccssccsssssssss" /></svg>
