<?xml version="1.0" encoding="UTF-8" standalone="no"?>
<!-- Created with Inkscape (http://www.inkscape.org/) -->

<svg
   width="48"
   height="48"
   viewBox="0 0 48 48"
   version="1.1"
   id="svg371"
   xml:space="preserve"
   inkscape:version="1.2.2 (1:1.2.2+202305151914+b0a8486541)"
   sodipodi:docname="krdc.svg"
   xmlns:inkscape="http://www.inkscape.org/namespaces/inkscape"
   xmlns:sodipodi="http://sodipodi.sourceforge.net/DTD/sodipodi-0.dtd"
   xmlns:xlink="http://www.w3.org/1999/xlink"
   xmlns="http://www.w3.org/2000/svg"
   xmlns:svg="http://www.w3.org/2000/svg"><sodipodi:namedview
     id="namedview373"
     pagecolor="#ffffff"
     bordercolor="#000000"
     borderopacity="0.25"
     inkscape:showpageshadow="2"
     inkscape:pageopacity="0.0"
     inkscape:pagecheckerboard="0"
     inkscape:deskcolor="#d1d1d1"
     inkscape:document-units="px"
     showgrid="false"
     inkscape:zoom="16.791667"
     inkscape:cx="24"
     inkscape:cy="24"
     inkscape:window-width="1920"
     inkscape:window-height="1008"
     inkscape:window-x="0"
     inkscape:window-y="0"
     inkscape:window-maximized="1"
     inkscape:current-layer="svg371"
     showguides="false" /><defs
     id="defs368"><linearGradient
       inkscape:collect="always"
       xlink:href="#linearGradient1134"
       id="linearGradient3040"
       x1="32"
       y1="62"
       x2="32"
       y2="2"
       gradientUnits="userSpaceOnUse"
       gradientTransform="matrix(0.73333333,0,0,0.73333333,0.53333333,0.53333333)" /><linearGradient
       inkscape:collect="always"
       id="linearGradient1134"><stop
         style="stop-color:#1e7bdf;stop-opacity:1;"
         offset="0"
         id="stop1130" /><stop
         style="stop-color:#579cf0;stop-opacity:1;"
         offset="1"
         id="stop1132" /></linearGradient></defs><path
     d="M 2,24 C 2,7.5 7.5,2 24,2 40.5,2 46,7.5 46,24 46,40.5 40.5,46 24,46 7.5,46 2,40.5 2,24"
     style="fill:url(#linearGradient3040);fill-opacity:1.0;stroke-width:0.22"
     id="path311" /><rect
     style="fill:#ffffff;stroke-width:4.43023;stroke-linecap:round;stroke-linejoin:round"
     id="rect898"
     width="28"
     height="22"
     x="10"
     y="13"
     ry="3" /><path
     id="path3175"
     style="fill:#2a8dff;stroke-width:4;stroke-linecap:round;stroke-linejoin:round;fill-opacity:1"
     d="M 14.5 16 A 1.5 1.5 0 0 0 13 17.5 A 1.5 1.5 0 0 0 14.5 19 C 20.869023 19 26 24.130977 26 30.5 A 1.5 1.5 0 0 0 27.5 32 A 1.5 1.5 0 0 0 29 30.5 C 29 22.509662 22.490338 16 14.5 16 z M 14.5 22 A 1.5 1.5 0 0 0 13 23.5 A 1.5 1.5 0 0 0 14.5 25 C 17.555324 25 20 27.444676 20 30.5 A 1.5 1.5 0 0 0 21.5 32 A 1.5 1.5 0 0 0 23 30.5 C 23 25.823361 19.176639 22 14.5 22 z M 15 28 A 2 2 0 0 0 13 30 A 2 2 0 0 0 15 32 A 2 2 0 0 0 17 30 A 2 2 0 0 0 15 28 z " /></svg>
