<?xml version="1.0" encoding="UTF-8" standalone="no"?>
<svg
   viewbox="0 0 200 200"
   version="1.1"
   id="svg4"
   sodipodi:docname="ktip.svg"
   width="48"
   height="48"
   inkscape:version="1.2.2 (1:1.2.2+202212051552+b0a8486541)"
   xmlns:inkscape="http://www.inkscape.org/namespaces/inkscape"
   xmlns:sodipodi="http://sodipodi.sourceforge.net/DTD/sodipodi-0.dtd"
   xmlns:xlink="http://www.w3.org/1999/xlink"
   xmlns="http://www.w3.org/2000/svg"
   xmlns:svg="http://www.w3.org/2000/svg">
  <defs
     id="defs8">
    <linearGradient
       inkscape:collect="always"
       xlink:href="#linearGradient3038"
       id="linearGradient918"
       x1="16"
       y1="31"
       x2="16"
       y2="0.9999997"
       gradientUnits="userSpaceOnUse"
       gradientTransform="matrix(1.4666667,0,0,1.4666667,0.5333335,0.5333338)" />
    <linearGradient
       inkscape:collect="always"
       id="linearGradient3038">
      <stop
         style="stop-color:#3f495d;stop-opacity:1;"
         offset="0"
         id="stop3034" />
      <stop
         style="stop-color:#4f5b70;stop-opacity:1;"
         offset="1"
         id="stop3036" />
    </linearGradient>
  </defs>
  <sodipodi:namedview
     id="namedview6"
     pagecolor="#ffffff"
     bordercolor="#666666"
     borderopacity="1.0"
     inkscape:pageshadow="2"
     inkscape:pageopacity="0.0"
     inkscape:pagecheckerboard="0"
     showgrid="false"
     inkscape:zoom="16.875"
     inkscape:cx="20.888889"
     inkscape:cy="24"
     inkscape:window-width="1920"
     inkscape:window-height="1012"
     inkscape:window-x="0"
     inkscape:window-y="0"
     inkscape:window-maximized="1"
     inkscape:current-layer="svg4"
     showguides="false"
     inkscape:showpageshadow="2"
     inkscape:deskcolor="#d1d1d1" />
  <path
     d="M 2,24 C 2,7.5 7.5,2 24,2 40.5,2 46,7.5 46,24 46,40.5 40.5,46 24,46 7.5,46 2,40.5 2,24"
     style="fill:url(#linearGradient918);fill-opacity:1.0;stroke-width:0.22"
     id="path311" />
  <path
     id="rect850"
     style="fill:#ffffff;fill-opacity:1;stroke-width:0.375;stroke-linecap:round;stroke-linejoin:round"
     d="M 24,9 C 15.7125,9 9,15.7125 9,24 9,32.2875 15.7125,39 24,39 32.2875,39 39,32.2875 39,24 39,15.7125 32.2875,9 24,9 Z"
     sodipodi:nodetypes="sssss" />
  <path
     id="path1021"
     style="fill:#3c4862;fill-opacity:1;stroke-width:3;stroke-linecap:round;stroke-linejoin:round"
     d="m 24,14 c -1.10457,0 -2,0.89543 -2,2 0,1.10457 0.89543,2 2,2 1.10457,0 2,-0.89543 2,-2 0,-1.10457 -0.89543,-2 -2,-2 z m 0,6 c -1.107998,0 -2,0.892002 -2,2 v 10 c 0,1.107998 0.892002,2 2,2 1.107998,0 2,-0.892002 2,-2 V 22 c 0,-1.107998 -0.892002,-2 -2,-2 z"
     sodipodi:nodetypes="ssssssssssss" />
</svg>
