<?xml version="1.0" encoding="UTF-8" standalone="no"?>
<!-- Created with Inkscape (http://www.inkscape.org/) -->

<svg
   width="48"
   height="48"
   viewBox="0 0 48 48"
   version="1.1"
   id="svg371"
   xml:space="preserve"
   inkscape:version="1.2.2 (b0a8486541, 2022-12-01)"
   sodipodi:docname="libreoffice-impress.svg"
   xmlns:inkscape="http://www.inkscape.org/namespaces/inkscape"
   xmlns:sodipodi="http://sodipodi.sourceforge.net/DTD/sodipodi-0.dtd"
   xmlns:xlink="http://www.w3.org/1999/xlink"
   xmlns="http://www.w3.org/2000/svg"
   xmlns:svg="http://www.w3.org/2000/svg"><sodipodi:namedview
     id="namedview373"
     pagecolor="#ffffff"
     bordercolor="#000000"
     borderopacity="0.25"
     inkscape:showpageshadow="2"
     inkscape:pageopacity="0.0"
     inkscape:pagecheckerboard="0"
     inkscape:deskcolor="#d1d1d1"
     inkscape:document-units="px"
     showgrid="false"
     inkscape:zoom="16.458333"
     inkscape:cx="24"
     inkscape:cy="24"
     inkscape:window-width="1920"
     inkscape:window-height="1011"
     inkscape:window-x="0"
     inkscape:window-y="0"
     inkscape:window-maximized="1"
     inkscape:current-layer="svg371"
     showguides="true" /><defs
     id="defs368"><linearGradient
       inkscape:collect="always"
       id="linearGradient2102"><stop
         style="stop-color:#ce5309;stop-opacity:1;"
         offset="0"
         id="stop2098" /><stop
         style="stop-color:#f07d16;stop-opacity:1;"
         offset="1"
         id="stop2100" /></linearGradient><linearGradient
       inkscape:collect="always"
       xlink:href="#linearGradient2102"
       id="linearGradient3040"
       x1="32"
       y1="62"
       x2="32"
       y2="2"
       gradientUnits="userSpaceOnUse"
       gradientTransform="matrix(0.73333332,0,0,0.73333332,0.5333333,0.5333333)" /><linearGradient
       inkscape:collect="always"
       xlink:href="#linearGradient2102"
       id="linearGradient2110"
       x1="24"
       y1="46"
       x2="24"
       y2="2"
       gradientUnits="userSpaceOnUse" /></defs><path
     d="M 2,24 C 2,7.5 7.5,2 24,2 40.5,2 46,7.5 46,24 46,40.5 40.5,46 24,46 7.5,46 2,40.5 2,24"
     style="fill:url(#linearGradient3040);fill-opacity:1.0;stroke-width:0.22;stroke:none"
     id="path311" /><rect
     style="fill:#f7c195;fill-opacity:1;stroke-width:4.42719;stroke-linecap:round;stroke-linejoin:round"
     id="rect549"
     width="14"
     height="12"
     x="25"
     y="24"
     ry="2" /><path
     id="rect346"
     style="fill:#ffffff;stroke-width:1.99999;stroke-linecap:round;stroke-linejoin:round"
     d="m 10,13 c -0.5539984,0 -1,0.446002 -1,1 0,0.553998 0.4460016,1 1,1 h 28 c 0.553998,0 1,-0.446002 1,-1 0,-0.553998 -0.446002,-1 -1,-1 z m 4,4 c -0.553998,0 -1,0.446002 -1,1 0,0.553998 0.446002,1 1,1 h 19 c 0.553998,0 1,-0.446002 1,-1 0,-0.553998 -0.446002,-1 -1,-1 z m -4,7 c -0.5522847,0 -1,0.447715 -1,1 0,0.552285 0.4477153,1 1,1 0.552285,0 1,-0.447715 1,-1 0,-0.552285 -0.447715,-1 -1,-1 z m 4,0 c -0.553998,0 -1,0.446002 -1,1 0,0.553998 0.446002,1 1,1 h 8 c 0.553998,0 1,-0.446002 1,-1 0,-0.553998 -0.446002,-1 -1,-1 z m -4,4 c -0.5522847,0 -1,0.447715 -1,1 0,0.552285 0.4477153,1 1,1 0.552285,0 1,-0.447715 1,-1 0,-0.552285 -0.447715,-1 -1,-1 z m 4,0 c -0.553998,0 -1,0.446002 -1,1 0,0.553998 0.446002,1 1,1 h 8 c 0.553998,0 1,-0.446002 1,-1 0,-0.553998 -0.446002,-1 -1,-1 z m -4,4 c -0.5522847,0 -1,0.447715 -1,1 0,0.552285 0.4477153,1 1,1 0.552285,0 1,-0.447715 1,-1 0,-0.552285 -0.447715,-1 -1,-1 z m 4,0 c -0.553998,0 -1,0.446002 -1,1 0,0.553998 0.446002,1 1,1 h 8 c 0.553998,0 1,-0.446002 1,-1 0,-0.553998 -0.446002,-1 -1,-1 z"
     sodipodi:nodetypes="ssssssssssssssssssssssssssssssssssssssssssssssssss" /><path
     style="color:#000000;fill:url(#linearGradient2110);stroke-linecap:round;stroke-linejoin:round;-inkscape-stroke:none;fill-opacity:1"
     d="M 37.625,26.21875 A 1,1 0 0 0 36.21875,26.375 l -3.363281,4.203125 -2.214844,-1.847656 a 1.0001,1.0001 0 0 0 -1.400391,0.117187 l -3,3.501953 a 1,1 0 0 0 0.109375,1.410157 1,1 0 0 0 1.410157,-0.109375 l 2.357421,-2.751954 2.242188,1.869141 A 1.0001,1.0001 0 0 0 33.78125,32.625 l 4,-5 A 1,1 0 0 0 37.625,26.21875 Z"
     id="path691" /></svg>
