<?xml version="1.0" encoding="UTF-8" standalone="no"?>
<!-- Created with Inkscape (http://www.inkscape.org/) -->

<svg
   width="48"
   height="48"
   viewBox="0 0 48 48"
   version="1.1"
   id="svg371"
   xml:space="preserve"
   inkscape:version="1.2.2 (1:1.2.2+202212051552+b0a8486541)"
   sodipodi:docname="libreoffice-math.svg"
   xmlns:inkscape="http://www.inkscape.org/namespaces/inkscape"
   xmlns:sodipodi="http://sodipodi.sourceforge.net/DTD/sodipodi-0.dtd"
   xmlns:xlink="http://www.w3.org/1999/xlink"
   xmlns="http://www.w3.org/2000/svg"
   xmlns:svg="http://www.w3.org/2000/svg"><sodipodi:namedview
     id="namedview373"
     pagecolor="#ffffff"
     bordercolor="#000000"
     borderopacity="0.25"
     inkscape:showpageshadow="2"
     inkscape:pageopacity="0.0"
     inkscape:pagecheckerboard="0"
     inkscape:deskcolor="#d1d1d1"
     inkscape:document-units="px"
     showgrid="false"
     inkscape:zoom="16.875"
     inkscape:cx="24"
     inkscape:cy="24"
     inkscape:window-width="1920"
     inkscape:window-height="1012"
     inkscape:window-x="0"
     inkscape:window-y="0"
     inkscape:window-maximized="1"
     inkscape:current-layer="svg371"
     showguides="true" /><defs
     id="defs368"><linearGradient
       inkscape:collect="always"
       id="linearGradient1243"><stop
         style="stop-color:#dc2479;stop-opacity:1;"
         offset="0"
         id="stop1239" /><stop
         style="stop-color:#dc607d;stop-opacity:1;"
         offset="1"
         id="stop1241" /></linearGradient><linearGradient
       inkscape:collect="always"
       xlink:href="#linearGradient1243"
       id="linearGradient3040"
       x1="32"
       y1="62"
       x2="32"
       y2="2"
       gradientUnits="userSpaceOnUse"
       gradientTransform="matrix(0.73333333,0,0,0.73333333,0.53333325,0.53333337)" /></defs><path
     d="M 1.9999996,24 C 1.9999996,7.4999999 7.4999995,2 24,2 40.5,2 46,7.4999999 46,24 46,40.5 40.5,46 24,46 7.4999995,46 1.9999996,40.5 1.9999996,24"
     style="fill:url(#linearGradient3040);fill-opacity:1;stroke-width:0.22"
     id="path311" /><path
     id="rect293"
     style="fill:#ffffff;stroke-width:4;stroke-linecap:round;stroke-linejoin:round"
     d="m 20.999558,13 v 0.0078 c -0.365962,0.04024 -0.693232,0.281727 -0.828124,0.652343 l -4.59369,12.101715 -1.613342,-4.019641 C 13.844109,21.29325 13.44249,20.998478 12.999558,21 H 12.940968 10 c -0.553999,0 -1,0.446002 -1,1 0,0.554002 0.446001,1 1,1 h 2.233936 l 2.128968,5.953234 c 0.201366,0.685062 0.372567,0.992924 0.707031,1.128908 0.520588,0.18948 1.095677,-0.07706 1.285155,-0.597656 L 21.812058,15 h 16.187939 c 0.554,0 1,-0.446 1,-1 0,-0.554 -0.446,-1 -1,-1 z"
     sodipodi:nodetypes="cccccccssscccccsssc" /><path
     id="rect1151"
     style="fill:#ffffff;stroke-width:4;stroke-linecap:round;stroke-linejoin:round"
     d="m 10,34 c -0.553998,0 -1,0.446002 -1,1 0,0.553998 0.446002,1 1,1 h 6 c 0.553998,0 1,-0.446002 1,-1 0,-0.553998 -0.446002,-1 -1,-1 z m 11,0 c -0.553998,0 -1,0.446002 -1,1 0,0.553998 0.446002,1 1,1 h 6 c 0.553998,0 1,-0.446002 1,-1 0,-0.553998 -0.446002,-1 -1,-1 z m 11,0 c -0.553998,0 -1,0.446002 -1,1 0,0.553998 0.446002,1 1,1 h 6 c 0.553998,0 1,-0.446002 1,-1 0,-0.553998 -0.446002,-1 -1,-1 z"
     sodipodi:nodetypes="sssssssssssssssssssss" /><path
     id="rect2847"
     style="opacity:1;fill:#f693b8;fill-opacity:1;stroke-width:2;stroke-linecap:round;stroke-linejoin:round"
     d="m 25.25734,18.757339 c -0.587605,0.587605 -0.587606,1.533717 0,2.121322 L 28.37868,24 25.257339,27.121339 c -0.587605,0.587605 -0.587605,1.533716 0,2.121321 0.587605,0.587605 1.533717,0.587606 2.121322,0 L 30.5,26.12132 l 3.12134,3.12134 c 0.587604,0.587606 1.533716,0.587605 2.121321,0 0.587605,-0.587605 0.587605,-1.533716 0,-2.121321 L 32.62132,24 35.742661,20.878661 c 0.587605,-0.587605 0.587605,-1.533717 0,-2.121321 -0.587605,-0.587605 -1.533717,-0.587606 -2.121321,0 L 30.5,21.87868 27.378661,18.757339 c -0.587605,-0.587605 -1.533717,-0.587605 -2.121321,0 z"
     sodipodi:nodetypes="sscssscssscssscss" /></svg>
