<?xml version="1.0" encoding="UTF-8" standalone="no"?>
<!-- Created with Inkscape (http://www.inkscape.org/) -->

<svg
   width="48"
   height="48"
   viewBox="0 0 48 48"
   version="1.1"
   id="svg371"
   xml:space="preserve"
   inkscape:version="1.2.2 (b0a8486541, 2022-12-01)"
   sodipodi:docname="libreoffice-base.svg"
   xmlns:inkscape="http://www.inkscape.org/namespaces/inkscape"
   xmlns:sodipodi="http://sodipodi.sourceforge.net/DTD/sodipodi-0.dtd"
   xmlns:xlink="http://www.w3.org/1999/xlink"
   xmlns="http://www.w3.org/2000/svg"
   xmlns:svg="http://www.w3.org/2000/svg"><sodipodi:namedview
     id="namedview373"
     pagecolor="#ffffff"
     bordercolor="#000000"
     borderopacity="0.25"
     inkscape:showpageshadow="2"
     inkscape:pageopacity="0.0"
     inkscape:pagecheckerboard="0"
     inkscape:deskcolor="#d1d1d1"
     inkscape:document-units="px"
     showgrid="false"
     inkscape:zoom="16.458333"
     inkscape:cx="23.96962"
     inkscape:cy="24"
     inkscape:window-width="1920"
     inkscape:window-height="1011"
     inkscape:window-x="0"
     inkscape:window-y="0"
     inkscape:window-maximized="1"
     inkscape:current-layer="svg371"
     showguides="true" /><defs
     id="defs368"><linearGradient
       inkscape:collect="always"
       id="linearGradient1271"><stop
         style="stop-color:#9019ce;stop-opacity:1;"
         offset="0"
         id="stop1267" /><stop
         style="stop-color:#bd4ee2;stop-opacity:1;"
         offset="1"
         id="stop1269" /></linearGradient><linearGradient
       inkscape:collect="always"
       xlink:href="#linearGradient1271"
       id="linearGradient3040"
       x1="32"
       y1="62"
       x2="32"
       y2="2"
       gradientUnits="userSpaceOnUse"
       gradientTransform="matrix(0.73333333,0,0,0.73333333,0.53333333,0.53333333)" /></defs><path
     d="M 2,24 C 2,7.5 7.5,2 24,2 40.5,2 46,7.5 46,24 46,40.5 40.5,46 24,46 7.5,46 2,40.5 2,24"
     style="fill:url(#linearGradient3040);fill-opacity:1;stroke-width:0.22"
     id="path311" /><path
     id="rect293"
     style="fill:#ffffff;stroke-width:4;stroke-linecap:round;stroke-linejoin:round"
     d="m 29,15 c -2.215983,0 -4,1.784016 -4,4 v 12 c 0,2.215986 1.784017,4 4,4 h 6 c 2.215986,0 4,-1.784014 4,-4 V 19 c 0,-2.215984 -1.784014,-4 -4,-4 z m 0,2 h 2 v 4 h -4 v -2 c 0,-1.107992 0.892008,-2 2,-2 z m 4,0 h 2 c 1.10799,0 2,0.892008 2,2 v 2 h -4 z m -6,6 h 4 v 4 h -4 z m 6,0 h 4 v 4 h -4 z m -6,6 h 4 v 4 h -2 c -1.107992,0 -2,-0.89201 -2,-2 z m 6,0 h 4 v 2 c 0,1.10799 -0.89201,2 -2,2 h -2 z"
     sodipodi:nodetypes="cssccssccscccsscssccccccccccccccccsscccsscc" /><path
     id="path525"
     style="fill:#dd8ff5;fill-opacity:1;stroke-width:1.32288;stroke-linecap:round;stroke-linejoin:round"
     d="m 16,14 c -3.865994,0 -7,0.895431 -7,2 v 2 c 0,1.104569 3.134006,2 7,2 3.865994,0 7,-0.895431 7,-2 v -2 c 0,-1.104569 -3.134006,-2 -7,-2 z m -7,6 v 3 c 0,1.104567 3.134016,2 7,2 3.865986,0 7,-0.895433 7,-2 v -3 c 0,1.104569 -3.134006,2 -7,2 -3.865994,0 -7,-0.895431 -7,-2 z m 0,5 v 3 c 0,1.104567 3.134016,2 7,2 3.865986,0 7,-0.895433 7,-2 v -3 c 0,1.104569 -3.134006,2 -7,2 -3.865994,0 -7,-0.895431 -7,-2 z m 0,5 v 3 c 0,1.104567 3.134016,2 7,2 3.865986,0 7,-0.895433 7,-2 v -3 c 0,1.104569 -3.134006,2 -7,2 -3.865994,0 -7,-0.895431 -7,-2 z"
     sodipodi:nodetypes="ssssssscssscsccssscsccssscsc" /></svg>
