<?xml version="1.0" encoding="UTF-8" standalone="no"?>
<!-- Created with Inkscape (http://www.inkscape.org/) -->

<svg
   width="48"
   height="48"
   viewBox="0 0 48 48"
   version="1.1"
   id="svg371"
   xml:space="preserve"
   inkscape:version="1.2.2 (b0a8486541, 2022-12-01)"
   sodipodi:docname="libreoffice-writer.svg"
   xmlns:inkscape="http://www.inkscape.org/namespaces/inkscape"
   xmlns:sodipodi="http://sodipodi.sourceforge.net/DTD/sodipodi-0.dtd"
   xmlns:xlink="http://www.w3.org/1999/xlink"
   xmlns="http://www.w3.org/2000/svg"
   xmlns:svg="http://www.w3.org/2000/svg"><sodipodi:namedview
     id="namedview373"
     pagecolor="#ffffff"
     bordercolor="#000000"
     borderopacity="0.25"
     inkscape:showpageshadow="2"
     inkscape:pageopacity="0.0"
     inkscape:pagecheckerboard="0"
     inkscape:deskcolor="#d1d1d1"
     inkscape:document-units="px"
     showgrid="false"
     inkscape:zoom="16.458333"
     inkscape:cx="24"
     inkscape:cy="24"
     inkscape:window-width="1920"
     inkscape:window-height="1011"
     inkscape:window-x="0"
     inkscape:window-y="0"
     inkscape:window-maximized="1"
     inkscape:current-layer="svg371"
     showguides="true" /><defs
     id="defs368"><linearGradient
       inkscape:collect="always"
       id="linearGradient1147"><stop
         style="stop-color:#1171c6;stop-opacity:1;"
         offset="0"
         id="stop1143" /><stop
         style="stop-color:#3090ef;stop-opacity:1;"
         offset="1"
         id="stop1145" /></linearGradient><linearGradient
       inkscape:collect="always"
       xlink:href="#linearGradient1147"
       id="linearGradient3040"
       x1="32"
       y1="62"
       x2="32"
       y2="2"
       gradientUnits="userSpaceOnUse"
       gradientTransform="matrix(0.73333332,0,0,0.73333332,0.5333333,0.5333333)" /><linearGradient
       inkscape:collect="always"
       xlink:href="#linearGradient1147"
       id="linearGradient2139"
       x1="18"
       y1="25"
       x2="18"
       y2="3"
       gradientUnits="userSpaceOnUse"
       gradientTransform="matrix(2,0,0,2,-13,-5)" /></defs><path
     d="M 2,24 C 2,7.5 7.5,2 24,2 40.5,2 46,7.5 46,24 46,40.5 40.5,46 24,46 7.5,46 2,40.5 2,24"
     style="fill:url(#linearGradient3040);fill-opacity:1;stroke-width:0.22"
     id="path311" /><rect
     style="fill:#97d1ed;fill-opacity:1;stroke-width:4.58258;stroke-linecap:round;stroke-linejoin:round"
     id="rect549"
     width="15"
     height="12"
     x="24"
     y="11"
     ry="2" /><path
     id="rect346"
     style="fill:#ffffff;stroke-width:1.99999;stroke-linecap:round;stroke-linejoin:round"
     d="m 10,11 c -0.553999,0 -1,0.446001 -1,1 0,0.553999 0.446001,1 1,1 h 10 c 0.553999,0 1,-0.446001 1,-1 0,-0.553999 -0.446001,-1 -1,-1 z m 0,5 c -0.553999,0 -1,0.446001 -1,1 0,0.553999 0.446001,1 1,1 h 10 c 0.553999,0 1,-0.446001 1,-1 0,-0.553999 -0.446001,-1 -1,-1 z m 0,5 c -0.553999,0 -1,0.446001 -1,1 0,0.553999 0.446001,1 1,1 h 10 c 0.553999,0 1,-0.446001 1,-1 0,-0.553999 -0.446001,-1 -1,-1 z m 0,5 c -0.553999,0 -1,0.446001 -1,1 0,0.553999 0.446001,1 1,1 h 28 c 0.553999,0 1,-0.446001 1,-1 0,-0.553999 -0.446001,-1 -1,-1 z m 0,5 c -0.553999,0 -1,0.446001 -1,1 0,0.553999 0.446001,1 1,1 h 28 c 0.553999,0 1,-0.446001 1,-1 0,-0.553999 -0.446001,-1 -1,-1 z m 0,5 c -0.553999,0 -1,0.446001 -1,1 0,0.553999 0.446001,1 1,1 h 12 c 0.553999,0 1,-0.446001 1,-1 0,-0.553999 -0.446001,-1 -1,-1 z"
     sodipodi:nodetypes="ssssssssssssssssssssssssssssssssssssssssss" /><path
     id="rect1927"
     style="fill:url(#linearGradient2139);fill-opacity:1;stroke-width:4;stroke-linecap:round;stroke-linejoin:round"
     d="M 35.5,13 C 34.671574,13 34,13.671574 34,14.5 34,15.328426 34.671574,16 35.5,16 36.328426,16 37,15.328426 37,14.5 37,13.671574 36.328426,13 35.5,13 Z m -5.5,2 -4,6 h 11 z"
     sodipodi:nodetypes="ssssscccc" /></svg>
