<?xml version="1.0" encoding="UTF-8" standalone="no"?>
<!-- Created with Inkscape (http://www.inkscape.org/) -->

<svg
   width="48"
   height="48"
   viewBox="0 0 48 48"
   version="1.1"
   id="svg371"
   xml:space="preserve"
   inkscape:version="1.2 (1:1.2.1+202207142221+cd75a1ee6d)"
   sodipodi:docname="multimedia-photo-manager.svg"
   xmlns:inkscape="http://www.inkscape.org/namespaces/inkscape"
   xmlns:sodipodi="http://sodipodi.sourceforge.net/DTD/sodipodi-0.dtd"
   xmlns:xlink="http://www.w3.org/1999/xlink"
   xmlns="http://www.w3.org/2000/svg"
   xmlns:svg="http://www.w3.org/2000/svg"><sodipodi:namedview
     id="namedview373"
     pagecolor="#ffffff"
     bordercolor="#000000"
     borderopacity="0.25"
     inkscape:showpageshadow="2"
     inkscape:pageopacity="0.0"
     inkscape:pagecheckerboard="0"
     inkscape:deskcolor="#d1d1d1"
     inkscape:document-units="px"
     showgrid="false"
     inkscape:zoom="17.1875"
     inkscape:cx="24"
     inkscape:cy="24"
     inkscape:window-width="1920"
     inkscape:window-height="1018"
     inkscape:window-x="0"
     inkscape:window-y="28"
     inkscape:window-maximized="1"
     inkscape:current-layer="svg371"
     showguides="false" /><defs
     id="defs368"><linearGradient
       inkscape:collect="always"
       id="linearGradient2223"><stop
         style="stop-color:#ab1b50;stop-opacity:1;"
         offset="0"
         id="stop2219" /><stop
         style="stop-color:#b93f8a;stop-opacity:1;"
         offset="1"
         id="stop2221" /></linearGradient><linearGradient
       inkscape:collect="always"
       xlink:href="#linearGradient2223"
       id="linearGradient3040"
       x1="32"
       y1="62"
       x2="32"
       y2="2"
       gradientUnits="userSpaceOnUse"
       gradientTransform="matrix(0.73333335,0,0,0.73333335,0.53333333,0.53333333)" /></defs><path
     d="M 2,24 C 2,7.5 7.5,2 24,2 40.5,2 46,7.5 46,24 46,40.5 40.5,46 24,46 7.5,46 2,40.5 2,24"
     style="fill:url(#linearGradient3040);fill-opacity:1.0;stroke-width:0.22"
     id="path311" /><path
     id="path951"
     style="fill:#ffffff;stroke-width:2;stroke-linecap:round;stroke-linejoin:round"
     d="M 24 9 C 21.790867 9 20 10.790867 20 13 C 20.000028 13.049016 20.005915 13.109662 20.013672 13.175781 C 20.118538 14.273766 21.086589 17.939491 21.878906 20.326172 C 20.111374 18.337881 17.191952 15.449857 16.474609 15.035156 C 14.561446 13.930591 12.114331 14.586837 11.009766 16.5 C 9.9052 18.413163 10.561446 20.860279 12.474609 21.964844 C 13.192703 22.378892 17.154149 23.463644 19.759766 24 C 17.154149 24.536356 13.192703 25.621107 12.474609 26.035156 C 10.561446 27.139721 9.9052008 29.586838 11.009766 31.5 C 12.114332 33.413163 14.561446 34.069409 16.474609 32.964844 C 17.191952 32.550142 20.111373 29.662119 21.878906 27.673828 C 21.086589 30.060509 20.118538 33.726234 20.013672 34.824219 C 20.005915 34.890338 20.000028 34.950984 20 35 C 20 37.209132 21.790867 39 24 39 C 26.209132 39 28 37.209132 28 35 C 27.999972 34.950984 27.994085 34.890338 27.986328 34.824219 C 27.881462 33.726234 26.913412 30.060509 26.121094 27.673828 C 27.888627 29.662119 30.808048 32.550142 31.525391 32.964844 C 33.438553 34.069409 35.885669 33.413163 36.990234 31.5 C 38.094799 29.586838 37.438553 27.139721 35.525391 26.035156 C 34.807297 25.621108 30.845852 24.536356 28.240234 24 C 30.845851 23.463644 34.807297 22.378891 35.525391 21.964844 C 37.438554 20.860279 38.094799 18.413164 36.990234 16.5 C 35.885669 14.586838 33.438553 13.93059 31.525391 15.035156 C 30.808048 15.449856 27.888627 18.337881 26.121094 20.326172 C 26.913412 17.939491 27.881462 14.273766 27.986328 13.175781 C 27.994085 13.109662 27.999972 13.049016 28 13 C 28 10.790867 26.209132 9 24 9 z M 22.845703 22 L 25.154297 22 L 26.310547 24 L 25.154297 26 L 22.845703 26 L 21.689453 24 L 22.845703 22 z " /><circle
     style="fill:#95144b;stroke-width:3;stroke-linecap:round;stroke-linejoin:round;fill-opacity:1"
     id="path2163"
     cx="24"
     cy="24"
     r="3" /></svg>
