<?xml version="1.0" encoding="UTF-8" standalone="no"?>
<!-- Created with Inkscape (http://www.inkscape.org/) -->

<svg
   width="48"
   height="48"
   viewBox="0 0 48 48"
   version="1.1"
   id="svg371"
   xml:space="preserve"
   inkscape:version="1.2 (1:1.2.1+202207142221+cd75a1ee6d)"
   sodipodi:docname="utilities-x-terminal.svg"
   xmlns:inkscape="http://www.inkscape.org/namespaces/inkscape"
   xmlns:sodipodi="http://sodipodi.sourceforge.net/DTD/sodipodi-0.dtd"
   xmlns:xlink="http://www.w3.org/1999/xlink"
   xmlns="http://www.w3.org/2000/svg"
   xmlns:svg="http://www.w3.org/2000/svg"><sodipodi:namedview
     id="namedview373"
     pagecolor="#ffffff"
     bordercolor="#000000"
     borderopacity="0.25"
     inkscape:showpageshadow="2"
     inkscape:pageopacity="0.0"
     inkscape:pagecheckerboard="0"
     inkscape:deskcolor="#d1d1d1"
     inkscape:document-units="px"
     showgrid="false"
     inkscape:zoom="14.854167"
     inkscape:cx="24.03366"
     inkscape:cy="24.067321"
     inkscape:window-width="1920"
     inkscape:window-height="1018"
     inkscape:window-x="0"
     inkscape:window-y="28"
     inkscape:window-maximized="1"
     inkscape:current-layer="svg371"
     showguides="false" /><defs
     id="defs368"><linearGradient
       inkscape:collect="always"
       id="linearGradient5601"><stop
         style="stop-color:#3b3b3b;stop-opacity:1;"
         offset="0"
         id="stop5597" /><stop
         style="stop-color:#6d6d6d;stop-opacity:1;"
         offset="1"
         id="stop5599" /></linearGradient><linearGradient
       inkscape:collect="always"
       xlink:href="#linearGradient5601"
       id="linearGradient3040"
       x1="32"
       y1="62"
       x2="32"
       y2="2"
       gradientUnits="userSpaceOnUse"
       gradientTransform="matrix(0.73333335,0,0,0.73333335,0.53333337,0.53333337)" /><linearGradient
       inkscape:collect="always"
       id="linearGradient873"><stop
         style="stop-color:#309a3d;stop-opacity:1;"
         offset="0"
         id="stop869" /><stop
         style="stop-color:#5dce6c;stop-opacity:1;"
         offset="1"
         id="stop871" /></linearGradient><linearGradient
       inkscape:collect="always"
       xlink:href="#linearGradient873"
       id="linearGradient1556"
       x1="37.000008"
       y1="35.000011"
       x2="37.000008"
       y2="13"
       gradientUnits="userSpaceOnUse" /></defs><path
     d="M 2,24 C 2,7.5 7.5,2 24,2 40.5,2 46,7.5 46,24 46,40.5 40.5,46 24,46 7.5,46 2,40.5 2,24"
     style="fill:url(#linearGradient3040);fill-opacity:1.0;stroke-width:0.22"
     id="path311" /><path
     d="m 12.501334,13 c -0.383432,0 -0.766749,0.147121 -1.060555,0.440922 -0.58761,0.587611 -0.58761,1.5335 0,2.12111 l 7.606995,7.606994 -7.606995,7.606993 c -0.587609,0.587609 -0.58761,1.5335 0,2.12111 0.587612,0.58761 1.533501,0.58761 2.121111,0 l 8.667549,-8.667548 c 0.58761,-0.587612 0.58761,-1.5335 0,-2.121112 L 13.56189,13.440922 C 13.268086,13.147117 12.884766,13 12.501334,13 Z m 11.998631,18.999988 c -0.831007,0 -1.500012,0.669006 -1.500012,1.500012 0,0.831007 0.669005,1.500012 1.500012,1.500012 h 11.000029 c 0.831006,0 1.500012,-0.669005 1.500012,-1.500012 0,-0.831006 -0.669006,-1.500012 -1.500012,-1.500012 z"
     style="fill:url(#linearGradient1556);fill-opacity:1;stroke:none;stroke-width:1.50001;stroke-linecap:round;stroke-linejoin:round"
     id="path342"
     sodipodi:nodetypes="scscssscccssssssss" /></svg>
