<?xml version="1.0" encoding="UTF-8" standalone="no"?>
<!-- Created with Inkscape (http://www.inkscape.org/) -->

<svg
   width="48"
   height="48"
   viewBox="0 0 48 48"
   version="1.1"
   id="svg371"
   xml:space="preserve"
   inkscape:version="1.2 (1:1.2.1+202207142221+cd75a1ee6d)"
   sodipodi:docname="youtube-dl.svg"
   xmlns:inkscape="http://www.inkscape.org/namespaces/inkscape"
   xmlns:sodipodi="http://sodipodi.sourceforge.net/DTD/sodipodi-0.dtd"
   xmlns="http://www.w3.org/2000/svg"
   xmlns:svg="http://www.w3.org/2000/svg"><sodipodi:namedview
     id="namedview373"
     pagecolor="#ffffff"
     bordercolor="#000000"
     borderopacity="0.25"
     inkscape:showpageshadow="2"
     inkscape:pageopacity="0.0"
     inkscape:pagecheckerboard="0"
     inkscape:deskcolor="#d1d1d1"
     inkscape:document-units="px"
     showgrid="false"
     inkscape:zoom="17.1875"
     inkscape:cx="23.970909"
     inkscape:cy="24.174545"
     inkscape:window-width="1920"
     inkscape:window-height="1018"
     inkscape:window-x="0"
     inkscape:window-y="28"
     inkscape:window-maximized="1"
     inkscape:current-layer="svg371"
     showguides="false" /><defs
     id="defs368" /><path
     d="M 2,24 C 2,7.5 7.5,2 24,2 40.5,2 46,7.5 46,24 46,40.5 40.5,46 24,46 7.5,46 2,40.5 2,24"
     style="fill:#f5f5f5;fill-opacity:1;stroke-width:0.22"
     id="path311" /><path
     id="path1633"
     style="fill:#ff0000;fill-opacity:1;stroke-width:0.239337"
     d="m 23.999953,14 c 0,0 -8.475846,9.09e-4 -10.788592,0.589193 -1.241582,0.3294 -2.262898,1.315538 -2.603724,2.539062 C 9.9990186,19.363544 10,24 10,24 c 0,0 -9.8e-4,4.659981 0.607637,6.871746 0.340827,1.223525 1.3378,2.186868 2.603724,2.516275 C 15.54845,33.999784 23.999953,34 23.999953,34 c 0,0 8.472805,-9.09e-4 10.785555,-0.589194 1.265925,-0.3294 2.262895,-1.292751 2.603724,-2.516272 0.608618,-2.235294 0.610674,-6.871748 0.610674,-6.871748 0,0 0.02209,-4.659242 -0.610674,-6.894531 C 37.048403,15.904731 36.051433,14.94139 34.785508,14.61198 32.472758,14.000217 23.999953,14 23.999953,14 Z"
     sodipodi:nodetypes="ccccccccccccc" /><path
     id="rect1087"
     style="fill:#ffffff;stroke-width:0.904381"
     d="m 22.000001,18 h 3.999998 v 6 H 30 l -6,6 -6,-6 h 4.000001 z"
     sodipodi:nodetypes="cccccccc" /></svg>
