<?xml version="1.0" encoding="UTF-8" standalone="no"?>
<!-- Created with Inkscape (http://www.inkscape.org/) -->

<svg
   width="48"
   height="48"
   viewBox="0 0 48 48"
   version="1.1"
   id="svg371"
   xml:space="preserve"
   inkscape:version="1.2.2 (b0a8486541, 2022-12-01)"
   sodipodi:docname="zanshin.svg"
   xmlns:inkscape="http://www.inkscape.org/namespaces/inkscape"
   xmlns:sodipodi="http://sodipodi.sourceforge.net/DTD/sodipodi-0.dtd"
   xmlns:xlink="http://www.w3.org/1999/xlink"
   xmlns="http://www.w3.org/2000/svg"
   xmlns:svg="http://www.w3.org/2000/svg"><sodipodi:namedview
     id="namedview373"
     pagecolor="#ffffff"
     bordercolor="#000000"
     borderopacity="0.25"
     inkscape:showpageshadow="2"
     inkscape:pageopacity="0.0"
     inkscape:pagecheckerboard="0"
     inkscape:deskcolor="#d1d1d1"
     inkscape:document-units="px"
     showgrid="false"
     inkscape:zoom="16.458333"
     inkscape:cx="23.96962"
     inkscape:cy="24"
     inkscape:window-width="1920"
     inkscape:window-height="1011"
     inkscape:window-x="0"
     inkscape:window-y="0"
     inkscape:window-maximized="1"
     inkscape:current-layer="svg371"
     showguides="false" /><defs
     id="defs368"><linearGradient
       inkscape:collect="always"
       id="linearGradient1208"><stop
         style="stop-color:#304a75;stop-opacity:1;"
         offset="0"
         id="stop1204" /><stop
         style="stop-color:#2a689a;stop-opacity:1;"
         offset="1"
         id="stop1206" /></linearGradient><linearGradient
       inkscape:collect="always"
       xlink:href="#linearGradient1208"
       id="linearGradient3040"
       x1="32"
       y1="62"
       x2="32"
       y2="2"
       gradientUnits="userSpaceOnUse"
       gradientTransform="matrix(0.73333335,0,0,0.73333335,0.5333333,0.5333334)" /></defs><path
     d="M 2,24 C 2,7.5 7.5,2 24,2 40.5,2 46,7.5 46,24 46,40.5 40.5,46 24,46 7.5,46 2,40.5 2,24"
     style="fill:url(#linearGradient3040);fill-opacity:1;stroke-width:0.22"
     id="path311" /><path
     id="rect898"
     style="fill:#ffffff;stroke-width:4.38606;stroke-linecap:round;stroke-linejoin:round"
     d="M 15.000001,26 C 13.338004,26 12.675001,26.731247 12,28.25 L 8.9999996,35 C 8.2946476,36.498521 9.1203826,38 12,38 h 24.000001 c 2.879616,0 3.705352,-1.501479 3,-3 l -3,-6.75 c -0.675002,-1.518753 -1.338003,-2.25 -3,-2.25 z"
     sodipodi:nodetypes="csccccscc" /><path
     id="path397"
     style="fill:#70a1c9;fill-opacity:1;stroke-width:0.499999;stroke-linecap:round;stroke-linejoin:round"
     d="m 24,9 c -1.656855,0 -3,1.343147 -3,3 0,1.656855 1.343145,3 3,3 1.656854,0 3,-1.343145 3,-3 0,-1.656853 -1.343146,-3 -3,-3 z m 0,9 c -1.656855,0 -3,1.343145 -3,3 0,1.656853 1.343145,3 3,3 1.656854,0 3,-1.343147 3,-3 0,-1.656855 -1.343146,-3 -3,-3 z m 0,11 c -4.970563,0 -9,1.343145 -9,3 0,1.656854 4.029437,3 9,3 4.970562,0 9,-1.343146 9,-3 0,-1.656855 -4.029438,-3 -9,-3 z"
     sodipodi:nodetypes="sssssssssssssss" /></svg>
