<?xml version="1.0" encoding="UTF-8" standalone="no"?>
<!-- Created with Inkscape (http://www.inkscape.org/) -->

<svg
   width="16"
   height="16"
   viewBox="0 0 16 16"
   version="1.1"
   id="svg5"
   inkscape:version="1.3 (0e150ed6c4, 2023-07-21)"
   sodipodi:docname="playlist-symbolic.svg"
   xmlns:inkscape="http://www.inkscape.org/namespaces/inkscape"
   xmlns:sodipodi="http://sodipodi.sourceforge.net/DTD/sodipodi-0.dtd"
   xmlns="http://www.w3.org/2000/svg"
   xmlns:svg="http://www.w3.org/2000/svg">
  <sodipodi:namedview
     id="namedview7"
     pagecolor="#ffffff"
     bordercolor="#000000"
     borderopacity="0.25"
     inkscape:showpageshadow="2"
     inkscape:pageopacity="0.0"
     inkscape:pagecheckerboard="0"
     inkscape:deskcolor="#d1d1d1"
     inkscape:document-units="px"
     showgrid="false"
     inkscape:zoom="50.375"
     inkscape:cx="8.0099256"
     inkscape:cy="8"
     inkscape:window-width="1920"
     inkscape:window-height="1000"
     inkscape:window-x="0"
     inkscape:window-y="0"
     inkscape:window-maximized="1"
     inkscape:current-layer="layer1" />
  <defs
     id="defs2" />
  <g
     inkscape:label="Layer 1"
     inkscape:groupmode="layer"
     id="layer1">
    <path
       id="path234"
       style="fill:#4d4d4d;fill-opacity:1;stroke-width:2;stroke-linecap:round"
       d="M 1.5 2 C 1.2230015 2 1 2.2230015 1 2.5 C 1 2.7769985 1.2230015 3 1.5 3 L 8.5 3 C 8.7769988 3 9 2.7769985 9 2.5 C 9 2.2230015 8.7769988 2 8.5 2 L 1.5 2 z M 11 2 C 10.447718 2 10 2.4477171 10 3 L 10 8.7636719 C 9.4499398 8.2718119 8.7378974 7.9999285 8 8 C 6.3431475 8 5 9.3431475 5 11 C 5 12.656852 6.3431475 14 8 14 C 9.6568525 14 11 12.656852 11 11 L 11 3 C 12.656846 3 13.987454 3.7611166 14 6 L 14 6.5 C 14 6.7761415 14.223858 7 14.5 7 L 14.525391 7 C 14.78205 6.987266 14.987266 6.7820499 15 6.5253906 L 15 6.5234375 L 15 6.5214844 L 15 6.5195312 L 15 6.5175781 L 15 6.515625 L 15 6.5136719 L 15 6.5117188 L 15 6.5097656 L 15 6.5078125 L 15 6.5058594 L 15 6.5039062 L 15 6.5019531 L 15 6.5 L 15 6 C 14.959927 2.9629497 13.209131 2 11 2 z M 1.5 5 C 1.2230015 5 1 5.2230015 1 5.5 C 1 5.7769985 1.2230015 6 1.5 6 L 8.5 6 C 8.7769988 6 9 5.7769985 9 5.5 C 9 5.2230015 8.7769988 5 8.5 5 L 1.5 5 z M 1.5 8 C 1.2230015 8 1 8.2230015 1 8.5 C 1 8.7769985 1.2230015 9 1.5 9 L 3.5 9 C 3.7769989 9 4 8.7769985 4 8.5 C 4 8.2230015 3.7769989 8 3.5 8 L 1.5 8 z " />
  </g>
</svg>
