<?xml version="1.0" encoding="UTF-8" standalone="no"?>
<!-- Created with Inkscape (http://www.inkscape.org/) -->

<svg
   width="24"
   height="24"
   viewBox="0 0 24 24"
   version="1.1"
   id="svg371"
   xml:space="preserve"
   inkscape:version="1.2.2 (1:1.2.2+202305151914+b0a8486541)"
   sodipodi:docname="folder-default-desktop.svg"
   xmlns:inkscape="http://www.inkscape.org/namespaces/inkscape"
   xmlns:sodipodi="http://sodipodi.sourceforge.net/DTD/sodipodi-0.dtd"
   xmlns:xlink="http://www.w3.org/1999/xlink"
   xmlns="http://www.w3.org/2000/svg"
   xmlns:svg="http://www.w3.org/2000/svg"><sodipodi:namedview
     id="namedview373"
     pagecolor="#ffffff"
     bordercolor="#000000"
     borderopacity="0.25"
     inkscape:showpageshadow="2"
     inkscape:pageopacity="0.0"
     inkscape:pagecheckerboard="0"
     inkscape:deskcolor="#d1d1d1"
     inkscape:document-units="px"
     showgrid="false"
     inkscape:zoom="33.583333"
     inkscape:cx="11.985112"
     inkscape:cy="12"
     inkscape:window-width="1920"
     inkscape:window-height="1008"
     inkscape:window-x="0"
     inkscape:window-y="0"
     inkscape:window-maximized="1"
     inkscape:current-layer="svg371"
     showguides="true" /><defs
     id="defs368"><linearGradient
       inkscape:collect="always"
       xlink:href="#linearGradient3251"
       id="linearGradient11098"
       x1="32"
       y1="62"
       x2="32"
       y2="2"
       gradientUnits="userSpaceOnUse"
       gradientTransform="matrix(0.33333334,0,0,0.33333334,1.3333333,1.3333333)" /><linearGradient
       inkscape:collect="always"
       id="linearGradient3251"><stop
         style="stop-color:#1365de;stop-opacity:1;"
         offset="0"
         id="stop3247" /><stop
         style="stop-color:#1e87e9;stop-opacity:1;"
         offset="1"
         id="stop3249" /></linearGradient></defs><path
     d="M 2,12 C 2,4.5 4.5,2 12,2 19.5,2 22,4.5 22,12 22,19.5 19.5,22 12,22 4.5,22 2,19.5 2,12"
     style="fill:url(#linearGradient11098);fill-opacity:1;stroke-width:0.1"
     id="path311" /><rect
     style="fill:#ffffff;fill-opacity:1;stroke-width:0.724569;stroke-linecap:round;stroke-linejoin:round"
     id="rect3064"
     width="14"
     height="12"
     x="5"
     y="6"
     ry="1.5" /><path
     id="path1251"
     style="fill:#3a7af3;fill-opacity:1;stroke-width:0.50001;stroke-linecap:round"
     d="M 7,7 C 6.447722,7 6.000009,7.447713 6,8 6.000009,8.552288 6.447722,9 7,9 7.552278,9 7.999991,8.552288 8,8 7.999991,7.447713 7.552278,7 7,7 Z m 0,3 c -0.552278,0 -0.999991,0.447713 -1,1 10e-6,0.552287 0.447722,1 1,1 0.552278,0 0.99999,-0.447713 1,-1 -9e-6,-0.552287 -0.447722,-1 -1,-1 z"
     sodipodi:nodetypes="scscsscscs" /><rect
     style="fill:#1c5cd7;fill-opacity:1;stroke-width:1.5;stroke-linecap:round"
     id="rect524"
     width="12"
     height="1"
     x="6"
     y="16"
     ry="0.5" /></svg>
