<?xml version="1.0" encoding="UTF-8" standalone="no"?>
<!-- Created with Inkscape (http://www.inkscape.org/) -->

<svg
   width="24"
   height="24"
   viewBox="0 0 24 24"
   version="1.1"
   id="svg371"
   xml:space="preserve"
   inkscape:version="1.2.2 (1:1.2.2+202305151914+b0a8486541)"
   sodipodi:docname="folder-home.svg"
   xmlns:inkscape="http://www.inkscape.org/namespaces/inkscape"
   xmlns:sodipodi="http://sodipodi.sourceforge.net/DTD/sodipodi-0.dtd"
   xmlns="http://www.w3.org/2000/svg"
   xmlns:svg="http://www.w3.org/2000/svg"><sodipodi:namedview
   id="namedview373"
   pagecolor="#ffffff"
   bordercolor="#000000"
   borderopacity="0.25"
   inkscape:showpageshadow="2"
   inkscape:pageopacity="0.0"
   inkscape:pagecheckerboard="0"
   inkscape:deskcolor="#d1d1d1"
   inkscape:document-units="px"
   showgrid="false"
   inkscape:zoom="33.583333"
   inkscape:cx="11.985112"
   inkscape:cy="12"
   inkscape:window-width="1920"
   inkscape:window-height="1008"
   inkscape:window-x="0"
   inkscape:window-y="0"
   inkscape:window-maximized="1"
   inkscape:current-layer="svg371"
   showguides="false" />
    <defs
   id="defs368">
        <style
   id="current-color-scheme"
   type="text/css">
         .ColorScheme-Text { color:#4d4d4d; }
        </style>
    </defs>
    <path
   id="path967"
   style="fill:currentColor;fill-opacity:1;stroke:none;stroke-width:2;stroke-linecap:round;stroke-linejoin:round;-inkscape-stroke:none"
   class="ColorScheme-Text"
   d="m 12.000004,4.047 c -0.76685,0 -1.533491,0.2952089 -2.121094,0.8828125 L 4.9296913,9.8790312 C 4.0462109,10.647539 3.9995078,10.891522 4.0000038,12.000125 v 6 c 0,1.104563 0.8954364,2 2,2 h 2 a 1,1 0 0 0 1,-1 v -6 c 0,-0.553996 0.446003,-1 1.0000002,-1 h 4 c 0.553995,0 1,0.446004 1,1 v 6 a 1,1 0 0 0 1,1 h 2 c 1.104564,0 2,-0.895437 2,-2 v -6 c -0.0652,-1.138809 -0.238257,-1.404927 -0.929688,-2.1210938 L 14.121098,4.9298125 C 13.533493,4.3422089 12.766854,4.047 12.000004,4.047 Z m 0,1 c 0.510212,0 1.01556,0.1913406 1.414062,0.5898438 l 4.9375,4.9375002 c 0.656719,0.680214 0.591644,0.453975 0.648438,1.464843 v 5.960938 c 0,0.564121 -0.435878,1 -1,1 h -2 v -6 c 0,-1.107995 -0.892005,-2 -2,-2 h -4 c -1.1079947,0 -2.0000002,0.892005 -2.0000002,2 v 6 h -2 c -0.5641233,0 -1,-0.435879 -1,-1 v -6 c -2.417e-4,-0.540225 0.030688,-0.739045 0.058594,-0.806641 0.027906,-0.0676 0.1185571,-0.204958 0.5273437,-0.560546 a 1.0001,1.0001 0 0 0 0.050781,-0.04687 L 10.585941,5.6368438 C 10.984443,5.2383407 11.489792,5.047 12.000004,5.047 Z" />
    </svg>
