<?xml version="1.0" encoding="UTF-8" standalone="no"?>
<!-- Created with Inkscape (http://www.inkscape.org/) -->

<svg
   width="24"
   height="24"
   viewBox="0 0 24 24"
   version="1.1"
   id="svg5"
   inkscape:version="1.2.2 (1:1.2.2+202305151914+b0a8486541)"
   sodipodi:docname="folder-videos.svg"
   xmlns:inkscape="http://www.inkscape.org/namespaces/inkscape"
   xmlns:sodipodi="http://sodipodi.sourceforge.net/DTD/sodipodi-0.dtd"
   xmlns="http://www.w3.org/2000/svg"
   xmlns:svg="http://www.w3.org/2000/svg">
  <sodipodi:namedview
     id="namedview7"
     pagecolor="#ffffff"
     bordercolor="#000000"
     borderopacity="0.25"
     inkscape:showpageshadow="2"
     inkscape:pageopacity="0.0"
     inkscape:pagecheckerboard="0"
     inkscape:deskcolor="#d1d1d1"
     inkscape:document-units="px"
     showgrid="false"
     inkscape:zoom="33.583333"
     inkscape:cx="11.985112"
     inkscape:cy="12"
     inkscape:window-width="1920"
     inkscape:window-height="1008"
     inkscape:window-x="0"
     inkscape:window-y="0"
     inkscape:window-maximized="1"
     inkscape:current-layer="svg5" />
  <defs
     id="defs2">
    <style
       id="current-color-scheme"
       type="text/css">
         .ColorScheme-Text { color:#4d4d4d; }
        </style>
  </defs>
  <path
     d="M 5.9999998,4 C 4.8919998,4 4,4.892 4,6 v 12 c 0,1.108 0.8919998,2 1.9999998,2 H 17.999999 c 1.107999,0 1.999999,-0.892 1.999999,-2 V 6 c 0,-1.108 -0.892,-2 -1.999999,-2 z m 0,1 H 17.999999 c 0.553999,0 0.999999,0.446 0.999999,1 v 12 c 0,0.554 -0.446,1 -0.999999,1 H 5.9999998 c -0.554,0 -1,-0.446 -1,-1 V 6 c 0,-0.554 0.446,-1 1,-1 z M 9.0117183,6.9980469 C 8.8353202,6.9958204 8.6614717,7.0402934 8.507812,7.126953 8.1930904,7.3039955 7.9982471,7.6369462 7.9980464,7.9980468 v 8.0000002 c 5.757e-4,0.776534 0.8473463,1.256188 1.5136721,0.857422 l 7.0039055,-3.998001 c 0.642737,-0.389223 0.642737,-1.321714 0,-1.710937 L 9.5117185,7.1406251 C 9.3605374,7.0498484 9.1880398,7.0006616 9.0117183,6.9980469 Z m -0.011717,1.0019532 6.9999997,4.0000459 -6.9999997,3.999953 z"
     style="fill:currentColor;fill-opacity:1;stroke:none;stroke-width:4.31947;stroke-linecap:round;stroke-miterlimit:4;stroke-dasharray:none"
     class="ColorScheme-Text"
     id="path342"
     sodipodi:nodetypes="ssssssssssssssssssccccccccccccc" />
</svg>
