<?xml version="1.0" encoding="UTF-8" standalone="no"?>
<!-- Created with Inkscape (http://www.inkscape.org/) -->

<svg
   width="24"
   height="24"
   viewBox="0 0 24 24"
   version="1.1"
   id="svg371"
   xml:space="preserve"
   inkscape:version="1.2.2 (1:1.2.2+202305151914+b0a8486541)"
   sodipodi:docname="folder-default-documents.svg"
   xmlns:inkscape="http://www.inkscape.org/namespaces/inkscape"
   xmlns:sodipodi="http://sodipodi.sourceforge.net/DTD/sodipodi-0.dtd"
   xmlns:xlink="http://www.w3.org/1999/xlink"
   xmlns="http://www.w3.org/2000/svg"
   xmlns:svg="http://www.w3.org/2000/svg"><sodipodi:namedview
     id="namedview373"
     pagecolor="#ffffff"
     bordercolor="#000000"
     borderopacity="0.25"
     inkscape:showpageshadow="2"
     inkscape:pageopacity="0.0"
     inkscape:pagecheckerboard="0"
     inkscape:deskcolor="#d1d1d1"
     inkscape:document-units="px"
     showgrid="false"
     inkscape:zoom="33.583333"
     inkscape:cx="12"
     inkscape:cy="12"
     inkscape:window-width="1920"
     inkscape:window-height="1008"
     inkscape:window-x="0"
     inkscape:window-y="0"
     inkscape:window-maximized="1"
     inkscape:current-layer="svg371"
     showguides="false" /><defs
     id="defs368"><linearGradient
       inkscape:collect="always"
       xlink:href="#linearGradient7272"
       id="linearGradient3251"
       x1="16"
       y1="31"
       x2="16"
       y2="1"
       gradientUnits="userSpaceOnUse"
       gradientTransform="matrix(0.66666668,0,0,0.66666668,1.3333332,1.3333333)" /><linearGradient
       inkscape:collect="always"
       id="linearGradient7272"><stop
         style="stop-color:#637588;stop-opacity:1;"
         offset="0"
         id="stop7268" /><stop
         style="stop-color:#8aa8bd;stop-opacity:1;"
         offset="1"
         id="stop7270" /></linearGradient></defs><path
     d="M 2,12 C 2,4.5 4.5,2 12,2 19.5,2 22,4.5 22,12 22,19.5 19.5,22 12,22 4.5,22 2,19.5 2,12"
     style="fill:url(#linearGradient3251);fill-opacity:1;stroke-width:0.1"
     id="path311" /><path
     d="M 9,5 C 7.338004,5 6,6.338004 6,8 v 8 c 0,1.661996 1.338004,3 3,3 h 6 c 1.661996,0 3,-1.338004 3,-3 V 10 L 13,5 Z m 0,2 h 3 v 2 c 0,1.107999 0.892001,2 2,2 h 2 v 5 c 0,0.553998 -0.446002,1 -1,1 H 9 C 8.446002,17 8,16.553998 8,16 V 8 C 8,7.446002 8.446002,7 9,7 Z"
     style="fill:#ffffff;stroke-linecap:round;stroke-linejoin:round"
     id="path8132"
     sodipodi:nodetypes="ssssssccsscsscssssss" /></svg>
