<?xml version="1.0" encoding="UTF-8" standalone="no"?>
<!-- Created with Inkscape (http://www.inkscape.org/) -->

<svg
   width="24"
   height="24"
   viewBox="0 0 24 24"
   version="1.1"
   id="svg371"
   xml:space="preserve"
   inkscape:version="1.2.2 (1:1.2.2+202305151914+b0a8486541)"
   sodipodi:docname="folder-default-recent.svg"
   xmlns:inkscape="http://www.inkscape.org/namespaces/inkscape"
   xmlns:sodipodi="http://sodipodi.sourceforge.net/DTD/sodipodi-0.dtd"
   xmlns:xlink="http://www.w3.org/1999/xlink"
   xmlns="http://www.w3.org/2000/svg"
   xmlns:svg="http://www.w3.org/2000/svg"><sodipodi:namedview
     id="namedview373"
     pagecolor="#ffffff"
     bordercolor="#000000"
     borderopacity="0.25"
     inkscape:showpageshadow="2"
     inkscape:pageopacity="0.0"
     inkscape:pagecheckerboard="0"
     inkscape:deskcolor="#d1d1d1"
     inkscape:document-units="px"
     showgrid="false"
     inkscape:zoom="33.583333"
     inkscape:cx="11.985112"
     inkscape:cy="12"
     inkscape:window-width="1920"
     inkscape:window-height="1008"
     inkscape:window-x="0"
     inkscape:window-y="0"
     inkscape:window-maximized="1"
     inkscape:current-layer="svg371"
     showguides="false" /><defs
     id="defs368"><linearGradient
       inkscape:collect="always"
       id="linearGradient1836"><stop
         style="stop-color:#f69000;stop-opacity:1;"
         offset="0"
         id="stop1832" /><stop
         style="stop-color:#f9a900;stop-opacity:1;"
         offset="1"
         id="stop1834" /></linearGradient><linearGradient
       inkscape:collect="always"
       xlink:href="#linearGradient1836"
       id="linearGradient15761"
       x1="24"
       y1="46"
       x2="24"
       y2="2"
       gradientUnits="userSpaceOnUse"
       gradientTransform="matrix(0.45454545,0,0,0.45454545,1.0909091,1.0909091)" /></defs><path
     d="M 2,12 C 2,4.5 4.5,2 12,2 19.5,2 22,4.5 22,12 22,19.5 19.5,22 12,22 4.5,22 2,19.5 2,12"
     style="fill:url(#linearGradient15761);fill-opacity:1;stroke-width:0.1"
     id="path311" /><path
     id="path3931"
     style="fill:#ffffff;fill-opacity:1;stroke-width:1.4;stroke-linecap:round;stroke-linejoin:round"
     d="m 12,5 c -3.865985,0 -7,3.134015 -7,7 0,3.865985 3.134015,7 7,7 3.865985,0 7,-3.134015 7,-7 0,-3.865985 -3.134015,-7 -7,-7 z m 0,2 c 0.553997,0 1,0.446003 1,1 v 3.583984 l 1.951172,1.953125 c 0.391735,0.391737 0.391735,1.022326 0,1.414063 -0.391737,0.391735 -1.022285,0.391696 -1.414063,0 l -2.24414,-2.244141 c -0.02282,-0.02282 -0.04429,-0.04597 -0.06445,-0.07031 -0.0015,-0.0018 -0.0024,-0.004 -0.0039,-0.0059 -0.03888,-0.04783 -0.07392,-0.09968 -0.103515,-0.154297 -0.0021,-0.0039 -0.0038,-0.0078 -0.0059,-0.01172 -0.01513,-0.02882 -0.0287,-0.05747 -0.04102,-0.08789 -0.01046,-0.02571 -0.02107,-0.0518 -0.0293,-0.07813 -9.57e-4,-0.0031 -9.53e-4,-0.0067 -0.002,-0.0098 -0.0039,-0.01302 -0.0083,-0.02592 -0.01172,-0.03906 -0.0044,-0.01716 -0.0082,-0.03523 -0.01172,-0.05273 -0.0063,-0.03148 -0.01042,-0.06385 -0.01367,-0.0957 -0.0033,-0.03368 -0.0058,-0.06753 -0.0058,-0.101494 V 8 c 0,-0.553997 0.446003,-1 1,-1 z" /></svg>
