<?xml version="1.0" encoding="UTF-8" standalone="no"?>
<!-- Created with Inkscape (http://www.inkscape.org/) -->

<svg
   width="16"
   height="16"
   viewBox="0 0 16 16"
   version="1.1"
   id="svg371"
   xml:space="preserve"
   inkscape:version="1.2.2 (1:1.2.2+202305151914+b0a8486541)"
   sodipodi:docname="configure.svg"
   xmlns:inkscape="http://www.inkscape.org/namespaces/inkscape"
   xmlns:sodipodi="http://sodipodi.sourceforge.net/DTD/sodipodi-0.dtd"
   xmlns="http://www.w3.org/2000/svg"
   xmlns:svg="http://www.w3.org/2000/svg"><sodipodi:namedview
   id="namedview373"
   pagecolor="#ffffff"
   bordercolor="#000000"
   borderopacity="0.25"
   inkscape:showpageshadow="2"
   inkscape:pageopacity="0.0"
   inkscape:pagecheckerboard="0"
   inkscape:deskcolor="#d1d1d1"
   inkscape:document-units="px"
   showgrid="false"
   inkscape:zoom="50.375"
   inkscape:cx="8"
   inkscape:cy="8"
   inkscape:window-width="1920"
   inkscape:window-height="1008"
   inkscape:window-x="0"
   inkscape:window-y="0"
   inkscape:window-maximized="1"
   inkscape:current-layer="svg371"
   showguides="false" />
    <defs
   id="defs368">
        <style
   id="current-color-scheme"
   type="text/css">
         .ColorScheme-Text { color:#dfdfdf; }
        </style>
    </defs>
    
    <path
   id="path1430"
   style="fill:currentColor;stroke-width:2;stroke-linecap:round;stroke-linejoin:round;-inkscape-stroke:none;stroke:none"
   class="ColorScheme-Text"
   d="M 7 0 C 6.4460032 0 6.1160787 0.45830028 6 1 L 5.4472656 3.578125 L 2.9375 2.7675781 C 2.4233728 2.5612137 1.8492641 2.65499 1.5722656 3.1347656 L 0.57226562 4.8652344 C 0.29526698 5.3450099 0.52641352 5.8610447 0.9375 6.2324219 L 2.8945312 8 L 0.9375 9.7675781 C 0.52641302 10.138956 0.29526698 10.654989 0.57226562 11.134766 L 1.5722656 12.865234 C 1.8492641 13.345012 2.4233735 13.438788 2.9375 13.232422 L 5.4472656 12.421875 L 6 15 C 6.0783499 15.548428 6.4460032 16 7 16 L 9 16 C 9.5539986 16 9.8839212 15.541699 10 15 L 10.552734 12.421875 L 13.0625 13.232422 C 13.576624 13.438788 14.150737 13.34502 14.427734 12.865234 L 15.427734 11.134766 C 15.704734 10.654989 15.473604 10.138956 15.0625 9.7675781 L 13.105469 8 L 15.0625 6.2324219 C 15.473588 5.8610447 15.704734 5.3450099 15.427734 4.8652344 L 14.427734 3.1347656 C 14.150737 2.65499 13.576625 2.5612137 13.0625 2.7675781 L 10.552734 3.578125 L 10 1 C 9.9216502 0.4515708 9.5539986 0 9 0 L 7 0 z M 7.0625 1 L 8.9589844 1 C 8.9704704 1.016525 8.9978086 1.0569271 9.0097656 1.140625 A 1.0001 1.0001 0 0 0 9.0214844 1.2089844 L 9.5761719 3.7871094 A 1.0001 1.0001 0 0 0 10.861328 4.5292969 L 13.369141 3.71875 A 1.0001 1.0001 0 0 0 13.435547 3.6953125 C 13.513547 3.6640035 13.561582 3.6682629 13.582031 3.6699219 L 14.53125 5.3125 C 14.51746 5.341057 14.48397 5.4076671 14.392578 5.4902344 L 12.435547 7.2578125 A 1.0001 1.0001 0 0 0 12.435547 8.7421875 L 14.392578 10.509766 C 14.483978 10.592326 14.517467 10.658948 14.53125 10.6875 L 13.582031 12.330078 C 13.561581 12.331778 13.513551 12.335977 13.435547 12.304688 A 1.0001 1.0001 0 0 0 13.369141 12.28125 L 10.861328 11.470703 A 1.0001 1.0001 0 0 0 9.5761719 12.212891 L 9.0214844 14.791016 C 8.9956308 14.911665 8.9552503 14.973963 8.9375 15 L 7.0410156 15 C 7.0295296 14.98348 7.0021914 14.94307 6.9902344 14.859375 A 1.0001 1.0001 0 0 0 6.9785156 14.791016 L 6.4238281 12.212891 A 1.0001 1.0001 0 0 0 5.1386719 11.470703 L 2.6308594 12.28125 A 1.0001 1.0001 0 0 0 2.5644531 12.304688 C 2.4864512 12.335997 2.4384171 12.331738 2.4179688 12.330078 L 1.46875 10.6875 C 1.482536 10.65894 1.5160251 10.59233 1.6074219 10.509766 L 3.5644531 8.7421875 A 1.0001 1.0001 0 0 0 3.5644531 7.2578125 L 1.6074219 5.4902344 C 1.5160256 5.4076667 1.4825356 5.3410578 1.46875 5.3125 L 2.4179688 3.6699219 C 2.4384177 3.6682619 2.4864499 3.6640015 2.5644531 3.6953125 A 1.0001 1.0001 0 0 0 2.6308594 3.71875 L 5.1386719 4.5292969 A 1.0001 1.0001 0 0 0 6.4238281 3.7871094 L 6.9785156 1.2089844 C 7.0043689 1.0883362 7.0447493 1.026037 7.0625 1 z M 8 5 C 6.343151 5 5 6.3431512 5 8 C 5 9.6568486 6.343151 11 8 11 C 9.6568487 11 11 9.6568486 11 8 C 11 6.3431512 9.6568487 5 8 5 z M 8 6 C 9.1045659 6 10 6.895434 10 8 C 10 9.104566 9.1045659 10 8 10 C 6.8954338 10 6 9.104566 6 8 C 6 6.895434 6.8954338 6 8 6 z " /></svg>
