<?xml version="1.0" encoding="UTF-8" standalone="no"?>
<!-- Created with Inkscape (http://www.inkscape.org/) -->

<svg
   width="16"
   height="16"
   viewBox="0 0 16 16"
   version="1.1"
   id="svg405"
   inkscape:version="1.2.2 (1:1.2.2+202305151914+b0a8486541)"
   sodipodi:docname="fcitx-hangul.svg"
   xmlns:inkscape="http://www.inkscape.org/namespaces/inkscape"
   xmlns:sodipodi="http://sodipodi.sourceforge.net/DTD/sodipodi-0.dtd"
   xmlns="http://www.w3.org/2000/svg"
   xmlns:svg="http://www.w3.org/2000/svg">
  <sodipodi:namedview
     id="namedview407"
     pagecolor="#ffffff"
     bordercolor="#000000"
     borderopacity="0.25"
     inkscape:showpageshadow="2"
     inkscape:pageopacity="0.0"
     inkscape:pagecheckerboard="0"
     inkscape:deskcolor="#d1d1d1"
     inkscape:document-units="px"
     showgrid="false"
     inkscape:zoom="50.375"
     inkscape:cx="7.9900744"
     inkscape:cy="8"
     inkscape:window-width="1920"
     inkscape:window-height="1008"
     inkscape:window-x="0"
     inkscape:window-y="0"
     inkscape:window-maximized="1"
     inkscape:current-layer="svg405" />
  <defs
     id="defs402">
    <style
       id="current-color-scheme"
       type="text/css">
         .ColorScheme-Text { color:#dfdfdf; }
        </style>
  </defs>
  <path
     d="M 3,1 C 1.8920033,1 1,1.8920033 1,3 v 10 c 0,1.107997 0.8920033,2 2,2 h 10 c 1.107997,0 2,-0.892003 2,-2 V 3 C 15,1.8920033 14.107997,1 13,1 Z m 0,1 h 10 c 0.553998,0 1,0.4460012 1,1 v 10 c 0,0.553998 -0.446002,1 -1,1 H 3 C 2.4460012,14 2,13.553998 2,13 V 3 C 2,2.4460012 2.4460012,2 3,2 Z m 7,1 v 10 h 1 V 8 h 2 V 7 H 11 V 3 Z M 3,5 V 6 H 7 C 7,9.000473 5.1119568,9.784359 3,10 v 1 C 5.6464098,10.628749 8,9.904731 8,6 V 5 Z"
     style="fill:currentColor;fill-opacity:1;stroke-linecap:round;stroke-linejoin:round"
     id="path343"
     class="ColorScheme-Text" />
</svg>
