<?xml version="1.0" encoding="UTF-8" standalone="no"?>
<!-- Created with Inkscape (http://www.inkscape.org/) -->

<svg
   width="16"
   height="16"
   viewBox="0 0 16 16"
   version="1.1"
   id="svg405"
   inkscape:version="1.2.2 (1:1.2.2+202305151914+b0a8486541)"
   sodipodi:docname="system-lock-screen.svg"
   xmlns:inkscape="http://www.inkscape.org/namespaces/inkscape"
   xmlns:sodipodi="http://sodipodi.sourceforge.net/DTD/sodipodi-0.dtd"
   xmlns="http://www.w3.org/2000/svg"
   xmlns:svg="http://www.w3.org/2000/svg">
  <sodipodi:namedview
     id="namedview407"
     pagecolor="#ffffff"
     bordercolor="#000000"
     borderopacity="0.25"
     inkscape:showpageshadow="2"
     inkscape:pageopacity="0.0"
     inkscape:pagecheckerboard="0"
     inkscape:deskcolor="#d1d1d1"
     inkscape:document-units="px"
     showgrid="false"
     inkscape:zoom="50.375"
     inkscape:cx="8"
     inkscape:cy="8"
     inkscape:window-width="1920"
     inkscape:window-height="1008"
     inkscape:window-x="0"
     inkscape:window-y="0"
     inkscape:window-maximized="1"
     inkscape:current-layer="svg405" />
  <defs
     id="defs402">
    <style
       id="current-color-scheme"
       type="text/css">
         .ColorScheme-Text { color:#dfdfdf; }
        </style>
  </defs>
  <path
     id="path343"
     style="fill:currentColor;fill-opacity:1;stroke-linecap:round;stroke-linejoin:round"
     class="ColorScheme-Text"
     d="M 8 1 A 3 3 0 0 0 5 4 L 5 7 L 4 7 C 2.8920055 7 2 7.8920055 2 9 L 2 13 C 2 14.107995 2.8920055 15 4 15 L 12 15 C 13.107995 15 14 14.107995 14 13 L 14 9 C 14 7.8920055 13.107995 7 12 7 L 11 7 L 11 4 A 3 3 0 0 0 8 1 z M 8 2 A 2 2 0 0 1 10 4 L 10 7 L 6 7 L 6 4 A 2 2 0 0 1 8 2 z M 4 8 L 12 8 C 12.553996 8 13 8.4460024 13 9 L 13 13 C 13 13.553996 12.553996 14 12 14 L 4 14 C 3.4460024 14 3 13.553996 3 13 L 3 9 C 3 8.4460024 3.4460024 8 4 8 z " />
</svg>
