<?xml version="1.0" encoding="UTF-8" standalone="no"?>
<!-- Created with Inkscape (http://www.inkscape.org/) -->

<svg
   width="24"
   height="24"
   viewBox="0 0 24 24"
   version="1.1"
   id="svg371"
   xml:space="preserve"
   inkscape:version="1.2.2 (1:1.2.2+202305151914+b0a8486541)"
   sodipodi:docname="applications-internet.svg"
   xmlns:inkscape="http://www.inkscape.org/namespaces/inkscape"
   xmlns:sodipodi="http://sodipodi.sourceforge.net/DTD/sodipodi-0.dtd"
   xmlns:xlink="http://www.w3.org/1999/xlink"
   xmlns="http://www.w3.org/2000/svg"
   xmlns:svg="http://www.w3.org/2000/svg"><sodipodi:namedview
     id="namedview373"
     pagecolor="#ffffff"
     bordercolor="#000000"
     borderopacity="0.25"
     inkscape:showpageshadow="2"
     inkscape:pageopacity="0.0"
     inkscape:pagecheckerboard="0"
     inkscape:deskcolor="#d1d1d1"
     inkscape:document-units="px"
     showgrid="false"
     inkscape:zoom="33.583333"
     inkscape:cx="12"
     inkscape:cy="12"
     inkscape:window-width="1920"
     inkscape:window-height="1008"
     inkscape:window-x="0"
     inkscape:window-y="0"
     inkscape:window-maximized="1"
     inkscape:current-layer="svg371"
     showguides="false" /><defs
     id="defs368"><linearGradient
       inkscape:collect="always"
       id="linearGradient1258"><stop
         style="stop-color:#583cbb;stop-opacity:1;"
         offset="0"
         id="stop1254" /><stop
         style="stop-color:#9370c9;stop-opacity:1;"
         offset="1"
         id="stop1256" /></linearGradient><linearGradient
       inkscape:collect="always"
       xlink:href="#linearGradient1258"
       id="linearGradient3040"
       x1="32"
       y1="62"
       x2="32"
       y2="2"
       gradientUnits="userSpaceOnUse"
       gradientTransform="matrix(0.33333334,0,0,0.33333334,1.3333334,1.3333334)" /></defs><path
     d="M 2,12 C 2,4.5 4.5,2 12,2 19.5,2 22,4.5 22,12 22,19.5 19.5,22 12,22 4.5,22 2,19.5 2,12"
     style="fill:url(#linearGradient3040);fill-opacity:1;stroke-width:0.1"
     id="path311" /><circle
     style="fill:#ffffff;stroke-width:2.24999;stroke-linecap:round;stroke-linejoin:round"
     id="path898"
     cx="12.00023"
     cy="11.99999"
     r="5.9999876" /><ellipse
     style="fill:#483b8e;fill-opacity:1;stroke-width:2.00466;stroke-linecap:round;stroke-linejoin:round"
     id="path952"
     cx="15.380766"
     cy="7.1719823"
     rx="7.8990002"
     ry="3.687"
     transform="rotate(20)" /><path
     id="path898-3"
     style="fill:#ffffff;stroke-width:2.24999;stroke-linecap:round;stroke-linejoin:round"
     d="M 12.00023,6.0000021 C 9.4843807,6.0007736 7.2361705,7.5709895 6.369382,9.9328071 l 0.00236,0.0012 a 5.9999875,1.7999962 20 0 0 -0.00937,0.014057 5.9999875,1.7999962 20 0 0 5.022647,3.7429609 5.9999875,1.7999962 20 0 0 6.253112,0.360937 5.9999875,1.7999962 20 0 0 0.0046,-0.01641 c 0.236047,-0.652758 0.356982,-1.34149 0.35749,-2.035569 C 18.00022,8.6862898 15.31393,6 12.000233,6 Z" /></svg>
