<?xml version="1.0" encoding="UTF-8" standalone="no"?>
<!-- Created with Inkscape (http://www.inkscape.org/) -->

<svg
   width="16"
   height="16"
   viewBox="0 0 16 16"
   version="1.1"
   id="svg11945"
   inkscape:version="1.2.2 (1:1.2.2+202305151914+b0a8486541)"
   sodipodi:docname="folder-desktop.svg"
   xmlns:inkscape="http://www.inkscape.org/namespaces/inkscape"
   xmlns:sodipodi="http://sodipodi.sourceforge.net/DTD/sodipodi-0.dtd"
   xmlns="http://www.w3.org/2000/svg"
   xmlns:svg="http://www.w3.org/2000/svg">
  <sodipodi:namedview
     id="namedview11947"
     pagecolor="#ffffff"
     bordercolor="#666666"
     borderopacity="1.0"
     inkscape:pageshadow="2"
     inkscape:pageopacity="0.0"
     inkscape:pagecheckerboard="0"
     inkscape:document-units="px"
     showgrid="false"
     units="in"
     inkscape:zoom="50.375"
     inkscape:cx="8"
     inkscape:cy="8"
     inkscape:window-width="1920"
     inkscape:window-height="1008"
     inkscape:window-x="0"
     inkscape:window-y="0"
     inkscape:window-maximized="1"
     inkscape:current-layer="svg11945"
     showguides="true"
     inkscape:showpageshadow="2"
     inkscape:deskcolor="#d1d1d1" />
  <defs
     id="defs11942">
    <style
       id="current-color-scheme"
       type="text/css">
         .ColorScheme-Text { color:#dfdfdf; }
        </style>
  </defs>
  <path
     id="path4457"
     style="fill:currentColor;stroke-width:5.00003;stroke-linecap:round;stroke-linejoin:round"
     class="ColorScheme-Text"
     d="M 3.0000005,2 C 1.892006,2 1.0000004,2.892006 1.0000004,3.9999999 V 12 c 0,1.107994 0.8920056,2 2.0000001,2 H 13 c 1.107996,0 2,-0.892006 2,-2 V 3.9999999 C 15,2.892006 14.107996,2 13,2 Z m 0,1 H 13 c 0.553998,0 1.000001,0.4460032 1.000001,0.9999999 V 12 c 0,0.553998 -0.446003,1 -1.000001,1 H 3.0000005 c -0.5539973,0 -1,-0.446002 -1,-1 V 3.9999999 C 2.0000005,3.4460032 2.4460032,3 3.0000005,3 Z M 4.0000002,3.9999999 A 1.0000001,1.0000001 0 0 0 3.0000005,5.0000001 1.0000001,1.0000001 0 0 0 4.0000002,6.0000002 1.0000001,1.0000001 0 0 0 5.0000007,5.0000001 1.0000001,1.0000001 0 0 0 4.0000002,3.9999999 Z m 0,3 A 1.0000001,1.0000001 0 0 0 3.0000005,8 1.0000001,1.0000001 0 0 0 4.0000002,9.0000001 1.0000001,1.0000001 0 0 0 5.0000007,8 1.0000001,1.0000001 0 0 0 4.0000002,6.9999999 Z M 3.0000005,11 v 1 H 13 v -1 z" />
</svg>
