<?xml version="1.0" encoding="UTF-8" standalone="no"?>
<!-- Created with Inkscape (http://www.inkscape.org/) -->

<svg
   width="16"
   height="16"
   viewBox="0 0 16 16"
   version="1.1"
   id="svg5"
   inkscape:version="1.2.2 (1:1.2.2+202305151914+b0a8486541)"
   sodipodi:docname="folder-yellow.svg"
   xmlns:inkscape="http://www.inkscape.org/namespaces/inkscape"
   xmlns:sodipodi="http://sodipodi.sourceforge.net/DTD/sodipodi-0.dtd"
   xmlns="http://www.w3.org/2000/svg"
   xmlns:svg="http://www.w3.org/2000/svg">
  <sodipodi:namedview
     id="namedview7"
     pagecolor="#ffffff"
     bordercolor="#000000"
     borderopacity="0.25"
     inkscape:showpageshadow="2"
     inkscape:pageopacity="0.0"
     inkscape:pagecheckerboard="0"
     inkscape:deskcolor="#d1d1d1"
     inkscape:document-units="px"
     showgrid="false"
     inkscape:zoom="50.375"
     inkscape:cx="8.0198511"
     inkscape:cy="8"
     inkscape:window-width="1920"
     inkscape:window-height="1008"
     inkscape:window-x="0"
     inkscape:window-y="0"
     inkscape:window-maximized="1"
     inkscape:current-layer="svg5" />
  <defs
     id="defs2">
        <style
            id="current-color-scheme"
            type="text/css">
         .ColorScheme-Text { color:#4d4d4d; }
        </style>
    </defs>
  <path
     id="rect788"
     style="fill:#f9bd30;stroke:none"
     d="M 3,2 C 1.8920011,2 1,2.8920011 1,4 v 9 c 0,1.107999 0.8920011,2 2,2 h 10 c 1.107999,0 2,-0.892001 2,-2 V 6 C 15,4.8920011 14.107999,3.9999743 13,4 L 8.5001827,4.0000811 7.6538938,2.6539188 C 7.081471,2.0378677 6.8099826,2 6,2 Z M 3,3 H 6 C 6.5508358,2.99717 6.6295835,3.1117884 6.911772,3.4117972 L 7.525828,4.5257266 C 7.9163641,4.9449989 8.1943625,5.0027461 8.8101719,5.0000811 L 13,5 c 0.673592,-0.00213 1.012178,0.3007595 1,1 v 7 c 0,0.553999 -0.446001,1 -1,1 H 3 C 2.4460006,14 2,13.553999 2,13 V 4 C 2,3.4460006 2.4460006,3 3,3 Z"
     sodipodi:nodetypes="sssssssscccssccccccssssss" />
</svg>
