<?xml version="1.0" encoding="UTF-8" standalone="no"?>
<!-- Created with Inkscape (http://www.inkscape.org/) -->

<svg
   width="16"
   height="16"
   viewBox="0 0 16 16"
   version="1.1"
   id="svg11945"
   inkscape:version="1.2.2 (1:1.2.2+202305151914+b0a8486541)"
   sodipodi:docname="folder-documents.svg"
   xmlns:inkscape="http://www.inkscape.org/namespaces/inkscape"
   xmlns:sodipodi="http://sodipodi.sourceforge.net/DTD/sodipodi-0.dtd"
   xmlns="http://www.w3.org/2000/svg"
   xmlns:svg="http://www.w3.org/2000/svg">
  <sodipodi:namedview
     id="namedview11947"
     pagecolor="#ffffff"
     bordercolor="#666666"
     borderopacity="1.0"
     inkscape:pageshadow="2"
     inkscape:pageopacity="0.0"
     inkscape:pagecheckerboard="0"
     inkscape:document-units="px"
     showgrid="false"
     units="in"
     inkscape:zoom="50.375"
     inkscape:cx="7.82134"
     inkscape:cy="8"
     inkscape:window-width="1920"
     inkscape:window-height="1008"
     inkscape:window-x="0"
     inkscape:window-y="0"
     inkscape:window-maximized="1"
     inkscape:current-layer="svg11945"
     showguides="true"
     inkscape:showpageshadow="2"
     inkscape:deskcolor="#d1d1d1" />
  <defs
     id="defs11942">
    <style
       id="current-color-scheme"
       type="text/css">
         .ColorScheme-Text { color:#dfdfdf; }
        </style>
  </defs>
  <path
     d="M 5.0000002,1 C 3.8919999,1 3,1.892 3,3.0000002 V 13 c 0,1.108 0.8919999,2 2.0000002,2 H 10.999999 C 12.108,15 13,14.108 13,13 V 5.5000003 C 13.0035,4.6594821 12.825642,4.329673 12.5,3.9999999 L 9.9999995,1.5 C 9.5370293,1.0712056 9.195498,1 8.4999995,1 Z m 0,1 H 7.9999994 V 3.9999999 C 7.9999994,5.1079998 8.8919997,6 9.9999995,6 H 12 v 7 c 0,0.554 -0.446,1 -1.000001,1 H 5.0000002 C 4.446,14 3.9999999,13.554 3.9999999,13 V 3.0000002 C 3.9999999,2.4460001 4.446,2 5.0000002,2 Z M 8.9999997,2 12,4.9999998 H 9.9999995 C 9.4459994,4.9999998 8.9999997,4.554 8.9999997,3.9999999 Z"
     style="fill:currentColor;stroke-width:5.00001;stroke-linecap:round;stroke-linejoin:round"
     class="ColorScheme-Text"
     id="path4457" />
</svg>
