<?xml version="1.0" encoding="UTF-8" standalone="no"?>
<!-- Created with Inkscape (http://www.inkscape.org/) -->

<svg
   width="22"
   height="22"
   viewBox="0 0 22 22"
   version="1.1"
   id="svg371"
   xml:space="preserve"
   inkscape:version="1.2.2 (1:1.2.2+202305151914+b0a8486541)"
   sodipodi:docname="applications-graphics.svg"
   xmlns:inkscape="http://www.inkscape.org/namespaces/inkscape"
   xmlns:sodipodi="http://sodipodi.sourceforge.net/DTD/sodipodi-0.dtd"
   xmlns:xlink="http://www.w3.org/1999/xlink"
   xmlns="http://www.w3.org/2000/svg"
   xmlns:svg="http://www.w3.org/2000/svg"><sodipodi:namedview
     id="namedview373"
     pagecolor="#ffffff"
     bordercolor="#000000"
     borderopacity="0.25"
     inkscape:showpageshadow="2"
     inkscape:pageopacity="0.0"
     inkscape:pagecheckerboard="0"
     inkscape:deskcolor="#d1d1d1"
     inkscape:document-units="px"
     showgrid="false"
     inkscape:zoom="37.727273"
     inkscape:cx="10.986747"
     inkscape:cy="11"
     inkscape:window-width="1920"
     inkscape:window-height="1008"
     inkscape:window-x="0"
     inkscape:window-y="0"
     inkscape:window-maximized="1"
     inkscape:current-layer="svg371"
     showguides="false" /><defs
     id="defs368"><linearGradient
       inkscape:collect="always"
       id="linearGradient2222"><stop
         style="stop-color:#8550ec;stop-opacity:1;"
         offset="0"
         id="stop2218" /><stop
         style="stop-color:#7c86fc;stop-opacity:1;"
         offset="1"
         id="stop2220" /></linearGradient><linearGradient
       inkscape:collect="always"
       xlink:href="#linearGradient2222"
       id="linearGradient3251"
       x1="16"
       y1="31"
       x2="16"
       y2="1"
       gradientUnits="userSpaceOnUse"
       gradientTransform="matrix(0.66666666,0,0,0.66666666,0.3333333,0.3333333)" /></defs><path
     d="M 1,11 C 1,3.5 3.5,1 11,1 18.5,1 21,3.5 21,11 21,18.5 18.5,21 11,21 3.5,21 1,18.5 1,11"
     style="fill:url(#linearGradient3251);fill-opacity:1;stroke-width:0.1"
     id="path311" /><path
     id="path295"
     style="fill:#ffffff;stroke-width:0.0838179;opacity:0.5"
     d="M 10.957031 5 C 10.457712 5.0042727 10.040361 5.0579853 9.7480469 5.0957031 C 9.0775075 5.187902 7.776793 5.3547824 6.5195312 6.2851562 C 4.7174561 7.6178538 3.4280193 10.207906 4.2578125 11.431641 C 4.5595552 11.867491 5.0614604 12.035 5.421875 12.152344 C 6.9892614 12.66363 8.0294946 11.608425 8.7167969 12.111328 C 9.3119013 12.547179 8.5490248 13.719604 9.2363281 14.541016 C 9.5632168 14.934957 9.6893903 15.13386 9.8925781 15.111328 C 10.327276 15.115928 13.380859 13.601562 13.380859 13.601562 L 16 7.375 C 15.337842 6.4111002 14.432023 5.9330925 13.9375 5.6816406 C 12.847873 5.1211112 11.789231 4.9928789 10.957031 5 z M 11 6 A 1 1 0 0 1 12 7 A 1 1 0 0 1 11 8 A 1 1 0 0 1 10 7 A 1 1 0 0 1 11 6 z M 8 7 A 1 1 0 0 1 9 8 A 1 1 0 0 1 8 9 A 1 1 0 0 1 7 8 A 1 1 0 0 1 8 7 z M 6 9 A 1 1 0 0 1 7 10 A 1 1 0 0 1 6 11 A 1 1 0 0 1 5 10 A 1 1 0 0 1 6 9 z " /><path
     d="m 11.353106,18.169934 c -0.275216,0.01059 -0.486921,-0.317558 -0.529262,-0.381069 -0.783309,-0.82565 -1.0373546,-2.011198 -0.635115,-3.048553 0.391654,-1.037354 1.280815,-1.49252 1.757151,-1.683054 0.190535,-0.0741 0.40224,-0.05293 0.582189,0.05293 l 1.704225,0.984428 c 0.169364,0.09527 0.190535,0.328143 0.05293,0.465751 -1.02677,0.899746 -1.439595,1.577202 -1.640714,2.064124 -0.190535,0.476336 -0.444581,0.772723 -0.973843,1.354912 -0.04234,0.05293 -0.148194,0.179949 -0.317558,0.190535 z m 3.491387,-5.059639 -1.849507,-1.069813 4.128994,-6.6529829 c 0.226655,-0.3717145 0.71623,-0.4986418 1.097011,-0.2810527 l 0.09066,0.054396 c 0.40798,0.2266552 0.553039,0.7434288 0.326383,1.151409 -1.278335,2.4116117 -2.315751,4.3139006 -3.58502,6.7255116 -0.03626,0.09066 -0.269003,0.01205 -0.208523,0.07253 z"
     style="fill:#ffffff;stroke-width:0.0838179"
     id="path1238"
     sodipodi:nodetypes="sccccccccsscccccccsc" /><path
     id="rect1333"
     style="fill:#5637bb;stroke-width:4;stroke-linecap:square"
     d="m 13.165193,12.138935 1.679298,0.971358 -0.612197,0.984323 -1.704225,-0.984428 z"
     sodipodi:nodetypes="ccccc" /></svg>
