<?xml version="1.0" encoding="UTF-8" standalone="no"?>
<!-- Created with Inkscape (http://www.inkscape.org/) -->

<svg
   width="22"
   height="22"
   viewBox="0 0 22 22"
   version="1.1"
   id="svg371"
   xml:space="preserve"
   inkscape:version="1.2.2 (1:1.2.2+202212051552+b0a8486541)"
   sodipodi:docname="evolution-mail.svg"
   xmlns:inkscape="http://www.inkscape.org/namespaces/inkscape"
   xmlns:sodipodi="http://sodipodi.sourceforge.net/DTD/sodipodi-0.dtd"
   xmlns="http://www.w3.org/2000/svg"
   xmlns:svg="http://www.w3.org/2000/svg"><path
     id="rect898"
     style="fill:#dd6565;fill-opacity:1;stroke-width:2.84605;stroke-linecap:round;stroke-linejoin:round"
     d="M 4,4 C 2.8920011,4 2,4.8920011 2,6 v 10 c 0,1.107999 0.8920011,2 2,2 h 14 c 1.107999,0 2,-0.892001 2,-2 V 6 C 20,4.8920011 19.107999,4 18,4 Z M 5.0429688,6 C 5.2741439,6.00192 5.5055366,6.07858 5.6972656,6.234375 L 11,10.542969 16.302734,6.234375 c 0.438239,-0.3561036 1.087353,-0.3013403 1.455078,0.1230469 0.367727,0.424388 0.311287,1.0540526 -0.126953,1.4101562 L 11.697266,12.587891 C 11.493718,12.753292 11.245146,12.828112 11,12.820312 c -0.245145,0.0078 -0.493718,-0.06702 -0.697266,-0.232421 L 4.3691406,7.7675781 C 3.9309023,7.4114751 3.8744611,6.7818093 4.2421875,6.3574219 4.4490331,6.1187035 4.745744,5.9975332 5.0429688,6 Z" /><sodipodi:namedview
     id="namedview373"
     pagecolor="#ffffff"
     bordercolor="#000000"
     borderopacity="0.25"
     inkscape:showpageshadow="2"
     inkscape:pageopacity="0.0"
     inkscape:pagecheckerboard="0"
     inkscape:deskcolor="#d1d1d1"
     inkscape:document-units="px"
     showgrid="false"
     inkscape:zoom="36.818182"
     inkscape:cx="10.98642"
     inkscape:cy="11"
     inkscape:window-width="1920"
     inkscape:window-height="1012"
     inkscape:window-x="0"
     inkscape:window-y="0"
     inkscape:window-maximized="1"
     inkscape:current-layer="svg371"
     showguides="false" /><defs
     id="defs368" /></svg>
