<?xml version="1.0" encoding="UTF-8" standalone="no"?>
<!-- Created with Inkscape (http://www.inkscape.org/) -->

<svg
   width="64"
   height="64"
   viewBox="0 0 64 64"
   version="1.1"
   id="svg371"
   xml:space="preserve"
   inkscape:version="1.2.2 (1:1.2.2+202305151914+b0a8486541)"
   sodipodi:docname="input-keyboard.svg"
   xmlns:inkscape="http://www.inkscape.org/namespaces/inkscape"
   xmlns:sodipodi="http://sodipodi.sourceforge.net/DTD/sodipodi-0.dtd"
   xmlns:xlink="http://www.w3.org/1999/xlink"
   xmlns="http://www.w3.org/2000/svg"
   xmlns:svg="http://www.w3.org/2000/svg"><sodipodi:namedview
     id="namedview373"
     pagecolor="#ffffff"
     bordercolor="#000000"
     borderopacity="0.25"
     inkscape:showpageshadow="2"
     inkscape:pageopacity="0.0"
     inkscape:pagecheckerboard="0"
     inkscape:deskcolor="#d1d1d1"
     inkscape:document-units="px"
     showgrid="false"
     inkscape:zoom="12.59375"
     inkscape:cx="32.079404"
     inkscape:cy="32"
     inkscape:window-width="1920"
     inkscape:window-height="1008"
     inkscape:window-x="0"
     inkscape:window-y="0"
     inkscape:window-maximized="1"
     inkscape:current-layer="svg371"
     showguides="true" /><defs
     id="defs368"><linearGradient
       inkscape:collect="always"
       id="linearGradient1186"><stop
         style="stop-color:#097897;stop-opacity:1;"
         offset="0"
         id="stop1182" /><stop
         style="stop-color:#1d9eb8;stop-opacity:1;"
         offset="1"
         id="stop1184" /></linearGradient><linearGradient
       inkscape:collect="always"
       xlink:href="#linearGradient1186"
       id="linearGradient3492"
       x1="32"
       y1="62"
       x2="32"
       y2="2"
       gradientUnits="userSpaceOnUse" /></defs><path
     d="M 2,32 C 2,9.5 9.5,2 32,2 54.5,2 62,9.5 62,32 62,54.5 54.5,62 32,62 9.5,62 2,54.5 2,32"
     style="fill:url(#linearGradient3492);fill-opacity:1;stroke-width:0.3"
     id="path311" /><path
     id="rect924"
     style="fill:#ffffff;stroke-width:4;stroke-linecap:round;stroke-linejoin:round"
     d="m 16,18 c -2.216,0 -4,1.784 -4,4 v 20 c 0,2.216 1.784,4 4,4 h 32 c 2.216,0 4,-1.784 4,-4 V 22 c 0,-2.216 -1.784,-4 -4,-4 z m 2.5,4 C 19.880712,22 21,23.119288 21,24.5 21,25.880712 19.880712,27 18.5,27 17.119288,27 16,25.880712 16,24.5 16,23.119288 17.119288,22 18.5,22 Z m 6.75,0 c 1.380712,0 2.5,1.119288 2.5,2.5 0,1.380712 -1.119288,2.5 -2.5,2.5 -1.380712,0 -2.5,-1.119288 -2.5,-2.5 0,-1.380712 1.119288,-2.5 2.5,-2.5 z M 32,22 c 1.380712,0 2.5,1.119288 2.5,2.5 0,1.380712 -1.119288,2.5 -2.5,2.5 -1.380712,0 -2.5,-1.119288 -2.5,-2.5 0,-1.380712 1.119288,-2.5 2.5,-2.5 z m 6.75,0 c 1.380712,0 2.5,1.119288 2.5,2.5 0,1.380712 -1.119288,2.5 -2.5,2.5 -1.380712,0 -2.5,-1.119288 -2.5,-2.5 0,-1.380712 1.119288,-2.5 2.5,-2.5 z m 6.75,0 C 46.880712,22 48,23.119288 48,24.5 48,25.880712 46.880712,27 45.5,27 44.119288,27 43,25.880712 43,24.5 43,23.119288 44.119288,22 45.5,22 Z m -27,7 C 19.880712,29 21,30.119288 21,31.5 21,32.880712 19.880712,34 18.5,34 17.119288,34 16,32.880712 16,31.5 16,30.119288 17.119288,29 18.5,29 Z m 6.75,0 c 1.380712,0 2.5,1.119288 2.5,2.5 0,1.380712 -1.119288,2.5 -2.5,2.5 -1.380712,0 -2.5,-1.119288 -2.5,-2.5 0,-1.380712 1.119288,-2.5 2.5,-2.5 z M 32,29 c 1.380712,0 2.5,1.119288 2.5,2.5 0,1.380712 -1.119288,2.5 -2.5,2.5 -1.380712,0 -2.5,-1.119288 -2.5,-2.5 0,-1.380712 1.119288,-2.5 2.5,-2.5 z m 6.75,0 c 1.380712,0 2.5,1.119288 2.5,2.5 0,1.380712 -1.119288,2.5 -2.5,2.5 -1.380712,0 -2.5,-1.119288 -2.5,-2.5 0,-1.380712 1.119288,-2.5 2.5,-2.5 z m 6.75,0 C 46.880712,29 48,30.119288 48,31.5 48,32.880712 46.880712,34 45.5,34 44.119288,34 43,32.880712 43,31.5 43,30.119288 44.119288,29 45.5,29 Z"
     sodipodi:nodetypes="sssssssssssssssssssssssssssssssssssssssssssssssssssssssssss" /><rect
     style="fill:#025c80;fill-opacity:1;stroke-width:4.24264;stroke-linecap:round;stroke-linejoin:round"
     id="rect1702"
     width="18"
     height="5"
     x="23"
     y="37" /></svg>
