<?xml version="1.0" encoding="UTF-8" standalone="no"?>
<!-- Created with Inkscape (http://www.inkscape.org/) -->

<svg
   width="48"
   height="48"
   viewBox="0 0 48 48"
   version="1.1"
   id="svg371"
   xml:space="preserve"
   inkscape:version="1.3 (0e150ed6c4, 2023-07-21)"
   sodipodi:docname="application-x-executable.svg"
   xmlns:inkscape="http://www.inkscape.org/namespaces/inkscape"
   xmlns:sodipodi="http://sodipodi.sourceforge.net/DTD/sodipodi-0.dtd"
   xmlns:xlink="http://www.w3.org/1999/xlink"
   xmlns="http://www.w3.org/2000/svg"
   xmlns:svg="http://www.w3.org/2000/svg"><sodipodi:namedview
     id="namedview373"
     pagecolor="#ffffff"
     bordercolor="#000000"
     borderopacity="0.25"
     inkscape:showpageshadow="2"
     inkscape:pageopacity="0.0"
     inkscape:pagecheckerboard="0"
     inkscape:deskcolor="#d1d1d1"
     inkscape:document-units="px"
     showgrid="false"
     inkscape:zoom="16.583333"
     inkscape:cx="23.969849"
     inkscape:cy="24"
     inkscape:window-width="1920"
     inkscape:window-height="1000"
     inkscape:window-x="0"
     inkscape:window-y="0"
     inkscape:window-maximized="1"
     inkscape:current-layer="svg371"
     showguides="true" /><defs
     id="defs368"><linearGradient
       inkscape:collect="always"
       xlink:href="#linearGradient3038"
       id="linearGradient3040"
       x1="32"
       y1="62"
       x2="32"
       y2="2"
       gradientUnits="userSpaceOnUse"
       gradientTransform="matrix(0.73333333,0,0,0.73333333,0.53333333,0.53333333)" /><linearGradient
       inkscape:collect="always"
       id="linearGradient3038"><stop
         style="stop-color:#3f495d;stop-opacity:1;"
         offset="0"
         id="stop3034" /><stop
         style="stop-color:#4f5b70;stop-opacity:1;"
         offset="1"
         id="stop3036" /></linearGradient></defs><path
     d="M 2,24 C 2,7.5 7.5,2 24,2 40.5,2 46,7.5 46,24 46,40.5 40.5,46 24,46 7.5,46 2,40.5 2,24"
     style="fill:url(#linearGradient3040);fill-opacity:1.0;stroke-width:0.22"
     id="path311"
     sodipodi:nodetypes="csssc" /><path
     id="path1179"
     style="fill:#ffffff;fill-opacity:1;stroke-width:3.5;stroke-linecap:round;stroke-linejoin:round"
     d="M 22.25 10 C 21.280505 10 20.703138 10.802023 20.5 11.75 L 19.53125 16.261719 L 15.140625 14.84375 C 14.240902 14.48261 13.234748 14.644772 12.75 15.484375 L 11 18.515625 C 10.515252 19.355234 10.921222 20.256341 11.640625 20.90625 L 15.066406 24 L 11.640625 27.09375 C 10.921224 27.743661 10.515251 28.644766 11 29.484375 L 12.75 32.515625 C 13.234748 33.355236 14.240904 33.51739 15.140625 33.15625 L 19.53125 31.738281 L 20.5 36.25 C 20.63712 37.209751 21.280505 38 22.25 38 L 25.75 38 C 26.719499 38 27.296861 37.197975 27.5 36.25 L 28.46875 31.738281 L 32.859375 33.15625 C 33.759094 33.51739 34.765252 33.35525 35.25 32.515625 L 37 29.484375 C 37.48475 28.644766 37.078798 27.743661 36.359375 27.09375 L 32.933594 24 L 36.359375 20.90625 C 37.078778 20.256341 37.484751 19.355234 37 18.515625 L 35.25 15.484375 C 34.765252 14.644768 33.759096 14.48261 32.859375 14.84375 L 28.46875 16.261719 L 27.5 11.75 C 27.36288 10.790247 26.719499 10 25.75 10 L 22.25 10 z M 24 19 A 5 5 0 0 1 29 24 A 5 5 0 0 1 24 29 A 5 5 0 0 1 19 24 A 5 5 0 0 1 24 19 z " /></svg>
