<?xml version="1.0" encoding="UTF-8" standalone="no"?>
<!-- Created with Inkscape (http://www.inkscape.org/) -->

<svg
   width="48"
   height="48"
   viewBox="0 0 48 48"
   version="1.1"
   id="svg371"
   xml:space="preserve"
   inkscape:version="1.2.2 (1:1.2.2+202305151914+b0a8486541)"
   sodipodi:docname="application-x-plasma.svg"
   xmlns:inkscape="http://www.inkscape.org/namespaces/inkscape"
   xmlns:sodipodi="http://sodipodi.sourceforge.net/DTD/sodipodi-0.dtd"
   xmlns:xlink="http://www.w3.org/1999/xlink"
   xmlns="http://www.w3.org/2000/svg"
   xmlns:svg="http://www.w3.org/2000/svg"><sodipodi:namedview
     id="namedview373"
     pagecolor="#ffffff"
     bordercolor="#000000"
     borderopacity="0.25"
     inkscape:showpageshadow="2"
     inkscape:pageopacity="0.0"
     inkscape:pagecheckerboard="0"
     inkscape:deskcolor="#d1d1d1"
     inkscape:document-units="px"
     showgrid="false"
     inkscape:zoom="16.791667"
     inkscape:cx="24"
     inkscape:cy="24"
     inkscape:window-width="1920"
     inkscape:window-height="1008"
     inkscape:window-x="0"
     inkscape:window-y="0"
     inkscape:window-maximized="1"
     inkscape:current-layer="svg371"
     showguides="true" /><defs
     id="defs368"><linearGradient
       inkscape:collect="always"
       id="linearGradient3519"><stop
         style="stop-color:#e4e4e4;stop-opacity:1;"
         offset="0"
         id="stop3515" /><stop
         style="stop-color:#f1f1f1;stop-opacity:1;"
         offset="1"
         id="stop3517" /></linearGradient><linearGradient
       inkscape:collect="always"
       id="linearGradient933"><stop
         style="stop-color:#2092e9;stop-opacity:1;"
         offset="0"
         id="stop929" /><stop
         style="stop-color:#1ebee9;stop-opacity:1;"
         offset="1"
         id="stop931" /></linearGradient><linearGradient
       inkscape:collect="always"
       xlink:href="#linearGradient3519"
       id="linearGradient3040"
       x1="32"
       y1="62"
       x2="32"
       y2="2"
       gradientUnits="userSpaceOnUse"
       gradientTransform="matrix(0.73333333,0,0,0.73333333,0.53333333,0.53333333)" /><linearGradient
       inkscape:collect="always"
       xlink:href="#linearGradient933"
       id="linearGradient3513"
       x1="24"
       y1="46"
       x2="24"
       y2="2"
       gradientUnits="userSpaceOnUse" /></defs><path
     d="M 2,24 C 2,7.5 7.5,2 24,2 40.5,2 46,7.5 46,24 46,40.5 40.5,46 24,46 7.5,46 2,40.5 2,24"
     style="fill:url(#linearGradient3040);fill-opacity:1;stroke-width:0.22"
     id="path311" /><path
     id="path360"
     style="fill:url(#linearGradient3513);stroke-width:1.5;fill-opacity:1"
     d="M 16 9 C 14.892003 9 14 9.892004 14 11 C 14 12.107996 14.892003 13 16 13 C 17.107997 13 18 12.107996 18 11 C 18 9.8920031 17.107997 9 16 9 z M 28.287109 9 L 24 13.199219 L 30.429688 19.5 L 24 25.800781 L 28.287109 30 L 39 19.5 L 28.287109 9 z M 12 21 C 10.338018 21 9 22.337994 9 24 C 9 25.661982 10.338018 27 12 27 C 13.662006 27 15 25.661982 15 24 C 15 22.337994 13.662006 21 12 21 z M 20 31 C 17.784022 31 16 32.78399 16 35 C 16 37.215978 17.784022 39 20 39 C 22.21601 39 24 37.215978 24 35 C 24 32.78399 22.21601 31 20 31 z " /></svg>
