<?xml version="1.0" encoding="UTF-8" standalone="no"?>
<!-- Created with Inkscape (http://www.inkscape.org/) -->

<svg
   width="48"
   height="48"
   viewBox="0 0 48 48"
   version="1.1"
   id="svg371"
   xml:space="preserve"
   inkscape:version="1.2.2 (1:1.2.2+202305151914+b0a8486541)"
   sodipodi:docname="audio-x-generic.svg"
   xmlns:inkscape="http://www.inkscape.org/namespaces/inkscape"
   xmlns:sodipodi="http://sodipodi.sourceforge.net/DTD/sodipodi-0.dtd"
   xmlns:xlink="http://www.w3.org/1999/xlink"
   xmlns="http://www.w3.org/2000/svg"
   xmlns:svg="http://www.w3.org/2000/svg"><sodipodi:namedview
     id="namedview373"
     pagecolor="#ffffff"
     bordercolor="#000000"
     borderopacity="0.25"
     inkscape:showpageshadow="2"
     inkscape:pageopacity="0.0"
     inkscape:pagecheckerboard="0"
     inkscape:deskcolor="#d1d1d1"
     inkscape:document-units="px"
     showgrid="false"
     inkscape:zoom="16.791667"
     inkscape:cx="24"
     inkscape:cy="24"
     inkscape:window-width="1920"
     inkscape:window-height="1008"
     inkscape:window-x="0"
     inkscape:window-y="0"
     inkscape:window-maximized="1"
     inkscape:current-layer="svg371"
     showguides="false" /><defs
     id="defs368"><linearGradient
       inkscape:collect="always"
       id="linearGradient918"><stop
         style="stop-color:#2284bd;stop-opacity:1;"
         offset="0"
         id="stop914" /><stop
         style="stop-color:#3eabcc;stop-opacity:1;"
         offset="1"
         id="stop916" /></linearGradient><linearGradient
       inkscape:collect="always"
       xlink:href="#linearGradient918"
       id="linearGradient2126"
       x1="24"
       y1="46"
       x2="24"
       y2="2"
       gradientUnits="userSpaceOnUse" /></defs><path
     d="M 2,24 C 2,7.5 7.5,2 24,2 40.5,2 46,7.5 46,24 46,40.5 40.5,46 24,46 7.5,46 2,40.5 2,24"
     style="fill:url(#linearGradient2126);fill-opacity:1;stroke-width:0.22"
     id="path311" /><path
     id="rect2743"
     style="fill:#ffffff;stroke-width:0.544331"
     d="M 22,10 V 24.675781 C 21.062453,24.230935 20.037729,24.000105 19,24 c -3.865993,0 -7,3.134007 -7,7 0,3.865993 3.134007,7 7,7 3.865993,0 7,-3.134007 7,-7 V 14 c 4.282531,-0.007 8.034348,3.158953 8,8 v 2 c 0,1.104568 0.895432,2 2,2 1.104568,0 2,-0.895432 2,-2 V 22 C 37.99793,14.630459 31.855995,10 26,10 Z"
     sodipodi:nodetypes="cccsssccssscsc" /><circle
     style="fill:#154994;fill-opacity:1;stroke-width:0.6"
     id="path2847"
     cx="19"
     cy="31"
     r="3" /></svg>
