<?xml version="1.0" encoding="UTF-8" standalone="no"?>
<!-- Created with Inkscape (http://www.inkscape.org/) -->

<svg
   width="48"
   height="48"
   viewBox="0 0 48 48"
   version="1.1"
   id="svg371"
   xml:space="preserve"
   inkscape:version="1.2.2 (1:1.2.2+202305151914+b0a8486541)"
   sodipodi:docname="font-x-generic.svg"
   xmlns:inkscape="http://www.inkscape.org/namespaces/inkscape"
   xmlns:sodipodi="http://sodipodi.sourceforge.net/DTD/sodipodi-0.dtd"
   xmlns:xlink="http://www.w3.org/1999/xlink"
   xmlns="http://www.w3.org/2000/svg"
   xmlns:svg="http://www.w3.org/2000/svg"><sodipodi:namedview
     id="namedview373"
     pagecolor="#ffffff"
     bordercolor="#000000"
     borderopacity="0.25"
     inkscape:showpageshadow="2"
     inkscape:pageopacity="0.0"
     inkscape:pagecheckerboard="0"
     inkscape:deskcolor="#d1d1d1"
     inkscape:document-units="px"
     showgrid="false"
     inkscape:zoom="16.791667"
     inkscape:cx="24"
     inkscape:cy="24"
     inkscape:window-width="1920"
     inkscape:window-height="1008"
     inkscape:window-x="0"
     inkscape:window-y="0"
     inkscape:window-maximized="1"
     inkscape:current-layer="svg371"
     showguides="true" /><defs
     id="defs368"><linearGradient
       inkscape:collect="always"
       xlink:href="#linearGradient3519"
       id="linearGradient3040"
       x1="32"
       y1="62"
       x2="32"
       y2="2"
       gradientUnits="userSpaceOnUse"
       gradientTransform="matrix(0.73333333,0,0,0.73333333,0.53333333,0.53333333)" /><linearGradient
       inkscape:collect="always"
       id="linearGradient3519"><stop
         style="stop-color:#e4e4e4;stop-opacity:1;"
         offset="0"
         id="stop3515" /><stop
         style="stop-color:#f1f1f1;stop-opacity:1;"
         offset="1"
         id="stop3517" /></linearGradient></defs><path
     d="M 2,24 C 2,7.5 7.5,2 24,2 40.5,2 46,7.5 46,24 46,40.5 40.5,46 24,46 7.5,46 2,40.5 2,24"
     style="fill:url(#linearGradient3040);fill-opacity:1;stroke-width:0.22"
     id="path311" /><path
     d="M 16.125,14 9,34.062501 h 2.456543 l 1.78125,-5.324707 h 8.286621 l 1.819336,5.34375 h 2.493164 L 18.711914,14 Z m 1.255371,2.4375 3.451172,10.256836 h -6.881836 z m 16.237793,2.400879 c -1.55625,0 -2.999121,0.35625 -4.349121,1.031251 l 0.580078,1.855956 c 1.0875,-0.50625 2.250293,-0.769042 3.487793,-0.769042 1.125,0 1.988086,0.225879 2.569336,0.713378 0.58125,0.46875 0.880371,1.180371 0.880371,2.099122 v 0.975586 c -3.075,0.01875 -5.342871,0.449413 -6.786621,1.274414 -1.44375,0.84375 -2.15625,2.137207 -2.15625,3.918457 0,1.3875 0.4125,2.494922 1.21875,3.263671 0.80625,0.76875 1.949414,1.161622 3.430664,1.161622 2.00625,0 3.507129,-0.730371 4.463379,-2.192872 v 1.892579 H 39 V 23.581544 c 0,-1.556251 -0.469629,-2.737208 -1.463379,-3.543458 -0.99375,-0.80625 -2.287207,-1.199707 -3.918457,-1.199707 z m 3.168457,7.687501 v 4.067871 c -0.54375,0.599999 -1.124414,1.031543 -1.743163,1.331543 -0.618751,0.28125 -1.3125,0.432128 -2.0625,0.432128 -0.956251,0 -1.687794,-0.224999 -2.175294,-0.65625 -0.4875,-0.43125 -0.730956,-1.088378 -0.730956,-1.932128 0,-1.106251 0.544335,-1.9125 1.631835,-2.4375 1.06875,-0.525001 2.773828,-0.786915 5.080078,-0.805664 z"
     style="fill:#808080;fill-opacity:1;stroke-width:2.25;stroke-linecap:round;stroke-linejoin:round"
     id="path2581" /></svg>
