<?xml version="1.0" encoding="UTF-8" standalone="no"?>
<!-- Created with Inkscape (http://www.inkscape.org/) -->

<svg
   width="48"
   height="48"
   viewBox="0 0 48 48"
   version="1.1"
   id="svg371"
   xml:space="preserve"
   inkscape:version="1.3 (0e150ed6c4, 2023-07-21)"
   sodipodi:docname="package-x-generic.svg"
   xmlns:inkscape="http://www.inkscape.org/namespaces/inkscape"
   xmlns:sodipodi="http://sodipodi.sourceforge.net/DTD/sodipodi-0.dtd"
   xmlns:xlink="http://www.w3.org/1999/xlink"
   xmlns="http://www.w3.org/2000/svg"
   xmlns:svg="http://www.w3.org/2000/svg"><sodipodi:namedview
     id="namedview373"
     pagecolor="#ffffff"
     bordercolor="#000000"
     borderopacity="0.25"
     inkscape:showpageshadow="2"
     inkscape:pageopacity="0.0"
     inkscape:pagecheckerboard="0"
     inkscape:deskcolor="#d1d1d1"
     inkscape:document-units="px"
     showgrid="false"
     inkscape:zoom="16.583333"
     inkscape:cx="23.969849"
     inkscape:cy="24"
     inkscape:window-width="1920"
     inkscape:window-height="1000"
     inkscape:window-x="0"
     inkscape:window-y="0"
     inkscape:window-maximized="1"
     inkscape:current-layer="svg371"
     showguides="false" /><defs
     id="defs368"><linearGradient
       inkscape:collect="always"
       xlink:href="#linearGradient3519"
       id="linearGradient3251"
       x1="16"
       y1="31"
       x2="16"
       y2="1"
       gradientUnits="userSpaceOnUse"
       gradientTransform="matrix(1.4666667,0,0,1.4666667,0.53333333,0.53333333)" /><linearGradient
       inkscape:collect="always"
       xlink:href="#linearGradient3519"
       id="linearGradient1012"
       x1="15.200001"
       y1="28.800001"
       x2="15.200001"
       y2="2.4000001"
       gradientUnits="userSpaceOnUse"
       gradientTransform="matrix(1.6666666,0,0,1.6666666,-1.3333333,-2)" /><linearGradient
       inkscape:collect="always"
       id="linearGradient1836"><stop
         style="stop-color:#f69000;stop-opacity:1;"
         offset="0"
         id="stop1832" /><stop
         style="stop-color:#f9a900;stop-opacity:1;"
         offset="1"
         id="stop1834" /></linearGradient><linearGradient
       inkscape:collect="always"
       id="linearGradient3519"><stop
         style="stop-color:#e4e4e4;stop-opacity:1;"
         offset="0"
         id="stop3515" /><stop
         style="stop-color:#f1f1f1;stop-opacity:1;"
         offset="1"
         id="stop3517" /></linearGradient><linearGradient
       inkscape:collect="always"
       xlink:href="#linearGradient1836"
       id="linearGradient2"
       x1="39"
       y1="38"
       x2="39"
       y2="10"
       gradientUnits="userSpaceOnUse" /></defs><path
     d="M 2,24 C 2,7.5 7.5,2 24,2 40.5,2 46,7.5 46,24 46,40.5 40.5,46 24,46 7.5,46 2,40.5 2,24"
     style="fill:url(#linearGradient3251);fill-opacity:1;stroke-width:0.22"
     id="path311" /><path
     id="rect419"
     style="fill:url(#linearGradient2);fill-opacity:1;stroke-width:1.06066"
     d="M 11 10 C 9.8920042 10 9 10.892004 9 12 L 9 35 C 9 36.661996 10.338004 38 12 38 L 36 38 C 37.661996 38 39 36.661996 39 35 L 39 18 C 39 16.338004 37.661996 15 36 15 L 24 15 L 24 12 C 24 10.892004 23.107996 10 22 10 L 11 10 z " /><path
     id="path345"
     style="fill:url(#linearGradient1012);fill-opacity:1;stroke-width:1.25"
     d="M 14.5,8 C 13.119289,8 12,9.1192888 12,10.5 12,11.880711 13.119289,13 14.5,13 15.880711,13 17,11.880711 17,10.5 17,9.1192888 15.880711,8 14.5,8 Z m 0,7 C 13.119289,15 12,16.119289 12,17.5 12,18.880711 13.119289,20 14.5,20 15.880711,20 17,18.880711 17,17.5 17,16.119289 15.880711,15 14.5,15 Z m 0,7 C 13.119289,22 12,23.119289 12,24.5 12,25.880711 13.119289,27 14.5,27 15.880711,27 17,25.880711 17,24.5 17,23.119289 15.880711,22 14.5,22 Z m 0,7 C 13.119289,29 12,30.119289 12,31.5 12,32.880711 13.119289,34 14.5,34 15.880711,34 17,32.880711 17,31.5 17,30.119289 15.880711,29 14.5,29 Z"
     sodipodi:nodetypes="ssssssssssssssssssss" /></svg>
