<?xml version="1.0" encoding="UTF-8" standalone="no"?>
<!-- Created with Inkscape (http://www.inkscape.org/) -->

<svg
   width="48"
   height="48"
   viewBox="0 0 48 48"
   version="1.1"
   id="svg371"
   xml:space="preserve"
   inkscape:version="1.2.2 (1:1.2.2+202305151914+b0a8486541)"
   sodipodi:docname="rpm.svg"
   xmlns:inkscape="http://www.inkscape.org/namespaces/inkscape"
   xmlns:sodipodi="http://sodipodi.sourceforge.net/DTD/sodipodi-0.dtd"
   xmlns:xlink="http://www.w3.org/1999/xlink"
   xmlns="http://www.w3.org/2000/svg"
   xmlns:svg="http://www.w3.org/2000/svg"><sodipodi:namedview
     id="namedview373"
     pagecolor="#ffffff"
     bordercolor="#000000"
     borderopacity="0.25"
     inkscape:showpageshadow="2"
     inkscape:pageopacity="0.0"
     inkscape:pagecheckerboard="0"
     inkscape:deskcolor="#d1d1d1"
     inkscape:document-units="px"
     showgrid="false"
     inkscape:zoom="16.791667"
     inkscape:cx="24"
     inkscape:cy="24"
     inkscape:window-width="1920"
     inkscape:window-height="1008"
     inkscape:window-x="0"
     inkscape:window-y="0"
     inkscape:window-maximized="1"
     inkscape:current-layer="svg371"
     showguides="false" /><defs
     id="defs368"><linearGradient
       inkscape:collect="always"
       id="linearGradient1120"><stop
         style="stop-color:#db280f;stop-opacity:1;"
         offset="0"
         id="stop1116" /><stop
         style="stop-color:#dd5b4e;stop-opacity:1;"
         offset="1"
         id="stop1118" /></linearGradient><linearGradient
       inkscape:collect="always"
       xlink:href="#linearGradient1120"
       id="linearGradient3040"
       x1="32"
       y1="62"
       x2="32"
       y2="2"
       gradientUnits="userSpaceOnUse"
       gradientTransform="matrix(0.73333333,0,0,0.73333333,0.53333333,0.53333333)" /></defs><path
     d="M 2,24 C 2,7.5 7.5,2 24,2 40.5,2 46,7.5 46,24 46,40.5 40.5,46 24,46 7.5,46 2,40.5 2,24"
     style="fill:url(#linearGradient3040);fill-opacity:1;stroke-width:0.22"
     id="path311" /><path
     id="path447"
     style="font-weight:600;font-size:24px;font-family:SamsungOneKorean;-inkscape-font-specification:'SamsungOneKorean Semi-Bold';fill:#ffffff;stroke-width:3.35432;stroke-linecap:round;stroke-linejoin:round"
     d="M 7.8666668,18 V 30.30826 H 9.549702 v -4.5731 h 2.108044 l 2.90706,4.5731 h 2.040042 l -3.179066,-4.7601 c 0.816016,-0.22667 1.439363,-0.65735 1.870038,-1.29203 0.442009,-0.64601 0.663014,-1.44503 0.663014,-2.39705 0,-1.21269 -0.345675,-2.15904 -1.037021,-2.83906 C 14.2418,18.34001 13.289777,18 12.065754,18 H 9.549702 Z m 10.7612222,0 v 12.30826 h 1.683034 v -4.21609 h 2.584054 c 1.258025,0 2.238381,-0.35701 2.941061,-1.07102 0.714014,-0.71402 1.071022,-1.71137 1.071022,-2.99207 0,-1.26935 -0.345674,-2.25538 -1.037021,-2.95806 C 25.190025,18.35701 24.22667,18 22.979979,18 h -2.669056 z m 10.14921,0 v 12.30826 h 1.615033 v -9.6562 l 3.162065,7.15714 h 1.768037 l 3.162065,-7.15714 v 9.6562 h 1.649034 V 18 H 38.076291 L 34.472216,26.22817 30.800141,18 Z M 9.549702,19.49603 h 2.448051 c 0.725347,0 1.275026,0.20401 1.649033,0.61201 0.374007,0.39668 0.561012,0.98602 0.561012,1.76804 0,1.5867 -0.714016,2.38005 -2.142044,2.38005 H 9.549702 Z m 10.761221,0.017 h 2.584054 c 0.748015,0 1.309028,0.21534 1.683035,0.64602 0.385341,0.41934 0.578012,1.04835 0.578012,1.88703 0,0.82735 -0.187004,1.45637 -0.561012,1.88704 -0.362674,0.43068 -0.901019,0.64602 -1.615033,0.64602 h -2.669056 z" /></svg>
