<?xml version="1.0" encoding="UTF-8" standalone="no"?>
<!-- Created with Inkscape (http://www.inkscape.org/) -->

<svg
   width="32"
   height="32"
   viewBox="0 0 32 32"
   version="1.1"
   id="svg371"
   xml:space="preserve"
   inkscape:version="1.2.2 (1:1.2.2+202305151914+b0a8486541)"
   sodipodi:docname="yast.svg"
   xmlns:inkscape="http://www.inkscape.org/namespaces/inkscape"
   xmlns:sodipodi="http://sodipodi.sourceforge.net/DTD/sodipodi-0.dtd"
   xmlns:xlink="http://www.w3.org/1999/xlink"
   xmlns="http://www.w3.org/2000/svg"
   xmlns:svg="http://www.w3.org/2000/svg"><sodipodi:namedview
     id="namedview373"
     pagecolor="#ffffff"
     bordercolor="#000000"
     borderopacity="0.25"
     inkscape:showpageshadow="2"
     inkscape:pageopacity="0.0"
     inkscape:pagecheckerboard="0"
     inkscape:deskcolor="#d1d1d1"
     inkscape:document-units="px"
     showgrid="false"
     inkscape:zoom="25.1875"
     inkscape:cx="15.980149"
     inkscape:cy="16"
     inkscape:window-width="1920"
     inkscape:window-height="1008"
     inkscape:window-x="0"
     inkscape:window-y="0"
     inkscape:window-maximized="1"
     inkscape:current-layer="svg371"
     showguides="true" /><defs
     id="defs368"><linearGradient
       inkscape:collect="always"
       id="linearGradient1174"><stop
         style="stop-color:#1aad95;stop-opacity:1;"
         offset="0"
         id="stop1170" /><stop
         style="stop-color:#5dc3b2;stop-opacity:1;"
         offset="1"
         id="stop1172" /></linearGradient><linearGradient
       inkscape:collect="always"
       id="linearGradient1285"><stop
         style="stop-color:#2e781e;stop-opacity:1;"
         offset="0"
         id="stop1281" /><stop
         style="stop-color:#83ba52;stop-opacity:1;"
         offset="1"
         id="stop1283" /></linearGradient><linearGradient
       inkscape:collect="always"
       xlink:href="#linearGradient1285"
       id="linearGradient3040"
       x1="32"
       y1="62"
       x2="32"
       y2="2"
       gradientUnits="userSpaceOnUse"
       gradientTransform="scale(0.5)" /><linearGradient
       inkscape:collect="always"
       xlink:href="#linearGradient1174"
       id="linearGradient613"
       gradientUnits="userSpaceOnUse"
       x1="32"
       y1="62"
       x2="32"
       y2="2"
       gradientTransform="scale(0.5)" /></defs><path
     d="M 1,16 C 1,4.75 4.75,1 16,1 27.25,1 31,4.75 31,16 31,27.25 27.25,31 16,31 4.75,31 1,27.25 1,16"
     style="fill:url(#linearGradient3040);fill-opacity:1;stroke-width:0.15"
     id="path311" /><path
     d="M 1,16 C 1,4.75 4.75,1 16,1 27.25,1 31,4.75 31,16 31,27.25 27.25,31 16,31 4.75,31 1,27.25 1,16"
     style="fill:url(#linearGradient613);fill-opacity:1;stroke-width:0.15"
     id="path311-5" /><path
     d="m 9.260583,6.1295 0.852322,2.0009985 2.083976,2.3803365 c -0.67569,0.106688 -1.276701,0.288057 -1.843334,0.504991 -0.320066,0.154107 -0.625906,0.320066 -0.796608,0.657913 L 9.037722,12.393812 C 8.870577,12.731659 8.5161355,12.78751 8.1688055,13.061343 l -1.42251,1.110743 c 0.2833155,0.13751 0.536997,0.317693 0.770526,0.531072 C 7.265511,14.56446 7.0213135,14.418653 6.728514,14.341601 6.52462,14.309592 6.323098,14.311961 6.136985,14.460143 c -0.1671445,0.138695 -0.1481775,0.37341 -0.1138005,0.592712 0.064007,0.339035 0.3473305,0.640131 0.669766,0.867733 0.299913,0.133954 0.576117,0.06521 0.8416525,-0.09129 0.2299725,-0.213377 0.323621,-0.587972 0.295171,-1.100077 0.165959,-0.03081 0.1292105,0.956638 0.1588475,0.844023 0.015405,-0.06045 2.4384195,-1.472199 3.0797365,-1.622749 0.654355,-0.168332 1.675007,0.191515 2.413526,-0.03859 0.45876,-0.146993 0.794237,-0.29527 1.078738,-0.732693 l -0.228787,0.486025 c -0.171057,0.276519 -0.439006,0.479381 -0.751561,0.569003 l -0.576224,4.376593 -0.0081,4.231972 -0.651053,1.066885 0.487209,-0.01658 0.519218,-0.686361 -0.381708,0.821498 c 0,0 2.497693,-0.167141 2.497693,-0.149364 0,0.01779 -0.770528,-5.061766 -0.770528,-5.061766 0,0 0.83454,-0.932931 0.852322,-0.945969 0.01779,-0.01422 3.15241,1.024207 3.15241,1.024207 l -0.467058,-0.551222 -0.384079,-0.212193 0.465874,0.154104 c 0,0 1.082292,1.311083 1.087035,1.33005 0.0046,0.01779 0.193224,-0.2359 0.193224,-0.2359 l -1.133266,4.599452 1.50549,0.51329 -0.04743,-0.702959 0.360369,0.872473 0.553594,0.03673 -0.374595,-0.909221 0.651985,0.791862 0.357999,-0.07112 -0.644873,-0.928189 0.752746,-4.480911 -0.867731,-0.685177 -0.672137,-0.900921 0.636574,0.648428 -0.689918,-0.982719 -0.05452,-1.298042 0.241826,1.117856 0.260794,-0.918703 -0.135139,1.07281 0.501435,1.100075 1.00287,0.746818 -0.01896,0.171888 0.789494,-0.289247 0.509735,-1.152233 0.04387,-0.713625 0.0735,0.723111 c 0,0 -0.438607,1.062138 -0.438607,1.098888 0,0.03557 0.572561,-0.54174 0.572561,-0.54174 l -0.628276,0.739706 1.004055,1.811332 0.340217,1.974918 0.250125,-0.178998 -0.05336,0.07114 -0.806088,1.052657 0.528698,-0.114987 0.205079,-0.324806 -0.09009,0.395933 0.188484,0.0093 -0.04387,0.43268 0.393562,-0.352071 0.293987,0.09129 0.09129,-0.525144 v 0.533443 l 0.276204,-0.05452 0.133952,0.450463 0.196733,-0.567783 0.385124,-0.01766 c -0.367469,-2.78812 -0.853496,-5.419298 -0.983891,-8.207417 -0.01422,-0.531073 -0.459946,-1.46993 -0.940043,-2.08398 -0.560705,-0.646059 -1.705829,-2.02708 -3.331047,-2.414713 -0.886698,-0.105502 -1.789993,0.03794 -2.773895,0.359182 -0.870105,0.254868 -1.768658,0.408507 -2.745449,0.876748 0.229972,0.376967 0.534627,0.746819 1.053846,1.185426 0.162404,0.158847 0.455203,0.202709 0.743261,0.180186 -0.199152,0.07115 -0.404229,0.130396 -0.618792,0.01779 -0.349703,-0.237085 -0.63776,-0.533442 -0.912779,-0.846395 -0.167327,-0.207639 -0.308649,-0.434952 -0.420827,-0.676877 -0.165959,-0.376965 0.02965,-0.855879 0.349701,-1.370353 0.290431,-0.356813 0.610495,-0.70533 1.261295,-0.955453 0.5856,-0.23353 1.173571,-0.467058 1.729536,-0.775269 0.628275,-0.407788 1.631145,-1.707015 2.164587,-2.615051 -1.453332,0.533442 -2.905479,0.9601955 -4.350513,1.8113305 -0.540555,0.3710385 -1.070439,0.9459705 -1.610993,1.5410545 -0.229975,0.260793 -0.478915,0.504991 -0.806089,0.678063 -0.449278,0.240641 -0.758674,0.01186 -0.966123,-0.171886 C 12.520254,9.910363 12.235438,9.530206 11.991805,9.123888 11.67174,8.68528 11.336264,8.2454865 10.845497,7.8068795 10.281235,7.282921 9.772688,6.678353 9.260584,6.1295015 Z M 18.454746,7.5674215 17.174485,9.121515 18.043404,8.8204165 16.294898,9.67748 Z m -6.072937,3.2445125 c 0.112616,-0.0024 0.22523,0 0.334289,0.01186 -0.707698,0.05452 -1.031319,0.176629 -1.645369,0.491953 0.225231,-0.171888 0.352071,-0.299914 0.757486,-0.438607 0.177813,-0.03913 0.366298,-0.06165 0.553594,-0.06521 z m 0.19678,0.97679 c 0.349699,0.0057 0.586788,0.160031 0.586788,0.160031 -0.775269,-0.208633 -1.200837,-0.03557 -1.532758,0.4718 -0.03912,-0.03201 0.220492,-0.472984 0.564262,-0.577304 0.137512,-0.0415 0.265537,-0.05688 0.381708,-0.05452 z m -0.05929,0.260795 c 0.07356,-0.003 0.147205,0.0029 0.219303,0.01779 0.144622,0.05096 0.211006,0.158845 0.282133,0.260795 -0.150551,-0.132769 -0.305841,-0.237088 -0.494324,-0.188485 0.213377,0.02371 0.2928,0.157662 0.323621,0.333106 0.02608,0.235898 -0.176629,0.374594 -0.311768,0.394744 -0.135136,0.02015 -0.30821,-0.01422 -0.407787,-0.160031 -0.02846,-0.05929 -0.104315,-0.27739 0.01658,-0.43268 -0.132047,0.05373 -0.25332,0.130825 -0.357998,0.227602 0.09129,-0.132769 0.202709,-0.237088 0.371041,-0.348516 0.109535,-0.06347 0.232726,-0.09965 0.359181,-0.105503 z m -5.720866,2.664305 c 0.1813705,0.214563 0.357999,0.420826 0.4445355,0.705329 0.011855,0.263166 -0.104318,0.257237 -0.2181185,0.256052 -0.094834,-0.0011 -0.2750195,-0.109059 -0.2169335,-0.196781 0.05607,-0.113908 0.07985,-0.241006 0.068758,-0.367481 z m -0.6638375,0.06521 c 0.1422505,0.149364 0.282131,0.248941 0.3082095,0.457575 0.010675,0.04979 0.02016,0.173074 -0.078239,0.154107 -0.286863,-0.271474 -0.11379,-0.241837 -0.228777,-0.611691 z"
     style="fill:#ffffff;stroke-width:0.499999"
     id="path354" /></svg>
