<?xml version="1.0" encoding="UTF-8" standalone="no"?>
<!-- Created with Inkscape (http://www.inkscape.org/) -->

<svg
   width="22"
   height="22"
   viewBox="0 0 22 22"
   version="1.1"
   id="svg11945"
   inkscape:version="1.2.2 (1:1.2.2+202305151914+b0a8486541)"
   sodipodi:docname="folder-documents.svg"
   xmlns:inkscape="http://www.inkscape.org/namespaces/inkscape"
   xmlns:sodipodi="http://sodipodi.sourceforge.net/DTD/sodipodi-0.dtd"
   xmlns="http://www.w3.org/2000/svg"
   xmlns:svg="http://www.w3.org/2000/svg">
  <sodipodi:namedview
     id="namedview11947"
     pagecolor="#ffffff"
     bordercolor="#666666"
     borderopacity="1.0"
     inkscape:pageshadow="2"
     inkscape:pageopacity="0.0"
     inkscape:pagecheckerboard="0"
     inkscape:document-units="px"
     showgrid="false"
     units="in"
     inkscape:zoom="36.636364"
     inkscape:cx="10.986352"
     inkscape:cy="11"
     inkscape:window-width="1920"
     inkscape:window-height="1008"
     inkscape:window-x="0"
     inkscape:window-y="0"
     inkscape:window-maximized="1"
     inkscape:current-layer="svg11945"
     showguides="true"
     inkscape:showpageshadow="2"
     inkscape:deskcolor="#d1d1d1" />
  <defs
     id="defs11942">
    <style
       id="current-color-scheme"
       type="text/css">
         .ColorScheme-Text { color:#dfdfdf; }
        </style>
  </defs>
  <path
     d="M 6.9999749,3 C 5.8919746,3 4.9999747,3.892 4.9999747,5.0000002 V 17 c 0,1.108 0.8919999,2 2.0000002,2 h 7.9999991 c 1.108001,0 2.000001,-0.892 2.000001,-2 V 8.5000003 c 0.0035,-0.8405182 -0.174358,-1.1703273 -0.5,-1.5000004 L 12.999975,3.5 C 12.537005,3.0712056 12.195474,3 11.499975,3 Z m 0,1 h 4.0000001 v 2.9999999 c 0,1.1079999 0.892,2.0000001 2,2.0000001 h 3 v 8 c 0,0.554 -0.446,1 -1.000001,1 H 6.9999749 C 6.4459747,18 5.9999746,17.554 5.9999746,17 V 5.0000002 C 5.9999746,4.4460001 6.4459747,4 6.9999749,4 Z m 5.0000001,0 4,3.9999998 h -3 c -0.554,0 -1,-0.4459998 -1,-0.9999999 z"
     style="fill:currentColor;stroke-width:5.00001;stroke-linecap:round;stroke-linejoin:round"
     class="ColorScheme-Text"
     id="path4457"
     sodipodi:nodetypes="sssssscccssscsscssssssccssc" />
</svg>
