<?xml version="1.0" encoding="UTF-8" standalone="no"?>
<!-- Created with Inkscape (http://www.inkscape.org/) -->

<svg
   width="22"
   height="22"
   viewBox="0 0 22 22"
   version="1.1"
   id="svg371"
   xml:space="preserve"
   inkscape:version="1.2.2 (1:1.2.2+202212051552+b0a8486541)"
   sodipodi:docname="emblem-pause.svg"
   xmlns:inkscape="http://www.inkscape.org/namespaces/inkscape"
   xmlns:sodipodi="http://sodipodi.sourceforge.net/DTD/sodipodi-0.dtd"
   xmlns="http://www.w3.org/2000/svg"
   xmlns:svg="http://www.w3.org/2000/svg"><sodipodi:namedview
     id="namedview373"
     pagecolor="#ffffff"
     bordercolor="#000000"
     borderopacity="0.25"
     inkscape:showpageshadow="2"
     inkscape:pageopacity="0.0"
     inkscape:pagecheckerboard="0"
     inkscape:deskcolor="#d1d1d1"
     inkscape:document-units="px"
     showgrid="false"
     inkscape:zoom="36.818182"
     inkscape:cx="10.98642"
     inkscape:cy="11"
     inkscape:window-width="1920"
     inkscape:window-height="1012"
     inkscape:window-x="0"
     inkscape:window-y="0"
     inkscape:window-maximized="1"
     inkscape:current-layer="svg371"
     showguides="true" /><defs
     id="defs368" /><path
     d="M 1,11 C 1,3.5 3.5,1 11,1 18.5,1 21,3.5 21,11 21,18.5 18.5,21 11,21 3.5,21 1,18.5 1,11"
     style="opacity:0.6;fill:#666666;fill-opacity:1;stroke-width:0.1"
     id="path311" /><path
     id="rect340"
     style="fill:#ffffff"
     d="m 7.0000002,5 c -0.5539988,0 -1,0.4460012 -1,1 v 10 c 0,0.553998 0.4460012,1 1,1 h 1 c 0.5539988,0 1,-0.446002 1,-1 V 6 c 0,-0.5539988 -0.4460012,-1 -1,-1 z M 14,5 c -0.553998,0 -1,0.4460012 -1,1 v 10 c 0,0.553998 0.446002,1 1,1 h 1 c 0.553998,0 1,-0.446002 1,-1 V 6 C 16,5.4460012 15.553998,5 15,5 Z" /></svg>
