<?xml version="1.0" encoding="UTF-8" standalone="no"?>
<!-- Created with Inkscape (http://www.inkscape.org/) -->

<svg
   width="22"
   height="22"
   viewBox="0 0 22 22"
   version="1.1"
   id="svg371"
   xml:space="preserve"
   inkscape:version="1.2.2 (1:1.2.2+202305151914+b0a8486541)"
   sodipodi:docname="emblem-unreadable.svg"
   xmlns:inkscape="http://www.inkscape.org/namespaces/inkscape"
   xmlns:sodipodi="http://sodipodi.sourceforge.net/DTD/sodipodi-0.dtd"
   xmlns="http://www.w3.org/2000/svg"
   xmlns:svg="http://www.w3.org/2000/svg"><sodipodi:namedview
     id="namedview373"
     pagecolor="#ffffff"
     bordercolor="#000000"
     borderopacity="0.25"
     inkscape:showpageshadow="2"
     inkscape:pageopacity="0.0"
     inkscape:pagecheckerboard="0"
     inkscape:deskcolor="#d1d1d1"
     inkscape:document-units="px"
     showgrid="false"
     inkscape:zoom="36.636364"
     inkscape:cx="11"
     inkscape:cy="11"
     inkscape:window-width="1920"
     inkscape:window-height="1008"
     inkscape:window-x="0"
     inkscape:window-y="0"
     inkscape:window-maximized="1"
     inkscape:current-layer="svg371"
     showguides="true" /><defs
     id="defs368" /><path
     d="M 1,11 C 1,3.5 3.5,1 11,1 18.5,1 21,3.5 21,11 21,18.5 18.5,21 11,21 3.5,21 1,18.5 1,11"
     style="fill:#666666;fill-opacity:1;stroke-width:0.1;opacity:0.6"
     id="path311" /><path
     id="rect340"
     style="fill:#ffffff"
     d="m 16.949747,5.0502527 c -0.391736,-0.3917364 -1.022476,-0.3917368 -1.414213,0 L 11,9.5857864 6.4644663,5.0502528 c -0.3917367,-0.3917367 -1.0224771,-0.3917364 -1.4142136,0 -0.3917364,0.3917365 -0.3917367,1.0224769 0,1.4142136 L 9.5857864,11 5.0502527,15.535534 c -0.3917361,0.391736 -0.3917364,1.022477 0,1.414213 0.3917365,0.391737 1.0224771,0.391737 1.4142136,0 L 11,12.414214 l 4.535534,4.535533 c 0.391736,0.391737 1.022477,0.391737 1.414213,0 0.391737,-0.391736 0.391737,-1.022477 0,-1.414213 L 12.414214,11 16.949747,6.4644663 c 0.391737,-0.3917368 0.391737,-1.0224771 0,-1.4142136 z"
     sodipodi:nodetypes="sscssscsscccsccss" /></svg>
