<?xml version="1.0" encoding="UTF-8" standalone="no"?>
<!-- Created with Inkscape (http://www.inkscape.org/) -->

<svg
   width="22"
   height="22"
   viewBox="0 0 22 22"
   version="1.1"
   id="svg371"
   xml:space="preserve"
   inkscape:version="1.2.2 (1:1.2.2+202212051552+b0a8486541)"
   sodipodi:docname="emblem-symbolic-link.svg"
   xmlns:inkscape="http://www.inkscape.org/namespaces/inkscape"
   xmlns:sodipodi="http://sodipodi.sourceforge.net/DTD/sodipodi-0.dtd"
   xmlns="http://www.w3.org/2000/svg"
   xmlns:svg="http://www.w3.org/2000/svg"><sodipodi:namedview
     id="namedview373"
     pagecolor="#ffffff"
     bordercolor="#000000"
     borderopacity="0.25"
     inkscape:showpageshadow="2"
     inkscape:pageopacity="0.0"
     inkscape:pagecheckerboard="0"
     inkscape:deskcolor="#d1d1d1"
     inkscape:document-units="px"
     showgrid="false"
     inkscape:zoom="36.818182"
     inkscape:cx="10.98642"
     inkscape:cy="11"
     inkscape:window-width="1920"
     inkscape:window-height="1012"
     inkscape:window-x="0"
     inkscape:window-y="0"
     inkscape:window-maximized="1"
     inkscape:current-layer="svg371"
     showguides="true" /><defs
     id="defs368" /><path
     d="M 1,11 C 1,3.5 3.5,1 11,1 18.5,1 21,3.5 21,11 21,18.5 18.5,21 11,21 3.5,21 1,18.5 1,11"
     style="fill:#666666;fill-opacity:1;stroke-width:0.1;opacity:0.6"
     id="path311" /><path
     id="rect370"
     style="opacity:1;fill:#ffffff"
     d="M 10 5 C 9.4460006 5 9 5.4460006 9 6 C 9 6.5539994 9.4460006 7 10 7 L 13.583984 7 L 5.3925781 15.193359 C 5.0008414 15.585096 5.0008414 16.215685 5.3925781 16.607422 C 5.7843149 16.999159 6.4149039 16.999159 6.8066406 16.607422 L 15 8.4160156 L 15 12 C 15 12.553999 15.446001 13 16 13 C 16.553999 13 17 12.553999 17 12 L 17 6 C 17 5.9659972 16.997606 5.9322997 16.994141 5.8984375 C 16.991141 5.8687191 16.987947 5.8394242 16.982422 5.8105469 C 16.981672 5.8066884 16.981265 5.8026794 16.980469 5.7988281 C 16.97489 5.7714252 16.966742 5.7433218 16.958984 5.7167969 C 16.940475 5.6535117 16.914733 5.5944526 16.884766 5.5371094 C 16.853657 5.477582 16.817387 5.4208039 16.775391 5.3691406 C 16.773932 5.3673541 16.772957 5.3650602 16.771484 5.3632812 C 16.751137 5.338606 16.729625 5.3155625 16.707031 5.2929688 C 16.684215 5.2701525 16.661062 5.2486741 16.636719 5.2285156 C 16.634915 5.227028 16.632674 5.2260845 16.630859 5.2246094 C 16.579196 5.1826135 16.522418 5.1463434 16.462891 5.1152344 C 16.405547 5.0852668 16.346488 5.0595248 16.283203 5.0410156 C 16.256088 5.0329595 16.228747 5.0252311 16.201172 5.0195312 C 16.168564 5.0128926 16.135261 5.0092612 16.101562 5.0058594 C 16.0677 5.0023935 16.034003 5 16 5 L 10 5 z " /></svg>
