<?xml version="1.0" encoding="UTF-8" standalone="no"?>
<!-- Created with Inkscape (http://www.inkscape.org/) -->

<svg
   width="24"
   height="24"
   viewBox="0 0 24 24"
   version="1.1"
   id="svg5"
   inkscape:version="1.2.2 (1:1.2.2+202305151914+b0a8486541)"
   sodipodi:docname="printer.svg"
   xmlns:inkscape="http://www.inkscape.org/namespaces/inkscape"
   xmlns:sodipodi="http://sodipodi.sourceforge.net/DTD/sodipodi-0.dtd"
   xmlns="http://www.w3.org/2000/svg"
   xmlns:svg="http://www.w3.org/2000/svg">
  <sodipodi:namedview
     id="namedview7"
     pagecolor="#ffffff"
     bordercolor="#000000"
     borderopacity="0.25"
     inkscape:showpageshadow="2"
     inkscape:pageopacity="0.0"
     inkscape:pagecheckerboard="0"
     inkscape:deskcolor="#d1d1d1"
     inkscape:document-units="px"
     showgrid="false"
     inkscape:zoom="33.583333"
     inkscape:cx="12"
     inkscape:cy="12"
     inkscape:window-width="1920"
     inkscape:window-height="1008"
     inkscape:window-x="0"
     inkscape:window-y="0"
     inkscape:window-maximized="1"
     inkscape:current-layer="svg5" />
  <defs
     id="defs2">
    <style
       id="current-color-scheme"
       type="text/css">
         .ColorScheme-Text { color:#4d4d4d; }
        </style>
  </defs>
  <path
     id="path1407"
     style="fill:currentColor;stroke:none;stroke-width:2;stroke-linecap:round;stroke-linejoin:round;stroke-dasharray:none;stroke-opacity:1"
     class="ColorScheme-Text"
     d="M 8,4 C 6.8920043,4 6,4.8920041 6,6 v 6 c -1.1079956,0 -2,0.892004 -2,2 v 4 c 0,1.107995 0.8920044,2 2,2 h 12 c 1.107996,0 2,-0.892005 2,-2 v -4 c 0,-1.107996 -0.892004,-2 -2,-2 V 8.5 C 18.0035,7.659485 17.825643,7.3296719 17.5,7 L 15,4.5 C 14.537031,4.0712072 14.195495,4 13.5,4 Z m 0,1 h 5 v 2 c 0,1.1079955 0.892005,2 2,2 h 2 v 3 H 7 V 6 C 7,5.4460023 7.4460018,5 8,5 Z m 6,0 3,3 H 15 C 14.446003,8 14,7.5539978 14,7 Z m -8,8 h 12 c 0.553996,0 1,0.446003 1,1 v 4 c 0,0.553996 -0.446004,1 -1,1 H 6 C 5.4460024,19 5,18.553996 5,18 v -4 c 0,-0.553997 0.4460024,-1 1,-1 z m 0,4 v 1 h 12 v -1 z" />
</svg>
