<?xml version="1.0" encoding="UTF-8" standalone="no"?>
<!-- Created with Inkscape (http://www.inkscape.org/) -->

<svg
   width="48"
   height="48"
   viewBox="0 0 48 48"
   version="1.1"
   id="svg371"
   xml:space="preserve"
   inkscape:version="1.2.2 (1:1.2.2+202212051552+b0a8486541)"
   sodipodi:docname="preferences-system-login.svg"
   xmlns:inkscape="http://www.inkscape.org/namespaces/inkscape"
   xmlns:sodipodi="http://sodipodi.sourceforge.net/DTD/sodipodi-0.dtd"
   xmlns="http://www.w3.org/2000/svg"
   xmlns:svg="http://www.w3.org/2000/svg"><sodipodi:namedview
     id="namedview373"
     pagecolor="#ffffff"
     bordercolor="#000000"
     borderopacity="0.25"
     inkscape:showpageshadow="2"
     inkscape:pageopacity="0.0"
     inkscape:pagecheckerboard="0"
     inkscape:deskcolor="#d1d1d1"
     inkscape:document-units="px"
     showgrid="false"
     inkscape:zoom="16.875"
     inkscape:cx="24"
     inkscape:cy="24"
     inkscape:window-width="1920"
     inkscape:window-height="1012"
     inkscape:window-x="0"
     inkscape:window-y="0"
     inkscape:window-maximized="1"
     inkscape:current-layer="svg371"
     showguides="false"
     inkscape:lockguides="true" /><defs
     id="defs368" /><path
     d="M 2,24 C 2,7.5 7.5,2 24,2 40.5,2 46,7.5 46,24 46,40.5 40.5,46 24,46 7.5,46 2,40.5 2,24"
     style="fill:#7999af;fill-opacity:1;stroke-width:0.22"
     id="path311" /><path
     id="path2315"
     style="fill:#ffffff;fill-opacity:1;stroke-width:0.499996"
     d="M 24 11 C 22.343153 11 21 12.343151 21 14 C 21 15.656848 22.343153 17 24 17 C 25.65685 17 27 15.656848 27 14 C 27 12.343151 25.65685 11 24 11 z M 24 19 C 20.134019 19 17 22.134019 17 26 L 31 26 C 31 22.134019 27.86598 19 24 19 z M 11 30 C 9.8920042 30 9 30.892006 9 32 L 9 35 C 9 36.107994 9.8920042 37 11 37 L 37 37 C 38.107994 37 39 36.107994 39 35 L 39 32 C 39 30.892006 38.107994 30 37 30 L 11 30 z M 12.5 32 C 13.328423 32 14 32.671577 14 33.5 C 14 34.328423 13.328423 35 12.5 35 C 11.671579 35 11 34.328423 11 33.5 C 11 32.671577 11.671579 32 12.5 32 z M 17.5 32 C 18.328423 32 19 32.671577 19 33.5 C 19 34.328423 18.328423 35 17.5 35 C 16.671579 35 16 34.328423 16 33.5 C 16 32.671577 16.671579 32 17.5 32 z M 22.5 32 C 23.328423 32 24 32.671577 24 33.5 C 24 34.328423 23.328423 35 22.5 35 C 21.671579 35 21 34.328423 21 33.5 C 21 32.671577 21.671579 32 22.5 32 z M 27.5 32 C 28.328423 32 29 32.671577 29 33.5 C 29 34.328423 28.328423 35 27.5 35 C 26.671579 35 26 34.328423 26 33.5 C 26 32.671577 26.671579 32 27.5 32 z " /></svg>
