<?xml version="1.0" encoding="UTF-8" standalone="no"?>
<!-- Created with Inkscape (http://www.inkscape.org/) -->

<svg
   width="48"
   height="48"
   viewBox="0 0 48 48"
   version="1.1"
   id="svg371"
   xml:space="preserve"
   inkscape:version="1.2.2 (b0a8486541, 2022-12-01)"
   sodipodi:docname="preferences-system-network-ethernet.svg"
   xmlns:inkscape="http://www.inkscape.org/namespaces/inkscape"
   xmlns:sodipodi="http://sodipodi.sourceforge.net/DTD/sodipodi-0.dtd"
   xmlns="http://www.w3.org/2000/svg"
   xmlns:svg="http://www.w3.org/2000/svg"><sodipodi:namedview
     id="namedview373"
     pagecolor="#ffffff"
     bordercolor="#000000"
     borderopacity="0.25"
     inkscape:showpageshadow="2"
     inkscape:pageopacity="0.0"
     inkscape:pagecheckerboard="0"
     inkscape:deskcolor="#d1d1d1"
     inkscape:document-units="px"
     showgrid="false"
     inkscape:zoom="16.458333"
     inkscape:cx="23.96962"
     inkscape:cy="24"
     inkscape:window-width="1920"
     inkscape:window-height="1011"
     inkscape:window-x="0"
     inkscape:window-y="0"
     inkscape:window-maximized="1"
     inkscape:current-layer="svg371"
     showguides="false" /><defs
     id="defs368" /><path
     d="M 2,24 C 2,7.5 7.5,2 24,2 40.5,2 46,7.5 46,24 46,40.5 40.5,46 24,46 7.5,46 2,40.5 2,24"
     style="fill:#54abe9;fill-opacity:1;stroke-width:0.22"
     id="path311" /><path
     id="rect894"
     style="fill:#ffffff;fill-opacity:1;stroke-linecap:round;stroke-linejoin:round"
     d="m 15.243975,16.756419 c -0.255619,0 -0.511163,0.09905 -0.707032,0.294922 l -6.2441402,6.242188 c -0.3917371,0.391736 -0.3917371,1.022326 0,1.414062 l 6.2441402,6.242188 c 0.391737,0.391736 1.022326,0.391736 1.414063,0 0.391735,-0.391736 0.391736,-1.022327 0,-1.414063 L 10.41585,24.00056 15.951006,18.465404 c 0.391736,-0.391736 0.391736,-1.022327 0,-1.414063 -0.195868,-0.195868 -0.451412,-0.294922 -0.707031,-0.294922 z m 17.513671,0 c -0.255618,0 -0.513116,0.09905 -0.708984,0.294922 -0.391736,0.391736 -0.391736,1.022327 0,1.414063 l 5.53711,5.535156 -5.53711,5.535156 c -0.391735,0.391736 -0.391735,1.022327 0,1.414063 0.391737,0.391736 1.02428,0.391737 1.416016,0 l 6.242187,-6.242188 c 0.391736,-0.391737 0.391737,-1.022326 0,-1.414062 L 33.464678,17.051341 C 33.268809,16.855473 33.013265,16.756419 32.757646,16.756419 Z M 14.999834,23.00056 c -0.553999,0 -1,0.446001 -1,1 0,0.553999 0.446001,1 1,1 h 18 c 0.553999,0 1,-0.446001 1,-1 0,-0.553999 -0.446001,-1 -1,-1 z"
     sodipodi:nodetypes="sccccsscssssscccsssccssssssss" /></svg>
