<?xml version="1.0" encoding="UTF-8" standalone="no"?>
<!-- Created with Inkscape (http://www.inkscape.org/) -->

<svg
   width="48"
   height="48"
   viewBox="0 0 48 48"
   version="1.1"
   id="svg371"
   xml:space="preserve"
   inkscape:version="1.2.2 (b0a8486541, 2022-12-01)"
   sodipodi:docname="preferences-desktop-plasma-theme.svg"
   xmlns:inkscape="http://www.inkscape.org/namespaces/inkscape"
   xmlns:sodipodi="http://sodipodi.sourceforge.net/DTD/sodipodi-0.dtd"
   xmlns="http://www.w3.org/2000/svg"
   xmlns:svg="http://www.w3.org/2000/svg"><sodipodi:namedview
     id="namedview373"
     pagecolor="#ffffff"
     bordercolor="#000000"
     borderopacity="0.25"
     inkscape:showpageshadow="2"
     inkscape:pageopacity="0.0"
     inkscape:pagecheckerboard="0"
     inkscape:deskcolor="#d1d1d1"
     inkscape:document-units="px"
     showgrid="false"
     inkscape:zoom="17.1875"
     inkscape:cx="21.032727"
     inkscape:cy="23.970909"
     inkscape:window-width="1920"
     inkscape:window-height="1011"
     inkscape:window-x="0"
     inkscape:window-y="0"
     inkscape:window-maximized="1"
     inkscape:current-layer="svg371"
     showguides="true" /><defs
     id="defs368" /><path
     d="M 2,24 C 2,7.5 7.5,2 24,2 40.5,2 46,7.5 46,24 46,40.5 40.5,46 24,46 7.5,46 2,40.5 2,24"
     style="fill:#c47bdf;fill-opacity:1;stroke-width:0.22"
     id="path311" /><path
     id="path360"
     style="fill:#ffffff;stroke-width:1.5"
     d="m 16,9 c -1.107997,0 -2,0.892004 -2,2 0,1.107996 0.892003,2 2,2 1.107997,0 2,-0.892004 2,-2 C 18,9.892003 17.107997,9 16,9 Z M 28.287109,9 24,13.199219 30.429688,19.5 24,25.800781 28.287109,30 39,19.5 Z M 12,21 c -1.661982,0 -3,1.337994 -3,3 0,1.661982 1.338018,3 3,3 1.662006,0 3,-1.338018 3,-3 0,-1.662006 -1.337994,-3 -3,-3 z m 8,10 c -2.215978,0 -4,1.78399 -4,4 0,2.215978 1.784022,4 4,4 2.21601,0 4,-1.784022 4,-4 0,-2.21601 -1.78399,-4 -4,-4 z" /></svg>
