<?xml version="1.0" encoding="UTF-8" standalone="no"?>
<!-- Created with Inkscape (http://www.inkscape.org/) -->

<svg
   width="48"
   height="48"
   viewBox="0 0 48 48"
   version="1.1"
   id="svg371"
   xml:space="preserve"
   inkscape:version="1.2.2 (1:1.2.2+202305151914+b0a8486541)"
   sodipodi:docname="preferences-devices-printer.svg"
   xmlns:inkscape="http://www.inkscape.org/namespaces/inkscape"
   xmlns:sodipodi="http://sodipodi.sourceforge.net/DTD/sodipodi-0.dtd"
   xmlns="http://www.w3.org/2000/svg"
   xmlns:svg="http://www.w3.org/2000/svg"><sodipodi:namedview
     id="namedview373"
     pagecolor="#ffffff"
     bordercolor="#000000"
     borderopacity="0.25"
     inkscape:showpageshadow="2"
     inkscape:pageopacity="0.0"
     inkscape:pagecheckerboard="0"
     inkscape:deskcolor="#d1d1d1"
     inkscape:document-units="px"
     showgrid="false"
     inkscape:zoom="16.791667"
     inkscape:cx="23.970223"
     inkscape:cy="24"
     inkscape:window-width="1920"
     inkscape:window-height="1008"
     inkscape:window-x="0"
     inkscape:window-y="0"
     inkscape:window-maximized="1"
     inkscape:current-layer="svg371"
     showguides="true" /><defs
     id="defs368" /><path
     d="M 2,24 C 2,7.5 7.5,2 24,2 40.5,2 46,7.5 46,24 46,40.5 40.5,46 24,46 7.5,46 2,40.5 2,24"
     style="fill:#5098ee;fill-opacity:1;stroke-width:0.22"
     id="path311" /><path
     id="rect342"
     style="fill:#ffffff;fill-opacity:1;stroke-width:1"
     d="M 17 10 C 15.338006 10 14 11.338006 14 13 L 14 23 L 34 23 L 34 19 L 29 19 C 26.784004 19 25 17.215996 25 15 L 25 10 L 17 10 z M 26 10 L 26 15 C 26 16.661998 27.338002 18 29 18 L 34 18 L 26 10 z M 13 24 C 11.338004 24 10 25.338004 10 27 L 10 35 C 10 36.661996 11.338004 38 13 38 L 35 38 C 36.661996 38 38 36.661996 38 35 L 38 27 C 38 25.338004 36.661996 24 35 24 L 13 24 z M 14.5 32 L 33.5 32 C 34.330998 32 35 32.669002 35 33.5 C 35 34.330998 34.330998 35 33.5 35 L 14.5 35 C 13.669002 35 13 34.330998 13 33.5 C 13 32.669002 13.669002 32 14.5 32 z " /></svg>
