<?xml version="1.0" encoding="UTF-8" standalone="no"?>
<!-- Created with Inkscape (http://www.inkscape.org/) -->

<svg
   width="48"
   height="48"
   viewBox="0 0 48 48"
   version="1.1"
   id="svg371"
   xml:space="preserve"
   inkscape:version="1.2.2 (1:1.2.2+202212051552+b0a8486541)"
   sodipodi:docname="preferences-system-language.svg"
   xmlns:inkscape="http://www.inkscape.org/namespaces/inkscape"
   xmlns:sodipodi="http://sodipodi.sourceforge.net/DTD/sodipodi-0.dtd"
   xmlns="http://www.w3.org/2000/svg"
   xmlns:svg="http://www.w3.org/2000/svg"><sodipodi:namedview
     id="namedview373"
     pagecolor="#ffffff"
     bordercolor="#000000"
     borderopacity="0.25"
     inkscape:showpageshadow="2"
     inkscape:pageopacity="0.0"
     inkscape:pagecheckerboard="0"
     inkscape:deskcolor="#d1d1d1"
     inkscape:document-units="px"
     showgrid="false"
     inkscape:zoom="16.875"
     inkscape:cx="24"
     inkscape:cy="24"
     inkscape:window-width="1920"
     inkscape:window-height="1012"
     inkscape:window-x="0"
     inkscape:window-y="0"
     inkscape:window-maximized="1"
     inkscape:current-layer="svg371"
     showguides="true"
     inkscape:lockguides="true" /><defs
     id="defs368" /><path
     d="M 2,24 C 2,7.5 7.5,2 24,2 40.5,2 46,7.5 46,24 46,40.5 40.5,46 24,46 7.5,46 2,40.5 2,24"
     style="fill:#088d9c;fill-opacity:1;stroke-width:0.22"
     id="path311" /><rect
     style="fill:#61b6bb;fill-opacity:1;stroke-width:3;stroke-linecap:round;stroke-linejoin:round"
     id="rect7209"
     width="17"
     height="17"
     x="22"
     y="22"
     ry="3" /><rect
     style="fill:#ffffff;stroke-width:2;stroke-linecap:round;stroke-linejoin:round"
     id="rect7207"
     width="17"
     height="17"
     x="9"
     y="9"
     ry="3" /><path
     id="rect343"
     style="fill:#088d9c;stroke-width:2;stroke-linecap:round;stroke-linejoin:round"
     d="m 16.5,12 h 2 L 14,23 h -2 z"
     sodipodi:nodetypes="ccccc" /><path
     id="rect343-3"
     style="fill:#088d9c;stroke-width:2;stroke-linecap:round;stroke-linejoin:round"
     d="m 18.5,12 h -2 L 21,23 h 2 z"
     sodipodi:nodetypes="ccccc" /><rect
     style="fill:#088d9c;stroke-width:2;stroke-linecap:round;stroke-linejoin:round"
     id="rect420"
     width="6"
     height="2"
     x="14.5"
     y="18" /><path
     id="rect422"
     style="fill:#ffffff;stroke-width:2;stroke-linecap:round;stroke-linejoin:round"
     d="m 32,25 v 11 h 2 v -5 h 2 v -2 h -2 v -4 z m -7,1 v 2 h 3 c 0,2.209137 -1.260281,4 -3,4 v 2 c 3.249997,0.0061 5,-2.686295 5,-6 v -2 z" /></svg>
