<?xml version="1.0" encoding="UTF-8" standalone="no"?>
<!-- Created with Inkscape (http://www.inkscape.org/) -->

<svg
   width="48"
   height="48"
   viewBox="0 0 48 48"
   version="1.1"
   id="svg371"
   xml:space="preserve"
   inkscape:version="1.2.2 (1:1.2.2+202212051552+b0a8486541)"
   sodipodi:docname="preferences-desktop-keyboard.svg"
   xmlns:inkscape="http://www.inkscape.org/namespaces/inkscape"
   xmlns:sodipodi="http://sodipodi.sourceforge.net/DTD/sodipodi-0.dtd"
   xmlns="http://www.w3.org/2000/svg"
   xmlns:svg="http://www.w3.org/2000/svg"><sodipodi:namedview
     id="namedview373"
     pagecolor="#ffffff"
     bordercolor="#000000"
     borderopacity="0.25"
     inkscape:showpageshadow="2"
     inkscape:pageopacity="0.0"
     inkscape:pagecheckerboard="0"
     inkscape:deskcolor="#d1d1d1"
     inkscape:document-units="px"
     showgrid="false"
     inkscape:zoom="16.875"
     inkscape:cx="24"
     inkscape:cy="24"
     inkscape:window-width="1920"
     inkscape:window-height="1012"
     inkscape:window-x="0"
     inkscape:window-y="0"
     inkscape:window-maximized="1"
     inkscape:current-layer="svg371"
     showguides="true" /><defs
     id="defs368" /><path
     d="M 2,24 C 2,7.5 7.5,2 24,2 40.5,2 46,7.5 46,24 46,40.5 40.5,46 24,46 7.5,46 2,40.5 2,24"
     style="fill:#0091b1;fill-opacity:1;stroke-width:0.22"
     id="path311" /><path
     id="rect924"
     style="fill:#ffffff;stroke-width:3;stroke-linecap:round;stroke-linejoin:round"
     d="m 12,14 c -1.661996,0 -3,1.338004 -3,3 v 13 c 0,1.661996 1.338004,3 3,3 h 23 c 1.661996,0 3,-1.338004 3,-3 V 17 c 0,-1.661996 -1.338004,-3 -3,-3 z m 1.5,3 A 1.5,1.5 0 0 1 15,18.5 1.5,1.5 0 0 1 13.5,20 1.5,1.5 0 0 1 12,18.5 1.5,1.5 0 0 1 13.5,17 Z m 5,0 A 1.5,1.5 0 0 1 20,18.5 1.5,1.5 0 0 1 18.5,20 1.5,1.5 0 0 1 17,18.5 1.5,1.5 0 0 1 18.5,17 Z m 5,0 A 1.5,1.5 0 0 1 25,18.5 1.5,1.5 0 0 1 23.5,20 1.5,1.5 0 0 1 22,18.5 1.5,1.5 0 0 1 23.5,17 Z m 5,0 A 1.5,1.5 0 0 1 30,18.5 1.5,1.5 0 0 1 28.5,20 1.5,1.5 0 0 1 27,18.5 1.5,1.5 0 0 1 28.5,17 Z m 5,0 A 1.5,1.5 0 0 1 35,18.5 1.5,1.5 0 0 1 33.5,20 1.5,1.5 0 0 1 32,18.5 1.5,1.5 0 0 1 33.5,17 Z m -20,5 A 1.5,1.5 0 0 1 15,23.5 1.5,1.5 0 0 1 13.5,25 1.5,1.5 0 0 1 12,23.5 1.5,1.5 0 0 1 13.5,22 Z m 5,0 A 1.5,1.5 0 0 1 20,23.5 1.5,1.5 0 0 1 18.5,25 1.5,1.5 0 0 1 17,23.5 1.5,1.5 0 0 1 18.5,22 Z m 5,0 A 1.5,1.5 0 0 1 25,23.5 1.5,1.5 0 0 1 23.5,25 1.5,1.5 0 0 1 22,23.5 1.5,1.5 0 0 1 23.5,22 Z m 5,0 A 1.5,1.5 0 0 1 30,23.5 1.5,1.5 0 0 1 28.5,25 1.5,1.5 0 0 1 27,23.5 1.5,1.5 0 0 1 28.5,22 Z m 5,0 A 1.5,1.5 0 0 1 35,23.5 1.5,1.5 0 0 1 33.5,25 1.5,1.5 0 0 1 32,23.5 1.5,1.5 0 0 1 33.5,22 Z M 15,27 h 17 v 3 H 15 Z" /></svg>
