<?xml version="1.0" encoding="UTF-8" standalone="no"?>
<!-- Created with Inkscape (http://www.inkscape.org/) -->

<svg
   width="48"
   height="48"
   viewBox="0 0 48 48"
   version="1.1"
   id="svg371"
   xml:space="preserve"
   inkscape:version="1.2.2 (1:1.2.2+202212051552+b0a8486541)"
   sodipodi:docname="preferences-desktop-theme-applications.svg"
   xmlns:inkscape="http://www.inkscape.org/namespaces/inkscape"
   xmlns:sodipodi="http://sodipodi.sourceforge.net/DTD/sodipodi-0.dtd"
   xmlns="http://www.w3.org/2000/svg"
   xmlns:svg="http://www.w3.org/2000/svg"><sodipodi:namedview
     id="namedview373"
     pagecolor="#ffffff"
     bordercolor="#000000"
     borderopacity="0.25"
     inkscape:showpageshadow="2"
     inkscape:pageopacity="0.0"
     inkscape:pagecheckerboard="0"
     inkscape:deskcolor="#d1d1d1"
     inkscape:document-units="px"
     showgrid="false"
     inkscape:zoom="16.875"
     inkscape:cx="24"
     inkscape:cy="24"
     inkscape:window-width="1920"
     inkscape:window-height="1012"
     inkscape:window-x="0"
     inkscape:window-y="0"
     inkscape:window-maximized="1"
     inkscape:current-layer="svg371"
     showguides="true" /><defs
     id="defs368" /><path
     d="M 2,24 C 2,7.5 7.5,2 24,2 40.5,2 46,7.5 46,24 46,40.5 40.5,46 24,46 7.5,46 2,40.5 2,24"
     style="fill:#c47bdf;fill-opacity:1;stroke-width:0.22"
     id="path311"
     sodipodi:nodetypes="csssc" /><path
     id="rect899"
     style="fill:#ffffff;fill-opacity:1;stroke-width:4.5;stroke-linecap:round;stroke-linejoin:round"
     d="M 31.5 12 A 4.5 4.5 0 0 0 27.267578 15 L 10.5 15 C 9.6690008 15 9 15.669001 9 16.5 C 9 17.330999 9.6690008 18 10.5 18 L 27.267578 18 A 4.5 4.5 0 0 0 31.5 21 A 4.5 4.5 0 0 0 35.732422 18 L 37.5 18 C 38.330999 18 39 17.330999 39 16.5 C 39 15.669001 38.330999 15 37.5 15 L 35.742188 15 A 4.5 4.5 0 0 0 31.5 12 z M 17.5 27 A 4.5 4.5 0 0 0 13.267578 30 L 10.5 30 C 9.6690008 30 9 30.669001 9 31.5 C 9 32.330999 9.6690008 33 10.5 33 L 13.267578 33 A 4.5 4.5 0 0 0 17.5 36 A 4.5 4.5 0 0 0 21.732422 33 L 37.5 33 C 38.330999 33 39 32.330999 39 31.5 C 39 30.669001 38.330999 30 37.5 30 L 21.742188 30 A 4.5 4.5 0 0 0 17.5 27 z " /></svg>
