<?xml version="1.0" encoding="UTF-8" standalone="no"?>
<svg
   viewbox="0 0 200 200"
   version="1.1"
   id="svg4"
   sodipodi:docname="preferences-system-splash.svg"
   width="48"
   height="48"
   inkscape:version="1.2.2 (1:1.2.2+202212051552+b0a8486541)"
   xmlns:inkscape="http://www.inkscape.org/namespaces/inkscape"
   xmlns:sodipodi="http://sodipodi.sourceforge.net/DTD/sodipodi-0.dtd"
   xmlns="http://www.w3.org/2000/svg"
   xmlns:svg="http://www.w3.org/2000/svg">
  <defs
     id="defs8" />
  <sodipodi:namedview
     id="namedview6"
     pagecolor="#ffffff"
     bordercolor="#666666"
     borderopacity="1.0"
     inkscape:pageshadow="2"
     inkscape:pageopacity="0.0"
     inkscape:pagecheckerboard="0"
     showgrid="false"
     inkscape:zoom="16.875"
     inkscape:cx="24"
     inkscape:cy="24"
     inkscape:window-width="1920"
     inkscape:window-height="1012"
     inkscape:window-x="0"
     inkscape:window-y="0"
     inkscape:window-maximized="1"
     inkscape:current-layer="svg4"
     showguides="false"
     inkscape:showpageshadow="2"
     inkscape:deskcolor="#d1d1d1" />
  <path
     d="M 2,24 C 2,7.4999997 7.5,2 24,2 40.5,2 46,7.4999997 46,24 46,40.5 40.5,46 24,46 7.5,46 2,40.5 2,24"
     style="fill:#c47bdf;fill-opacity:1;stroke-width:0.22"
     id="path311" />
  <path
     id="path3858"
     style="fill:#ffffff;stroke-width:1.5;stroke-linecap:round;stroke-linejoin:round"
     d="M 24,9 A 15,15 0 0 0 9,24 15,15 0 0 0 24,39 15,15 0 0 0 34.579101,34.579101 L 32.485839,32.485839 A 12,12 0 0 1 24,36 12,12 0 0 1 12,24 12,12 0 0 1 24,12 Z" />
  <path
     id="path3939"
     style="opacity:0.5;fill:#ffffff;stroke-width:1.5;stroke-linecap:round;stroke-linejoin:round"
     d="m 24,9 v 3 a 12,12 0 0 1 12,12 12,12 0 0 1 -3.514161,8.485839 l 2.093262,2.093262 A 15,15 0 0 0 39,24 15,15 0 0 0 24,9 Z" />
</svg>
