<?xml version="1.0" encoding="UTF-8" standalone="no"?>
<!-- Created with Inkscape (http://www.inkscape.org/) -->

<svg
   width="48"
   height="48"
   viewBox="0 0 48 48"
   version="1.1"
   id="svg371"
   xml:space="preserve"
   inkscape:version="1.2.2 (1:1.2.2+202212051552+b0a8486541)"
   sodipodi:docname="preferences-desktop-font.svg"
   xmlns:inkscape="http://www.inkscape.org/namespaces/inkscape"
   xmlns:sodipodi="http://sodipodi.sourceforge.net/DTD/sodipodi-0.dtd"
   xmlns="http://www.w3.org/2000/svg"
   xmlns:svg="http://www.w3.org/2000/svg"><sodipodi:namedview
     id="namedview373"
     pagecolor="#ffffff"
     bordercolor="#000000"
     borderopacity="0.25"
     inkscape:showpageshadow="2"
     inkscape:pageopacity="0.0"
     inkscape:pagecheckerboard="0"
     inkscape:deskcolor="#d1d1d1"
     inkscape:document-units="px"
     showgrid="false"
     inkscape:zoom="16.875"
     inkscape:cx="24"
     inkscape:cy="24"
     inkscape:window-width="1920"
     inkscape:window-height="1012"
     inkscape:window-x="0"
     inkscape:window-y="0"
     inkscape:window-maximized="1"
     inkscape:current-layer="svg371"
     showguides="true" /><defs
     id="defs368" /><path
     d="M 2,24 C 2,7.5 7.5,2 24,2 40.5,2 46,7.5 46,24 46,40.5 40.5,46 24,46 7.5,46 2,40.5 2,24"
     style="fill:#9c9c9c;fill-opacity:1;stroke-width:0.22"
     id="path311" /><path
     id="path12"
     class="st2"
     d="M 16.133248,13 9,33.06684 h 2.46658 l 1.777778,-5.333333 h 8.288629 l 1.822481,5.333333 h 2.488716 L 18.710939,13 Z m 1.244356,2.444445 3.466581,10.24479 v 0.02214 H 13.93316 Z m 16.266493,2.422308 c -1.555556,0 -2.999913,0.333248 -4.355469,1.022136 l 0.577692,1.866754 c 1.088889,-0.511113 2.244704,-0.777777 3.489148,-0.777777 1.111112,0 1.977779,0.222481 2.555556,0.71137 0.577778,0.488889 0.866753,1.177778 0.866753,2.11111 v 0.977432 c -3.088888,0 -5.355901,0.444704 -6.800346,1.266927 -1.444445,0.844444 -2.155382,2.133245 -2.155382,3.911025 0,1.399999 0.399999,2.488714 1.222222,3.266491 0.822222,0.777778 1.955556,1.155816 3.444443,1.155816 2.022224,0 3.511025,-0.73342 4.46658,-2.200088 V 33.06684 H 39 V 22.578124 c 0,-1.533331 -0.488889,-2.711283 -1.444444,-3.511283 -0.977779,-0.8 -2.289236,-1.200088 -3.911459,-1.200088 z m 3.155815,7.666666 v 4.066841 c -0.555554,0.6 -1.133506,1.022221 -1.733506,1.333332 -0.622222,0.28889 -1.310852,0.42231 -2.066406,0.42231 -0.955556,0 -1.689063,-0.200087 -2.177952,-0.644532 -0.488889,-0.444444 -0.733506,-1.089149 -0.733506,-1.933593 0,-1.11111 0.533507,-1.933332 1.622395,-2.444443 1.08889,-0.511112 2.777866,-0.777692 5.088975,-0.799915 z"
     style="fill:#ffffff;stroke-width:0.222222" /></svg>
