<?xml version="1.0" encoding="UTF-8" standalone="no"?>
<!-- Created with Inkscape (http://www.inkscape.org/) -->

<svg
   width="48"
   height="48"
   viewBox="0 0 48 48"
   version="1.1"
   id="svg371"
   xml:space="preserve"
   inkscape:version="1.2.2 (1:1.2.2+202212051552+b0a8486541)"
   sodipodi:docname="preferences-system-search.svg"
   xmlns:inkscape="http://www.inkscape.org/namespaces/inkscape"
   xmlns:sodipodi="http://sodipodi.sourceforge.net/DTD/sodipodi-0.dtd"
   xmlns="http://www.w3.org/2000/svg"
   xmlns:svg="http://www.w3.org/2000/svg"><sodipodi:namedview
     id="namedview373"
     pagecolor="#ffffff"
     bordercolor="#000000"
     borderopacity="0.25"
     inkscape:showpageshadow="2"
     inkscape:pageopacity="0.0"
     inkscape:pagecheckerboard="0"
     inkscape:deskcolor="#d1d1d1"
     inkscape:document-units="px"
     showgrid="false"
     inkscape:zoom="16.875"
     inkscape:cx="24"
     inkscape:cy="24"
     inkscape:window-width="1920"
     inkscape:window-height="1012"
     inkscape:window-x="0"
     inkscape:window-y="0"
     inkscape:window-maximized="1"
     inkscape:current-layer="svg371"
     showguides="false"
     inkscape:lockguides="true" /><defs
     id="defs368" /><path
     d="M 2,24 C 2,7.5 7.5,2 24,2 40.5,2 46,7.5 46,24 46,40.5 40.5,46 24,46 7.5,46 2,40.5 2,24"
     style="fill:#29a3ca;fill-opacity:1;stroke-width:0.22"
     id="path311" /><path
     id="path950"
     style="fill:#ffffff;fill-opacity:1;stroke-width:3.15;stroke-linecap:round;stroke-linejoin:round"
     d="M 19.5,9 A 10.5,10.5 0 0 0 9,19.5 10.5,10.5 0 0 0 19.5,30 10.5,10.5 0 0 0 25.767578,27.890625 l 9.302734,9.302734 c 0.587606,0.587606 1.535443,0.587606 2.123047,0 0.587606,-0.587604 0.587606,-1.535441 0,-2.123047 L 27.890625,25.767578 A 10.5,10.5 0 0 0 30,19.5 10.5,10.5 0 0 0 19.5,9 Z m 0,3 A 7.5,7.5 0 0 1 27,19.5 7.5,7.5 0 0 1 19.5,27 7.5,7.5 0 0 1 12,19.5 7.5,7.5 0 0 1 19.5,12 Z" /></svg>
