<?xml version="1.0" encoding="UTF-8" standalone="no"?>
<!-- Created with Inkscape (http://www.inkscape.org/) -->

<svg
   width="16"
   height="16"
   viewBox="0 0 16 16.000001"
   version="1.1"
   id="svg5"
   sodipodi:docname="battery-level-60-symbolic.svg"
   inkscape:version="1.2 (1:1.2.1+202207142221+cd75a1ee6d)"
   xmlns:inkscape="http://www.inkscape.org/namespaces/inkscape"
   xmlns:sodipodi="http://sodipodi.sourceforge.net/DTD/sodipodi-0.dtd"
   xmlns="http://www.w3.org/2000/svg"
   xmlns:svg="http://www.w3.org/2000/svg">
  <sodipodi:namedview
     id="namedview7"
     pagecolor="#ffffff"
     bordercolor="#000000"
     borderopacity="0.25"
     inkscape:showpageshadow="2"
     inkscape:pageopacity="0.0"
     inkscape:pagecheckerboard="0"
     inkscape:deskcolor="#d1d1d1"
     inkscape:document-units="px"
     showgrid="false"
     inkscape:zoom="51.5625"
     inkscape:cx="7.990303"
     inkscape:cy="8"
     inkscape:window-width="1920"
     inkscape:window-height="1018"
     inkscape:window-x="0"
     inkscape:window-y="28"
     inkscape:window-maximized="1"
     inkscape:current-layer="svg5" />
  <defs
     id="defs2" />
  <path
     id="rect788"
     style="fill:#363636;stroke-width:3;stroke-linecap:round;stroke-linejoin:round;fill-opacity:1;opacity:0.3"
     d="M 6 1 L 6 2 L 5 2 C 4.4460006 2 4 2.4460006 4 3 L 4 14 C 4 14.553999 4.4460006 15 5 15 L 11 15 C 11.553999 15 12 14.553999 12 14 L 12 3 C 12 2.4460006 11.553999 2 11 2 L 10 2 L 10 1 L 6 1 z " />
  <path
     id="rect900"
     style="fill:#363636;fill-opacity:1;stroke-width:3;stroke-linecap:round;stroke-linejoin:round"
     d="m 12,7 v 7 c 0,0.554 -0.446,1 -1,1 H 5 C 4.446,15 4,14.554 4,14 V 7 Z"
     sodipodi:nodetypes="csssscc" />
</svg>
