<?xml version="1.0" encoding="UTF-8" standalone="no"?>
<!-- Created with Inkscape (http://www.inkscape.org/) -->

<svg
   width="16"
   height="16"
   viewBox="0 0 16 16.000001"
   version="1.1"
   id="svg5"
   inkscape:version="1.2 (1:1.2.1+202207142221+cd75a1ee6d)"
   sodipodi:docname="blueberry-tray-active-symbolic.svg"
   xmlns:inkscape="http://www.inkscape.org/namespaces/inkscape"
   xmlns:sodipodi="http://sodipodi.sourceforge.net/DTD/sodipodi-0.dtd"
   xmlns="http://www.w3.org/2000/svg"
   xmlns:svg="http://www.w3.org/2000/svg">
  <sodipodi:namedview
     id="namedview7"
     pagecolor="#ffffff"
     bordercolor="#000000"
     borderopacity="0.25"
     inkscape:showpageshadow="2"
     inkscape:pageopacity="0.0"
     inkscape:pagecheckerboard="0"
     inkscape:deskcolor="#d1d1d1"
     inkscape:document-units="px"
     showgrid="false"
     inkscape:zoom="51.5625"
     inkscape:cx="7.990303"
     inkscape:cy="8"
     inkscape:window-width="1920"
     inkscape:window-height="1018"
     inkscape:window-x="0"
     inkscape:window-y="28"
     inkscape:window-maximized="1"
     inkscape:current-layer="svg5" />
  <defs
     id="defs2" />
  <path
     d="M 6.5665636,0.09830002 C 6.2205692,0.26481164 6.0004572,0.6147139 6.0001574,0.99869061 V 5.0650969 L 3.6134387,3.2096282 C 3.1775514,2.871287 2.5499878,2.949951 2.2110949,3.3854095 1.8727538,3.8212968 1.9514178,4.4488603 2.3868762,4.7877532 L 6.0001574,7.5983001 V 8.3990813 L 2.3868762,11.209629 c -0.435458,0.338893 -0.5141219,0.966456 -0.1757813,1.402343 0.3388927,0.435459 0.9664563,0.514123 1.4023438,0.175782 l 2.3867187,-1.855469 v 4.066406 c -3.499e-4,0.838869 0.970049,1.305407 1.625,0.78125 l 4.9999996,-4 c 0.504555,-0.404192 0.498812,-1.173696 -0.01172,-1.570312 L 9.7716419,7.9986907 12.613438,5.7877532 C 13.12397,5.3911367 13.129713,4.6216327 12.625158,4.2174407 L 7.6251574,0.21744065 C 7.3245628,-0.02253546 6.9129795,-0.06885755 6.5665636,0.09830002 Z M 8.0001574,3.080722 10.384923,5 8.0001574,7 Z M 8,9 10.384923,11.008457 8.0001574,12.917 Z"
     style="fill:#363636;fill-opacity:1"
     id="path850"
     sodipodi:nodetypes="ccccccccccccccccccccccccccccc" />
  <path
     id="path1530"
     style="fill:#363636;fill-opacity:1;stroke-width:3;stroke-linecap:round;stroke-linejoin:round"
     d="M 2 7 A 1 1 0 0 0 1 8 A 1 1 0 0 0 2 9 A 1 1 0 0 0 3 8 A 1 1 0 0 0 2 7 z M 14 7 A 1 1 0 0 0 13 8 A 1 1 0 0 0 14 9 A 1 1 0 0 0 15 8 A 1 1 0 0 0 14 7 z " />
</svg>
