<?xml version="1.0" encoding="UTF-8" standalone="no"?>
<!-- Created with Inkscape (http://www.inkscape.org/) -->

<svg
   width="16"
   height="16"
   viewBox="0 0 16 16"
   version="1.1"
   id="svg5"
   inkscape:version="1.2.1 (1:1.2.1+202210291243+9c6d41e410)"
   sodipodi:docname="network-wireless-signal-ok-symbolic.svg"
   xmlns:inkscape="http://www.inkscape.org/namespaces/inkscape"
   xmlns:sodipodi="http://sodipodi.sourceforge.net/DTD/sodipodi-0.dtd"
   xmlns="http://www.w3.org/2000/svg"
   xmlns:svg="http://www.w3.org/2000/svg">
  <sodipodi:namedview
     id="namedview7"
     pagecolor="#ffffff"
     bordercolor="#000000"
     borderopacity="0.25"
     inkscape:showpageshadow="2"
     inkscape:pageopacity="0.0"
     inkscape:pagecheckerboard="0"
     inkscape:deskcolor="#d1d1d1"
     inkscape:document-units="px"
     showgrid="false"
     inkscape:zoom="51.5625"
     inkscape:cx="7.990303"
     inkscape:cy="8"
     inkscape:window-width="1920"
     inkscape:window-height="1018"
     inkscape:window-x="0"
     inkscape:window-y="28"
     inkscape:window-maximized="1"
     inkscape:current-layer="svg5" />
  <defs
     id="defs2" />
  <path
     id="path840"
     style="fill:#363636;fill-opacity:1;stroke-width:2.25;stroke-linecap:round;stroke-linejoin:round"
     d="M 8,10 C 7.1715729,10 6.5,10.671573 6.5,11.5 6.5,12.328427 7.1715729,13 8,13 8.8284271,13 9.5,12.328427 9.5,11.5 9.5,10.671573 8.8284271,10 8,10 Z"
     sodipodi:nodetypes="sssss" />
  <path
     id="path1186"
     style="fill:#363636;fill-opacity:1;stroke-width:2.25;stroke-linecap:round;stroke-linejoin:round;opacity:0.2"
     d="M 8 2.0058594 C 5.4386908 2.0058595 2.8781154 2.9812595 0.9296875 4.9296875 C 0.53926439 5.3201941 0.53926439 5.9532434 0.9296875 6.34375 C 1.3201941 6.7341732 1.9532434 6.7341732 2.34375 6.34375 C 5.4763103 3.2111896 10.523689 3.2111898 13.65625 6.34375 C 14.046757 6.7341729 14.679806 6.7341729 15.070312 6.34375 C 15.460736 5.9532434 15.460736 5.3201941 15.070312 4.9296875 C 13.121884 2.9812596 10.561308 2.0058593 8 2.0058594 z M 8 6.0058594 C 6.4623768 6.0058594 4.9251941 6.5904309 3.7578125 7.7578125 C 3.3673893 8.1483191 3.3673893 8.7813684 3.7578125 9.171875 C 4.1483191 9.5622982 4.7813684 9.5622982 5.171875 9.171875 C 6.7423428 7.6014072 9.2576571 7.6014073 10.828125 9.171875 C 11.218632 9.5622985 11.851681 9.5622985 12.242188 9.171875 C 12.632611 8.7813684 12.632611 8.1483191 12.242188 7.7578125 C 11.074805 6.590431 9.5376232 6.0058593 8 6.0058594 z " />
</svg>
