<?xml version="1.0" encoding="UTF-8" standalone="no"?>
<!-- Created with Inkscape (http://www.inkscape.org/) -->

<svg
   width="16"
   height="16"
   viewBox="0 0 16 16"
   version="1.1"
   id="svg5"
   inkscape:version="1.2 (1:1.2.1+202207142221+cd75a1ee6d)"
   sodipodi:docname="network-cellular-signal-excellent-symbolic.svg"
   xmlns:inkscape="http://www.inkscape.org/namespaces/inkscape"
   xmlns:sodipodi="http://sodipodi.sourceforge.net/DTD/sodipodi-0.dtd"
   xmlns="http://www.w3.org/2000/svg"
   xmlns:svg="http://www.w3.org/2000/svg">
  <sodipodi:namedview
     id="namedview7"
     pagecolor="#ffffff"
     bordercolor="#000000"
     borderopacity="0.25"
     inkscape:showpageshadow="2"
     inkscape:pageopacity="0.0"
     inkscape:pagecheckerboard="0"
     inkscape:deskcolor="#d1d1d1"
     inkscape:document-units="px"
     showgrid="false"
     inkscape:zoom="51.5625"
     inkscape:cx="7.990303"
     inkscape:cy="8"
     inkscape:window-width="1920"
     inkscape:window-height="1018"
     inkscape:window-x="0"
     inkscape:window-y="28"
     inkscape:window-maximized="1"
     inkscape:current-layer="svg5" />
  <defs
     id="defs2" />
  <path
     id="rect788"
     style="fill:#363636;stroke-width:3;stroke-linecap:round;stroke-linejoin:round"
     d="m 14,2 c -0.553999,0 -1,0.4460006 -1,1 v 11 c 0,0.553999 0.446001,1 1,1 0.553999,0 1,-0.446001 1,-1 V 3 C 15,2.4460006 14.553999,2 14,2 Z M 10,5 C 9.4460006,5 9,5.4460006 9,6 v 8 c 0,0.553999 0.4460006,1 1,1 0.553999,0 1,-0.446001 1,-1 V 6 C 11,5.4460006 10.553999,5 10,5 Z M 6,8 C 5.4460006,8 5,8.4460006 5,9 v 5 c 0,0.553999 0.4460006,1 1,1 0.5539994,0 1,-0.446001 1,-1 V 9 C 7,8.4460006 6.5539994,8 6,8 Z m -4,3 c -0.5539994,0 -1,0.446001 -1,1 v 2 c 0,0.553999 0.4460006,1 1,1 0.5539994,0 1,-0.446001 1,-1 V 12 C 3,11.446001 2.5539994,11 2,11 Z" />
</svg>
