<?xml version="1.0" encoding="UTF-8" standalone="no"?>
<!-- Created with Inkscape (http://www.inkscape.org/) -->

<svg
   width="32"
   height="32"
   viewBox="0 0 32 32"
   version="1.1"
   id="svg371"
   xml:space="preserve"
   inkscape:version="1.2.2 (1:1.2.2+202305151914+b0a8486541)"
   sodipodi:docname="rpm.svg"
   xmlns:inkscape="http://www.inkscape.org/namespaces/inkscape"
   xmlns:sodipodi="http://sodipodi.sourceforge.net/DTD/sodipodi-0.dtd"
   xmlns:xlink="http://www.w3.org/1999/xlink"
   xmlns="http://www.w3.org/2000/svg"
   xmlns:svg="http://www.w3.org/2000/svg"><sodipodi:namedview
     id="namedview373"
     pagecolor="#ffffff"
     bordercolor="#000000"
     borderopacity="0.25"
     inkscape:showpageshadow="2"
     inkscape:pageopacity="0.0"
     inkscape:pagecheckerboard="0"
     inkscape:deskcolor="#d1d1d1"
     inkscape:document-units="px"
     showgrid="false"
     inkscape:zoom="25.1875"
     inkscape:cx="16"
     inkscape:cy="16"
     inkscape:window-width="1920"
     inkscape:window-height="1008"
     inkscape:window-x="0"
     inkscape:window-y="0"
     inkscape:window-maximized="1"
     inkscape:current-layer="svg371"
     showguides="false" /><defs
     id="defs368"><linearGradient
       inkscape:collect="always"
       id="linearGradient1120"><stop
         style="stop-color:#db280f;stop-opacity:1;"
         offset="0"
         id="stop1116" /><stop
         style="stop-color:#dd5b4e;stop-opacity:1;"
         offset="1"
         id="stop1118" /></linearGradient><linearGradient
       inkscape:collect="always"
       xlink:href="#linearGradient1120"
       id="linearGradient3040"
       x1="32"
       y1="62"
       x2="32"
       y2="2"
       gradientUnits="userSpaceOnUse"
       gradientTransform="scale(0.5)" /></defs><path
     d="M 1,16 C 1,4.75 4.75,1 16,1 27.25,1 31,4.75 31,16 31,27.25 27.25,31 16,31 4.75,31 1,27.25 1,16"
     style="fill:url(#linearGradient3040);fill-opacity:1;stroke-width:0.15"
     id="path311" /><path
     id="path447"
     style="font-weight:600;font-size:24px;font-family:SamsungOneKorean;-inkscape-font-specification:'SamsungOneKorean Semi-Bold';fill:#ffffff;stroke-width:2.1802;stroke-linecap:round;stroke-linejoin:round"
     d="m 6,11.804004 v 8 h 1.0939229 v -2.972376 h 1.3701657 l 1.8895024,2.972376 h 1.325967 L 9.6132599,16.710081 c 0.5303861,-0.147329 0.9355431,-0.427256 1.2154691,-0.839779 0.287293,-0.419888 0.43094,-0.939226 0.43094,-1.558011 0,-0.788212 -0.224678,-1.403315 -0.674034,-1.845304 -0.441988,-0.441988 -1.0607742,-0.662983 -1.8563531,-0.662983 h -1.635359 z m 6.994475,0 v 8 h 1.093923 v -2.740332 h 1.679557 c 0.817679,0 1.454881,-0.232045 1.911602,-0.696133 0.464089,-0.464087 0.696133,-1.112338 0.696133,-1.94475 0,-0.825045 -0.224678,-1.46593 -0.674033,-1.922652 -0.441988,-0.464087 -1.068141,-0.696132 -1.878453,-0.696132 h -1.734807 z m 6.596685,0 v 8 h 1.049723 v -6.276243 l 2.055248,4.651934 h 1.149172 l 2.055248,-4.651934 v 6.276243 h 1.071824 v -8 h -1.337017 l -2.342542,5.348066 -2.38674,-5.348066 z M 7.0939229,12.77638 h 1.5911602 c 0.4714542,0 0.8287291,0.132597 1.0718228,0.397789 0.2430941,0.257827 0.3646401,0.640886 0.3646401,1.149172 0,1.031307 -0.4640883,1.546961 -1.3922641,1.546961 h -1.635359 z m 6.9944751,0.01105 h 1.679557 c 0.486187,0 0.850829,0.139964 1.093923,0.41989 0.25046,0.27256 0.37569,0.681401 0.37569,1.22652 0,0.537752 -0.121546,0.946593 -0.364641,1.226519 -0.235727,0.279925 -0.585635,0.419888 -1.049723,0.419888 h -1.734806 z" /></svg>
