<?xml version="1.0" encoding="UTF-8" standalone="no"?>
<!-- Created with Inkscape (http://www.inkscape.org/) -->

<svg
   width="32"
   height="32"
   viewBox="0 0 32 32"
   version="1.1"
   id="svg371"
   xml:space="preserve"
   inkscape:version="1.2.2 (1:1.2.2+202305151914+b0a8486541)"
   sodipodi:docname="text-x-generic.svg"
   xmlns:inkscape="http://www.inkscape.org/namespaces/inkscape"
   xmlns:sodipodi="http://sodipodi.sourceforge.net/DTD/sodipodi-0.dtd"
   xmlns:xlink="http://www.w3.org/1999/xlink"
   xmlns="http://www.w3.org/2000/svg"
   xmlns:svg="http://www.w3.org/2000/svg"><sodipodi:namedview
     id="namedview373"
     pagecolor="#ffffff"
     bordercolor="#000000"
     borderopacity="0.25"
     inkscape:showpageshadow="2"
     inkscape:pageopacity="0.0"
     inkscape:pagecheckerboard="0"
     inkscape:deskcolor="#d1d1d1"
     inkscape:document-units="px"
     showgrid="false"
     inkscape:zoom="25.9375"
     inkscape:cx="16"
     inkscape:cy="16"
     inkscape:window-width="1920"
     inkscape:window-height="1008"
     inkscape:window-x="0"
     inkscape:window-y="0"
     inkscape:window-maximized="1"
     inkscape:current-layer="svg371"
     showguides="true" /><defs
     id="defs368"><linearGradient
       inkscape:collect="always"
       xlink:href="#linearGradient3519"
       id="linearGradient3040"
       x1="32"
       y1="62"
       x2="32"
       y2="2"
       gradientUnits="userSpaceOnUse"
       gradientTransform="scale(0.5)" /><linearGradient
       inkscape:collect="always"
       id="linearGradient3519"><stop
         style="stop-color:#e4e4e4;stop-opacity:1;"
         offset="0"
         id="stop3515" /><stop
         style="stop-color:#f1f1f1;stop-opacity:1;"
         offset="1"
         id="stop3517" /></linearGradient></defs><path
     d="M 1,16 C 1,4.75 4.75,1 16,1 27.25,1 31,4.75 31,16 31,27.25 27.25,31 16,31 4.75,31 1,27.25 1,16"
     style="fill:url(#linearGradient3040);fill-opacity:1;stroke-width:0.15"
     id="path311" /><path
     id="rect509"
     style="fill:#808080;stroke-width:0.5;stroke-linecap:round;stroke-linejoin:round"
     d="M 7,7 C 6.4460005,7 6,7.4460005 6,8 6,8.554 6.4460005,9 7,9 H 25 C 25.553999,9 26,8.554 26,8 26,7.4460005 25.553999,7 25,7 Z m 0,5 c -0.5539995,0 -1,0.446001 -1,1 0,0.554 0.4460005,1 1,1 h 18 c 0.553999,0 1,-0.446 1,-1 0,-0.553999 -0.446001,-1 -1,-1 z m 0,5 c -0.5539995,0 -1,0.446 -1,1 0,0.553999 0.4460005,1 1,1 h 18 c 0.553999,0 1,-0.446001 1,-1 0,-0.554 -0.446001,-1 -1,-1 z m 0,5 c -0.5539995,0 -1,0.446 -1,1 0,0.553999 0.4460005,1 1,1 h 9 c 0.553999,0 1,-0.446001 1,-1 0,-0.554 -0.446001,-1 -1,-1 z"
     sodipodi:nodetypes="ssssssssssssssssssssssssssss" /></svg>
