<?xml version="1.0" encoding="UTF-8" standalone="no"?>
<!-- Created with Inkscape (http://www.inkscape.org/) -->

<svg
   width="24"
   height="24"
   viewBox="0 0 24 24"
   version="1.1"
   id="svg5"
   inkscape:version="1.2.2 (1:1.2.2+202305151914+b0a8486541)"
   sodipodi:docname="document-open-folder.svg"
   xmlns:inkscape="http://www.inkscape.org/namespaces/inkscape"
   xmlns:sodipodi="http://sodipodi.sourceforge.net/DTD/sodipodi-0.dtd"
   xmlns="http://www.w3.org/2000/svg"
   xmlns:svg="http://www.w3.org/2000/svg">
  <sodipodi:namedview
     id="namedview7"
     pagecolor="#ffffff"
     bordercolor="#000000"
     borderopacity="0.25"
     inkscape:showpageshadow="2"
     inkscape:pageopacity="0.0"
     inkscape:pagecheckerboard="0"
     inkscape:deskcolor="#d1d1d1"
     inkscape:document-units="px"
     showgrid="false"
     inkscape:zoom="33.583333"
     inkscape:cx="12"
     inkscape:cy="12"
     inkscape:window-width="1920"
     inkscape:window-height="1008"
     inkscape:window-x="0"
     inkscape:window-y="0"
     inkscape:window-maximized="1"
     inkscape:current-layer="svg5" />
  <defs
     id="defs2">
    <style
       id="current-color-scheme"
       type="text/css">
         .ColorScheme-Text { color:#dfdfdf; }
        </style>
  </defs>
  <path
     id="rect788"
     style="fill:currentColor;stroke:none"
     class="ColorScheme-Text"
     d="M 6,5 C 4.8920011,5 4,5.8920011 4,7 v 10 c 0,1.107999 0.8920011,2 2,2 h 12 c 1.107999,0 2,-0.892001 2,-2 V 10 C 20,8.8920011 19.107999,7.999982 18,8 l -4.999817,8.11e-5 -1.846236,-2.3461623 C 10.581524,5.0378677 10.310036,5 9.5000531,5 Z m 0,1 h 3.500053 c 0.550836,-0.00283 0.629584,0.1117884 0.911772,0.4117972 l 1.614003,2.1139294 c 0.390536,0.4192723 0.668535,0.4770195 1.284344,0.4743545 L 18,9 c 0.673592,-0.00213 1.012178,0.3007595 1,1 v 7 c 0,0.553999 -0.446001,1 -1,1 H 6 C 5.4460006,18 5,17.553999 5,17 V 7 C 5,6.4460006 5.4460006,6 6,6 Z"
     sodipodi:nodetypes="sssssssscccssccccccssssss" />
</svg>
