<?xml version="1.0" encoding="UTF-8" standalone="no"?>
<!-- Created with Inkscape (http://www.inkscape.org/) -->

<svg
   width="24"
   height="24"
   viewBox="0 0 24 24"
   version="1.1"
   id="svg5"
   inkscape:version="1.2.2 (1:1.2.2+202305151914+b0a8486541)"
   sodipodi:docname="document-print.svg"
   xmlns:inkscape="http://www.inkscape.org/namespaces/inkscape"
   xmlns:sodipodi="http://sodipodi.sourceforge.net/DTD/sodipodi-0.dtd"
   xmlns="http://www.w3.org/2000/svg"
   xmlns:svg="http://www.w3.org/2000/svg">
  <sodipodi:namedview
     id="namedview7"
     pagecolor="#ffffff"
     bordercolor="#000000"
     borderopacity="0.25"
     inkscape:showpageshadow="2"
     inkscape:pageopacity="0.0"
     inkscape:pagecheckerboard="0"
     inkscape:deskcolor="#d1d1d1"
     inkscape:document-units="px"
     showgrid="false"
     inkscape:zoom="33.583333"
     inkscape:cx="12.029777"
     inkscape:cy="12"
     inkscape:window-width="1920"
     inkscape:window-height="1008"
     inkscape:window-x="0"
     inkscape:window-y="0"
     inkscape:window-maximized="1"
     inkscape:current-layer="svg5" />
  <defs
     id="defs2">
    <style
       id="current-color-scheme"
       type="text/css">
         .ColorScheme-Text { color:#dfdfdf; }
        </style>
  </defs>
  <path
     d="M 8,4 C 6.8920021,4 6,4.8920019 6,6 v 6 c -1.1079978,0 -2,0.892002 -2,2 v 4 c 0,1.107997 0.8920022,2 2,2 h 12 c 1.107998,0 2,-0.892003 2,-2 v -4 c 0,-1.107998 -0.892002,-2 -2,-2 V 8.5 C 18.0035,7.6594834 17.825643,7.3296725 17.5,7 L 15,4.5 C 14.537031,4.0712064 14.195497,4 13.5,4 Z m 0,1 h 5 v 2 c 0,1.1079977 0.892003,2 2,2 h 2 v 3 H 7 V 6 C 7,5.4460011 7.4460006,5 8,5 Z m 6,0 3,3 H 15 C 14.446001,8 14,7.553999 14,7 Z m -8,8 h 12 c 0.553998,0 1,0.446001 1,1 v 4 c 0,0.553998 -0.446002,1 -1,1 h -1 v -3 c 0,-0.553997 -0.446003,-1 -1,-1 H 8 c -0.5539982,0 -1,0.446003 -1,1 v 3 H 6 C 5.4460012,19 5,18.553998 5,18 v -4 c 0,-0.553999 0.4460012,-1 1,-1 z m 2,3 h 8 v 3 H 8 Z"
     style="fill:currentColor;stroke:none;stroke-width:2;stroke-linecap:round;stroke-linejoin:round;stroke-dasharray:none;stroke-opacity:1"
     class="ColorScheme-Text"
     id="path1407"
     sodipodi:nodetypes="sscssssssccccssscsscccssccsscssssscsssscssssccccc" />
</svg>
