<?xml version="1.0" encoding="UTF-8" standalone="no"?>
<!-- Created with Inkscape (http://www.inkscape.org/) -->

<svg
   width="24"
   height="24"
   viewBox="0 0 24 24"
   version="1.1"
   id="svg11945"
   inkscape:version="1.2.2 (1:1.2.2+202305151914+b0a8486541)"
   sodipodi:docname="edit-delete.svg"
   xmlns:inkscape="http://www.inkscape.org/namespaces/inkscape"
   xmlns:sodipodi="http://sodipodi.sourceforge.net/DTD/sodipodi-0.dtd"
   xmlns="http://www.w3.org/2000/svg"
   xmlns:svg="http://www.w3.org/2000/svg">
  <sodipodi:namedview
     id="namedview11947"
     pagecolor="#ffffff"
     bordercolor="#666666"
     borderopacity="1.0"
     inkscape:pageshadow="2"
     inkscape:pageopacity="0.0"
     inkscape:pagecheckerboard="0"
     inkscape:document-units="px"
     showgrid="false"
     units="in"
     inkscape:zoom="33.583333"
     inkscape:cx="11.985112"
     inkscape:cy="12"
     inkscape:window-width="1920"
     inkscape:window-height="1008"
     inkscape:window-x="0"
     inkscape:window-y="0"
     inkscape:window-maximized="1"
     inkscape:current-layer="svg11945"
     showguides="true"
     inkscape:showpageshadow="2"
     inkscape:deskcolor="#d1d1d1" />
  <defs
     id="defs11942">
    <style
       id="current-color-scheme"
       type="text/css">
         .ColorScheme-Text { color:#dfdfdf; }
         .ColorScheme-Highlight { color:#4285f4; } 
	 .ColorScheme-NeutralText { color:#ff9800; }
	 .ColorScheme-PositiveText { color:#4caf50; }
	 .ColorScheme-NegativeText { color:#f44336; }</style>
  </defs>
  <path
     id="path5833"
     style="fill:currentColor;fill-opacity:1;stroke-width:18.8977;stroke-linecap:round;stroke-linejoin:round"
     class="ColorScheme-Text"
     d="M 9,4 C 8.4460005,4 8,4.4460007 8,5 V 6 H 4 v 1 h 1 l 1,11 c 0.1003136,1.10345 0.8920013,2 2,2 h 7 c 1.107999,0 1.899686,-0.896551 2,-2 L 18,7 h 1 V 6 H 15 V 5 C 15,4.4460007 14.553999,4 14,4 Z m 0,1 h 5 V 6 H 9 Z M 6,7 h 11 l -1,11 c -0.06118,0.550611 -0.446001,1 -1,1 H 8 C 7.446001,19 7.0501567,18.551724 7,18 Z M 8.4746094,9 C 8.2096946,9.0133417 8,9.231655 8,9.5 v 7 C 8,16.777002 8.2230003,17 8.5,17 8.7770017,17 9,16.777001 9,16.5 v -7 C 9,9.2229987 8.7769997,9 8.5,9 8.4913,9 8.4831494,8.9995699 8.4746094,9 Z M 11.474609,9 C 11.209696,9.0133417 11,9.231655 11,9.5 v 7 c 0,0.277002 0.223,0.5 0.5,0.5 0.277001,0 0.5,-0.222999 0.5,-0.5 v -7 C 12,9.2229987 11.777,9 11.5,9 11.4913,9 11.48315,8.9995699 11.47461,9 Z m 3,0 C 14.209696,9.013342 14,9.231655 14,9.5 v 7 c 0,0.277002 0.223,0.5 0.5,0.5 0.277001,0 0.5,-0.222999 0.5,-0.5 v -7 C 15,9.2229987 14.777,9 14.5,9 14.4913,9 14.48315,8.9995698 14.47461,9 Z"
     sodipodi:nodetypes="ssccccssssccccsssccccccccssscssssssssssssssssssssssssss" />
</svg>
