<?xml version="1.0" encoding="UTF-8" standalone="no"?>
<!-- Created with Inkscape (http://www.inkscape.org/) -->

<svg
   width="24"
   height="24"
   viewBox="0 0 24 24"
   version="1.1"
   id="svg371"
   xml:space="preserve"
   inkscape:version="1.2.2 (1:1.2.2+202305151914+b0a8486541)"
   sodipodi:docname="go-home.svg"
   xmlns:inkscape="http://www.inkscape.org/namespaces/inkscape"
   xmlns:sodipodi="http://sodipodi.sourceforge.net/DTD/sodipodi-0.dtd"
   xmlns="http://www.w3.org/2000/svg"
   xmlns:svg="http://www.w3.org/2000/svg"><sodipodi:namedview
   id="namedview373"
   pagecolor="#ffffff"
   bordercolor="#000000"
   borderopacity="0.25"
   inkscape:showpageshadow="2"
   inkscape:pageopacity="0.0"
   inkscape:pagecheckerboard="0"
   inkscape:deskcolor="#d1d1d1"
   inkscape:document-units="px"
   showgrid="false"
   inkscape:zoom="33.583333"
   inkscape:cx="12"
   inkscape:cy="12"
   inkscape:window-width="1920"
   inkscape:window-height="1008"
   inkscape:window-x="0"
   inkscape:window-y="0"
   inkscape:window-maximized="1"
   inkscape:current-layer="svg371"
   showguides="false" />
    <defs
   id="defs368">
        <style
   id="current-color-scheme"
   type="text/css">
         .ColorScheme-Text { color:#dfdfdf; }
        </style>
    </defs>
    <path
   id="path967"
   style="fill:currentColor;fill-opacity:1;stroke:none;stroke-width:2;stroke-linecap:round;stroke-linejoin:round;-inkscape-stroke:none"
   class="ColorScheme-Text"
   d="m 12.000002,4.046875 c -0.766852,0 -1.53349,0.2952077 -2.1210939,0.8828125 L 4.9296894,9.8789062 C 4.0462072,10.647416 3.9995059,10.891396 4.0000019,12.000001 V 18 c 0,1.104565 0.8954342,2 2,2 H 18.000002 c 1.104566,0 2,-0.895435 2,-2 V 12.000001 C 19.934802,10.86119 19.761745,10.595075 19.070314,9.8789062 L 14.121096,4.9296875 C 13.533491,4.3420827 12.766854,4.046875 12.000002,4.046875 Z m 0,1 c 0.510214,0 1.015559,0.19134 1.414063,0.5898438 l 4.937499,4.9375002 c 0.656719,0.680216 0.591644,0.453973 0.648438,1.464845 V 18 c 0,0.564123 -0.435876,1 -1,1 h -2 v -5.999999 c 0,-1.107997 -0.892003,-2.000001 -2,-2.000001 h -4 C 8.8920052,11 8.0000019,11.892004 8.0000019,13.000001 V 19 h -2 c -0.5641245,0 -1,-0.435877 -1,-1 v -5.999999 c -2.417e-4,-0.540227 0.030688,-0.739045 0.058594,-0.806641 0.027906,-0.0676 0.1185563,-0.204958 0.5273437,-0.560547 a 1.0001,1.0001 0 0 0 0.050781,-0.04687 L 10.585939,5.6367188 C 10.984442,5.2382151 11.489788,5.046875 12.000002,5.046875 Z m -2,6.953126 h 4 c 0.553997,0 1,0.446002 1,1 V 19 H 9.0000019 v -5.999999 c 0,-0.553998 0.4460018,-1 1.0000001,-1 z" />
    </svg>
