<?xml version="1.0" encoding="UTF-8" standalone="no"?>
<!-- Created with Inkscape (http://www.inkscape.org/) -->

<svg
   width="16"
   height="16"
   viewBox="0 0 4.2333332 4.2333335"
   version="1.1"
   id="svg11945"
   inkscape:version="1.3 (0e150ed6c4, 2023-07-21)"
   sodipodi:docname="audio-x-generic-symbolic.svg"
   xmlns:inkscape="http://www.inkscape.org/namespaces/inkscape"
   xmlns:sodipodi="http://sodipodi.sourceforge.net/DTD/sodipodi-0.dtd"
   xmlns="http://www.w3.org/2000/svg"
   xmlns:svg="http://www.w3.org/2000/svg">
  <sodipodi:namedview
     id="namedview11947"
     pagecolor="#ffffff"
     bordercolor="#666666"
     borderopacity="1.0"
     inkscape:pageshadow="2"
     inkscape:pageopacity="0.0"
     inkscape:pagecheckerboard="0"
     inkscape:document-units="px"
     showgrid="false"
     units="in"
     inkscape:zoom="49.75"
     inkscape:cx="7.9899497"
     inkscape:cy="8"
     inkscape:window-width="1920"
     inkscape:window-height="1000"
     inkscape:window-x="0"
     inkscape:window-y="0"
     inkscape:window-maximized="1"
     inkscape:current-layer="svg11945"
     showguides="true"
     inkscape:showpageshadow="2"
     inkscape:deskcolor="#d1d1d1" />
  <defs
     id="defs11942" />
  <path
     id="path989"
     style="fill:#dfdfdf;fill-opacity:1;stroke-width:0.705556;stroke-linecap:round;stroke-linejoin:round"
     d="M 2.2417236 0.26458333 C 2.1715008 0.26842936 2.1165615 0.32654696 2.1166667 0.396875 L 2.1166667 2.2107178 C 1.9158039 1.982792 1.6267086 1.852165 1.3229167 1.8520833 C 0.73841755 1.8520833 0.26458333 2.3259177 0.26458333 2.9104167 C 0.26458339 3.4949156 0.73841759 3.96875 1.3229167 3.96875 C 1.9074156 3.9687499 2.3812499 3.4949156 2.38125 2.9104167 L 2.38125 0.53226725 C 3.0394366 0.57146036 3.3481249 0.90487233 3.5196818 1.2479858 C 3.6675931 1.5438078 3.7041667 1.7488331 3.7041667 1.8520833 L 3.7041667 1.984375 C 3.7049604 2.0570569 3.7637728 2.1170115 3.8364583 2.1166667 C 3.9091433 2.1170107 3.9679547 2.0570566 3.96875 1.984375 L 3.96875 1.8520833 C 3.96875 1.7024642 3.9085476 1.4365971 3.7558431 1.1311971 C 3.5447157 0.70894105 3.196533 0.26458333 2.38125 0.26458333 L 2.2489583 0.26458333 C 2.2465483 0.26451738 2.2441336 0.26451738 2.2417236 0.26458333 z " />
</svg>
