<?xml version="1.0" encoding="UTF-8" standalone="no"?>
<!-- Created with Inkscape (http://www.inkscape.org/) -->

<svg
   width="16"
   height="16"
   viewBox="0 0 16 16"
   version="1.1"
   id="svg371"
   xml:space="preserve"
   inkscape:version="1.2.2 (1:1.2.2+202305151914+b0a8486541)"
   sodipodi:docname="folder-default-home.svg"
   xmlns:inkscape="http://www.inkscape.org/namespaces/inkscape"
   xmlns:sodipodi="http://sodipodi.sourceforge.net/DTD/sodipodi-0.dtd"
   xmlns="http://www.w3.org/2000/svg"
   xmlns:svg="http://www.w3.org/2000/svg"><sodipodi:namedview
     id="namedview373"
     pagecolor="#ffffff"
     bordercolor="#000000"
     borderopacity="0.25"
     inkscape:showpageshadow="2"
     inkscape:pageopacity="0.0"
     inkscape:pagecheckerboard="0"
     inkscape:deskcolor="#d1d1d1"
     inkscape:document-units="px"
     showgrid="false"
     inkscape:zoom="50.375"
     inkscape:cx="8"
     inkscape:cy="8"
     inkscape:window-width="1920"
     inkscape:window-height="1008"
     inkscape:window-x="0"
     inkscape:window-y="0"
     inkscape:window-maximized="1"
     inkscape:current-layer="svg371"
     showguides="false" /><defs
     id="defs368" /><path
     d="m 8,0.046875 c -0.766854,0 -1.533489,0.295207 -2.121094,0.882813 L 0.929688,5.878906 C 0.046204,6.647417 -4.96e-4,6.891394 0,8 v 6 c 0,1.104568 0.895432,2 2,2 h 2 c 0.552285,0 1,-0.447715 1,-1 V 10 C 5,8.892003 5.892003,8 7,8 h 2 c 1.107997,0 2,0.892003 2,2 v 5 c 0,0.552285 0.447715,1 1,1 h 2 c 1.104568,0 2,-0.895432 2,-2 V 8 C 15.9348,6.861188 15.761743,6.595076 15.070312,5.878906 L 10.121094,0.929688 C 9.533489,0.342082 8.766854,0.046875 8,0.046875 Z"
     style="fill:#363636;fill-opacity:1;stroke-linecap:round;stroke-linejoin:round"
     id="path15392" /></svg>
