<?xml version="1.0" encoding="UTF-8" standalone="no"?>
<!-- Created with Inkscape (http://www.inkscape.org/) -->

<svg
   width="16"
   height="16"
   viewBox="0 0 4.2333332 4.2333335"
   version="1.1"
   id="svg11945"
   inkscape:version="1.2.2 (1:1.2.2+202305151914+b0a8486541)"
   sodipodi:docname="folder-desktop.svg"
   xmlns:inkscape="http://www.inkscape.org/namespaces/inkscape"
   xmlns:sodipodi="http://sodipodi.sourceforge.net/DTD/sodipodi-0.dtd"
   xmlns="http://www.w3.org/2000/svg"
   xmlns:svg="http://www.w3.org/2000/svg">
  <sodipodi:namedview
     id="namedview11947"
     pagecolor="#ffffff"
     bordercolor="#666666"
     borderopacity="1.0"
     inkscape:pageshadow="2"
     inkscape:pageopacity="0.0"
     inkscape:pagecheckerboard="0"
     inkscape:document-units="px"
     showgrid="false"
     units="in"
     inkscape:zoom="50.375"
     inkscape:cx="7.9900744"
     inkscape:cy="8"
     inkscape:window-width="1920"
     inkscape:window-height="1008"
     inkscape:window-x="0"
     inkscape:window-y="0"
     inkscape:window-maximized="1"
     inkscape:current-layer="svg11945"
     showguides="true"
     inkscape:showpageshadow="2"
     inkscape:deskcolor="#d1d1d1" />
  <defs
     id="defs11942">
    <style
       id="current-color-scheme"
       type="text/css">
         .ColorScheme-Text { color:#4d4d4d; }
        </style>
  </defs>
  <path
     id="path4457"
     style="fill:currentColor;stroke-width:1.32292;stroke-linecap:round;stroke-linejoin:round"
     class="ColorScheme-Text"
     d="M 0.79375 0.52916667 C 0.50059315 0.52916667 0.26458333 0.7651766 0.26458333 1.0583333 L 0.26458333 3.175 C 0.26458333 3.4681569 0.50059315 3.7041667 0.79375 3.7041667 L 3.4395833 3.7041667 C 3.7327406 3.7041667 3.96875 3.4681569 3.96875 3.175 L 3.96875 1.0583333 C 3.96875 0.7651766 3.7327406 0.52916667 3.4395833 0.52916667 L 0.79375 0.52916667 z M 0.79375 0.79375 L 3.4395833 0.79375 C 3.586162 0.79375 3.7041667 0.91175503 3.7041667 1.0583333 L 3.7041667 3.175 C 3.7041667 3.3215786 3.586162 3.4395833 3.4395833 3.4395833 L 0.79375 3.4395833 C 0.64717157 3.4395833 0.52916667 3.3215786 0.52916667 3.175 L 0.52916667 1.0583333 C 0.52916667 0.91175503 0.64717157 0.79375 0.79375 0.79375 z M 1.0583333 1.0583333 A 0.26458335 0.26458335 0 0 0 0.79375 1.3229167 A 0.26458335 0.26458335 0 0 0 1.0583333 1.5875 A 0.26458335 0.26458335 0 0 0 1.3229167 1.3229167 A 0.26458335 0.26458335 0 0 0 1.0583333 1.0583333 z M 1.0583333 1.8520833 A 0.26458335 0.26458335 0 0 0 0.79375 2.1166667 A 0.26458335 0.26458335 0 0 0 1.0583333 2.38125 A 0.26458335 0.26458335 0 0 0 1.3229167 2.1166667 A 0.26458335 0.26458335 0 0 0 1.0583333 1.8520833 z M 0.79375 2.9104167 L 0.79375 3.175 L 3.4395833 3.175 L 3.4395833 2.9104167 L 0.79375 2.9104167 z " />
</svg>
