<?xml version="1.0" encoding="UTF-8" standalone="no"?>
<!-- Created with Inkscape (http://www.inkscape.org/) -->

<svg
   width="16"
   height="16"
   viewBox="0 0 4.2333332 4.2333335"
   version="1.1"
   id="svg11945"
   inkscape:version="1.2.2 (1:1.2.2+202305151914+b0a8486541)"
   sodipodi:docname="folder-default-documents.svg"
   xmlns:inkscape="http://www.inkscape.org/namespaces/inkscape"
   xmlns:sodipodi="http://sodipodi.sourceforge.net/DTD/sodipodi-0.dtd"
   xmlns="http://www.w3.org/2000/svg"
   xmlns:svg="http://www.w3.org/2000/svg">
  <sodipodi:namedview
     id="namedview11947"
     pagecolor="#ffffff"
     bordercolor="#666666"
     borderopacity="1.0"
     inkscape:pageshadow="2"
     inkscape:pageopacity="0.0"
     inkscape:pagecheckerboard="0"
     inkscape:document-units="px"
     showgrid="false"
     units="in"
     inkscape:zoom="50.375"
     inkscape:cx="8"
     inkscape:cy="8"
     inkscape:window-width="1920"
     inkscape:window-height="1008"
     inkscape:window-x="0"
     inkscape:window-y="0"
     inkscape:window-maximized="1"
     inkscape:current-layer="svg11945"
     showguides="true"
     inkscape:showpageshadow="2"
     inkscape:deskcolor="#d1d1d1" />
  <defs
     id="defs11942">
        <style
            id="current-color-scheme"
            type="text/css">
         .ColorScheme-Text { color:#4d4d4d; }
        </style>
    </defs>
  <path
     d="m 1.3229168,0.26458324 c -0.2931584,0 -0.52916671,0.23600831 -0.52916671,0.52916672 V 3.4395833 c 0,0.2931583 0.23600831,0.5291666 0.52916671,0.5291666 h 1.5874998 c 0.2931584,0 0.5291667,-0.2360083 0.5291667,-0.5291666 V 1.4552083 C 3.4405093,1.2328212 3.3934513,1.1455592 3.3072916,1.0583332 L 2.6458333,0.3968749 C 2.5233391,0.28342305 2.4329756,0.26458324 2.2489583,0.26458324 Z m 0,0.26458331 H 2.1166666 V 1.0583332 c 0,0.2931583 0.2360084,0.5291667 0.5291667,0.5291667 H 3.175 v 1.8520834 c 0,0.1465791 -0.1180042,0.2645833 -0.2645834,0.2645833 H 1.3229168 c -0.1465792,0 -0.2645834,-0.1180042 -0.2645834,-0.2645833 V 0.79374996 c 0,-0.14657921 0.1180042,-0.26458341 0.2645834,-0.26458341 z m 1.0583332,0 L 3.175,1.3229165 H 2.6458333 C 2.4992541,1.3229165 2.38125,1.2049124 2.38125,1.0583332 Z"
     style="fill:currentColor;stroke-width:1.32292;stroke-linecap:round;stroke-linejoin:round"
     class="ColorScheme-Text"
     id="path4457" />
</svg>
