<?xml version="1.0" encoding="UTF-8" standalone="no"?>
<!-- Created with Inkscape (http://www.inkscape.org/) -->

<svg
   width="16"
   height="16"
   viewBox="0 0 4.2333332 4.2333335"
   version="1.1"
   id="svg11945"
   inkscape:version="1.2.2 (1:1.2.2+202305151914+b0a8486541)"
   sodipodi:docname="folder-photo.svg"
   xmlns:inkscape="http://www.inkscape.org/namespaces/inkscape"
   xmlns:sodipodi="http://sodipodi.sourceforge.net/DTD/sodipodi-0.dtd"
   xmlns="http://www.w3.org/2000/svg"
   xmlns:svg="http://www.w3.org/2000/svg">
  <sodipodi:namedview
     id="namedview11947"
     pagecolor="#ffffff"
     bordercolor="#666666"
     borderopacity="1.0"
     inkscape:pageshadow="2"
     inkscape:pageopacity="0.0"
     inkscape:pagecheckerboard="0"
     inkscape:document-units="px"
     showgrid="false"
     units="in"
     inkscape:zoom="50.375"
     inkscape:cx="8.0397022"
     inkscape:cy="8"
     inkscape:window-width="1920"
     inkscape:window-height="1008"
     inkscape:window-x="0"
     inkscape:window-y="0"
     inkscape:window-maximized="1"
     inkscape:current-layer="svg11945"
     showguides="true"
     inkscape:showpageshadow="2"
     inkscape:deskcolor="#d1d1d1" />
  <defs
     id="defs11942">
    <style
       id="current-color-scheme"
       type="text/css">
         .ColorScheme-Text { color:#4d4d4d; }
        </style>
  </defs>
  <path
     id="path959"
     style="fill:currentColor;stroke:none;stroke-width:0.529167;stroke-linecap:round;-inkscape-stroke:none"
     class="ColorScheme-Text"
     d="M 1.5874999,0.52916667 1.1906249,1.0583333 H 0.79374999 c -0.29315724,0 -0.52916666,0.2360095 -0.52916666,0.5291667 V 3.175 c 0,0.2931573 0.23600942,0.5291667 0.52916666,0.5291667 H 3.4395832 c 0.2931573,0 0.5291667,-0.2360094 0.5291667,-0.5291667 V 1.5875 c 0,-0.2931572 -0.2360094,-0.5291667 -0.5291667,-0.5291667 H 3.0427083 L 2.6458333,0.52916667 Z M 1.7197916,0.79375 h 0.79375 l 0.396875,0.5291667 h 0.5291666 c 0.1511539,0 0.2645834,0.1134294 0.2645834,0.2645833 V 3.175 c 0,0.1511538 -0.1134295,0.2645833 -0.2645834,0.2645833 H 0.79374999 C 0.64259607,3.4395833 0.52916666,3.3261538 0.52916666,3.175 V 1.5875 c 0,-0.1511539 0.11342941,-0.2645833 0.26458333,-0.2645833 H 1.3229166 Z m 0.396875,0.79375 a 0.79374999,0.79374999 0 0 0 -0.79375,0.79375 0.79374999,0.79374999 0 0 0 0.79375,0.79375 0.79374999,0.79374999 0 0 0 0.79375,-0.79375 0.79374999,0.79374999 0 0 0 -0.79375,-0.79375 z m 0,0.2645833 A 0.52916666,0.52916666 0 0 1 2.6458333,2.38125 0.52916666,0.52916666 0 0 1 2.1166666,2.9104167 0.52916666,0.52916666 0 0 1 1.5874999,2.38125 0.52916666,0.52916666 0 0 1 2.1166666,1.8520833 Z" />
</svg>
