<?xml version="1.0" encoding="UTF-8" standalone="no"?>
<!-- Created with Inkscape (http://www.inkscape.org/) -->

<svg
   width="16"
   height="16"
   viewBox="0 0 16 16"
   version="1.1"
   id="svg371"
   xml:space="preserve"
   inkscape:version="1.2.2 (1:1.2.2+202305151914+b0a8486541)"
   sodipodi:docname="folder-default-recent.svg"
   xmlns:inkscape="http://www.inkscape.org/namespaces/inkscape"
   xmlns:sodipodi="http://sodipodi.sourceforge.net/DTD/sodipodi-0.dtd"
   xmlns="http://www.w3.org/2000/svg"
   xmlns:svg="http://www.w3.org/2000/svg"><sodipodi:namedview
     id="namedview373"
     pagecolor="#ffffff"
     bordercolor="#000000"
     borderopacity="0.25"
     inkscape:showpageshadow="2"
     inkscape:pageopacity="0.0"
     inkscape:pagecheckerboard="0"
     inkscape:deskcolor="#d1d1d1"
     inkscape:document-units="px"
     showgrid="false"
     inkscape:zoom="50.375"
     inkscape:cx="8.0198511"
     inkscape:cy="8"
     inkscape:window-width="1920"
     inkscape:window-height="1008"
     inkscape:window-x="0"
     inkscape:window-y="0"
     inkscape:window-maximized="1"
     inkscape:current-layer="svg371"
     showguides="false" /><defs
     id="defs368" /><path
     id="path3931"
     style="fill:#363636;fill-opacity:1;stroke-width:1.4;stroke-linecap:round;stroke-linejoin:round"
     d="M 8,1 C 4.134015,1 1,4.134015 1,8 c 0,3.865985 3.134015,7 7,7 3.865985,0 7,-3.134015 7,-7 C 15,4.134015 11.865985,1 8,1 Z m 0,2 c 0.553997,0 1,0.446003 1,1 v 3.583984 l 1.951172,1.953125 c 0.391735,0.391737 0.391735,1.022326 0,1.414063 -0.391737,0.391735 -1.022285,0.391696 -1.414063,0 L 7.292969,8.707031 c -0.02282,-0.02282 -0.044293,-0.04597 -0.064453,-0.07031 -0.0015,-0.0018 -0.00241,-0.004 -0.00391,-0.0059 -0.03888,-0.04783 -0.07392,-0.09968 -0.103515,-0.154297 -0.0021,-0.0039 -0.00376,-0.0078 -0.00586,-0.01172 C 7.100101,8.435984 7.086536,8.407334 7.074216,8.376914 7.063756,8.351204 7.053149,8.325114 7.044919,8.298784 7.043962,8.295684 7.043966,8.292084 7.042969,8.288984 7.039069,8.275964 7.034669,8.263064 7.03125,8.249924 7.02685,8.232764 7.02305,8.214694 7.019531,8.197194 7.013231,8.165714 7.009109,8.133344 7.005859,8.101494 7.002459,8.067812 7,8.033964 7,8 V 4 C 7,3.446003 7.446003,3 8,3 Z" /></svg>
