<?xml version="1.0" encoding="UTF-8" standalone="no"?>
<!-- Created with Inkscape (http://www.inkscape.org/) -->

<svg
   width="16"
   height="16"
   viewBox="0 0 16 16"
   version="1.1"
   id="svg11945"
   inkscape:version="1.2.2 (1:1.2.2+202305151914+b0a8486541)"
   sodipodi:docname="user-trash-full.svg"
   xmlns:inkscape="http://www.inkscape.org/namespaces/inkscape"
   xmlns:sodipodi="http://sodipodi.sourceforge.net/DTD/sodipodi-0.dtd"
   xmlns="http://www.w3.org/2000/svg"
   xmlns:svg="http://www.w3.org/2000/svg">
  <sodipodi:namedview
     id="namedview11947"
     pagecolor="#ffffff"
     bordercolor="#666666"
     borderopacity="1.0"
     inkscape:pageshadow="2"
     inkscape:pageopacity="0.0"
     inkscape:pagecheckerboard="0"
     inkscape:document-units="px"
     showgrid="false"
     units="in"
     inkscape:zoom="50.375"
     inkscape:cx="7.7915633"
     inkscape:cy="8"
     inkscape:window-width="1920"
     inkscape:window-height="1008"
     inkscape:window-x="0"
     inkscape:window-y="0"
     inkscape:window-maximized="1"
     inkscape:current-layer="svg11945"
     showguides="true"
     inkscape:showpageshadow="2"
     inkscape:deskcolor="#d1d1d1" />
  <defs
     id="defs11942">
    <style
       id="current-color-scheme"
       type="text/css">
         .ColorScheme-Text { color:#4d4d4d; }
         .ColorScheme-Highlight { color:#4285f4; } 
	 .ColorScheme-NeutralText { color:#ff9800; }
	 .ColorScheme-PositiveText { color:#4caf50; }
	 .ColorScheme-NegativeText { color:#f44336; }</style>
  </defs>
  <path
     d="m 5.9999998,1.0000001 c -0.5540001,0 -0.9999998,0.446 -0.9999998,1 v 1 H 2.0000002 v 1.0000001 h 0.9999999 l 1,8.9999998 C 4.1223586,14.101224 4.892,15 5.9999998,15 h 4 C 11.108,15 11.877642,14.101224 12,13 l 1,-8.9999998 h 1 V 3.0000001 h -3 v -1 c 0,-0.554 -0.446,-1 -1.0000002,-1 z m 0,1 h 4 v 1 h -4 z M 4.0000001,4.0000003 H 12 L 11,13 c -0.06118,0.550612 -0.446,1 -1.0000002,1 h -4 C 5.4460001,14 5.0611792,13.550612 5,13 Z M 6.4746095,6 C 6.2096948,6.0133417 5.9999998,6.2316548 5.9999998,6.5000001 V 11.5 c 0,0.277002 0.2229997,0.5 0.5000002,0.5 0.2770015,0 0.4999997,-0.222999 0.4999997,-0.5 V 6.5000001 C 6.9999997,6.2229985 6.777,6 6.5,6 6.49134,6 6.483143,5.9995699 6.474602,6 Z M 9.4746091,6 C 9.2096944,6.0133417 8.9999998,6.2316548 8.9999998,6.5000001 V 11.5 c 0,0.277002 0.2229997,0.5 0.5,0.5 0.277001,0 0.5,-0.222999 0.5,-0.5 V 6.5000001 C 9.9999998,6.2229985 9.7769998,6 9.4999998,6 c -0.0087,0 -0.016857,-4.301e-4 -0.025399,0 z"
     style="fill:currentColor;fill-opacity:1;stroke-width:18.8977;stroke-linecap:round;stroke-linejoin:round"
     id="path5833"
     class="ColorScheme-NegativeText" />
</svg>
