<?xml version="1.0" encoding="UTF-8" standalone="no"?>
<!-- Created with Inkscape (http://www.inkscape.org/) -->

<svg
   width="16"
   height="16"
   viewBox="0 0 16 16"
   version="1.1"
   id="svg371"
   xml:space="preserve"
   inkscape:version="1.2.2 (1:1.2.2+202305151914+b0a8486541)"
   sodipodi:docname="folder-home.svg"
   xmlns:inkscape="http://www.inkscape.org/namespaces/inkscape"
   xmlns:sodipodi="http://sodipodi.sourceforge.net/DTD/sodipodi-0.dtd"
   xmlns="http://www.w3.org/2000/svg"
   xmlns:svg="http://www.w3.org/2000/svg"><sodipodi:namedview
   id="namedview373"
   pagecolor="#ffffff"
   bordercolor="#000000"
   borderopacity="0.25"
   inkscape:showpageshadow="2"
   inkscape:pageopacity="0.0"
   inkscape:pagecheckerboard="0"
   inkscape:deskcolor="#d1d1d1"
   inkscape:document-units="px"
   showgrid="false"
   inkscape:zoom="50.375"
   inkscape:cx="8.0198511"
   inkscape:cy="8"
   inkscape:window-width="1920"
   inkscape:window-height="1008"
   inkscape:window-x="0"
   inkscape:window-y="0"
   inkscape:window-maximized="1"
   inkscape:current-layer="svg371"
   showguides="false" />
    <defs
   id="defs368">
        <style
   id="current-color-scheme"
   type="text/css">
         .ColorScheme-Text { color:#dfdfdf; }
        </style>
    </defs>
    <path
   id="path967"
   style="fill:currentColor;fill-opacity:1;stroke:none;stroke-width:2;stroke-linecap:round;stroke-linejoin:round;-inkscape-stroke:none"
   class="ColorScheme-Text"
   d="M 8 1.046875 C 7.2331492 1.046875 6.4665092 1.3420839 5.8789062 1.9296875 L 1.9296875 5.8789062 C 1.0462071 6.6474144 0.999504 6.8913984 1 8 L 1 13 C 1 14.104564 1.8954364 15 3 15 L 5 15 A 1 1 0 0 0 6 14 L 6 9 C 6 8.446003 6.446003 8 7 8 L 9 8 C 9.5539958 8 10 8.446003 10 9 L 10 14 A 1 1 0 0 0 11 15 L 13 15 C 14.104564 15 15 14.104564 15 13 L 15 8 C 14.9348 6.8611924 14.761743 6.5950734 14.070312 5.8789062 L 10.121094 1.9296875 C 9.5334562 1.3421176 8.7668508 1.046875 8 1.046875 z M 8 2.046875 C 8.5102125 2.046875 9.0155602 2.2382156 9.4140625 2.6367188 L 13.351562 6.5742188 C 14.008281 7.254433 13.943206 7.0281932 14 8.0390625 L 14 13 C 14 13.564122 13.564122 14 13 14 L 11 14 L 11 9 C 11 7.8920055 10.107995 7 9 7 L 7 7 C 5.8920055 7 5 7.8920055 5 9 L 5 14 L 3 14 C 2.4358767 14 2 13.564122 2 13 L 2 8 C 1.9997583 7.459774 2.0306878 7.260955 2.0585938 7.1933594 C 2.0864996 7.1257634 2.1771509 6.988401 2.5859375 6.6328125 C 2.6033995 6.6177775 2.6203368 6.6021425 2.6367188 6.5859375 L 6.5859375 2.6367188 C 6.9844395 2.2382157 7.4897875 2.046875 8 2.046875 z " />
    </svg>
