<?xml version="1.0" encoding="UTF-8" standalone="no"?>
<!-- Created with Inkscape (http://www.inkscape.org/) -->

<svg
   width="16"
   height="16"
   viewBox="0 0 16 16"
   version="1.1"
   id="svg11945"
   inkscape:version="1.2.2 (1:1.2.2+202305151914+b0a8486541)"
   sodipodi:docname="folder-photo.svg"
   xmlns:inkscape="http://www.inkscape.org/namespaces/inkscape"
   xmlns:sodipodi="http://sodipodi.sourceforge.net/DTD/sodipodi-0.dtd"
   xmlns="http://www.w3.org/2000/svg"
   xmlns:svg="http://www.w3.org/2000/svg">
  <sodipodi:namedview
     id="namedview11947"
     pagecolor="#ffffff"
     bordercolor="#666666"
     borderopacity="1.0"
     inkscape:pageshadow="2"
     inkscape:pageopacity="0.0"
     inkscape:pagecheckerboard="0"
     inkscape:document-units="px"
     showgrid="false"
     units="in"
     inkscape:zoom="50.375"
     inkscape:cx="8"
     inkscape:cy="8"
     inkscape:window-width="1920"
     inkscape:window-height="1008"
     inkscape:window-x="0"
     inkscape:window-y="0"
     inkscape:window-maximized="1"
     inkscape:current-layer="svg11945"
     showguides="true"
     inkscape:showpageshadow="2"
     inkscape:deskcolor="#d1d1d1" />
  <defs
     id="defs11942">
    <style
       id="current-color-scheme"
       type="text/css">
         .ColorScheme-Text { color:#dfdfdf; }
        </style>
  </defs>
  <path
     id="path959"
     style="fill:currentColor;stroke:none;stroke-width:2;stroke-linecap:round;-inkscape-stroke:none"
     class="ColorScheme-Text"
     d="m 5.9999997,1.9999998 -1.5,1.9999999 H 3.0000001 c -1.1079959,0 -1.9999999,0.8920044 -1.9999999,2.0000001 V 12 c 0,1.107996 0.892004,2 1.9999999,2 H 13 c 1.107996,0 2,-0.892004 2,-2 V 5.9999998 C 15,4.8920041 14.107996,3.9999997 13,3.9999997 H 11.5 L 9.9999999,1.9999998 Z m 0.5000001,1 h 3 L 11,5 h 2 c 0.57129,0 1,0.4287095 1,0.9999998 V 12 c 0,0.57129 -0.42871,0.999999 -1,0.999999 H 3.0000001 c -0.5712904,0 -1,-0.428709 -1,-0.999999 V 5.9999998 C 2.0000001,5.4287095 2.4287097,5 3.0000001,5 h 1.9999998 z m 1.5,3 a 2.9999999,2.9999999 0 0 0 -2.9999999,3 A 2.9999999,2.9999999 0 0 0 7.9999998,12 2.9999999,2.9999999 0 0 0 11,8.9999998 a 2.9999999,2.9999999 0 0 0 -3.0000002,-3 z m 0,0.9999999 A 2,2 0 0 1 9.9999999,8.9999998 2,2 0 0 1 7.9999998,11 2,2 0 0 1 5.9999997,8.9999998 2,2 0 0 1 7.9999998,6.9999997 Z" />
</svg>
