<?xml version="1.0" encoding="UTF-8" standalone="no"?>
<!-- Created with Inkscape (http://www.inkscape.org/) -->

<svg
   width="16"
   height="16"
   viewBox="0 0 16 16"
   version="1.1"
   id="svg292"
   inkscape:version="1.3.2 (091e20ef0f, 2023-11-25, custom)"
   sodipodi:docname="go-first-symbolic.svg"
   xmlns:inkscape="http://www.inkscape.org/namespaces/inkscape"
   xmlns:sodipodi="http://sodipodi.sourceforge.net/DTD/sodipodi-0.dtd"
   xmlns="http://www.w3.org/2000/svg"
   xmlns:svg="http://www.w3.org/2000/svg">
  <sodipodi:namedview
     id="namedview294"
     pagecolor="#ffffff"
     bordercolor="#000000"
     borderopacity="0.25"
     inkscape:showpageshadow="2"
     inkscape:pageopacity="0.0"
     inkscape:pagecheckerboard="0"
     inkscape:deskcolor="#d1d1d1"
     inkscape:document-units="px"
     showgrid="false"
     showguides="true"
     inkscape:zoom="49.6875"
     inkscape:cx="7.9899371"
     inkscape:cy="8"
     inkscape:window-width="1920"
     inkscape:window-height="1008"
     inkscape:window-x="0"
     inkscape:window-y="0"
     inkscape:window-maximized="1"
     inkscape:current-layer="svg292" />
  <defs
     id="defs289" />
  <path
     id="path293"
     style="color:#4d4d4d;fill:currentColor;fill-opacity:1;stroke-width:5.00001;stroke-linecap:round;stroke-linejoin:round"
     d="m 12.499581,1.84375 c 0.12781,0 0.255581,0.04855 0.353516,0.1464844 0.195871,0.1958677 0.195871,0.5111644 0,0.7070312 L 7.5503625,8 12.853097,13.302734 c 0.19587,0.195867 0.195871,0.511162 0,0.707032 -0.195868,0.195868 -0.51115,0.195857 -0.707031,0 L 6.5093469,8.3730469 c -0.00635,-0.00574 -0.013431,-0.013431 -0.019531,-0.019531 -0.1958698,-0.1958678 -0.1958588,-0.5111504 0,-0.7070312 l 5.6562503,-5.65625 C 12.244,1.8922996 12.371772,1.84375 12.499581,1.84375 Z M 3.9995813,7 c 0.552284,0 1,0.4477159 1,1 0,0.5522841 -0.447716,1 -1,1 -0.552284,0 -1,-0.4477159 -1,-1 0,-0.5522841 0.447716,-1 1,-1 z" />
</svg>
