<?xml version="1.0" encoding="UTF-8" standalone="no"?>
<!-- Created with Inkscape (http://www.inkscape.org/) -->

<svg
   width="16"
   height="16"
   viewBox="0 0 16 16"
   version="1.1"
   id="svg371"
   xml:space="preserve"
   inkscape:version="1.2.2 (1:1.2.2+202305151914+b0a8486541)"
   sodipodi:docname="go-home-symbolic.svg"
   xmlns:inkscape="http://www.inkscape.org/namespaces/inkscape"
   xmlns:sodipodi="http://sodipodi.sourceforge.net/DTD/sodipodi-0.dtd"
   xmlns="http://www.w3.org/2000/svg"
   xmlns:svg="http://www.w3.org/2000/svg"><sodipodi:namedview
     id="namedview373"
     pagecolor="#ffffff"
     bordercolor="#000000"
     borderopacity="0.25"
     inkscape:showpageshadow="2"
     inkscape:pageopacity="0.0"
     inkscape:pagecheckerboard="0"
     inkscape:deskcolor="#d1d1d1"
     inkscape:document-units="px"
     showgrid="false"
     inkscape:zoom="50.375"
     inkscape:cx="8"
     inkscape:cy="8"
     inkscape:window-width="1920"
     inkscape:window-height="1008"
     inkscape:window-x="0"
     inkscape:window-y="0"
     inkscape:window-maximized="1"
     inkscape:current-layer="svg371"
     showguides="false" /><defs
     id="defs368" /><path
     id="path967"
     style="color:#000000;fill:#4d4d4d;fill-opacity:1;stroke:none;stroke-width:2;stroke-linecap:round;stroke-linejoin:round;-inkscape-stroke:none"
     d="m 8,1.047 c -0.7668524,0 -1.5334898,0.2952077 -2.1210938,0.8828125 L 1.9296875,5.8794999 C 1.0462053,6.6480095 0.999504,6.8919899 1,8.0005937 v 4.9995313 c 0,1.104566 0.8954342,2.00005 2,2 l 10,-4.53e-4 c 1.104566,-5e-5 2,-0.895434 2,-2 V 8.0001406 C 14.9348,6.8613308 14.761743,6.5952154 14.070312,5.8790468 L 10.121094,1.9298125 C 9.5334905,1.3422066 8.7668524,1.047 8,1.047 Z m 0,1 c 0.5102135,0 1.0155594,0.19134 1.4140625,0.5898438 L 13.351562,6.5743594 C 14.008281,7.254575 13.943206,7.0283318 14,8.0392031 v 4.9604689 c 0,0.564124 -0.435876,1 -1,1 H 11 V 8.9996719 c 0,-1.1079967 -0.892003,-2.000251 -2,-2 L 7,7.000125 c -1.1079967,2.51e-4 -2,0.8920033 -2,2 v 5 H 3 c -0.5641245,0 -1,-0.435876 -1,-1 V 8.0005937 C 1.9997583,7.4603667 2.030688,7.2615489 2.058594,7.1939531 2.0865,7.1263571 2.1771503,6.9889955 2.5859377,6.6334062 c 0.017462,-0.015035 0.034399,-0.03067 0.050781,-0.046875 L 6.5859375,2.6368438 C 6.9844403,2.2383401 7.4897865,2.047 8,2.047 Z M 7,8.000125 9,7.9996719 c 0.553997,-1.255e-4 1,0.4460018 1,1 v 5.0000001 l -4,4.53e-4 v -5 c 0,-0.5539982 0.4460018,-0.9998745 1,-1 z"
     sodipodi:nodetypes="scccssssccssscccsscsssscsscscccssssccss" /></svg>
