<?xml version="1.0" encoding="UTF-8" standalone="no"?>
<!-- Created with Inkscape (http://www.inkscape.org/) -->

<svg
   width="16"
   height="16"
   viewBox="0 0 16 16"
   version="1.1"
   id="svg292"
   inkscape:version="1.2.2 (1:1.2.2+202305151914+b0a8486541)"
   sodipodi:docname="list-drag-handle-symbolic.svg"
   xmlns:inkscape="http://www.inkscape.org/namespaces/inkscape"
   xmlns:sodipodi="http://sodipodi.sourceforge.net/DTD/sodipodi-0.dtd"
   xmlns="http://www.w3.org/2000/svg"
   xmlns:svg="http://www.w3.org/2000/svg">
  <sodipodi:namedview
     id="namedview294"
     pagecolor="#ffffff"
     bordercolor="#000000"
     borderopacity="0.25"
     inkscape:showpageshadow="2"
     inkscape:pageopacity="0.0"
     inkscape:pagecheckerboard="0"
     inkscape:deskcolor="#d1d1d1"
     inkscape:document-units="px"
     showgrid="false"
     showguides="true"
     inkscape:zoom="50.375"
     inkscape:cx="7.9900744"
     inkscape:cy="8"
     inkscape:window-width="1920"
     inkscape:window-height="1008"
     inkscape:window-x="0"
     inkscape:window-y="0"
     inkscape:window-maximized="1"
     inkscape:current-layer="svg292" />
  <defs
     id="defs289" />
  <path
     id="path340"
     style="fill:#4d4d4d;fill-opacity:1;stroke-width:1;stroke-linecap:round;stroke-linejoin:round"
     d="M 6,2 C 5.4477159,2 5,2.4477159 5,3 5,3.5522841 5.4477159,4 6,4 6.5522841,4 7,3.5522841 7,3 7,2.4477159 6.5522841,2 6,2 Z m 5,0 c -0.552284,0 -1,0.4477159 -1,1 0,0.5522841 0.447716,1 1,1 0.552284,0 1,-0.4477159 1,-1 C 12,2.4477159 11.552284,2 11,2 Z M 6,7 C 5.4477159,7 5,7.4477159 5,8 5,8.5522841 5.4477159,9 6,9 6.5522841,9 7,8.5522841 7,8 7,7.4477159 6.5522841,7 6,7 Z m 5,0 c -0.552284,0 -1,0.4477159 -1,1 0,0.5522841 0.447716,1 1,1 0.552284,0 1,-0.4477159 1,-1 0,-0.5522841 -0.447716,-1 -1,-1 z m -5,5 c -0.5522841,0 -1,0.447716 -1,1 0,0.552284 0.4477159,1 1,1 0.5522841,0 1,-0.447716 1,-1 0,-0.552284 -0.4477159,-1 -1,-1 z m 5,0 c -0.552284,0 -1,0.447716 -1,1 0,0.552284 0.447716,1 1,1 0.552284,0 1,-0.447716 1,-1 0,-0.552284 -0.447716,-1 -1,-1 z"
     sodipodi:nodetypes="ssssssssssssssssssssssssssssss" />
</svg>
