<?xml version="1.0" encoding="UTF-8" standalone="no"?>
<!-- Created with Inkscape (http://www.inkscape.org/) -->

<svg
   width="16"
   height="16"
   viewBox="0 0 16 16"
   version="1.1"
   id="svg5"
   inkscape:version="1.3 (0e150ed6c4, 2023-07-21)"
   sodipodi:docname="screenshot-recorded-symbolic.svg"
   xmlns:inkscape="http://www.inkscape.org/namespaces/inkscape"
   xmlns:sodipodi="http://sodipodi.sourceforge.net/DTD/sodipodi-0.dtd"
   xmlns="http://www.w3.org/2000/svg"
   xmlns:svg="http://www.w3.org/2000/svg">
  <sodipodi:namedview
     id="namedview7"
     pagecolor="#ffffff"
     bordercolor="#000000"
     borderopacity="0.25"
     inkscape:showpageshadow="2"
     inkscape:pageopacity="0.0"
     inkscape:pagecheckerboard="0"
     inkscape:deskcolor="#d1d1d1"
     inkscape:document-units="px"
     showgrid="false"
     showguides="true"
     inkscape:zoom="49.75"
     inkscape:cx="7.9899497"
     inkscape:cy="8"
     inkscape:window-width="1920"
     inkscape:window-height="1000"
     inkscape:window-x="0"
     inkscape:window-y="0"
     inkscape:window-maximized="1"
     inkscape:current-layer="svg5" />
  <defs
     id="defs2" />
  <path
     id="path7941"
     style="fill:#4d4d4d;fill-opacity:1;fill-rule:evenodd;stroke-width:2;stroke-linecap:round;paint-order:stroke fill markers;stop-color:#000000"
     d="M 2 1 C 0.89200222 1 0 1.8920022 0 3 L 0 10 C -8.412923e-16 11.107998 0.89200222 12 2 12 L 5 12 L 5 10 L 2 10 L 2 3 L 12 3 L 12 6 L 14 6 L 14 3 C 14 1.8920022 13.107998 1 12 1 L 2 1 z M 10 7 L 9 8 L 8 8 C 6.8920021 8 6 8.8920022 6 10 L 6 14 C 6 15.107998 6.8920022 16 8 16 L 14 16 C 15.107998 16 16 15.107998 16 14 L 16 10 C 16 8.8920022 15.107998 8 14 8 L 13 8 L 12 7 L 10 7 z M 11 10 C 12.104568 10 13 10.895432 13 12 C 13 13.104568 12.104568 14 11 14 C 9.8954318 14 9 13.104568 9 12 C 9 10.895432 9.8954318 10 11 10 z " />
</svg>
