<?xml version="1.0" encoding="UTF-8" standalone="no"?>
<!-- Created with Inkscape (http://www.inkscape.org/) -->

<svg
   width="16"
   height="16"
   viewBox="0 0 16 16"
   version="1.1"
   id="svg292"
   inkscape:version="1.3.2 (091e20ef0f, 2023-11-25, custom)"
   sodipodi:docname="view-more-symbolic.svg"
   xmlns:inkscape="http://www.inkscape.org/namespaces/inkscape"
   xmlns:sodipodi="http://sodipodi.sourceforge.net/DTD/sodipodi-0.dtd"
   xmlns="http://www.w3.org/2000/svg"
   xmlns:svg="http://www.w3.org/2000/svg">
  <sodipodi:namedview
     id="namedview294"
     pagecolor="#ffffff"
     bordercolor="#000000"
     borderopacity="0.25"
     inkscape:showpageshadow="2"
     inkscape:pageopacity="0.0"
     inkscape:pagecheckerboard="0"
     inkscape:deskcolor="#d1d1d1"
     inkscape:document-units="px"
     showgrid="false"
     showguides="true"
     inkscape:zoom="49.75"
     inkscape:cx="8"
     inkscape:cy="7.9899497"
     inkscape:window-width="1920"
     inkscape:window-height="1008"
     inkscape:window-x="0"
     inkscape:window-y="0"
     inkscape:window-maximized="1"
     inkscape:current-layer="svg292" />
  <defs
     id="defs289" />
  <path
     id="path340"
     style="fill:#4d4d4d;fill-opacity:1;stroke-width:1;stroke-linecap:round;stroke-linejoin:round"
     d="M 4 7 C 3.4477171 7 3 7.4477171 3 8 C 3 8.5522829 3.4477171 9 4 9 C 4.5522829 9 5 8.5522829 5 8 C 5 7.4477171 4.5522829 7 4 7 z M 8 7 C 7.4477172 7 7 7.4477171 7 8 C 7 8.5522829 7.4477172 9 8 9 C 8.5522824 9 9 8.5522829 9 8 C 9 7.4477171 8.5522824 7 8 7 z M 12 7 C 11.447718 7 11 7.4477171 11 8 C 11 8.5522829 11.447718 9 12 9 C 12.552282 9 13 8.5522829 13 8 C 13 7.4477171 12.552282 7 12 7 z " />
</svg>
