<?xml version="1.0" encoding="UTF-8" standalone="no"?>
<!-- Created with Inkscape (http://www.inkscape.org/) -->

<svg
   width="24"
   height="24"
   viewBox="0 0 24 24"
   version="1.1"
   id="svg405"
   inkscape:version="1.2.2 (1:1.2.2+202305151914+b0a8486541)"
   sodipodi:docname="fcitx-anthy-panel.svg"
   xmlns:inkscape="http://www.inkscape.org/namespaces/inkscape"
   xmlns:sodipodi="http://sodipodi.sourceforge.net/DTD/sodipodi-0.dtd"
   xmlns="http://www.w3.org/2000/svg"
   xmlns:svg="http://www.w3.org/2000/svg">
  <sodipodi:namedview
     id="namedview407"
     pagecolor="#ffffff"
     bordercolor="#000000"
     borderopacity="0.25"
     inkscape:showpageshadow="2"
     inkscape:pageopacity="0.0"
     inkscape:pagecheckerboard="0"
     inkscape:deskcolor="#d1d1d1"
     inkscape:document-units="px"
     showgrid="false"
     inkscape:zoom="33.583333"
     inkscape:cx="11.985112"
     inkscape:cy="12"
     inkscape:window-width="1920"
     inkscape:window-height="1008"
     inkscape:window-x="0"
     inkscape:window-y="0"
     inkscape:window-maximized="1"
     inkscape:current-layer="svg405" />
  <defs
     id="defs402">
    <style
       id="current-color-scheme"
       type="text/css">
         .ColorScheme-Text { color:#dfdfdf; }
        </style>
  </defs>
  <path
     id="path343"
     style="fill:currentColor;fill-opacity:1;stroke-linecap:round;stroke-linejoin:round"
     class="ColorScheme-Text"
     d="M 7,4 C 5.3380051,4 4,5.3380051 4,7 v 10 c 0,1.661994 1.3380051,3 3,3 h 10 c 1.661994,0 3,-1.338006 3,-3 V 7 C 20,5.3380051 18.661994,4 17,4 Z m 3.333984,2 h 1.277344 c -0.074,0.5555994 -0.203572,1.1247634 -0.388672,1.9765625 C 13.729654,7.8749626 15.609001,7.7398717 17,7.5761719 v 1.2792969 c -1.167999,0.1329998 -3.09539,0.066219 -6.054687,0.1992187 -0.2963,1.1850985 -0.68647,3.2169165 -1.1679692,4.2910155 l 0.1113281,0.05469 c 1.3702991,-0.925899 2.3358291,-1.388672 3.2988281,-1.388672 1.222499,0 2.167985,0.296072 2.833984,0.888672 C 16.688484,13.49299 17,14.251735 17,15.177734 17,16.251733 16.59614,16.666657 15.744141,17.222656 14.929141,17.740656 13.70577,18 12.076172,18 11.053973,18 10.119099,18.006312 9,17.945312 v -1.447265 c 0.9442991,0.191 1.838545,0.224609 2.964844,0.224609 1.185199,0 2.074969,-0.148313 2.667968,-0.445312 0.629,-0.333 0.94336,-0.43361 0.94336,-1.09961 0,-0.592999 -0.204329,-1.055772 -0.611328,-1.388672 -0.408,-0.370399 -0.999545,-0.554687 -1.777344,-0.554687 -1.518498,0 -2.742773,0.646461 -4.0761719,1.943359 l -1,-0.777343 C 8.7039275,13.438192 9.2216161,10.974717 9.6660156,9.0117188 H 7 v -1.03125 c 0.959099,-0.0046 1.9321135,-0.015175 2.9453125,-0.046875 z" />
</svg>
