<?xml version="1.0" encoding="UTF-8" standalone="no"?>
<!-- Created with Inkscape (http://www.inkscape.org/) -->

<svg
   width="22"
   height="22"
   viewBox="0 0 22 22"
   version="1.1"
   id="svg371"
   xml:space="preserve"
   inkscape:version="1.3 (0e150ed6c4, 2023-07-21)"
   sodipodi:docname="application-x-desktop.svg"
   xmlns:inkscape="http://www.inkscape.org/namespaces/inkscape"
   xmlns:sodipodi="http://sodipodi.sourceforge.net/DTD/sodipodi-0.dtd"
   xmlns:xlink="http://www.w3.org/1999/xlink"
   xmlns="http://www.w3.org/2000/svg"
   xmlns:svg="http://www.w3.org/2000/svg"><sodipodi:namedview
     id="namedview373"
     pagecolor="#ffffff"
     bordercolor="#000000"
     borderopacity="0.25"
     inkscape:showpageshadow="2"
     inkscape:pageopacity="0.0"
     inkscape:pagecheckerboard="0"
     inkscape:deskcolor="#d1d1d1"
     inkscape:document-units="px"
     showgrid="false"
     inkscape:zoom="36.181818"
     inkscape:cx="10.986181"
     inkscape:cy="11"
     inkscape:window-width="1920"
     inkscape:window-height="1000"
     inkscape:window-x="0"
     inkscape:window-y="0"
     inkscape:window-maximized="1"
     inkscape:current-layer="svg371"
     showguides="false"
     inkscape:lockguides="true" /><defs
     id="defs368"><linearGradient
       inkscape:collect="always"
       xlink:href="#linearGradient3519"
       id="linearGradient2101"
       x1="11"
       y1="21"
       x2="11"
       y2="1"
       gradientUnits="userSpaceOnUse" /><linearGradient
       inkscape:collect="always"
       id="linearGradient3519"><stop
         style="stop-color:#e4e4e4;stop-opacity:1;"
         offset="0"
         id="stop3515" /><stop
         style="stop-color:#f1f1f1;stop-opacity:1;"
         offset="1"
         id="stop3517" /></linearGradient></defs><path
     d="M 1,11 C 1,3.5 3.5,1 11,1 18.5,1 21,3.5 21,11 21,18.5 18.5,21 11,21 3.5,21 1,18.5 1,11"
     style="fill:url(#linearGradient2101);fill-opacity:1;stroke-width:0.1"
     id="path311" /><path
     id="path1179"
     style="fill:#8e8e8e;fill-opacity:1;stroke-width:1.75;stroke-linecap:round;stroke-linejoin:round"
     d="M 10.125,4 C 9.640252,4 9.351569,4.4010118 9.25,4.875 L 8.765625,7.1308594 6.5703125,6.421875 C 6.1204503,6.2413058 5.6173742,6.322383 5.375,6.7421875 L 4.5,8.2578125 C 4.2576257,8.6776169 4.4606111,9.12817 4.8203125,9.453125 L 6.5332031,11 4.8203125,12.546875 C 4.4606107,12.871831 4.2576257,13.322383 4.5,13.742188 l 0.875,1.515624 c 0.2423742,0.419806 0.7454509,0.500883 1.1953125,0.320313 L 8.765625,14.869141 9.25,17.125 C 9.318556,17.604876 9.640252,18 10.125,18 h 1.75 c 0.48475,0 0.773431,-0.401012 0.875,-0.875 l 0.484375,-2.255859 2.195313,0.708984 c 0.44986,0.18057 0.952938,0.0995 1.195312,-0.320313 L 17.5,13.742188 c 0.242375,-0.419805 0.0394,-0.870357 -0.320312,-1.195313 L 15.466797,11 17.179688,9.453125 C 17.53939,9.12817 17.742375,8.6776169 17.5,8.2578125 L 16.625,6.7421875 C 16.382626,6.322383 15.879549,6.2413058 15.429688,6.421875 L 13.234375,7.1308594 12.75,4.875 C 12.68144,4.3951235 12.35975,4 11.875,4 Z M 11,8 c 1.656852,0 3,1.343148 3,3 0,1.656852 -1.343148,3 -3,3 C 9.343148,14 8,12.656852 8,11 8,9.343148 9.343148,8 11,8 Z" /></svg>
