<?xml version="1.0" encoding="UTF-8" standalone="no"?>
<!-- Created with Inkscape (http://www.inkscape.org/) -->

<svg
   width="22"
   height="22"
   viewBox="0 0 22 22"
   version="1.1"
   id="svg371"
   xml:space="preserve"
   inkscape:version="1.2.2 (1:1.2.2+202305151914+b0a8486541)"
   sodipodi:docname="application-x-theme.svg"
   xmlns:inkscape="http://www.inkscape.org/namespaces/inkscape"
   xmlns:sodipodi="http://sodipodi.sourceforge.net/DTD/sodipodi-0.dtd"
   xmlns:xlink="http://www.w3.org/1999/xlink"
   xmlns="http://www.w3.org/2000/svg"
   xmlns:svg="http://www.w3.org/2000/svg"><sodipodi:namedview
     id="namedview373"
     pagecolor="#ffffff"
     bordercolor="#000000"
     borderopacity="0.25"
     inkscape:showpageshadow="2"
     inkscape:pageopacity="0.0"
     inkscape:pagecheckerboard="0"
     inkscape:deskcolor="#d1d1d1"
     inkscape:document-units="px"
     showgrid="false"
     inkscape:zoom="36.636364"
     inkscape:cx="11"
     inkscape:cy="11"
     inkscape:window-width="1920"
     inkscape:window-height="1008"
     inkscape:window-x="0"
     inkscape:window-y="0"
     inkscape:window-maximized="1"
     inkscape:current-layer="svg371"
     showguides="true" /><defs
     id="defs368"><linearGradient
       inkscape:collect="always"
       id="linearGradient1349"><stop
         style="stop-color:#ef3b00;stop-opacity:1;"
         offset="0"
         id="stop1345" /><stop
         style="stop-color:#fe2794;stop-opacity:1;"
         offset="1"
         id="stop1347" /></linearGradient><linearGradient
       inkscape:collect="always"
       xlink:href="#linearGradient1349"
       id="linearGradient11432"
       x1="44.500561"
       y1="46.000389"
       x2="18.140696"
       y2="13.999796"
       gradientUnits="userSpaceOnUse"
       gradientTransform="matrix(0.49999131,0,0,0.49999131,-1.2498929,-1.9997956)" /><linearGradient
       inkscape:collect="always"
       xlink:href="#linearGradient3519"
       id="linearGradient3040"
       x1="32"
       y1="62"
       x2="32"
       y2="2"
       gradientUnits="userSpaceOnUse"
       gradientTransform="matrix(0.33333333,0,0,0.33333333,0.3333334,0.333333)" /><linearGradient
       inkscape:collect="always"
       id="linearGradient3519"><stop
         style="stop-color:#e4e4e4;stop-opacity:1;"
         offset="0"
         id="stop3515" /><stop
         style="stop-color:#f1f1f1;stop-opacity:1;"
         offset="1"
         id="stop3517" /></linearGradient></defs><path
     d="M 1,11 C 1,3.5 3.5,1 11,1 18.5,1 21,3.5 21,11 21,18.5 18.5,21 11,21 3.5,21 1,18.5 1,11"
     style="fill:url(#linearGradient3040);fill-opacity:1;stroke-width:0.1"
     id="path311" /><path
     d="M 5.0000111,5.0000625 V 8.000009 H 16.99999 V 5.4999455 c -0.74622,-0.26412 -1.178784,-0.50506 -2.749954,-0.499883 -2.524646,-0.003 -4.001951,0.970599 -6.0000939,0.999875 -1.306187,-0.0018 -2.166725,-0.08105 -3.249931,-0.999875 z m 0,3.9999285 V 12.25 c -0.002,0.754888 1.407291,0.97347 3.000053,1.250079 1.1678649,0.217636 1.9945469,0.400957 1.9999649,1.499974 0.0017,0.337794 -0.496425,1.045459 -0.499992,1.499974 0,0.82841 0.671563,1.499973 1.499973,1.499973 0.828411,0 1.499974,-0.671563 1.499974,-1.499973 -0.0036,-0.454515 -0.4965,-1.146369 -0.49999,-1.499974 -0.01563,-1.098919 0.832099,-1.282337 1.999964,-1.499974 C 15.592719,13.22347 17.001939,13.004888 16.999989,12.25 V 8.999991 Z"
     style="fill:url(#linearGradient11432);fill-opacity:1;stroke-width:0.374993"
     id="path598"
     sodipodi:nodetypes="ccccccccccscscccccc" /></svg>
