<?xml version="1.0" encoding="UTF-8" standalone="no"?>
<!-- Created with Inkscape (http://www.inkscape.org/) -->

<svg
   width="22"
   height="22"
   viewBox="0 0 22 22"
   version="1.1"
   id="svg371"
   xml:space="preserve"
   inkscape:version="1.3 (0e150ed6c4, 2023-07-21)"
   sodipodi:docname="package-x-generic.svg"
   xmlns:inkscape="http://www.inkscape.org/namespaces/inkscape"
   xmlns:sodipodi="http://sodipodi.sourceforge.net/DTD/sodipodi-0.dtd"
   xmlns:xlink="http://www.w3.org/1999/xlink"
   xmlns="http://www.w3.org/2000/svg"
   xmlns:svg="http://www.w3.org/2000/svg"><sodipodi:namedview
     id="namedview373"
     pagecolor="#ffffff"
     bordercolor="#000000"
     borderopacity="0.25"
     inkscape:showpageshadow="2"
     inkscape:pageopacity="0.0"
     inkscape:pagecheckerboard="0"
     inkscape:deskcolor="#d1d1d1"
     inkscape:document-units="px"
     showgrid="false"
     inkscape:zoom="36.181818"
     inkscape:cx="10.986181"
     inkscape:cy="11"
     inkscape:window-width="1920"
     inkscape:window-height="1000"
     inkscape:window-x="0"
     inkscape:window-y="0"
     inkscape:window-maximized="1"
     inkscape:current-layer="svg371"
     showguides="false" /><defs
     id="defs368"><linearGradient
       inkscape:collect="always"
       xlink:href="#linearGradient3519"
       id="linearGradient3251"
       x1="16"
       y1="31"
       x2="16"
       y2="1"
       gradientUnits="userSpaceOnUse"
       gradientTransform="matrix(0.66666668,0,0,0.66666668,0.3333334,0.3333334)" /><linearGradient
       inkscape:collect="always"
       xlink:href="#linearGradient3519"
       id="linearGradient1012"
       x1="17"
       y1="31.500002"
       x2="17"
       y2="1.5000001"
       gradientUnits="userSpaceOnUse"
       gradientTransform="matrix(0.66666664,0,0,0.66666664,-0.3333333,0)" /><linearGradient
       inkscape:collect="always"
       id="linearGradient1836"><stop
         style="stop-color:#f69000;stop-opacity:1;"
         offset="0"
         id="stop1832" /><stop
         style="stop-color:#f9a900;stop-opacity:1;"
         offset="1"
         id="stop1834" /></linearGradient><linearGradient
       inkscape:collect="always"
       id="linearGradient3519"><stop
         style="stop-color:#e4e4e4;stop-opacity:1;"
         offset="0"
         id="stop3515" /><stop
         style="stop-color:#f1f1f1;stop-opacity:1;"
         offset="1"
         id="stop3517" /></linearGradient><linearGradient
       inkscape:collect="always"
       xlink:href="#linearGradient1836"
       id="linearGradient2"
       x1="37"
       y1="36"
       x2="37"
       y2="12"
       gradientUnits="userSpaceOnUse"
       gradientTransform="matrix(0.5,0,0,0.5,-0.5,-1)" /></defs><path
     d="M 1,11 C 1,3.5 3.5,1 11,1 18.5,1 21,3.5 21,11 21,18.5 18.5,21 11,21 3.5,21 1,18.5 1,11"
     style="fill:url(#linearGradient3251);stroke-width:0.1"
     id="path311" /><path
     id="rect419"
     style="fill:url(#linearGradient2);fill-opacity:1;stroke-width:0.53033"
     d="M 5,5 C 4.4460039,5 4,5.4460038 4,6 v 9.5 C 4,16.330995 4.6690044,17 5.5,17 h 11 c 0.830995,0 1.5,-0.669005 1.5,-1.5 v -7 C 18,7.6690044 17.330995,7 16.5,7 h -5 V 6 c 0,-0.5539962 -0.446005,-1 -1,-1 z" /><path
     id="path345"
     style="fill:url(#linearGradient1012);stroke-width:0.5"
     d="M 7,4 C 6.4477168,4 6,4.4477167 6,5 6,5.5522832 6.4477168,6 7,6 7.5522832,6 8,5.5522832 8,5 8,4.4477167 7.5522832,4 7,4 Z M 7,7 C 6.4477168,7 6,7.4477167 6,8 6,8.5522832 6.4477168,9 7,9 7.5522832,9 8,8.5522832 8,8 8,7.4477167 7.5522832,7 7,7 Z m 0,3 c -0.5522832,0 -1,0.447718 -1,1 0,0.552282 0.4477168,1 1,1 0.5522832,0 1,-0.447718 1,-1 0,-0.552282 -0.4477168,-1 -1,-1 z m 0,3 c -0.5522832,0 -1,0.447718 -1,1 0,0.552282 0.4477168,1 1,1 0.5522832,0 1,-0.447718 1,-1 0,-0.552282 -0.4477168,-1 -1,-1 z" /></svg>
