<?xml version="1.0" encoding="UTF-8" standalone="no"?>
<!-- Created with Inkscape (http://www.inkscape.org/) -->

<svg
   width="22"
   height="22"
   viewBox="0 0 22 22"
   version="1.1"
   id="svg371"
   xml:space="preserve"
   inkscape:version="1.2.2 (1:1.2.2+202212051552+b0a8486541)"
   sodipodi:docname="emblem-new.svg"
   xmlns:inkscape="http://www.inkscape.org/namespaces/inkscape"
   xmlns:sodipodi="http://sodipodi.sourceforge.net/DTD/sodipodi-0.dtd"
   xmlns="http://www.w3.org/2000/svg"
   xmlns:svg="http://www.w3.org/2000/svg"><sodipodi:namedview
     id="namedview373"
     pagecolor="#ffffff"
     bordercolor="#000000"
     borderopacity="0.25"
     inkscape:showpageshadow="2"
     inkscape:pageopacity="0.0"
     inkscape:pagecheckerboard="0"
     inkscape:deskcolor="#d1d1d1"
     inkscape:document-units="px"
     showgrid="false"
     inkscape:zoom="36.818182"
     inkscape:cx="10.98642"
     inkscape:cy="11"
     inkscape:window-width="1920"
     inkscape:window-height="1012"
     inkscape:window-x="0"
     inkscape:window-y="0"
     inkscape:window-maximized="1"
     inkscape:current-layer="svg371"
     showguides="true" /><defs
     id="defs368" /><path
     d="M 1,11 C 1,3.5 3.5,1 11,1 18.5,1 21,3.5 21,11 21,18.5 18.5,21 11,21 3.5,21 1,18.5 1,11"
     style="fill:#666666;fill-opacity:1;stroke-width:0.1;opacity:0.6"
     id="path311" /><path
     id="rect340"
     style="fill:#ffffff"
     d="M 11 4 C 10.446001 4 10 4.4460006 10 5 L 10 10 L 5 10 C 4.4460006 10 4 10.446001 4 11 C 4 11.553999 4.4460006 12 5 12 L 10 12 L 10 17 C 10 17.553999 10.446001 18 11 18 C 11.553999 18 12 17.553999 12 17 L 12 12 L 17 12 C 17.553999 12 18 11.553999 18 11 C 18 10.446001 17.553999 10 17 10 L 12 10 L 12 5 C 12 4.4460006 11.553999 4 11 4 z " /></svg>
