<?xml version="1.0" encoding="UTF-8" standalone="no"?>
<!-- Created with Inkscape (http://www.inkscape.org/) -->

<svg
   width="22"
   height="22"
   viewBox="0 0 22 22"
   version="1.1"
   id="svg405"
   inkscape:version="1.2.2 (1:1.2.2+202305151914+b0a8486541)"
   sodipodi:docname="battery-030-charging.svg"
   xmlns:inkscape="http://www.inkscape.org/namespaces/inkscape"
   xmlns:sodipodi="http://sodipodi.sourceforge.net/DTD/sodipodi-0.dtd"
   xmlns="http://www.w3.org/2000/svg"
   xmlns:svg="http://www.w3.org/2000/svg">
  <sodipodi:namedview
     id="namedview407"
     pagecolor="#ffffff"
     bordercolor="#000000"
     borderopacity="0.25"
     inkscape:showpageshadow="2"
     inkscape:pageopacity="0.0"
     inkscape:pagecheckerboard="0"
     inkscape:deskcolor="#d1d1d1"
     inkscape:document-units="px"
     showgrid="false"
     inkscape:zoom="36.636364"
     inkscape:cx="11"
     inkscape:cy="11"
     inkscape:window-width="1920"
     inkscape:window-height="1008"
     inkscape:window-x="0"
     inkscape:window-y="0"
     inkscape:window-maximized="1"
     inkscape:current-layer="svg405" />
  <defs
     id="defs402">
    <style
       id="current-color-scheme"
       type="text/css">
         .ColorScheme-Text { color:#dfdfdf; }
         .ColorScheme-Highlight { color:#4285f4; } 
	     .ColorScheme-NeutralText { color:#ff9800; }
	     .ColorScheme-PositiveText { color:#4caf50; }
	     .ColorScheme-NegativeText { color:#f44336; }
    </style>
  </defs>
  <path
     d="M 9,4 V 5 H 8 C 7.4460006,5 7,5.4460008 7,6.0000002 V 17.000001 c 0,0.553999 0.4460006,1 1,1 h 6 c 0.553999,0 1,-0.446001 1,-1 V 6.0000002 C 15,5.4460008 14.553999,5 14,5 H 13 V 4 Z"
     style="opacity:0.35;fill:currentColor;fill-opacity:1;stroke-width:3;stroke-linecap:round;stroke-linejoin:round"
     id="path342"
     class="ColorScheme-Text" />
  <path
     d="m 15,14 v 3.000001 c 0,0.554 -0.446,1 -1,1 H 8 c -0.554,0 -1,-0.446 -1,-1 V 14 Z"
     style="fill:currentColor;fill-opacity:1;stroke-width:3;stroke-linecap:round;stroke-linejoin:round"
     id="path761"
     class="ColorScheme-Text"
     sodipodi:nodetypes="csssscc" />
  <path
     d="m 11,8 v 3 h 2 l -2,5 V 13.000001 H 8.9999999 Z"
     style="fill:currentColor;fill-opacity:1;stroke-width:3;stroke-linecap:round;stroke-linejoin:round"
     id="path667"
     class="ColorScheme-PositiveText" />
</svg>
