<?xml version="1.0" encoding="UTF-8" standalone="no"?>
<!-- Created with Inkscape (http://www.inkscape.org/) -->

<svg
   width="24"
   height="24"
   viewBox="0 0 24 24"
   version="1.1"
   id="svg11945"
   inkscape:version="1.2.2 (1:1.2.2+202305151914+b0a8486541)"
   sodipodi:docname="folder-desktop.svg"
   xmlns:inkscape="http://www.inkscape.org/namespaces/inkscape"
   xmlns:sodipodi="http://sodipodi.sourceforge.net/DTD/sodipodi-0.dtd"
   xmlns="http://www.w3.org/2000/svg"
   xmlns:svg="http://www.w3.org/2000/svg">
  <sodipodi:namedview
     id="namedview11947"
     pagecolor="#ffffff"
     bordercolor="#666666"
     borderopacity="1.0"
     inkscape:pageshadow="2"
     inkscape:pageopacity="0.0"
     inkscape:pagecheckerboard="0"
     inkscape:document-units="px"
     showgrid="false"
     units="in"
     inkscape:zoom="33.583333"
     inkscape:cx="11.985112"
     inkscape:cy="12"
     inkscape:window-width="1920"
     inkscape:window-height="1008"
     inkscape:window-x="0"
     inkscape:window-y="0"
     inkscape:window-maximized="1"
     inkscape:current-layer="svg11945"
     showguides="true"
     inkscape:showpageshadow="2"
     inkscape:deskcolor="#d1d1d1" />
  <defs
     id="defs11942">
    <style
       id="current-color-scheme"
       type="text/css">
         .ColorScheme-Text { color:#dfdfdf; }
        </style>
  </defs>
  <path
     id="path4457"
     style="fill:currentColor;stroke-width:5.00003;stroke-linecap:round;stroke-linejoin:round"
     class="ColorScheme-Text"
     d="M 6.0000003,5 C 4.8920058,5 4.0000002,5.892006 4.0000002,6.9999999 V 16 c 0,1.107994 0.8920056,2 2.0000001,2 H 18 c 1.107996,0 2,-0.892006 2,-2 V 6.9999999 C 20,5.892006 19.107996,5 18,5 Z m 0,1 H 18 c 0.553998,0 1.000001,0.4460032 1.000001,0.9999999 V 16 c 0,0.553998 -0.446003,1 -1.000001,1 H 6.0000003 c -0.5539973,0 -1,-0.446002 -1,-1 V 6.9999999 C 5.0000003,6.4460032 5.446003,6 6.0000003,6 Z M 7,6.9999999 c -0.5522847,2e-7 -0.9999998,0.4477155 -0.9999997,1.0000002 0,0.5522846 0.4477151,0.9999998 0.9999997,1 0.552285,3e-7 1.0000005,-0.4477151 1.0000005,-1 C 8.0000006,7.447715 7.552285,6.9999996 7,6.9999999 Z m 0,3 C 6.4477154,10 6.0000003,10.447715 6.0000003,11 6.0000003,11.552285 6.4477154,12 7,12 7.552285,12 8.0000005,11.552285 8.0000005,11 8.0000005,10.447715 7.552285,9.9999996 7,9.9999999 Z M 6.0000003,15 v 1 H 18 v -1 z"
     sodipodi:nodetypes="ssssssssssssssssssssssssssssccccc" />
</svg>
