<?xml version="1.0" encoding="UTF-8" standalone="no"?>
<!-- Created with Inkscape (http://www.inkscape.org/) -->

<svg
   width="24"
   height="24"
   viewBox="0 0 24 24"
   version="1.1"
   id="svg5"
   inkscape:version="1.2.2 (1:1.2.2+202305151914+b0a8486541)"
   sodipodi:docname="folder-music.svg"
   xmlns:inkscape="http://www.inkscape.org/namespaces/inkscape"
   xmlns:sodipodi="http://sodipodi.sourceforge.net/DTD/sodipodi-0.dtd"
   xmlns="http://www.w3.org/2000/svg"
   xmlns:svg="http://www.w3.org/2000/svg">
  <sodipodi:namedview
     id="namedview7"
     pagecolor="#ffffff"
     bordercolor="#000000"
     borderopacity="0.25"
     inkscape:showpageshadow="2"
     inkscape:pageopacity="0.0"
     inkscape:pagecheckerboard="0"
     inkscape:deskcolor="#d1d1d1"
     inkscape:document-units="px"
     showgrid="false"
     inkscape:zoom="33.583333"
     inkscape:cx="11.985112"
     inkscape:cy="12"
     inkscape:window-width="1920"
     inkscape:window-height="1008"
     inkscape:window-x="0"
     inkscape:window-y="0"
     inkscape:window-maximized="1"
     inkscape:current-layer="svg5"
     inkscape:lockguides="true" />
  <defs
     id="defs2">
    <style
       id="current-color-scheme"
       type="text/css">
         .ColorScheme-Text { color:#dfdfdf; }
        </style>
  </defs>
  <path
     id="path544"
     style="fill:currentColor;stroke-width:2;stroke-linecap:round"
     d="m 13,4 a 1,1 0 0 0 -1,1 v 7.671875 A 4.5,4.5 0 0 0 8.5,11 4.5,4.5 0 0 0 4,15.5 4.5,4.5 0 0 0 8.5,20 4.5,4.5 0 0 0 13,15.5 V 5 c 3.313705,0 6,2.1862948 6,5.5 v 1 a 0.5,0.5 0 0 0 0.5,0.5 0.5,0.5 0 0 0 0.5,-0.5 0.5,0.5 0 0 0 0,-0.002 0.5,0.5 0 0 0 0,-0.002 0.5,0.5 0 0 0 0,-0.002 0.5,0.5 0 0 0 0,-0.002 0.5,0.5 0 0 0 0,-0.002 0.5,0.5 0 0 0 0,-0.002 0.5,0.5 0 0 0 0,-0.002 0.5,0.5 0 0 0 0,-0.002 0.5,0.5 0 0 0 0,-0.002 0.5,0.5 0 0 0 0,-0.002 0.5,0.5 0 0 0 0,-0.002 0.5,0.5 0 0 0 0,-0.002 0.5,0.5 0 0 0 0,-0.002 V 10.5 C 20,6.6340107 16.86599,4 13,4 Z M 8.5,12 A 3.5,3.5 0 0 1 12,15.5 3.5,3.5 0 0 1 8.5,19 3.5,3.5 0 0 1 5,15.5 3.5,3.5 0 0 1 8.5,12 Z"
     class="ColorScheme-Text" />
</svg>
