<?xml version="1.0" encoding="UTF-8" standalone="no"?>
<!-- Created with Inkscape (http://www.inkscape.org/) -->

<svg
   width="24"
   height="24"
   viewBox="0 0 24 24"
   version="1.1"
   id="svg11945"
   inkscape:version="1.2.2 (1:1.2.2+202305151914+b0a8486541)"
   sodipodi:docname="user-trash.svg"
   xmlns:inkscape="http://www.inkscape.org/namespaces/inkscape"
   xmlns:sodipodi="http://sodipodi.sourceforge.net/DTD/sodipodi-0.dtd"
   xmlns="http://www.w3.org/2000/svg"
   xmlns:svg="http://www.w3.org/2000/svg">
  <sodipodi:namedview
     id="namedview11947"
     pagecolor="#ffffff"
     bordercolor="#666666"
     borderopacity="1.0"
     inkscape:pageshadow="2"
     inkscape:pageopacity="0.0"
     inkscape:pagecheckerboard="0"
     inkscape:document-units="px"
     showgrid="false"
     units="in"
     inkscape:zoom="33.583333"
     inkscape:cx="11.985112"
     inkscape:cy="12"
     inkscape:window-width="1920"
     inkscape:window-height="1008"
     inkscape:window-x="0"
     inkscape:window-y="0"
     inkscape:window-maximized="1"
     inkscape:current-layer="svg11945"
     showguides="true"
     inkscape:showpageshadow="2"
     inkscape:deskcolor="#d1d1d1" />
  <defs
     id="defs11942">
    <style
       id="current-color-scheme"
       type="text/css">
         .ColorScheme-Text { color:#dfdfdf; }
         .ColorScheme-Highlight { color:#4285f4; } 
	 .ColorScheme-NeutralText { color:#ff9800; }
	 .ColorScheme-PositiveText { color:#4caf50; }
	 .ColorScheme-NegativeText { color:#f44336; }</style>
  </defs>
  <path
     d="M 9.9999997,4 C 9.4459996,4 8.9999999,4.4460001 8.9999999,5 V 6 H 5 v 1.0000001 h 0.9999999 l 1,10.9999999 c 0.1003137,1.103451 0.8919999,2 1.9999997,2 H 15 c 1.108,0 1.899686,-0.89655 2,-2 L 18,7.0000001 h 1 V 6 H 15 V 5 C 15,4.4460001 14.554,4 14,4 Z m 0,1 H 14 V 6 H 9.9999997 Z M 6.9999999,7.0000002 H 17 L 16,18 c -0.06118,0.550612 -0.446,1 -1,1 H 8.9999996 C 8.4459999,19 8.0501566,18.551725 7.9999998,18 Z M 10.47461,8.9999999 C 10.209695,9.0133416 9.9999998,9.2316547 9.9999998,9.5 v 7 C 9.9999998,16.777002 10.223,17 10.5,17 10.777002,17 11,16.777001 11,16.5 v -7 c 0,-0.2770016 -0.223,-0.5000001 -0.5,-0.5000001 -0.0087,0 -0.01686,-4.301e-4 -0.0254,0 z m 2.999999,0 C 13.209695,9.0133416 13,9.2316547 13,9.5 v 7 c 0,0.277002 0.223,0.5 0.5,0.5 0.277001,0 0.5,-0.222999 0.5,-0.5 v -7 c 0,-0.2770016 -0.223,-0.5000001 -0.5,-0.5000001 -0.0087,0 -0.01686,-4.301e-4 -0.0254,0 z"
     style="fill:currentColor;fill-opacity:1;stroke-width:18.8977;stroke-linecap:round;stroke-linejoin:round"
     id="path5833"
     class="ColorScheme-Text"
     sodipodi:nodetypes="ssccccssssccccsssccccccccsssccsssssscccsssssscc" />
</svg>
