<?xml version="1.0" encoding="UTF-8" standalone="no"?>
<!-- Created with Inkscape (http://www.inkscape.org/) -->

<svg
   width="16"
   height="16"
   viewBox="0 0 16 16"
   version="1.1"
   id="svg5"
   inkscape:version="1.2.2 (1:1.2.2+202305151914+b0a8486541)"
   sodipodi:docname="playlist-symbolic.svg"
   xmlns:inkscape="http://www.inkscape.org/namespaces/inkscape"
   xmlns:sodipodi="http://sodipodi.sourceforge.net/DTD/sodipodi-0.dtd"
   xmlns="http://www.w3.org/2000/svg"
   xmlns:svg="http://www.w3.org/2000/svg">
  <sodipodi:namedview
     id="namedview7"
     pagecolor="#ffffff"
     bordercolor="#000000"
     borderopacity="0.25"
     inkscape:showpageshadow="2"
     inkscape:pageopacity="0.0"
     inkscape:pagecheckerboard="0"
     inkscape:deskcolor="#d1d1d1"
     inkscape:document-units="px"
     showgrid="false"
     inkscape:zoom="50.375"
     inkscape:cx="8"
     inkscape:cy="8"
     inkscape:window-width="1920"
     inkscape:window-height="1008"
     inkscape:window-x="0"
     inkscape:window-y="0"
     inkscape:window-maximized="1"
     inkscape:current-layer="layer1" />
  <defs
     id="defs2" />
  <g
     inkscape:label="Layer 1"
     inkscape:groupmode="layer"
     id="layer1">
    <path
       id="path234"
       style="fill:#dfdfdf;stroke-width:2;stroke-linecap:round;fill-opacity:1"
       d="M 1.5 2 C 1.2230012 2 1 2.2230012 1 2.5 C 1 2.7769988 1.2230012 3 1.5 3 L 8.5 3 C 8.7769991 3 9 2.7769988 9 2.5 C 9 2.2230012 8.7769991 2 8.5 2 L 1.5 2 z M 11 2 C 10.447717 2 10 2.4477165 10 3 L 10 8.7636719 A 3 3 0 0 0 8 8 A 3 3 0 0 0 5 11 A 3 3 0 0 0 8 14 A 3 3 0 0 0 11 11 L 11 3 C 12.656848 3 13.987454 3.7611144 14 6 L 14 6.5 C 14 6.7761418 14.223858 7 14.5 7 L 14.525391 7 C 14.78205 6.987266 14.987266 6.7820501 15 6.5253906 L 15 6.5234375 L 15 6.5214844 L 15 6.5195312 L 15 6.5175781 L 15 6.515625 L 15 6.5136719 L 15 6.5117188 L 15 6.5097656 L 15 6.5078125 L 15 6.5058594 L 15 6.5039062 L 15 6.5019531 L 15 6.5 L 15 6 C 14.959927 2.9629467 13.209133 2 11 2 z M 1.5 5 C 1.2230012 5 1 5.2230012 1 5.5 C 1 5.7769988 1.2230012 6 1.5 6 L 8.5 6 C 8.7769991 6 9 5.7769988 9 5.5 C 9 5.2230012 8.7769991 5 8.5 5 L 1.5 5 z M 1.5 8 C 1.2230012 8 1 8.2230012 1 8.5 C 1 8.7769988 1.2230012 9 1.5 9 L 3.5 9 C 3.7769992 9 4 8.7769988 4 8.5 C 4 8.2230012 3.7769992 8 3.5 8 L 1.5 8 z M 8 9 A 2 2 0 0 1 10 11 A 2 2 0 0 1 8 13 A 2 2 0 0 1 6 11 A 2 2 0 0 1 8 9 z " />
  </g>
</svg>
