<?xml version="1.0" encoding="UTF-8" standalone="no"?>
<!-- Created with Inkscape (http://www.inkscape.org/) -->

<svg
   width="22"
   height="22"
   viewBox="0 0 22 22"
   version="1.1"
   id="svg5"
   inkscape:version="1.2.2 (1:1.2.2+202305151914+b0a8486541)"
   sodipodi:docname="printer.svg"
   xmlns:inkscape="http://www.inkscape.org/namespaces/inkscape"
   xmlns:sodipodi="http://sodipodi.sourceforge.net/DTD/sodipodi-0.dtd"
   xmlns="http://www.w3.org/2000/svg"
   xmlns:svg="http://www.w3.org/2000/svg">
  <sodipodi:namedview
     id="namedview7"
     pagecolor="#ffffff"
     bordercolor="#000000"
     borderopacity="0.25"
     inkscape:showpageshadow="2"
     inkscape:pageopacity="0.0"
     inkscape:pagecheckerboard="0"
     inkscape:deskcolor="#d1d1d1"
     inkscape:document-units="px"
     showgrid="false"
     inkscape:zoom="36.636364"
     inkscape:cx="11"
     inkscape:cy="11"
     inkscape:window-width="1920"
     inkscape:window-height="1008"
     inkscape:window-x="0"
     inkscape:window-y="0"
     inkscape:window-maximized="1"
     inkscape:current-layer="svg5" />
  <defs
     id="defs2">
    <style
       id="current-color-scheme"
       type="text/css">
         .ColorScheme-Text { color:#4d4d4d; }
        </style>
  </defs>
  <path
     id="path1407"
     style="fill:currentColor;stroke:none;stroke-width:2;stroke-linecap:round;stroke-linejoin:round;stroke-dasharray:none;stroke-opacity:1"
     class="ColorScheme-Text"
     d="M 7 3 C 5.8920043 3 5 3.8920041 5 5 L 5 11 C 3.8920044 11 3 11.892004 3 13 L 3 17 C 3 18.107995 3.8920044 19 5 19 L 17 19 C 18.107996 19 19 18.107995 19 17 L 19 13 C 19 11.892004 18.107996 11 17 11 L 17 7.5 C 17.0035 6.659485 16.825643 6.3296719 16.5 6 L 14 3.5 C 13.537031 3.0712072 13.195495 3 12.5 3 L 7 3 z M 7 4 L 12 4 L 12 6 C 12 7.1079955 12.892005 8 14 8 L 16 8 L 16 11 L 6 11 L 6 5 C 6 4.4460023 6.4460018 4 7 4 z M 13 4 L 16 7 L 14 7 C 13.446003 7 13 6.5539978 13 6 L 13 4 z M 5 12 L 17 12 C 17.553996 12 18 12.446003 18 13 L 18 17 C 18 17.553996 17.553996 18 17 18 L 5 18 C 4.4460024 18 4 17.553996 4 17 L 4 13 C 4 12.446003 4.4460024 12 5 12 z M 5 16 L 5 17 L 17 17 L 17 16 L 5 16 z " />
</svg>
