<?xml version="1.0" encoding="UTF-8" standalone="no"?>
<!-- Created with Inkscape (http://www.inkscape.org/) -->

<svg
   width="22"
   height="22"
   viewBox="0 0 22 22"
   version="1.1"
   id="svg371"
   xml:space="preserve"
   inkscape:version="1.2.2 (1:1.2.2+202212051552+b0a8486541)"
   sodipodi:docname="applications-all.svg"
   xmlns:inkscape="http://www.inkscape.org/namespaces/inkscape"
   xmlns:sodipodi="http://sodipodi.sourceforge.net/DTD/sodipodi-0.dtd"
   xmlns="http://www.w3.org/2000/svg"
   xmlns:svg="http://www.w3.org/2000/svg"><sodipodi:namedview
     id="namedview373"
     pagecolor="#ffffff"
     bordercolor="#000000"
     borderopacity="0.25"
     inkscape:showpageshadow="2"
     inkscape:pageopacity="0.0"
     inkscape:pagecheckerboard="0"
     inkscape:deskcolor="#d1d1d1"
     inkscape:document-units="px"
     showgrid="false"
     inkscape:zoom="36.818182"
     inkscape:cx="10.98642"
     inkscape:cy="11"
     inkscape:window-width="1920"
     inkscape:window-height="1012"
     inkscape:window-x="0"
     inkscape:window-y="0"
     inkscape:window-maximized="1"
     inkscape:current-layer="svg371"
     showguides="false"
     inkscape:lockguides="true" /><defs
     id="defs368" /><path
     d="M 1,11 C 1,3.5 3.5,1 11,1 18.5,1 21,3.5 21,11 21,18.5 18.5,21 11,21 3.5,21 1,18.5 1,11"
     style="fill:#4aa9ed;fill-opacity:1;stroke-width:0.1"
     id="path311" /><path
     id="path341"
     style="fill:#ffffff;stroke-width:1.25"
     d="M 7.5 5 C 6.1192895 5 5 6.1192897 5 7.5 C 5 8.8807103 6.1192895 10 7.5 10 C 8.8807103 10 10 8.8807111 10 7.5 C 10 6.1192897 8.8807103 4.9999998 7.5 5 z M 14.5 5 C 13.119289 5 12 6.1192897 12 7.5 C 12 8.8807099 13.119289 10 14.5 10 C 15.880711 10 17 8.8807108 17 7.5 C 17 6.1192897 15.880711 4.9999998 14.5 5 z M 7.5 12 C 6.1192892 12 5 13.119289 5 14.5 C 5 15.88071 6.1192892 17 7.5 17 C 8.8807101 17 10 15.880711 10 14.5 C 10 13.119289 8.8807101 12 7.5 12 z M 14.5 12 C 13.119289 12 12 13.119289 12 14.5 C 12 15.880711 13.119289 17 14.5 17 C 15.880711 17 17 15.880711 17 14.5 C 17 13.119289 15.880711 12 14.5 12 z " /></svg>
