<?xml version="1.0" encoding="UTF-8" standalone="no"?>
<!-- Created with Inkscape (http://www.inkscape.org/) -->

<svg
   width="22"
   height="22"
   viewBox="0 0 22 22"
   version="1.1"
   id="svg371"
   xml:space="preserve"
   inkscape:version="1.2.2 (1:1.2.2+202212051552+b0a8486541)"
   sodipodi:docname="evolution-calendar.svg"
   xmlns:inkscape="http://www.inkscape.org/namespaces/inkscape"
   xmlns:sodipodi="http://sodipodi.sourceforge.net/DTD/sodipodi-0.dtd"
   xmlns="http://www.w3.org/2000/svg"
   xmlns:svg="http://www.w3.org/2000/svg"><path
     id="rect900"
     style="fill:#2792b9;stroke-width:2.7;stroke-linecap:round;stroke-linejoin:round;fill-opacity:1"
     d="M 5 2 C 3.3380034 2 2 3.3380034 2 5 L 2 17 C 2 18.661996 3.3380034 20 5 20 L 17 20 C 18.661996 20 20 18.661996 20 17 L 20 5 C 20 3.3380034 18.661996 2 17 2 L 16 2 A 2 2 0 0 1 14 4 A 2 2 0 0 1 12 2 L 10 2 A 2 2 0 0 1 8 4 A 2 2 0 0 1 6 2 L 5 2 z M 5 7 C 5.5522844 7 6 7.4477156 6 8 C 6 8.5522844 5.5522844 9 5 9 C 4.4477159 9 4 8.5522844 4 8 C 4 7.4477156 4.4477159 7 5 7 z M 9 7 C 9.5522844 7 10 7.4477156 10 8 C 10 8.5522844 9.5522844 9 9 9 C 8.4477156 9 8 8.5522844 8 8 C 8 7.4477156 8.4477156 7 9 7 z M 13 7 C 13.552284 7 14 7.4477156 14 8 C 14 8.5522844 13.552284 9 13 9 C 12.447716 9 12 8.5522844 12 8 C 12 7.4477156 12.447716 7 13 7 z M 17 7 C 17.552284 7 18 7.4477156 18 8 C 18 8.5522844 17.552284 9 17 9 C 16.447716 9 16 8.5522844 16 8 C 16 7.4477156 16.447716 7 17 7 z M 5 11 C 5.5522844 11 6 11.447716 6 12 C 6 12.552284 5.5522844 13 5 13 C 4.4477159 13 4 12.552284 4 12 C 4 11.447716 4.4477159 11 5 11 z M 9 11 C 9.5522844 11 10 11.447716 10 12 C 10 12.552284 9.5522844 13 9 13 C 8.4477156 13 8 12.552284 8 12 C 8 11.447716 8.4477156 11 9 11 z M 13 11 C 13.552284 11 14 11.447716 14 12 C 14 12.552284 13.552284 13 13 13 C 12.447716 13 12 12.552284 12 12 C 12 11.447716 12.447716 11 13 11 z M 17 11 C 17.552284 11 18 11.447716 18 12 C 18 12.552284 17.552284 13 17 13 C 16.447716 13 16 12.552284 16 12 C 16 11.447716 16.447716 11 17 11 z M 5 15 C 5.5522844 15 6 15.447717 6 16 C 6 16.552283 5.5522844 17 5 17 C 4.4477166 17 4 16.552283 4 16 C 4 15.447717 4.4477166 15 5 15 z M 9 15 C 9.5522834 15 10 15.447717 10 16 C 10 16.552283 9.5522834 17 9 17 C 8.4477166 17 8 16.552283 8 16 C 8 15.447717 8.4477166 15 9 15 z M 13 15 C 13.552283 15 14 15.447717 14 16 C 14 16.552283 13.552283 17 13 17 C 12.447717 17 12 16.552283 12 16 C 12 15.447717 12.447717 15 13 15 z " /><sodipodi:namedview
     id="namedview373"
     pagecolor="#ffffff"
     bordercolor="#000000"
     borderopacity="0.25"
     inkscape:showpageshadow="2"
     inkscape:pageopacity="0.0"
     inkscape:pagecheckerboard="0"
     inkscape:deskcolor="#d1d1d1"
     inkscape:document-units="px"
     showgrid="false"
     inkscape:zoom="25.3125"
     inkscape:cx="12.661728"
     inkscape:cy="16"
     inkscape:window-width="1920"
     inkscape:window-height="1012"
     inkscape:window-x="0"
     inkscape:window-y="0"
     inkscape:window-maximized="1"
     inkscape:current-layer="svg371"
     showguides="true" /><defs
     id="defs368" /></svg>
