<?xml version="1.0" encoding="UTF-8" standalone="no"?>
<!-- Created with Inkscape (http://www.inkscape.org/) -->

<svg
   width="22"
   height="22"
   viewBox="0 0 22 22"
   version="1.1"
   id="svg371"
   xml:space="preserve"
   inkscape:version="1.3.2 (1:1.3.2+202311252150+091e20ef0f)"
   sodipodi:docname="preferences-system.svg"
   xmlns:inkscape="http://www.inkscape.org/namespaces/inkscape"
   xmlns:sodipodi="http://sodipodi.sourceforge.net/DTD/sodipodi-0.dtd"
   xmlns:xlink="http://www.w3.org/1999/xlink"
   xmlns="http://www.w3.org/2000/svg"
   xmlns:svg="http://www.w3.org/2000/svg"><sodipodi:namedview
     id="namedview373"
     pagecolor="#ffffff"
     bordercolor="#000000"
     borderopacity="0.25"
     inkscape:showpageshadow="2"
     inkscape:pageopacity="0.0"
     inkscape:pagecheckerboard="0"
     inkscape:deskcolor="#d1d1d1"
     inkscape:document-units="px"
     showgrid="false"
     inkscape:zoom="36.863636"
     inkscape:cx="11"
     inkscape:cy="11"
     inkscape:window-width="1920"
     inkscape:window-height="1008"
     inkscape:window-x="0"
     inkscape:window-y="0"
     inkscape:window-maximized="1"
     inkscape:current-layer="svg371"
     showguides="false"
     inkscape:lockguides="true" /><defs
     id="defs368"><linearGradient
       inkscape:collect="always"
       id="linearGradient3038"><stop
         style="stop-color:#3f495d;stop-opacity:1;"
         offset="0"
         id="stop3034" /><stop
         style="stop-color:#4f5b70;stop-opacity:1;"
         offset="1"
         id="stop3036" /></linearGradient><linearGradient
       inkscape:collect="always"
       xlink:href="#linearGradient3038"
       id="linearGradient2101"
       x1="11"
       y1="21"
       x2="11"
       y2="1"
       gradientUnits="userSpaceOnUse" /></defs><path
     d="M 1,11 C 1,3.5 3.5,1 11,1 18.5,1 21,3.5 21,11 21,18.5 18.5,21 11,21 3.5,21 1,18.5 1,11"
     style="fill:url(#linearGradient2101);fill-opacity:1;stroke-width:0.1"
     id="path311" /><path
     id="path235"
     style="fill:#ffffff;stroke-width:0.4375"
     d="M 11,4 A 7,7 0 0 0 9.763672,4.123047 1.5,1.5 0 0 1 8.895508,5.918946 1.5,1.5 0 0 1 7.025391,5.253906 7,7 0 0 0 5.263672,7.012696 1.5,1.5 0 0 1 5.918946,8.895508 1.5,1.5 0 0 1 4.126953,9.747071 7,7 0 0 0 4,11 a 7,7 0 0 0 0.125977,1.248047 1.5,1.5 0 0 1 0.210937,-0.05664 1.5,1.5 0 0 1 1.582032,0.913086 1.5,1.5 0 0 1 -0.655274,1.882812 7,7 0 0 0 1.758789,1.75586 A 1.5,1.5 0 0 1 8.125,15.98047 1.5,1.5 0 0 1 8.895508,16.081055 1.5,1.5 0 0 1 9.763672,17.876954 7,7 0 0 0 11,18 a 7,7 0 0 0 1.252929,-0.126953 1.5,1.5 0 0 1 0.851563,-1.791993 1.5,1.5 0 0 1 0.378906,-0.100585 1.5,1.5 0 0 1 1.490235,0.766601 7,7 0 0 0 1.772461,-1.772461 1.5,1.5 0 0 1 -0.66504,-1.870117 1.5,1.5 0 0 1 1.19043,-0.913086 1.5,1.5 0 0 1 0.602539,0.05664 A 7,7 0 0 0 18,11 7,7 0 0 0 17.884765,9.744141 1.5,1.5 0 0 1 16.081054,8.895508 1.5,1.5 0 0 1 16.755859,7.019531 7,7 0 0 0 14.980469,5.244141 1.5,1.5 0 0 1 13.104492,5.918946 1.5,1.5 0 0 1 12.255859,4.115235 7,7 0 0 0 11,4 Z" /><circle
     style="fill:#3c4862;fill-opacity:1;stroke-width:0.500001"
     id="path686"
     cx="11"
     cy="11"
     r="3" /></svg>
