<?xml version="1.0" encoding="UTF-8" standalone="no"?>
<!-- Created with Inkscape (http://www.inkscape.org/) -->

<svg
   width="16"
   height="16"
   viewBox="0 0 16 16"
   version="1.1"
   id="svg5"
   inkscape:version="1.3 (0e150ed6c4, 2023-07-21)"
   sodipodi:docname="airplane-mode-disabled-symbolic.svg"
   xmlns:inkscape="http://www.inkscape.org/namespaces/inkscape"
   xmlns:sodipodi="http://sodipodi.sourceforge.net/DTD/sodipodi-0.dtd"
   xmlns="http://www.w3.org/2000/svg"
   xmlns:svg="http://www.w3.org/2000/svg">
  <sodipodi:namedview
     id="namedview7"
     pagecolor="#ffffff"
     bordercolor="#000000"
     borderopacity="0.25"
     inkscape:showpageshadow="2"
     inkscape:pageopacity="0.0"
     inkscape:pagecheckerboard="0"
     inkscape:deskcolor="#d1d1d1"
     inkscape:document-units="px"
     showgrid="false"
     showguides="true"
     inkscape:zoom="48.9375"
     inkscape:cx="7.9897829"
     inkscape:cy="8"
     inkscape:window-width="1920"
     inkscape:window-height="984"
     inkscape:window-x="0"
     inkscape:window-y="29"
     inkscape:window-maximized="1"
     inkscape:current-layer="svg5" />
  <defs
     id="defs2" />
  <path
     id="path1194"
     style="fill:#dfdfdf;fill-opacity:1;opacity:0.35"
     d="M 1.9902344 0.98828125 C 1.7346161 0.98828125 1.4790711 1.0873345 1.2832031 1.2832031 C 0.8914671 1.674939 0.8914671 2.3055296 1.2832031 2.6972656 L 5.5859375 7 L 3.0898438 7 L 1.8710938 5.2207031 C 1.731094 5.0107035 1.7512496 5 1.53125 5 L 1.3105469 5 C 0.88057773 5 1.03125 5.4296875 1.03125 5.4296875 L 1.3105469 8 L 1.03125 10.560547 C 1.03125 10.560547 0.89128081 11 1.28125 11 L 1.53125 11 C 1.7412496 11 1.731094 10.989297 1.8710938 10.779297 L 3.0898438 9 L 7.5859375 9 L 7.5898438 9.0039062 L 5.9707031 13.929688 C 5.7007037 14.979684 5.7000016 15 6.5 15 C 6.9299992 15 6.9307037 14.98 7.2207031 14.5 L 9.5722656 10.986328 L 13.302734 14.716797 C 13.694471 15.108533 14.32506 15.108533 14.716797 14.716797 C 15.108531 14.325061 15.108531 13.694469 14.716797 13.302734 L 2.6972656 1.2832031 C 2.5013976 1.0873351 2.2458528 0.98828125 1.9902344 0.98828125 z M 6.5 1 C 5.7000016 1 5.7207037 1.0292989 5.9707031 2.0292969 L 6.2363281 2.84375 L 12.392578 9 L 14 9 C 14.549998 9 15 8.549999 15 8 C 15 7.4400012 14.549998 7 14 7 L 10.900391 7 L 7.2207031 1.5 C 6.9507037 1.040001 6.9305461 1 6.5605469 1 L 6.5 1 z " />
</svg>
