<?xml version="1.0" encoding="UTF-8" standalone="no"?>
<!-- Created with Inkscape (http://www.inkscape.org/) -->

<svg
   width="16"
   height="16"
   viewBox="0 0 16 16.000001"
   version="1.1"
   id="svg5"
   sodipodi:docname="battery-level-10-charging-symbolic.svg"
   inkscape:version="1.2.2 (1:1.2.2+202305151914+b0a8486541)"
   xmlns:inkscape="http://www.inkscape.org/namespaces/inkscape"
   xmlns:sodipodi="http://sodipodi.sourceforge.net/DTD/sodipodi-0.dtd"
   xmlns="http://www.w3.org/2000/svg"
   xmlns:svg="http://www.w3.org/2000/svg">
  <sodipodi:namedview
     id="namedview7"
     pagecolor="#ffffff"
     bordercolor="#000000"
     borderopacity="0.25"
     inkscape:showpageshadow="2"
     inkscape:pageopacity="0.0"
     inkscape:pagecheckerboard="0"
     inkscape:deskcolor="#d1d1d1"
     inkscape:document-units="px"
     showgrid="false"
     inkscape:zoom="50.375"
     inkscape:cx="8"
     inkscape:cy="8"
     inkscape:window-width="1920"
     inkscape:window-height="1008"
     inkscape:window-x="0"
     inkscape:window-y="0"
     inkscape:window-maximized="1"
     inkscape:current-layer="svg5"
     showguides="false" />
  <defs
     id="defs2" />
  <path
     id="rect788"
     style="fill:#dfdfdf;stroke-width:3;stroke-linecap:round;stroke-linejoin:round;fill-opacity:1;opacity:0.3"
     d="M 6 1 L 6 2 L 5 2 C 4.4460012 2 4 2.4460012 4 3 L 4 14 C 4 14.553998 4.4460012 15 5 15 L 11 15 C 11.553998 15 12 14.553998 12 14 L 12 3 C 12 2.4460012 11.553998 2 11 2 L 10 2 L 10 1 L 6 1 z M 8 4 L 8 7 L 10 7 L 8 12 L 8 9 L 6 9 L 8 4 z " />
  <path
     id="rect900"
     style="fill:#dfdfdf;stroke-width:3;stroke-linecap:round;stroke-linejoin:round;fill-opacity:1"
     d="M 4 13 L 4 14 C 4 14.553991 4.4460054 15 5 15 L 11 15 C 11.553991 15 12 14.553991 12 14 L 12 13 L 4 13 z " />
</svg>
