<?xml version="1.0" encoding="UTF-8" standalone="no"?>
<!-- Created with Inkscape (http://www.inkscape.org/) -->

<svg
   width="16"
   height="16"
   viewBox="0 0 16 16"
   version="1.1"
   id="svg5"
   inkscape:version="1.3 (0e150ed6c4, 2023-07-21)"
   sodipodi:docname="network-wireless-secure-signal-excellent-symbolic.svg"
   xmlns:inkscape="http://www.inkscape.org/namespaces/inkscape"
   xmlns:sodipodi="http://sodipodi.sourceforge.net/DTD/sodipodi-0.dtd"
   xmlns="http://www.w3.org/2000/svg"
   xmlns:svg="http://www.w3.org/2000/svg">
  <sodipodi:namedview
     id="namedview7"
     pagecolor="#ffffff"
     bordercolor="#000000"
     borderopacity="0.25"
     inkscape:showpageshadow="2"
     inkscape:pageopacity="0.0"
     inkscape:pagecheckerboard="0"
     inkscape:deskcolor="#d1d1d1"
     inkscape:document-units="px"
     showgrid="false"
     inkscape:zoom="48.9375"
     inkscape:cx="7.9897829"
     inkscape:cy="8"
     inkscape:window-width="1920"
     inkscape:window-height="984"
     inkscape:window-x="0"
     inkscape:window-y="29"
     inkscape:window-maximized="1"
     inkscape:current-layer="svg5" />
  <defs
     id="defs2" />
  <path
     id="path840"
     style="fill:#dfdfdf;fill-opacity:1;stroke-width:2.25;stroke-linecap:round;stroke-linejoin:round;opacity:1"
     d="M 8 2.0058594 C 5.438696 2.0058595 2.8781116 2.9812633 0.9296875 4.9296875 C 0.53926517 5.3201933 0.53926517 5.9532442 0.9296875 6.34375 C 1.3201933 6.7341724 1.9532442 6.7341724 2.34375 6.34375 C 5.4763041 3.2111958 10.523695 3.211196 13.65625 6.34375 C 14.046757 6.7341721 14.679808 6.7341721 15.070312 6.34375 C 15.460736 5.9532442 15.460736 5.3201933 15.070312 4.9296875 C 13.121888 2.9812634 10.561302 2.0058593 8 2.0058594 z M 8 6.0058594 C 6.4623798 6.0058594 4.9251917 6.5904333 3.7578125 7.7578125 C 3.3673901 8.1483183 3.3673901 8.7813692 3.7578125 9.171875 C 4.1483183 9.5622974 4.7813692 9.5622974 5.171875 9.171875 C 6.7034067 7.6403433 9.1328995 7.6029976 10.708984 9.0585938 C 11.144723 8.544366 11.751937 8.1815707 12.443359 8.0527344 C 12.395057 7.9460093 12.329908 7.8455516 12.242188 7.7578125 C 11.074807 6.5904334 9.5376202 6.0058593 8 6.0058594 z M 8 10 C 7.1715745 10 6.5 10.671575 6.5 11.5 C 6.5 12.328425 7.1715745 13 8 13 C 8.8284255 13 9.5 12.328425 9.5 11.5 C 9.5 10.671575 8.8284255 10 8 10 z " />
  <path
     d="M 13,8.9999999 C 11.892,8.9999999 11,9.91 11,11.031 V 12 h -1 v 4 h 6 V 12 H 15 V 11.031 C 15,9.911 14.108,8.9999999 13,8.9999999 Z m 0,0.9999997 c 0.554,0 1,0.4420014 1,1.0000004 v 1 h -2 v -1 c 0,-0.557999 0.446,-1.0000004 1,-1.0000004 z"
     id="path2053"
     style="fill:#dfdfdf;fill-opacity:1;opacity:1" />
</svg>
