<?xml version="1.0" encoding="UTF-8" standalone="no"?>
<!-- Created with Inkscape (http://www.inkscape.org/) -->

<svg
   width="16"
   height="16"
   viewBox="0 0 16 16"
   version="1.1"
   id="svg5"
   inkscape:version="1.2 (1:1.2.1+202207142221+cd75a1ee6d)"
   sodipodi:docname="network-cellular-signal-none-symbolic.svg"
   xmlns:inkscape="http://www.inkscape.org/namespaces/inkscape"
   xmlns:sodipodi="http://sodipodi.sourceforge.net/DTD/sodipodi-0.dtd"
   xmlns="http://www.w3.org/2000/svg"
   xmlns:svg="http://www.w3.org/2000/svg">
  <sodipodi:namedview
     id="namedview7"
     pagecolor="#ffffff"
     bordercolor="#000000"
     borderopacity="0.25"
     inkscape:showpageshadow="2"
     inkscape:pageopacity="0.0"
     inkscape:pagecheckerboard="0"
     inkscape:deskcolor="#d1d1d1"
     inkscape:document-units="px"
     showgrid="false"
     inkscape:zoom="51.5625"
     inkscape:cx="7.990303"
     inkscape:cy="8"
     inkscape:window-width="1920"
     inkscape:window-height="1018"
     inkscape:window-x="0"
     inkscape:window-y="28"
     inkscape:window-maximized="1"
     inkscape:current-layer="svg5" />
  <defs
     id="defs2" />
  <path
     id="rect788"
     style="fill:#dfdfdf;stroke-width:3;stroke-linecap:round;stroke-linejoin:round;opacity:0.2"
     d="M 14 2 C 13.446004 2 13 2.4460024 13 3 L 13 14 C 13 14.553996 13.446004 15 14 15 C 14.553996 15 15 14.553996 15 14 L 15 3 C 15 2.4460024 14.553996 2 14 2 z M 10 5 C 9.4460028 5 9 5.4460024 9 6 L 9 14 C 9 14.553996 9.4460028 15 10 15 C 10.553996 15 11 14.553996 11 14 L 11 6 C 11 5.4460024 10.553996 5 10 5 z M 6 8 C 5.4460018 8 5 8.4460018 5 9 L 5 14 C 5 14.553997 5.4460018 15 6 15 C 6.5539982 15 7 14.553997 7 14 L 7 9 C 7 8.4460018 6.5539982 8 6 8 z M 2 11 C 1.4460012 11 1 11.446002 1 12 L 1 14 C 1 14.553998 1.4460012 15 2 15 C 2.5539988 15 3 14.553998 3 14 L 3 12 C 3 11.446002 2.5539988 11 2 11 z " />
</svg>
