<?xml version="1.0" encoding="UTF-8" standalone="no"?>
<!-- Created with Inkscape (http://www.inkscape.org/) -->

<svg
   width="16"
   height="16"
   viewBox="0 0 16 16"
   version="1.1"
   id="svg5"
   inkscape:version="1.3 (0e150ed6c4, 2023-07-21)"
   sodipodi:docname="network-wired-secure-symbolic.svg"
   xmlns:inkscape="http://www.inkscape.org/namespaces/inkscape"
   xmlns:sodipodi="http://sodipodi.sourceforge.net/DTD/sodipodi-0.dtd"
   xmlns="http://www.w3.org/2000/svg"
   xmlns:svg="http://www.w3.org/2000/svg">
  <sodipodi:namedview
     id="namedview7"
     pagecolor="#ffffff"
     bordercolor="#000000"
     borderopacity="0.25"
     inkscape:showpageshadow="2"
     inkscape:pageopacity="0.0"
     inkscape:pagecheckerboard="0"
     inkscape:deskcolor="#d1d1d1"
     inkscape:document-units="px"
     showgrid="false"
     inkscape:zoom="48.9375"
     inkscape:cx="7.9897829"
     inkscape:cy="8"
     inkscape:window-width="1920"
     inkscape:window-height="984"
     inkscape:window-x="0"
     inkscape:window-y="29"
     inkscape:window-maximized="1"
     inkscape:current-layer="svg5" />
  <defs
     id="defs2" />
  <path
     id="rect1208"
     style="opacity:1;fill:#dfdfdf;stroke-width:3;stroke-linecap:round;stroke-linejoin:round;fill-opacity:1"
     d="M 4.2441406 3.7558594 C 3.9885195 3.755856 3.7329634 3.8549002 3.5371094 4.0507812 L 0.29296875 7.2929688 C -0.098739326 7.684731 -0.098739326 8.3152692 0.29296875 8.7070312 L 3.5371094 11.949219 C 3.9288164 12.340977 4.5594379 12.340951 4.9511719 11.949219 C 5.3429078 11.557483 5.3428728 10.926928 4.9511719 10.535156 L 2.4160156 8 L 4.9511719 5.4648438 C 5.3428718 5.0730736 5.3429068 4.4425164 4.9511719 4.0507812 C 4.7553044 3.8549139 4.4997622 3.7558628 4.2441406 3.7558594 z M 11.757812 3.7558594 C 11.502194 3.7558628 11.24665 3.8549138 11.050781 4.0507812 C 10.659049 4.4425164 10.659084 5.0730736 11.050781 5.4648438 L 13.585938 8 L 16 8 C 16 7.7444257 15.902886 7.4888499 15.707031 7.2929688 L 12.464844 4.0507812 C 12.268989 3.8549002 12.013435 3.755856 11.757812 3.7558594 z M 6 7 C 5.446003 7 5 7.446003 5 8 C 5 8.553997 5.446003 9 6 9 L 10 9 C 10.553995 9 11 8.553997 11 8 C 11 7.446003 10.553995 7 10 7 L 6 7 z " />
  <path
     d="M 13,8.9999999 C 11.892,8.9999999 11,9.91 11,11.031 V 12 H 9.9999996 v 4 H 16 V 12 H 15 V 11.031 C 15,9.911 14.108,8.9999999 13,8.9999999 Z m 0,0.9999997 c 0.554,0 1,0.4420014 1,1.0000004 v 1 h -2 v -1 c 0,-0.557999 0.446,-1.0000004 1,-1.0000004 z"
     id="path2053"
     style="fill:#dfdfdf;fill-opacity:1" />
</svg>
