<?xml version="1.0" encoding="UTF-8" standalone="no"?>
<!-- Created with Inkscape (http://www.inkscape.org/) -->

<svg
   width="16"
   height="16"
   viewBox="0 0 16 16"
   version="1.1"
   id="svg5"
   inkscape:version="1.3 (0e150ed6c4, 2023-07-21)"
   sodipodi:docname="network-wireless-secure-signal-ok-symbolic.svg"
   xmlns:inkscape="http://www.inkscape.org/namespaces/inkscape"
   xmlns:sodipodi="http://sodipodi.sourceforge.net/DTD/sodipodi-0.dtd"
   xmlns="http://www.w3.org/2000/svg"
   xmlns:svg="http://www.w3.org/2000/svg">
  <sodipodi:namedview
     id="namedview7"
     pagecolor="#ffffff"
     bordercolor="#000000"
     borderopacity="0.25"
     inkscape:showpageshadow="2"
     inkscape:pageopacity="0.0"
     inkscape:pagecheckerboard="0"
     inkscape:deskcolor="#d1d1d1"
     inkscape:document-units="px"
     showgrid="false"
     inkscape:zoom="48.9375"
     inkscape:cx="7.9897829"
     inkscape:cy="8"
     inkscape:window-width="1920"
     inkscape:window-height="984"
     inkscape:window-x="0"
     inkscape:window-y="29"
     inkscape:window-maximized="1"
     inkscape:current-layer="svg5" />
  <defs
     id="defs2" />
  <path
     id="path840"
     style="fill:#dfdfdf;fill-opacity:1;stroke-width:2.25;stroke-linecap:round;stroke-linejoin:round"
     d="M 8,10 C 7.1715729,10 6.5,10.671573 6.5,11.5 6.5,12.328427 7.1715729,13 8,13 8.8284271,13 9.5,12.328427 9.5,11.5 9.5,10.671573 8.8284271,10 8,10 Z"
     sodipodi:nodetypes="sssss" />
  <path
     id="path1186"
     style="fill:#dfdfdf;fill-opacity:1;stroke-width:2.25;stroke-linecap:round;stroke-linejoin:round;opacity:0.2"
     d="M 8 2.0058594 C 5.4386934 2.0058595 2.8781135 2.9812614 0.9296875 4.9296875 C 0.53926478 5.3201937 0.53926478 5.9532438 0.9296875 6.34375 C 1.3201937 6.7341728 1.9532438 6.7341728 2.34375 6.34375 C 5.4763072 3.2111927 10.523692 3.2111929 13.65625 6.34375 C 14.046757 6.7341725 14.679807 6.7341725 15.070312 6.34375 C 15.460736 5.9532438 15.460736 5.3201937 15.070312 4.9296875 C 13.121886 2.9812615 10.561305 2.0058593 8 2.0058594 z M 8 6.0058594 C 6.4623783 6.0058594 4.9251929 6.5904321 3.7578125 7.7578125 C 3.3673897 8.1483187 3.3673897 8.7813688 3.7578125 9.171875 C 4.1483187 9.5622978 4.7813688 9.5622978 5.171875 9.171875 C 6.7034083 7.6403417 9.1328982 7.6029961 10.708984 9.0585938 C 11.144723 8.544366 11.751937 8.1815707 12.443359 8.0527344 C 12.395057 7.9460093 12.329908 7.8455517 12.242188 7.7578125 C 11.074806 6.5904322 9.5376217 6.0058593 8 6.0058594 z " />
  <path
     d="M 13,8.9999999 C 11.892,8.9999999 11,9.91 11,11.031 V 12 h -1 v 4 h 6 V 12 H 15 V 11.031 C 15,9.911 14.108,8.9999999 13,8.9999999 Z m 0,0.9999997 c 0.554,0 1,0.4420014 1,1.0000004 v 1 h -2 v -1 c 0,-0.557999 0.446,-1.0000004 1,-1.0000004 z"
     id="path2053"
     style="fill:#dfdfdf;fill-opacity:1" />
</svg>
