<?xml version="1.0" encoding="UTF-8" standalone="no"?>
<!-- Created with Inkscape (http://www.inkscape.org/) -->

<svg
   width="22"
   height="22"
   viewBox="0 0 22 22"
   version="1.1"
   id="svg371"
   xml:space="preserve"
   inkscape:version="1.2.2 (1:1.2.2+202305151914+b0a8486541)"
   sodipodi:docname="application-x-plasma.svg"
   xmlns:inkscape="http://www.inkscape.org/namespaces/inkscape"
   xmlns:sodipodi="http://sodipodi.sourceforge.net/DTD/sodipodi-0.dtd"
   xmlns:xlink="http://www.w3.org/1999/xlink"
   xmlns="http://www.w3.org/2000/svg"
   xmlns:svg="http://www.w3.org/2000/svg"><sodipodi:namedview
     id="namedview373"
     pagecolor="#ffffff"
     bordercolor="#000000"
     borderopacity="0.25"
     inkscape:showpageshadow="2"
     inkscape:pageopacity="0.0"
     inkscape:pagecheckerboard="0"
     inkscape:deskcolor="#d1d1d1"
     inkscape:document-units="px"
     showgrid="false"
     inkscape:zoom="37.727273"
     inkscape:cx="11"
     inkscape:cy="11"
     inkscape:window-width="1920"
     inkscape:window-height="1008"
     inkscape:window-x="0"
     inkscape:window-y="0"
     inkscape:window-maximized="1"
     inkscape:current-layer="svg371"
     showguides="true" /><defs
     id="defs368"><linearGradient
       inkscape:collect="always"
       id="linearGradient3519"><stop
         style="stop-color:#e4e4e4;stop-opacity:1;"
         offset="0"
         id="stop3515" /><stop
         style="stop-color:#f1f1f1;stop-opacity:1;"
         offset="1"
         id="stop3517" /></linearGradient><linearGradient
       inkscape:collect="always"
       id="linearGradient933"><stop
         style="stop-color:#2092e9;stop-opacity:1;"
         offset="0"
         id="stop929" /><stop
         style="stop-color:#1ebee9;stop-opacity:1;"
         offset="1"
         id="stop931" /></linearGradient><linearGradient
       inkscape:collect="always"
       xlink:href="#linearGradient3519"
       id="linearGradient3040"
       x1="32"
       y1="62"
       x2="32"
       y2="2"
       gradientUnits="userSpaceOnUse"
       gradientTransform="matrix(0.33333333,0,0,0.33333333,0.3333333,0.3333333)" /><linearGradient
       inkscape:collect="always"
       xlink:href="#linearGradient933"
       id="linearGradient2290"
       x1="12"
       y1="22"
       x2="12"
       y2="2"
       gradientUnits="userSpaceOnUse"
       gradientTransform="translate(-1,-1)" /></defs><path
     d="M 1,11 C 1,3.5 3.5,1 11,1 18.5,1 21,3.5 21,11 21,18.5 18.5,21 11,21 3.5,21 1,18.5 1,11"
     style="fill:url(#linearGradient3040);fill-opacity:1;stroke-width:0.1"
     id="path311" /><path
     d="M 8,4 C 7.446,4 7,4.446 7,5 7,5.554 7.446,6 8,6 8.5539999,6 9,5.554 9,5 9,4.446 8.554,4 8,4 Z m 5,0 -2,2 3,3 -3,3 2,2 5,-5 M 5.5000001,9 c -0.8309941,0 -1.5,0.668994 -1.5,1.5 0,0.830994 0.6690059,1.5 1.5,1.5 0.8310059,0 1.5,-0.669006 1.5,-1.5 0,-0.831006 -0.6689941,-1.5 -1.5,-1.5 z M 9,14 c -1.108,0 -1.9999999,0.892 -1.9999999,2 0,1.108 0.8919999,2 1.9999999,2 1.108,0 2,-0.892 2,-2 0,-1.108 -0.892,-2 -2,-2 z"
     style="fill:url(#linearGradient2290);fill-opacity:1"
     id="path1901"
     sodipodi:nodetypes="sssssccccccssssssssss" /></svg>
