<?xml version="1.0" encoding="UTF-8" standalone="no"?>
<!-- Created with Inkscape (http://www.inkscape.org/) -->

<svg
   width="22"
   height="22"
   viewBox="0 0 22 22"
   version="1.1"
   id="svg371"
   xml:space="preserve"
   inkscape:version="1.2.2 (1:1.2.2+202305151914+b0a8486541)"
   sodipodi:docname="application-x-deb.svg"
   xmlns:inkscape="http://www.inkscape.org/namespaces/inkscape"
   xmlns:sodipodi="http://sodipodi.sourceforge.net/DTD/sodipodi-0.dtd"
   xmlns:xlink="http://www.w3.org/1999/xlink"
   xmlns="http://www.w3.org/2000/svg"
   xmlns:svg="http://www.w3.org/2000/svg"><sodipodi:namedview
     id="namedview373"
     pagecolor="#ffffff"
     bordercolor="#000000"
     borderopacity="0.25"
     inkscape:showpageshadow="2"
     inkscape:pageopacity="0.0"
     inkscape:pagecheckerboard="0"
     inkscape:deskcolor="#d1d1d1"
     inkscape:document-units="px"
     showgrid="false"
     inkscape:zoom="36.636364"
     inkscape:cx="11"
     inkscape:cy="11"
     inkscape:window-width="1920"
     inkscape:window-height="1008"
     inkscape:window-x="0"
     inkscape:window-y="0"
     inkscape:window-maximized="1"
     inkscape:current-layer="svg371"
     showguides="false" /><defs
     id="defs368"><linearGradient
       inkscape:collect="always"
       id="linearGradient919"><stop
         style="stop-color:#e5578f;stop-opacity:1;"
         offset="0"
         id="stop915" /><stop
         style="stop-color:#f181b0;stop-opacity:1;"
         offset="1"
         id="stop917" /></linearGradient><linearGradient
       inkscape:collect="always"
       xlink:href="#linearGradient919"
       id="linearGradient3040"
       x1="32"
       y1="62"
       x2="32"
       y2="2"
       gradientUnits="userSpaceOnUse"
       gradientTransform="matrix(0.33333335,0,0,0.33333335,0.3333333,0.3333333)" /></defs><path
     d="M 1,11 C 1,3.5 3.5,1 11,1 18.5,1 21,3.5 21,11 21,18.5 18.5,21 11,21 3.5,21 1,18.5 1,11"
     style="fill:url(#linearGradient3040);fill-opacity:1;stroke-width:0.1"
     id="path311" /><path
     d="m 3.0000002,7 v 7 h 2 C 6.4942377,14 8,12.728578 8,10.5 8,8.271422 6.4942377,7 5.0000002,7 Z M 9,7 v 7 h 4 v -1 h -3 v -2 h 3 V 10 H 10 V 8 h 3 V 7 Z m 5,0 v 7 h 3 c 1.104569,0 2,-0.895431 2,-2 -2.54e-4,-0.8514 -0.539489,-1.609307 -1.34375,-1.888672 C 17.878414,9.783127 17.998059,9.396319 18,9 18,7.895431 17.104569,7 16,7 Z M 4.0000002,8 h 1 c 1.0714299,0.204693 1.8950241,0.851395 2,2.5 -0.1049759,1.648604 -0.9285701,2.295306 -2,2.5 h -1 z M 15,8 h 1 c 0.552285,0 1,0.447716 1,1 0,0.552285 -0.447715,1 -1,1 h -1 z m 0,3 h 2 c 0.552285,0 1,0.447715 1,1 0,0.552285 -0.447715,1 -1,1 h -2 z"
     style="fill:#ffffff;stroke-width:1.87083;stroke-linecap:round;stroke-linejoin:round"
     id="path1572" /></svg>
