<?xml version="1.0" encoding="UTF-8" standalone="no"?>
<!-- Created with Inkscape (http://www.inkscape.org/) -->

<svg
   width="22"
   height="22"
   viewBox="0 0 22 22"
   version="1.1"
   id="svg371"
   xml:space="preserve"
   inkscape:version="1.2.2 (1:1.2.2+202305151914+b0a8486541)"
   sodipodi:docname="application-x-iso9660-appimage.svg"
   xmlns:inkscape="http://www.inkscape.org/namespaces/inkscape"
   xmlns:sodipodi="http://sodipodi.sourceforge.net/DTD/sodipodi-0.dtd"
   xmlns:xlink="http://www.w3.org/1999/xlink"
   xmlns="http://www.w3.org/2000/svg"
   xmlns:svg="http://www.w3.org/2000/svg"><sodipodi:namedview
     id="namedview373"
     pagecolor="#ffffff"
     bordercolor="#000000"
     borderopacity="0.25"
     inkscape:showpageshadow="2"
     inkscape:pageopacity="0.0"
     inkscape:pagecheckerboard="0"
     inkscape:deskcolor="#d1d1d1"
     inkscape:document-units="px"
     showgrid="false"
     inkscape:zoom="36.636364"
     inkscape:cx="10.986352"
     inkscape:cy="11"
     inkscape:window-width="1920"
     inkscape:window-height="1008"
     inkscape:window-x="0"
     inkscape:window-y="0"
     inkscape:window-maximized="1"
     inkscape:current-layer="svg371"
     showguides="true" /><defs
     id="defs368"><linearGradient
       inkscape:collect="always"
       xlink:href="#linearGradient3519"
       id="linearGradient3040"
       x1="32"
       y1="62"
       x2="32"
       y2="2"
       gradientUnits="userSpaceOnUse"
       gradientTransform="matrix(0.33333333,0,0,0.33333333,0.3333333,0.3333333)" /><linearGradient
       inkscape:collect="always"
       id="linearGradient3519"><stop
         style="stop-color:#e4e4e4;stop-opacity:1;"
         offset="0"
         id="stop3515" /><stop
         style="stop-color:#f1f1f1;stop-opacity:1;"
         offset="1"
         id="stop3517" /></linearGradient><linearGradient
       inkscape:collect="always"
       id="linearGradient3251"><stop
         style="stop-color:#1365de;stop-opacity:1;"
         offset="0"
         id="stop3247" /><stop
         style="stop-color:#1e87e9;stop-opacity:1;"
         offset="1"
         id="stop3249" /></linearGradient><linearGradient
       inkscape:collect="always"
       xlink:href="#linearGradient3251"
       id="linearGradient1452"
       x1="24"
       y1="46"
       x2="24"
       y2="2"
       gradientUnits="userSpaceOnUse"
       gradientTransform="matrix(0.5,0,0,0.5,-1,-1)" /></defs><path
     d="M 1,11 C 1,3.5 3.5,1 11,1 18.5,1 21,3.5 21,11 21,18.5 18.5,21 11,21 3.5,21 1,18.5 1,11"
     style="fill:url(#linearGradient3040);fill-opacity:1;stroke-width:0.1"
     id="path311"
     sodipodi:nodetypes="csssc" /><path
     id="path1179"
     style="fill:url(#linearGradient1452);fill-opacity:1;stroke-width:1.75;stroke-linecap:round;stroke-linejoin:round"
     d="M 10.125,4 C 9.640252,4 9.351569,4.401011 9.25,4.875 L 8.765625,7.130859 6.570312,6.421875 C 6.12045,6.241305 5.617374,6.322385 5.375,6.742187 L 4.5,8.257812 C 4.257626,8.677617 4.46061,9.12817 4.820312,9.453125 L 6.533203,11 4.820313,12.546875 C 4.460612,12.871831 4.257626,13.322383 4.500001,13.742188 L 5.375,15.257812 c 0.242374,0.419806 0.745451,0.500883 1.195312,0.320313 L 8.765625,14.869141 9.25,17.125 C 9.31856,17.604876 9.640252,18 10.125,18 h 1.75 c 0.48475,0 0.773431,-0.401012 0.875,-0.875 l 0.484375,-2.255859 2.195313,0.708984 c 0.44986,0.18057 0.952938,0.0995 1.195312,-0.320313 L 17.5,13.742188 c 0.242375,-0.419805 0.0394,-0.870357 -0.320312,-1.195313 L 15.466797,11 17.179688,9.453125 C 17.53939,9.12817 17.742376,8.677617 17.5,8.257812 L 16.625,6.742187 C 16.382626,6.322383 15.879549,6.241305 15.429688,6.421875 L 13.234375,7.130859 12.75,4.875 C 12.68144,4.395123 12.35975,4 11.875,4 Z"
     sodipodi:nodetypes="scccccccccccccsscccccccccccccss" /><path
     id="rect1147"
     style="fill:#d4e2fc;fill-opacity:1;stroke-width:1.10422;stroke-linecap:round"
     d="m 11,8 c 0.554,0 1,0.446 1,1 v 3 h 2 l -3,3 -3,-3 h 2 V 9 c 0,-0.554 0.446,-1 1,-1 z"
     sodipodi:nodetypes="sscccccss" /></svg>
