<?xml version="1.0" encoding="UTF-8" standalone="no"?>
<!-- Created with Inkscape (http://www.inkscape.org/) -->

<svg
   width="22"
   height="22"
   viewBox="0 0 22 22"
   version="1.1"
   id="svg371"
   xml:space="preserve"
   inkscape:version="1.2.2 (1:1.2.2+202305151914+b0a8486541)"
   sodipodi:docname="font-x-generic.svg"
   xmlns:inkscape="http://www.inkscape.org/namespaces/inkscape"
   xmlns:sodipodi="http://sodipodi.sourceforge.net/DTD/sodipodi-0.dtd"
   xmlns:xlink="http://www.w3.org/1999/xlink"
   xmlns="http://www.w3.org/2000/svg"
   xmlns:svg="http://www.w3.org/2000/svg"><sodipodi:namedview
     id="namedview373"
     pagecolor="#ffffff"
     bordercolor="#000000"
     borderopacity="0.25"
     inkscape:showpageshadow="2"
     inkscape:pageopacity="0.0"
     inkscape:pagecheckerboard="0"
     inkscape:deskcolor="#d1d1d1"
     inkscape:document-units="px"
     showgrid="false"
     inkscape:zoom="36.636364"
     inkscape:cx="11"
     inkscape:cy="11"
     inkscape:window-width="1920"
     inkscape:window-height="1008"
     inkscape:window-x="0"
     inkscape:window-y="0"
     inkscape:window-maximized="1"
     inkscape:current-layer="svg371"
     showguides="true" /><defs
     id="defs368"><linearGradient
       inkscape:collect="always"
       xlink:href="#linearGradient3519"
       id="linearGradient3040"
       x1="32"
       y1="62"
       x2="32"
       y2="2"
       gradientUnits="userSpaceOnUse"
       gradientTransform="matrix(0.33333335,0,0,0.33333335,0.3333333,0.3333333)" /><linearGradient
       inkscape:collect="always"
       id="linearGradient3519"><stop
         style="stop-color:#e4e4e4;stop-opacity:1;"
         offset="0"
         id="stop3515" /><stop
         style="stop-color:#f1f1f1;stop-opacity:1;"
         offset="1"
         id="stop3517" /></linearGradient></defs><path
     d="M 1,11 C 1,3.5 3.5,1 11,1 18.5,1 21,3.5 21,11 21,18.5 18.5,21 11,21 3.5,21 1,18.5 1,11"
     style="fill:url(#linearGradient3040);fill-opacity:1;stroke-width:0.1"
     id="path311" /><path
     d="M 7.306641,6.4296875 4,15.857422 h 1.367188 l 0.767578,-2.371094 h 3.75 l 0.769531,2.371094 h 1.378906 L 8.740234,6.4296875 Z M 7.998047,7.7324219 9.507813,12.353516 H 6.5 Z m 7.681641,0.9375 c -0.755206,0 -1.476348,0.1692719 -2.16211,0.5078125 l 0.326172,1.0156246 c 0.520831,-0.2430541 1.06771,-0.365234 1.640625,-0.365234 0.503471,0 0.886069,0.1041675 1.146484,0.3125 0.260416,0.208332 0.390625,0.512805 0.390625,0.912109 v 0.402344 c -1.432286,0.0087 -2.483943,0.213977 -3.152343,0.613281 -0.668401,0.390624 -1.001953,1.002608 -1.001953,1.835938 0,0.668401 0.187283,1.184246 0.560546,1.548828 C 13.809677,15.817707 14.343536,16 15.029297,16 15.975475,16 16.673613,15.643443 17.125,14.931641 v 0.925781 h 1.146484 v -4.935547 c 0,-0.729164 -0.234376,-1.2840725 -0.703125,-1.6660156 C 17.108292,8.8652357 16.478296,8.6699219 15.679688,8.6699219 Z m 1.341796,3.7109371 v 1.730469 c -0.477428,0.520832 -1.04232,0.78125 -1.693359,0.78125 -0.407985,0 -0.715496,-0.09115 -0.923828,-0.273437 -0.208333,-0.182291 -0.3125,-0.450739 -0.3125,-0.806641 0,-0.48611 0.234377,-0.842666 0.703125,-1.068359 0.468748,-0.225695 1.210941,-0.345922 2.226562,-0.363282 z"
     style="font-weight:500;font-size:13.3333px;font-family:'Noto Sans';-inkscape-font-specification:'SamsungOneKorean Semi-Bold';fill:#808080;stroke-width:1.96205;stroke-linecap:round;stroke-linejoin:round"
     id="path465" /></svg>
