<?xml version="1.0" encoding="UTF-8" standalone="no"?>
<!-- Created with Inkscape (http://www.inkscape.org/) -->

<svg
   width="22"
   height="22"
   viewBox="0 0 22 22"
   version="1.1"
   id="svg371"
   xml:space="preserve"
   inkscape:version="1.2.2 (1:1.2.2+202305151914+b0a8486541)"
   sodipodi:docname="text-x-po.svg"
   xmlns:inkscape="http://www.inkscape.org/namespaces/inkscape"
   xmlns:sodipodi="http://sodipodi.sourceforge.net/DTD/sodipodi-0.dtd"
   xmlns:xlink="http://www.w3.org/1999/xlink"
   xmlns="http://www.w3.org/2000/svg"
   xmlns:svg="http://www.w3.org/2000/svg"><sodipodi:namedview
     id="namedview373"
     pagecolor="#ffffff"
     bordercolor="#000000"
     borderopacity="0.25"
     inkscape:showpageshadow="2"
     inkscape:pageopacity="0.0"
     inkscape:pagecheckerboard="0"
     inkscape:deskcolor="#d1d1d1"
     inkscape:document-units="px"
     showgrid="false"
     inkscape:zoom="33.583333"
     inkscape:cx="11.672457"
     inkscape:cy="12"
     inkscape:window-width="1920"
     inkscape:window-height="1008"
     inkscape:window-x="0"
     inkscape:window-y="0"
     inkscape:window-maximized="1"
     inkscape:current-layer="svg371"
     showguides="true" /><defs
     id="defs368"><linearGradient
       inkscape:collect="always"
       xlink:href="#linearGradient3519"
       id="linearGradient3040"
       x1="32"
       y1="62"
       x2="32"
       y2="2"
       gradientUnits="userSpaceOnUse"
       gradientTransform="matrix(0.33333333,0,0,0.33333333,0.3333333,0.3333333)" /><linearGradient
       inkscape:collect="always"
       id="linearGradient3519"><stop
         style="stop-color:#e4e4e4;stop-opacity:1;"
         offset="0"
         id="stop3515" /><stop
         style="stop-color:#f1f1f1;stop-opacity:1;"
         offset="1"
         id="stop3517" /></linearGradient></defs><path
     d="M 1,11 C 1,3.5 3.5,1 11,1 18.5,1 21,3.5 21,11 21,18.5 18.5,21 11,21 3.5,21 1,18.5 1,11"
     style="fill:url(#linearGradient3040);fill-opacity:1;stroke-width:0.1"
     id="path311"
     sodipodi:nodetypes="csssc" /><rect
     style="fill:#61b6bb;fill-opacity:1;stroke-width:2.95579;stroke-linecap:round;stroke-linejoin:round"
     id="rect3300"
     width="8"
     height="8"
     x="10"
     y="10"
     ry="1" /><rect
     style="fill:#088d9c;fill-opacity:1;stroke-width:2.92594;stroke-linecap:round;stroke-linejoin:round"
     id="rect3298"
     width="8"
     height="8"
     x="4"
     y="4"
     ry="1" /><path
     d="m 14.999999,11 h 1 v 2 h 1 v 1 h -1 v 3 h -1 z M 11,12 h 2.999999 v 0.5 c 0,3.056844 -1.676793,3.314375 -2.999999,3.5 v -1 c 1.055979,-0.10782 2,-0.499762 2,-2 h -2 z"
     style="fill:#ffffff;fill-opacity:1;stroke-width:0.5;stroke-linecap:round;stroke-linejoin:round"
     id="path3112" /><path
     d="M 7.5,5 5,11 H 6 L 6.8339844,9 H 9.166016 L 10,11 h 1 L 8.5,5 Z M 8,6.1992188 8.75,8 h -1.5 z"
     style="fill:#ffffff;stroke-width:3;stroke-linecap:round;stroke-linejoin:round"
     id="path4400" /></svg>
