<?xml version="1.0" encoding="UTF-8" standalone="no"?>
<!-- Created with Inkscape (http://www.inkscape.org/) -->

<svg
   width="22"
   height="22"
   viewBox="0 0 22 22"
   version="1.1"
   id="svg371"
   xml:space="preserve"
   inkscape:version="1.2.2 (1:1.2.2+202305151914+b0a8486541)"
   sodipodi:docname="x-office-presentation.svg"
   xmlns:inkscape="http://www.inkscape.org/namespaces/inkscape"
   xmlns:sodipodi="http://sodipodi.sourceforge.net/DTD/sodipodi-0.dtd"
   xmlns:xlink="http://www.w3.org/1999/xlink"
   xmlns="http://www.w3.org/2000/svg"
   xmlns:svg="http://www.w3.org/2000/svg"><sodipodi:namedview
     id="namedview373"
     pagecolor="#ffffff"
     bordercolor="#000000"
     borderopacity="0.25"
     inkscape:showpageshadow="2"
     inkscape:pageopacity="0.0"
     inkscape:pagecheckerboard="0"
     inkscape:deskcolor="#d1d1d1"
     inkscape:document-units="px"
     showgrid="false"
     inkscape:zoom="36.636364"
     inkscape:cx="11"
     inkscape:cy="11"
     inkscape:window-width="1920"
     inkscape:window-height="1008"
     inkscape:window-x="0"
     inkscape:window-y="0"
     inkscape:window-maximized="1"
     inkscape:current-layer="svg371"
     showguides="true" /><defs
     id="defs368"><linearGradient
       inkscape:collect="always"
       xlink:href="#linearGradient1123"
       id="linearGradient3040"
       x1="32"
       y1="62"
       x2="32"
       y2="2"
       gradientUnits="userSpaceOnUse"
       gradientTransform="matrix(0.33333335,0,0,0.33333335,0.3333333,0.3333333)" /><linearGradient
       inkscape:collect="always"
       id="linearGradient1123"><stop
         style="stop-color:#fc6d09;stop-opacity:1;"
         offset="0"
         id="stop1119" /><stop
         style="stop-color:#fe9932;stop-opacity:1;"
         offset="1"
         id="stop1121" /></linearGradient></defs><path
     d="M 1,11 C 1,3.5 3.5,1 11,1 18.5,1 21,3.5 21,11 21,18.5 18.5,21 11,21 3.5,21 1,18.5 1,11"
     style="fill:url(#linearGradient3040);fill-opacity:1.0;stroke-width:0.1"
     id="path311" /><path
     id="rect509"
     style="fill:#ffffff;stroke-width:0.25;stroke-linecap:round;stroke-linejoin:round"
     d="M 12.5,6 C 12.223001,6 12,6.2230005 12,6.5 12,6.777 12.223001,7 12.5,7 h 5 C 17.776999,7 18,6.777 18,6.5 18,6.2230005 17.776999,6 17.5,6 Z m 0,3 C 12.223001,9 12,9.223001 12,9.5 12,9.777 12.223001,10 12.5,10 h 5 C 17.776999,10 18,9.777 18,9.5 18,9.223001 17.776999,9 17.5,9 Z m -8,3 C 4.2230005,12 4,12.223 4,12.5 4,12.777 4.2230005,13 4.5,13 h 13 C 17.776999,13 18,12.777 18,12.5 18,12.223 17.776999,12 17.5,12 Z m 0,3 C 4.2230005,15 4,15.223 4,15.5 4,15.776999 4.2230005,16 4.5,16 H 11 c 0.277,0 0.5,-0.223001 0.5,-0.5 C 11.5,15.223 11.277,15 11,15 Z"
     sodipodi:nodetypes="ssssssssssssssssssssssssssss" /><path
     id="path290"
     style="fill:#fec999;fill-opacity:1;stroke-width:0.75;stroke-linecap:round"
     d="M 7,5 A 3,3 0 0 0 4,8 3,3 0 0 0 7,11 3,3 0 0 0 10,8 H 7 Z" /></svg>
