<?xml version="1.0" encoding="UTF-8" standalone="no"?>
<!-- Created with Inkscape (http://www.inkscape.org/) -->

<svg
   width="16"
   height="16"
   viewBox="0 0 16 16"
   version="1.1"
   id="svg5"
   inkscape:version="1.3.2 (091e20ef0f, 2023-11-25, custom)"
   sodipodi:docname="input-keyboard-symbolic.svg"
   xmlns:inkscape="http://www.inkscape.org/namespaces/inkscape"
   xmlns:sodipodi="http://sodipodi.sourceforge.net/DTD/sodipodi-0.dtd"
   xmlns="http://www.w3.org/2000/svg"
   xmlns:svg="http://www.w3.org/2000/svg">
  <sodipodi:namedview
     id="namedview7"
     pagecolor="#ffffff"
     bordercolor="#000000"
     borderopacity="0.25"
     inkscape:showpageshadow="2"
     inkscape:pageopacity="0.0"
     inkscape:pagecheckerboard="0"
     inkscape:deskcolor="#d1d1d1"
     inkscape:document-units="px"
     showgrid="false"
     showguides="false"
     inkscape:zoom="49.6875"
     inkscape:cx="7.9899371"
     inkscape:cy="8"
     inkscape:window-width="1920"
     inkscape:window-height="1008"
     inkscape:window-x="0"
     inkscape:window-y="0"
     inkscape:window-maximized="1"
     inkscape:current-layer="svg5" />
  <defs
     id="defs2" />
  <path
     id="rect1"
     style="opacity:1;fill:#dfdfdf"
     d="M 2 2 C 0.89200111 2 0 2.8920011 0 4 L 0 12 C 0 13.107999 0.89200111 14 2 14 L 13 14 C 14.107999 14 15 13.107999 15 12 L 15 4 C 15 2.8920011 14.107999 2 13 2 L 2 2 z M 3 4 C 3.5522829 4 4 4.4477171 4 5 C 4 5.5522829 3.5522829 6 3 6 C 2.4477171 6 2 5.5522829 2 5 C 2 4.4477171 2.4477171 4 3 4 z M 6 4 C 6.5522829 4 7 4.4477171 7 5 C 7 5.5522829 6.5522829 6 6 6 C 5.4477171 6 5 5.5522829 5 5 C 5 4.4477171 5.4477171 4 6 4 z M 9 4 C 9.5522832 4 10 4.4477171 10 5 C 10 5.5522829 9.5522832 6 9 6 C 8.4477171 6 8 5.5522829 8 5 C 8 4.4477171 8.4477171 4 9 4 z M 12 4 C 12.552282 4 13 4.4477171 13 5 C 13 5.5522829 12.552282 6 12 6 C 11.447718 6.0000003 11 5.5522831 11 5 C 11 4.4477169 11.447718 3.9999997 12 4 z M 3 7 C 3.5522829 7 4 7.4477171 4 8 C 4 8.5522829 3.5522829 9 3 9 C 2.4477171 9 2 8.5522829 2 8 C 2 7.4477171 2.4477171 7 3 7 z M 6 7 C 6.5522829 7 7 7.4477171 7 8 C 7 8.5522829 6.5522829 9 6 9 C 5.4477171 9 5 8.5522829 5 8 C 5 7.4477171 5.4477171 7 6 7 z M 9 7 C 9.5522832 7 10 7.4477171 10 8 C 10 8.5522829 9.5522832 9 9 9 C 8.4477171 9 8 8.5522829 8 8 C 8 7.4477171 8.4477171 7 9 7 z M 12 7 C 12.552282 7 13 7.4477171 13 8 C 13 8.5522829 12.552282 9 12 9 C 11.447718 9 11 8.5522831 11 8 C 11 7.4477169 11.447718 6.9999997 12 7 z M 4 10 L 11 10 L 11 12 L 4 12 L 4 10 z " />
</svg>
