<?xml version="1.0" encoding="UTF-8" standalone="no"?>
<!-- Created with Inkscape (http://www.inkscape.org/) -->

<svg
   width="16"
   height="16"
   viewBox="0 0 16 16"
   version="1.1"
   id="svg371"
   xml:space="preserve"
   inkscape:version="1.2.2 (1:1.2.2+202212051552+b0a8486541)"
   sodipodi:docname="calendar-app-symbolic.svg"
   xmlns:inkscape="http://www.inkscape.org/namespaces/inkscape"
   xmlns:sodipodi="http://sodipodi.sourceforge.net/DTD/sodipodi-0.dtd"
   xmlns="http://www.w3.org/2000/svg"
   xmlns:svg="http://www.w3.org/2000/svg"><sodipodi:namedview
     id="namedview373"
     pagecolor="#ffffff"
     bordercolor="#000000"
     borderopacity="0.25"
     inkscape:showpageshadow="2"
     inkscape:pageopacity="0.0"
     inkscape:pagecheckerboard="0"
     inkscape:deskcolor="#d1d1d1"
     inkscape:document-units="px"
     showgrid="false"
     inkscape:zoom="50.625"
     inkscape:cx="8"
     inkscape:cy="8"
     inkscape:window-width="1920"
     inkscape:window-height="1012"
     inkscape:window-x="0"
     inkscape:window-y="0"
     inkscape:window-maximized="1"
     inkscape:current-layer="svg371"
     showguides="false" /><defs
     id="defs368" /><path
     id="rect471"
     style="fill:#363636;stroke-width:2;stroke-linecap:round;stroke-linejoin:round;fill-opacity:1"
     d="M 3 0 C 1.3380034 0 0 1.3380034 0 3 L 0 13 C 0 14.661996 1.3380034 16 3 16 L 13 16 C 14.661996 16 16 14.661996 16 13 L 16 3 C 16 1.3380034 14.661996 0 13 0 A 2 2 0 0 1 11 2 A 2 2 0 0 1 9 0 L 7 0 A 2 2 0 0 1 5 2 A 2 2 0 0 1 3 0 z M 4 7 A 1 1 0 0 1 5 8 A 1 1 0 0 1 4 9 A 1 1 0 0 1 3 8 A 1 1 0 0 1 4 7 z M 8 7 A 1 1 0 0 1 9 8 A 1 1 0 0 1 8 9 A 1 1 0 0 1 7 8 A 1 1 0 0 1 8 7 z M 12 7 A 1 1 0 0 1 13 8 A 1 1 0 0 1 12 9 A 1 1 0 0 1 11 8 A 1 1 0 0 1 12 7 z M 4 11 A 1 1 0 0 1 5 12 A 1 1 0 0 1 4 13 A 1 1 0 0 1 3 12 A 1 1 0 0 1 4 11 z M 8 11 A 1 1 0 0 1 9 12 A 1 1 0 0 1 8 13 A 1 1 0 0 1 7 12 A 1 1 0 0 1 8 11 z M 12 11 A 1 1 0 0 1 13 12 A 1 1 0 0 1 12 13 A 1 1 0 0 1 11 12 A 1 1 0 0 1 12 11 z " /></svg>
