<?xml version="1.0" encoding="UTF-8" standalone="no"?>
<!-- Created with Inkscape (http://www.inkscape.org/) -->

<svg
   width="16"
   height="16"
   viewBox="0 0 16 16.000001"
   version="1.1"
   id="svg5"
   inkscape:version="1.2.2 (1:1.2.2+202212051552+b0a8486541)"
   sodipodi:docname="gallary-app-symbolic.svg"
   xmlns:inkscape="http://www.inkscape.org/namespaces/inkscape"
   xmlns:sodipodi="http://sodipodi.sourceforge.net/DTD/sodipodi-0.dtd"
   xmlns="http://www.w3.org/2000/svg"
   xmlns:svg="http://www.w3.org/2000/svg">
  <sodipodi:namedview
     id="namedview7"
     pagecolor="#ffffff"
     bordercolor="#000000"
     borderopacity="0.25"
     inkscape:showpageshadow="2"
     inkscape:pageopacity="0.0"
     inkscape:pagecheckerboard="0"
     inkscape:deskcolor="#d1d1d1"
     inkscape:document-units="px"
     showgrid="false"
     inkscape:zoom="50.625"
     inkscape:cx="7.9901235"
     inkscape:cy="8"
     inkscape:window-width="1920"
     inkscape:window-height="1012"
     inkscape:window-x="0"
     inkscape:window-y="0"
     inkscape:window-maximized="1"
     inkscape:current-layer="svg5" />
  <defs
     id="defs2" />
  <path
     id="path1847"
     style="opacity:1;fill:#363636;fill-opacity:1;stroke-width:1.24511"
     d="M 7.4902344 0 C 6.1149323 0 4.8570545 1.1321468 5 2.5 C 5.0317147 2.8034802 5.0955468 3.1420656 5.1757812 3.4941406 C 4.9114978 3.249164 4.6488479 3.0265283 4.4023438 2.8476562 C 3.2892199 2.0399348 1.6798385 2.5628595 0.9921875 3.7539062 C 0.30453708 4.9449522 0.66438841 6.5816651 1.9121094 7.1601562 C 2.1826949 7.28561 2.5013434 7.4003464 2.8398438 7.5078125 C 2.5036741 7.6123451 2.1863999 7.7262099 1.9140625 7.8476562 C 0.65799332 8.4077891 0.3064894 10.062859 0.99414062 11.253906 C 1.6817916 12.444953 3.2794483 12.951467 4.4042969 12.160156 C 4.6484379 11.988407 4.9073798 11.770907 5.1699219 11.53125 C 5.0925395 11.87408 5.0309457 12.203878 5 12.5 C 4.8570545 13.867855 6.1149323 15 7.4902344 15 C 8.865536 15 10.103341 13.869804 9.9804688 12.5 C 9.9544386 12.209813 9.8977468 11.885021 9.8242188 11.546875 C 10.080799 11.78016 10.333517 11.992201 10.572266 12.160156 C 11.697113 12.951467 13.294772 12.444952 13.982422 11.253906 C 14.670073 10.062859 14.318569 8.4077886 13.0625 7.8476562 C 12.789898 7.7260918 12.473257 7.6124298 12.136719 7.5078125 C 12.475612 7.4002555 12.793591 7.2857382 13.064453 7.1601562 C 14.312173 6.5816653 14.672025 4.9449526 13.984375 3.7539062 C 13.296725 2.5628597 11.687342 2.0399354 10.574219 2.8476562 C 10.332472 3.0230763 10.077415 3.2411279 9.8183594 3.4804688 C 9.8949235 3.1323343 9.9537338 2.7980446 9.9804688 2.5 C 10.103341 1.1301978 8.865536 0 7.4902344 0 z M 7.5 6 A 1.5 1.5 0 0 1 9 7.5 A 1.5 1.5 0 0 1 7.5 9 A 1.5 1.5 0 0 1 6 7.5 A 1.5 1.5 0 0 1 7.5 6 z " />
</svg>
