<?xml version="1.0" encoding="UTF-8" standalone="no"?>
<!-- Created with Inkscape (http://www.inkscape.org/) -->

<svg
   width="16"
   height="16"
   viewBox="0 0 16 16.000001"
   version="1.1"
   id="svg5"
   inkscape:version="1.2.2 (1:1.2.2+202212051552+b0a8486541)"
   sodipodi:docname="org.gnome.Settings-applications-symbolic.svg"
   xmlns:inkscape="http://www.inkscape.org/namespaces/inkscape"
   xmlns:sodipodi="http://sodipodi.sourceforge.net/DTD/sodipodi-0.dtd"
   xmlns="http://www.w3.org/2000/svg"
   xmlns:svg="http://www.w3.org/2000/svg">
  <sodipodi:namedview
     id="namedview7"
     pagecolor="#ffffff"
     bordercolor="#000000"
     borderopacity="0.25"
     inkscape:showpageshadow="2"
     inkscape:pageopacity="0.0"
     inkscape:pagecheckerboard="0"
     inkscape:deskcolor="#d1d1d1"
     inkscape:document-units="px"
     showgrid="false"
     inkscape:zoom="50.625"
     inkscape:cx="7.9901235"
     inkscape:cy="8"
     inkscape:window-width="1920"
     inkscape:window-height="1012"
     inkscape:window-x="0"
     inkscape:window-y="0"
     inkscape:window-maximized="1"
     inkscape:current-layer="svg5" />
  <defs
     id="defs2" />
  <path
     id="path391"
     style="fill:#363636;stroke-width:1.75;fill-opacity:1"
     d="M 3.5 0 A 3.5 3.5 0 0 0 0 3.5 A 3.5 3.5 0 0 0 3.5 7 A 3.5 3.5 0 0 0 7 3.5 A 3.5 3.5 0 0 0 3.5 0 z M 12.5 0 A 3.5 3.5 0 0 0 9 3.5 A 3.5 3.5 0 0 0 12.5 7 A 3.5 3.5 0 0 0 16 3.5 A 3.5 3.5 0 0 0 12.5 0 z M 3.5 9 A 3.5 3.5 0 0 0 0 12.5 A 3.5 3.5 0 0 0 3.5 16 A 3.5 3.5 0 0 0 7 12.5 A 3.5 3.5 0 0 0 3.5 9 z M 12.5 9 A 3.5 3.5 0 0 0 9 12.5 A 3.5 3.5 0 0 0 12.5 16 A 3.5 3.5 0 0 0 16 12.5 A 3.5 3.5 0 0 0 12.5 9 z " />
</svg>
