<?xml version="1.0" encoding="UTF-8" standalone="no"?>
<!-- Created with Inkscape (http://www.inkscape.org/) -->

<svg
   width="16"
   height="16"
   viewBox="0 0 16 16.000001"
   version="1.1"
   id="svg5"
   inkscape:version="1.2.2 (1:1.2.2+202212051552+b0a8486541)"
   sodipodi:docname="org.gnome.Settings-about-symbolic.svg"
   xmlns:inkscape="http://www.inkscape.org/namespaces/inkscape"
   xmlns:sodipodi="http://sodipodi.sourceforge.net/DTD/sodipodi-0.dtd"
   xmlns="http://www.w3.org/2000/svg"
   xmlns:svg="http://www.w3.org/2000/svg">
  <sodipodi:namedview
     id="namedview7"
     pagecolor="#ffffff"
     bordercolor="#000000"
     borderopacity="0.25"
     inkscape:showpageshadow="2"
     inkscape:pageopacity="0.0"
     inkscape:pagecheckerboard="0"
     inkscape:deskcolor="#d1d1d1"
     inkscape:document-units="px"
     showgrid="false"
     inkscape:zoom="50.625"
     inkscape:cx="7.9901235"
     inkscape:cy="8"
     inkscape:window-width="1920"
     inkscape:window-height="1012"
     inkscape:window-x="0"
     inkscape:window-y="0"
     inkscape:window-maximized="1"
     inkscape:current-layer="svg5" />
  <defs
     id="defs2" />
  <path
     id="path896"
     style="fill:#363636;fill-opacity:1;stroke-width:17.2777;stroke-linecap:round;stroke-linejoin:round"
     d="M 8 0 C 3.5817305 0 0 3.5817305 0 8 C 0 12.41827 3.5817305 16 8 16 C 12.418269 16 16 12.41827 16 8 C 16 3.5817305 12.418269 0 8 0 z M 8 3 C 8.5522841 3 9 3.4477159 9 4 C 9 4.5522841 8.5522841 5 8 5 C 7.4477159 5 7 4.5522841 7 4 C 7 3.4477159 7.4477159 3 8 3 z M 6 6 L 8 6 C 8.5539994 6 9 6.4460006 9 7 L 9 12 C 9 12.553997 8.5539982 13 8 13 C 7.4460018 13 7 12.553997 7 12 L 7 8 L 6 8 C 5.4460006 8 5 7.5539994 5 7 C 5 6.4460006 5.4460006 6 6 6 z " />
</svg>
