<?xml version="1.0" encoding="UTF-8" standalone="no"?>
<!-- Created with Inkscape (http://www.inkscape.org/) -->

<svg
   width="16"
   height="16"
   viewBox="0 0 16 16"
   version="1.1"
   id="svg292"
   inkscape:version="1.2.2 (1:1.2.2+202212051552+b0a8486541)"
   sodipodi:docname="preferences-system-symbolic.svg"
   xmlns:inkscape="http://www.inkscape.org/namespaces/inkscape"
   xmlns:sodipodi="http://sodipodi.sourceforge.net/DTD/sodipodi-0.dtd"
   xmlns="http://www.w3.org/2000/svg"
   xmlns:svg="http://www.w3.org/2000/svg">
  <sodipodi:namedview
     id="namedview294"
     pagecolor="#ffffff"
     bordercolor="#000000"
     borderopacity="0.25"
     inkscape:showpageshadow="2"
     inkscape:pageopacity="0.0"
     inkscape:pagecheckerboard="0"
     inkscape:deskcolor="#d1d1d1"
     inkscape:document-units="px"
     showgrid="false"
     showguides="true"
     inkscape:zoom="50.625"
     inkscape:cx="8"
     inkscape:cy="8"
     inkscape:window-width="1920"
     inkscape:window-height="1012"
     inkscape:window-x="0"
     inkscape:window-y="0"
     inkscape:window-maximized="1"
     inkscape:current-layer="layer1" />
  <defs
     id="defs289" />
  <g
     inkscape:label="Layer 1"
     inkscape:groupmode="layer"
     id="layer1">
    <path
       id="rect465-6"
       style="fill:#363636;stroke-width:2;stroke-linecap:round;stroke-linejoin:round;fill-opacity:1"
       d="M 7 0 C 6.4460012 0 6.1160789 0.45829862 6 1 L 5.4472656 3.578125 L 2.9375 2.7675781 C 2.4233714 2.5612131 1.849265 2.6549885 1.5722656 3.1347656 L 0.57226562 4.8652344 C 0.29526618 5.3450114 0.52641228 5.8610439 0.9375 6.2324219 L 2.8945312 8 L 0.9375 9.7675781 C 0.52641182 10.138957 0.29526618 10.654988 0.57226562 11.134766 L 1.5722656 12.865234 C 1.849265 13.345012 2.423372 13.438787 2.9375 13.232422 L 5.4472656 12.421875 L 6 15 C 6.0783472 15.54843 6.4460012 16 7 16 L 9 16 C 9.5539988 16 9.883921 15.541701 10 15 L 10.552734 12.421875 L 13.0625 13.232422 C 13.576627 13.438787 14.150736 13.345012 14.427734 12.865234 L 15.427734 11.134766 C 15.704734 10.654988 15.473589 10.138957 15.0625 9.7675781 L 13.105469 8 L 15.0625 6.2324219 C 15.473589 5.8610439 15.704734 5.3450114 15.427734 4.8652344 L 14.427734 3.1347656 C 14.150736 2.6549885 13.576628 2.5612131 13.0625 2.7675781 L 10.552734 3.578125 L 10 1 C 9.9216532 0.4515691 9.5539988 0 9 0 L 7 0 z M 8 5 A 3 3 0 0 1 11 8 A 3 3 0 0 1 8 11 A 3 3 0 0 1 5 8 A 3 3 0 0 1 8 5 z " />
  </g>
</svg>
