<?xml version="1.0" encoding="UTF-8" standalone="no"?>
<!-- Created with Inkscape (http://www.inkscape.org/) -->

<svg
   width="16"
   height="16"
   viewBox="0 0 4.2333332 4.2333335"
   version="1.1"
   id="svg11945"
   inkscape:version="1.2.2 (1:1.2.2+202212051552+b0a8486541)"
   sodipodi:docname="preferences-desktop-theme-symbolic.svg"
   xmlns:inkscape="http://www.inkscape.org/namespaces/inkscape"
   xmlns:sodipodi="http://sodipodi.sourceforge.net/DTD/sodipodi-0.dtd"
   xmlns="http://www.w3.org/2000/svg"
   xmlns:svg="http://www.w3.org/2000/svg">
  <sodipodi:namedview
     id="namedview11947"
     pagecolor="#ffffff"
     bordercolor="#666666"
     borderopacity="1.0"
     inkscape:pageshadow="2"
     inkscape:pageopacity="0.0"
     inkscape:pagecheckerboard="0"
     inkscape:document-units="px"
     showgrid="false"
     units="in"
     inkscape:zoom="50.625"
     inkscape:cx="7.4271605"
     inkscape:cy="8"
     inkscape:window-width="1920"
     inkscape:window-height="1012"
     inkscape:window-x="0"
     inkscape:window-y="0"
     inkscape:window-maximized="1"
     inkscape:current-layer="svg11945"
     showguides="false"
     inkscape:showpageshadow="2"
     inkscape:deskcolor="#d1d1d1" />
  <defs
     id="defs11942" />
  <path
     id="path1079"
     style="fill:#363636;fill-opacity:1;stroke-width:5.00001;stroke-linecap:round;stroke-linejoin:round"
     d="M 10.504,0 C 8.5796577,0.00809951 7.5081738,0.98387982 5.0000001,1 3.9153587,0.93033249 3.3630128,0.9616571 2.7597656,0.55664061 2.4260904,0.35322691 1.9990762,0.59358681 2,0.98437501 V 4.0000001 H 14 V 0.99804691 C 14.000584,0.80056621 13.885243,0.62188501 13.705078,0.54101561 12.637352,0.07207971 12.501053,0.00890151 10.504,0 Z M 2,5.0000001 V 9.0000002 C 1.9994657,9.5919483 2.462541,9.8656354 3,10 l 2.7753906,0.7 c 0.8733362,0.221612 1.1877487,1.475644 0.8105469,1.885938 C 6.2108458,12.960943 6.0000805,13.469598 6,14 c 0,1.104569 0.8954304,2 2,2 1.1045696,0 2,-0.895431 2,-2 C 9.9999195,13.469598 9.7891542,12.960944 9.4140625,12.585938 9.0368607,12.175643 9.351274,10.921612 10.224609,10.7 L 13,10 C 13.537459,9.8656354 14.000534,9.5919483 14,9.0000002 V 5.0000001 Z"
     transform="scale(0.26458333)"
     sodipodi:nodetypes="cccccccccccccccsccccccc" />
</svg>
