<?xml version="1.0" encoding="UTF-8" standalone="no"?>
<!-- Created with Inkscape (http://www.inkscape.org/) -->

<svg
   width="16"
   height="16"
   viewBox="0 0 16 16.000001"
   version="1.1"
   id="svg5"
   inkscape:version="1.2.2 (1:1.2.2+202212051552+b0a8486541)"
   sodipodi:docname="terminal-app-symbolic.svg"
   xmlns:inkscape="http://www.inkscape.org/namespaces/inkscape"
   xmlns:sodipodi="http://sodipodi.sourceforge.net/DTD/sodipodi-0.dtd"
   xmlns="http://www.w3.org/2000/svg"
   xmlns:svg="http://www.w3.org/2000/svg">
  <sodipodi:namedview
     id="namedview7"
     pagecolor="#ffffff"
     bordercolor="#000000"
     borderopacity="0.25"
     inkscape:showpageshadow="2"
     inkscape:pageopacity="0.0"
     inkscape:pagecheckerboard="0"
     inkscape:deskcolor="#d1d1d1"
     inkscape:document-units="px"
     showgrid="false"
     inkscape:zoom="50.625"
     inkscape:cx="7.5851852"
     inkscape:cy="9.7185185"
     inkscape:window-width="1920"
     inkscape:window-height="1012"
     inkscape:window-x="0"
     inkscape:window-y="0"
     inkscape:window-maximized="1"
     inkscape:current-layer="svg5" />
  <defs
     id="defs2" />
  <path
     d="m 1.0009049,0.9999998 c -0.25561897,0 -0.51116197,0.09808 -0.70703097,0.293946 -0.391737,0.391737 -0.391737,1.022325 0,1.414062 L 5.3651634,7.7792968 0.29387393,12.850586 c -0.3917365,0.391736 -0.391737,1.022325 0,1.414062 0.3917375,0.391737 1.02232597,0.391737 1.41406247,0 l 5.77832,-5.7783202 c 0.391737,-0.391738 0.391737,-1.022325 0,-1.414063 l -5.77832,-5.778319 C 1.5120684,1.0980768 1.2565239,0.9999998 1.0009049,0.9999998 Z M 8,13 c -0.554,0 -1,0.446 -1,1 0,0.554 0.446,1 1,1 h 6.999929 c 0.554,0 1,-0.446 1,-1 0,-0.554 -0.446,-1 -1,-1 z"
     style="fill:#363636;fill-opacity:1;stroke:none;stroke-width:1;stroke-linecap:round;stroke-linejoin:round"
     id="path342"
     sodipodi:nodetypes="scscssccccssssssss" />
</svg>
