<?xml version="1.0" encoding="UTF-8" standalone="no"?>
<!-- Created with Inkscape (http://www.inkscape.org/) -->

<svg
   width="16"
   height="16"
   viewBox="0 0 16 16"
   version="1.1"
   id="svg5"
   inkscape:version="1.2.2 (1:1.2.2+202305151914+b0a8486541)"
   sodipodi:docname="folder-symbolic2.svg"
   xmlns:inkscape="http://www.inkscape.org/namespaces/inkscape"
   xmlns:sodipodi="http://sodipodi.sourceforge.net/DTD/sodipodi-0.dtd"
   xmlns="http://www.w3.org/2000/svg"
   xmlns:svg="http://www.w3.org/2000/svg">
  <sodipodi:namedview
     id="namedview7"
     pagecolor="#ffffff"
     bordercolor="#000000"
     borderopacity="0.25"
     inkscape:showpageshadow="2"
     inkscape:pageopacity="0.0"
     inkscape:pagecheckerboard="0"
     inkscape:deskcolor="#d1d1d1"
     inkscape:document-units="px"
     showgrid="false"
     inkscape:zoom="50.375"
     inkscape:cx="8"
     inkscape:cy="8"
     inkscape:window-width="1920"
     inkscape:window-height="1008"
     inkscape:window-x="0"
     inkscape:window-y="0"
     inkscape:window-maximized="1"
     inkscape:current-layer="svg5" />
  <defs
     id="defs2" />
  <path
     id="rect337"
     style="fill:#4d4d4d;stroke-linecap:round;stroke-linejoin:round"
     d="M 3,1 C 1.3380017,1 0,2.3380017 0,4 v 8 c 0,1.661998 1.3380017,3 3,3 h 10 c 1.661998,0 3,-1.338002 3,-3 V 6 C 16,4.3380017 14.661998,3 13,3 H 9 L 7.8483495,1.8662536 C 7.0951857,1.0526598 6.7536776,1.0050472 6,1 Z M 3,3 H 5.5 C 6.4845414,2.981887 6.6122982,3.032442 7.1779985,3.6619128 L 7.5736874,4.0666281 C 8.2612327,4.8069473 8.7032708,4.9916241 9.5,5 H 13 c 0.553999,0 1,0.4460006 1,1 v 6 c 0,0.553999 -0.446001,1 -1,1 H 3 C 2.4460006,13 2,12.553999 2,12 V 4 C 2,3.4460006 2.4460006,3 3,3 Z"
     sodipodi:nodetypes="sssssssscccssccccssssssss" />
</svg>
