<?xml version="1.0" encoding="UTF-8" standalone="no"?>
<!-- Created with Inkscape (http://www.inkscape.org/) -->

<svg
   width="16"
   height="16"
   viewBox="0 0 16 16"
   version="1.1"
   id="svg5"
   inkscape:version="1.2.2 (1:1.2.2+202305151914+b0a8486541)"
   sodipodi:docname="folder-music-symbolic.svg"
   xmlns:inkscape="http://www.inkscape.org/namespaces/inkscape"
   xmlns:sodipodi="http://sodipodi.sourceforge.net/DTD/sodipodi-0.dtd"
   xmlns="http://www.w3.org/2000/svg"
   xmlns:svg="http://www.w3.org/2000/svg">
  <sodipodi:namedview
     id="namedview7"
     pagecolor="#ffffff"
     bordercolor="#000000"
     borderopacity="0.25"
     inkscape:showpageshadow="2"
     inkscape:pageopacity="0.0"
     inkscape:pagecheckerboard="0"
     inkscape:deskcolor="#d1d1d1"
     inkscape:document-units="px"
     showgrid="false"
     inkscape:zoom="50.375"
     inkscape:cx="8"
     inkscape:cy="8"
     inkscape:window-width="1920"
     inkscape:window-height="1008"
     inkscape:window-x="0"
     inkscape:window-y="0"
     inkscape:window-maximized="1"
     inkscape:current-layer="svg5" />
  <defs
     id="defs2" />
  <path
     id="path517"
     style="fill:#4d4d4d;stroke-linecap:round;stroke-linejoin:round"
     d="M 8 0 C 7.4460006 0 7 0.44600055 7 1 L 7 8.5371094 A 4 4 0 0 0 5 8 A 4 4 0 0 0 1 12 A 4 4 0 0 0 5 16 A 4 4 0 0 0 9 12 L 9 2.0566406 C 11.320398 2.3210174 12.965978 3.5933162 13 7 C 13.0055 7.5522566 13.447716 8 14 8 C 14.552284 8 15 7.5522841 15 7 C 15 2.6866729 12.071984 0 9 0 L 8 0 z " />
</svg>
