<?xml version="1.0" encoding="UTF-8" standalone="no"?>
<!-- Created with Inkscape (http://www.inkscape.org/) -->

<svg
   width="16"
   height="16"
   viewBox="0 0 16 16"
   version="1.1"
   id="svg5"
   inkscape:version="1.2.2 (1:1.2.2+202305151914+b0a8486541)"
   sodipodi:docname="folder-symbolic.svg"
   xmlns:inkscape="http://www.inkscape.org/namespaces/inkscape"
   xmlns:sodipodi="http://sodipodi.sourceforge.net/DTD/sodipodi-0.dtd"
   xmlns="http://www.w3.org/2000/svg"
   xmlns:svg="http://www.w3.org/2000/svg">
  <sodipodi:namedview
     id="namedview7"
     pagecolor="#ffffff"
     bordercolor="#000000"
     borderopacity="0.25"
     inkscape:showpageshadow="2"
     inkscape:pageopacity="0.0"
     inkscape:pagecheckerboard="0"
     inkscape:deskcolor="#d1d1d1"
     inkscape:document-units="px"
     showgrid="false"
     inkscape:zoom="50.375"
     inkscape:cx="8"
     inkscape:cy="8"
     inkscape:window-width="1920"
     inkscape:window-height="1008"
     inkscape:window-x="0"
     inkscape:window-y="0"
     inkscape:window-maximized="1"
     inkscape:current-layer="svg5" />
  <defs
     id="defs2" />
  <path
     id="rect788"
     style="fill:#4d4d4d;stroke:none"
     d="M 2,1 C 0.89200111,1 0,1.8920011 0,3 v 10 c 0,1.107999 0.89200111,2 2,2 h 12 c 1.107999,0 2,-0.892001 2,-2 V 6 C 16,4.8920011 15.107999,4 14,4 H 9.5000968 L 7.6537518,1.6538377 C 7.081329,1.0377866 6.8098966,1 5.999914,1 Z M 2,2 H 5.999914 C 6.5507498,1.99717 6.6294415,2.1117072 6.91163,2.411716 L 8.5257421,4.5256454 C 8.9162782,4.9449177 9.1942766,5.002665 9.810086,5 H 14 c 0.673592,-0.00213 1.012178,0.3007595 1,1 v 7 c 0,0.553999 -0.446001,1 -1,1 H 2 C 1.4460006,14 1,13.553999 1,13 V 3 C 1,2.4460006 1.4460006,2 2,2 Z"
     sodipodi:nodetypes="sssssssscccssccccccssssss" />
</svg>
