<?xml version="1.0" encoding="UTF-8" standalone="no"?>
<!-- Created with Inkscape (http://www.inkscape.org/) -->

<svg
   width="32"
   height="32"
   viewBox="0 0 32 32"
   version="1.1"
   id="svg371"
   xml:space="preserve"
   inkscape:version="1.2.2 (1:1.2.2+202305151914+b0a8486541)"
   sodipodi:docname="folder-yellow-download.svg"
   xmlns:inkscape="http://www.inkscape.org/namespaces/inkscape"
   xmlns:sodipodi="http://sodipodi.sourceforge.net/DTD/sodipodi-0.dtd"
   xmlns:xlink="http://www.w3.org/1999/xlink"
   xmlns="http://www.w3.org/2000/svg"
   xmlns:svg="http://www.w3.org/2000/svg"><sodipodi:namedview
     id="namedview373"
     pagecolor="#ffffff"
     bordercolor="#000000"
     borderopacity="0.25"
     inkscape:showpageshadow="2"
     inkscape:pageopacity="0.0"
     inkscape:pagecheckerboard="0"
     inkscape:deskcolor="#d1d1d1"
     inkscape:document-units="px"
     showgrid="false"
     inkscape:zoom="25.1875"
     inkscape:cx="16.039702"
     inkscape:cy="16"
     inkscape:window-width="1920"
     inkscape:window-height="1008"
     inkscape:window-x="0"
     inkscape:window-y="0"
     inkscape:window-maximized="1"
     inkscape:current-layer="svg371"
     showguides="false" /><defs
     id="defs368"><linearGradient
       inkscape:collect="always"
       xlink:href="#linearGradient19728"
       id="linearGradient17867"
       x1="16"
       y1="31"
       x2="16"
       y2="1"
       gradientUnits="userSpaceOnUse" /><linearGradient
       inkscape:collect="always"
       id="linearGradient19728"><stop
         style="stop-color:#ff9b11;stop-opacity:1;"
         offset="0"
         id="stop19724" /><stop
         style="stop-color:#f9c100;stop-opacity:1;"
         offset="1"
         id="stop19726" /></linearGradient></defs><path
     d="M 1,16 C 1,4.75 4.75,1 16,1 27.25,1 31,4.75 31,16 31,27.25 27.25,31 16,31 4.75,31 1,27.25 1,16"
     style="fill:url(#linearGradient17867);fill-opacity:1.0;stroke-width:0.15"
     id="path311" /><path
     d="M 7.5,7 C 6.669,7 6,7.669 6,8.5 V 16 h 11 v -4 c -0.552285,0 -1,-0.447716 -1,-1 V 8.5 C 16,7.669 15.331,7 14.5,7 Z"
     style="opacity:1;fill:#ffea92;fill-opacity:1;stroke-width:2;stroke-linecap:round;stroke-linejoin:round"
     id="path294"
     sodipodi:nodetypes="sscccssss" /><rect
     style="fill:#ffffff;fill-opacity:1;stroke-width:0.71439;opacity:0.99"
     id="rect556"
     width="20"
     height="15"
     x="6"
     y="10"
     ry="2" /><path
     id="rect420"
     style="fill:#eaaa00;fill-opacity:1;stroke-linecap:round;stroke-linejoin:round"
     d="M 15.5,13 C 15.223,13 15,13.223 15,13.5 v 4.792969 l -1.974609,-1.97461 c -0.195869,-0.195867 -0.511163,-0.195867 -0.707032,0 -0.195867,0.195869 -0.195867,0.511163 0,0.707032 l 2.794922,2.792968 0.0332,0.03516 c 0.0113,0.0113 0.02282,0.02303 0.03516,0.0332 h 0.002 c 0.01196,0.0098 0.02426,0.01868 0.03711,0.02734 0.0015,9.93e-4 0.0024,0.0029 0.0039,0.0039 0.0119,0.0078 0.02452,0.01466 0.03711,0.02148 0.0069,0.0038 0.01441,0.0063 0.02148,0.0098 0.0097,0.0047 0.01921,0.0096 0.0293,0.01367 0.02946,0.01188 0.05983,0.02121 0.0918,0.02734 0.01452,0.0028 0.02997,0.0063 0.04492,0.0078 0.03247,0.0032 0.06517,0.0031 0.09766,0 0.01592,-0.0015 0.03308,-0.0048 0.04883,-0.0078 0.03197,-0.0061 0.06234,-0.01547 0.0918,-0.02734 0.01009,-0.0041 0.01955,-0.009 0.0293,-0.01367 0.02471,-0.0119 0.04809,-0.02538 0.07031,-0.04102 0.02353,-0.01656 0.04612,-0.03441 0.06641,-0.05469 0.0113,-0.0113 0.02303,-0.02282 0.0332,-0.03516 l 2.794922,-2.792968 c 0.195867,-0.195869 0.195867,-0.511163 0,-0.707032 -0.195869,-0.195867 -0.511163,-0.195867 -0.707032,0 L 16,18.292969 V 13.5 C 16,13.223 15.777,13 15.5,13 Z m -3,8 c -0.277,0 -0.5,0.223 -0.5,0.5 0,0.277 0.223,0.5 0.5,0.5 h 6 C 18.777,22 19,21.777 19,21.5 19,21.223 18.777,21 18.5,21 Z"
     sodipodi:nodetypes="ssccscccccccccsccccccssccsccsssssssss" /></svg>
