<?xml version="1.0" encoding="UTF-8" standalone="no"?>
<!-- Created with Inkscape (http://www.inkscape.org/) -->

<svg
   width="32"
   height="32"
   viewBox="0 0 32 32"
   version="1.1"
   id="svg371"
   xml:space="preserve"
   inkscape:version="1.2.2 (1:1.2.2+202305151914+b0a8486541)"
   sodipodi:docname="folder-default-development.svg"
   xmlns:inkscape="http://www.inkscape.org/namespaces/inkscape"
   xmlns:sodipodi="http://sodipodi.sourceforge.net/DTD/sodipodi-0.dtd"
   xmlns:xlink="http://www.w3.org/1999/xlink"
   xmlns="http://www.w3.org/2000/svg"
   xmlns:svg="http://www.w3.org/2000/svg"><sodipodi:namedview
     id="namedview373"
     pagecolor="#ffffff"
     bordercolor="#000000"
     borderopacity="0.25"
     inkscape:showpageshadow="2"
     inkscape:pageopacity="0.0"
     inkscape:pagecheckerboard="0"
     inkscape:deskcolor="#d1d1d1"
     inkscape:document-units="px"
     showgrid="false"
     inkscape:zoom="25.1875"
     inkscape:cx="16"
     inkscape:cy="16"
     inkscape:window-width="1920"
     inkscape:window-height="1008"
     inkscape:window-x="0"
     inkscape:window-y="0"
     inkscape:window-maximized="1"
     inkscape:current-layer="svg371"
     showguides="false" /><defs
     id="defs368"><linearGradient
       inkscape:collect="always"
       xlink:href="#linearGradient1836"
       id="linearGradient3251"
       x1="16"
       y1="31"
       x2="16"
       y2="1"
       gradientUnits="userSpaceOnUse" /><linearGradient
       inkscape:collect="always"
       id="linearGradient1836"><stop
         style="stop-color:#f69000;stop-opacity:1;"
         offset="0"
         id="stop1832" /><stop
         style="stop-color:#f9a900;stop-opacity:1;"
         offset="1"
         id="stop1834" /></linearGradient></defs><path
     d="M 1,16 C 1,4.75 4.75,1 16,1 27.25,1 31,4.75 31,16 31,27.25 27.25,31 16,31 4.75,31 1,27.25 1,16"
     style="fill:url(#linearGradient3251);fill-opacity:1;stroke-width:0.15"
     id="path311" /><path
     d="M 7.5,7 C 6.669,7 6,7.669 6,8.5 V 16 h 11 v -4 c -0.552285,0 -1,-0.447716 -1,-1 V 8.5 C 16,7.669 15.331,7 14.5,7 Z"
     style="opacity:1;fill:#ffdea2;fill-opacity:1;stroke-width:2;stroke-linecap:round;stroke-linejoin:round"
     id="path294"
     sodipodi:nodetypes="sscccssss" /><rect
     style="fill:#ffffff;fill-opacity:1;stroke-width:0.71439;opacity:0.99"
     id="rect556"
     width="20"
     height="15"
     x="6"
     y="10"
     ry="2" /><path
     id="path1179"
     style="fill:#e38300;fill-opacity:1;stroke-width:1.25;stroke-linecap:round;stroke-linejoin:round"
     d="m 15.375,13 c -0.346248,0 -0.552451,0.286437 -0.625,0.625 l -0.345703,1.611328 -1.568359,-0.505859 c -0.32133,-0.128978 -0.680393,-0.07134 -0.853516,0.228515 l -0.625,1.082032 c -0.173125,0.299859 -0.02842,0.621404 0.228516,0.853515 L 12.808594,18 11.585938,19.105469 c -0.256929,0.232111 -0.401641,0.553655 -0.228516,0.853515 l 0.625,1.082032 c 0.173123,0.299861 0.532187,0.357494 0.853516,0.228515 L 14.404297,20.763672 14.75,22.375 C 14.79897,22.717769 15.028752,23 15.375,23 h 1.25 c 0.34625,0 0.552451,-0.286437 0.625,-0.625 l 0.345703,-1.611328 1.568359,0.505859 c 0.321329,0.12898 0.680392,0.07135 0.853516,-0.228515 l 0.625,-1.082032 c 0.173125,-0.29986 0.02842,-0.621403 -0.228516,-0.853515 L 19.191406,18 20.414062,16.894531 c 0.25693,-0.232111 0.401641,-0.553656 0.228516,-0.853515 l -0.625,-1.082032 c -0.173124,-0.29986 -0.532187,-0.357493 -0.853516,-0.228515 L 17.595703,15.236328 17.25,13.625 C 17.20103,13.282231 16.97125,13 16.625,13 Z M 16,16 a 2,2 0 0 1 2,2 2,2 0 0 1 -2,2 2,2 0 0 1 -2,-2 2,2 0 0 1 2,-2 z" /></svg>
