<?xml version="1.0" encoding="UTF-8" standalone="no"?>
<!-- Created with Inkscape (http://www.inkscape.org/) -->

<svg
   width="32"
   height="32"
   viewBox="0 0 32 32"
   version="1.1"
   id="svg371"
   xml:space="preserve"
   inkscape:version="1.2.2 (1:1.2.2+202305151914+b0a8486541)"
   sodipodi:docname="user-trash-full.svg"
   xmlns:inkscape="http://www.inkscape.org/namespaces/inkscape"
   xmlns:sodipodi="http://sodipodi.sourceforge.net/DTD/sodipodi-0.dtd"
   xmlns:xlink="http://www.w3.org/1999/xlink"
   xmlns="http://www.w3.org/2000/svg"
   xmlns:svg="http://www.w3.org/2000/svg"><sodipodi:namedview
     id="namedview373"
     pagecolor="#ffffff"
     bordercolor="#000000"
     borderopacity="0.25"
     inkscape:showpageshadow="2"
     inkscape:pageopacity="0.0"
     inkscape:pagecheckerboard="0"
     inkscape:deskcolor="#d1d1d1"
     inkscape:document-units="px"
     showgrid="false"
     inkscape:zoom="25.1875"
     inkscape:cx="15.980149"
     inkscape:cy="16"
     inkscape:window-width="1920"
     inkscape:window-height="1008"
     inkscape:window-x="0"
     inkscape:window-y="0"
     inkscape:window-maximized="1"
     inkscape:current-layer="svg371"
     showguides="false" /><defs
     id="defs368"><linearGradient
       inkscape:collect="always"
       id="linearGradient2308"><stop
         style="stop-color:#b44859;stop-opacity:1;"
         offset="0"
         id="stop2304" /><stop
         style="stop-color:#b67d8a;stop-opacity:1;"
         offset="1"
         id="stop2306" /></linearGradient><linearGradient
       inkscape:collect="always"
       xlink:href="#linearGradient2308"
       id="linearGradient3251"
       x1="16"
       y1="31"
       x2="16"
       y2="1"
       gradientUnits="userSpaceOnUse" /></defs><path
     d="M 1,16 C 1,4.75 4.75,1 16,1 27.25,1 31,4.75 31,16 31,27.25 27.25,31 16,31 4.75,31 1,27.25 1,16"
     style="fill:url(#linearGradient3251);fill-opacity:1.0;stroke-width:0.15"
     id="path311" /><path
     id="rect292"
     style="fill:#ffffff;stroke-width:2;stroke-linecap:round"
     d="M 13 6 C 11.892004 6 11 6.8920042 11 8 L 11 10 L 8 10 C 7.4460012 10 7 10.446002 7 11 C 7 11.553998 7.4460012 12 8 12 L 24 12 C 24.553998 12 25 11.553998 25 11 C 25 10.446002 24.553998 10 24 10 L 21 10 L 21 8 C 21 6.8920042 20.107996 6 19 6 L 13 6 z M 13 8 L 19 8 L 19 10 L 13 10 L 13 8 z M 10 13 C 9.4460012 13 8.9448751 13.448751 9 14 L 10 24 C 10.11025 25.102499 10.892002 26 12 26 L 20 26 C 21.107998 26 21.88975 25.102499 22 24 L 23 14 C 23.05513 13.448751 22.553998 13 22 13 L 10 13 z " /><path
     id="rect536"
     style="fill:#a62c42;stroke-width:2;stroke-linecap:round;fill-opacity:1"
     d="M 12 15 C 11.446001 15 11 15.446001 11 16 L 11 23 C 11 23.553999 11.446001 24 12 24 C 12.553999 24 13 23.553999 13 23 L 13 16 C 13 15.446001 12.553999 15 12 15 z M 16 15 C 15.446001 15 15 15.446001 15 16 L 15 23 C 15 23.553999 15.446001 24 16 24 C 16.553999 24 17 23.553999 17 23 L 17 16 C 17 15.446001 16.553999 15 16 15 z M 20 15 C 19.446001 15 19 15.446001 19 16 L 19 23 C 19 23.553999 19.446001 24 20 24 C 20.553999 24 21 23.553999 21 23 L 21 16 C 21 15.446001 20.553999 15 20 15 z " /></svg>
