<?xml version="1.0" encoding="UTF-8" standalone="no"?>
<!-- Created with Inkscape (http://www.inkscape.org/) -->

<svg
   width="22"
   height="22"
   viewBox="0 0 22 22"
   version="1.1"
   id="svg371"
   xml:space="preserve"
   inkscape:version="1.3.2 (1:1.3.2+202311252150+091e20ef0f)"
   sodipodi:docname="preferences-desktop-theme-global.svg"
   xmlns:inkscape="http://www.inkscape.org/namespaces/inkscape"
   xmlns:sodipodi="http://sodipodi.sourceforge.net/DTD/sodipodi-0.dtd"
   xmlns="http://www.w3.org/2000/svg"
   xmlns:svg="http://www.w3.org/2000/svg"><sodipodi:namedview
     id="namedview373"
     pagecolor="#ffffff"
     bordercolor="#000000"
     borderopacity="0.25"
     inkscape:showpageshadow="2"
     inkscape:pageopacity="0.0"
     inkscape:pagecheckerboard="0"
     inkscape:deskcolor="#d1d1d1"
     inkscape:document-units="px"
     showgrid="false"
     inkscape:zoom="36.863636"
     inkscape:cx="11"
     inkscape:cy="11"
     inkscape:window-width="1920"
     inkscape:window-height="1008"
     inkscape:window-x="0"
     inkscape:window-y="0"
     inkscape:window-maximized="1"
     inkscape:current-layer="svg371"
     showguides="false"
     inkscape:lockguides="true" /><defs
     id="defs368" /><path
     d="M 1,11 C 1,3.5 3.5,1 11,1 18.5,1 21,3.5 21,11 21,18.5 18.5,21 11,21 3.5,21 1,18.5 1,11"
     style="fill:#c47bdf;fill-opacity:1;stroke-width:0.1"
     id="path311" /><path
     id="path1079"
     style="fill:#ffffff;fill-opacity:1;stroke-width:5.00001;stroke-linecap:round;stroke-linejoin:round"
     d="M 13.503906,5 C 11.579566,5.0081 10.508171,5.9838798 7.9999995,6 6.9153592,5.9303326 6.3630117,5.9616567 5.7597651,5.5566406 5.4260902,5.3532271 4.9990756,5.5935872 4.9999994,5.984375 V 9.0000001 H 17 V 5.9980469 C 17.000584,5.8005664 16.885243,5.6218849 16.705078,5.5410156 15.637353,5.0720802 15.500957,5.0089015 13.503906,5 Z m -8.5039066,5 v 2 c -5.343e-4,0.591948 0.4625416,0.865636 1,1 l 2.7753907,0.699219 c 0.8733357,0.221612 1.1877487,1.476425 0.8105467,1.886719 -0.375091,0.375004 -0.585857,0.883661 -0.585937,1.414062 0,1.104568 0.895431,2 2.0000002,2 1.104568,0 2,-0.895432 2,-2 -8.1e-5,-0.530401 -0.210846,-1.039057 -0.585938,-1.414062 -0.377201,-0.410295 -0.06279,-1.665107 0.810548,-1.886719 L 16,13 c 0.537459,-0.134364 1.000534,-0.408052 1,-1 v -2 z" /></svg>
