<?xml version="1.0" encoding="UTF-8" standalone="no"?>
<!-- Created with Inkscape (http://www.inkscape.org/) -->

<svg
   width="22"
   height="22"
   viewBox="0 0 22 22"
   version="1.1"
   id="svg371"
   xml:space="preserve"
   inkscape:version="1.3.2 (1:1.3.2+202311252150+091e20ef0f)"
   sodipodi:docname="preferences-system-network.svg"
   xmlns:inkscape="http://www.inkscape.org/namespaces/inkscape"
   xmlns:sodipodi="http://sodipodi.sourceforge.net/DTD/sodipodi-0.dtd"
   xmlns="http://www.w3.org/2000/svg"
   xmlns:svg="http://www.w3.org/2000/svg"><sodipodi:namedview
     id="namedview373"
     pagecolor="#ffffff"
     bordercolor="#000000"
     borderopacity="0.25"
     inkscape:showpageshadow="2"
     inkscape:pageopacity="0.0"
     inkscape:pagecheckerboard="0"
     inkscape:deskcolor="#d1d1d1"
     inkscape:document-units="px"
     showgrid="false"
     inkscape:zoom="36.863636"
     inkscape:cx="11"
     inkscape:cy="11"
     inkscape:window-width="1920"
     inkscape:window-height="1008"
     inkscape:window-x="0"
     inkscape:window-y="0"
     inkscape:window-maximized="1"
     inkscape:current-layer="svg371"
     showguides="false" /><defs
     id="defs368" /><path
     d="M 1,11 C 1,3.5 3.5,1 11,1 18.5,1 21,3.5 21,11 21,18.5 18.5,21 11,21 3.5,21 1,18.5 1,11"
     style="fill:#9e4edf;fill-opacity:1;stroke-width:0.1"
     id="path311" /><path
     id="path898"
     style="fill:#ffffff;stroke-width:2.62499;stroke-linecap:round;stroke-linejoin:round"
     d="M 10.999512,4 C 9.129743,4.0005735 7.3873772,4.7450275 6.1069337,5.9970705 A 9,4.25 20 0 0 2.5424804,7.921875 9,4.25 20 0 0 4.0629882,11.712891 6.999987,6.999987 0 0 0 10.999512,18 6.999987,6.999987 0 0 0 15.853027,16.008789 9,4.25 20 0 0 19.456543,14.078125 9,4.25 20 0 0 17.965332,10.311524 C 17.619413,6.768726 14.633155,4 10.999512,4 Z M 5.2104492,7.069336 C 4.8944122,7.535035 4.6301807,8.04292 4.4301757,8.587891 l 0.00293,0.002 a 6.999987,2.0999961 20 0 0 -0.010743,0.0166 6.999987,2.0999961 20 0 0 5.8593763,4.36621 6.999987,2.0999961 20 0 0 7.294921,0.420899 6.999987,2.0999961 20 0 0 0.0059,-0.01855 c 0.194327,-0.537476 0.320517,-1.096362 0.378906,-1.663086 A 8,3.25 20 0 1 18.51713,13.736378 8,3.25 20 0 1 9.888224,14.053761 8,3.25 20 0 1 3.4819731,8.263722 8,3.25 20 0 1 5.2104887,7.069386 Z" /></svg>
