<?xml version="1.0" encoding="UTF-8" standalone="no"?>
<!-- Created with Inkscape (http://www.inkscape.org/) -->

<svg
   width="24"
   height="24"
   viewBox="0 0 24 24"
   version="1.1"
   id="svg5"
   inkscape:version="1.2.2 (1:1.2.2+202305151914+b0a8486541)"
   sodipodi:docname="folder-open-recent.svg"
   xmlns:inkscape="http://www.inkscape.org/namespaces/inkscape"
   xmlns:sodipodi="http://sodipodi.sourceforge.net/DTD/sodipodi-0.dtd"
   xmlns="http://www.w3.org/2000/svg"
   xmlns:svg="http://www.w3.org/2000/svg">
  <sodipodi:namedview
     id="namedview7"
     pagecolor="#ffffff"
     bordercolor="#000000"
     borderopacity="0.25"
     inkscape:showpageshadow="2"
     inkscape:pageopacity="0.0"
     inkscape:pagecheckerboard="0"
     inkscape:deskcolor="#d1d1d1"
     inkscape:document-units="px"
     showgrid="false"
     inkscape:zoom="33.583333"
     inkscape:cx="11.985112"
     inkscape:cy="12"
     inkscape:window-width="1920"
     inkscape:window-height="1008"
     inkscape:window-x="0"
     inkscape:window-y="0"
     inkscape:window-maximized="1"
     inkscape:current-layer="svg5" />
  <defs
     id="defs2">
    <style
       id="current-color-scheme"
       type="text/css">
         .ColorScheme-Text { color:#4d4d4d; }
        </style>
  </defs>
  <path
     id="rect788"
     style="fill:currentColor;stroke:none"
     class="ColorScheme-Text"
     d="M 6,5 C 4.8920033,5 4,5.8920033 4,7 v 10 c 0,1.107997 0.8920033,2 2,2 h 6 V 18 H 6 C 5.4460018,18 5,17.553997 5,17 V 7 C 5,6.4460018 5.4460018,6 6,6 h 3.5 c 0.550834,-0.00283 0.629923,0.1121012 0.912109,0.4121094 l 1.613282,2.1132812 C 12.415925,8.9446621 12.694738,9.002665 13.310547,9 H 18 c 0.67359,-0.00213 1.012178,0.3007609 1,1 v 2 h 1 V 10 C 20,8.8920033 19.107997,7.999982 18,8 H 13 L 11.154297,5.6542969 C 10.581874,5.038247 10.309981,5 9.5,5 Z m 11,8 a 4,4 0 0 0 -4,4 4,4 0 0 0 4,4 4,4 0 0 0 4,-4 4,4 0 0 0 -4,-4 z m 0,1 c 1.65685,0 3,1.34315 3,3 0,1.65685 -1.34315,3 -3,3 -1.656849,0 -3,-1.34315 -3,-3 0,-1.65685 1.343151,-3 3,-3 z m -0.5,1 C 16.223001,15 16,15.223 16,15.5 v 2 c 0,0.277 0.223001,0.5 0.5,0.5 h 2 C 18.777,18 19,17.777 19,17.5 19,17.223 18.777,17 18.5,17 H 17 V 15.5 C 17,15.223 16.777,15 16.5,15 Z" />
</svg>
