<?xml version="1.0" encoding="UTF-8" standalone="no"?>
<svg
   viewbox="0 0 200 200"
   version="1.1"
   id="svg4"
   sodipodi:docname="dialog-warning.svg"
   width="64"
   height="64"
   inkscape:version="1.2.2 (1:1.2.2+202305151914+b0a8486541)"
   xmlns:inkscape="http://www.inkscape.org/namespaces/inkscape"
   xmlns:sodipodi="http://sodipodi.sourceforge.net/DTD/sodipodi-0.dtd"
   xmlns:xlink="http://www.w3.org/1999/xlink"
   xmlns="http://www.w3.org/2000/svg"
   xmlns:svg="http://www.w3.org/2000/svg">
  <defs
     id="defs8">
    <linearGradient
       inkscape:collect="always"
       id="linearGradient1836">
      <stop
         style="stop-color:#ff9b11;stop-opacity:1;"
         offset="0"
         id="stop1832" />
      <stop
         style="stop-color:#f9c100;stop-opacity:1;"
         offset="1"
         id="stop1834" />
    </linearGradient>
    <linearGradient
       inkscape:collect="always"
       xlink:href="#linearGradient1836"
       id="linearGradient1147"
       x1="16"
       y1="31"
       x2="16"
       y2="1"
       gradientUnits="userSpaceOnUse"
       gradientTransform="scale(2)" />
  </defs>
  <sodipodi:namedview
     id="namedview6"
     pagecolor="#ffffff"
     bordercolor="#666666"
     borderopacity="1.0"
     inkscape:pageshadow="2"
     inkscape:pageopacity="0.0"
     inkscape:pagecheckerboard="0"
     showgrid="false"
     inkscape:zoom="12.59375"
     inkscape:cx="32"
     inkscape:cy="32"
     inkscape:window-width="1920"
     inkscape:window-height="1008"
     inkscape:window-x="0"
     inkscape:window-y="0"
     inkscape:window-maximized="1"
     inkscape:current-layer="svg4"
     showguides="false"
     inkscape:showpageshadow="2"
     inkscape:deskcolor="#d1d1d1" />
  <path
     d="M 2,32 C 2,9.5 9.5,2 32,2 54.5,2 62,9.5 62,32 62,54.5 54.5,62 32,62 9.5,62 2,54.5 2,32"
     style="fill:url(#linearGradient1147);fill-opacity:1;stroke-width:0.3"
     id="path311" />
  <path
     id="rect850"
     style="fill:#ffffff;stroke-width:0.549794;stroke-linecap:round;stroke-linejoin:round"
     d="m 31.992168,12 c -1.127076,0 -2.253832,0.556451 -2.89984,1.669783 L 10.454105,45.942784 c -1.292015,2.226664 0.329877,5.003444 2.886418,5.003444 H 50.61643 c 2.61152,0.0275 4.206244,-2.749288 2.941718,-5.003444 L 34.892544,13.669783 C 34.246536,12.556451 33.119244,12 31.992168,12 Z"
     sodipodi:nodetypes="sccscccs" />
  <path
     id="path1462"
     style="fill:#e18b1f;fill-opacity:1;stroke-width:4;stroke-linecap:round;stroke-linejoin:round"
     d="m 32,20 c -1.107998,0 -2,0.892002 -2,2 v 15 c 0,1.107998 0.892002,2 2,2 1.107998,0 2,-0.892002 2,-2 V 22 c 0,-1.107998 -0.892002,-2 -2,-2 z m 0,22 c -1.10457,0 -2,0.89543 -2,2 0,1.10457 0.89543,2 2,2 1.10457,0 2,-0.89543 2,-2 0,-1.10457 -0.89543,-2 -2,-2 z"
     sodipodi:nodetypes="ssssssssssss" />
</svg>
