<?xml version="1.0" encoding="UTF-8" standalone="no"?>
<svg
   viewbox="0 0 200 200"
   version="1.1"
   id="svg4"
   sodipodi:docname="dialog-question.svg"
   width="64"
   height="64"
   inkscape:version="1.2.1 (1:1.2.1+202210291243+9c6d41e410)"
   xmlns:inkscape="http://www.inkscape.org/namespaces/inkscape"
   xmlns:sodipodi="http://sodipodi.sourceforge.net/DTD/sodipodi-0.dtd"
   xmlns:xlink="http://www.w3.org/1999/xlink"
   xmlns="http://www.w3.org/2000/svg"
   xmlns:svg="http://www.w3.org/2000/svg">
  <defs
     id="defs8">
    <linearGradient
       inkscape:collect="always"
       id="linearGradient2179">
      <stop
         style="stop-color:#2a6eea;stop-opacity:1;"
         offset="0"
         id="stop2175" />
      <stop
         style="stop-color:#529af5;stop-opacity:1;"
         offset="1"
         id="stop2177" />
    </linearGradient>
    <linearGradient
       inkscape:collect="always"
       xlink:href="#linearGradient2179"
       id="linearGradient2181"
       x1="16"
       y1="31"
       x2="16"
       y2="1"
       gradientUnits="userSpaceOnUse"
       gradientTransform="scale(2)" />
  </defs>
  <sodipodi:namedview
     id="namedview6"
     pagecolor="#ffffff"
     bordercolor="#666666"
     borderopacity="1.0"
     inkscape:pageshadow="2"
     inkscape:pageopacity="0.0"
     inkscape:pagecheckerboard="0"
     showgrid="false"
     inkscape:zoom="12.890625"
     inkscape:cx="31.961212"
     inkscape:cy="32"
     inkscape:window-width="1920"
     inkscape:window-height="1018"
     inkscape:window-x="0"
     inkscape:window-y="28"
     inkscape:window-maximized="1"
     inkscape:current-layer="svg4"
     showguides="true"
     inkscape:showpageshadow="2"
     inkscape:deskcolor="#d1d1d1" />
  <path
     d="M 2,32 C 2,9.5 9.5,2 32,2 54.5,2 62,9.5 62,32 62,54.5 54.5,62 32,62 9.5,62 2,54.5 2,32"
     style="fill:url(#linearGradient2181);fill-opacity:1;stroke-width:0.3"
     id="path311" />
  <path
     d="m 28.585746,40 c 0.03586,-2.13405 0.277966,-3.14458 0.726296,-4.381972 0.44833,-1.23739 1.362922,-2.60928 2.743778,-4.11567 l 3.523874,-3.631472 c 1.50639,-1.703654 2.259584,-3.532842 2.259584,-5.48756 0,-1.882986 -0.493162,-3.35351 -1.479488,-4.411569 -0.986326,-1.075992 -2.420984,-1.613988 -4.30397,-1.613988 -1.829186,0 -3.29971,0.484196 -4.411568,1.452589 -1.111858,0.968394 -1.667788,2.26855 -1.667788,3.900472 h -4.976462 c 0.03587,-2.905178 1.067024,-5.245462 3.093476,-7.020849 C 26.137864,12.89666 28.791978,12 32.05582,12 c 3.389376,0 6.025556,0.914594 7.908542,2.743781 1.90092,1.811253 2.85138,4.303969 2.85138,7.478145 0,3.13831 -1.45259,6.231788 -4.357768,9.280432 l -2.932078,2.90518 C 34.216772,35.860128 33.56221,37.274154 33.56221,40 Z m -0.215198,9.202432 c 0,-0.806994 0.242098,-1.47949 0.726294,-2.017486 0.50213,-0.55593 1.237392,-0.833894 2.205784,-0.833894 0.968394,0 1.703654,0.277964 2.205784,0.833894 0.50213,0.537996 0.753196,1.210492 0.753196,2.017486 0,0.806994 -0.251066,1.479488 -0.753196,2.017484 -0.50213,0.520062 -1.23739,0.780094 -2.205784,0.780094 -0.968392,0 -1.703654,-0.260032 -2.205784,-0.780094 -0.484196,-0.537996 -0.726294,-1.21049 -0.726294,-2.017484 z"
     style="fill:#ffffff;stroke-width:1.37727"
     id="path4141"
     sodipodi:nodetypes="csccscsscccscsccccscscscscs" />
</svg>
