<?xml version="1.0" encoding="UTF-8" standalone="no"?>
<!-- Created with Inkscape (http://www.inkscape.org/) -->

<svg
   width="64"
   height="64"
   viewBox="0 0 64 64.000002"
   version="1.1"
   id="svg5"
   inkscape:version="1.2.2 (1:1.2.2+202305151914+b0a8486541)"
   sodipodi:docname="weather-clouds-night.svg"
   xmlns:inkscape="http://www.inkscape.org/namespaces/inkscape"
   xmlns:sodipodi="http://sodipodi.sourceforge.net/DTD/sodipodi-0.dtd"
   xmlns="http://www.w3.org/2000/svg"
   xmlns:svg="http://www.w3.org/2000/svg">
  <sodipodi:namedview
     id="namedview7"
     pagecolor="#ffffff"
     bordercolor="#000000"
     borderopacity="0.25"
     inkscape:showpageshadow="2"
     inkscape:pageopacity="0.0"
     inkscape:pagecheckerboard="0"
     inkscape:deskcolor="#d1d1d1"
     inkscape:document-units="px"
     showgrid="false"
     inkscape:zoom="12.59375"
     inkscape:cx="32"
     inkscape:cy="32"
     inkscape:window-width="1920"
     inkscape:window-height="1008"
     inkscape:window-x="0"
     inkscape:window-y="0"
     inkscape:window-maximized="1"
     inkscape:current-layer="svg5" />
  <defs
     id="defs2" />
  <path
     id="path286"
     style="fill:#fdbb1c;fill-opacity:1;stroke-width:2.15384;stroke-linecap:round;stroke-linejoin:round"
     d="M 43.941732,6.608 A 14,14 0 0 0 34,19.999602 a 14,14 0 0 0 14,14 14,14 0 0 0 13.391602,-9.941732 14,14 0 0 1 -4.058268,0.608398 14,14 0 0 1 -14,-13.999999 A 14,14 0 0 1 43.941732,6.608 Z" />
  <path
     id="rect340"
     style="fill:#dedede;stroke-width:4.66664;stroke-linecap:round;stroke-linejoin:round"
     d="m 26.000002,28 h 20 C 53.756,28 60,34.244 60,42.000002 60,49.756 53.756,56 46.000002,56 H 24 C 24,56 12,49.756 12,42.000002 12,34.244 18.244,28 26.000002,28 Z"
     sodipodi:nodetypes="sssscss" />
  <circle
     style="fill:#f8f8f8;fill-opacity:1;stroke-width:6.66668;stroke-linecap:round;stroke-linejoin:round"
     id="path340"
     cx="24"
     cy="36"
     r="20" />
</svg>
