<?xml version="1.0" encoding="UTF-8" standalone="no"?>
<!-- Created with Inkscape (http://www.inkscape.org/) -->

<svg
   width="64"
   height="64"
   viewBox="0 0 64 64"
   version="1.1"
   id="svg5"
   inkscape:version="1.2.2 (1:1.2.2+202305151914+b0a8486541)"
   sodipodi:docname="weather-showers.svg"
   xmlns:inkscape="http://www.inkscape.org/namespaces/inkscape"
   xmlns:sodipodi="http://sodipodi.sourceforge.net/DTD/sodipodi-0.dtd"
   xmlns="http://www.w3.org/2000/svg"
   xmlns:svg="http://www.w3.org/2000/svg">
  <sodipodi:namedview
     id="namedview7"
     pagecolor="#ffffff"
     bordercolor="#000000"
     borderopacity="0.25"
     inkscape:showpageshadow="2"
     inkscape:pageopacity="0.0"
     inkscape:pagecheckerboard="0"
     inkscape:deskcolor="#d1d1d1"
     inkscape:document-units="px"
     showgrid="false"
     inkscape:zoom="12.59375"
     inkscape:cx="32"
     inkscape:cy="32"
     inkscape:window-width="1920"
     inkscape:window-height="1008"
     inkscape:window-x="0"
     inkscape:window-y="0"
     inkscape:window-maximized="1"
     inkscape:current-layer="svg5" />
  <defs
     id="defs2" />
  <path
     id="rect339"
     style="fill:#74bcf8;stroke-width:4;stroke-linecap:round;stroke-linejoin:round"
     d="m 12.242187,16.753906 c -0.766856,0 -1.533488,0.295208 -2.121093,0.882813 l -8.4843753,8.484375 c -1.17521033,1.17521 -1.17521132,3.066977 -1.3e-6,4.242187 1.1752115,1.175212 3.0669781,1.17521 4.2421885,0 l 8.4843751,-8.484375 c 1.17521,-1.17521 1.175211,-3.066977 0,-4.242188 -0.587605,-0.587604 -1.354237,-0.882812 -2.121094,-0.882812 z m 17.777344,0.222656 c -0.766856,10e-7 -1.533488,0.295208 -2.121093,0.882813 L 3.8554417,41.898412 c -1.17521,1.17521 -1.17521,3.066975 0,4.242185 1.1752115,1.175211 3.0708828,1.175211 4.2460928,10e-7 L 32.140598,22.101535 c 1.17521,-1.17521 1.175211,-3.066976 1e-6,-4.242186 -0.587606,-0.587606 -1.354238,-0.882813 -2.121095,-0.882814 z m 29.999999,6 c -0.766855,2e-6 -1.533486,0.291301 -2.121092,0.878907 l -0.827505,0.831464 c -1.172378,1.178036 -1.175211,3.066977 1e-6,4.242188 1.17521,1.17521 3.066938,1.175171 4.242186,-10e-7 l 0.827558,-0.827504 c 1.175249,-1.175172 1.175212,-3.070883 2e-6,-4.246093 -0.587606,-0.587606 -1.354238,-0.878907 -2.121096,-0.878907 z m -21.777343,3.777344 c -0.766855,1e-6 -1.533488,0.295208 -2.121093,0.882813 l -8.484375,8.484375 c -1.17521,1.17521 -1.175211,3.066976 0,4.242188 1.17521,1.17521 3.066977,1.175209 4.242187,-10e-7 l 8.484375,-8.484375 c 1.17521,-1.17521 1.175211,-3.066977 10e-7,-4.242187 -0.587606,-0.587605 -1.354238,-0.882813 -2.121095,-0.882813 z m 14.465828,3.535626 c -0.766856,10e-7 -1.533393,0.295302 -2.121093,0.882813 l -16.73146,16.726086 c -1.175401,1.175019 -1.175211,3.066976 0,4.242188 1.17521,1.17521 3.070832,1.175158 4.246093,-2e-6 L 54.829102,35.414524 c 1.175261,-1.175159 1.175211,-3.066976 1e-6,-4.242186 -0.587606,-0.587606 -1.354238,-0.882813 -2.121095,-0.882813 z"
     sodipodi:nodetypes="sssssssssccssssssscssssssscssssssccsssssscc" />
</svg>
