<?xml version="1.0" encoding="UTF-8" standalone="no"?>
<!-- Created with Inkscape (http://www.inkscape.org/) -->

<svg
   width="16"
   height="16"
   viewBox="0 0 16 16"
   version="1.1"
   id="svg5"
   inkscape:version="1.2.2 (1:1.2.2+202305151914+b0a8486541)"
   sodipodi:docname="go-first.svg"
   xmlns:inkscape="http://www.inkscape.org/namespaces/inkscape"
   xmlns:sodipodi="http://sodipodi.sourceforge.net/DTD/sodipodi-0.dtd"
   xmlns="http://www.w3.org/2000/svg"
   xmlns:svg="http://www.w3.org/2000/svg">
  <sodipodi:namedview
     id="namedview7"
     pagecolor="#ffffff"
     bordercolor="#000000"
     borderopacity="0.25"
     inkscape:showpageshadow="2"
     inkscape:pageopacity="0.0"
     inkscape:pagecheckerboard="0"
     inkscape:deskcolor="#d1d1d1"
     inkscape:document-units="px"
     showgrid="false"
     inkscape:zoom="50.375"
     inkscape:cx="8"
     inkscape:cy="8"
     inkscape:window-width="1920"
     inkscape:window-height="1008"
     inkscape:window-x="0"
     inkscape:window-y="0"
     inkscape:window-maximized="1"
     inkscape:current-layer="svg5" />
  <defs
     id="defs2">
    <style
       id="current-color-scheme"
       type="text/css">
         .ColorScheme-Text { color:#4d4d4d; }
        </style>
  </defs>
  <path
     id="path342"
     style="fill:currentColor;fill-opacity:1;stroke-width:5.00001;stroke-linecap:round;stroke-linejoin:round"
     class="ColorScheme-Text"
     d="m 12.500125,1.8417969 c -0.127809,0 -0.255581,0.050503 -0.353516,0.1484375 l -5.6562498,5.65625 c -0.1958588,0.1958808 -0.1958698,0.5111634 0,0.7070312 0.0061,0.0061 0.013181,0.013791 0.019531,0.019531 l 5.6367188,5.6367194 c 0.195882,0.195857 0.511164,0.195868 0.707032,0 0.19587,-0.19587 0.195869,-0.511165 0,-0.707032 L 7.550906,8 12.853641,2.6972656 c 0.19587,-0.1958668 0.19587,-0.5111635 0,-0.7070312 -0.09793,-0.097935 -0.225707,-0.1484375 -0.353516,-0.1484375 z M 4,7 C 3.4477153,7 3,7.4477153 3,8 3,8.5522847 3.4477153,9 4,9 4.5522847,9 5,8.5522847 5,8 5,7.4477153 4.5522847,7 4,7 Z"
     sodipodi:nodetypes="sccsccscccsssssss" />
</svg>
