<?xml version="1.0" encoding="UTF-8" standalone="no"?>
<!-- Created with Inkscape (http://www.inkscape.org/) -->

<svg
   width="16"
   height="16"
   viewBox="0 0 16 16"
   version="1.1"
   id="svg5"
   inkscape:version="1.2.2 (1:1.2.2+202305151914+b0a8486541)"
   sodipodi:docname="go-last.svg"
   xmlns:inkscape="http://www.inkscape.org/namespaces/inkscape"
   xmlns:sodipodi="http://sodipodi.sourceforge.net/DTD/sodipodi-0.dtd"
   xmlns="http://www.w3.org/2000/svg"
   xmlns:svg="http://www.w3.org/2000/svg">
  <sodipodi:namedview
     id="namedview7"
     pagecolor="#ffffff"
     bordercolor="#000000"
     borderopacity="0.25"
     inkscape:showpageshadow="2"
     inkscape:pageopacity="0.0"
     inkscape:pagecheckerboard="0"
     inkscape:deskcolor="#d1d1d1"
     inkscape:document-units="px"
     showgrid="false"
     inkscape:zoom="50.375"
     inkscape:cx="8"
     inkscape:cy="8"
     inkscape:window-width="1920"
     inkscape:window-height="1008"
     inkscape:window-x="0"
     inkscape:window-y="0"
     inkscape:window-maximized="1"
     inkscape:current-layer="svg5" />
  <defs
     id="defs2">
    <style
       id="current-color-scheme"
       type="text/css">
         .ColorScheme-Text { color:#4d4d4d; }
        </style>
  </defs>
  <path
     id="path342"
     style="fill:currentColor;fill-opacity:1;stroke-width:5.00001;stroke-linecap:round;stroke-linejoin:round"
     class="ColorScheme-Text"
     d="m 3.5,1.8417969 c -0.1278093,0 -0.2555807,0.050503 -0.3535156,0.1484375 -0.1958708,0.1958677 -0.1958708,0.5111644 0,0.7070312 L 8.449219,8 3.1464844,13.302734 c -0.1958698,0.195867 -0.1958708,0.511162 0,0.707032 0.1958678,0.195868 0.5111496,0.195857 0.7070312,0 L 9.490234,8.3730469 c 0.0064,-0.00574 0.01343,-0.013431 0.01953,-0.019531 0.195869,-0.1958678 0.195858,-0.5111504 0,-0.7070312 L 3.8535156,1.9902344 C 3.7555813,1.8922996 3.6278093,1.8417969 3.5,1.8417969 Z M 12,7 c -0.552285,0 -1,0.4477153 -1,1 0,0.5522847 0.447715,1 1,1 0.552285,0 1,-0.4477153 1,-1 0,-0.5522847 -0.447715,-1 -1,-1 z"
     sodipodi:nodetypes="sccccsccsccssssss" />
</svg>
