<?xml version="1.0" encoding="UTF-8" standalone="no"?>
<!-- Created with Inkscape (http://www.inkscape.org/) -->

<svg
   width="16"
   height="16"
   viewBox="0 0 16 16"
   version="1.1"
   id="svg5"
   inkscape:version="1.2.2 (1:1.2.2+202305151914+b0a8486541)"
   sodipodi:docname="media-skip-forward.svg"
   xmlns:inkscape="http://www.inkscape.org/namespaces/inkscape"
   xmlns:sodipodi="http://sodipodi.sourceforge.net/DTD/sodipodi-0.dtd"
   xmlns="http://www.w3.org/2000/svg"
   xmlns:svg="http://www.w3.org/2000/svg">
  <sodipodi:namedview
     id="namedview7"
     pagecolor="#ffffff"
     bordercolor="#000000"
     borderopacity="0.25"
     inkscape:showpageshadow="2"
     inkscape:pageopacity="0.0"
     inkscape:pagecheckerboard="0"
     inkscape:deskcolor="#d1d1d1"
     inkscape:document-units="px"
     showgrid="false"
     inkscape:zoom="50.375"
     inkscape:cx="8"
     inkscape:cy="8"
     inkscape:window-width="1920"
     inkscape:window-height="1008"
     inkscape:window-x="0"
     inkscape:window-y="0"
     inkscape:window-maximized="1"
     inkscape:current-layer="svg5" />
  <defs
     id="defs2">
    <style
       id="current-color-scheme"
       type="text/css">
         .ColorScheme-Text { color:#4d4d4d; }
        </style>
  </defs>
  <path
     id="path924"
     style="fill:currentColor;fill-opacity:1;stroke-width:0.746246;stroke-linecap:round;stroke-linejoin:round;stroke-miterlimit:1"
     class="ColorScheme-Text"
     d="M 14.5,4 C 14.777,4 15,4.2230003 15,4.5 v 7 C 15,11.777 14.777,12 14.5,12 14.223,12 14,11.777 14,11.5 V 8.5742188 L 8.6855469,11.943359 C 8.3764694,12.11242 8.0006,11.886885 8,11.533203 V 8.5644531 L 2.685547,11.943359 C 2.376469,12.11242 2.0006,11.886885 2,11.533203 V 4.4667969 C 2.000557,4.1131114 2.376469,3.8895323 2.685547,4.0585938 L 8,7.4375 V 4.4667969 C 8.0004179,4.2015328 8.2109443,4.0084027 8.4472656,4 8.5260396,3.9972 8.6082776,4.016328 8.6855469,4.058594 L 14,7.4257812 V 4.5 C 14,4.2230003 14.223,4 14.5,4 Z" />
</svg>
