<?xml version="1.0" encoding="UTF-8" standalone="no"?>
<!-- Created with Inkscape (http://www.inkscape.org/) -->

<svg
   width="16"
   height="16"
   viewBox="0 0 16 16"
   version="1.1"
   id="svg5"
   inkscape:version="1.2.2 (1:1.2.2+202305151914+b0a8486541)"
   sodipodi:docname="view-media-playlist.svg"
   xmlns:inkscape="http://www.inkscape.org/namespaces/inkscape"
   xmlns:sodipodi="http://sodipodi.sourceforge.net/DTD/sodipodi-0.dtd"
   xmlns="http://www.w3.org/2000/svg"
   xmlns:svg="http://www.w3.org/2000/svg">
  <sodipodi:namedview
     id="namedview7"
     pagecolor="#ffffff"
     bordercolor="#000000"
     borderopacity="0.25"
     inkscape:showpageshadow="2"
     inkscape:pageopacity="0.0"
     inkscape:pagecheckerboard="0"
     inkscape:deskcolor="#d1d1d1"
     inkscape:document-units="px"
     showgrid="false"
     inkscape:zoom="50.375"
     inkscape:cx="8"
     inkscape:cy="8"
     inkscape:window-width="1920"
     inkscape:window-height="1008"
     inkscape:window-x="0"
     inkscape:window-y="0"
     inkscape:window-maximized="1"
     inkscape:current-layer="svg5" />
  <defs
     id="defs2">
    <style
       id="current-color-scheme"
       type="text/css">
         .ColorScheme-Text { color:#4d4d4d; }
        </style>
  </defs>
  <path
     id="rect286"
     style="fill:currentColor;stroke-width:2;stroke-linecap:round;stroke-linejoin:round"
     class="ColorScheme-Text"
     d="M 2.5,3 C 2.2230006,3 2,3.2230006 2,3.5 2,3.7769994 2.2230006,4 2.5,4 h 11 C 13.777,4 14,3.7769994 14,3.5 14,3.2230006 13.777,3 13.5,3 Z m 0,3 C 2.2230006,6 2,6.2230006 2,6.5 2,6.7769994 2.2230006,7 2.5,7 h 11 C 13.777,7 14,6.7769994 14,6.5 14,6.2230006 13.777,6 13.5,6 Z m 0,3 C 2.2230006,9 2,9.223 2,9.5 2,9.777 2.2230006,10 2.5,10 h 11 C 13.777,10 14,9.777 14,9.5 14,9.223 13.777,9 13.5,9 Z m 0,3 C 2.2230006,12 2,12.223 2,12.5 2,12.777 2.2230006,13 2.5,13 h 11 C 13.777,13 14,12.777 14,12.5 14,12.223 13.777,12 13.5,12 Z" />
</svg>
