<?xml version="1.0" encoding="UTF-8" standalone="no"?>
<!-- Created with Inkscape (http://www.inkscape.org/) -->

<svg
   width="32"
   height="32"
   viewBox="0 0 32 32"
   version="1.1"
   id="svg371"
   xml:space="preserve"
   inkscape:version="1.2.2 (1:1.2.2+202212051552+b0a8486541)"
   sodipodi:docname="preferences-desktop-baloo.svg"
   xmlns:inkscape="http://www.inkscape.org/namespaces/inkscape"
   xmlns:sodipodi="http://sodipodi.sourceforge.net/DTD/sodipodi-0.dtd"
   xmlns="http://www.w3.org/2000/svg"
   xmlns:svg="http://www.w3.org/2000/svg"><sodipodi:namedview
     id="namedview373"
     pagecolor="#ffffff"
     bordercolor="#000000"
     borderopacity="0.25"
     inkscape:showpageshadow="2"
     inkscape:pageopacity="0.0"
     inkscape:pagecheckerboard="0"
     inkscape:deskcolor="#d1d1d1"
     inkscape:document-units="px"
     showgrid="false"
     inkscape:zoom="25.3125"
     inkscape:cx="12.720988"
     inkscape:cy="16"
     inkscape:window-width="1920"
     inkscape:window-height="1012"
     inkscape:window-x="0"
     inkscape:window-y="0"
     inkscape:window-maximized="1"
     inkscape:current-layer="svg371"
     showguides="false"
     inkscape:lockguides="true" /><defs
     id="defs368" /><path
     d="M 1,16 C 1,4.75 4.75,1 16,1 27.25,1 31,4.75 31,16 31,27.25 27.25,31 16,31 4.75,31 1,27.25 1,16"
     style="fill:#3daee9;fill-opacity:1;stroke-width:0.15"
     id="path311" /><path
     id="path675"
     style="fill:#ffffff;stroke-width:3.5;stroke-linecap:round;stroke-linejoin:round"
     d="M 13 6 A 7 7 0 0 0 6 13 A 7 7 0 0 0 13 20 A 7 7 0 0 0 17.179688 18.59375 L 23.65625 25.070312 C 24.047987 25.462049 24.678577 25.462049 25.070312 25.070312 C 25.462049 24.678577 25.462049 24.047987 25.070312 23.65625 L 18.59375 17.179688 A 7 7 0 0 0 20 13 A 7 7 0 0 0 13 6 z M 13 8 A 5 5 0 0 1 18 13 A 5 5 0 0 1 13 18 A 5 5 0 0 1 8 13 A 5 5 0 0 1 13 8 z " /></svg>
