<?xml version="1.0" encoding="UTF-8" standalone="no"?>
<svg
   viewbox="0 0 200 200"
   version="1.1"
   id="svg4"
   sodipodi:docname="preferences-desktop-theme-windowdecorations.svg"
   width="32"
   height="32"
   inkscape:version="1.2.2 (1:1.2.2+202212051552+b0a8486541)"
   xmlns:inkscape="http://www.inkscape.org/namespaces/inkscape"
   xmlns:sodipodi="http://sodipodi.sourceforge.net/DTD/sodipodi-0.dtd"
   xmlns="http://www.w3.org/2000/svg"
   xmlns:svg="http://www.w3.org/2000/svg">
  <defs
     id="defs8" />
  <sodipodi:namedview
     id="namedview6"
     pagecolor="#ffffff"
     bordercolor="#666666"
     borderopacity="1.0"
     inkscape:pageshadow="2"
     inkscape:pageopacity="0.0"
     inkscape:pagecheckerboard="0"
     showgrid="false"
     inkscape:zoom="25.3125"
     inkscape:cx="14.854321"
     inkscape:cy="16"
     inkscape:window-width="1920"
     inkscape:window-height="1012"
     inkscape:window-x="0"
     inkscape:window-y="0"
     inkscape:window-maximized="1"
     inkscape:current-layer="svg4"
     showguides="false"
     inkscape:showpageshadow="2"
     inkscape:deskcolor="#d1d1d1" />
  <path
     d="M 1,16 C 1,4.7499998 4.75,1 16,1 27.25,1 31,4.7499998 31,16 31,27.25 27.25,31 16,31 4.75,31 1,27.25 1,16"
     style="fill:#c47bdf;fill-opacity:1;stroke-width:0.15"
     id="path311" />
  <path
     id="rect2476"
     style="fill:#f9f9f9;fill-opacity:1;stroke-width:2;stroke-linecap:round;stroke-linejoin:round"
     d="m 8,8 a 2,2 0 0 0 -2,2 v 11 c 0,1.661996 1.3380034,3 3,3 h 14 c 1.661996,0 3,-1.338004 3,-3 V 10 A 2,2 0 0 0 24,8 Z m 0,3 h 16 c 0.553997,0 1,0.446003 1,1 v 9 c 0,1.107997 -0.892003,2 -2,2 H 9 C 7.8920033,23 7,22.107997 7,21 v -9 c 0,-0.553997 0.4460018,-1 1,-1 z" />
</svg>
