<?xml version="1.0" encoding="UTF-8" standalone="no"?>
<!-- Created with Inkscape (http://www.inkscape.org/) -->

<svg
   width="32"
   height="32"
   viewBox="0 0 32 32"
   version="1.1"
   id="svg371"
   xml:space="preserve"
   inkscape:version="1.2.2 (1:1.2.2+202212051552+b0a8486541)"
   sodipodi:docname="preferences-kde-connect.svg"
   xmlns:inkscape="http://www.inkscape.org/namespaces/inkscape"
   xmlns:sodipodi="http://sodipodi.sourceforge.net/DTD/sodipodi-0.dtd"
   xmlns="http://www.w3.org/2000/svg"
   xmlns:svg="http://www.w3.org/2000/svg"><sodipodi:namedview
     id="namedview373"
     pagecolor="#ffffff"
     bordercolor="#000000"
     borderopacity="0.25"
     inkscape:showpageshadow="2"
     inkscape:pageopacity="0.0"
     inkscape:pagecheckerboard="0"
     inkscape:deskcolor="#d1d1d1"
     inkscape:document-units="px"
     showgrid="false"
     inkscape:zoom="25.78125"
     inkscape:cx="12.761212"
     inkscape:cy="15.980606"
     inkscape:window-width="1920"
     inkscape:window-height="1012"
     inkscape:window-x="0"
     inkscape:window-y="0"
     inkscape:window-maximized="1"
     inkscape:current-layer="svg371"
     showguides="true" /><defs
     id="defs368" /><path
     d="M 1,16 C 1,4.75 4.75,1 16,1 27.25,1 31,4.75 31,16 31,27.25 27.25,31 16,31 4.75,31 1,27.25 1,16"
     style="fill:#46afea;fill-opacity:1;stroke-width:0.15"
     id="path311" /><rect
     style="fill:#ffffff;stroke-width:3;stroke-linecap:round;stroke-linejoin:round"
     id="rect1034"
     width="12"
     height="20"
     x="10"
     y="6"
     ry="2" /><rect
     style="fill:#108cd4;stroke-width:3;stroke-linecap:round;stroke-linejoin:round;fill-opacity:1"
     id="rect1036"
     width="6"
     height="2"
     x="13"
     y="22"
     ry="1" /><path
     id="path360"
     style="opacity:0.8;fill:#189be5;fill-opacity:1;stroke-width:0.666667"
     d="M 14.210938,11.000287 C 13.813569,11.0203 13.5,11.347769 13.5,11.750286 c 0,0.415497 0.334504,0.75 0.75,0.75 0.415502,0 0.75,-0.334503 0.75,-0.75 0,-0.415501 -0.334498,-0.749999 -0.75,-0.749999 -0.01298,0 -0.02624,-6.46e-4 -0.03906,0 z m 2.93164,0 L 16,12.066692 17.714844,13.666302 16,15.267864 17.142578,16.33427 20,13.666302 Z M 13,14.000286 c -0.553994,0 -1,0.445999 -1,1 0,0.553996 0.446006,1 1,1 0.554002,0 1,-0.446004 1,-1 0,-0.554001 -0.445998,-1 -1,-1 z m 2,3 c -0.553998,0 -1,0.446002 -1,1 0,0.553998 0.446002,1 1,1 0.553999,0 1,-0.446002 1,-1 0,-0.553998 -0.446001,-1 -1,-1 z" /></svg>
