<?xml version="1.0" encoding="UTF-8" standalone="no"?>
<!-- Created with Inkscape (http://www.inkscape.org/) -->

<svg
   width="32"
   height="32"
   viewBox="0 0 32 32"
   version="1.1"
   id="svg371"
   xml:space="preserve"
   inkscape:version="1.2.2 (1:1.2.2+202212051552+b0a8486541)"
   sodipodi:docname="preferences-system-login.svg"
   xmlns:inkscape="http://www.inkscape.org/namespaces/inkscape"
   xmlns:sodipodi="http://sodipodi.sourceforge.net/DTD/sodipodi-0.dtd"
   xmlns="http://www.w3.org/2000/svg"
   xmlns:svg="http://www.w3.org/2000/svg"><sodipodi:namedview
     id="namedview373"
     pagecolor="#ffffff"
     bordercolor="#000000"
     borderopacity="0.25"
     inkscape:showpageshadow="2"
     inkscape:pageopacity="0.0"
     inkscape:pagecheckerboard="0"
     inkscape:deskcolor="#d1d1d1"
     inkscape:document-units="px"
     showgrid="false"
     inkscape:zoom="25.3125"
     inkscape:cx="16"
     inkscape:cy="16"
     inkscape:window-width="1920"
     inkscape:window-height="1012"
     inkscape:window-x="0"
     inkscape:window-y="0"
     inkscape:window-maximized="1"
     inkscape:current-layer="svg371"
     showguides="false"
     inkscape:lockguides="true" /><defs
     id="defs368" /><path
     d="M 1,16 C 1,4.75 4.75,1 16,1 27.25,1 31,4.75 31,16 31,27.25 27.25,31 16,31 4.75,31 1,27.25 1,16"
     style="fill:#7999af;fill-opacity:1;stroke-width:0.15"
     id="path311" /><path
     id="path2315"
     style="fill:#ffffff;fill-opacity:1;stroke-width:0.333331"
     d="M 16 7 C 14.895434 7 14 7.8954331 14 9 C 14 10.104567 14.895434 11 16 11 C 17.104568 11 18 10.104567 18 9 C 18 7.8954331 17.104568 7 16 7 z M 16 13 C 13.238582 13 11 15.238582 11 18 L 21 18 C 21 15.238582 18.761418 13 16 13 z M 7 21 C 6.4460012 21 6 21.446002 6 22 L 6 24 C 6 24.553998 6.4460012 25 7 25 L 25 25 C 25.553998 25 26 24.553998 26 24 L 26 22 C 26 21.446002 25.553998 21 25 21 L 7 21 z M 8 22 C 8.5522832 22 9 22.447719 9 23 C 9 23.552281 8.5522832 24 8 24 C 7.4477188 24 7 23.552281 7 23 C 7 22.447719 7.4477188 22 8 22 z M 11 22 C 11.552282 22 12 22.447719 12 23 C 12 23.552281 11.552282 24 11 24 C 10.44772 24 10 23.552281 10 23 C 10 22.447719 10.44772 22 11 22 z M 14 22 C 14.552282 22 15 22.447719 15 23 C 15 23.552281 14.552282 24 14 24 C 13.44772 24 13 23.552281 13 23 C 13 22.447719 13.44772 22 14 22 z M 17 22 C 17.552282 22 18 22.447719 18 23 C 18 23.552281 17.552282 24 17 24 C 16.44772 24 16 23.552281 16 23 C 16 22.447719 16.44772 22 17 22 z " /></svg>
