<?xml version="1.0" encoding="UTF-8" standalone="no"?>
<svg
   viewbox="0 0 200 200"
   version="1.1"
   id="svg4"
   sodipodi:docname="preferences-system-splash.svg"
   width="32"
   height="32"
   inkscape:version="1.2.2 (1:1.2.2+202212051552+b0a8486541)"
   xmlns:inkscape="http://www.inkscape.org/namespaces/inkscape"
   xmlns:sodipodi="http://sodipodi.sourceforge.net/DTD/sodipodi-0.dtd"
   xmlns="http://www.w3.org/2000/svg"
   xmlns:svg="http://www.w3.org/2000/svg">
  <defs
     id="defs8" />
  <sodipodi:namedview
     id="namedview6"
     pagecolor="#ffffff"
     bordercolor="#666666"
     borderopacity="1.0"
     inkscape:pageshadow="2"
     inkscape:pageopacity="0.0"
     inkscape:pagecheckerboard="0"
     showgrid="false"
     inkscape:zoom="25.3125"
     inkscape:cx="16"
     inkscape:cy="16"
     inkscape:window-width="1920"
     inkscape:window-height="1012"
     inkscape:window-x="0"
     inkscape:window-y="0"
     inkscape:window-maximized="1"
     inkscape:current-layer="svg4"
     showguides="false"
     inkscape:showpageshadow="2"
     inkscape:deskcolor="#d1d1d1" />
  <path
     d="M 1,16 C 1,4.7499998 4.75,1 16,1 27.25,1 31,4.7499998 31,16 31,27.25 27.25,31 16,31 4.75,31 1,27.25 1,16"
     style="fill:#c47bdf;fill-opacity:1;stroke-width:0.15"
     id="path311" />
  <path
     id="path3858"
     style="fill:#ffffff;stroke-width:1;stroke-linecap:round;stroke-linejoin:round"
     d="M 16,6 A 10,10 0 0 0 6,16 10,10 0 0 0 16,26 10,10 0 0 0 23.052734,23.052734 L 21.657226,21.657226 A 8,8 0 0 1 16,24 8,8 0 0 1 8,16 8,8 0 0 1 16,8 Z" />
  <path
     id="path3939"
     style="opacity:0.5;fill:#ffffff;stroke-width:1;stroke-linecap:round;stroke-linejoin:round"
     d="m 16,6 v 2 a 8,8 0 0 1 8,8 8,8 0 0 1 -2.342774,5.657226 l 1.395508,1.395508 A 10,10 0 0 0 26,16 10,10 0 0 0 16,6 Z" />
</svg>
