<?xml version="1.0" encoding="UTF-8" standalone="no"?>
<!-- Created with Inkscape (http://www.inkscape.org/) -->

<svg
   width="32"
   height="32"
   viewBox="0 0 32 32"
   version="1.1"
   id="svg371"
   xml:space="preserve"
   inkscape:version="1.2.2 (1:1.2.2+202212051552+b0a8486541)"
   sodipodi:docname="preferences-security.svg"
   xmlns:inkscape="http://www.inkscape.org/namespaces/inkscape"
   xmlns:sodipodi="http://sodipodi.sourceforge.net/DTD/sodipodi-0.dtd"
   xmlns="http://www.w3.org/2000/svg"
   xmlns:svg="http://www.w3.org/2000/svg"><sodipodi:namedview
     id="namedview373"
     pagecolor="#ffffff"
     bordercolor="#000000"
     borderopacity="0.25"
     inkscape:showpageshadow="2"
     inkscape:pageopacity="0.0"
     inkscape:pagecheckerboard="0"
     inkscape:deskcolor="#d1d1d1"
     inkscape:document-units="px"
     showgrid="false"
     inkscape:zoom="25.3125"
     inkscape:cx="16"
     inkscape:cy="16"
     inkscape:window-width="1920"
     inkscape:window-height="1012"
     inkscape:window-x="0"
     inkscape:window-y="0"
     inkscape:window-maximized="1"
     inkscape:current-layer="svg371"
     showguides="true" /><defs
     id="defs368" /><path
     d="M 1,16 C 1,4.75 4.75,1 16,1 27.25,1 31,4.75 31,16 31,27.25 27.25,31 16,31 4.75,31 1,27.25 1,16"
     style="fill:#7778ef;fill-opacity:1;stroke-width:0.15"
     id="path311" /><path
     id="rect340"
     style="fill:#ffffff;stroke-width:0.75;stroke-linecap:round;stroke-linejoin:round"
     d="M 16,6 C 14.899161,5.9971 14.612091,6.4031015 13.5,7 12.455809,7.560454 11.089909,7.754163 10,8 8.9135185,8.2172965 8,8.892002 8,10 v 6 c 0,5.601012 4.945154,9.610215 8,10 3.054845,-0.389785 8,-4.398988 8,-10 V 10 C 24,8.892002 23.086482,8.2172965 22,8 20.91009,7.754163 19.544191,7.560454 18.5,7 17.387909,6.4031015 17.100839,5.9971 16,6 Z" /></svg>
