<?xml version="1.0" encoding="UTF-8" standalone="no"?>
<!-- Created with Inkscape (http://www.inkscape.org/) -->

<svg
   width="32"
   height="32"
   viewBox="0 0 32 32"
   version="1.1"
   id="svg371"
   xml:space="preserve"
   inkscape:version="1.2.2 (b0a8486541, 2022-12-01)"
   sodipodi:docname="preferences-desktop-display.svg"
   xmlns:inkscape="http://www.inkscape.org/namespaces/inkscape"
   xmlns:sodipodi="http://sodipodi.sourceforge.net/DTD/sodipodi-0.dtd"
   xmlns="http://www.w3.org/2000/svg"
   xmlns:svg="http://www.w3.org/2000/svg"><sodipodi:namedview
     id="namedview373"
     pagecolor="#ffffff"
     bordercolor="#000000"
     borderopacity="0.25"
     inkscape:showpageshadow="2"
     inkscape:pageopacity="0.0"
     inkscape:pagecheckerboard="0"
     inkscape:deskcolor="#d1d1d1"
     inkscape:document-units="px"
     showgrid="false"
     inkscape:zoom="24.6875"
     inkscape:cx="16"
     inkscape:cy="16"
     inkscape:window-width="1920"
     inkscape:window-height="1011"
     inkscape:window-x="0"
     inkscape:window-y="0"
     inkscape:window-maximized="1"
     inkscape:current-layer="svg371"
     showguides="false"
     inkscape:lockguides="true" /><defs
     id="defs368" /><path
     d="M 1,16 C 1,4.75 4.75,1 16,1 27.25,1 31,4.75 31,16 31,27.25 27.25,31 16,31 4.75,31 1,27.25 1,16"
     style="fill:#afe147;fill-opacity:1;stroke-width:0.15;stroke:none"
     id="path311"
     sodipodi:nodetypes="csssc" /><path
     id="rect1499"
     style="fill:#ffffff;fill-opacity:1;stroke-linecap:round;stroke-linejoin:round"
     d="M 9 8 C 7.3380034 8 6 9.3380034 6 11 L 6 19 C 6 20.661996 7.3380034 22 9 22 L 23 22 C 24.661996 22 26 20.661996 26 19 L 26 11 C 26 9.3380034 24.661996 8 23 8 L 9 8 z M 9 9 L 23 9 C 24.107998 9 25 9.8920022 25 11 L 25 19 C 25 20.107998 24.107998 21 23 21 L 9 21 C 7.8920022 21 7 20.107998 7 19 L 7 11 C 7 9.8920022 7.8920022 9 9 9 z M 11 24 L 11 25 L 21 25 L 21 24 L 11 24 z " /></svg>
