<?xml version="1.0" encoding="UTF-8" standalone="no"?>
<svg
   viewbox="0 0 200 200"
   version="1.1"
   id="svg4"
   sodipodi:docname="preferences-system-sound.svg"
   width="32"
   height="32"
   inkscape:version="1.2.2 (1:1.2.2+202212051552+b0a8486541)"
   xmlns:inkscape="http://www.inkscape.org/namespaces/inkscape"
   xmlns:sodipodi="http://sodipodi.sourceforge.net/DTD/sodipodi-0.dtd"
   xmlns="http://www.w3.org/2000/svg"
   xmlns:svg="http://www.w3.org/2000/svg">
  <defs
     id="defs8" />
  <sodipodi:namedview
     id="namedview6"
     pagecolor="#ffffff"
     bordercolor="#666666"
     borderopacity="1.0"
     inkscape:pageshadow="2"
     inkscape:pageopacity="0.0"
     inkscape:pagecheckerboard="0"
     showgrid="false"
     inkscape:zoom="25.3125"
     inkscape:cx="15.980247"
     inkscape:cy="16"
     inkscape:window-width="1920"
     inkscape:window-height="1012"
     inkscape:window-x="0"
     inkscape:window-y="0"
     inkscape:window-maximized="1"
     inkscape:current-layer="svg4"
     showguides="false"
     inkscape:showpageshadow="2"
     inkscape:deskcolor="#d1d1d1" />
  <path
     d="M 1,16 C 1,4.7499998 4.75,1 16,1 27.25,1 31,4.7499998 31,16 31,27.25 27.25,31 16,31 4.75,31 1,27.25 1,16"
     style="fill:#7783fa;fill-opacity:1;stroke-width:0.15"
     id="path311" />
  <path
     id="path1143"
     style="color:#000000;fill:#ffffff;stroke-linecap:round;stroke-linejoin:round;-inkscape-stroke:none;stroke:none"
     d="M 15.548828 8.0019531 C 15.399845 7.9874821 15.252203 8.0405187 15.146484 8.1464844 L 11.179688 12 L 8 12 C 6.8920022 12 6 12.892002 6 14 L 6 18 C 6 19.107998 6.8920022 20 8 20 L 11.179688 20 L 15.146484 23.853516 C 15.461472 24.168283 15.999826 23.945305 16 23.5 L 16 8.5 C 15.999987 8.2978044 15.878195 8.1164777 15.691406 8.0390625 C 15.645926 8.0200565 15.597871 8.0069039 15.548828 8.0019531 z M 22.716797 8.7832031 A 0.5 0.5 0 0 0 22.363281 8.9296875 A 0.5 0.5 0 0 0 22.363281 9.6367188 C 24.051242 11.324678 25 13.612864 25 16 C 25 18.387136 24.051242 20.675322 22.363281 22.363281 A 0.5 0.5 0 0 0 22.363281 23.070312 A 0.5 0.5 0 0 0 23.070312 23.070312 C 24.945538 21.195088 26 18.651967 26 16 C 26 13.348033 24.945538 10.804912 23.070312 8.9296875 A 0.5 0.5 0 0 0 22.716797 8.7832031 z M 19.810547 11.617188 A 0.5 0.5 0 0 0 19.535156 11.757812 A 0.5 0.5 0 0 0 19.535156 12.464844 C 20.472972 13.40266 21 14.673728 21 16 C 21 17.326272 20.472972 18.59734 19.535156 19.535156 A 0.5 0.5 0 0 0 19.535156 20.242188 A 0.5 0.5 0 0 0 20.242188 20.242188 C 21.367268 19.117108 22 17.591103 22 16 C 22 14.408897 21.367268 12.882892 20.242188 11.757812 A 0.5 0.5 0 0 0 19.810547 11.617188 z " />
</svg>
