<?xml version="1.0" encoding="UTF-8" standalone="no"?>
<!-- Created with Inkscape (http://www.inkscape.org/) -->

<svg
   width="32"
   height="32"
   viewBox="0 0 32 32"
   version="1.1"
   id="svg371"
   xml:space="preserve"
   inkscape:version="1.2.2 (1:1.2.2+202212051552+b0a8486541)"
   sodipodi:docname="preferences-desktop-default-applications.svg"
   xmlns:inkscape="http://www.inkscape.org/namespaces/inkscape"
   xmlns:sodipodi="http://sodipodi.sourceforge.net/DTD/sodipodi-0.dtd"
   xmlns="http://www.w3.org/2000/svg"
   xmlns:svg="http://www.w3.org/2000/svg"><sodipodi:namedview
     id="namedview373"
     pagecolor="#ffffff"
     bordercolor="#000000"
     borderopacity="0.25"
     inkscape:showpageshadow="2"
     inkscape:pageopacity="0.0"
     inkscape:pagecheckerboard="0"
     inkscape:deskcolor="#d1d1d1"
     inkscape:document-units="px"
     showgrid="false"
     inkscape:zoom="25.3125"
     inkscape:cx="15.980247"
     inkscape:cy="16"
     inkscape:window-width="1920"
     inkscape:window-height="1012"
     inkscape:window-x="0"
     inkscape:window-y="0"
     inkscape:window-maximized="1"
     inkscape:current-layer="svg371"
     showguides="true"
     inkscape:lockguides="true" /><defs
     id="defs368" /><path
     d="M 1,16 C 1,4.75 4.75,1 16,1 27.25,1 31,4.75 31,16 31,27.25 27.25,31 16,31 4.75,31 1,27.25 1,16"
     style="fill:#28b9d8;fill-opacity:1;stroke-width:0.15"
     id="path311" /><path
     id="path945"
     style="color:#000000;fill:#ffffff;stroke:none;stroke-width:3.36245;stroke-linecap:round;stroke-linejoin:round;-inkscape-stroke:none"
     d="m 15.951995,6.3904897 a 1.6813954,1.6813954 0 0 0 -1.501464,0.9459222 l -2.150846,4.4311951 -4.8722508,0.737594 a 1.6813954,1.6813954 0 0 0 -0.9121393,2.873427 l 3.5490851,3.41583 -0.8032832,4.859112 a 1.6813954,1.6813954 0 0 0 2.4492622,1.758589 l 4.344862,-2.319762 4.37489,2.263457 a 1.6813954,1.6813954 0 0 0 2.428618,-1.784865 l -0.861466,-4.849728 3.504042,-3.460874 A 1.6813954,1.6813954 0 0 0 24.551629,12.400098 L 19.673749,11.720686 17.46472,7.3176436 A 1.6813954,1.6813954 0 0 0 15.951995,6.3904897 Z" /></svg>
