<?xml version="1.0" encoding="UTF-8" standalone="no"?>
<!-- Created with Inkscape (http://www.inkscape.org/) -->

<svg
   width="32"
   height="32"
   viewBox="0 0 32 32"
   version="1.1"
   id="svg371"
   xml:space="preserve"
   inkscape:version="1.2.2 (1:1.2.2+202212051552+b0a8486541)"
   sodipodi:docname="accessories-notes.svg"
   xmlns:inkscape="http://www.inkscape.org/namespaces/inkscape"
   xmlns:sodipodi="http://sodipodi.sourceforge.net/DTD/sodipodi-0.dtd"
   xmlns:xlink="http://www.w3.org/1999/xlink"
   xmlns="http://www.w3.org/2000/svg"
   xmlns:svg="http://www.w3.org/2000/svg"><sodipodi:namedview
     id="namedview373"
     pagecolor="#ffffff"
     bordercolor="#000000"
     borderopacity="0.25"
     inkscape:showpageshadow="2"
     inkscape:pageopacity="0.0"
     inkscape:pagecheckerboard="0"
     inkscape:deskcolor="#d1d1d1"
     inkscape:document-units="px"
     showgrid="false"
     inkscape:zoom="25.3125"
     inkscape:cx="15.980247"
     inkscape:cy="16"
     inkscape:window-width="1920"
     inkscape:window-height="1012"
     inkscape:window-x="0"
     inkscape:window-y="0"
     inkscape:window-maximized="1"
     inkscape:current-layer="svg371"
     showguides="true" /><defs
     id="defs368"><linearGradient
       inkscape:collect="always"
       xlink:href="#linearGradient2604"
       id="linearGradient3040"
       x1="32"
       y1="62"
       x2="32"
       y2="2"
       gradientUnits="userSpaceOnUse"
       gradientTransform="scale(0.5)" /><linearGradient
       inkscape:collect="always"
       id="linearGradient2604"><stop
         style="stop-color:#ff3512;stop-opacity:1;"
         offset="0"
         id="stop2600" /><stop
         style="stop-color:#ff6723;stop-opacity:1"
         offset="1"
         id="stop2602" /></linearGradient></defs><path
     d="M 1,16 C 1,4.75 4.75,1 16,1 27.25,1 31,4.75 31,16 31,27.25 27.25,31 16,31 4.75,31 1,27.25 1,16"
     style="fill:url(#linearGradient3040);fill-opacity:1;stroke-width:0.15"
     id="path311" /><path
     id="rect900"
     style="fill:#ffffff;stroke-width:2.7;stroke-linecap:round;stroke-linejoin:round"
     d="M 10,7 C 8.6867265,7 7.579296,7.8372505 7.1708985,9.007813 8.2052355,9.09652 8.9997415,9.961866 9,11 9,12.10457 8.1045695,13 7,13 v 1 c 1.1045695,0 2,0.895431 2,2 0,1.104569 -0.8954305,2 -2,2 v 1 c 1.1045695,0 2,0.89543 2,2 C 8.99401,22.035384 8.198779,22.895011 7.166992,22.981445 7.5723075,24.157667 8.6826895,25 10,25 h 7 l 3,-5 5,-3 V 10 C 25,8.3380015 23.661998,7 22,7 Z"
     sodipodi:nodetypes="sccccsccccscccsss" /><path
     id="rect481"
     style="fill:#e1301f;fill-opacity:1;stroke-width:0.583335"
     d="m 20,17 h 5 l -8,8 v -5 c 0,-1.662 1.338,-3 3,-3 z"
     sodipodi:nodetypes="sccss" /></svg>
