<?xml version="1.0" encoding="UTF-8" standalone="no"?>
<!-- Created with Inkscape (http://www.inkscape.org/) -->

<svg
   width="32"
   height="32"
   viewBox="0 0 32 32"
   version="1.1"
   id="svg371"
   xml:space="preserve"
   inkscape:version="1.2.1 (1:1.2.1+202210291243+9c6d41e410)"
   sodipodi:docname="accessories-calculator.svg"
   xmlns:inkscape="http://www.inkscape.org/namespaces/inkscape"
   xmlns:sodipodi="http://sodipodi.sourceforge.net/DTD/sodipodi-0.dtd"
   xmlns:xlink="http://www.w3.org/1999/xlink"
   xmlns="http://www.w3.org/2000/svg"
   xmlns:svg="http://www.w3.org/2000/svg"><sodipodi:namedview
     id="namedview373"
     pagecolor="#ffffff"
     bordercolor="#000000"
     borderopacity="0.25"
     inkscape:showpageshadow="2"
     inkscape:pageopacity="0.0"
     inkscape:pagecheckerboard="0"
     inkscape:deskcolor="#d1d1d1"
     inkscape:document-units="px"
     showgrid="false"
     inkscape:zoom="25.78125"
     inkscape:cx="15.980606"
     inkscape:cy="16"
     inkscape:window-width="1920"
     inkscape:window-height="1018"
     inkscape:window-x="0"
     inkscape:window-y="28"
     inkscape:window-maximized="1"
     inkscape:current-layer="svg371"
     showguides="true" /><defs
     id="defs368"><linearGradient
       inkscape:collect="always"
       id="linearGradient1285"><stop
         style="stop-color:#2e781e;stop-opacity:1;"
         offset="0"
         id="stop1281" /><stop
         style="stop-color:#83ba52;stop-opacity:1;"
         offset="1"
         id="stop1283" /></linearGradient><linearGradient
       inkscape:collect="always"
       xlink:href="#linearGradient1285"
       id="linearGradient3040"
       x1="32"
       y1="62"
       x2="32"
       y2="2"
       gradientUnits="userSpaceOnUse"
       gradientTransform="scale(0.5)" /></defs><path
     d="M 1,16 C 1,4.75 4.75,1 16,1 27.25,1 31,4.75 31,16 31,27.25 27.25,31 16,31 4.75,31 1,27.25 1,16"
     style="fill:url(#linearGradient3040);fill-opacity:1.0;stroke-width:0.15"
     id="path311" /><path
     id="rect844"
     style="fill:#ffffff;stroke-width:3.57771;stroke-linecap:round;stroke-linejoin:round"
     d="m 11,7 c -0.553999,0 -1,0.4460006 -1,1 v 2 H 8 c -0.5539994,0 -1,0.446001 -1,1 0,0.553999 0.4460006,1 1,1 h 2 v 2 c 0,0.553999 0.446001,1 1,1 0.553999,0 1,-0.446001 1,-1 v -2 h 2 c 0.553999,0 1,-0.446001 1,-1 0,-0.553999 -0.446001,-1 -1,-1 H 12 V 8 C 12,7.4460006 11.553999,7 11,7 Z" /><path
     id="rect844-7"
     style="fill:#ffffff;stroke-width:3.57771;stroke-linecap:round;stroke-linejoin:round"
     d="m 7.6718934,17.671894 c -0.3917365,0.391736 -0.391737,1.022475 0,1.414213 L 9.585786,21 7.671893,22.913893 c -0.3917363,0.391737 -0.3917365,1.022477 0,1.414213 0.3917364,0.391737 1.0224768,0.391738 1.414214,0 L 11,22.414214 l 1.913894,1.913892 c 0.391736,0.391737 1.022477,0.391737 1.414213,0 0.391737,-0.391736 0.391736,-1.022476 0,-1.414213 L 12.414214,21 14.328107,19.086107 c 0.391736,-0.391737 0.391737,-1.022477 0,-1.414213 -0.391736,-0.391737 -1.022477,-0.391737 -1.414213,0 L 11,19.585786 9.0861066,17.671894 c -0.391737,-0.391737 -1.0224767,-0.391737 -1.4142132,0 z"
     sodipodi:nodetypes="sscssscssscssscss" /><rect
     style="fill:#ffffff;stroke-width:4;stroke-linecap:round;stroke-linejoin:round"
     id="rect1008"
     width="8"
     height="2"
     x="17"
     y="10"
     ry="1" /><path
     id="rect1010"
     style="fill:#ffffff;stroke-width:4;stroke-linecap:round;stroke-linejoin:round"
     d="m 21,17 a 1,1 0 0 0 -1,1 1,1 0 0 0 1,1 1,1 0 0 0 1,-1 1,1 0 0 0 -1,-1 z m -3,3 c -0.553999,0 -1,0.446001 -1,1 0,0.553999 0.446001,1 1,1 h 6 c 0.553999,0 1,-0.446001 1,-1 0,-0.553999 -0.446001,-1 -1,-1 z m 3,3 a 1,1 0 0 0 -1,1 1,1 0 0 0 1,1 1,1 0 0 0 1,-1 1,1 0 0 0 -1,-1 z" /></svg>
