<?xml version="1.0" encoding="UTF-8" standalone="no"?>
<!-- Created with Inkscape (http://www.inkscape.org/) -->

<svg
   width="32"
   height="32"
   viewBox="0 0 32 32"
   version="1.1"
   id="svg371"
   xml:space="preserve"
   inkscape:version="1.2.2 (1:1.2.2+202305151914+b0a8486541)"
   sodipodi:docname="akregator.svg"
   xmlns:inkscape="http://www.inkscape.org/namespaces/inkscape"
   xmlns:sodipodi="http://sodipodi.sourceforge.net/DTD/sodipodi-0.dtd"
   xmlns:xlink="http://www.w3.org/1999/xlink"
   xmlns="http://www.w3.org/2000/svg"
   xmlns:svg="http://www.w3.org/2000/svg"><sodipodi:namedview
     id="namedview373"
     pagecolor="#ffffff"
     bordercolor="#000000"
     borderopacity="0.25"
     inkscape:showpageshadow="2"
     inkscape:pageopacity="0.0"
     inkscape:pagecheckerboard="0"
     inkscape:deskcolor="#d1d1d1"
     inkscape:document-units="px"
     showgrid="false"
     inkscape:zoom="25.1875"
     inkscape:cx="15.980149"
     inkscape:cy="16"
     inkscape:window-width="1920"
     inkscape:window-height="1008"
     inkscape:window-x="0"
     inkscape:window-y="0"
     inkscape:window-maximized="1"
     inkscape:current-layer="svg371"
     showguides="true" /><defs
     id="defs368"><linearGradient
       inkscape:collect="always"
       id="linearGradient997"><stop
         style="stop-color:#fe7008;stop-opacity:1;"
         offset="0"
         id="stop993" /><stop
         style="stop-color:#ff940a;stop-opacity:1;"
         offset="1"
         id="stop995" /></linearGradient><linearGradient
       inkscape:collect="always"
       xlink:href="#linearGradient997"
       id="linearGradient3040"
       x1="32"
       y1="62"
       x2="32"
       y2="2"
       gradientUnits="userSpaceOnUse"
       gradientTransform="scale(0.5)" /></defs><path
     d="M 1,16 C 1,4.75 4.75,1 16,1 27.25,1 31,4.75 31,16 31,27.25 27.25,31 16,31 4.75,31 1,27.25 1,16"
     style="fill:url(#linearGradient3040);fill-opacity:1.0;stroke-width:0.15"
     id="path311" /><rect
     style="fill:#ffffff;stroke-width:2;stroke-linecap:round"
     id="rect1051"
     width="18"
     height="18"
     x="7"
     y="7"
     ry="3" /><path
     id="path1232"
     style="fill:#da5b02;fill-opacity:1;stroke-width:0.409091;stroke-linecap:round"
     d="m 10,10 a 1,1 0 0 0 -1,1 1,1 0 0 0 1,1 c 5.53468,0 10,4.465319 10,10 a 1,1 0 0 0 1,1 1,1 0 0 0 1,-1 C 22,15.384441 16.61556,10 10,10 Z m 0,5 a 1,1 0 0 0 -1,1 1,1 0 0 0 1,1 c 2.77326,0 5,2.226737 5,5 a 1,1 0 0 0 1,1 1,1 0 0 0 1,-1 c 0,-3.854141 -3.14586,-7 -7,-7 z m 0.5,5 A 1.5,1.5 0 0 0 9,21.5 1.5,1.5 0 0 0 10.5,23 1.5,1.5 0 0 0 12,21.5 1.5,1.5 0 0 0 10.5,20 Z" /></svg>
