<?xml version="1.0" encoding="UTF-8" standalone="no"?>
<!-- Created with Inkscape (http://www.inkscape.org/) -->

<svg
   width="32"
   height="32"
   viewBox="0 0 32 32"
   version="1.1"
   id="svg371"
   xml:space="preserve"
   inkscape:version="1.2.2 (1:1.2.2+202305151914+b0a8486541)"
   sodipodi:docname="applications-graphics.svg"
   xmlns:inkscape="http://www.inkscape.org/namespaces/inkscape"
   xmlns:sodipodi="http://sodipodi.sourceforge.net/DTD/sodipodi-0.dtd"
   xmlns:xlink="http://www.w3.org/1999/xlink"
   xmlns="http://www.w3.org/2000/svg"
   xmlns:svg="http://www.w3.org/2000/svg"><sodipodi:namedview
     id="namedview373"
     pagecolor="#ffffff"
     bordercolor="#000000"
     borderopacity="0.25"
     inkscape:showpageshadow="2"
     inkscape:pageopacity="0.0"
     inkscape:pagecheckerboard="0"
     inkscape:deskcolor="#d1d1d1"
     inkscape:document-units="px"
     showgrid="false"
     inkscape:zoom="25.9375"
     inkscape:cx="15.980723"
     inkscape:cy="16"
     inkscape:window-width="1920"
     inkscape:window-height="1008"
     inkscape:window-x="0"
     inkscape:window-y="0"
     inkscape:window-maximized="1"
     inkscape:current-layer="svg371"
     showguides="false" /><defs
     id="defs368"><linearGradient
       inkscape:collect="always"
       id="linearGradient2222"><stop
         style="stop-color:#8550ec;stop-opacity:1;"
         offset="0"
         id="stop2218" /><stop
         style="stop-color:#7c86fc;stop-opacity:1;"
         offset="1"
         id="stop2220" /></linearGradient><linearGradient
       inkscape:collect="always"
       xlink:href="#linearGradient2222"
       id="linearGradient3251"
       x1="16"
       y1="31"
       x2="16"
       y2="1"
       gradientUnits="userSpaceOnUse" /></defs><path
     d="M 1,16 C 1,4.75 4.75,1 16,1 27.25,1 31,4.75 31,16 31,27.25 27.25,31 16,31 4.75,31 1,27.25 1,16"
     style="fill:url(#linearGradient3251);fill-opacity:1;stroke-width:0.15"
     id="path311" /><path
     id="path3653"
     style="opacity:0.5;fill:#ffffff;stroke-width:0.12834"
     d="M 16.005859 7 C 15.215791 7.00676 14.556275 7.0907102 14.09375 7.1503906 C 13.032763 7.296277 10.97568 7.5630362 8.9863281 9.0351562 C 6.1349235 11.143869 4.093277 15.241431 5.40625 17.177734 C 5.8836945 17.867377 6.6797196 18.132687 7.25 18.318359 C 9.730058 19.127362 11.37538 17.456218 12.462891 18.251953 C 13.404518 18.941595 12.197642 20.797946 13.285156 22.097656 C 13.802389 22.720986 15.000519 23.653808 16.125 23.630859 L 20.001953 20.296875 L 24.832031 11.527344 C 23.784306 10.002177 21.507087 8.4779472 20.724609 8.0800781 C 19.000503 7.1931585 17.322639 6.988732 16.005859 7 z M 17.5 9 A 1.5 1.5 0 0 1 19 10.5 A 1.5 1.5 0 0 1 17.5 12 A 1.5 1.5 0 0 1 16 10.5 A 1.5 1.5 0 0 1 17.5 9 z M 12.5 10 A 1.5 1.5 0 0 1 14 11.5 A 1.5 1.5 0 0 1 12.5 13 A 1.5 1.5 0 0 1 11 11.5 A 1.5 1.5 0 0 1 12.5 10 z M 8.5 13 A 1.5 1.5 0 0 1 10 14.5 A 1.5 1.5 0 0 1 8.5 16 A 1.5 1.5 0 0 1 7 14.5 A 1.5 1.5 0 0 1 8.5 13 z " /><path
     d="m 25.960765,9.000277 c -0.401428,-0.011685 -0.797971,0.186095 -1.018554,0.547852 -2.066273,3.375338 -4.132983,6.250711 -6.199254,9.626046 l 2.618164,1.514649 c 0.102673,0.06417 0.243592,0.0258 0.294922,-0.102539 1.796756,-3.413838 3.619156,-6.315724 5.428746,-9.729562 0.320851,-0.57753 0.115616,-1.309034 -0.461914,-1.629883 L 26.494945,9.14969 C 26.326499,9.05344 26.143233,9.005587 25.960765,9.000277 Z M 17.68513,20.564943 c -0.09248,0.0019 -0.184874,0.02024 -0.273438,0.05469 -0.590419,0.236168 -1.692278,0.800135 -2.177734,2.085938 -0.498577,1.285803 -0.183803,2.754925 0.787109,3.77832 0.05248,0.07872 0.314143,0.485786 0.655274,0.472656 0.209926,-0.01312 0.342051,-0.170721 0.394531,-0.236328 0.656022,-0.721624 0.970862,-1.089268 1.207031,-1.679687 0.249288,-0.603541 0.76052,-1.443358 2.033203,-2.558594 0.170562,-0.170566 0.144498,-0.459061 -0.06543,-0.577148 L 18.133372,20.68506 C 17.993967,20.60305 17.839269,20.56174 17.68513,20.564943 Z"
     style="fill:#ffffff;stroke-width:0.12834"
     id="path3825"
     sodipodi:nodetypes="scccccccsccccccccccc" /><path
     id="rect1333"
     style="fill:#5637bb;stroke-width:2;stroke-linecap:square"
     d="m 18.961942,19.300861 2.096247,1.212712 -0.812513,1.391214 -2.112304,-1.219727 z"
     sodipodi:nodetypes="ccccc" /></svg>
