<?xml version="1.0" encoding="UTF-8" standalone="no"?>
<!-- Created with Inkscape (http://www.inkscape.org/) -->

<svg
   width="32"
   height="32"
   viewBox="0 0 32 32"
   version="1.1"
   id="svg371"
   xml:space="preserve"
   inkscape:version="1.2.2 (1:1.2.2+202212051552+b0a8486541)"
   sodipodi:docname="applets-screenshooter.svg"
   xmlns:inkscape="http://www.inkscape.org/namespaces/inkscape"
   xmlns:sodipodi="http://sodipodi.sourceforge.net/DTD/sodipodi-0.dtd"
   xmlns:xlink="http://www.w3.org/1999/xlink"
   xmlns="http://www.w3.org/2000/svg"
   xmlns:svg="http://www.w3.org/2000/svg"><sodipodi:namedview
     id="namedview373"
     pagecolor="#ffffff"
     bordercolor="#000000"
     borderopacity="0.25"
     inkscape:showpageshadow="2"
     inkscape:pageopacity="0.0"
     inkscape:pagecheckerboard="0"
     inkscape:deskcolor="#d1d1d1"
     inkscape:document-units="px"
     showgrid="false"
     inkscape:zoom="25.3125"
     inkscape:cx="15.980247"
     inkscape:cy="16"
     inkscape:window-width="1920"
     inkscape:window-height="1012"
     inkscape:window-x="0"
     inkscape:window-y="0"
     inkscape:window-maximized="1"
     inkscape:current-layer="svg371"
     showguides="false" /><defs
     id="defs368"><linearGradient
       inkscape:collect="always"
       id="linearGradient966"><stop
         style="stop-color:#2e36bc;stop-opacity:1;"
         offset="0"
         id="stop962" /><stop
         style="stop-color:#4960d1;stop-opacity:1;"
         offset="1"
         id="stop964" /></linearGradient><linearGradient
       inkscape:collect="always"
       xlink:href="#linearGradient966"
       id="linearGradient3040"
       x1="32"
       y1="62"
       x2="32"
       y2="2"
       gradientUnits="userSpaceOnUse"
       gradientTransform="scale(0.5)" /></defs><path
     d="M 1,16 C 1,4.75 4.75,1 16,1 27.25,1 31,4.75 31,16 31,27.25 27.25,31 16,31 4.75,31 1,27.25 1,16"
     style="fill:url(#linearGradient3040);fill-opacity:1.0;stroke-width:0.15"
     id="path311" /><path
     d="m 7.9999998,6.0000006 c -1.107995,0 -2,0.892005 -2,2 v 1.5 c 0,0.2761409 0.223858,0.4999994 0.5,0.4999994 0.276142,0 0.5,-0.2238585 0.5,-0.4999994 2.15e-4,-0.0085 2.15e-4,-0.01693 0,-0.02539 v -1.47461 c 0,-0.553997 0.446003,-1 1,-1 h 1.5000004 c 0.276142,0 0.4999998,-0.223859 0.4999998,-0.5 0,-0.276142 -0.2238578,-0.5 -0.4999998,-0.5 z m 14.5000002,0 c -0.276142,2e-7 -0.5,0.223858 -0.5,0.5 0,0.276141 0.223858,0.5 0.5,0.5 H 24 c 0.553996,0 1,0.446003 1,1 v 1.474609 c -2.15e-4,0.0085 -2.15e-4,0.01689 0,0.02539 0,0.2761409 0.223858,0.4999999 0.5,0.4999999 0.276142,0 0.5,-0.223859 0.5,-0.4999999 v -1.5 c 0,-1.107995 -0.892005,-2.0000007 -2,-2 z M 6.4999998,22 c -0.276142,0 -0.5,0.223858 -0.5,0.5 V 24 c 0,1.107995 0.892005,2 2,2 H 9.5000002 C 9.7761422,26 10,25.776142 10,25.5 10,25.223858 9.7761422,25 9.5000002,25 H 7.9999998 c -0.553997,0 -1,-0.446004 -1,-1 v -1.474609 c 2.15e-4,-0.0085 2.15e-4,-0.01689 0,-0.02539 0,-0.276142 -0.223858,-0.5 -0.5,-0.500001 z M 25.5,22 c -0.276142,0 -0.5,0.223858 -0.5,0.5 -2.15e-4,0.0085 -2.15e-4,0.01689 0,0.02539 V 24 c 0,0.553996 -0.446004,1 -1,1 h -1.5 c -0.276142,0 -0.5,0.223858 -0.5,0.5 0,0.276142 0.223858,0.5 0.5,0.5 H 24 c 1.107995,0 2,-0.892005 2,-2 V 22.5 C 26,22.223858 25.776142,22 25.5,22 Z"
     style="opacity:0.6;fill:#ffffff;stroke-width:2;stroke-linecap:round;stroke-linejoin:round"
     id="path425"
     sodipodi:nodetypes="ssssccsssssssssssccssssssssssssssccssccsssssssss" /><path
     id="rect1020"
     style="fill:#ffffff;stroke-width:2;stroke-linecap:round;stroke-linejoin:round"
     d="M 14.5,11 13,13 h -1 c -1.107998,0 -2,0.892002 -2,2 v 4 c 0,1.107998 0.892002,2 2,2 h 8 c 1.107998,0 2,-0.892002 2,-2 v -4 c 0,-1.107998 -0.892002,-2 -2,-2 h -1 l -1.5,-2 z m 1.5,4 c 1.104569,0 2,0.895431 2,2 0,1.104569 -0.895431,2 -2,2 -1.104569,0 -2,-0.895431 -2,-2 0,-1.104569 0.895431,-2 2,-2 z"
     sodipodi:nodetypes="ccsssssssscccsssss" /></svg>
