<?xml version="1.0" encoding="UTF-8" standalone="no"?>
<!-- Created with Inkscape (http://www.inkscape.org/) -->

<svg
   width="32"
   height="32"
   viewBox="0 0 32 32"
   version="1.1"
   id="svg371"
   xml:space="preserve"
   inkscape:version="1.2.2 (1:1.2.2+202212051552+b0a8486541)"
   sodipodi:docname="com.github.GradienceTeam.Gradience.svg"
   xmlns:inkscape="http://www.inkscape.org/namespaces/inkscape"
   xmlns:sodipodi="http://sodipodi.sourceforge.net/DTD/sodipodi-0.dtd"
   xmlns:xlink="http://www.w3.org/1999/xlink"
   xmlns="http://www.w3.org/2000/svg"
   xmlns:svg="http://www.w3.org/2000/svg"><sodipodi:namedview
     id="namedview373"
     pagecolor="#ffffff"
     bordercolor="#000000"
     borderopacity="0.25"
     inkscape:showpageshadow="2"
     inkscape:pageopacity="0.0"
     inkscape:pagecheckerboard="0"
     inkscape:deskcolor="#d1d1d1"
     inkscape:document-units="px"
     showgrid="false"
     inkscape:zoom="25.3125"
     inkscape:cx="14.854321"
     inkscape:cy="16"
     inkscape:window-width="1920"
     inkscape:window-height="1012"
     inkscape:window-x="0"
     inkscape:window-y="0"
     inkscape:window-maximized="1"
     inkscape:current-layer="svg371"
     showguides="true" /><defs
     id="defs368"><linearGradient
       inkscape:collect="always"
       id="linearGradient1349"><stop
         style="stop-color:#ef3b00;stop-opacity:1;"
         offset="0"
         id="stop1345" /><stop
         style="stop-color:#fe2794;stop-opacity:1;"
         offset="1"
         id="stop1347" /></linearGradient><linearGradient
       inkscape:collect="always"
       xlink:href="#linearGradient1349"
       id="linearGradient3040"
       x1="62"
       y1="62"
       x2="17.700407"
       y2="7.6766477"
       gradientUnits="userSpaceOnUse"
       gradientTransform="scale(0.5)" /></defs><path
     d="M 1,16 C 1,4.75 4.75,1 16,1 27.25,1 31,4.75 31,16 31,27.25 27.25,31 16,31 4.75,31 1,27.25 1,16"
     style="fill:url(#linearGradient3040);fill-opacity:1;stroke-width:0.15"
     id="path311"
     sodipodi:nodetypes="csssc" /><path
     d="m 7,8 v 5 H 25 V 9 C 24.356286,8.5758675 23.844912,7.9893015 21,8 17.633745,7.9959 15.664237,9.460965 13,9.5 11.258386,9.4976 8.4443,9.225123 7,8 Z m 0,6 v 5 c -0.0026,1.006535 2.876281,1.631181 5,2 1.557182,0.290186 2.497458,-0.03274 2.5,2 5.86e-4,0.468919 -0.495244,1.393971 -0.5,2 0,1.104566 0.895433,2 2,2 1.104566,0 2,-0.895434 2,-2 -0.0048,-0.606029 -0.49333,-1.531129 -0.5,-2 0.0026,-1.986492 0.942819,-1.709814 2.5,-2 2.123719,-0.368819 5.0026,-0.993465 5,-2 v -5 z"
     style="fill:#ffffff;stroke-width:0.5"
     id="path598"
     sodipodi:nodetypes="ccccccccccscscccccc" /></svg>
