<?xml version="1.0" encoding="UTF-8" standalone="no"?>
<!-- Created with Inkscape (http://www.inkscape.org/) -->

<svg
   width="32"
   height="32"
   viewBox="0 0 32 32"
   version="1.1"
   id="svg371"
   xml:space="preserve"
   inkscape:version="1.2.2 (1:1.2.2+202305151914+b0a8486541)"
   sodipodi:docname="de.haeckerfelix.Fragments.svg"
   xmlns:inkscape="http://www.inkscape.org/namespaces/inkscape"
   xmlns:sodipodi="http://sodipodi.sourceforge.net/DTD/sodipodi-0.dtd"
   xmlns:xlink="http://www.w3.org/1999/xlink"
   xmlns="http://www.w3.org/2000/svg"
   xmlns:svg="http://www.w3.org/2000/svg"><sodipodi:namedview
     id="namedview373"
     pagecolor="#ffffff"
     bordercolor="#000000"
     borderopacity="0.25"
     inkscape:showpageshadow="2"
     inkscape:pageopacity="0.0"
     inkscape:pagecheckerboard="0"
     inkscape:deskcolor="#d1d1d1"
     inkscape:document-units="px"
     showgrid="false"
     inkscape:zoom="25.1875"
     inkscape:cx="16"
     inkscape:cy="16"
     inkscape:window-width="1920"
     inkscape:window-height="1008"
     inkscape:window-x="0"
     inkscape:window-y="0"
     inkscape:window-maximized="1"
     inkscape:current-layer="svg371"
     showguides="false" /><defs
     id="defs368"><radialGradient
       inkscape:collect="always"
       xlink:href="#linearGradient1134"
       id="radialGradient1125"
       gradientUnits="userSpaceOnUse"
       gradientTransform="matrix(0.36031427,0.30659613,-0.32743269,0.3848016,14.917253,7.9160425)"
       cx="-6.7739997"
       cy="37.021408"
       fx="-6.7739997"
       fy="37.021408"
       r="30" /><linearGradient
       inkscape:collect="always"
       id="linearGradient1134"><stop
         style="stop-color:#fae42f;stop-opacity:1;"
         offset="0"
         id="stop1128" /><stop
         style="stop-color:#fae422;stop-opacity:0.94117647"
         offset="0.5"
         id="stop1130" /><stop
         style="stop-color:#fae42f;stop-opacity:0"
         offset="1"
         id="stop1132" /></linearGradient><radialGradient
       inkscape:collect="always"
       xlink:href="#linearGradient1096"
       id="radialGradient1087"
       gradientUnits="userSpaceOnUse"
       gradientTransform="matrix(0.55195015,0.48673698,-0.29652943,0.33625859,-4.659676,-20.305745)"
       cx="32.31749"
       cy="35.957447"
       fx="32.31749"
       fy="35.957447"
       r="30" /><linearGradient
       inkscape:collect="always"
       id="linearGradient1096"><stop
         style="stop-color:#ffb25a;stop-opacity:1;"
         offset="0"
         id="stop1090" /><stop
         style="stop-color:#ffb25a;stop-opacity:0.50196081"
         offset="0.5"
         id="stop1092" /><stop
         style="stop-color:#ffb25a;stop-opacity:0"
         offset="1"
         id="stop1094" /></linearGradient><radialGradient
       inkscape:collect="always"
       xlink:href="#linearGradient1058"
       id="radialGradient1049"
       gradientUnits="userSpaceOnUse"
       gradientTransform="matrix(0.77442805,-0.6753803,0.48283537,0.5536457,-3.466289,19.724074)"
       cx="4.8273349"
       cy="29.936211"
       fx="4.8273349"
       fy="29.936211"
       r="30" /><linearGradient
       inkscape:collect="always"
       id="linearGradient1058"><stop
         style="stop-color:#32a9f4;stop-opacity:1;"
         offset="0"
         id="stop1052" /><stop
         style="stop-color:#32a9f4;stop-opacity:0.60000002"
         offset="0.5"
         id="stop1054" /><stop
         style="stop-color:#32a9f4;stop-opacity:0;"
         offset="1"
         id="stop1056" /></linearGradient><radialGradient
       inkscape:collect="always"
       xlink:href="#linearGradient990"
       id="radialGradient1019"
       gradientUnits="userSpaceOnUse"
       gradientTransform="matrix(-0.39295849,-0.33231828,0.44357628,-0.52451845,6.324881,39.574685)"
       cx="-1.4092577"
       cy="55.554527"
       fx="-1.4092577"
       fy="55.554527"
       r="30" /><linearGradient
       inkscape:collect="always"
       id="linearGradient990"><stop
         style="stop-color:#be3ce9;stop-opacity:1;"
         offset="0"
         id="stop984" /><stop
         style="stop-color:#be3ce9;stop-opacity:0.50196081"
         offset="0.5"
         id="stop986" /><stop
         style="stop-color:#be3ce9;stop-opacity:0"
         offset="1"
         id="stop988" /></linearGradient></defs><path
     d="M 1,16 C 1,4.75 4.75,1 16,1 27.25,1 31,4.75 31,16 31,27.25 27.25,31 16,31 4.75,31 1,27.25 1,16"
     style="fill:#f5466a;fill-opacity:1;stroke-width:0.15"
     id="path311" /><path
     id="path1106"
     style="fill:url(#radialGradient1125);fill-opacity:1;stroke-width:0.5;stroke-linecap:round;stroke-linejoin:round"
     d="M 16,1 C 4.7500112,1 1,4.7500112 1,16 1,27.249988 4.7500112,31 16,31 27.249988,31 31,27.249988 31,16 31,4.7500112 27.249988,1 16,1 Z" /><path
     id="path1068"
     style="fill:url(#radialGradient1087);fill-opacity:1;stroke-width:0.5;stroke-linecap:round;stroke-linejoin:round"
     d="M 16,1 C 4.7500112,1 1,4.7500112 1,16 1,27.249988 4.7500112,31 16,31 27.249988,31 31,27.249988 31,16 31,4.7500112 27.249988,1 16,1 Z" /><path
     id="path1030"
     style="fill:url(#radialGradient1049);fill-opacity:1;stroke-width:0.5;stroke-linecap:round;stroke-linejoin:round"
     d="M 16,1 C 4.7500111,1 1,4.7500113 1,16 1,27.249988 4.7500111,31 16,31 27.249988,31 31,27.249988 31,16 31,4.7500113 27.249988,1 16,1 Z" /><path
     id="path1000"
     style="fill:url(#radialGradient1019);fill-opacity:1;stroke-width:0.5;stroke-linecap:round;stroke-linejoin:round"
     d="M 16,1 C 4.7500113,1 1,4.7500114 1,16 1,27.249988 4.7500113,31 16,31 27.249988,31 31,27.249988 31,16 31,4.7500114 27.249988,1 16,1 Z" /><path
     id="path1144"
     style="fill:#ffffff;stroke-width:0.98265;stroke-linejoin:round"
     d="M 16,5 C 15.497632,5 14.995292,5.1922085 14.610352,5.5771485 L 5.5771485,14.610352 c -0.7698816,0.76988 -0.7698813,2.009416 0,2.779296 l 9.0332035,9.033203 c 0.76988,0.769882 2.009416,0.769882 2.779296,0 l 9.033203,-9.033203 c 0.769882,-0.769881 0.769882,-2.009416 0,-2.779296 L 17.389648,5.5771485 C 17.004708,5.1922085 16.502368,5 16,5 Z m 0,4 c 0.553999,0 1,0.446001 1,1 v 9.171875 l 3.242187,-3.243164 c 0.391737,-0.391736 1.023304,-0.391736 1.415039,0 0.391737,0.391736 0.391737,1.022326 0,1.414062 L 16,23 10.342774,17.342773 c -0.391736,-0.391736 -0.391736,-1.022326 0,-1.414062 0.391735,-0.391736 1.023303,-0.391736 1.415039,0 L 15,19.171875 V 10 c 0,-0.553999 0.446001,-1 1,-1 z"
     sodipodi:nodetypes="sccssssscsssccsscssccss" /></svg>
