<?xml version="1.0" encoding="UTF-8" standalone="no"?>
<!-- Created with Inkscape (http://www.inkscape.org/) -->

<svg
   width="32"
   height="32"
   viewBox="0 0 32 32"
   version="1.1"
   id="svg371"
   xml:space="preserve"
   inkscape:version="1.2 (1:1.2.1+202207142221+cd75a1ee6d)"
   sodipodi:docname="gmail.svg"
   xmlns:inkscape="http://www.inkscape.org/namespaces/inkscape"
   xmlns:sodipodi="http://sodipodi.sourceforge.net/DTD/sodipodi-0.dtd"
   xmlns="http://www.w3.org/2000/svg"
   xmlns:svg="http://www.w3.org/2000/svg"><sodipodi:namedview
     id="namedview373"
     pagecolor="#ffffff"
     bordercolor="#000000"
     borderopacity="0.25"
     inkscape:showpageshadow="2"
     inkscape:pageopacity="0.0"
     inkscape:pagecheckerboard="0"
     inkscape:deskcolor="#d1d1d1"
     inkscape:document-units="px"
     showgrid="false"
     inkscape:zoom="25.78125"
     inkscape:cx="15.980606"
     inkscape:cy="16.077576"
     inkscape:window-width="1920"
     inkscape:window-height="1018"
     inkscape:window-x="0"
     inkscape:window-y="28"
     inkscape:window-maximized="1"
     inkscape:current-layer="svg371"
     showguides="false" /><defs
     id="defs368" /><path
     d="M 1,16 C 1,4.75 4.75,1 16,1 27.25,1 31,4.75 31,16 31,27.25 27.25,31 16,31 4.75,31 1,27.25 1,16"
     style="fill:#f5f5f5;fill-opacity:1;stroke-width:0.15"
     id="path311" /><path
     id="path523"
     style="fill:#4285f4;stroke-width:0.5"
     d="M 6,10.867188 V 21.636719 C 6,22.389942 6.603735,23 7.349609,23 H 10 v -9.103516 z" /><path
     id="path391"
     style="fill:#34a853;stroke-width:0.5"
     d="m 26,10.867188 -4,3.029296 V 23 h 2.650391 C 25.396264,23 26,22.389941 26,21.636719 Z" /><path
     d="M 9.240001,13.955897 V 8.412665 l 6.76,5.041881 6.76,-5.041881 v 5.543232 l -6.76,5.043327 z"
     style="fill:#ea4335;stroke-width:0.5"
     id="path457"
     sodipodi:nodetypes="ccccccc" /><path
     id="path424"
     style="fill:#fbbc04;stroke-width:0.5"
     d="m 23.966797,8 c -0.410594,9e-6 -0.831459,0.127734 -1.207031,0.412109 L 22,8.988281 v 5.542969 l 4,-3.029297 V 10.048828 C 26,8.83787 25.016091,7.999977 23.966797,8 Z" /><path
     id="path490"
     style="fill:#c5221f;stroke-width:0.5"
     d="M 8.033203,8 C 6.983908,7.999977 6,8.83787 6,10.048828 v 1.453947 l 4,3.029296 V 8.988281 L 9.240234,8.412109 C 8.864661,8.127733 8.443797,8.000009 8.033203,8 Z"
     sodipodi:nodetypes="ssccccs" /></svg>
