<?xml version="1.0" encoding="UTF-8" standalone="no"?>
<!-- Created with Inkscape (http://www.inkscape.org/) -->

<svg
   width="32"
   height="32"
   viewBox="0 0 32 32"
   version="1.1"
   id="svg371"
   xml:space="preserve"
   inkscape:version="1.2.2 (1:1.2.2+202305151914+b0a8486541)"
   sodipodi:docname="hwloc.svg"
   xmlns:inkscape="http://www.inkscape.org/namespaces/inkscape"
   xmlns:sodipodi="http://sodipodi.sourceforge.net/DTD/sodipodi-0.dtd"
   xmlns:xlink="http://www.w3.org/1999/xlink"
   xmlns="http://www.w3.org/2000/svg"
   xmlns:svg="http://www.w3.org/2000/svg"><sodipodi:namedview
     id="namedview373"
     pagecolor="#ffffff"
     bordercolor="#000000"
     borderopacity="0.25"
     inkscape:showpageshadow="2"
     inkscape:pageopacity="0.0"
     inkscape:pagecheckerboard="0"
     inkscape:deskcolor="#d1d1d1"
     inkscape:document-units="px"
     showgrid="false"
     inkscape:zoom="25.1875"
     inkscape:cx="16"
     inkscape:cy="16"
     inkscape:window-width="1920"
     inkscape:window-height="1008"
     inkscape:window-x="0"
     inkscape:window-y="0"
     inkscape:window-maximized="1"
     inkscape:current-layer="svg371" /><defs
     id="defs368"><linearGradient
       inkscape:collect="always"
       xlink:href="#linearGradient869"
       id="linearGradient3040"
       x1="32"
       y1="62"
       x2="32"
       y2="2"
       gradientUnits="userSpaceOnUse"
       gradientTransform="scale(0.5)" /><linearGradient
       inkscape:collect="always"
       id="linearGradient869"><stop
         style="stop-color:#268f82;stop-opacity:1;"
         offset="0"
         id="stop865" /><stop
         style="stop-color:#31b7a5;stop-opacity:1;"
         offset="1"
         id="stop867" /></linearGradient></defs><path
     d="M 1,16 C 1,4.75 4.75,1 16,1 27.25,1 31,4.75 31,16 31,27.25 27.25,31 16,31 4.75,31 1,27.25 1,16"
     style="fill:url(#linearGradient3040);fill-opacity:1;stroke-width:0.15"
     id="path311" /><g
     id="g6922"
     transform="rotate(45,17.707107,15.292893)"><path
       id="rect2575"
       style="fill:#b5ebe4;fill-opacity:1;stroke-width:0.5"
       d="m 13,7 c -0.553999,0 -1,0.446001 -1,1 v 4 H 8 c -0.553999,0 -1,0.446001 -1,1 0,0.553999 0.446001,1 1,1 h 4 v 2 H 8 c -0.553999,0 -1,0.446 -1,1 0,0.553998 0.446001,1 1,1 h 4 v 2 H 8 c -0.553999,0 -1,0.446001 -1,1 0,0.553999 0.446001,1 1,1 h 4 v 4 c 0,0.553999 0.446001,1 1,1 0.553999,0 1,-0.446001 1,-1 v -4 h 2 v 4 c 0,0.553999 0.446001,1 1,1 0.553999,0 1,-0.446001 1,-1 v -4 h 2 v 4 c 0,0.553999 0.446001,1 1,1 0.553999,0 1,-0.446001 1,-1 v -4 h 4 c 0.553999,0 1,-0.446001 1,-1 0,-0.553999 -0.446001,-1 -1,-1 h -4 v -2 h 4 c 0.553999,0 1,-0.446002 1,-1 0,-0.554 -0.446001,-1 -1,-1 h -4 v -2 h 4 c 0.553999,0 1,-0.446001 1,-1 0,-0.553999 -0.446001,-1 -1,-1 H 22 V 8 C 22,7.446001 21.553999,7 21,7 20.446001,7 20,7.446001 20,8 v 4 H 18 V 8 C 18,7.446001 17.553999,7 17,7 16.446001,7 16,7.446001 16,8 v 4 H 14 V 8 C 14,7.446001 13.553999,7 13,7 Z m 1,7 h 2 v 2 h -2 z m 4,0 h 2 v 2 h -2 z m -4,4 h 2 v 2 h -2 z m 4,0 h 2 v 2 h -2 z" /><rect
       style="fill:#ffffff;fill-opacity:1;stroke-width:0.5"
       id="rect2521"
       width="16"
       height="16"
       x="9"
       y="9"
       ry="3" /><rect
       style="fill:#196359;fill-opacity:1;stroke-width:0.5;stroke-linecap:round;stroke-linejoin:round"
       id="rect6876"
       width="5"
       height="5"
       x="11"
       y="18"
       ry="1" /><rect
       style="fill:#196359;fill-opacity:1;stroke-width:0.5;stroke-linecap:round;stroke-linejoin:round"
       id="rect6878"
       width="5"
       height="5"
       x="18"
       y="18"
       ry="1" /></g></svg>
