<?xml version="1.0" encoding="UTF-8" standalone="no"?>
<!-- Created with Inkscape (http://www.inkscape.org/) -->

<svg
   width="32"
   height="32"
   viewBox="0 0 32 32"
   version="1.1"
   id="svg371"
   xml:space="preserve"
   inkscape:version="1.2 (1:1.2.1+202207142221+cd75a1ee6d)"
   sodipodi:docname="internet-mail.svg"
   xmlns:inkscape="http://www.inkscape.org/namespaces/inkscape"
   xmlns:sodipodi="http://sodipodi.sourceforge.net/DTD/sodipodi-0.dtd"
   xmlns:xlink="http://www.w3.org/1999/xlink"
   xmlns="http://www.w3.org/2000/svg"
   xmlns:svg="http://www.w3.org/2000/svg"><sodipodi:namedview
     id="namedview373"
     pagecolor="#ffffff"
     bordercolor="#000000"
     borderopacity="0.25"
     inkscape:showpageshadow="2"
     inkscape:pageopacity="0.0"
     inkscape:pagecheckerboard="0"
     inkscape:deskcolor="#d1d1d1"
     inkscape:document-units="px"
     showgrid="false"
     inkscape:zoom="25.78125"
     inkscape:cx="16.019394"
     inkscape:cy="16.077576"
     inkscape:window-width="1920"
     inkscape:window-height="1018"
     inkscape:window-x="0"
     inkscape:window-y="28"
     inkscape:window-maximized="1"
     inkscape:current-layer="svg371"
     showguides="false" /><defs
     id="defs368"><linearGradient
       inkscape:collect="always"
       id="linearGradient1120"><stop
         style="stop-color:#db280f;stop-opacity:1;"
         offset="0"
         id="stop1116" /><stop
         style="stop-color:#dd5b4e;stop-opacity:1;"
         offset="1"
         id="stop1118" /></linearGradient><linearGradient
       inkscape:collect="always"
       xlink:href="#linearGradient1120"
       id="linearGradient3040"
       x1="32"
       y1="62"
       x2="32"
       y2="2"
       gradientUnits="userSpaceOnUse"
       gradientTransform="scale(0.5)" /></defs><path
     d="M 1,16 C 1,4.75 4.75,1 16,1 27.25,1 31,4.75 31,16 31,27.25 27.25,31 16,31 4.75,31 1,27.25 1,16"
     style="fill:url(#linearGradient3040);fill-opacity:1.0;stroke-width:0.15"
     id="path311" /><rect
     style="fill:#ffffff;stroke-width:2.84605;stroke-linecap:round;stroke-linejoin:round"
     id="rect898"
     width="18"
     height="14"
     x="7"
     y="9"
     ry="2" /><path
     id="rect952"
     style="fill:#c02a2a;stroke-width:3.04933;stroke-linecap:round;stroke-linejoin:round;fill-opacity:1"
     d="M -14.877755 0.38685652 C -14.688307 0.16373058 -14.595185 -0.14001067 -14.650035 -0.4528177 C -14.747545 -1.0089191 -15.272073 -1.378786 -15.825082 -1.2807303 L -23.311692 0.047693228 C -23.568547 0.09323689 -23.783473 0.23217501 -23.932098 0.4226418 C -24.09282 0.60290097 -24.191565 0.83987126 -24.191565 1.1021468 L -24.192497 8.7469159 C -24.192497 9.3115961 -23.739191 9.7668159 -23.17765 9.7668159 C -22.61611 9.7668159 -22.164034 9.3118788 -22.164034 8.7471986 L -22.163803 1.9147121 L -15.472566 0.72803528 C -15.230625 0.68513592 -15.025104 0.56039892 -14.877755 0.38685652 z "
     transform="matrix(-0.65485252,-0.75575669,0.77608402,-0.63062952,0,0)" /></svg>
