<?xml version="1.0" encoding="UTF-8" standalone="no"?>
<!-- Created with Inkscape (http://www.inkscape.org/) -->

<svg
   width="32"
   height="32"
   viewBox="0 0 32 32"
   version="1.1"
   id="svg371"
   xml:space="preserve"
   inkscape:version="1.2.2 (1:1.2.2+202305151914+b0a8486541)"
   sodipodi:docname="kalarm.svg"
   xmlns:inkscape="http://www.inkscape.org/namespaces/inkscape"
   xmlns:sodipodi="http://sodipodi.sourceforge.net/DTD/sodipodi-0.dtd"
   xmlns:xlink="http://www.w3.org/1999/xlink"
   xmlns="http://www.w3.org/2000/svg"
   xmlns:svg="http://www.w3.org/2000/svg"><sodipodi:namedview
     id="namedview373"
     pagecolor="#ffffff"
     bordercolor="#000000"
     borderopacity="0.25"
     inkscape:showpageshadow="2"
     inkscape:pageopacity="0.0"
     inkscape:pagecheckerboard="0"
     inkscape:deskcolor="#d1d1d1"
     inkscape:document-units="px"
     showgrid="false"
     inkscape:zoom="25.1875"
     inkscape:cx="16"
     inkscape:cy="16"
     inkscape:window-width="1920"
     inkscape:window-height="1008"
     inkscape:window-x="0"
     inkscape:window-y="0"
     inkscape:window-maximized="1"
     inkscape:current-layer="svg371"
     showguides="false" /><defs
     id="defs368"><linearGradient
       inkscape:collect="always"
       id="linearGradient1836"><stop
         style="stop-color:#ff9b11;stop-opacity:1;"
         offset="0"
         id="stop1832" /><stop
         style="stop-color:#f9c100;stop-opacity:1;"
         offset="1"
         id="stop1834" /></linearGradient><linearGradient
       inkscape:collect="always"
       xlink:href="#linearGradient1836"
       id="linearGradient5157"
       x1="16"
       y1="31"
       x2="16"
       y2="1"
       gradientUnits="userSpaceOnUse" /></defs><path
     d="M 1,16 C 1,4.75 4.75,1 16,1 27.25,1 31,4.75 31,16 31,27.25 27.25,31 16,31 4.75,31 1,27.25 1,16"
     style="fill:url(#linearGradient5157);fill-opacity:1;stroke-width:0.15"
     id="path311" /><path
     id="path6057"
     style="color:#000000;display:inline;overflow:visible;visibility:visible;fill:#ffffff;fill-opacity:1;fill-rule:nonzero;stroke:none;stroke-width:4;marker:none;enable-background:accumulate"
     d="m 16,5 c -0.692516,0 -1.49999,0.5575298 -1.5,1.25 -2.9e-4,0.01381 -1.8e-4,0.02569 0,0.039063 -2.830852,0.5352758 -3.995455,2.612693 -4,5.710937 0.0059,3.036702 -0.07915,5.817399 -2.5,7 0.299409,0.947781 4.469095,1.963364 8,2 3.530905,-0.03664 7.700591,-1.052219 8,-2 -2.420853,-1.182601 -2.5059,-3.963298 -2.5,-7 -0.0045,-3.098244 -1.169148,-5.175662 -4,-5.7109375 1.8e-4,-0.01337 2.9e-4,-0.025252 0,-0.039063 C 17.49999,5.5575297 16.692516,5 16,5 Z"
     sodipodi:nodetypes="scccccccccs" /><circle
     style="fill:#ffdd86;fill-opacity:1;stroke-width:2;stroke-linecap:round;stroke-linejoin:round"
     id="path415"
     cx="16"
     cy="25"
     r="2" /></svg>
