<?xml version="1.0" encoding="UTF-8" standalone="no"?>
<!-- Created with Inkscape (http://www.inkscape.org/) -->

<svg
   width="32"
   height="32"
   viewBox="0 0 32 32"
   version="1.1"
   id="svg371"
   xml:space="preserve"
   inkscape:version="1.2 (1:1.2.1+202207142221+cd75a1ee6d)"
   sodipodi:docname="kate.svg"
   xmlns:inkscape="http://www.inkscape.org/namespaces/inkscape"
   xmlns:sodipodi="http://sodipodi.sourceforge.net/DTD/sodipodi-0.dtd"
   xmlns:xlink="http://www.w3.org/1999/xlink"
   xmlns="http://www.w3.org/2000/svg"
   xmlns:svg="http://www.w3.org/2000/svg"><sodipodi:namedview
     id="namedview373"
     pagecolor="#ffffff"
     bordercolor="#000000"
     borderopacity="0.25"
     inkscape:showpageshadow="2"
     inkscape:pageopacity="0.0"
     inkscape:pagecheckerboard="0"
     inkscape:deskcolor="#d1d1d1"
     inkscape:document-units="px"
     showgrid="false"
     inkscape:zoom="25.78125"
     inkscape:cx="15.980606"
     inkscape:cy="16"
     inkscape:window-width="1920"
     inkscape:window-height="1018"
     inkscape:window-x="0"
     inkscape:window-y="28"
     inkscape:window-maximized="1"
     inkscape:current-layer="svg371"
     showguides="true" /><defs
     id="defs368"><linearGradient
       inkscape:collect="always"
       id="linearGradient1795"><stop
         style="stop-color:#2374eb;stop-opacity:1;"
         offset="0"
         id="stop1791" /><stop
         style="stop-color:#1ebee9;stop-opacity:1;"
         offset="1"
         id="stop1793" /></linearGradient><linearGradient
       inkscape:collect="always"
       xlink:href="#linearGradient1795"
       id="linearGradient3040"
       x1="32"
       y1="62"
       x2="32"
       y2="2"
       gradientUnits="userSpaceOnUse"
       gradientTransform="scale(0.5)" /></defs><path
     d="M 1,16 C 1,4.75 4.75,1 16,1 27.25,1 31,4.75 31,16 31,27.25 27.25,31 16,31 4.75,31 1,27.25 1,16"
     style="fill:url(#linearGradient3040);fill-opacity:1;stroke-width:0.15"
     id="path311" /><path
     d="M 13.014447,11.564376 C 12.254333,9.040914 7.9588105,9.653246 7.240799,9.598462 8.046685,9.198422 8.7703945,9.346372 10.43177,8.1428575 13.632298,5.824374 15.877752,5.793558 17.574627,6.714286 c -4.639009,0.176348 -2.607606,2.762426 -1.924322,4.094095 -0.868936,0.252399 -2.240616,0.633412 -2.635858,0.755995 z"
     style="fill:#ececec;fill-opacity:1;stroke-width:0.714285"
     id="path1099" /><path
     d="m 24.46544,8.0919785 c -1.670511,2.2065405 -4.447909,5.1877295 -7.487611,5.5804275 -3.039702,0.392696 -6.223234,-0.04234 -6.894499,2.221489 -0.618171,2.084779 1.841671,4.031234 4.096657,3.562115 2.40903,-0.50117 1.888764,-3.231632 0.57112,-5.091008 1.000875,-0.05739 0.41197,0.291978 2.109234,0.206426 l 1.102436,3.437488 C 18.595618,19.597404 20.138776,23.202639 20.43177,26 19.022803,23.975401 18.298118,23.231366 16.114551,21.770758 13.317545,19.899816 10.766621,19.836477 9.455529,17.080005 8.1472675,14.329488 10.164598,12.348186 13.263276,11.490143 17.691513,10.263935 21.50703,9.101378 24.46544,8.0919785 Z"
     style="fill:#ffffff;stroke-width:0.714285"
     id="path918" /><path
     d="m 14.751108,14.365002 c 1.000875,-0.05739 0.814696,-0.04254 2.511961,-0.128086 2.529866,2.156438 3.368416,2.902572 7.788245,6.048798 -4.442523,-0.317802 -7.803856,-1.759338 -10.300206,-5.920712 z"
     style="fill:#ececec;fill-opacity:1;stroke-width:0.714285"
     id="path1066" /><path
     d="M 7.240799,9.598462 C 8.046685,9.198422 8.7749745,8.868672 10.436351,7.6651575 13.636879,5.346674 17.025389,5.8523025 18.722265,6.77303 14.083256,6.9493785 14.680979,7.873694 14.663859,8.598302 11.581689,7.94862 10.681761,8.8325725 7.240799,9.598462 Z"
     style="fill:#cccccc;fill-opacity:1;stroke-width:0.714285"
     id="path1033" /><path
     d="m 18.722265,6.77303 c -4.639009,0.1763485 -3.755243,2.70368 -3.071959,4.035351 -0.541347,0.157243 -0.771295,0.336378 -1.494964,0.527901 -2.919927,-5.202814 2.183745,-5.879669 4.566923,-4.563252 z"
     style="fill:#ffffff;stroke-width:0.714285"
     id="path1132" /><path
     d="M 10.290869,18.376144 C 8.0207915,15.45314 8.7256045,12.773952 13.170745,11.381934 17.557361,10.008242 21.50703,9.101378 24.46544,8.0919785 16.481781,11.133926 6.199008,13.166542 10.290869,18.376144 Z"
     style="fill:#cccccc;fill-opacity:1;stroke-width:0.714285"
     id="path1000" /></svg>
