<?xml version="1.0" encoding="UTF-8" standalone="no"?>
<!-- Created with Inkscape (http://www.inkscape.org/) -->

<svg
   width="32"
   height="32"
   viewBox="0 0 32 32"
   version="1.1"
   id="svg371"
   xml:space="preserve"
   inkscape:version="1.2.2 (1:1.2.2+202212051552+b0a8486541)"
   sodipodi:docname="kmousetool.svg"
   xmlns:inkscape="http://www.inkscape.org/namespaces/inkscape"
   xmlns:sodipodi="http://sodipodi.sourceforge.net/DTD/sodipodi-0.dtd"
   xmlns:xlink="http://www.w3.org/1999/xlink"
   xmlns="http://www.w3.org/2000/svg"
   xmlns:svg="http://www.w3.org/2000/svg"><sodipodi:namedview
     id="namedview373"
     pagecolor="#ffffff"
     bordercolor="#000000"
     borderopacity="0.25"
     inkscape:showpageshadow="2"
     inkscape:pageopacity="0.0"
     inkscape:pagecheckerboard="0"
     inkscape:deskcolor="#d1d1d1"
     inkscape:document-units="px"
     showgrid="false"
     inkscape:zoom="25.3125"
     inkscape:cx="15.980247"
     inkscape:cy="16"
     inkscape:window-width="1920"
     inkscape:window-height="1012"
     inkscape:window-x="0"
     inkscape:window-y="0"
     inkscape:window-maximized="1"
     inkscape:current-layer="svg371"
     showguides="true"
     inkscape:lockguides="true" /><defs
     id="defs368"><linearGradient
       inkscape:collect="always"
       id="linearGradient2212"><stop
         style="stop-color:#007e9a;stop-opacity:1;"
         offset="0"
         id="stop2208" /><stop
         style="stop-color:#00a4c7;stop-opacity:1;"
         offset="1"
         id="stop2210" /></linearGradient><linearGradient
       inkscape:collect="always"
       xlink:href="#linearGradient2212"
       id="linearGradient2214"
       x1="16"
       y1="31"
       x2="16"
       y2="1"
       gradientUnits="userSpaceOnUse" /></defs><path
     d="M 1,16 C 1,4.75 4.75,1 16,1 27.25,1 31,4.75 31,16 31,27.25 27.25,31 16,31 4.75,31 1,27.25 1,16"
     style="fill:url(#linearGradient2214);fill-opacity:1;stroke-width:0.15"
     id="path311" /><path
     id="rect1282"
     style="fill:#ffffff;stroke-width:2;stroke-linecap:round;stroke-linejoin:round"
     d="M 14,6 C 11.230008,6 9,8.230009 9,11 v 8 c 0,3.877988 3.122012,7 7,7 3.877988,0 7,-3.122012 7,-7 V 11 C 23,8.230009 20.769991,6 18,6 Z"
     sodipodi:nodetypes="ssssssss" /><rect
     style="fill:#00596d;stroke-width:3;stroke-linecap:round;stroke-linejoin:round;fill-opacity:1"
     id="rect1629"
     width="2"
     height="6"
     x="15"
     y="8"
     ry="1" /></svg>
