<?xml version="1.0" encoding="UTF-8" standalone="no"?>
<!-- Created with Inkscape (http://www.inkscape.org/) -->

<svg
   width="32"
   height="32"
   viewBox="0 0 32 32"
   version="1.1"
   id="svg371"
   xml:space="preserve"
   inkscape:version="1.2.2 (1:1.2.2+202212051552+b0a8486541)"
   sodipodi:docname="kontact.svg"
   xmlns:inkscape="http://www.inkscape.org/namespaces/inkscape"
   xmlns:sodipodi="http://sodipodi.sourceforge.net/DTD/sodipodi-0.dtd"
   xmlns:xlink="http://www.w3.org/1999/xlink"
   xmlns="http://www.w3.org/2000/svg"
   xmlns:svg="http://www.w3.org/2000/svg"><sodipodi:namedview
     id="namedview373"
     pagecolor="#ffffff"
     bordercolor="#000000"
     borderopacity="0.25"
     inkscape:showpageshadow="2"
     inkscape:pageopacity="0.0"
     inkscape:pagecheckerboard="0"
     inkscape:deskcolor="#d1d1d1"
     inkscape:document-units="px"
     showgrid="false"
     inkscape:zoom="25.3125"
     inkscape:cx="15.980247"
     inkscape:cy="16"
     inkscape:window-width="1920"
     inkscape:window-height="1012"
     inkscape:window-x="0"
     inkscape:window-y="0"
     inkscape:window-maximized="1"
     inkscape:current-layer="svg371"
     showguides="false" /><defs
     id="defs368"><linearGradient
       inkscape:collect="always"
       id="linearGradient1014"><stop
         style="stop-color:#9e704b;stop-opacity:1;"
         offset="0"
         id="stop1010" /><stop
         style="stop-color:#c99970;stop-opacity:1;"
         offset="1"
         id="stop1012" /></linearGradient><linearGradient
       inkscape:collect="always"
       xlink:href="#linearGradient1014"
       id="linearGradient3040"
       x1="32"
       y1="62"
       x2="32"
       y2="2"
       gradientUnits="userSpaceOnUse"
       gradientTransform="scale(0.5)" /></defs><path
     d="M 1,16 C 1,4.75 4.75,1 16,1 27.25,1 31,4.75 31,16 31,27.25 27.25,31 16,31 4.75,31 1,27.25 1,16"
     style="fill:url(#linearGradient3040);fill-opacity:1.0;stroke-width:0.15"
     id="path311" /><rect
     style="fill:#ffffff;stroke-width:2.84605;stroke-linecap:round;stroke-linejoin:round"
     id="rect898"
     width="18"
     height="14"
     x="7"
     y="9"
     ry="2" /><path
     id="rect952"
     style="fill:#71542a;fill-opacity:1;stroke-width:3.04857;stroke-linecap:round;stroke-linejoin:round"
     d="m 10.042969,11 c -0.2972254,-0.0025 -0.5939353,0.118704 -0.8007812,0.357422 -0.3677267,0.424388 -0.311286,1.054053 0.1269528,1.410156 l 5.9335934,4.820313 c 0.203548,0.165398 0.45212,0.240212 0.697266,0.232422 0.245146,0.0078 0.493718,-0.06702 0.697266,-0.232422 l 5.933593,-4.820313 c 0.438239,-0.356104 0.49468,-0.985768 0.126953,-1.410156 -0.367726,-0.424388 -1.016838,-0.479151 -1.455078,-0.123047 L 16,15.542969 10.697265,11.234375 C 10.505536,11.07858 10.274144,11.001919 10.042969,11 Z" /></svg>
