<?xml version="1.0" encoding="UTF-8" standalone="no"?>
<!-- Created with Inkscape (http://www.inkscape.org/) -->

<svg
   width="32"
   height="32"
   viewBox="0 0 32 32"
   version="1.1"
   id="svg371"
   xml:space="preserve"
   inkscape:version="1.2.2 (b0a8486541, 2022-12-01)"
   sodipodi:docname="konversation.svg"
   xmlns:inkscape="http://www.inkscape.org/namespaces/inkscape"
   xmlns:sodipodi="http://sodipodi.sourceforge.net/DTD/sodipodi-0.dtd"
   xmlns:xlink="http://www.w3.org/1999/xlink"
   xmlns="http://www.w3.org/2000/svg"
   xmlns:svg="http://www.w3.org/2000/svg"><sodipodi:namedview
     id="namedview373"
     pagecolor="#ffffff"
     bordercolor="#000000"
     borderopacity="0.25"
     inkscape:showpageshadow="2"
     inkscape:pageopacity="0.0"
     inkscape:pagecheckerboard="0"
     inkscape:deskcolor="#d1d1d1"
     inkscape:document-units="px"
     showgrid="false"
     inkscape:zoom="24.6875"
     inkscape:cx="15.979747"
     inkscape:cy="16"
     inkscape:window-width="1920"
     inkscape:window-height="1011"
     inkscape:window-x="0"
     inkscape:window-y="0"
     inkscape:window-maximized="1"
     inkscape:current-layer="svg371"
     showguides="true" /><defs
     id="defs368"><linearGradient
       inkscape:collect="always"
       id="linearGradient1078"><stop
         style="stop-color:#139cde;stop-opacity:1;"
         offset="0"
         id="stop1074" /><stop
         style="stop-color:#1ecfe9;stop-opacity:1;"
         offset="1"
         id="stop1076" /></linearGradient><linearGradient
       inkscape:collect="always"
       xlink:href="#linearGradient1078"
       id="linearGradient3040"
       x1="32"
       y1="62"
       x2="32"
       y2="2"
       gradientUnits="userSpaceOnUse"
       gradientTransform="scale(0.5)" /></defs><path
     d="M 1,16 C 1,4.75 4.75,1 16,1 27.25,1 31,4.75 31,16 31,27.25 27.25,31 16,31 4.75,31 1,27.25 1,16"
     style="fill:url(#linearGradient3040);fill-opacity:1.0;stroke-width:0.15"
     id="path311" /><path
     id="path921"
     style="opacity:1;fill:#ffffff;stroke-width:1.0247"
     d="M 16 6 A 10.5 9 0 0 0 5.5 15 A 10.5 9 0 0 0 10.271484 22.535156 C 9.9931324 23.790128 9.5909326 24.96835 9 26 C 10.50246 25.283451 11.821333 24.536595 13.052734 23.636719 A 10.5 9 0 0 0 16 24 A 10.5 9 0 0 0 26.5 15 A 10.5 9 0 0 0 16 6 z " /><path
     id="rect345"
     d="M 23 10 L 12 12 L 12 17 L 23 19 L 23 10 z M 10 12 C 9.4460012 12 9 12.446002 9 13 L 9 16 C 9 16.553998 9.4460012 17 10 17 L 11 17 L 11 12 L 10 12 z M 12 18 L 12 21 L 14 21 L 14 18 L 12 18 z "
     style="fill:#0f78a8;fill-opacity:1" /></svg>
