<?xml version="1.0" encoding="UTF-8" standalone="no"?>
<!-- Created with Inkscape (http://www.inkscape.org/) -->

<svg
   width="32"
   height="32"
   viewBox="0 0 32 32"
   version="1.1"
   id="svg371"
   xml:space="preserve"
   inkscape:version="1.2.1 (1:1.2.1+202210291243+9c6d41e410)"
   sodipodi:docname="kopete.svg"
   xmlns:inkscape="http://www.inkscape.org/namespaces/inkscape"
   xmlns:sodipodi="http://sodipodi.sourceforge.net/DTD/sodipodi-0.dtd"
   xmlns:xlink="http://www.w3.org/1999/xlink"
   xmlns="http://www.w3.org/2000/svg"
   xmlns:svg="http://www.w3.org/2000/svg"><sodipodi:namedview
     id="namedview373"
     pagecolor="#ffffff"
     bordercolor="#000000"
     borderopacity="0.25"
     inkscape:showpageshadow="2"
     inkscape:pageopacity="0.0"
     inkscape:pagecheckerboard="0"
     inkscape:deskcolor="#d1d1d1"
     inkscape:document-units="px"
     showgrid="false"
     inkscape:zoom="25.78125"
     inkscape:cx="15.980606"
     inkscape:cy="16"
     inkscape:window-width="1920"
     inkscape:window-height="1018"
     inkscape:window-x="0"
     inkscape:window-y="28"
     inkscape:window-maximized="1"
     inkscape:current-layer="svg371"
     showguides="true" /><defs
     id="defs368"><linearGradient
       inkscape:collect="always"
       xlink:href="#linearGradient3251"
       id="linearGradient3040"
       x1="32"
       y1="62"
       x2="32"
       y2="2"
       gradientUnits="userSpaceOnUse"
       gradientTransform="scale(0.5)" /><linearGradient
       inkscape:collect="always"
       id="linearGradient3251"><stop
         style="stop-color:#1365de;stop-opacity:1;"
         offset="0"
         id="stop3247" /><stop
         style="stop-color:#1e87e9;stop-opacity:1;"
         offset="1"
         id="stop3249" /></linearGradient></defs><path
     d="M 1,16 C 1,4.75 4.75,1 16,1 27.25,1 31,4.75 31,16 31,27.25 27.25,31 16,31 4.75,31 1,27.25 1,16"
     style="fill:url(#linearGradient3040);fill-opacity:1.0;stroke-width:0.15"
     id="path311" /><path
     id="path921"
     style="opacity:1;fill:#ffffff;stroke-width:1.0247"
     d="m 16,6 a 10.5,9 0 0 0 -10.5,9 10.5,9 0 0 0 4.771484,7.535156 C 9.993132,23.790128 9.590933,24.96835 9,26 c 1.50246,-0.716549 2.821333,-1.463405 4.052734,-2.363281 A 10.5,9 0 0 0 16,24 10.5,9 0 0 0 26.5,15 10.5,9 0 0 0 16,6 Z" /><path
     id="path1127"
     style="fill:#1c5cd7;fill-opacity:1;stroke-width:0.333333"
     d="m 20.242188,9.7578125 c -0.265201,3.98e-5 -0.519526,0.1054228 -0.707032,0.2929685 -0.390424,0.390507 -0.390424,1.023556 0,1.414063 1.960993,1.960993 1.960993,5.109319 0,7.070312 -0.390424,0.390507 -0.390424,1.023556 0,1.414063 0.390507,0.390424 1.023556,0.390424 1.414063,0 2.725289,-2.72529 2.725289,-7.173148 0,-9.898438 C 20.761714,9.8632356 20.507389,9.7578526 20.242188,9.7578125 Z M 11,11 c -0.552284,0 -1,0.447717 -1,1 0,0.552284 0.447716,1 1,1 0.552284,0 1,-0.447716 1,-1 0,-0.552283 -0.447716,-1 -1,-1 z m 3,3 c -0.553999,0 -1,0.446001 -1,1 0,0.553999 0.446001,1 1,1 h 3 c 0.553999,0 1,-0.446001 1,-1 0,-0.553999 -0.446001,-1 -1,-1 z m -3,3 c -0.552284,0 -1,0.447718 -1,1 0,0.552284 0.447716,1 1,1 0.552284,0 1,-0.447716 1,-1 0,-0.552282 -0.447716,-1 -1,-1 z"
     sodipodi:nodetypes="csccccccsssssssssssssssss" /></svg>
