<?xml version="1.0" encoding="UTF-8" standalone="no"?>
<!-- Created with Inkscape (http://www.inkscape.org/) -->

<svg
   width="32"
   height="32"
   viewBox="0 0 32 32"
   version="1.1"
   id="svg371"
   xml:space="preserve"
   inkscape:version="1.2.2 (b0a8486541, 2022-12-01)"
   sodipodi:docname="libreoffice-impress.svg"
   xmlns:inkscape="http://www.inkscape.org/namespaces/inkscape"
   xmlns:sodipodi="http://sodipodi.sourceforge.net/DTD/sodipodi-0.dtd"
   xmlns:xlink="http://www.w3.org/1999/xlink"
   xmlns="http://www.w3.org/2000/svg"
   xmlns:svg="http://www.w3.org/2000/svg"><sodipodi:namedview
     id="namedview373"
     pagecolor="#ffffff"
     bordercolor="#000000"
     borderopacity="0.25"
     inkscape:showpageshadow="2"
     inkscape:pageopacity="0.0"
     inkscape:pagecheckerboard="0"
     inkscape:deskcolor="#d1d1d1"
     inkscape:document-units="px"
     showgrid="false"
     inkscape:zoom="24.6875"
     inkscape:cx="16"
     inkscape:cy="16"
     inkscape:window-width="1920"
     inkscape:window-height="1011"
     inkscape:window-x="0"
     inkscape:window-y="0"
     inkscape:window-maximized="1"
     inkscape:current-layer="svg371"
     showguides="true" /><defs
     id="defs368"><linearGradient
       inkscape:collect="always"
       xlink:href="#linearGradient2102"
       id="linearGradient3040"
       x1="32"
       y1="62"
       x2="32"
       y2="2"
       gradientUnits="userSpaceOnUse"
       gradientTransform="scale(0.5)" /><linearGradient
       inkscape:collect="always"
       id="linearGradient2102"><stop
         style="stop-color:#ce5309;stop-opacity:1;"
         offset="0"
         id="stop2098" /><stop
         style="stop-color:#f07d16;stop-opacity:1;"
         offset="1"
         id="stop2100" /></linearGradient><linearGradient
       inkscape:collect="always"
       xlink:href="#linearGradient2102"
       id="linearGradient10633"
       x1="16"
       y1="31"
       x2="16"
       y2="1"
       gradientUnits="userSpaceOnUse" /></defs><path
     d="M 1,16 C 1,4.75 4.75,1 16,1 27.25,1 31,4.75 31,16 31,27.25 27.25,31 16,31 4.75,31 1,27.25 1,16"
     style="fill:url(#linearGradient3040);fill-opacity:1.0;stroke-width:0.15"
     id="path311" /><rect
     style="fill:#f7c195;fill-opacity:1;stroke-width:2.29129;stroke-linecap:round;stroke-linejoin:round"
     id="rect549"
     width="9"
     height="7"
     x="17"
     y="16"
     ry="1" /><path
     id="rect346"
     style="fill:#ffffff;stroke-width:0.999997;stroke-linecap:round;stroke-linejoin:round"
     d="M 6.5 8 C 6.2230006 8 6 8.2230006 6 8.5 C 6 8.7769994 6.2230006 9 6.5 9 L 25.5 9 C 25.777 9 26 8.7769994 26 8.5 C 26 8.2230006 25.777 8 25.5 8 L 6.5 8 z M 8.5 11 C 8.2230006 11 8 11.223 8 11.5 C 8 11.777 8.2230006 12 8.5 12 L 23.5 12 C 23.777 12 24 11.777 24 11.5 C 24 11.223 23.777 11 23.5 11 L 8.5 11 z M 6 16 L 6 17 L 7 17 L 7 16 L 6 16 z M 8.5 16 C 8.2230006 16 8 16.223 8 16.5 C 8 16.777 8.2230006 17 8.5 17 L 14.5 17 C 14.777 17 15 16.777 15 16.5 C 15 16.223 14.777 16 14.5 16 L 8.5 16 z M 6 19 L 6 20 L 7 20 L 7 19 L 6 19 z M 8.5 19 C 8.2230006 19 8 19.223 8 19.5 C 8 19.777 8.2230006 20 8.5 20 L 14.5 20 C 14.777 20 15 19.777 15 19.5 C 15 19.223 14.777 19 14.5 19 L 8.5 19 z M 6 22 L 6 23 L 7 23 L 7 22 L 6 22 z M 8.5 22 C 8.2230006 22 8 22.223 8 22.5 C 8 22.777 8.2230006 23 8.5 23 L 14.5 23 C 14.777 23 15 22.777 15 22.5 C 15 22.223 14.777 22 14.5 22 L 8.5 22 z " /><path
     style="color:#000000;fill:url(#linearGradient10633);fill-opacity:1;stroke:none;stroke-linecap:round;stroke-linejoin:round;-inkscape-stroke:none"
     d="m 24.820312,17.115234 c -0.212385,-0.177273 -0.528353,-0.148391 -0.705078,0.06445 l -2.148437,2.580079 -1.113281,-1.113282 c -0.210695,-0.210848 -0.557897,-0.191709 -0.744141,0.04102 l -2,2.5 c -0.172728,0.215697 -0.137736,0.530608 0.07813,0.703125 0.215697,0.172728 0.530608,0.137736 0.703125,-0.07813 l 1.650391,-2.064453 1.105468,1.105469 c 0.207898,0.208389 0.549928,0.193008 0.738282,-0.0332 l 2.5,-3 c 0.177273,-0.212385 0.148391,-0.528353 -0.06445,-0.705078 z"
     id="path8033"
     sodipodi:nodetypes="scccccccccccss" /></svg>
