<?xml version="1.0" encoding="UTF-8" standalone="no"?>
<!-- Created with Inkscape (http://www.inkscape.org/) -->

<svg
   width="32"
   height="32"
   viewBox="0 0 32 32"
   version="1.1"
   id="svg371"
   xml:space="preserve"
   inkscape:version="1.2.2 (1:1.2.2+202212051552+b0a8486541)"
   sodipodi:docname="libreoffice-math.svg"
   xmlns:inkscape="http://www.inkscape.org/namespaces/inkscape"
   xmlns:sodipodi="http://sodipodi.sourceforge.net/DTD/sodipodi-0.dtd"
   xmlns:xlink="http://www.w3.org/1999/xlink"
   xmlns="http://www.w3.org/2000/svg"
   xmlns:svg="http://www.w3.org/2000/svg"><sodipodi:namedview
     id="namedview373"
     pagecolor="#ffffff"
     bordercolor="#000000"
     borderopacity="0.25"
     inkscape:showpageshadow="2"
     inkscape:pageopacity="0.0"
     inkscape:pagecheckerboard="0"
     inkscape:deskcolor="#d1d1d1"
     inkscape:document-units="px"
     showgrid="false"
     inkscape:zoom="25.3125"
     inkscape:cx="16"
     inkscape:cy="16"
     inkscape:window-width="1920"
     inkscape:window-height="1012"
     inkscape:window-x="0"
     inkscape:window-y="0"
     inkscape:window-maximized="1"
     inkscape:current-layer="svg371"
     showguides="true" /><defs
     id="defs368"><linearGradient
       inkscape:collect="always"
       id="linearGradient1243"><stop
         style="stop-color:#dc2479;stop-opacity:1;"
         offset="0"
         id="stop1239" /><stop
         style="stop-color:#dc607d;stop-opacity:1;"
         offset="1"
         id="stop1241" /></linearGradient><linearGradient
       inkscape:collect="always"
       xlink:href="#linearGradient1243"
       id="linearGradient3040"
       x1="32"
       y1="62"
       x2="32"
       y2="2"
       gradientUnits="userSpaceOnUse"
       gradientTransform="scale(0.5)" /></defs><path
     d="M 1,16 C 1,4.75 4.75,1 16,1 27.25,1 31,4.75 31,16 31,27.25 27.25,31 16,31 4.75,31 1,27.25 1,16"
     style="fill:url(#linearGradient3040);fill-opacity:1.0;stroke-width:0.15"
     id="path311" /><path
     id="rect293"
     style="fill:#ffffff;stroke-width:2;stroke-linecap:round;stroke-linejoin:round"
     d="M 13.5,9 V 9.0039 C 13.317019,9.02402 13.153384,9.144764 13.085938,9.330072 L 9.7890625,18.380859 8.9824219,15.371094 C 8.9222757,15.146625 8.7214657,14.999239 8.5,15 H 8.4707031 6.5 C 6.2230003,15 6,15.223001 6,15.5 6,15.777001 6.2230003,16 6.5,16 h 1.6171875 l 1.0644531,3.976562 c 0.1006834,0.342531 0.1862841,0.496462 0.3535156,0.564454 0.2602946,0.09474 0.5478388,-0.03853 0.6425778,-0.298828 L 13.90625,10 H 25.5 C 25.777,10 26,9.777 26,9.5 26,9.223 25.777,9 25.5,9 Z"
     sodipodi:nodetypes="cccccccssscccccsssc" /><path
     id="rect1107"
     style="fill:#f693b8;stroke-width:2;stroke-linecap:round;stroke-linejoin:round;opacity:1;fill-opacity:1"
     d="m 16.171894,12.171893 c -0.391737,0.391736 -0.391737,1.022477 0,1.414214 L 18.585786,16 16.171894,18.413893 c -0.391737,0.391737 -0.391737,1.022477 0,1.414213 0.391736,0.391737 1.022476,0.391737 1.414213,0 L 20,17.414214 l 2.413893,2.413892 c 0.391737,0.391737 1.022477,0.391737 1.414213,0 0.391737,-0.391736 0.391737,-1.022476 0,-1.414213 L 21.414214,16 23.828106,13.586107 c 0.391737,-0.391737 0.391737,-1.022478 0,-1.414214 -0.391736,-0.391737 -1.022476,-0.391736 -1.414213,0 L 20,14.585786 17.586107,12.171893 c -0.391737,-0.391736 -1.022477,-0.391737 -1.414213,0 z"
     sodipodi:nodetypes="sscssscssscssscss" /><path
     id="rect1151"
     style="fill:#ffffff;stroke-width:2;stroke-linecap:round;stroke-linejoin:round"
     d="M 6 23 L 6 24 L 11 24 L 11 23 L 6 23 z M 13.5 23 L 13.5 24 L 18.5 24 L 18.5 23 L 13.5 23 z M 21 23 L 21 24 L 26 24 L 26 23 L 21 23 z " /></svg>
