<?xml version="1.0" encoding="UTF-8" standalone="no"?>
<!-- Created with Inkscape (http://www.inkscape.org/) -->

<svg
   width="32"
   height="32"
   viewBox="0 0 32 32"
   version="1.1"
   id="svg371"
   xml:space="preserve"
   inkscape:version="1.2.2 (b0a8486541, 2022-12-01)"
   sodipodi:docname="libreoffice-calc.svg"
   xmlns:inkscape="http://www.inkscape.org/namespaces/inkscape"
   xmlns:sodipodi="http://sodipodi.sourceforge.net/DTD/sodipodi-0.dtd"
   xmlns:xlink="http://www.w3.org/1999/xlink"
   xmlns="http://www.w3.org/2000/svg"
   xmlns:svg="http://www.w3.org/2000/svg"><sodipodi:namedview
     id="namedview373"
     pagecolor="#ffffff"
     bordercolor="#000000"
     borderopacity="0.25"
     inkscape:showpageshadow="2"
     inkscape:pageopacity="0.0"
     inkscape:pagecheckerboard="0"
     inkscape:deskcolor="#d1d1d1"
     inkscape:document-units="px"
     showgrid="false"
     inkscape:zoom="24.6875"
     inkscape:cx="16"
     inkscape:cy="16"
     inkscape:window-width="1920"
     inkscape:window-height="1011"
     inkscape:window-x="0"
     inkscape:window-y="0"
     inkscape:window-maximized="1"
     inkscape:current-layer="svg371"
     showguides="true" /><defs
     id="defs368"><linearGradient
       inkscape:collect="always"
       id="linearGradient1177"><stop
         style="stop-color:#129f15;stop-opacity:1;"
         offset="0"
         id="stop1173" /><stop
         style="stop-color:#7edc29;stop-opacity:1;"
         offset="1"
         id="stop1175" /></linearGradient><linearGradient
       inkscape:collect="always"
       xlink:href="#linearGradient1177"
       id="linearGradient3040"
       x1="32"
       y1="62"
       x2="32"
       y2="2"
       gradientUnits="userSpaceOnUse"
       gradientTransform="scale(0.5)" /></defs><path
     d="M 1,16 C 1,4.75 4.75,1 16,1 27.25,1 31,4.75 31,16 31,27.25 27.25,31 16,31 4.75,31 1,27.25 1,16"
     style="fill:url(#linearGradient3040);fill-opacity:1.0;stroke-width:0.15"
     id="path311" /><path
     id="rect293"
     style="fill:#ffffff;stroke-width:2;stroke-linecap:round;stroke-linejoin:round"
     d="M 8,9 C 6.8920033,9 6,9.8920033 6,11 v 9 c 0,1.107997 0.8920033,2 2,2 h 12 c 1.107997,0 2,-0.892003 2,-2 V 11 C 22,9.8920033 21.107997,9 20,9 Z m 0,1 h 3 v 2 H 7 v -1 c 0,-0.553998 0.4460018,-1 1,-1 z m 4,0 h 4 v 2 h -4 z m 5,0 h 3 c 0.553997,0 1,0.446002 1,1 v 1 H 17 Z M 7,13 h 4 v 2 H 7 Z m 5,0 h 4 v 2 h -4 z m 5,0 h 4 v 2 H 17 Z M 7,16 h 4 v 2 H 7 Z m 5,0 h 4 v 2 h -4 z m 5,0 h 4 v 2 H 17 Z M 7,19 h 4 v 2 H 8 C 7.4460018,21 7,20.553997 7,20 Z m 5,0 h 4 v 2 h -4 z m 5,0 h 4 v 1 c 0,0.553997 -0.446003,1 -1,1 h -3 z" /><rect
     style="fill:#c1f0aa;fill-opacity:1;stroke-width:2;stroke-linecap:round;stroke-linejoin:round"
     id="rect549"
     width="10"
     height="8"
     x="16"
     y="16"
     ry="1" /><path
     id="rect4651"
     style="fill:#4dad1f;fill-opacity:1;stroke-width:2;stroke-linecap:round;stroke-linejoin:round"
     d="m 20,17 v 6 h 2 v -6 z m 3,2 v 4 h 2 v -4 z m -6,1 v 3 h 2 v -3 z" /></svg>
