<?xml version="1.0" encoding="UTF-8" standalone="no"?>
<!-- Created with Inkscape (http://www.inkscape.org/) -->

<svg
   width="32"
   height="32"
   viewBox="0 0 32 32"
   version="1.1"
   id="svg371"
   xml:space="preserve"
   inkscape:version="1.2.2 (b0a8486541, 2022-12-01)"
   sodipodi:docname="libreoffice-writer.svg"
   xmlns:inkscape="http://www.inkscape.org/namespaces/inkscape"
   xmlns:sodipodi="http://sodipodi.sourceforge.net/DTD/sodipodi-0.dtd"
   xmlns:xlink="http://www.w3.org/1999/xlink"
   xmlns="http://www.w3.org/2000/svg"
   xmlns:svg="http://www.w3.org/2000/svg"><sodipodi:namedview
     id="namedview373"
     pagecolor="#ffffff"
     bordercolor="#000000"
     borderopacity="0.25"
     inkscape:showpageshadow="2"
     inkscape:pageopacity="0.0"
     inkscape:pagecheckerboard="0"
     inkscape:deskcolor="#d1d1d1"
     inkscape:document-units="px"
     showgrid="false"
     inkscape:zoom="24.6875"
     inkscape:cx="16.040506"
     inkscape:cy="16"
     inkscape:window-width="1920"
     inkscape:window-height="1011"
     inkscape:window-x="0"
     inkscape:window-y="0"
     inkscape:window-maximized="1"
     inkscape:current-layer="svg371"
     showguides="true" /><defs
     id="defs368"><linearGradient
       inkscape:collect="always"
       id="linearGradient1147"><stop
         style="stop-color:#1171c6;stop-opacity:1;"
         offset="0"
         id="stop1143" /><stop
         style="stop-color:#3090ef;stop-opacity:1;"
         offset="1"
         id="stop1145" /></linearGradient><linearGradient
       inkscape:collect="always"
       xlink:href="#linearGradient1147"
       id="linearGradient3040"
       x1="32"
       y1="62"
       x2="32"
       y2="2"
       gradientUnits="userSpaceOnUse"
       gradientTransform="scale(0.5)" /><linearGradient
       inkscape:collect="always"
       xlink:href="#linearGradient1147"
       id="linearGradient2139"
       x1="16"
       y1="31"
       x2="16"
       y2="1"
       gradientUnits="userSpaceOnUse" /></defs><path
     d="M 1,16 C 1,4.75 4.75,1 16,1 27.25,1 31,4.75 31,16 31,27.25 27.25,31 16,31 4.75,31 1,27.25 1,16"
     style="fill:url(#linearGradient3040);fill-opacity:1.0;stroke-width:0.15"
     id="path311" /><rect
     style="fill:#97d1ed;fill-opacity:1;stroke-width:2.29129;stroke-linecap:round;stroke-linejoin:round"
     id="rect549"
     width="9"
     height="7"
     x="17"
     y="8"
     ry="1" /><path
     id="rect346"
     style="fill:#ffffff;stroke-width:0.999997;stroke-linecap:round;stroke-linejoin:round"
     d="M 6.5 8 C 6.2230003 8 6 8.2230003 6 8.5 C 6 8.7769997 6.2230003 9 6.5 9 L 14.5 9 C 14.777 9 15 8.7769997 15 8.5 C 15 8.2230003 14.777 8 14.5 8 L 6.5 8 z M 6.5 11 C 6.2230003 11 6 11.223 6 11.5 C 6 11.777 6.2230003 12 6.5 12 L 14.5 12 C 14.777 12 15 11.777 15 11.5 C 15 11.223 14.777 11 14.5 11 L 6.5 11 z M 6.5 14 C 6.2230003 14 6 14.223 6 14.5 C 6 14.777 6.2230003 15 6.5 15 L 14.5 15 C 14.777 15 15 14.777 15 14.5 C 15 14.223 14.777 14 14.5 14 L 6.5 14 z M 6.5 18 C 6.2230003 18 6 18.223 6 18.5 C 6 18.777 6.2230003 19 6.5 19 L 25.5 19 C 25.777 19 26 18.777 26 18.5 C 26 18.223 25.777 18 25.5 18 L 6.5 18 z M 6.5 21 C 6.2230003 21 6 21.223 6 21.5 C 6 21.777 6.2230003 22 6.5 22 L 25.5 22 C 25.777 22 26 21.777 26 21.5 C 26 21.223 25.777 21 25.5 21 L 6.5 21 z M 6.5 24 C 6.2230003 24 6 24.223 6 24.5 C 6 24.777 6.2230003 25 6.5 25 L 15.5 25 C 15.777 25 16 24.777 16 24.5 C 16 24.223 15.777 24 15.5 24 L 6.5 24 z " /><path
     id="rect1927"
     style="fill:url(#linearGradient2139);stroke-width:2;stroke-linecap:round;stroke-linejoin:round;fill-opacity:1"
     d="M 24 9 A 1 1 0 0 0 23 10 A 1 1 0 0 0 24 11 A 1 1 0 0 0 25 10 A 1 1 0 0 0 24 9 z M 20 10 L 18 14 L 25 14 L 20 10 z " /></svg>
