<?xml version="1.0" encoding="UTF-8" standalone="no"?>
<!-- Created with Inkscape (http://www.inkscape.org/) -->

<svg
   width="32"
   height="32"
   viewBox="0 0 32 32"
   version="1.1"
   id="svg371"
   xml:space="preserve"
   inkscape:version="1.2 (1:1.2.1+202207142221+cd75a1ee6d)"
   sodipodi:docname="multimedia-photo-manager.svg"
   xmlns:inkscape="http://www.inkscape.org/namespaces/inkscape"
   xmlns:sodipodi="http://sodipodi.sourceforge.net/DTD/sodipodi-0.dtd"
   xmlns:xlink="http://www.w3.org/1999/xlink"
   xmlns="http://www.w3.org/2000/svg"
   xmlns:svg="http://www.w3.org/2000/svg"><sodipodi:namedview
     id="namedview373"
     pagecolor="#ffffff"
     bordercolor="#000000"
     borderopacity="0.25"
     inkscape:showpageshadow="2"
     inkscape:pageopacity="0.0"
     inkscape:pagecheckerboard="0"
     inkscape:deskcolor="#d1d1d1"
     inkscape:document-units="px"
     showgrid="false"
     inkscape:zoom="25.78125"
     inkscape:cx="15.980606"
     inkscape:cy="16"
     inkscape:window-width="1920"
     inkscape:window-height="1018"
     inkscape:window-x="0"
     inkscape:window-y="28"
     inkscape:window-maximized="1"
     inkscape:current-layer="svg371"
     showguides="false" /><defs
     id="defs368"><linearGradient
       inkscape:collect="always"
       id="linearGradient2223"><stop
         style="stop-color:#ab1b50;stop-opacity:1;"
         offset="0"
         id="stop2219" /><stop
         style="stop-color:#b93f8a;stop-opacity:1;"
         offset="1"
         id="stop2221" /></linearGradient><linearGradient
       inkscape:collect="always"
       xlink:href="#linearGradient2223"
       id="linearGradient3040"
       x1="32"
       y1="62"
       x2="32"
       y2="2"
       gradientUnits="userSpaceOnUse"
       gradientTransform="scale(0.5)" /></defs><path
     d="M 1,16 C 1,4.75 4.75,1 16,1 27.25,1 31,4.75 31,16 31,27.25 27.25,31 16,31 4.75,31 1,27.25 1,16"
     style="fill:url(#linearGradient3040);fill-opacity:1;stroke-width:0.15"
     id="path311" /><path
     id="path951"
     style="fill:#ffffff;stroke-width:1.33334;stroke-linecap:round;stroke-linejoin:round"
     d="m 16,6 c -1.472755,0 -2.666667,1.1939115 -2.666667,2.6666665 1.9e-5,0.03268 0.0039,0.073108 0.0091,0.1171875 0.06991,0.73199 0.715278,3.175807 1.243489,4.766927 C 13.407583,12.225254 11.461301,10.299905 10.983073,10.023438 9.7076305,9.2870605 8.0762205,9.724558 7.339844,11 6.6034665,12.275442 7.040964,13.906852 8.316406,14.64323 8.795135,14.919262 11.436099,15.64243 13.173177,16 11.436099,16.357571 8.795135,17.080738 8.316406,17.35677 7.040964,18.093147 6.6034675,19.724558 7.339844,21 c 0.736377,1.275442 2.3677865,1.712939 3.643229,0.976562 0.478228,-0.276468 2.424509,-2.201816 3.602864,-3.527344 -0.528211,1.591122 -1.173578,4.034938 -1.243489,4.766928 -0.0052,0.04408 -0.0091,0.08451 -0.0091,0.117188 C 13.333333,24.806088 14.527245,26 16,26 c 1.472754,0 2.666666,-1.193912 2.666666,-2.666666 -1.8e-5,-0.03268 -0.0039,-0.07311 -0.0091,-0.117188 -0.06991,-0.73199 -0.715277,-3.175806 -1.243489,-4.766928 1.178355,1.325528 3.124636,3.250876 3.602864,3.527344 1.275442,0.736377 2.906853,0.29888 3.64323,-0.976562 0.736376,-1.275442 0.298879,-2.906853 -0.976562,-3.64323 C 23.204864,17.080738 20.563901,16.357571 18.826822,16 20.5639,15.64243 23.204864,14.919261 23.683594,14.64323 24.959036,13.906852 25.396532,12.275443 24.660156,11 23.923779,9.7245585 22.292369,9.28706 21.016927,10.023438 c -0.478228,0.276466 -2.424509,2.201816 -3.602864,3.527343 0.528212,-1.59112 1.173578,-4.034937 1.243489,-4.766927 0.0052,-0.04408 0.0091,-0.08451 0.0091,-0.1171875 C 18.666667,7.1939115 17.472754,6 16,6 Z m -0.769531,8.666667 h 1.539062 L 17.540364,16 16.769531,17.333333 H 15.230469 L 14.459635,16 Z" /><circle
     style="fill:#95144b;fill-opacity:1;stroke-width:2;stroke-linecap:round;stroke-linejoin:round"
     id="path2163"
     cx="16"
     cy="16"
     r="2" /></svg>
