<?xml version="1.0" encoding="UTF-8" standalone="no"?>
<!-- Created with Inkscape (http://www.inkscape.org/) -->

<svg
   width="32"
   height="32"
   viewBox="0 0 32 32"
   version="1.1"
   id="svg371"
   xml:space="preserve"
   inkscape:version="1.2.1 (1:1.2.1+202210291243+9c6d41e410)"
   sodipodi:docname="org.kde.kalendar.svg"
   xmlns:inkscape="http://www.inkscape.org/namespaces/inkscape"
   xmlns:sodipodi="http://sodipodi.sourceforge.net/DTD/sodipodi-0.dtd"
   xmlns:xlink="http://www.w3.org/1999/xlink"
   xmlns="http://www.w3.org/2000/svg"
   xmlns:svg="http://www.w3.org/2000/svg"><sodipodi:namedview
     id="namedview373"
     pagecolor="#ffffff"
     bordercolor="#000000"
     borderopacity="0.25"
     inkscape:showpageshadow="2"
     inkscape:pageopacity="0.0"
     inkscape:pagecheckerboard="0"
     inkscape:deskcolor="#d1d1d1"
     inkscape:document-units="px"
     showgrid="false"
     inkscape:zoom="25.78125"
     inkscape:cx="15.980606"
     inkscape:cy="16"
     inkscape:window-width="1920"
     inkscape:window-height="1018"
     inkscape:window-x="0"
     inkscape:window-y="28"
     inkscape:window-maximized="1"
     inkscape:current-layer="svg371"
     showguides="true" /><defs
     id="defs368"><linearGradient
       inkscape:collect="always"
       id="linearGradient1213"><stop
         style="stop-color:#1b94e6;stop-opacity:1;"
         offset="0"
         id="stop1209" /><stop
         style="stop-color:#46b6d7;stop-opacity:1;"
         offset="1"
         id="stop1211" /></linearGradient><linearGradient
       inkscape:collect="always"
       xlink:href="#linearGradient1213"
       id="linearGradient3040"
       x1="32"
       y1="62"
       x2="32"
       y2="2"
       gradientUnits="userSpaceOnUse"
       gradientTransform="scale(0.5)" /></defs><path
     d="M 1,16 C 1,4.75 4.75,1 16,1 27.25,1 31,4.75 31,16 31,27.25 27.25,31 16,31 4.75,31 1,27.25 1,16"
     style="fill:url(#linearGradient3040);fill-opacity:1.0;stroke-width:0.15"
     id="path311" /><rect
     style="fill:#ffffff;stroke-width:2.7;stroke-linecap:round;stroke-linejoin:round"
     id="rect900"
     width="18"
     height="18"
     x="7"
     y="7"
     ry="3" /><path
     id="rect977"
     style="fill:#87c5e5;fill-opacity:1;stroke-width:3;stroke-linecap:round;stroke-linejoin:round"
     d="m 12,13 c -0.553999,0 -1,0.446 -1,1 v 2 c 0,0.553999 0.446001,1 1,1 h 2 c 0.554,0 1,-0.446001 1,-1 v -2 c 0,-0.554 -0.446,-1 -1,-1 z m 5,0 c -0.553999,0 -1,0.446 -1,1 v 2 c 0,0.553999 0.446001,1 1,1 h 2 c 0.554,0 1,-0.446001 1,-1 v -2 c 0,-0.554 -0.446,-1 -1,-1 z m -5,5 c -0.553999,0 -1,0.446 -1,1 v 2 c 0,0.553999 0.446001,1 1,1 h 2 c 0.554,0 1,-0.446001 1,-1 v -2 c 0,-0.554 -0.446,-1 -1,-1 z m 5,0 c -0.553999,0 -1,0.446 -1,1 v 2 c 0,0.553999 0.446001,1 1,1 h 2 c 0.554,0 1,-0.446001 1,-1 v -2 c 0,-0.554 -0.446,-1 -1,-1 z"
     sodipodi:nodetypes="ssssssssssssssssssssssssssssssssssss" /><path
     id="rect1103"
     style="fill:#2c86cd;fill-opacity:1;stroke-width:3;stroke-linecap:round;stroke-linejoin:round"
     d="M 11.5,10 C 11.223,10 11,10.223 11,10.5 v 1 c 0,0.277 0.223,0.5 0.5,0.5 h 3 c 0.277,0 0.5,-0.223 0.5,-0.5 v -1 C 15,10.223 14.777,10 14.5,10 Z m 5,0 C 16.223,10 16,10.223 16,10.5 v 1 c 0,0.277 0.223,0.5 0.5,0.5 h 3 c 0.277,0 0.5,-0.223 0.5,-0.5 v -1 C 20,10.223 19.777,10 19.5,10 Z" /><path
     style="color:#000000;fill:#226498;fill-opacity:1;stroke:none;stroke-linecap:round;stroke-linejoin:round;-inkscape-stroke:none"
     d="m 14.722656,18.553039 c -0.247034,-0.122745 -0.546805,-0.02224 -0.669922,0.22461 l -1.189453,1.378718 -0.509765,-0.509883 c -0.195254,-0.195212 -0.511778,-0.195212 -0.707032,0 -0.195212,0.195254 -0.195212,0.511778 0,0.707032 l 1,1.000117 c 0.24162,0.241151 0.648497,0.174661 0.800782,-0.13086 l 1.5,-1.999812 c 0.122745,-0.247034 0.02224,-0.546805 -0.22461,-0.669922 z"
     id="path1385"
     sodipodi:nodetypes="cccccccccc" /></svg>
