<?xml version="1.0" encoding="UTF-8" standalone="no"?>
<!-- Created with Inkscape (http://www.inkscape.org/) -->

<svg
   width="32"
   height="32"
   viewBox="0 0 32 32"
   version="1.1"
   id="svg371"
   xml:space="preserve"
   inkscape:version="1.2.1 (9c6d41e410, 2022-07-14, custom)"
   sodipodi:docname="org.gnome.Console.svg"
   xmlns:inkscape="http://www.inkscape.org/namespaces/inkscape"
   xmlns:sodipodi="http://sodipodi.sourceforge.net/DTD/sodipodi-0.dtd"
   xmlns:xlink="http://www.w3.org/1999/xlink"
   xmlns="http://www.w3.org/2000/svg"
   xmlns:svg="http://www.w3.org/2000/svg"><sodipodi:namedview
     id="namedview373"
     pagecolor="#ffffff"
     bordercolor="#000000"
     borderopacity="0.25"
     inkscape:showpageshadow="2"
     inkscape:pageopacity="0.0"
     inkscape:pagecheckerboard="0"
     inkscape:deskcolor="#d1d1d1"
     inkscape:document-units="px"
     showgrid="false"
     inkscape:zoom="22.625"
     inkscape:cx="15.977901"
     inkscape:cy="16"
     inkscape:window-width="1920"
     inkscape:window-height="947"
     inkscape:window-x="0"
     inkscape:window-y="0"
     inkscape:window-maximized="1"
     inkscape:current-layer="svg371"
     showguides="false" /><defs
     id="defs368"><linearGradient
       inkscape:collect="always"
       id="linearGradient873"><stop
         style="stop-color:#3685c7;stop-opacity:1;"
         offset="0"
         id="stop869" /><stop
         style="stop-color:#77adda;stop-opacity:1;"
         offset="1"
         id="stop871" /></linearGradient><linearGradient
       inkscape:collect="always"
       id="linearGradient5601"><stop
         style="stop-color:#3b3b3b;stop-opacity:1;"
         offset="0"
         id="stop5597" /><stop
         style="stop-color:#6d6d6d;stop-opacity:1;"
         offset="1"
         id="stop5599" /></linearGradient><linearGradient
       inkscape:collect="always"
       xlink:href="#linearGradient5601"
       id="linearGradient3040"
       x1="32"
       y1="62"
       x2="32"
       y2="2"
       gradientUnits="userSpaceOnUse"
       gradientTransform="scale(0.5)" /><linearGradient
       inkscape:collect="always"
       xlink:href="#linearGradient873"
       id="linearGradient875"
       x1="49.999714"
       y1="46"
       x2="49.999714"
       y2="18"
       gradientUnits="userSpaceOnUse"
       gradientTransform="scale(0.5)" /></defs><path
     d="M 1,16 C 1,4.75 4.75,1 16,1 27.25,1 31,4.75 31,16 31,27.25 27.25,31 16,31 4.75,31 1,27.25 1,16"
     style="fill:url(#linearGradient3040);fill-opacity:1;stroke-width:0.15"
     id="path311" /><path
     d="m 8.0008335,9 c -0.255619,0 -0.511162,0.09808 -0.707031,0.293946 -0.391737,0.391737 -0.391737,1.022325 0,1.414062 l 5.0712895,5.071289 -5.0712895,5.071289 c -0.3917365,0.391736 -0.391737,1.022325 0,1.414062 0.3917375,0.391737 1.022326,0.391737 1.4140625,0 l 5.77832,-5.77832 c 0.391737,-0.391738 0.391737,-1.022325 0,-1.414063 L 8.707865,9.293946 C 8.511997,9.098077 8.2564525,9 8.0008335,9 Z m 7.9990235,12 c -0.554,0 -1,0.446 -1,1 0,0.554 0.446,1 1,1 h 8 c 0.554,0 1,-0.446 1,-1 0,-0.554 -0.446,-1 -1,-1 z"
     style="fill:url(#linearGradient875);fill-opacity:1;stroke:none;stroke-width:1;stroke-linecap:round;stroke-linejoin:round"
     id="path342" /></svg>
