<?xml version="1.0" encoding="UTF-8" standalone="no"?>
<!-- Created with Inkscape (http://www.inkscape.org/) -->

<svg
   width="32"
   height="32"
   viewBox="0 0 32 32"
   version="1.1"
   id="svg371"
   xml:space="preserve"
   inkscape:version="1.2.2 (1:1.2.2+202305151914+b0a8486541)"
   sodipodi:docname="utilities-log-viewer.svg"
   xmlns:inkscape="http://www.inkscape.org/namespaces/inkscape"
   xmlns:sodipodi="http://sodipodi.sourceforge.net/DTD/sodipodi-0.dtd"
   xmlns:xlink="http://www.w3.org/1999/xlink"
   xmlns="http://www.w3.org/2000/svg"
   xmlns:svg="http://www.w3.org/2000/svg"><sodipodi:namedview
     id="namedview373"
     pagecolor="#ffffff"
     bordercolor="#000000"
     borderopacity="0.25"
     inkscape:showpageshadow="2"
     inkscape:pageopacity="0.0"
     inkscape:pagecheckerboard="0"
     inkscape:deskcolor="#d1d1d1"
     inkscape:document-units="px"
     showgrid="false"
     inkscape:zoom="25.1875"
     inkscape:cx="15.980149"
     inkscape:cy="16"
     inkscape:window-width="1920"
     inkscape:window-height="1008"
     inkscape:window-x="0"
     inkscape:window-y="0"
     inkscape:window-maximized="1"
     inkscape:current-layer="svg371"
     showguides="false"
     inkscape:lockguides="true" /><defs
     id="defs368"><linearGradient
       inkscape:collect="always"
       id="linearGradient3038"><stop
         style="stop-color:#3f495d;stop-opacity:1;"
         offset="0"
         id="stop3034" /><stop
         style="stop-color:#4f5b70;stop-opacity:1;"
         offset="1"
         id="stop3036" /></linearGradient><linearGradient
       inkscape:collect="always"
       xlink:href="#linearGradient3038"
       id="linearGradient1980"
       x1="16"
       y1="31"
       x2="16"
       y2="1"
       gradientUnits="userSpaceOnUse" /></defs><path
     d="M 1,16 C 1,4.75 4.75,1 16,1 27.25,1 31,4.75 31,16 31,27.25 27.25,31 16,31 4.75,31 1,27.25 1,16"
     style="fill:url(#linearGradient1980);fill-opacity:1;stroke-width:0.15"
     id="path311" /><path
     id="path675"
     style="fill:#ffffff;stroke-width:3.5;stroke-linecap:round;stroke-linejoin:round"
     d="m 13,6 c -3.8659932,0 -7,3.1340068 -7,7 0,3.865993 3.1340068,7 7,7 1.508351,-0.0062 2.974357,-0.499422 4.179688,-1.40625 l 6.476562,6.476562 c 0.391737,0.391737 1.022327,0.391737 1.414062,0 0.391737,-0.391735 0.391737,-1.022325 0,-1.414062 L 18.59375,17.179688 C 19.500578,15.974357 19.993813,14.508351 20,13 20,9.1340068 16.865993,6 13,6 Z"
     sodipodi:nodetypes="ssccsssccs" /><path
     d="M 9.5,10 C 9.2230005,10 9,10.223001 9,10.5 9,10.776999 9.2230005,11 9.5,11 h 7 C 16.777,11 17,10.776999 17,10.5 17,10.223001 16.777,10 16.5,10 Z m 0,3 C 9.2230005,13 9,13.223001 9,13.5 9,13.777 9.2230005,14 9.5,14 h 7 C 16.777,14 17,13.777 17,13.5 17,13.223001 16.777,13 16.5,13 Z m 0,3 C 9.2230005,16 9,16.223001 9,16.5 9,16.777 9.2230005,17 9.5,17 h 4 C 13.777,17 14,16.777 14,16.5 14,16.223001 13.777,16 13.5,16 Z"
     style="fill:#3c4862;fill-opacity:1;stroke-width:1;stroke-linecap:round"
     id="path299"
     sodipodi:nodetypes="sssssssssssssssssssss" /></svg>
