<?xml version="1.0" encoding="UTF-8" standalone="no"?>
<!-- Created with Inkscape (http://www.inkscape.org/) -->

<svg
   width="32"
   height="32"
   viewBox="0 0 32 32"
   version="1.1"
   id="svg371"
   xml:space="preserve"
   inkscape:version="1.2.2 (1:1.2.2+202305151914+b0a8486541)"
   sodipodi:docname="weather-app.svg"
   xmlns:inkscape="http://www.inkscape.org/namespaces/inkscape"
   xmlns:sodipodi="http://sodipodi.sourceforge.net/DTD/sodipodi-0.dtd"
   xmlns:xlink="http://www.w3.org/1999/xlink"
   xmlns="http://www.w3.org/2000/svg"
   xmlns:svg="http://www.w3.org/2000/svg"><sodipodi:namedview
     id="namedview373"
     pagecolor="#ffffff"
     bordercolor="#000000"
     borderopacity="0.25"
     inkscape:showpageshadow="2"
     inkscape:pageopacity="0.0"
     inkscape:pagecheckerboard="0"
     inkscape:deskcolor="#d1d1d1"
     inkscape:document-units="px"
     showgrid="false"
     inkscape:zoom="25.1875"
     inkscape:cx="15.980149"
     inkscape:cy="16"
     inkscape:window-width="1920"
     inkscape:window-height="1008"
     inkscape:window-x="0"
     inkscape:window-y="0"
     inkscape:window-maximized="1"
     inkscape:current-layer="svg371"
     showguides="false" /><defs
     id="defs368"><linearGradient
       inkscape:collect="always"
       id="linearGradient1846"><stop
         style="stop-color:#358ff8;stop-opacity:1;"
         offset="0"
         id="stop1842" /><stop
         style="stop-color:#61b0f8;stop-opacity:1;"
         offset="1"
         id="stop1844" /></linearGradient><linearGradient
       inkscape:collect="always"
       xlink:href="#linearGradient1846"
       id="linearGradient1505"
       x1="32"
       y1="62"
       x2="32"
       y2="2"
       gradientUnits="userSpaceOnUse"
       gradientTransform="scale(0.5)" /></defs><path
     d="M 1,16 C 1,4.75 4.75,1 16,1 27.25,1 31,4.75 31,16 31,27.25 27.25,31 16,31 4.75,31 1,27.25 1,16"
     style="fill:url(#linearGradient1505);fill-opacity:1.0;stroke-width:0.15"
     id="path311" /><path
     id="path467"
     style="fill:#fdbb1c;stroke-width:1.8;stroke-linecap:round;stroke-linejoin:round"
     d="m 18.679688,6.2360755 c -0.03205,5.488e-4 -0.0633,0.00475 -0.0957,0.011719 -0.0084,0.00183 -0.01705,0.00552 -0.02539,0.00781 -0.267567,0.071693 -0.425208,0.3437686 -0.353516,0.6113281 l 0.259766,0.9667969 c 0.07169,0.2675617 0.343768,0.4252048 0.611328,0.3535156 0.267556,-0.071692 0.425207,-0.3457224 0.353516,-0.6132812 L 19.171875,6.6091224 c -0.05318,-0.1984519 -0.217724,-0.3380417 -0.408203,-0.3671875 -0.02722,-0.00417 -0.05596,-0.00633 -0.08398,-0.00586 z m 3.638671,0 c -0.02804,-5.2e-4 -0.05676,0.00167 -0.08398,0.00586 -0.190477,0.029146 -0.35307,0.1687358 -0.40625,0.3671875 l -0.257813,0.9667969 c -0.07169,0.267558 0.08596,0.5396345 0.353516,0.6113281 0.26756,0.071689 0.539633,-0.085954 0.611328,-0.3535156 l 0.257813,-0.9648438 c 0.07169,-0.2675602 -0.08595,-0.5415883 -0.353516,-0.6132812 -0.0084,-0.00228 -0.01504,-0.00603 -0.02344,-0.00781 -0.03241,-0.00694 -0.06561,-0.011214 -0.09766,-0.011719 z m 3.007813,1.6621094 c -0.143856,-0.00122 -0.288521,0.060325 -0.388672,0.1796875 l -0.642578,0.765625 c -0.178053,0.212193 -0.149694,0.525074 0.0625,0.703125 0.0067,0.0055 0.01283,0.01038 0.01953,0.01563 0.05289,0.04 0.111205,0.06971 0.171875,0.08594 0.181971,0.04877 0.384314,-0.0079 0.513672,-0.16211 L 25.705078,8.7204505 C 25.883125,8.5082593 25.854776,8.1934184 25.642578,8.0153724 25.549742,7.937476 25.43806,7.89913 25.326172,7.8981849 Z m -9.783203,0.1503906 c -0.05931,6.715e-4 -0.117724,0.011328 -0.173828,0.033203 -0.02566,0.00999 -0.05211,0.022681 -0.07617,0.037109 -0.02748,0.016504 -0.05355,0.036371 -0.07813,0.058594 -0.0063,0.00577 -0.01149,0.013373 -0.01758,0.019531 -0.195874,0.1958713 -0.195871,0.5111646 0,0.7070313 l 0.707031,0.7070311 c 0.195864,0.195868 0.51116,0.195866 0.707031,0 0.195863,-0.195865 0.195863,-0.511164 0,-0.7070311 L 15.904297,8.197013 C 15.804416,8.0971366 15.673451,8.0470984 15.542969,8.0485755 Z M 20.5,8.9997474 a 4.5,4.5 0 0 0 -4.5,4.4999996 4.5,4.5 0 0 0 4.5,4.5 4.5,4.5 0 0 0 4.5,-4.5 4.5,4.5 0 0 0 -4.5,-4.4999996 z m 6.552734,1.6054686 c -0.04916,0.0024 -0.09768,0.01153 -0.146484,0.0293 l -0.939453,0.341797 c -0.260295,0.09474 -0.393564,0.380331 -0.298828,0.640625 0.09474,0.26029 0.380332,0.393569 0.640625,0.298828 l 0.939453,-0.341797 c 0.19307,-0.07027 0.317647,-0.245205 0.330078,-0.4375 0.0018,-0.02747 0.001,-0.05613 -0.002,-0.08399 -0.0033,-0.03188 -0.0098,-0.06404 -0.01953,-0.0957 -0.0025,-0.0082 -0.0068,-0.01531 -0.0098,-0.02344 -0.07697,-0.211498 -0.281119,-0.338513 -0.494141,-0.328125 z m -0.658203,3.435547 c -0.232808,0.0061 -0.436428,0.175368 -0.478515,0.414062 -0.0015,0.0085 -0.0028,0.01494 -0.0039,0.02344 -0.0082,0.06581 -0.0046,0.132719 0.01172,0.193359 0.04875,0.18198 0.200221,0.326394 0.398438,0.361328 l 0.984375,0.173828 c 0.272793,0.0481 0.530025,-0.133458 0.578125,-0.40625 0.0481,-0.27279 -0.131507,-0.530025 -0.404297,-0.578125 l -0.984375,-0.173828 c -0.0341,-0.006 -0.0683,-0.0087 -0.101563,-0.0078 z" /><path
     d="M 11.666667,9.9997474 C 7.984769,9.9997474 5,12.984516 5,16.666414 c 0,3.681898 2.984769,6.666666 6.666667,6.666666 h 9.52381 C 23.300953,23.33308 25,21.634033 25,19.523557 25,17.41308 23.300953,15.714033 21.190477,15.714033 H 18.263579 C 17.790226,12.434544 14.980142,10.000432 11.666667,9.9997474 Z"
     style="fill:#ffffff;fill-opacity:1;stroke-width:2.22222;stroke-linecap:round;stroke-linejoin:round"
     id="path1142" /><path
     id="path1162"
     style="fill:#ffffff;stroke-width:2;stroke-linecap:round;stroke-linejoin:round"
     d="m 12,9.9997474 a 7,7 0 0 0 -7,6.9999996 7,7 0 0 0 7,7 h 9.5 c 2.492998,0 4.5,-2.007002 4.5,-4.5 0,-2.492998 -2.007002,-4.5 -4.5,-4.5 H 18.707031 A 7,7 0 0 0 12,9.9997474 Z" /></svg>
