<?xml version="1.0" encoding="UTF-8" standalone="no"?>
<!-- Created with Inkscape (http://www.inkscape.org/) -->

<svg
   width="32"
   height="32"
   viewBox="0 0 32 32"
   version="1.1"
   id="svg371"
   xml:space="preserve"
   inkscape:version="1.2.2 (1:1.2.2+202305151914+b0a8486541)"
   sodipodi:docname="winefile.svg"
   xmlns:inkscape="http://www.inkscape.org/namespaces/inkscape"
   xmlns:sodipodi="http://sodipodi.sourceforge.net/DTD/sodipodi-0.dtd"
   xmlns:xlink="http://www.w3.org/1999/xlink"
   xmlns="http://www.w3.org/2000/svg"
   xmlns:svg="http://www.w3.org/2000/svg"><sodipodi:namedview
     id="namedview373"
     pagecolor="#ffffff"
     bordercolor="#000000"
     borderopacity="0.25"
     inkscape:showpageshadow="2"
     inkscape:pageopacity="0.0"
     inkscape:pagecheckerboard="0"
     inkscape:deskcolor="#d1d1d1"
     inkscape:document-units="px"
     showgrid="false"
     inkscape:zoom="25.1875"
     inkscape:cx="16"
     inkscape:cy="16"
     inkscape:window-width="1920"
     inkscape:window-height="1008"
     inkscape:window-x="0"
     inkscape:window-y="0"
     inkscape:window-maximized="1"
     inkscape:current-layer="svg371"
     showguides="false" /><defs
     id="defs368"><linearGradient
       inkscape:collect="always"
       id="linearGradient3308"><stop
         style="stop-color:#eec474;stop-opacity:1;"
         offset="0"
         id="stop3304" /><stop
         style="stop-color:#f49929;stop-opacity:1;"
         offset="1"
         id="stop3306" /></linearGradient><linearGradient
       inkscape:collect="always"
       xlink:href="#linearGradient3308"
       id="linearGradient3251"
       x1="1"
       y1="1"
       x2="31"
       y2="31"
       gradientUnits="userSpaceOnUse" /></defs><path
     d="M 1,16 C 1,4.75 4.75,1 16,1 27.25,1 31,4.75 31,16 31,27.25 27.25,31 16,31 4.75,31 1,27.25 1,16"
     style="fill:url(#linearGradient3251);fill-opacity:1;stroke-width:0.15"
     id="path311" /><path
     d="M 7.5,7 C 6.669,7 6,7.669 6,8.5 V 16 h 11 v -4 c -0.552285,0 -1,-0.447716 -1,-1 V 8.5 C 16,7.669 15.331,7 14.5,7 Z"
     style="opacity:1;fill:#f8e2a4;fill-opacity:1;stroke-width:2;stroke-linecap:round;stroke-linejoin:round"
     id="path294"
     sodipodi:nodetypes="sscccssss" /><rect
     style="fill:#ffffff;fill-opacity:1;stroke-width:0.71439;opacity:0.99"
     id="rect556"
     width="20"
     height="15"
     x="6"
     y="10"
     ry="2" /><path
     d="m 12,13 v 4 h 4 v -4 z m 5,0 v 4 h 4 v -4 z m -5,5 v 4 h 4 v -4 z m 5,0 v 4 h 4 v -4 z"
     style="fill:#c5740c;fill-opacity:1;stroke-width:1.59258;stroke-linecap:round;stroke-linejoin:round"
     id="path344"
     sodipodi:nodetypes="cccccccccccccccccccc" /></svg>
