<?xml version="1.0" encoding="UTF-8" standalone="no"?>
<!-- Created with Inkscape (http://www.inkscape.org/) -->

<svg
   width="32"
   height="32"
   viewBox="0 0 32 32"
   version="1.1"
   id="svg371"
   xml:space="preserve"
   inkscape:version="1.2.2 (1:1.2.2+202212051552+b0a8486541)"
   sodipodi:docname="xorg.svg"
   xmlns:inkscape="http://www.inkscape.org/namespaces/inkscape"
   xmlns:sodipodi="http://sodipodi.sourceforge.net/DTD/sodipodi-0.dtd"
   xmlns:xlink="http://www.w3.org/1999/xlink"
   xmlns="http://www.w3.org/2000/svg"
   xmlns:svg="http://www.w3.org/2000/svg"><sodipodi:namedview
     id="namedview373"
     pagecolor="#ffffff"
     bordercolor="#000000"
     borderopacity="0.25"
     inkscape:showpageshadow="2"
     inkscape:pageopacity="0.0"
     inkscape:pagecheckerboard="0"
     inkscape:deskcolor="#d1d1d1"
     inkscape:document-units="px"
     showgrid="false"
     inkscape:zoom="25.3125"
     inkscape:cx="15.980247"
     inkscape:cy="16"
     inkscape:window-width="1920"
     inkscape:window-height="1012"
     inkscape:window-x="0"
     inkscape:window-y="0"
     inkscape:window-maximized="1"
     inkscape:current-layer="svg371"
     showguides="false" /><defs
     id="defs368"><linearGradient
       inkscape:collect="always"
       id="linearGradient2587"><stop
         style="stop-color:#d3d3d3;stop-opacity:1;"
         offset="0"
         id="stop2583" /><stop
         style="stop-color:#e9e9e9;stop-opacity:1;"
         offset="1"
         id="stop2585" /></linearGradient><linearGradient
       inkscape:collect="always"
       xlink:href="#linearGradient3678"
       id="linearGradient3680"
       x1="11.2"
       y1="21.507999"
       x2="52.799999"
       y2="48.809299"
       gradientUnits="userSpaceOnUse"
       gradientTransform="matrix(0.52884615,0,0,0.52884615,-0.92307696,-1.3744231)" /><linearGradient
       inkscape:collect="always"
       id="linearGradient3678"><stop
         style="stop-color:#ec6e28;stop-opacity:1;"
         offset="0"
         id="stop3674" /><stop
         style="stop-color:#f3bf21;stop-opacity:1;"
         offset="1"
         id="stop3676" /></linearGradient><linearGradient
       inkscape:collect="always"
       xlink:href="#linearGradient2587"
       id="linearGradient2589"
       x1="16"
       y1="31"
       x2="16"
       y2="1"
       gradientUnits="userSpaceOnUse" /></defs><path
     d="M 1,16 C 1,4.75 4.75,1 16,1 27.25,1 31,4.75 31,16 31,27.25 27.25,31 16,31 4.75,31 1,27.25 1,16"
     style="fill:url(#linearGradient2589);fill-opacity:1;stroke-width:0.15"
     id="path311" /><path
     id="rect2346"
     style="fill:#373a3d;fill-opacity:1;stroke-width:1.63299"
     d="M 7,7 14,16.693359 8,25 H 9 L 14.5,17.384766 17,13.923828 12,7 Z M 23,7 15,18.076172 20,25 h 5 L 18,15.306641 24,7 Z" /><path
     id="path3649"
     style="fill:url(#linearGradient3680);fill-opacity:1;stroke-width:0.528846"
     d="m 16,10 c -0.536936,0 -1.110642,0.04103 -1.626953,0.08984 0.919874,1.185249 1.681923,2.189517 2.560547,3.330078 -0.492938,-1.048435 -1.506188,-2.055266 -1.15625,-2.572266 0.347186,-0.511499 0.986344,-0.425781 1.035156,-0.425781 1.024374,0 2.011658,0.11511 2.933594,0.326172 l 0.214844,-0.292969 C 18.731002,10.142269 17.397,10 16,10 Z m 5.548828,0.957031 -0.199219,0.28125 c 2.840748,1.099312 4.761719,3.19669 4.761719,5.601563 0,3.542684 -4.165958,6.417968 -9.298828,6.417968 -5.13287,0 -9.3007813,-2.873332 -9.3007812,-6.416015 0,-1.781816 1.0566303,-3.395135 2.7578122,-4.558594 L 9.6601559,11.296875 C 6.8421002,12.607112 5,14.764466 5,17.205078 5,21.198761 9.9280059,24.4375 16,24.4375 c 6.071307,0 11,-3.239425 11,-7.232422 0,-2.663372 -2.190362,-4.991986 -5.451172,-6.248047 z" /></svg>
