<?xml version="1.0" encoding="UTF-8" standalone="no"?>
<!-- Created with Inkscape (http://www.inkscape.org/) -->

<svg
   width="32"
   height="32"
   viewBox="0 0 32 32"
   version="1.1"
   id="svg371"
   xml:space="preserve"
   inkscape:version="1.2.2 (1:1.2.2+202212051552+b0a8486541)"
   sodipodi:docname="preferences-desktop-emoticons.svg"
   xmlns:inkscape="http://www.inkscape.org/namespaces/inkscape"
   xmlns:sodipodi="http://sodipodi.sourceforge.net/DTD/sodipodi-0.dtd"
   xmlns="http://www.w3.org/2000/svg"
   xmlns:svg="http://www.w3.org/2000/svg"><sodipodi:namedview
     id="namedview373"
     pagecolor="#ffffff"
     bordercolor="#000000"
     borderopacity="0.25"
     inkscape:showpageshadow="2"
     inkscape:pageopacity="0.0"
     inkscape:pagecheckerboard="0"
     inkscape:deskcolor="#d1d1d1"
     inkscape:document-units="px"
     showgrid="false"
     inkscape:zoom="25.3125"
     inkscape:cx="15.980247"
     inkscape:cy="16"
     inkscape:window-width="1920"
     inkscape:window-height="1012"
     inkscape:window-x="0"
     inkscape:window-y="0"
     inkscape:window-maximized="1"
     inkscape:current-layer="svg371"
     showguides="false" /><defs
     id="defs368" /><path
     d="M 1,16 C 1,4.75 4.75,1 16,1 27.25,1 31,4.75 31,16 31,27.25 27.25,31 16,31 4.75,31 1,27.25 1,16"
     style="fill:#e8b641;fill-opacity:1;stroke-width:0.15"
     id="path311" /><path
     id="path1034"
     style="fill:#ffffff;fill-opacity:1;stroke:none;stroke-width:2;stroke-linecap:round;stroke-linejoin:round;stroke-dasharray:none;stroke-opacity:1"
     d="M 16 6 A 10 10 0 0 0 6 16 A 10 10 0 0 0 16 26 A 10 10 0 0 0 26 16 A 10 10 0 0 0 16 6 z M 11.5 12 A 1.5 1.5 0 0 1 13 13.5 A 1.5 1.5 0 0 1 11.5 15 A 1.5 1.5 0 0 1 10 13.5 A 1.5 1.5 0 0 1 11.5 12 z M 20.5 12 A 1.5 1.5 0 0 1 22 13.5 A 1.5 1.5 0 0 1 20.5 15 A 1.5 1.5 0 0 1 19 13.5 A 1.5 1.5 0 0 1 20.5 12 z M 11.757812 19.242188 A 1 1 0 0 1 12.464844 19.535156 C 13.402794 20.473107 14.673537 21 16 21 C 17.326463 21 18.597206 20.473107 19.535156 19.535156 A 1 1 0 0 1 20.949219 19.535156 A 1 1 0 0 1 20.949219 20.949219 C 19.636739 22.261696 17.856125 23 16 23 C 14.143875 23 12.363261 22.261696 11.050781 20.949219 A 1 1 0 0 1 11.050781 19.535156 A 1 1 0 0 1 11.757812 19.242188 z " /></svg>
