<?xml version="1.0" encoding="UTF-8" standalone="no"?>
<!-- Created with Inkscape (http://www.inkscape.org/) -->

<svg
   width="32"
   height="32"
   viewBox="0 0 32 32"
   version="1.1"
   id="svg371"
   xml:space="preserve"
   inkscape:version="1.2.2 (b0a8486541, 2022-12-01)"
   sodipodi:docname="preferences-system-power.svg"
   xmlns:inkscape="http://www.inkscape.org/namespaces/inkscape"
   xmlns:sodipodi="http://sodipodi.sourceforge.net/DTD/sodipodi-0.dtd"
   xmlns="http://www.w3.org/2000/svg"
   xmlns:svg="http://www.w3.org/2000/svg"><sodipodi:namedview
     id="namedview373"
     pagecolor="#ffffff"
     bordercolor="#000000"
     borderopacity="0.25"
     inkscape:showpageshadow="2"
     inkscape:pageopacity="0.0"
     inkscape:pagecheckerboard="0"
     inkscape:deskcolor="#d1d1d1"
     inkscape:document-units="px"
     showgrid="false"
     inkscape:zoom="24.6875"
     inkscape:cx="16"
     inkscape:cy="16"
     inkscape:window-width="1920"
     inkscape:window-height="1011"
     inkscape:window-x="0"
     inkscape:window-y="0"
     inkscape:window-maximized="1"
     inkscape:current-layer="svg371"
     showguides="false"
     inkscape:lockguides="true" /><defs
     id="defs368" /><path
     d="M 1,16 C 1,4.75 4.75,1 16,1 27.25,1 31,4.75 31,16 31,27.25 27.25,31 16,31 4.75,31 1,27.25 1,16"
     style="fill:#55e147;fill-opacity:1;stroke-width:0.15;stroke:none"
     id="path311"
     sodipodi:nodetypes="csssc" /><path
     id="path1721"
     style="color:#000000;fill:#ffffff;stroke-width:2.0002;stroke-linecap:round;stroke-linejoin:round;-inkscape-stroke:none"
     d="M 17.044922 6.0019531 A 1.0001978 1.0001978 0 0 0 16.878906 6.0078125 A 1.0001978 1.0001978 0 0 0 16.142578 6.4863281 L 10.142578 16.488281 A 1.0001978 1.0001978 0 0 0 11 18.001953 L 14.867188 18.001953 L 14.007812 24.876953 A 1.0001978 1.0001978 0 0 0 15.857422 25.515625 L 21.859375 15.513672 A 1.0001978 1.0001978 0 0 0 21.001953 14 L 17.132812 14 L 17.992188 7.125 A 1.0001978 1.0001978 0 0 0 17.044922 6.0019531 z " /></svg>
