<?xml version="1.0" encoding="UTF-8" standalone="no"?>
<svg
   viewbox="0 0 200 200"
   version="1.1"
   id="svg4"
   sodipodi:docname="preferences-desktop-theme-global.svg"
   width="32"
   height="32"
   inkscape:version="1.2.2 (1:1.2.2+202212051552+b0a8486541)"
   xmlns:inkscape="http://www.inkscape.org/namespaces/inkscape"
   xmlns:sodipodi="http://sodipodi.sourceforge.net/DTD/sodipodi-0.dtd"
   xmlns="http://www.w3.org/2000/svg"
   xmlns:svg="http://www.w3.org/2000/svg">
  <defs
     id="defs8" />
  <sodipodi:namedview
     id="namedview6"
     pagecolor="#ffffff"
     bordercolor="#666666"
     borderopacity="1.0"
     inkscape:pageshadow="2"
     inkscape:pageopacity="0.0"
     inkscape:pagecheckerboard="0"
     showgrid="false"
     inkscape:zoom="25.3125"
     inkscape:cx="14.854321"
     inkscape:cy="16"
     inkscape:window-width="1920"
     inkscape:window-height="1012"
     inkscape:window-x="0"
     inkscape:window-y="0"
     inkscape:window-maximized="1"
     inkscape:current-layer="svg4"
     showguides="false"
     inkscape:showpageshadow="2"
     inkscape:deskcolor="#d1d1d1" />
  <path
     d="M 1,16 C 1,4.7499998 4.75,1 16,1 27.25,1 31,4.7499998 31,16 31,27.25 27.25,31 16,31 4.75,31 1,27.25 1,16"
     style="fill:#c47bdf;fill-opacity:1;stroke-width:0.15"
     id="path311" />
  <path
     d="M 7.0000018,8.0001443 V 13.000145 H 25.000002 V 9.0001446 c -0.643714,-0.4241328 -1.155088,-1.0106988 -4,-1.0000003 -3.366255,-0.0041 -5.335763,1.4609653 -8,1.5000003 -1.741614,-0.0024 -4.5557002,-0.274877 -6.0000002,-1.5000003 z m 0,6.0000007 v 5 c -0.0026,1.006535 2.8762808,1.631181 5.0000002,2 1.557182,0.290186 2.497458,-0.03274 2.5,2 5.86e-4,0.468919 -0.495244,1.393971 -0.5,2 0,1.104566 0.895433,2 2,2 1.104566,0 2,-0.895434 2,-2 -0.0048,-0.606029 -0.49333,-1.531129 -0.5,-2 0.0026,-1.986492 0.942819,-1.709814 2.5,-2 2.123719,-0.368819 5.0026,-0.993465 5,-2 v -5 z"
     style="fill:#ffffff;stroke-width:0.5"
     id="path598"
     sodipodi:nodetypes="ccccccccccscscccccc" />
</svg>
