<?xml version="1.0" encoding="UTF-8" standalone="no"?>
<!-- Created with Inkscape (http://www.inkscape.org/) -->

<svg
   width="32"
   height="32"
   viewBox="0 0 32 32"
   version="1.1"
   id="svg371"
   xml:space="preserve"
   inkscape:version="1.2.2 (b0a8486541, 2022-12-01)"
   sodipodi:docname="preferences-desktop-plasma-theme.svg"
   xmlns:inkscape="http://www.inkscape.org/namespaces/inkscape"
   xmlns:sodipodi="http://sodipodi.sourceforge.net/DTD/sodipodi-0.dtd"
   xmlns="http://www.w3.org/2000/svg"
   xmlns:svg="http://www.w3.org/2000/svg"><sodipodi:namedview
     id="namedview373"
     pagecolor="#ffffff"
     bordercolor="#000000"
     borderopacity="0.25"
     inkscape:showpageshadow="2"
     inkscape:pageopacity="0.0"
     inkscape:pagecheckerboard="0"
     inkscape:deskcolor="#d1d1d1"
     inkscape:document-units="px"
     showgrid="false"
     inkscape:zoom="25.78125"
     inkscape:cx="14.060606"
     inkscape:cy="16.058182"
     inkscape:window-width="1920"
     inkscape:window-height="1011"
     inkscape:window-x="0"
     inkscape:window-y="0"
     inkscape:window-maximized="1"
     inkscape:current-layer="svg371"
     showguides="true" /><defs
     id="defs368" /><path
     d="M 1,16 C 1,4.75 4.75,1 16,1 27.25,1 31,4.75 31,16 31,27.25 27.25,31 16,31 4.75,31 1,27.25 1,16"
     style="fill:#c47bdf;fill-opacity:1;stroke-width:0.15"
     id="path311" /><path
     id="path360"
     style="fill:#ffffff;stroke-width:1"
     d="m 11,6.0000001 c -0.830999,0 -1.4999999,0.669001 -1.4999999,1.5 0,0.8309988 0.6690009,1.4999998 1.4999999,1.4999998 0.830999,0 1.5,-0.669001 1.5,-1.4999998 0,-0.830999 -0.669001,-1.5 -1.5,-1.5 z m 7.857422,0 L 16,8.7998049 20.286133,13 16,17.200195 18.857422,20 26,13 Z M 7.7500001,14 c -0.969492,0 -1.75,0.780494 -1.75,1.75 0,0.969492 0.780508,1.75 1.75,1.75 0.969506,0 1.75,-0.780508 1.75,-1.75 0,-0.969506 -0.780494,-1.75 -1.75,-1.75 z M 13.5,21 C 12.115002,21 11,22.115001 11,23.5 11,24.884999 12.115002,26 13.5,26 14.884999,26 16,24.884999 16,23.5 16,22.115001 14.884999,21 13.5,21 Z" /></svg>
