<?xml version="1.0" encoding="UTF-8" standalone="no"?>
<!-- Created with Inkscape (http://www.inkscape.org/) -->

<svg
   width="32"
   height="32"
   viewBox="0 0 32 32"
   version="1.1"
   id="svg371"
   xml:space="preserve"
   inkscape:version="1.2.2 (1:1.2.2+202305151914+b0a8486541)"
   sodipodi:docname="preferences-devices-printer.svg"
   xmlns:inkscape="http://www.inkscape.org/namespaces/inkscape"
   xmlns:sodipodi="http://sodipodi.sourceforge.net/DTD/sodipodi-0.dtd"
   xmlns="http://www.w3.org/2000/svg"
   xmlns:svg="http://www.w3.org/2000/svg"><sodipodi:namedview
     id="namedview373"
     pagecolor="#ffffff"
     bordercolor="#000000"
     borderopacity="0.25"
     inkscape:showpageshadow="2"
     inkscape:pageopacity="0.0"
     inkscape:pagecheckerboard="0"
     inkscape:deskcolor="#d1d1d1"
     inkscape:document-units="px"
     showgrid="false"
     inkscape:zoom="25.1875"
     inkscape:cx="15.980149"
     inkscape:cy="16"
     inkscape:window-width="1920"
     inkscape:window-height="1008"
     inkscape:window-x="0"
     inkscape:window-y="0"
     inkscape:window-maximized="1"
     inkscape:current-layer="svg371"
     showguides="true" /><defs
     id="defs368" /><path
     d="M 1,16 C 1,4.75 4.75,1 16,1 27.25,1 31,4.75 31,16 31,27.25 27.25,31 16,31 4.75,31 1,27.25 1,16"
     style="fill:#5098ee;fill-opacity:1;stroke-width:0.15"
     id="path311" /><path
     id="rect342"
     style="fill:#ffffff;fill-opacity:1"
     d="M 12 6 C 10.338004 6 9 7.3380034 9 9 L 9 15 L 23 15 L 23 13 L 20 13 C 17.784004 13 16 11.215996 16 9 L 16 6 L 12 6 z M 17 6 L 17 9 C 17 10.661998 18.338002 12 20 12 L 23 12 L 17 6 z M 9 16 C 7.3380034 16 6 17.338004 6 19 L 6 23 C 6 24.661996 7.3380034 26 9 26 L 23 26 C 24.661996 26 26 24.661996 26 23 L 26 19 C 26 17.338004 24.661996 16 23 16 L 9 16 z M 9 22 L 23 22 C 23.553998 22 24 22.446002 24 23 C 24 23.553998 23.553998 24 23 24 L 9 24 C 8.4460012 24 8 23.553998 8 23 C 8 22.446002 8.4460012 22 9 22 z " /></svg>
