<?xml version="1.0" encoding="UTF-8" standalone="no"?>
<!-- Created with Inkscape (http://www.inkscape.org/) -->

<svg
   width="32"
   height="32"
   viewBox="0 0 32 32"
   version="1.1"
   id="svg371"
   xml:space="preserve"
   inkscape:version="1.3.2 (091e20ef0f, 2023-11-25, custom)"
   sodipodi:docname="preferences-desktop-user-feedback.svg"
   xmlns:inkscape="http://www.inkscape.org/namespaces/inkscape"
   xmlns:sodipodi="http://sodipodi.sourceforge.net/DTD/sodipodi-0.dtd"
   xmlns="http://www.w3.org/2000/svg"
   xmlns:svg="http://www.w3.org/2000/svg"><sodipodi:namedview
     id="namedview373"
     pagecolor="#ffffff"
     bordercolor="#000000"
     borderopacity="0.25"
     inkscape:showpageshadow="2"
     inkscape:pageopacity="0.0"
     inkscape:pagecheckerboard="0"
     inkscape:deskcolor="#d1d1d1"
     inkscape:document-units="px"
     showgrid="false"
     inkscape:zoom="25.46875"
     inkscape:cx="16"
     inkscape:cy="16"
     inkscape:window-width="1920"
     inkscape:window-height="1004"
     inkscape:window-x="0"
     inkscape:window-y="30"
     inkscape:window-maximized="1"
     inkscape:current-layer="svg371"
     showguides="true" /><defs
     id="defs368" /><path
     d="M 1,16 C 1,4.75 4.75,1 16,1 27.25,1 31,4.75 31,16 31,27.25 27.25,31 16,31 4.75,31 1,27.25 1,16"
     style="fill:#2c8ae9;fill-opacity:1;stroke-width:0.15"
     id="path311" /><path
     id="path921"
     style="opacity:1;fill:#ffffff;stroke-width:1.0247"
     d="M 16 6 A 10.5 9 0 0 0 5.5 15 A 10.5 9 0 0 0 10.271484 22.535156 C 9.9931324 23.790128 9.5909326 24.96835 9 26 C 10.50246 25.283451 11.821333 24.536595 13.052734 23.636719 A 10.5 9 0 0 0 16 24 A 10.5 9 0 0 0 26.5 15 A 10.5 9 0 0 0 16 6 z " /><path
     id="path1127"
     style="fill:#2c8ae9;stroke-width:0.666667;fill-opacity:1"
     d="M 10 13 A 2 2 0 0 0 8 15 A 2 2 0 0 0 10 17 A 2 2 0 0 0 12 15 A 2 2 0 0 0 10 13 z M 16 13 A 2 2 0 0 0 14 15 A 2 2 0 0 0 16 17 A 2 2 0 0 0 18 15 A 2 2 0 0 0 16 13 z M 22 13 A 2 2 0 0 0 20 15 A 2 2 0 0 0 22 17 A 2 2 0 0 0 24 15 A 2 2 0 0 0 22 13 z " /></svg>
