<?xml version="1.0" encoding="UTF-8" standalone="no"?>
<!-- Created with Inkscape (http://www.inkscape.org/) -->

<svg
   width="16"
   height="16"
   viewBox="0 0 16 16"
   version="1.1"
   id="svg292"
   inkscape:version="1.2.2 (1:1.2.2+202305151914+b0a8486541)"
   sodipodi:docname="application-menu-symbolic.svg"
   xmlns:inkscape="http://www.inkscape.org/namespaces/inkscape"
   xmlns:sodipodi="http://sodipodi.sourceforge.net/DTD/sodipodi-0.dtd"
   xmlns="http://www.w3.org/2000/svg"
   xmlns:svg="http://www.w3.org/2000/svg">
  <sodipodi:namedview
     id="namedview294"
     pagecolor="#ffffff"
     bordercolor="#000000"
     borderopacity="0.25"
     inkscape:showpageshadow="2"
     inkscape:pageopacity="0.0"
     inkscape:pagecheckerboard="0"
     inkscape:deskcolor="#d1d1d1"
     inkscape:document-units="px"
     showgrid="false"
     showguides="true"
     inkscape:zoom="50.375"
     inkscape:cx="8"
     inkscape:cy="8"
     inkscape:window-width="1920"
     inkscape:window-height="1008"
     inkscape:window-x="0"
     inkscape:window-y="0"
     inkscape:window-maximized="1"
     inkscape:current-layer="layer1" />
  <defs
     id="defs289" />
  <g
     inkscape:label="Layer 1"
     inkscape:groupmode="layer"
     id="layer1">
    <path
       id="path968"
       style="color:#000000;fill:#dfdfdf;stroke-width:2;stroke-linecap:round;stroke-linejoin:round;-inkscape-stroke:none;stroke:none"
       d="M 7 0 C 6.4460024 0 6.1160787 0.4582997 6 1 L 5.4472656 3.578125 L 2.9375 2.7675781 C 2.4233724 2.5612135 1.8492644 2.6549895 1.5722656 3.1347656 L 0.57226562 4.8652344 C 0.29526674 5.3450104 0.5264131 5.8610445 0.9375 6.2324219 L 2.8945312 8 L 0.9375 9.7675781 C 0.52641264 10.138957 0.29526674 10.654988 0.57226562 11.134766 L 1.5722656 12.865234 C 1.8492644 13.345012 2.423373 13.438787 2.9375 13.232422 L 5.4472656 12.421875 L 6 15 C 6.0783468 15.548428 6.4460024 16 7 16 L 9 16 C 9.5539976 16 9.8839212 15.541699 10 15 L 10.552734 12.421875 L 13.0625 13.232422 C 13.576625 13.438787 14.150738 13.345012 14.427734 12.865234 L 15.427734 11.134766 C 15.704734 10.654988 15.473594 10.138957 15.0625 9.7675781 L 13.105469 8 L 15.0625 6.2324219 C 15.473589 5.8610445 15.704734 5.3450104 15.427734 4.8652344 L 14.427734 3.1347656 C 14.150738 2.6549895 13.576626 2.5612135 13.0625 2.7675781 L 10.552734 3.578125 L 10 1 C 9.9216534 0.4515702 9.5539976 0 9 0 L 7 0 z M 7.0625 1 L 8.9589844 1 C 8.9704704 1.016524 8.9978096 1.0569302 9.0097656 1.140625 A 1.0001 1.0001 0 0 0 9.0214844 1.2089844 L 9.5742188 3.7871094 A 1.0001 1.0001 0 0 0 10.859375 4.5292969 L 13.369141 3.71875 A 1.0001 1.0001 0 0 0 13.435547 3.6953125 C 13.513197 3.6641445 13.561974 3.6682699 13.582031 3.6699219 L 14.53125 5.3125 C 14.51746 5.341217 14.48343 5.4081572 14.392578 5.4902344 L 12.435547 7.2578125 A 1.0001 1.0001 0 0 0 12.435547 8.7421875 L 14.392578 10.509766 C 14.483428 10.591846 14.517458 10.658785 14.53125 10.6875 L 13.582031 12.330078 C 13.561971 12.331778 13.513201 12.335876 13.435547 12.304688 A 1.0001 1.0001 0 0 0 13.369141 12.28125 L 10.859375 11.470703 A 1.0001 1.0001 0 0 0 9.5742188 12.212891 L 9.0214844 14.791016 C 8.995631 14.911665 8.9552505 14.973963 8.9375 15 L 7.0410156 15 C 7.0295296 14.98348 7.0021904 14.94307 6.9902344 14.859375 A 1.0001 1.0001 0 0 0 6.9785156 14.791016 L 6.4257812 12.212891 A 1.0001 1.0001 0 0 0 5.140625 11.470703 L 2.6308594 12.28125 A 1.0001 1.0001 0 0 0 2.5644531 12.304688 C 2.4868023 12.335856 2.4380256 12.331728 2.4179688 12.330078 L 1.46875 10.6875 C 1.482543 10.65878 1.5165672 10.59184 1.6074219 10.509766 L 3.5644531 8.7421875 A 1.0001 1.0001 0 0 0 3.5644531 7.2578125 L 1.6074219 5.4902344 C 1.5165684 5.408157 1.4825429 5.3412181 1.46875 5.3125 L 2.4179688 3.6699219 C 2.4380256 3.6682719 2.486802 3.6641415 2.5644531 3.6953125 A 1.0001 1.0001 0 0 0 2.6308594 3.71875 L 5.140625 4.5292969 A 1.0001 1.0001 0 0 0 6.4257812 3.7871094 L 6.9785156 1.2089844 C 7.004369 1.0883356 7.0447496 1.0260366 7.0625 1 z M 8 5 C 6.3431494 5 5 6.3431492 5 8 C 5 9.6568508 6.3431494 11 8 11 C 9.6568506 11 11 9.6568508 11 8 C 11 6.3431492 9.6568506 5 8 5 z M 8 6 C 9.1045671 6 10 6.8954327 10 8 C 10 9.1045671 9.1045671 10 8 10 C 6.8954329 10 6 9.1045671 6 8 C 6 6.8954327 6.8954329 6 8 6 z " />
  </g>
</svg>
