<?xml version="1.0" encoding="UTF-8" standalone="no"?>
<!-- Created with Inkscape (http://www.inkscape.org/) -->

<svg
   width="16"
   height="16"
   viewBox="0 0 16 16"
   version="1.1"
   id="svg292"
   inkscape:version="1.3.2 (091e20ef0f, 2023-11-25, custom)"
   sodipodi:docname="explore2-symbolic.svg"
   xmlns:inkscape="http://www.inkscape.org/namespaces/inkscape"
   xmlns:sodipodi="http://sodipodi.sourceforge.net/DTD/sodipodi-0.dtd"
   xmlns="http://www.w3.org/2000/svg"
   xmlns:svg="http://www.w3.org/2000/svg">
  <sodipodi:namedview
     id="namedview294"
     pagecolor="#ffffff"
     bordercolor="#000000"
     borderopacity="0.25"
     inkscape:showpageshadow="2"
     inkscape:pageopacity="0.0"
     inkscape:pagecheckerboard="0"
     inkscape:deskcolor="#d1d1d1"
     inkscape:document-units="px"
     showgrid="false"
     showguides="true"
     inkscape:zoom="50.375"
     inkscape:cx="8"
     inkscape:cy="7.9900744"
     inkscape:window-width="1920"
     inkscape:window-height="1008"
     inkscape:window-x="0"
     inkscape:window-y="0"
     inkscape:window-maximized="1"
     inkscape:current-layer="layer1" />
  <defs
     id="defs289" />
  <g
     inkscape:label="Layer 1"
     inkscape:groupmode="layer"
     id="layer1">
    <path
       d="M 8.0059,0 C 7.38326,-0.00262 6.8214,0.38521 6.5997,0.96094 V 0.96289 L 5.0333,5.03319 0.961,6.59959 C 0.3647,6.829413 6e-5,7.437423 6e-5,7.999993 c 0,0.56256 0.36464,1.1706 0.96094,1.4004 l 4.0723,1.5664 1.5664,4.0723 c 0.22983,0.59632 0.83784,0.96094 1.4004,0.96094 0.56302,0 1.171,-0.36568 1.4004,-0.96289 l 1.5664,-4.0703 4.0703,-1.5664 c 0.59718,-0.22938 0.96289,-0.83736 0.96289,-1.4004 0,-0.56257 -0.36464,-1.1706 -0.96094,-1.4004 h -0.002 l -4.0703,-1.5664 -1.5664,-4.0703 V 0.96099 C 9.179717,0.38792 8.624487,0.00226 8.005997,5e-5 Z M 8.00199,1 c 0.20618,7.35e-4 0.39073,0.12988 0.46484,0.32227 l 1.7266,4.4844 4.4863,1.7266 c 0.42766,0.16427 0.42766,0.76933 0,0.93359 l -4.4863,1.7266 -1.7266,4.4863 c -0.16427,0.42766 -0.76933,0.42766 -0.93359,0 l -1.7266,-4.4863 -4.4863,-1.7266 c -0.42766,-0.16427 -0.42766,-0.76933 0,-0.93359 l 4.4863,-1.7266 1.7266,-4.4844 C 7.6078607,1.12855 7.7944037,0.99913 8.0019937,1 Z m 4.6465,0.90625 C 12.42472,1.89797 12.19785,1.939345 11.98638,2.0332 l -0.94141,0.41797 0.35938,0.93555 0.98828,-0.43945 c 0.18974,-0.084215 0.41242,-0.043894 0.55859,0.10352 0.14527,0.14631 0.18519,0.36819 0.10156,0.55664 l -0.43945,0.98828 0.93555,0.35938 0.41797,-0.94141 C 14.21594,3.45234 14.09601,2.78658 13.66021,2.34768 13.3862,2.07135 13.02143,1.92007 12.64851,1.90627 Z M 3.33209,1.91211 C 2.95302,1.934221 2.59243,2.09513 2.34381,2.34375 1.94602,2.74154 1.77412,3.42955 2.03326,4.01365 L 2.45123,4.95506 3.38678,4.59568 2.94733,3.6074 C 2.76108,3.18884 3.18893,2.76099 3.60749,2.94724 L 4.59577,3.38669 4.95515,2.45114 4.01374,2.03317 C 3.79468,1.935991 3.55954,1.89881 3.3321,1.91208 Z m 4.668,4.0879 c -1.1045695,0 -2,0.8954305 -2,2 0,1.1045695 0.8954305,2 2,2 1.1045695,0 2,-0.8954305 2,-2 0,-1.1045695 -0.8954305,-2 -2,-2 z m 0,1 c 0.5522847,0 1,0.4477153 1,1 0,0.5522847 -0.4477153,1 -1,1 -0.5522847,0 -1,-0.4477153 -1,-1 0,-0.5522847 0.4477153,-1 1,-1 z m -5.5488,4.0449 -0.41797,0.94141 c -0.25915,0.58418 -0.087237,1.2721 0.31055,1.6699 0.39811,0.39812 1.0854,0.57063 1.6699,0.31055 L 4.95518,13.5488 4.5958,12.61325 3.60752,13.0527 C 3.18897,13.23894 2.76112,12.8111 2.94736,12.39254 L 3.38681,11.40426 2.45126,11.04488 Z m 11.098,0 -0.93555,0.35938 0.43945,0.98828 c 0.18625,0.41856 -0.2416,0.8464 -0.66016,0.66016 l -0.98828,-0.43945 -0.35938,0.93555 0.94141,0.41797 c 0.58447,0.26008 1.2718,0.08758 1.6699,-0.31055 0.39779,-0.39779 0.56969,-1.0858 0.31055,-1.6699 l -0.41797,-0.94141 z"
       style="fill:#dfdfdf;fill-opacity:1"
       id="path1" />
  </g>
</svg>
