<?xml version="1.0" encoding="UTF-8" standalone="no"?>
<!-- Created with Inkscape (http://www.inkscape.org/) -->

<svg
   width="16"
   height="16"
   viewBox="0 0 16 16"
   version="1.1"
   id="svg292"
   inkscape:version="1.3.2 (091e20ef0f, 2023-11-25, custom)"
   sodipodi:docname="go-last-symbolic.svg"
   xmlns:inkscape="http://www.inkscape.org/namespaces/inkscape"
   xmlns:sodipodi="http://sodipodi.sourceforge.net/DTD/sodipodi-0.dtd"
   xmlns="http://www.w3.org/2000/svg"
   xmlns:svg="http://www.w3.org/2000/svg">
  <sodipodi:namedview
     id="namedview294"
     pagecolor="#ffffff"
     bordercolor="#000000"
     borderopacity="0.25"
     inkscape:showpageshadow="2"
     inkscape:pageopacity="0.0"
     inkscape:pagecheckerboard="0"
     inkscape:deskcolor="#d1d1d1"
     inkscape:document-units="px"
     showgrid="false"
     showguides="true"
     inkscape:zoom="49.6875"
     inkscape:cx="7.9899371"
     inkscape:cy="8"
     inkscape:window-width="1920"
     inkscape:window-height="1008"
     inkscape:window-x="0"
     inkscape:window-y="0"
     inkscape:window-maximized="1"
     inkscape:current-layer="svg292" />
  <defs
     id="defs289" />
  <path
     id="path293"
     style="color:#dfdfdf;fill:currentColor;fill-opacity:1;stroke-width:5.00001;stroke-linecap:round;stroke-linejoin:round"
     d="M 3.5 1.84375 C 3.3721907 1.84375 3.2444193 1.8922995 3.1464844 1.9902344 C 2.9506136 2.1861021 2.9506136 2.5013988 3.1464844 2.6972656 L 8.4492188 8 L 3.1464844 13.302734 C 2.9506146 13.498601 2.9506136 13.813896 3.1464844 14.009766 C 3.3423522 14.205634 3.657634 14.205623 3.8535156 14.009766 L 9.4902344 8.3730469 C 9.4965844 8.3673069 9.5036656 8.3596156 9.5097656 8.3535156 C 9.7056354 8.1576478 9.7056244 7.8423652 9.5097656 7.6464844 L 3.8535156 1.9902344 C 3.7555813 1.8922996 3.6278093 1.84375 3.5 1.84375 z M 12 7 C 11.447716 7 11 7.4477159 11 8 C 11 8.5522841 11.447716 9 12 9 C 12.552284 9 13 8.5522841 13 8 C 13 7.4477159 12.552284 7 12 7 z " />
</svg>
