<?xml version="1.0" encoding="UTF-8" standalone="no"?>
<!-- Created with Inkscape (http://www.inkscape.org/) -->

<svg
   width="16"
   height="16"
   viewBox="0 0 16 16"
   version="1.1"
   id="svg292"
   inkscape:version="1.3.2 (091e20ef0f, 2023-11-25, custom)"
   sodipodi:docname="nemo-horizontal-layout-wide-symbolic.svg"
   xmlns:inkscape="http://www.inkscape.org/namespaces/inkscape"
   xmlns:sodipodi="http://sodipodi.sourceforge.net/DTD/sodipodi-0.dtd"
   xmlns="http://www.w3.org/2000/svg"
   xmlns:svg="http://www.w3.org/2000/svg">
  <sodipodi:namedview
     id="namedview294"
     pagecolor="#ffffff"
     bordercolor="#000000"
     borderopacity="0.25"
     inkscape:showpageshadow="2"
     inkscape:pageopacity="0.0"
     inkscape:pagecheckerboard="0"
     inkscape:deskcolor="#d1d1d1"
     inkscape:document-units="px"
     showgrid="false"
     showguides="true"
     inkscape:zoom="49.6875"
     inkscape:cx="7.9899371"
     inkscape:cy="8"
     inkscape:window-width="1920"
     inkscape:window-height="1008"
     inkscape:window-x="0"
     inkscape:window-y="0"
     inkscape:window-maximized="1"
     inkscape:current-layer="svg292" />
  <defs
     id="defs289" />
  <path
     id="path340"
     style="fill:#dfdfdf;fill-opacity:1;stroke-width:1;stroke-linecap:round;stroke-linejoin:round"
     d="M 1,8 C 1,8.5522847 1.4477153,9 2,9 2.5522847,9 3,8.5522847 3,8 3,7.4477153 2.5522847,7 2,7 1.4477153,7 1,7.4477153 1,8 Z M 7,8 C 7,8.5522847 7.4477153,9 8,9 8.5522847,9 9,8.5522847 9,8 9,7.4477153 8.5522847,7 8,7 7.4477153,7 7,7.4477153 7,8 Z m 6,0 c 0,0.5522847 0.447715,1 1,1 0.552285,0 1,-0.4477153 1,-1 0,-0.5522847 -0.447715,-1 -1,-1 -0.552285,0 -1,0.4477153 -1,1 z"
     sodipodi:nodetypes="sssssssssssssss" />
</svg>
