<?xml version="1.0" encoding="UTF-8" standalone="no"?>
<svg
   width="16px"
   height="16px"
   version="1.1"
   viewBox="0 0 16 16"
   id="svg6"
   sodipodi:docname="screenshooter-symbolic.svg"
   inkscape:version="1.2.2 (1:1.2.2+202212051552+b0a8486541)"
   xmlns:inkscape="http://www.inkscape.org/namespaces/inkscape"
   xmlns:sodipodi="http://sodipodi.sourceforge.net/DTD/sodipodi-0.dtd"
   xmlns="http://www.w3.org/2000/svg"
   xmlns:svg="http://www.w3.org/2000/svg">
  <defs
     id="defs10" />
  <sodipodi:namedview
     id="namedview8"
     pagecolor="#ffffff"
     bordercolor="#000000"
     borderopacity="0.25"
     inkscape:showpageshadow="2"
     inkscape:pageopacity="0.0"
     inkscape:pagecheckerboard="0"
     inkscape:deskcolor="#d1d1d1"
     showgrid="false"
     inkscape:zoom="50.625"
     inkscape:cx="7.9901235"
     inkscape:cy="8"
     inkscape:window-width="1920"
     inkscape:window-height="1012"
     inkscape:window-x="0"
     inkscape:window-y="0"
     inkscape:window-maximized="1"
     inkscape:current-layer="svg6" />
  <path
     d="M 4,1 C 2.338002,1 1,2.3380017 1,4 V 5 H 3 V 4 C 3,3.4460006 3.446001,3 4,3 H 5 V 1 Z m 7,0 v 2 h 1 c 0.553999,0 1,0.4460006 1,1 v 1 h 2 V 4 C 15,2.3380017 13.661998,1 12,1 Z m -0.957031,6.0117188 c -0.5664097,0 -1.0194628,0.4257842 -1.0390628,0.9648437 H 8.011719 C 6.89842,7.9765625 6,8.8750224 6,9.9882812 V 14 c 0,1.113299 0.89846,2.011719 2.011719,2.011719 h 5.976562 C 15.10158,16.011719 16,15.113259 16,14 V 9.9882812 C 16,8.8749824 15.10154,7.9765625 13.988281,7.9765625 H 13 C 12.980469,7.437503 12.523471,7.0117187 11.957031,7.0117188 Z M 11,10.011719 c 1.105499,0 2,0.894531 2,2 0,1.105469 -0.894531,2 -2,2 -1.1054689,0 -2,-0.894531 -2,-2 0,-1.105469 0.8945311,-2 2,-2 z M 1,11 v 1 c 0,1.661998 1.338002,3 3,3 H 5 V 13 H 4 C 3.446001,13 3,12.553999 3,12 v -1 z"
     id="path348"
     style="fill:#dfdfdf;fill-opacity:1" />
</svg>
