<?xml version="1.0" encoding="UTF-8" standalone="no"?>
<!-- Created with Inkscape (http://www.inkscape.org/) -->

<svg
   width="16"
   height="16"
   viewBox="0 0 16 16"
   version="1.1"
   id="svg5"
   inkscape:version="1.3 (0e150ed6c4, 2023-07-21)"
   sodipodi:docname="system-lock-screen-symbolic.svg"
   xmlns:inkscape="http://www.inkscape.org/namespaces/inkscape"
   xmlns:sodipodi="http://sodipodi.sourceforge.net/DTD/sodipodi-0.dtd"
   xmlns="http://www.w3.org/2000/svg"
   xmlns:svg="http://www.w3.org/2000/svg">
  <sodipodi:namedview
     id="namedview7"
     pagecolor="#ffffff"
     bordercolor="#000000"
     borderopacity="0.25"
     inkscape:showpageshadow="2"
     inkscape:pageopacity="0.0"
     inkscape:pagecheckerboard="0"
     inkscape:deskcolor="#d1d1d1"
     inkscape:document-units="px"
     showgrid="false"
     inkscape:zoom="49.75"
     inkscape:cx="7.9899497"
     inkscape:cy="8"
     inkscape:window-width="1920"
     inkscape:window-height="1000"
     inkscape:window-x="0"
     inkscape:window-y="0"
     inkscape:window-maximized="1"
     inkscape:current-layer="svg5" />
  <defs
     id="defs2" />
  <path
     id="path1"
     style="fill:#dfdfdf;fill-opacity:1"
     d="M 8 1 C 5.7840044 1 4 2.7840044 4 5 L 4 7 C 2.8920022 7 2 7.8920022 2 9 L 2 13 C 2 14.107998 2.8920022 15 4 15 L 12 15 C 13.107998 15 14 14.107998 14 13 L 14 9 C 14 7.8920022 13.107998 7 12 7 L 12 5 C 12 2.7840044 10.215996 1 8 1 z M 8 3 C 9.1079978 3 10 3.8920022 10 5 L 10 7 L 6 7 L 6 5 C 6 3.8920022 6.8920022 3 8 3 z " />
</svg>
