<?xml version="1.0" encoding="UTF-8" standalone="no"?>
<!-- Created with Inkscape (http://www.inkscape.org/) -->

<svg
   width="16"
   height="16"
   viewBox="0 0 16 16"
   version="1.1"
   id="svg292"
   inkscape:version="1.3.2 (091e20ef0f, 2023-11-25, custom)"
   sodipodi:docname="view-more-horizontal-symbolic.svg"
   xmlns:inkscape="http://www.inkscape.org/namespaces/inkscape"
   xmlns:sodipodi="http://sodipodi.sourceforge.net/DTD/sodipodi-0.dtd"
   xmlns="http://www.w3.org/2000/svg"
   xmlns:svg="http://www.w3.org/2000/svg">
  <sodipodi:namedview
     id="namedview294"
     pagecolor="#ffffff"
     bordercolor="#000000"
     borderopacity="0.25"
     inkscape:showpageshadow="2"
     inkscape:pageopacity="0.0"
     inkscape:pagecheckerboard="0"
     inkscape:deskcolor="#d1d1d1"
     inkscape:document-units="px"
     showgrid="false"
     showguides="true"
     inkscape:zoom="49.75"
     inkscape:cx="8"
     inkscape:cy="7.9899497"
     inkscape:window-width="1920"
     inkscape:window-height="1008"
     inkscape:window-x="0"
     inkscape:window-y="0"
     inkscape:window-maximized="1"
     inkscape:current-layer="svg292" />
  <defs
     id="defs289" />
  <path
     id="path340"
     style="fill:#dfdfdf;fill-opacity:1;stroke-width:1;stroke-linecap:round;stroke-linejoin:round"
     d="M 8 3 C 7.4477172 3 7 3.4477171 7 4 C 7 4.5522829 7.4477172 5 8 5 C 8.5522824 5 9 4.5522829 9 4 C 9 3.4477171 8.5522824 3 8 3 z M 8 7 C 7.4477172 7 7 7.4477171 7 8 C 7 8.5522829 7.4477172 9 8 9 C 8.5522824 9 9 8.5522829 9 8 C 9 7.4477171 8.5522824 7 8 7 z M 8 11 C 7.4477172 11 7 11.447718 7 12 C 7 12.552282 7.4477172 13 8 13 C 8.5522824 13 9 12.552282 9 12 C 9 11.447718 8.5522824 11 8 11 z " />
</svg>
