<?xml version="1.0" encoding="UTF-8" standalone="no"?>
<!-- Created with Inkscape (http://www.inkscape.org/) -->

<svg
   width="16"
   height="16"
   viewBox="0 0 16 16"
   version="1.1"
   id="svg371"
   xml:space="preserve"
   inkscape:version="1.2.2 (1:1.2.2+202305151914+b0a8486541)"
   sodipodi:docname="application-x-iso9660-appimage.svg"
   xmlns:inkscape="http://www.inkscape.org/namespaces/inkscape"
   xmlns:sodipodi="http://sodipodi.sourceforge.net/DTD/sodipodi-0.dtd"
   xmlns="http://www.w3.org/2000/svg"
   xmlns:svg="http://www.w3.org/2000/svg"><sodipodi:namedview
     id="namedview373"
     pagecolor="#ffffff"
     bordercolor="#000000"
     borderopacity="0.25"
     inkscape:showpageshadow="2"
     inkscape:pageopacity="0.0"
     inkscape:pagecheckerboard="0"
     inkscape:deskcolor="#d1d1d1"
     inkscape:document-units="px"
     showgrid="false"
     inkscape:zoom="50.375"
     inkscape:cx="7.9900744"
     inkscape:cy="8"
     inkscape:window-width="1920"
     inkscape:window-height="1008"
     inkscape:window-x="0"
     inkscape:window-y="0"
     inkscape:window-maximized="1"
     inkscape:current-layer="svg371"
     showguides="true" /><defs
     id="defs368" /><path
     id="path1179"
     style="fill:#1b7de6;fill-opacity:1;stroke-width:1.75;stroke-linecap:round;stroke-linejoin:round"
     d="m 7.1249999,1 c -0.484748,0 -0.773431,0.401011 -0.875,0.875 L 5.7656249,4.130859 3.5703119,3.421875 c -0.449862,-0.18057 -0.952938,-0.09949 -1.195312,0.320312 l -0.875,1.515625 c -0.242374,0.419805 -0.03939,0.870358 0.320312,1.195313 L 3.5332029,8 1.8203129,9.546875 c -0.359701,0.324956 -0.562687,0.775508 -0.320312,1.195313 l 0.874999,1.515624 c 0.242374,0.419806 0.745451,0.500883 1.195312,0.320313 l 2.195313,-0.708984 0.484375,2.255859 c 0.06856,0.479876 0.390252,0.875 0.875,0.875 h 1.75 c 0.4847502,0 0.7734312,-0.401012 0.8750002,-0.875 l 0.4843749,-2.255859 2.195313,0.708984 c 0.44986,0.18057 0.952938,0.0995 1.195312,-0.320313 L 14.5,10.742188 C 14.742375,10.322383 14.5394,9.871831 14.179688,9.546875 L 12.466797,8 14.179688,6.453125 C 14.53939,6.12817 14.742376,5.677617 14.5,5.257812 L 13.625,3.742187 C 13.382626,3.322383 12.879549,3.241305 12.429688,3.421875 L 10.234375,4.130859 9.7500001,1.875 C 9.6814401,1.395123 9.3597501,1 8.8749999,1 Z"
     sodipodi:nodetypes="scccccccccccccsscccccccccccccss" /><path
     id="rect1147"
     style="fill:#d4e2fc;fill-opacity:1;stroke-width:1.10422;stroke-linecap:round"
     d="m 7.9999999,5 c 0.554,0 1.0000002,0.446 1.0000002,1 V 9 H 11 l -3.0000001,3 -3,-3 h 2 V 6 c 0,-0.554 0.446,-1 1,-1 z"
     sodipodi:nodetypes="sscccccss" /></svg>
