<?xml version="1.0" encoding="UTF-8" standalone="no"?>
<!-- Created with Inkscape (http://www.inkscape.org/) -->

<svg
   width="16"
   height="16"
   viewBox="0 0 16 16"
   version="1.1"
   id="svg371"
   xml:space="preserve"
   inkscape:version="1.2.2 (1:1.2.2+202305151914+b0a8486541)"
   sodipodi:docname="application-x-plasma.svg"
   xmlns:inkscape="http://www.inkscape.org/namespaces/inkscape"
   xmlns:sodipodi="http://sodipodi.sourceforge.net/DTD/sodipodi-0.dtd"
   xmlns="http://www.w3.org/2000/svg"
   xmlns:svg="http://www.w3.org/2000/svg"><sodipodi:namedview
     id="namedview373"
     pagecolor="#ffffff"
     bordercolor="#000000"
     borderopacity="0.25"
     inkscape:showpageshadow="2"
     inkscape:pageopacity="0.0"
     inkscape:pagecheckerboard="0"
     inkscape:deskcolor="#d1d1d1"
     inkscape:document-units="px"
     showgrid="false"
     inkscape:zoom="50.375"
     inkscape:cx="8.0198511"
     inkscape:cy="8"
     inkscape:window-width="1920"
     inkscape:window-height="1008"
     inkscape:window-x="0"
     inkscape:window-y="0"
     inkscape:window-maximized="1"
     inkscape:current-layer="svg371"
     showguides="true" /><defs
     id="defs368" /><path
     d="m 4.9999999,1 c -0.554,0 -1,0.446 -1,1 0,0.554 0.446,1 1,1 0.5539999,0 1,-0.446 1,-1 0,-0.554 -0.446,-1 -1,-1 z m 5,0 -2,2 L 11,6 7.9999999,9 l 2,2 L 15,6 M 2.5,6 C 1.6690059,6 1,6.668994 1,7.5 1,8.330994 1.6690059,9 2.5,9 3.3310059,9 4,8.330994 4,7.5 4,6.668994 3.3310059,6 2.5,6 Z m 3.4999999,5 C 4.8919999,11 4,11.892 4,13 c 0,1.108 0.8919999,2 1.9999999,2 1.108,0 2,-0.892 2,-2 0,-1.108 -0.892,-2 -2,-2 z"
     style="fill:#3daee9;fill-opacity:1"
     id="path1901"
     sodipodi:nodetypes="sssssccccccssssssssss" /></svg>
