<?xml version="1.0" encoding="UTF-8" standalone="no"?>
<!-- Created with Inkscape (http://www.inkscape.org/) -->

<svg
   width="16"
   height="16"
   viewBox="0 0 16 16"
   version="1.1"
   id="svg371"
   xml:space="preserve"
   inkscape:version="1.2.2 (1:1.2.2+202305151914+b0a8486541)"
   sodipodi:docname="rpm.svg"
   xmlns:inkscape="http://www.inkscape.org/namespaces/inkscape"
   xmlns:sodipodi="http://sodipodi.sourceforge.net/DTD/sodipodi-0.dtd"
   xmlns="http://www.w3.org/2000/svg"
   xmlns:svg="http://www.w3.org/2000/svg"><sodipodi:namedview
     id="namedview373"
     pagecolor="#ffffff"
     bordercolor="#000000"
     borderopacity="0.25"
     inkscape:showpageshadow="2"
     inkscape:pageopacity="0.0"
     inkscape:pagecheckerboard="0"
     inkscape:deskcolor="#d1d1d1"
     inkscape:document-units="px"
     showgrid="false"
     inkscape:zoom="50.375"
     inkscape:cx="8.0198511"
     inkscape:cy="8"
     inkscape:window-width="1920"
     inkscape:window-height="1008"
     inkscape:window-x="0"
     inkscape:window-y="0"
     inkscape:window-maximized="1"
     inkscape:current-layer="svg371"
     showguides="false" /><defs
     id="defs368" /><path
     d="m 1,4 v 7 H 2 V 8 H 2.5 L 4,11 H 5 L 3.4707031,7.941406 C 4.367149,7.724329 4.9988863,6.922354 5,6 5,4.895431 4.1045695,4 3,4 Z m 5,0 v 7 H 7 V 8 H 8.0000003 C 9.1045693,8 10,7.104569 10,6 10,4.895431 9.1045693,4 8.0000003,4 Z m 5,0 v 7 h 1 V 6 l 1,2 h 1 l 1,-2 v 5 h 1 V 4 H 15 L 13.5,7 12,4 Z M 2,5 H 3 C 3.5522847,5 4,5.447715 4,6 4,6.552285 3.5522847,7 3,7 H 2 Z m 5,0 h 1.0000003 c 0.552285,0 1,0.447715 1,1 0,0.552285 -0.447715,1 -1,1 H 7 Z"
     style="fill:#dc4330;fill-opacity:1;stroke-width:2;stroke-linecap:round;stroke-linejoin:round"
     id="path631" /></svg>
