<?xml version="1.0" encoding="UTF-8" standalone="no"?>
<svg
   viewbox="0 0 200 200"
   version="1.1"
   id="svg4"
   sodipodi:docname="dialog-password.svg"
   width="32"
   height="32"
   inkscape:version="1.2.2 (1:1.2.2+202212051552+b0a8486541)"
   xmlns:inkscape="http://www.inkscape.org/namespaces/inkscape"
   xmlns:sodipodi="http://sodipodi.sourceforge.net/DTD/sodipodi-0.dtd"
   xmlns="http://www.w3.org/2000/svg"
   xmlns:svg="http://www.w3.org/2000/svg">
  <defs
     id="defs8" />
  <sodipodi:namedview
     id="namedview6"
     pagecolor="#ffffff"
     bordercolor="#666666"
     borderopacity="1.0"
     inkscape:pageshadow="2"
     inkscape:pageopacity="0.0"
     inkscape:pagecheckerboard="0"
     showgrid="false"
     inkscape:zoom="25.3125"
     inkscape:cx="15.980247"
     inkscape:cy="16"
     inkscape:window-width="1920"
     inkscape:window-height="1012"
     inkscape:window-x="0"
     inkscape:window-y="0"
     inkscape:window-maximized="1"
     inkscape:current-layer="svg4"
     showguides="false"
     inkscape:showpageshadow="2"
     inkscape:deskcolor="#d1d1d1" />
  <path
     d="M 1,16 C 1,5.2 5.2,1 16,1 26.8,1 31,5.2 31,16 31,26.8 26.8,31 16,31 5.2,31 1,26.8 1,16"
     id="path2"
     style="fill:#2daa9a;fill-opacity:1;stroke-width:0.15" />
  <path
     id="rect436"
     style="fill:#ffffff"
     d="M 16 6 C 13.230009 6 11 8.2300084 11 11 L 11 14 L 10 14 C 8.8920022 14 8 14.892002 8 16 L 8 24 C 8 25.107998 8.8920022 26 10 26 L 22 26 C 23.107998 26 24 25.107998 24 24 L 24 16 C 24 14.892002 23.107998 14 22 14 L 21 14 L 21 11 C 21 8.2300084 18.769991 6 16 6 z M 16 7 C 18.215994 7 20 8.7840066 20 11 L 20 14 L 12 14 L 12 11 C 12 8.7840066 13.784006 7 16 7 z M 16 17 A 2 2 0 0 1 18 19 A 2 2 0 0 1 17 20.726562 L 17 24 L 15 24 L 15 20.726562 A 2 2 0 0 1 14 19 A 2 2 0 0 1 16 17 z " />
</svg>
