<?xml version="1.0" encoding="UTF-8" standalone="no"?>
<svg
   viewbox="0 0 200 200"
   version="1.1"
   id="svg4"
   sodipodi:docname="dialog-information.svg"
   width="32"
   height="32"
   inkscape:version="1.2.1 (1:1.2.1+202210291243+9c6d41e410)"
   xmlns:inkscape="http://www.inkscape.org/namespaces/inkscape"
   xmlns:sodipodi="http://sodipodi.sourceforge.net/DTD/sodipodi-0.dtd"
   xmlns:xlink="http://www.w3.org/1999/xlink"
   xmlns="http://www.w3.org/2000/svg"
   xmlns:svg="http://www.w3.org/2000/svg">
  <defs
     id="defs8">
    <linearGradient
       inkscape:collect="always"
       id="linearGradient916">
      <stop
         style="stop-color:#3b9dff;stop-opacity:1;"
         offset="0"
         id="stop912" />
      <stop
         style="stop-color:#6db7ff;stop-opacity:1;"
         offset="1"
         id="stop914" />
    </linearGradient>
    <linearGradient
       inkscape:collect="always"
       xlink:href="#linearGradient916"
       id="linearGradient918"
       x1="16"
       y1="31"
       x2="16"
       y2="0.9999997"
       gradientUnits="userSpaceOnUse" />
  </defs>
  <sodipodi:namedview
     id="namedview6"
     pagecolor="#ffffff"
     bordercolor="#666666"
     borderopacity="1.0"
     inkscape:pageshadow="2"
     inkscape:pageopacity="0.0"
     inkscape:pagecheckerboard="0"
     showgrid="false"
     inkscape:zoom="25.78125"
     inkscape:cx="15.980606"
     inkscape:cy="16.038788"
     inkscape:window-width="1920"
     inkscape:window-height="1018"
     inkscape:window-x="0"
     inkscape:window-y="28"
     inkscape:window-maximized="1"
     inkscape:current-layer="svg4"
     showguides="false"
     inkscape:showpageshadow="2"
     inkscape:deskcolor="#d1d1d1" />
  <path
     d="m 0.9999999,16 c 0,-11.2500003 3.75,-15.0000003 15.0000001,-15.0000003 11.25,0 15,3.75 15,15.0000003 C 31,27.25 27.25,31 16,31 4.7499999,31 0.9999999,27.25 0.9999999,16"
     style="fill:url(#linearGradient918);fill-opacity:1;stroke-width:0.15"
     id="path311" />
  <path
     id="rect850"
     style="fill:#ffffff;fill-opacity:1;stroke-width:0.25;stroke-linecap:round;stroke-linejoin:round"
     d="M 16,6 C 10.475,6 6,10.475 6,16 6,21.525 10.475,26 16,26 21.525,26 26,21.525 26,16 26,10.475 21.525,6 16,6 Z"
     sodipodi:nodetypes="sssss" />
  <path
     id="path1021"
     style="fill:#2d96ff;fill-opacity:1;stroke-width:1.5;stroke-linecap:round;stroke-linejoin:round"
     d="M 16 10 A 1 1 0 0 0 15 11 A 1 1 0 0 0 16 12 A 1 1 0 0 0 17 11 A 1 1 0 0 0 16 10 z M 16 14 C 15.446001 14 15 14.446001 15 15 L 15 21 C 15 21.553999 15.446001 22 16 22 C 16.553999 22 17 21.553999 17 21 L 17 15 C 17 14.446001 16.553999 14 16 14 z " />
</svg>
