<?xml version="1.0" encoding="UTF-8" standalone="no"?>
<svg
   viewbox="0 0 200 200"
   version="1.1"
   id="svg4"
   sodipodi:docname="dialog-question.svg"
   width="32"
   height="32"
   inkscape:version="1.2.1 (1:1.2.1+202210291243+9c6d41e410)"
   xmlns:inkscape="http://www.inkscape.org/namespaces/inkscape"
   xmlns:sodipodi="http://sodipodi.sourceforge.net/DTD/sodipodi-0.dtd"
   xmlns:xlink="http://www.w3.org/1999/xlink"
   xmlns="http://www.w3.org/2000/svg"
   xmlns:svg="http://www.w3.org/2000/svg">
  <defs
     id="defs8">
    <linearGradient
       inkscape:collect="always"
       id="linearGradient2179">
      <stop
         style="stop-color:#2a6eea;stop-opacity:1;"
         offset="0"
         id="stop2175" />
      <stop
         style="stop-color:#529af5;stop-opacity:1;"
         offset="1"
         id="stop2177" />
    </linearGradient>
    <linearGradient
       inkscape:collect="always"
       xlink:href="#linearGradient2179"
       id="linearGradient2181"
       x1="16"
       y1="31"
       x2="16"
       y2="1"
       gradientUnits="userSpaceOnUse" />
  </defs>
  <sodipodi:namedview
     id="namedview6"
     pagecolor="#ffffff"
     bordercolor="#666666"
     borderopacity="1.0"
     inkscape:pageshadow="2"
     inkscape:pageopacity="0.0"
     inkscape:pagecheckerboard="0"
     showgrid="false"
     inkscape:zoom="25.78125"
     inkscape:cx="15.980606"
     inkscape:cy="16"
     inkscape:window-width="1920"
     inkscape:window-height="1018"
     inkscape:window-x="0"
     inkscape:window-y="28"
     inkscape:window-maximized="1"
     inkscape:current-layer="svg4"
     showguides="true"
     inkscape:showpageshadow="2"
     inkscape:deskcolor="#d1d1d1" />
  <path
     d="M 1,16 C 1,4.75 4.75,1 16,1 27.25,1 31,4.75 31,16 31,27.25 27.25,31 16,31 4.75,31 1,27.25 1,16"
     style="fill:url(#linearGradient2181);fill-opacity:1;stroke-width:0.15"
     id="path311" />
  <path
     d="m 14.292873,20 c 0.01793,-1.067025 0.138983,-1.57229 0.363148,-2.190986 0.224165,-0.618695 0.681461,-1.30464 1.371889,-2.057835 l 1.761937,-1.815736 c 0.753195,-0.851827 1.129792,-1.766421 1.129792,-2.74378 0,-0.941493 -0.246581,-1.6767548 -0.739744,-2.2057845 -0.493163,-0.537996 -1.210492,-0.806994 -2.151985,-0.806994 -0.914593,0 -1.649855,0.2420982 -2.205784,0.7262945 -0.555929,0.4841967 -0.833894,1.134275 -0.833894,1.950236 H 10.500001 C 10.517934,9.4028257 11.033513,8.2326842 12.046739,7.3449905 13.068932,6.4483302 14.395989,6 16.02791,6 c 1.694688,0 3.012778,0.4572968 3.954271,1.3718905 0.95046,0.9056267 1.42569,2.1519842 1.42569,3.7390725 0,1.569155 -0.726295,3.115894 -2.178884,4.640216 l -1.466039,1.45259 C 17.108386,17.930064 16.781105,18.637077 16.781105,20 Z m -0.107599,4.601216 c 0,-0.403497 0.121049,-0.739745 0.363147,-1.008743 0.251065,-0.277965 0.618696,-0.416947 1.102892,-0.416947 0.484197,0 0.851827,0.138982 1.102892,0.416947 0.251065,0.268998 0.376598,0.605246 0.376598,1.008743 0,0.403497 -0.125533,0.739744 -0.376598,1.008742 -0.251065,0.260031 -0.618695,0.390047 -1.102892,0.390047 -0.484196,0 -0.851827,-0.130016 -1.102892,-0.390047 -0.242098,-0.268998 -0.363147,-0.605245 -0.363147,-1.008742 z"
     style="fill:#ffffff;stroke-width:0.688635"
     id="path4141"
     sodipodi:nodetypes="csccscsscccscsccccscscscscs" />
</svg>
