<?xml version="1.0" encoding="UTF-8" standalone="no"?>
<!-- Created with Inkscape (http://www.inkscape.org/) -->

<svg
   width="32"
   height="32"
   viewBox="0 0 32 32.000001"
   version="1.1"
   id="svg5"
   inkscape:version="1.2.2 (1:1.2.2+202305151914+b0a8486541)"
   sodipodi:docname="weather-clouds-night.svg"
   xmlns:inkscape="http://www.inkscape.org/namespaces/inkscape"
   xmlns:sodipodi="http://sodipodi.sourceforge.net/DTD/sodipodi-0.dtd"
   xmlns="http://www.w3.org/2000/svg"
   xmlns:svg="http://www.w3.org/2000/svg">
  <sodipodi:namedview
     id="namedview7"
     pagecolor="#ffffff"
     bordercolor="#000000"
     borderopacity="0.25"
     inkscape:showpageshadow="2"
     inkscape:pageopacity="0.0"
     inkscape:pagecheckerboard="0"
     inkscape:deskcolor="#d1d1d1"
     inkscape:document-units="px"
     showgrid="false"
     inkscape:zoom="25.1875"
     inkscape:cx="16"
     inkscape:cy="16"
     inkscape:window-width="1920"
     inkscape:window-height="1008"
     inkscape:window-x="0"
     inkscape:window-y="0"
     inkscape:window-maximized="1"
     inkscape:current-layer="svg5" />
  <defs
     id="defs2" />
  <path
     id="path286"
     style="fill:#fdbb1c;fill-opacity:1;stroke-width:1.07692;stroke-linecap:round;stroke-linejoin:round"
     d="M 21.970866,3.304 A 7,7 0 0 0 17,9.999801 a 7,7 0 0 0 7,7 7,7 0 0 0 6.695801,-4.970866 7,7 0 0 1 -2.029134,0.304199 7,7 0 0 1 -7,-6.9999997 A 7,7 0 0 1 21.970866,3.304 Z" />
  <path
     id="rect340"
     style="fill:#dedede;stroke-width:2.33332;stroke-linecap:round;stroke-linejoin:round"
     d="m 13.000001,14 h 10 C 26.878,14 30,17.122 30,21.000001 30,24.878 26.878,28 23.000001,28 H 12 C 12,28 6,24.878 6,21.000001 6,17.122 9.122,14 13.000001,14 Z"
     sodipodi:nodetypes="sssscss" />
  <circle
     style="fill:#f8f8f8;fill-opacity:1;stroke-width:3.33334;stroke-linecap:round;stroke-linejoin:round"
     id="path340"
     cx="12"
     cy="18"
     r="10" />
</svg>
