<?xml version="1.0" encoding="UTF-8" standalone="no"?>
<!-- Created with Inkscape (http://www.inkscape.org/) -->

<svg
   width="16"
   height="16"
   viewBox="0 0 16 16"
   version="1.1"
   id="svg11945"
   inkscape:version="1.2.2 (1:1.2.2+202305151914+b0a8486541)"
   sodipodi:docname="input-mouse.svg"
   xmlns:inkscape="http://www.inkscape.org/namespaces/inkscape"
   xmlns:sodipodi="http://sodipodi.sourceforge.net/DTD/sodipodi-0.dtd"
   xmlns="http://www.w3.org/2000/svg"
   xmlns:svg="http://www.w3.org/2000/svg">
  <sodipodi:namedview
     id="namedview11947"
     pagecolor="#ffffff"
     bordercolor="#666666"
     borderopacity="1.0"
     inkscape:pageshadow="2"
     inkscape:pageopacity="0.0"
     inkscape:pagecheckerboard="0"
     inkscape:document-units="px"
     showgrid="false"
     units="in"
     inkscape:zoom="50.375"
     inkscape:cx="8"
     inkscape:cy="8"
     inkscape:window-width="1920"
     inkscape:window-height="1008"
     inkscape:window-x="0"
     inkscape:window-y="0"
     inkscape:window-maximized="1"
     inkscape:current-layer="svg11945"
     showguides="true"
     inkscape:showpageshadow="2"
     inkscape:deskcolor="#d1d1d1" />
  <defs
     id="defs11942">
    <style
       id="current-color-scheme"
       type="text/css">
         .ColorScheme-Text { color:#dfdfdf; }
        </style>
  </defs>
  <path
     id="path496"
     style="fill:currentColor;stroke-width:2;stroke-linecap:round;stroke-linejoin:round"
     class="ColorScheme-Text"
     d="M 6,1 C 3.7840123,1 2,2.7840132 2,5 V 9.5 C 2,12.537566 4.4624339,15 7.5,15 10.537566,15 13,12.537566 13,9.5 V 5 C 13,2.7840132 11.215987,1 9,1 Z m 0,1 h 3 c 1.661989,0 3,1.3380102 3,3 V 9.5 C 12,11.985281 9.985281,14 7.5,14 5.0147186,14 3,11.985281 3,9.5 V 5 C 3,3.3380102 4.3380104,2 6,2 Z M 7,3 V 7 H 8 V 3 Z"
     sodipodi:nodetypes="ssssssssssssssssccccc" />
</svg>
