<?xml version="1.0" encoding="UTF-8" standalone="no"?>
<!-- Created with Inkscape (http://www.inkscape.org/) -->

<svg
   width="64"
   height="64"
   viewBox="0 0 64 64"
   version="1.1"
   id="svg371"
   xml:space="preserve"
   inkscape:version="1.2.2 (1:1.2.2+202305151914+b0a8486541)"
   sodipodi:docname="printer.svg"
   xmlns:inkscape="http://www.inkscape.org/namespaces/inkscape"
   xmlns:sodipodi="http://sodipodi.sourceforge.net/DTD/sodipodi-0.dtd"
   xmlns:xlink="http://www.w3.org/1999/xlink"
   xmlns="http://www.w3.org/2000/svg"
   xmlns:svg="http://www.w3.org/2000/svg"><sodipodi:namedview
     id="namedview373"
     pagecolor="#ffffff"
     bordercolor="#000000"
     borderopacity="0.25"
     inkscape:showpageshadow="2"
     inkscape:pageopacity="0.0"
     inkscape:pagecheckerboard="0"
     inkscape:deskcolor="#d1d1d1"
     inkscape:document-units="px"
     showgrid="false"
     inkscape:zoom="12.59375"
     inkscape:cx="32"
     inkscape:cy="32"
     inkscape:window-width="1920"
     inkscape:window-height="1008"
     inkscape:window-x="0"
     inkscape:window-y="0"
     inkscape:window-maximized="1"
     inkscape:current-layer="svg371"
     showguides="true" /><defs
     id="defs368"><linearGradient
       inkscape:collect="always"
       xlink:href="#linearGradient1134"
       id="linearGradient3040"
       x1="32"
       y1="62"
       x2="32"
       y2="2"
       gradientUnits="userSpaceOnUse" /><linearGradient
       inkscape:collect="always"
       id="linearGradient1134"><stop
         style="stop-color:#1e7bdf;stop-opacity:1;"
         offset="0"
         id="stop1130" /><stop
         style="stop-color:#579cf0;stop-opacity:1;"
         offset="1"
         id="stop1132" /></linearGradient></defs><path
     d="M 2,32 C 2,9.5 9.5,2 32,2 54.5,2 62,9.5 62,32 62,54.5 54.5,62 32,62 9.5,62 2,54.5 2,32"
     style="fill:url(#linearGradient3040);fill-opacity:1;stroke-width:0.3"
     id="path311" /><path
     id="rect342"
     style="fill:#a2c9f5;fill-opacity:1;stroke-width:2"
     d="m 24,48.000002 h 16 c 3.324,0 6,-2.676 6,-6 V 24 L 36,18 34,12 H 24 c -3.324,0 -6,2.676 -6,6 v 24.000002 c 0,3.324 2.676,6 6,6 z"
     sodipodi:nodetypes="ssscccssss" /><path
     id="rect481"
     style="fill:#d6e9fa;fill-opacity:1;stroke-width:1.16667"
     d="m 40,24 h 6 L 34,12 v 6 c 0,3.324 2.676,6 6,6 z"
     sodipodi:nodetypes="sccss" /><rect
     style="fill:#ffffff;stroke-width:4;stroke-linecap:round;stroke-linejoin:round"
     id="rect392"
     width="40"
     height="20"
     x="12"
     y="31.999998"
     ry="6" /><rect
     style="fill:#1c81e8;fill-opacity:1;stroke-width:4;stroke-linecap:round;stroke-linejoin:round"
     id="rect466"
     width="32"
     height="4"
     x="16"
     y="44"
     ry="2" /></svg>
