<?xml version="1.0" encoding="UTF-8" standalone="no"?>
<!-- Created with Inkscape (http://www.inkscape.org/) -->

<svg
   width="22"
   height="22"
   viewBox="0 0 22 22"
   version="1.1"
   id="svg5"
   inkscape:version="1.2.2 (1:1.2.2+202305151914+b0a8486541)"
   sodipodi:docname="document-print.svg"
   xmlns:inkscape="http://www.inkscape.org/namespaces/inkscape"
   xmlns:sodipodi="http://sodipodi.sourceforge.net/DTD/sodipodi-0.dtd"
   xmlns="http://www.w3.org/2000/svg"
   xmlns:svg="http://www.w3.org/2000/svg">
  <sodipodi:namedview
     id="namedview7"
     pagecolor="#ffffff"
     bordercolor="#000000"
     borderopacity="0.25"
     inkscape:showpageshadow="2"
     inkscape:pageopacity="0.0"
     inkscape:pagecheckerboard="0"
     inkscape:deskcolor="#d1d1d1"
     inkscape:document-units="px"
     showgrid="false"
     inkscape:zoom="36.636364"
     inkscape:cx="10.986352"
     inkscape:cy="11"
     inkscape:window-width="1920"
     inkscape:window-height="1008"
     inkscape:window-x="0"
     inkscape:window-y="0"
     inkscape:window-maximized="1"
     inkscape:current-layer="svg5" />
  <defs
     id="defs2">
    <style
       id="current-color-scheme"
       type="text/css">
         .ColorScheme-Text { color:#4d4d4d; }
        </style>
  </defs>
  <path
     d="M 7,3 C 5.8920021,3 5,3.8920019 5,5 v 6 c -1.1079978,0 -2,0.892002 -2,2 v 4 c 0,1.107997 0.8920022,2 2,2 h 12 c 1.107998,0 2,-0.892003 2,-2 v -4 c 0,-1.107998 -0.892002,-2 -2,-2 V 7.5 C 17.0035,6.6594834 16.825643,6.3296725 16.5,6 L 14,3.5 C 13.537031,3.0712064 13.195497,3 12.5,3 Z m 0,1 h 5 v 2 c 0,1.1079977 0.892003,2 2,2 h 2 v 3 H 6 V 5 C 6,4.4460011 6.4460006,4 7,4 Z m 6,0 3,3 H 14 C 13.446001,7 13,6.553999 13,6 Z m -8,8 h 12 c 0.553998,0 1,0.446001 1,1 v 4 c 0,0.553998 -0.446002,1 -1,1 h -1 v -3 c 0,-0.553997 -0.446003,-1 -1,-1 H 7 c -0.5539982,0 -1,0.446003 -1,1 v 3 H 5 C 4.4460012,18 4,17.553998 4,17 v -4 c 0,-0.553999 0.4460012,-1 1,-1 z m 2,3 h 8 v 3 H 7 Z"
     style="fill:currentColor;stroke:none;stroke-width:2;stroke-linecap:round;stroke-linejoin:round;stroke-dasharray:none;stroke-opacity:1"
     class="ColorScheme-Text"
     id="path1407"
     sodipodi:nodetypes="sscssssssccccssscsscccssccsscssssscsssscssssccccc" />
</svg>
