<?xml version="1.0" encoding="UTF-8" standalone="no"?>
<!-- Created with Inkscape (http://www.inkscape.org/) -->

<svg
   width="22"
   height="22"
   viewBox="0 0 22 22"
   version="1.1"
   id="svg5"
   inkscape:version="1.2.2 (1:1.2.2+202305151914+b0a8486541)"
   sodipodi:docname="media-skip-backward.svg"
   xmlns:inkscape="http://www.inkscape.org/namespaces/inkscape"
   xmlns:sodipodi="http://sodipodi.sourceforge.net/DTD/sodipodi-0.dtd"
   xmlns="http://www.w3.org/2000/svg"
   xmlns:svg="http://www.w3.org/2000/svg">
  <sodipodi:namedview
     id="namedview7"
     pagecolor="#ffffff"
     bordercolor="#000000"
     borderopacity="0.25"
     inkscape:showpageshadow="2"
     inkscape:pageopacity="0.0"
     inkscape:pagecheckerboard="0"
     inkscape:deskcolor="#d1d1d1"
     inkscape:document-units="px"
     showgrid="false"
     inkscape:zoom="36.636364"
     inkscape:cx="10.727047"
     inkscape:cy="11"
     inkscape:window-width="1920"
     inkscape:window-height="1008"
     inkscape:window-x="0"
     inkscape:window-y="0"
     inkscape:window-maximized="1"
     inkscape:current-layer="svg5" />
  <defs
     id="defs2">
    <style
       id="current-color-scheme"
       type="text/css">
         .ColorScheme-Text { color:#4d4d4d; }
        </style>
  </defs>
  <path
     id="path924"
     style="fill:currentColor;fill-opacity:1;stroke-width:0.746246;stroke-linecap:round;stroke-linejoin:round;stroke-miterlimit:1"
     class="ColorScheme-Text"
     d="M 3.5,6 C 3.223,6 3,6.2230003 3,6.5 v 9 C 3,15.777 3.223,16 3.5,16 3.777,16 4,15.777 4,15.5 v -3.925966 l 7.314227,4.369325 c 0.309078,0.169061 0.684947,-0.05647 0.685547,-0.410156 v -3.968934 l 7.314452,4.37909 c 0.309078,0.169061 0.684948,-0.05647 0.685547,-0.410156 V 6.4667969 C 19.999216,6.1131114 19.623304,5.8895323 19.314226,6.0585938 L 11.999774,10.437315 V 6.4667969 C 11.999356,6.2015328 11.78883,6.0084027 11.552507,6 11.473738,5.9972 11.391496,6.016328 11.314227,6.058594 L 4,10.425597 V 6.5 C 4,6.2230003 3.777,6 3.5,6 Z"
     sodipodi:nodetypes="sssssccccccccccsccss" />
</svg>
