<?xml version="1.0" encoding="UTF-8" standalone="no"?>
<!-- Created with Inkscape (http://www.inkscape.org/) -->

<svg
   width="48"
   height="48"
   viewBox="0 0 48 48"
   version="1.1"
   id="svg371"
   xml:space="preserve"
   inkscape:version="1.2.2 (1:1.2.2+202305151914+b0a8486541)"
   sodipodi:docname="yast.svg"
   xmlns:inkscape="http://www.inkscape.org/namespaces/inkscape"
   xmlns:sodipodi="http://sodipodi.sourceforge.net/DTD/sodipodi-0.dtd"
   xmlns:xlink="http://www.w3.org/1999/xlink"
   xmlns="http://www.w3.org/2000/svg"
   xmlns:svg="http://www.w3.org/2000/svg"><sodipodi:namedview
     id="namedview373"
     pagecolor="#ffffff"
     bordercolor="#000000"
     borderopacity="0.25"
     inkscape:showpageshadow="2"
     inkscape:pageopacity="0.0"
     inkscape:pagecheckerboard="0"
     inkscape:deskcolor="#d1d1d1"
     inkscape:document-units="px"
     showgrid="false"
     inkscape:zoom="16.791667"
     inkscape:cx="23.970223"
     inkscape:cy="24"
     inkscape:window-width="1920"
     inkscape:window-height="1008"
     inkscape:window-x="0"
     inkscape:window-y="0"
     inkscape:window-maximized="1"
     inkscape:current-layer="svg371"
     showguides="true" /><defs
     id="defs368"><linearGradient
       inkscape:collect="always"
       id="linearGradient1174"><stop
         style="stop-color:#1aad95;stop-opacity:1;"
         offset="0"
         id="stop1170" /><stop
         style="stop-color:#5dc3b2;stop-opacity:1;"
         offset="1"
         id="stop1172" /></linearGradient><linearGradient
       inkscape:collect="always"
       id="linearGradient1285"><stop
         style="stop-color:#2e781e;stop-opacity:1;"
         offset="0"
         id="stop1281" /><stop
         style="stop-color:#83ba52;stop-opacity:1;"
         offset="1"
         id="stop1283" /></linearGradient><linearGradient
       inkscape:collect="always"
       xlink:href="#linearGradient1285"
       id="linearGradient3040"
       x1="32"
       y1="62"
       x2="32"
       y2="2"
       gradientUnits="userSpaceOnUse"
       gradientTransform="matrix(0.73333335,0,0,0.73333335,0.5333333,0.5333333)" /><linearGradient
       inkscape:collect="always"
       xlink:href="#linearGradient1174"
       id="linearGradient613"
       gradientUnits="userSpaceOnUse"
       x1="32"
       y1="62"
       x2="32"
       y2="2"
       gradientTransform="matrix(0.73333335,0,0,0.73333335,0.5333333,0.5333333)" /></defs><path
     d="M 2,24 C 2,7.5 7.5,2 24,2 40.5,2 46,7.5 46,24 46,40.5 40.5,46 24,46 7.5,46 2,40.5 2,24"
     style="fill:url(#linearGradient3040);fill-opacity:1;stroke-width:0.22"
     id="path311" /><path
     d="M 2,24 C 2,7.5 7.5,2 24,2 40.5,2 46,7.5 46,24 46,40.5 40.5,46 24,46 7.5,46 2,40.5 2,24"
     style="fill:url(#linearGradient613);fill-opacity:1;stroke-width:0.22"
     id="path311-5" /><path
     d="m 13.890873,10.072749 1.278482,3.001496 3.125964,3.570505 c -1.013535,0.160031 -1.915052,0.432085 -2.765,0.757486 -0.4801,0.231161 -0.93886,0.480099 -1.194913,0.986869 l -0.778825,1.080109 c -0.250717,0.506771 -0.78238,0.590548 -1.303374,1.001297 l -2.133765,1.666114 c 0.424973,0.206265 0.805496,0.476539 1.155789,0.796608 -0.376966,-0.208047 -0.743262,-0.426758 -1.182461,-0.542336 -0.3058406,-0.04802 -0.6081234,-0.04446 -0.8872928,0.177813 -0.2507167,0.208043 -0.2222662,0.560115 -0.1707007,0.889068 0.096011,0.508552 0.5209956,0.960197 1.0046485,1.301599 0.449869,0.200932 0.864175,0.09781 1.262478,-0.136935 0.344959,-0.320065 0.485432,-0.881957 0.442757,-1.650114 0.248938,-0.04622 0.193816,1.434956 0.238271,1.266033 0.0231,-0.09068 3.657629,-2.208297 4.619604,-2.434123 0.981532,-0.252498 2.51251,0.287273 3.620288,-0.05789 0.68814,-0.22049 1.191355,-0.442905 1.618106,-1.09904 l -0.34318,0.729038 c -0.256586,0.414778 -0.658508,0.719071 -1.127341,0.853504 l -0.864336,6.564888 -0.01215,6.347957 -0.97658,1.600327 0.730814,-0.02487 0.778827,-1.02954 -0.572562,1.232246 c 0,0 3.746539,-0.250711 3.746539,-0.224046 0,0.02668 -1.155792,-7.592647 -1.155792,-7.592647 0,0 1.25181,-1.399396 1.278482,-1.418954 0.02668,-0.02133 4.728615,1.536311 4.728615,1.536311 l -0.700587,-0.826833 -0.576118,-0.31829 0.698811,0.231157 c 0,0 1.623437,1.966623 1.630552,1.995075 0.0069,0.02668 0.289836,-0.353851 0.289836,-0.353851 l -1.6999,6.899177 2.258235,0.769934 -0.07114,-1.054437 0.540554,1.308709 0.83039,0.05509 -0.561892,-1.363831 0.977977,1.187793 0.536999,-0.10668 -0.967309,-1.392283 1.129118,-6.721365 -1.301596,-1.027765 -1.008205,-1.351381 0.954861,0.972641 -1.034877,-1.474078 -0.08178,-1.947063 0.36274,1.676784 0.39119,-1.378055 -0.202707,1.609215 0.752152,1.650112 1.504305,1.120227 -0.02844,0.257832 1.18424,-0.43387 0.764602,-1.728349 0.0658,-1.070438 0.11025,1.084667 c 0,0 -0.65791,1.593206 -0.65791,1.648331 0,0.05336 0.858841,-0.81261 0.858841,-0.81261 l -0.942413,1.10956 1.506082,2.716997 0.510325,2.962376 0.375187,-0.268497 -0.08004,0.10671 -1.209131,1.578985 0.793046,-0.17248 0.307619,-0.487209 -0.135135,0.593899 0.282726,0.01395 -0.0658,0.64902 0.590343,-0.528106 0.440981,0.136935 0.136935,-0.787716 v 0.800164 l 0.414305,-0.08178 0.200928,0.675695 0.2951,-0.851674 L 39,36.467426 c -0.551204,-4.182169 -1.280244,-8.128935 -1.475837,-12.311113 -0.02133,-0.79661 -0.689918,-2.204895 -1.410064,-3.125969 -0.841057,-0.969089 -2.558743,-3.04062 -4.996569,-3.62207 -1.330047,-0.158253 -2.684989,0.05692 -4.160842,0.538774 -1.305158,0.382301 -2.652986,0.61276 -4.118172,1.315121 0.344957,0.565451 0.801939,1.120228 1.580769,1.778139 0.243605,0.23827 0.682804,0.304063 1.114891,0.270278 -0.298729,0.106726 -0.606344,0.195595 -0.928189,0.02668 -0.524554,-0.355626 -0.956639,-0.800162 -1.369167,-1.269592 -0.250991,-0.311458 -0.462974,-0.652428 -0.631241,-1.015315 -0.248939,-0.565447 0.04448,-1.283818 0.524551,-2.055529 0.435647,-0.53522 0.915743,-1.057995 1.891943,-1.433179 0.878399,-0.350295 1.760355,-0.700586 2.594303,-1.162903 0.942413,-0.611682 2.446717,-2.560522 3.24688,-3.922576 -2.179997,0.800163 -4.358218,1.440293 -6.525768,2.716995 -0.810832,0.556558 -1.605658,1.418956 -2.416489,2.311581 -0.344963,0.391189 -0.718373,0.757486 -1.209134,1.017094 -0.673917,0.360963 -1.138011,0.01779 -1.449184,-0.257828 -0.482297,-0.521976 -0.909522,-1.092211 -1.274971,-1.701688 -0.480098,-0.657912 -0.983311,-1.317602 -1.719462,-1.975513 -0.846392,-0.785937 -1.609213,-1.692789 -2.377369,-2.516066 z m 13.791241,2.156881 -1.920391,2.33114 1.303379,-0.451648 -2.622759,1.285596 z m -9.109403,4.866769 c 0.168924,-0.0036 0.337844,0 0.501433,0.01778 -1.061547,0.08178 -1.546978,0.264943 -2.468052,0.737929 0.337845,-0.257831 0.528105,-0.449871 1.136228,-0.65791 0.266719,-0.05869 0.549447,-0.09248 0.830391,-0.09781 z m 0.29517,1.465184 c 0.524548,0.0086 0.880182,0.240046 0.880182,0.240046 -1.162903,-0.312949 -1.801256,-0.05335 -2.299137,0.7077 -0.05868,-0.04802 0.330738,-0.709476 0.846393,-0.865955 0.206267,-0.06225 0.398305,-0.08532 0.572562,-0.08178 z m -0.08894,0.391192 c 0.11034,-0.0045 0.220808,0.0044 0.328954,0.02668 0.216934,0.07644 0.316509,0.238268 0.423199,0.391193 -0.225826,-0.199154 -0.45876,-0.355633 -0.741485,-0.282728 0.320065,0.03557 0.4392,0.236493 0.485431,0.499659 0.03912,0.353847 -0.264943,0.561891 -0.467652,0.592116 -0.202703,0.03022 -0.462315,-0.02133 -0.61168,-0.240047 -0.04269,-0.08894 -0.156473,-0.416085 0.02487,-0.649019 -0.198071,0.08059 -0.37998,0.196237 -0.536997,0.341403 0.136935,-0.199154 0.304064,-0.355632 0.556562,-0.522775 0.164302,-0.0952 0.349088,-0.149474 0.53877,-0.158254 z m -8.581298,3.996457 c 0.272056,0.321844 0.536999,0.631239 0.666804,1.057993 0.01778,0.394749 -0.156477,0.385856 -0.327178,0.384078 -0.142251,-0.0016 -0.412529,-0.163588 -0.325401,-0.295171 0.08411,-0.170862 0.119776,-0.36151 0.103138,-0.551221 z m -0.995755,0.09781 c 0.2133756,0.224046 0.4231963,0.373411 0.4623141,0.686362 0.016013,0.07469 0.03024,0.259611 -0.1173585,0.23116 -0.4302944,-0.40721 -0.170685,-0.362755 -0.3431655,-0.917535 z"
     style="fill:#ffffff;stroke-width:0.749998"
     id="path354" /></svg>
