<?xml version="1.0" encoding="UTF-8" standalone="no"?>
<!-- Created with Inkscape (http://www.inkscape.org/) -->

<svg
   width="16"
   height="16"
   viewBox="0 0 16 16"
   version="1.1"
   id="svg405"
   inkscape:version="1.2.2 (1:1.2.2+202305151914+b0a8486541)"
   sodipodi:docname="fcitx-vk-inactive.svg"
   xmlns:inkscape="http://www.inkscape.org/namespaces/inkscape"
   xmlns:sodipodi="http://sodipodi.sourceforge.net/DTD/sodipodi-0.dtd"
   xmlns="http://www.w3.org/2000/svg"
   xmlns:svg="http://www.w3.org/2000/svg">
  <sodipodi:namedview
     id="namedview407"
     pagecolor="#ffffff"
     bordercolor="#000000"
     borderopacity="0.25"
     inkscape:showpageshadow="2"
     inkscape:pageopacity="0.0"
     inkscape:pagecheckerboard="0"
     inkscape:deskcolor="#d1d1d1"
     inkscape:document-units="px"
     showgrid="false"
     inkscape:zoom="50.375"
     inkscape:cx="7.9900744"
     inkscape:cy="8"
     inkscape:window-width="1920"
     inkscape:window-height="1008"
     inkscape:window-x="0"
     inkscape:window-y="0"
     inkscape:window-maximized="1"
     inkscape:current-layer="svg405" />
  <defs
     id="defs402">
    <style
       id="current-color-scheme"
       type="text/css">
         .ColorScheme-Text { color:#4d4d4d; }
        </style>
  </defs>
  <path
     id="path788"
     style="opacity:0.35;fill:currentColor;stroke-width:2;stroke-linecap:round;stroke-linejoin:round"
     class="ColorScheme-Text"
     d="M 2,4 C 1.4477153,4 1,4.4477153 1,5 1,5.5522847 1.4477153,6 2,6 2.5522847,6 3,5.5522847 3,5 3,4.4477153 2.5522847,4 2,4 Z M 5,4 C 4.4477153,4 4,4.4477153 4,5 4,5.5522847 4.4477153,6 5,6 5.5522847,6 6,5.5522847 6,5 6,4.4477153 5.5522847,4 5,4 Z M 8,4 C 7.4477153,4 7,4.4477153 7,5 7,5.5522847 7.4477153,6 8,6 8.5522847,6 9,5.5522847 9,5 9,4.4477153 8.5522847,4 8,4 Z m 3,0 c -0.552285,-3e-7 -1.0000005,0.4477151 -1.0000005,1 0,0.5522849 0.4477155,1.0000003 1.0000005,1 0.552285,0 1,-0.4477153 1,-1 0,-0.5522847 -0.447715,-1 -1,-1 z m 3,0 c -0.552285,0 -1,0.4477153 -1,1 0,0.5522847 0.447715,1 1,1 0.552285,0 1,-0.4477153 1,-1 C 15,4.4477153 14.552285,4 14,4 Z M 2,7 C 1.4477153,7 1,7.4477153 1,8 1,8.5522847 1.4477153,9 2,9 2.5522847,9 3,8.5522847 3,8 3,7.4477153 2.5522847,7 2,7 Z M 5,7 C 4.4477153,7 4,7.4477153 4,8 4,8.5522847 4.4477153,9 5,9 5.5522847,9 6,8.5522847 6,8 6,7.4477153 5.5522847,7 5,7 Z M 8,7 C 7.4477153,7 7,7.4477153 7,8 7,8.5522847 7.4477153,9 8,9 8.5522847,9 9,8.5522847 9,8 9,7.4477153 8.5522847,7 8,7 Z m 3,0 c -0.552285,-3e-7 -1.0000005,0.4477151 -1.0000005,1 0,0.5522849 0.4477155,1.0000003 1.0000005,1 0.552285,0 1,-0.4477153 1,-1 0,-0.5522847 -0.447715,-1 -1,-1 z m 3,0 c -0.552285,0 -1,0.4477153 -1,1 0,0.5522847 0.447715,1 1,1 0.552285,0 1,-0.4477153 1,-1 C 15,7.4477153 14.552285,7 14,7 Z M 4,10 c -0.5539994,0 -1,0.446001 -1,1 0,0.553999 0.4460006,1 1,1 h 8 c 0.553999,0 1,-0.446001 1,-1 0,-0.553999 -0.446001,-1 -1,-1 z"
     sodipodi:nodetypes="sssssssssssssssssssssssssssssssssssssssssssssssssssssssss" />
</svg>
