<?xml version="1.0" encoding="UTF-8" standalone="no"?>
<!-- Created with Inkscape (http://www.inkscape.org/) -->

<svg
   width="16"
   height="16"
   viewBox="0 0 16 16"
   version="1.1"
   id="svg405"
   inkscape:version="1.2.2 (1:1.2.2+202305151914+b0a8486541)"
   sodipodi:docname="fcitx-anthy.svg"
   xmlns:inkscape="http://www.inkscape.org/namespaces/inkscape"
   xmlns:sodipodi="http://sodipodi.sourceforge.net/DTD/sodipodi-0.dtd"
   xmlns="http://www.w3.org/2000/svg"
   xmlns:svg="http://www.w3.org/2000/svg">
  <sodipodi:namedview
     id="namedview407"
     pagecolor="#ffffff"
     bordercolor="#000000"
     borderopacity="0.25"
     inkscape:showpageshadow="2"
     inkscape:pageopacity="0.0"
     inkscape:pagecheckerboard="0"
     inkscape:deskcolor="#d1d1d1"
     inkscape:document-units="px"
     showgrid="false"
     inkscape:zoom="50.375"
     inkscape:cx="7.9900744"
     inkscape:cy="8"
     inkscape:window-width="1920"
     inkscape:window-height="1008"
     inkscape:window-x="0"
     inkscape:window-y="0"
     inkscape:window-maximized="1"
     inkscape:current-layer="svg405" />
  <defs
     id="defs402">
    <style
       id="current-color-scheme"
       type="text/css">
         .ColorScheme-Text { color:#4d4d4d; }
        </style>
  </defs>
  <path
     id="path343"
     style="fill:currentColor;fill-opacity:1;stroke-linecap:round;stroke-linejoin:round"
     class="ColorScheme-Text"
     d="M 3 1 C 1.8920044 1 1 1.8920044 1 3 L 1 13 C 1 14.107996 1.8920044 15 3 15 L 13 15 C 14.107996 15 15 14.107996 15 13 L 15 3 C 15 1.8920044 14.107996 1 13 1 L 3 1 z M 3 2 L 13 2 C 13.553997 2 14 2.4460018 14 3 L 14 13 C 14 13.553997 13.553997 14 13 14 L 3 14 C 2.4460018 14 2 13.553997 2 13 L 2 3 C 2 2.4460018 2.4460018 2 3 2 z M 7 3 L 6.4550781 4.6113281 C 5.6445198 4.6377451 4.7672784 4.6465606 4 4.6503906 L 4 5.5097656 L 6.2324219 5.5097656 C 5.8769024 7.1455737 5.3627509 9.1981788 4.8886719 10 L 5.6894531 10.648438 C 6.7561712 9.567704 7.7344212 9.0292969 8.9492188 9.0292969 C 9.5714575 9.0292969 10.044694 9.1815691 10.371094 9.4902344 C 10.696692 9.7676471 10.861328 10.154278 10.861328 10.648438 C 10.861328 11.203428 10.608667 11.286957 10.105469 11.564453 C 9.6310694 11.811949 8.9208144 11.935547 7.9726562 11.935547 C 7.0716182 11.935547 6.3550478 11.907207 5.5996094 11.748047 L 5.5996094 12.953125 C 6.4948876 13.003955 7.2427886 13 8.0605469 13 C 9.3642239 13 10.344094 12.783223 10.996094 12.351562 C 11.677692 11.888237 12 11.543424 12 10.648438 C 12 9.8767827 11.750395 9.2438256 11.216797 8.75 C 10.683997 8.2561743 9.9272162 8.0097653 8.9492188 8.0097656 C 8.1788202 8.0097656 7.4067847 8.3944443 6.3105469 9.1660156 L 6.2226562 9.1210938 C 6.6078558 8.2260244 7.0188199 6.5324899 7.2558594 5.5449219 C 9.6232948 5.4340903 11.065602 5.1108317 12 5 L 12 4 C 10.887202 4.1364147 9.4841112 4.5618191 7.4785156 4.6464844 C 7.6265954 3.9366621 8 3 8 3 L 7 3 z " />
</svg>
