<?xml version="1.0" encoding="UTF-8" standalone="no"?>
<!-- Created with Inkscape (http://www.inkscape.org/) -->

<svg
   width="16"
   height="16"
   viewBox="0 0 16 16"
   version="1.1"
   id="svg5"
   inkscape:version="1.2.2 (1:1.2.2+202305151914+b0a8486541)"
   sodipodi:docname="folder-open-recent.svg"
   xmlns:inkscape="http://www.inkscape.org/namespaces/inkscape"
   xmlns:sodipodi="http://sodipodi.sourceforge.net/DTD/sodipodi-0.dtd"
   xmlns="http://www.w3.org/2000/svg"
   xmlns:svg="http://www.w3.org/2000/svg">
  <sodipodi:namedview
     id="namedview7"
     pagecolor="#ffffff"
     bordercolor="#000000"
     borderopacity="0.25"
     inkscape:showpageshadow="2"
     inkscape:pageopacity="0.0"
     inkscape:pagecheckerboard="0"
     inkscape:deskcolor="#d1d1d1"
     inkscape:document-units="px"
     showgrid="false"
     inkscape:zoom="50.375"
     inkscape:cx="7.9900744"
     inkscape:cy="8"
     inkscape:window-width="1920"
     inkscape:window-height="1008"
     inkscape:window-x="0"
     inkscape:window-y="0"
     inkscape:window-maximized="1"
     inkscape:current-layer="svg5" />
  <defs
     id="defs2">
    <style
       id="current-color-scheme"
       type="text/css">
         .ColorScheme-Text { color:#4d4d4d; }
        </style>
  </defs>
  <path
     id="rect788"
     style="fill:currentColor;stroke:none"
     class="ColorScheme-Text"
     d="M 3,2 C 1.8920033,2 1,2.8920033 1,4 v 9 c 0,1.107997 0.8920033,2 2,2 H 9 V 14 H 3 C 2.4460018,14 2,13.553997 2,13 V 4 C 2,3.4460018 2.4460018,3 3,3 H 6 C 6.5508346,2.99717 6.6299215,3.1121012 6.9121094,3.4121094 L 7.5253906,4.5253906 C 7.9159259,4.9446621 8.1947387,5.002665 8.8105469,5 H 13 c 0.67359,-0.00213 1.012178,0.3007609 1,1 v 3 h 1 V 6 C 15,4.8920033 14.107997,3.9999743 13,4 H 8.5 L 7.6542969,2.6542969 C 7.0818751,2.038247 6.809981,2 6,2 Z m 10,8 c -1.656854,0 -3,1.343146 -3,3 0,1.656854 1.343146,3 3,3 1.656854,0 3,-1.343146 3,-3 0,-1.656854 -1.343146,-3 -3,-3 z m -0.5,1 c 0.277,0 0.5,0.223 0.5,0.5 V 13 h 1.5 c 0.277,0 0.5,0.223 0.5,0.5 0,0.277 -0.223,0.5 -0.5,0.5 h -2 C 12.223,14 12,13.777 12,13.5 v -2 C 12,11.223 12.223,11 12.5,11 Z"
     sodipodi:nodetypes="ssssccssssccccccccscccssssssssscsssssss" />
</svg>
