<?xml version="1.0" encoding="UTF-8" standalone="no"?>
<!-- Created with Inkscape (http://www.inkscape.org/) -->

<svg
   width="16"
   height="16"
   viewBox="0 0 16 16"
   version="1.1"
   id="svg5"
   inkscape:version="1.2.2 (1:1.2.2+202305151914+b0a8486541)"
   sodipodi:docname="go-top.svg"
   xmlns:inkscape="http://www.inkscape.org/namespaces/inkscape"
   xmlns:sodipodi="http://sodipodi.sourceforge.net/DTD/sodipodi-0.dtd"
   xmlns="http://www.w3.org/2000/svg"
   xmlns:svg="http://www.w3.org/2000/svg">
  <sodipodi:namedview
     id="namedview7"
     pagecolor="#ffffff"
     bordercolor="#000000"
     borderopacity="0.25"
     inkscape:showpageshadow="2"
     inkscape:pageopacity="0.0"
     inkscape:pagecheckerboard="0"
     inkscape:deskcolor="#d1d1d1"
     inkscape:document-units="px"
     showgrid="false"
     inkscape:zoom="50.375"
     inkscape:cx="8"
     inkscape:cy="8"
     inkscape:window-width="1920"
     inkscape:window-height="1008"
     inkscape:window-x="0"
     inkscape:window-y="0"
     inkscape:window-maximized="1"
     inkscape:current-layer="svg5" />
  <defs
     id="defs2">
    <style
       id="current-color-scheme"
       type="text/css">
         .ColorScheme-Text { color:#4d4d4d; }
        </style>
  </defs>
  <path
     id="path342"
     style="fill:currentColor;fill-opacity:1;stroke-width:5.00001;stroke-linecap:round;stroke-linejoin:round"
     class="ColorScheme-Text"
     d="M 8,3 A 1,1 0 0 0 7,4 1,1 0 0 0 8,5 1,1 0 0 0 9,4 1,1 0 0 0 8,3 Z m 0,3.34375 c -0.1278077,1.4e-6 -0.2555752,0.048555 -0.3535156,0.1464844 l -5.65625,5.6562496 c -0.1958696,0.195869 -0.1958698,0.511162 0,0.707032 0.1958677,0.19587 0.5111644,0.19587 0.7070312,0 L 8,7.5507812 13.302734,12.853516 c 0.195867,0.195869 0.511162,0.19587 0.707032,0 0.195868,-0.195868 0.195857,-0.51115 0,-0.707032 L 8.3730469,6.5097656 C 8.3673069,6.5034156 8.3596156,6.4963344 8.3535156,6.4902344 8.2555817,6.3922995 8.1278077,6.3437486 8,6.34375 Z" />
</svg>
