<?xml version="1.0" encoding="UTF-8" standalone="no"?>
<!-- Created with Inkscape (http://www.inkscape.org/) -->

<svg
   width="16"
   height="16"
   viewBox="0 0 16 16"
   version="1.1"
   id="svg5"
   inkscape:version="1.2.2 (1:1.2.2+202305151914+b0a8486541)"
   sodipodi:docname="media-skip-backward.svg"
   xmlns:inkscape="http://www.inkscape.org/namespaces/inkscape"
   xmlns:sodipodi="http://sodipodi.sourceforge.net/DTD/sodipodi-0.dtd"
   xmlns="http://www.w3.org/2000/svg"
   xmlns:svg="http://www.w3.org/2000/svg">
  <sodipodi:namedview
     id="namedview7"
     pagecolor="#ffffff"
     bordercolor="#000000"
     borderopacity="0.25"
     inkscape:showpageshadow="2"
     inkscape:pageopacity="0.0"
     inkscape:pagecheckerboard="0"
     inkscape:deskcolor="#d1d1d1"
     inkscape:document-units="px"
     showgrid="false"
     inkscape:zoom="50.375"
     inkscape:cx="8"
     inkscape:cy="8"
     inkscape:window-width="1920"
     inkscape:window-height="1008"
     inkscape:window-x="0"
     inkscape:window-y="0"
     inkscape:window-maximized="1"
     inkscape:current-layer="svg5" />
  <defs
     id="defs2">
    <style
       id="current-color-scheme"
       type="text/css">
         .ColorScheme-Text { color:#4d4d4d; }
        </style>
  </defs>
  <path
     id="path924"
     style="fill:currentColor;fill-opacity:1;stroke-width:0.746246;stroke-linecap:round;stroke-linejoin:round;stroke-miterlimit:1"
     class="ColorScheme-Text"
     d="M 1.5 4 C 1.2230003 4 1 4.2230003 1 4.5 L 1 11.5 C 1 11.777 1.2230003 12 1.5 12 C 1.7769997 12 2 11.777 2 11.5 L 2 8.5742188 L 7.3144531 11.943359 C 7.6235306 12.11242 7.9994 11.886885 8 11.533203 L 8 8.5644531 L 13.314453 11.943359 C 13.623531 12.11242 13.9994 11.886885 14 11.533203 L 14 4.4667969 C 13.999443 4.1131114 13.623531 3.8895323 13.314453 4.0585938 L 8 7.4375 L 8 4.4667969 C 7.9995821 4.2015328 7.7890557 4.0084027 7.5527344 4 C 7.4739607 3.9971991 7.3917224 4.0163284 7.3144531 4.0585938 L 2 7.4257812 L 2 4.5 C 2 4.2230003 1.7769997 4 1.5 4 z " />
</svg>
