<?xml version="1.0" encoding="UTF-8" standalone="no"?>
<!-- Created with Inkscape (http://www.inkscape.org/) -->

<svg
   width="16"
   height="16"
   viewBox="0 0 16 16"
   version="1.1"
   id="svg11945"
   inkscape:version="1.2.2 (1:1.2.2+202305151914+b0a8486541)"
   sodipodi:docname="tools-rip-audio-cd.svg"
   xmlns:inkscape="http://www.inkscape.org/namespaces/inkscape"
   xmlns:sodipodi="http://sodipodi.sourceforge.net/DTD/sodipodi-0.dtd"
   xmlns="http://www.w3.org/2000/svg"
   xmlns:svg="http://www.w3.org/2000/svg">
  <sodipodi:namedview
     id="namedview11947"
     pagecolor="#ffffff"
     bordercolor="#666666"
     borderopacity="1.0"
     inkscape:pageshadow="2"
     inkscape:pageopacity="0.0"
     inkscape:pagecheckerboard="0"
     inkscape:document-units="px"
     showgrid="false"
     units="in"
     inkscape:zoom="50.375"
     inkscape:cx="8.0198511"
     inkscape:cy="8"
     inkscape:window-width="1920"
     inkscape:window-height="1008"
     inkscape:window-x="0"
     inkscape:window-y="0"
     inkscape:window-maximized="1"
     inkscape:current-layer="svg11945"
     showguides="true"
     inkscape:showpageshadow="2"
     inkscape:deskcolor="#d1d1d1" />
  <defs
     id="defs11942">
    <style
       id="current-color-scheme"
       type="text/css">
         .ColorScheme-Text { color:#4d4d4d; }
        </style>
  </defs>
  <path
     id="path989"
     style="fill:currentColor;fill-opacity:1;stroke-width:2.66667;stroke-linecap:round;stroke-linejoin:round"
     class="ColorScheme-Text"
     d="m 8.4726563,1.0000932 a 0.49999997,0.50000001 0 0 0 -0.472656,0.5 V 8.355562 c -0.7591673,-0.8614526 -1.851809,-1.3551602 -3,-1.355469 -2.2091328,0 -4.0000001,1.7908679 -4.0000001,4.000001 2e-7,2.209132 1.7908675,4 4.0000001,4 2.2091319,-1e-6 3.9999995,-1.790868 3.9999998,-4 V 2.0118119 C 11.487637,2.1599434 12.65433,3.4200816 13.302735,4.7168899 13.86177,5.8349584 14,6.6098557 14,7.000093 v 0.5000001 c 0.003,0.2747037 0.225283,0.5013034 0.5,0.5000002 0.274715,0.0013 0.496994,-0.2252977 0.5,-0.5000002 V 7.000093 C 15,6.4346028 14.772464,5.4297526 14.195313,4.2754838 13.39735,2.6795538 12.081388,1.0000932 9.0000001,1.0000932 H 8.5 a 0.49999997,0.50000001 0 0 0 -0.027326,0 z m -3.472656,7.0000001 a 3,3 0 0 1 3,3.0000007 3,3 0 0 1 -3,3 3,3 0 0 1 -3.0000001,-3 3,3 0 0 1 3.0000001,-3.0000007 z" />
</svg>
