<?xml version="1.0" encoding="UTF-8" standalone="no"?>
<!-- Created with Inkscape (http://www.inkscape.org/) -->

<svg
   width="24"
   height="24"
   viewBox="0 0 24 24"
   version="1.1"
   id="svg371"
   xml:space="preserve"
   inkscape:version="1.3 (0e150ed6c4, 2023-07-21)"
   sodipodi:docname="application-x-desktop.svg"
   xmlns:inkscape="http://www.inkscape.org/namespaces/inkscape"
   xmlns:sodipodi="http://sodipodi.sourceforge.net/DTD/sodipodi-0.dtd"
   xmlns:xlink="http://www.w3.org/1999/xlink"
   xmlns="http://www.w3.org/2000/svg"
   xmlns:svg="http://www.w3.org/2000/svg"><sodipodi:namedview
     id="namedview373"
     pagecolor="#ffffff"
     bordercolor="#000000"
     borderopacity="0.25"
     inkscape:showpageshadow="2"
     inkscape:pageopacity="0.0"
     inkscape:pagecheckerboard="0"
     inkscape:deskcolor="#d1d1d1"
     inkscape:document-units="px"
     showgrid="false"
     inkscape:zoom="33.166667"
     inkscape:cx="11.984925"
     inkscape:cy="12"
     inkscape:window-width="1920"
     inkscape:window-height="1000"
     inkscape:window-x="0"
     inkscape:window-y="0"
     inkscape:window-maximized="1"
     inkscape:current-layer="svg371"
     showguides="false"
     inkscape:lockguides="true" /><defs
     id="defs368"><linearGradient
       inkscape:collect="always"
       xlink:href="#linearGradient3519"
       id="linearGradient2101"
       x1="11"
       y1="21"
       x2="11"
       y2="1"
       gradientUnits="userSpaceOnUse"
       gradientTransform="translate(1,1)" /><linearGradient
       inkscape:collect="always"
       id="linearGradient3519"><stop
         style="stop-color:#e4e4e4;stop-opacity:1;"
         offset="0"
         id="stop3515" /><stop
         style="stop-color:#f1f1f1;stop-opacity:1;"
         offset="1"
         id="stop3517" /></linearGradient></defs><path
     d="M 2,12 C 2,4.5 4.5,2 12,2 19.5,2 22,4.5 22,12 22,19.5 19.5,22 12,22 4.5,22 2,19.5 2,12"
     style="fill:url(#linearGradient2101);stroke-width:0.1"
     id="path311" /><path
     id="path1179"
     style="fill:#8e8e8e;fill-opacity:1;stroke-width:1.75;stroke-linecap:round;stroke-linejoin:round"
     d="M 11.125,5 C 10.640252,5 10.351569,5.4010118 10.25,5.875 L 9.765625,8.1308594 7.5703125,7.421875 C 7.1204503,7.2413058 6.6173742,7.322383 6.375,7.7421875 L 5.5,9.2578125 C 5.2576257,9.6776169 5.4606111,10.12817 5.8203125,10.453125 L 7.5332031,12 5.8203125,13.546875 C 5.4606107,13.871831 5.2576257,14.322383 5.5,14.742188 l 0.875,1.515624 c 0.2423742,0.419806 0.7454509,0.500883 1.1953125,0.320313 L 9.765625,15.869141 10.25,18.125 C 10.318556,18.604876 10.640252,19 11.125,19 h 1.75 c 0.48475,0 0.773431,-0.401012 0.875,-0.875 l 0.484375,-2.255859 2.195313,0.708984 c 0.44986,0.18057 0.952938,0.0995 1.195312,-0.320313 L 18.5,14.742188 c 0.242375,-0.419805 0.0394,-0.870357 -0.320312,-1.195313 L 16.466797,12 18.179688,10.453125 C 18.53939,10.12817 18.742375,9.6776169 18.5,9.2578125 L 17.625,7.7421875 C 17.382626,7.322383 16.879549,7.2413058 16.429688,7.421875 L 14.234375,8.1308594 13.75,5.875 C 13.68144,5.3951235 13.35975,5 12.875,5 Z M 12,9 c 1.656852,0 3,1.343148 3,3 0,1.656852 -1.343148,3 -3,3 -1.656852,0 -3,-1.343148 -3,-3 0,-1.656852 1.343148,-3 3,-3 z" /></svg>
