<?xml version="1.0" encoding="UTF-8" standalone="no"?>
<!-- Created with Inkscape (http://www.inkscape.org/) -->

<svg
   width="24"
   height="24"
   viewBox="0 0 24 24"
   version="1.1"
   id="svg371"
   xml:space="preserve"
   inkscape:version="1.3 (0e150ed6c4, 2023-07-21)"
   sodipodi:docname="package-x-generic.svg"
   xmlns:inkscape="http://www.inkscape.org/namespaces/inkscape"
   xmlns:sodipodi="http://sodipodi.sourceforge.net/DTD/sodipodi-0.dtd"
   xmlns:xlink="http://www.w3.org/1999/xlink"
   xmlns="http://www.w3.org/2000/svg"
   xmlns:svg="http://www.w3.org/2000/svg"><sodipodi:namedview
     id="namedview373"
     pagecolor="#ffffff"
     bordercolor="#000000"
     borderopacity="0.25"
     inkscape:showpageshadow="2"
     inkscape:pageopacity="0.0"
     inkscape:pagecheckerboard="0"
     inkscape:deskcolor="#d1d1d1"
     inkscape:document-units="px"
     showgrid="false"
     inkscape:zoom="33.166667"
     inkscape:cx="11.984925"
     inkscape:cy="12"
     inkscape:window-width="1920"
     inkscape:window-height="1000"
     inkscape:window-x="0"
     inkscape:window-y="0"
     inkscape:window-maximized="1"
     inkscape:current-layer="svg371"
     showguides="false" /><defs
     id="defs368"><linearGradient
       inkscape:collect="always"
       xlink:href="#linearGradient3519"
       id="linearGradient3251"
       x1="16"
       y1="31"
       x2="16"
       y2="1"
       gradientUnits="userSpaceOnUse"
       gradientTransform="matrix(0.66666668,0,0,0.66666668,1.3333334,1.3333334)" /><linearGradient
       inkscape:collect="always"
       xlink:href="#linearGradient3519"
       id="linearGradient1012"
       x1="17"
       y1="31.500002"
       x2="17"
       y2="1.5000001"
       gradientUnits="userSpaceOnUse"
       gradientTransform="matrix(0.66666664,0,0,0.66666664,0.6666667,1)" /><linearGradient
       inkscape:collect="always"
       id="linearGradient1836"><stop
         style="stop-color:#f69000;stop-opacity:1;"
         offset="0"
         id="stop1832" /><stop
         style="stop-color:#f9a900;stop-opacity:1;"
         offset="1"
         id="stop1834" /></linearGradient><linearGradient
       inkscape:collect="always"
       id="linearGradient3519"><stop
         style="stop-color:#e4e4e4;stop-opacity:1;"
         offset="0"
         id="stop3515" /><stop
         style="stop-color:#f1f1f1;stop-opacity:1;"
         offset="1"
         id="stop3517" /></linearGradient><linearGradient
       inkscape:collect="always"
       xlink:href="#linearGradient1836"
       id="linearGradient2"
       x1="37"
       y1="36"
       x2="37"
       y2="12"
       gradientUnits="userSpaceOnUse"
       gradientTransform="matrix(0.5,0,0,0.5,0.5,0)" /></defs><path
     d="M 2,12 C 2,4.5 4.5,2 12,2 19.5,2 22,4.5 22,12 22,19.5 19.5,22 12,22 4.5,22 2,19.5 2,12"
     style="fill:url(#linearGradient3251);stroke-width:0.1"
     id="path311" /><path
     id="rect419"
     style="fill:url(#linearGradient2);fill-opacity:1;stroke-width:0.53033"
     d="M 6,6 C 5.4460039,6 5,6.4460038 5,7 v 9.5 C 5,17.330995 5.6690044,18 6.5,18 h 11 c 0.830995,0 1.5,-0.669005 1.5,-1.5 v -7 C 19,8.6690044 18.330995,8 17.5,8 h -5 V 7 c 0,-0.5539962 -0.446005,-1 -1,-1 z" /><path
     id="path345"
     style="fill:url(#linearGradient1012);stroke-width:0.5"
     d="M 8,5 C 7.4477168,5 7,5.4477167 7,6 7,6.5522832 7.4477168,7 8,7 8.5522832,7 9,6.5522832 9,6 9,5.4477167 8.5522832,5 8,5 Z M 8,8 C 7.4477168,8 7,8.4477167 7,9 7,9.5522832 7.4477168,10 8,10 8.5522832,10 9,9.5522832 9,9 9,8.4477167 8.5522832,8 8,8 Z m 0,3 c -0.5522832,0 -1,0.447718 -1,1 0,0.552282 0.4477168,1 1,1 0.5522832,0 1,-0.447718 1,-1 0,-0.552282 -0.4477168,-1 -1,-1 z m 0,3 c -0.5522832,0 -1,0.447718 -1,1 0,0.552282 0.4477168,1 1,1 0.5522832,0 1,-0.447718 1,-1 0,-0.552282 -0.4477168,-1 -1,-1 z" /></svg>
