<?xml version="1.0" encoding="UTF-8" standalone="no"?>
<!-- Created with Inkscape (http://www.inkscape.org/) -->

<svg
   width="24"
   height="24"
   viewBox="0 0 24 24"
   version="1.1"
   id="svg371"
   xml:space="preserve"
   inkscape:version="1.2.2 (1:1.2.2+202305151914+b0a8486541)"
   sodipodi:docname="x-office-document.svg"
   xmlns:inkscape="http://www.inkscape.org/namespaces/inkscape"
   xmlns:sodipodi="http://sodipodi.sourceforge.net/DTD/sodipodi-0.dtd"
   xmlns:xlink="http://www.w3.org/1999/xlink"
   xmlns="http://www.w3.org/2000/svg"
   xmlns:svg="http://www.w3.org/2000/svg"><sodipodi:namedview
     id="namedview373"
     pagecolor="#ffffff"
     bordercolor="#000000"
     borderopacity="0.25"
     inkscape:showpageshadow="2"
     inkscape:pageopacity="0.0"
     inkscape:pagecheckerboard="0"
     inkscape:deskcolor="#d1d1d1"
     inkscape:document-units="px"
     showgrid="false"
     inkscape:zoom="33.583333"
     inkscape:cx="12"
     inkscape:cy="12"
     inkscape:window-width="1920"
     inkscape:window-height="1008"
     inkscape:window-x="0"
     inkscape:window-y="0"
     inkscape:window-maximized="1"
     inkscape:current-layer="svg371"
     showguides="true" /><defs
     id="defs368"><linearGradient
       inkscape:collect="always"
       xlink:href="#linearGradient1134"
       id="linearGradient3040"
       x1="32"
       y1="62"
       x2="32"
       y2="2"
       gradientUnits="userSpaceOnUse"
       gradientTransform="matrix(0.33333335,0,0,0.33333335,1.3333333,1.3333333)" /><linearGradient
       inkscape:collect="always"
       id="linearGradient1134"><stop
         style="stop-color:#1e7bdf;stop-opacity:1;"
         offset="0"
         id="stop1130" /><stop
         style="stop-color:#579cf0;stop-opacity:1;"
         offset="1"
         id="stop1132" /></linearGradient></defs><path
     d="M 2,12 C 2,4.5 4.5,2 12,2 19.5,2 22,4.5 22,12 22,19.5 19.5,22 12,22 4.5,22 2,19.5 2,12"
     style="fill:url(#linearGradient3040);fill-opacity:1;stroke-width:0.1"
     id="path311" /><path
     id="rect509"
     style="fill:#ffffff;stroke-width:0.25;stroke-linecap:round;stroke-linejoin:round"
     d="M 13.5,7 C 13.223001,7 13,7.2230005 13,7.5 13,7.777 13.223001,8 13.5,8 h 5 C 18.776999,8 19,7.777 19,7.5 19,7.2230005 18.776999,7 18.5,7 Z m 0,3 c -0.276999,0 -0.5,0.223001 -0.5,0.5 0,0.277 0.223001,0.5 0.5,0.5 h 5 C 18.776999,11 19,10.777 19,10.5 19,10.223001 18.776999,10 18.5,10 Z m -8,3 C 5.2230005,13 5,13.223 5,13.5 5,13.777 5.2230005,14 5.5,14 h 13 C 18.776999,14 19,13.777 19,13.5 19,13.223 18.776999,13 18.5,13 Z m 0,3 C 5.2230005,16 5,16.223 5,16.5 5,16.776999 5.2230005,17 5.5,17 H 12 c 0.277,0 0.5,-0.223001 0.5,-0.5 C 12.5,16.223 12.277,16 12,16 Z"
     sodipodi:nodetypes="ssssssssssssssssssssssssssss" /><rect
     style="fill:#abd4fb;fill-opacity:1;stroke-width:1;stroke-linecap:round"
     id="rect468"
     width="6"
     height="4"
     x="5"
     y="7"
     ry="1" /></svg>
