<?xml version="1.0" encoding="UTF-8" standalone="no"?>
<!-- Created with Inkscape (http://www.inkscape.org/) -->

<svg
   width="64"
   height="64"
   viewBox="0 0 64 64"
   version="1.1"
   id="svg371"
   xml:space="preserve"
   inkscape:version="1.2.2 (1:1.2.2+202305151914+b0a8486541)"
   sodipodi:docname="folder-default-pictures.svg"
   xmlns:inkscape="http://www.inkscape.org/namespaces/inkscape"
   xmlns:sodipodi="http://sodipodi.sourceforge.net/DTD/sodipodi-0.dtd"
   xmlns:xlink="http://www.w3.org/1999/xlink"
   xmlns="http://www.w3.org/2000/svg"
   xmlns:svg="http://www.w3.org/2000/svg"><sodipodi:namedview
     id="namedview373"
     pagecolor="#ffffff"
     bordercolor="#000000"
     borderopacity="0.25"
     inkscape:showpageshadow="2"
     inkscape:pageopacity="0.0"
     inkscape:pagecheckerboard="0"
     inkscape:deskcolor="#d1d1d1"
     inkscape:document-units="px"
     showgrid="false"
     inkscape:zoom="12.59375"
     inkscape:cx="32"
     inkscape:cy="32"
     inkscape:window-width="1920"
     inkscape:window-height="1008"
     inkscape:window-x="0"
     inkscape:window-y="0"
     inkscape:window-maximized="1"
     inkscape:current-layer="svg371"
     showguides="false" /><defs
     id="defs368"><linearGradient
       inkscape:collect="always"
       xlink:href="#linearGradient3952"
       id="linearGradient3251"
       x1="16"
       y1="31"
       x2="16"
       y2="1"
       gradientUnits="userSpaceOnUse"
       gradientTransform="scale(2)" /><linearGradient
       inkscape:collect="always"
       id="linearGradient3952"><stop
         style="stop-color:#c91d61;stop-opacity:1;"
         offset="0"
         id="stop3948" /><stop
         style="stop-color:#d64c9e;stop-opacity:1;"
         offset="1"
         id="stop3950" /></linearGradient></defs><path
     d="M 2,32 C 2,9.5 9.5,2 32,2 54.5,2 62,9.5 62,32 62,54.5 54.5,62 32,62 9.5,62 2,54.5 2,32"
     style="fill:url(#linearGradient3251);fill-opacity:1.0;stroke-width:0.3"
     id="path311" /><path
     d="m 15,14 c -1.662,0 -3,1.338 -3,3 v 13 h 21 v -8 c -1.10457,0 -2,-0.895432 -2,-2 v -3 c 0,-1.662 -1.338,-3 -3,-3 z"
     style="opacity:1;fill:#f3b5da;fill-opacity:1;stroke-width:4;stroke-linecap:round;stroke-linejoin:round"
     id="path294"
     sodipodi:nodetypes="sscccssss" /><rect
     style="opacity:0.99;fill:#ffffff;fill-opacity:1;stroke-width:1.42878"
     id="rect556"
     width="40"
     height="30"
     x="12"
     y="20"
     ry="4" /><path
     id="path951"
     style="fill:#c0125b;stroke-width:1.33334;stroke-linecap:round;stroke-linejoin:round;fill-opacity:1"
     d="m 31.999999,25.000002 c -1.472755,0 -2.666667,1.193912 -2.666667,2.666667 1.9e-5,0.03268 0.0039,0.07311 0.0091,0.117187 0.06991,0.73199 0.715278,3.175807 1.243489,4.766927 -1.178339,-1.325527 -3.124621,-3.250876 -3.602849,-3.527343 -1.275442,-0.736378 -2.906853,-0.29888 -3.643229,0.976562 -0.736378,1.275442 -0.29888,2.906852 0.976562,3.64323 0.478729,0.276032 3.119693,0.9992 4.856771,1.35677 -1.737078,0.357571 -4.378042,1.080738 -4.856771,1.35677 -1.275442,0.736377 -1.712939,2.367788 -0.976562,3.64323 0.736377,1.275442 2.367787,1.712939 3.643229,0.976562 0.478228,-0.276468 2.424509,-2.201816 3.602864,-3.527344 -0.528211,1.591122 -1.173578,4.034938 -1.243489,4.766928 -0.0052,0.04408 -0.0091,0.08451 -0.0091,0.117188 -1.5e-5,1.472754 1.193897,2.666666 2.666652,2.666666 1.472754,0 2.666666,-1.193912 2.666666,-2.666666 -1.8e-5,-0.03268 -0.0039,-0.07311 -0.0091,-0.117188 -0.06991,-0.73199 -0.715277,-3.175806 -1.243489,-4.766928 1.178355,1.325528 3.124636,3.250876 3.602864,3.527344 1.275442,0.736377 2.906853,0.29888 3.64323,-0.976562 0.736376,-1.275442 0.298879,-2.906853 -0.976562,-3.64323 -0.478745,-0.276032 -3.119708,-0.999199 -4.856787,-1.35677 1.737078,-0.35757 4.378042,-1.080739 4.856772,-1.35677 1.275442,-0.736378 1.712938,-2.367787 0.976562,-3.64323 -0.736377,-1.275441 -2.367787,-1.71294 -3.643229,-0.976562 -0.478228,0.276466 -2.424509,2.201816 -3.602864,3.527343 0.528212,-1.59112 1.173578,-4.034937 1.243489,-4.766927 0.0052,-0.04408 0.0091,-0.08451 0.0091,-0.117187 1.5e-5,-1.472756 -1.193898,-2.666667 -2.666652,-2.666667 z m -0.769531,8.666667 h 1.539062 l 0.770833,1.333333 -0.770833,1.333333 h -1.539062 l -0.770834,-1.333333 z" /><circle
     style="fill:#ffffff;fill-opacity:1;stroke-width:2;stroke-linecap:round;stroke-linejoin:round"
     id="path2163"
     cx="32"
     cy="35"
     r="2" /></svg>
