<?xml version="1.0" encoding="UTF-8" standalone="no"?>
<!-- Created with Inkscape (http://www.inkscape.org/) -->

<svg
   width="64"
   height="64"
   viewBox="0 0 64 64"
   version="1.1"
   id="svg371"
   xml:space="preserve"
   inkscape:version="1.2.2 (1:1.2.2+202305151914+b0a8486541)"
   sodipodi:docname="folder-default-recent.svg"
   xmlns:inkscape="http://www.inkscape.org/namespaces/inkscape"
   xmlns:sodipodi="http://sodipodi.sourceforge.net/DTD/sodipodi-0.dtd"
   xmlns:xlink="http://www.w3.org/1999/xlink"
   xmlns="http://www.w3.org/2000/svg"
   xmlns:svg="http://www.w3.org/2000/svg"><sodipodi:namedview
     id="namedview373"
     pagecolor="#ffffff"
     bordercolor="#000000"
     borderopacity="0.25"
     inkscape:showpageshadow="2"
     inkscape:pageopacity="0.0"
     inkscape:pagecheckerboard="0"
     inkscape:deskcolor="#d1d1d1"
     inkscape:document-units="px"
     showgrid="false"
     inkscape:zoom="12.59375"
     inkscape:cx="32"
     inkscape:cy="32"
     inkscape:window-width="1920"
     inkscape:window-height="1008"
     inkscape:window-x="0"
     inkscape:window-y="0"
     inkscape:window-maximized="1"
     inkscape:current-layer="svg371"
     showguides="false" /><defs
     id="defs368"><linearGradient
       inkscape:collect="always"
       xlink:href="#linearGradient1836"
       id="linearGradient3251"
       x1="16"
       y1="31"
       x2="16"
       y2="1"
       gradientUnits="userSpaceOnUse"
       gradientTransform="scale(2)" /><linearGradient
       inkscape:collect="always"
       id="linearGradient1836"><stop
         style="stop-color:#f69000;stop-opacity:1;"
         offset="0"
         id="stop1832" /><stop
         style="stop-color:#f9a900;stop-opacity:1;"
         offset="1"
         id="stop1834" /></linearGradient></defs><path
     d="M 2,32 C 2,9.5 9.5,2 32,2 54.5,2 62,9.5 62,32 62,54.5 54.5,62 32,62 9.5,62 2,54.5 2,32"
     style="fill:url(#linearGradient3251);fill-opacity:1;stroke-width:0.3"
     id="path311" /><path
     d="m 15,14 c -1.662,0 -3,1.338 -3,3 v 13 h 21 v -8 c -1.10457,0 -2,-0.895432 -2,-2 v -3 c 0,-1.662 -1.338,-3 -3,-3 z"
     style="opacity:1;fill:#ffdea2;fill-opacity:1;stroke-width:4;stroke-linecap:round;stroke-linejoin:round"
     id="path294"
     sodipodi:nodetypes="sscccssss" /><rect
     style="opacity:0.99;fill:#ffffff;fill-opacity:1;stroke-width:1.42878"
     id="rect556"
     width="40"
     height="30"
     x="12"
     y="20"
     ry="4" /><path
     id="path3931"
     style="fill:#e38300;fill-opacity:1;stroke-width:1.8;stroke-linecap:round;stroke-linejoin:round"
     d="m 32,26 c -4.970558,0 -9,4.029442 -9,9 0,4.970558 4.029442,9 9,9 4.970558,0 9,-4.029442 9,-9 0,-4.970558 -4.029442,-9 -9,-9 z m 0,3 c 0.553998,0 1,0.446002 1,1 v 4.583984 l 2.951031,2.952984 c 0.391736,0.391737 0.391736,1.022326 0,1.414063 -0.391737,0.391736 -1.022326,0.391737 -1.414063,0 l -3.243999,-3.244 c -0.02282,-0.02282 -0.04429,-0.04597 -0.06445,-0.07031 -0.0015,-0.0018 -0.0024,-0.004 -0.0039,-0.0059 -0.03888,-0.04783 -0.07392,-0.09968 -0.103515,-0.154297 -0.0021,-0.0039 -0.0038,-0.0078 -0.0059,-0.01172 -0.01513,-0.02882 -0.0287,-0.05747 -0.04102,-0.08789 -0.01046,-0.02571 -0.02107,-0.0518 -0.0293,-0.07813 -9.57e-4,-0.0031 -0.001,-0.0067 -0.002,-0.0098 -0.0039,-0.01302 -0.0083,-0.02592 -0.01172,-0.03906 -0.0044,-0.01716 -0.0082,-0.03523 -0.01172,-0.05273 -0.0063,-0.03148 -0.01042,-0.06385 -0.01367,-0.0957 C 31.002402,35.067743 31,35.033961 31,35 v -5 c 0,-0.553998 0.446002,-1 1,-1 z"
     sodipodi:nodetypes="sssssssccssssssscscccssss" /></svg>
