<?xml version="1.0" encoding="UTF-8" standalone="no"?>
<!-- Created with Inkscape (http://www.inkscape.org/) -->

<svg
   width="64"
   height="64"
   viewBox="0 0 64 64"
   version="1.1"
   id="svg371"
   xml:space="preserve"
   inkscape:version="1.2.2 (1:1.2.2+202305151914+b0a8486541)"
   sodipodi:docname="folder-yellow-music.svg"
   xmlns:inkscape="http://www.inkscape.org/namespaces/inkscape"
   xmlns:sodipodi="http://sodipodi.sourceforge.net/DTD/sodipodi-0.dtd"
   xmlns:xlink="http://www.w3.org/1999/xlink"
   xmlns="http://www.w3.org/2000/svg"
   xmlns:svg="http://www.w3.org/2000/svg"><sodipodi:namedview
     id="namedview373"
     pagecolor="#ffffff"
     bordercolor="#000000"
     borderopacity="0.25"
     inkscape:showpageshadow="2"
     inkscape:pageopacity="0.0"
     inkscape:pagecheckerboard="0"
     inkscape:deskcolor="#d1d1d1"
     inkscape:document-units="px"
     showgrid="false"
     inkscape:zoom="12.59375"
     inkscape:cx="32"
     inkscape:cy="32"
     inkscape:window-width="1920"
     inkscape:window-height="1008"
     inkscape:window-x="0"
     inkscape:window-y="0"
     inkscape:window-maximized="1"
     inkscape:current-layer="svg371"
     showguides="false" /><defs
     id="defs368"><linearGradient
       inkscape:collect="always"
       xlink:href="#linearGradient19728"
       id="linearGradient3251"
       x1="16"
       y1="31"
       x2="16"
       y2="1"
       gradientUnits="userSpaceOnUse"
       gradientTransform="scale(2)" /><linearGradient
       inkscape:collect="always"
       id="linearGradient19728"><stop
         style="stop-color:#ff9b11;stop-opacity:1;"
         offset="0"
         id="stop19724" /><stop
         style="stop-color:#f9c100;stop-opacity:1;"
         offset="1"
         id="stop19726" /></linearGradient></defs><path
     d="M 2,32 C 2,9.5 9.5,2 32,2 54.5,2 62,9.5 62,32 62,54.5 54.5,62 32,62 9.5,62 2,54.5 2,32"
     style="fill:url(#linearGradient3251);fill-opacity:1.0;stroke-width:0.3"
     id="path311" /><path
     d="m 15,14 c -1.662,0 -3,1.338 -3,3 v 13 h 21 v -8 c -1.10457,0 -2,-0.895432 -2,-2 v -3 c 0,-1.662 -1.338,-3 -3,-3 z"
     style="opacity:1;fill:#ffea92;fill-opacity:1;stroke-width:4;stroke-linecap:round;stroke-linejoin:round"
     id="path294"
     sodipodi:nodetypes="sscccssss" /><rect
     style="opacity:0.99;fill:#ffffff;fill-opacity:1;stroke-width:1.42878"
     id="rect556"
     width="40"
     height="30"
     x="12"
     y="20"
     ry="4" /><path
     id="rect2743"
     style="fill:#eaaa00;fill-opacity:1;stroke-width:0.272166"
     d="M 32 26 A 1 1 0 0 0 31 27 L 31 35.757812 C 30.259934 35.263562 29.389933 34.999843 28.5 35 C 26.014721 35 24 37.014721 24 39.5 C 24 41.985279 26.014721 44 28.5 44 C 30.985279 44 33 41.985279 33 39.5 L 33 28 C 36.063058 28.007 38 29.82048 38 32.5 L 38 34 C 38 34.552281 38.447719 35 39 35 C 39.552281 35 40 34.552281 40 34 L 40 32.5 C 40 29.257456 37.488262 26 33 26 L 32 26 z M 28.5 37 C 29.880711 37 31 38.119289 31 39.5 C 31 40.880711 29.880711 42 28.5 42 C 27.119289 42 26 40.880711 26 39.5 C 26 38.119289 27.119289 37 28.5 37 z " /></svg>
