<?xml version="1.0" encoding="UTF-8" standalone="no"?>
<!-- Created with Inkscape (http://www.inkscape.org/) -->

<svg
   width="64"
   height="64"
   viewBox="0 0 64 64"
   version="1.1"
   id="svg371"
   xml:space="preserve"
   inkscape:version="1.2.2 (1:1.2.2+202305151914+b0a8486541)"
   sodipodi:docname="folder-default-development.svg"
   xmlns:inkscape="http://www.inkscape.org/namespaces/inkscape"
   xmlns:sodipodi="http://sodipodi.sourceforge.net/DTD/sodipodi-0.dtd"
   xmlns:xlink="http://www.w3.org/1999/xlink"
   xmlns="http://www.w3.org/2000/svg"
   xmlns:svg="http://www.w3.org/2000/svg"><sodipodi:namedview
     id="namedview373"
     pagecolor="#ffffff"
     bordercolor="#000000"
     borderopacity="0.25"
     inkscape:showpageshadow="2"
     inkscape:pageopacity="0.0"
     inkscape:pagecheckerboard="0"
     inkscape:deskcolor="#d1d1d1"
     inkscape:document-units="px"
     showgrid="false"
     inkscape:zoom="12.59375"
     inkscape:cx="32"
     inkscape:cy="32"
     inkscape:window-width="1920"
     inkscape:window-height="1008"
     inkscape:window-x="0"
     inkscape:window-y="0"
     inkscape:window-maximized="1"
     inkscape:current-layer="svg371"
     showguides="false" /><defs
     id="defs368"><linearGradient
       inkscape:collect="always"
       xlink:href="#linearGradient1836"
       id="linearGradient3251"
       x1="16"
       y1="31"
       x2="16"
       y2="1"
       gradientUnits="userSpaceOnUse"
       gradientTransform="scale(2)" /><linearGradient
       inkscape:collect="always"
       id="linearGradient1836"><stop
         style="stop-color:#f69000;stop-opacity:1;"
         offset="0"
         id="stop1832" /><stop
         style="stop-color:#f9a900;stop-opacity:1;"
         offset="1"
         id="stop1834" /></linearGradient></defs><path
     d="M 2,32 C 2,9.5 9.5,2 32,2 54.5,2 62,9.5 62,32 62,54.5 54.5,62 32,62 9.5,62 2,54.5 2,32"
     style="fill:url(#linearGradient3251);fill-opacity:1;stroke-width:0.3"
     id="path311" /><path
     d="m 15,14 c -1.662,0 -3,1.338 -3,3 v 13 h 21 v -8 c -1.10457,0 -2,-0.895432 -2,-2 v -3 c 0,-1.662 -1.338,-3 -3,-3 z"
     style="opacity:1;fill:#ffdea2;fill-opacity:1;stroke-width:4;stroke-linecap:round;stroke-linejoin:round"
     id="path294"
     sodipodi:nodetypes="sscccssss" /><rect
     style="opacity:0.99;fill:#ffffff;fill-opacity:1;stroke-width:1.42878"
     id="rect556"
     width="40"
     height="30"
     x="12"
     y="20"
     ry="4" /><path
     id="path1179"
     style="fill:#e38300;fill-opacity:1;stroke-width:2.25;stroke-linecap:round;stroke-linejoin:round"
     d="M 30.875 26 C 30.251753 26 29.880589 26.515588 29.75 27.125 L 29.126953 30.025391 L 26.304688 29.113281 C 25.726294 28.881121 25.079202 28.985645 24.767578 29.525391 L 23.642578 31.474609 C 23.330954 32.014357 23.592218 32.593918 24.054688 33.011719 L 26.257812 35 L 24.054688 36.988281 C 23.592215 37.406082 23.330954 37.985642 23.642578 38.525391 L 24.767578 40.474609 C 25.079202 41.014359 25.726295 41.11888 26.304688 40.886719 L 29.126953 39.974609 L 29.75 42.875 C 29.83815 43.491982 30.251753 44 30.875 44 L 33.125 44 C 33.748249 44 34.119411 43.484412 34.25 42.875 L 34.873047 39.974609 L 37.695312 40.886719 C 38.273703 41.118881 38.920798 41.014368 39.232422 40.474609 L 40.357422 38.525391 C 40.669047 37.98564 40.407802 37.406081 39.945312 36.988281 L 37.742188 35 L 39.945312 33.011719 C 40.407786 32.593918 40.669047 32.014357 40.357422 31.474609 L 39.232422 29.525391 C 38.920798 28.985642 38.273705 28.881121 37.695312 29.113281 L 34.873047 30.025391 L 34.25 27.125 C 34.16185 26.508018 33.748249 26 33.125 26 L 30.875 26 z M 32 32 A 3 3 0 0 1 35 35 A 3 3 0 0 1 32 38 A 3 3 0 0 1 29 35 A 3 3 0 0 1 32 32 z " /></svg>
