<?xml version="1.0" encoding="UTF-8" standalone="no"?>
<!-- Created with Inkscape (http://www.inkscape.org/) -->

<svg
   width="48"
   height="48"
   viewBox="0 0 48 48"
   version="1.1"
   id="svg371"
   xml:space="preserve"
   inkscape:version="1.2.2 (1:1.2.2+202305151914+b0a8486541)"
   sodipodi:docname="folder-default-templates.svg"
   xmlns:inkscape="http://www.inkscape.org/namespaces/inkscape"
   xmlns:sodipodi="http://sodipodi.sourceforge.net/DTD/sodipodi-0.dtd"
   xmlns:xlink="http://www.w3.org/1999/xlink"
   xmlns="http://www.w3.org/2000/svg"
   xmlns:svg="http://www.w3.org/2000/svg"><sodipodi:namedview
     id="namedview373"
     pagecolor="#ffffff"
     bordercolor="#000000"
     borderopacity="0.25"
     inkscape:showpageshadow="2"
     inkscape:pageopacity="0.0"
     inkscape:pagecheckerboard="0"
     inkscape:deskcolor="#d1d1d1"
     inkscape:document-units="px"
     showgrid="false"
     inkscape:zoom="16.791667"
     inkscape:cx="24"
     inkscape:cy="24"
     inkscape:window-width="1920"
     inkscape:window-height="1008"
     inkscape:window-x="0"
     inkscape:window-y="0"
     inkscape:window-maximized="1"
     inkscape:current-layer="svg371"
     showguides="false" /><defs
     id="defs368"><linearGradient
       inkscape:collect="always"
       id="linearGradient10258"><stop
         style="stop-color:#8d93a9;stop-opacity:1;"
         offset="0"
         id="stop10254" /><stop
         style="stop-color:#a0a8bd;stop-opacity:1;"
         offset="1"
         id="stop10256" /></linearGradient><linearGradient
       inkscape:collect="always"
       xlink:href="#linearGradient10258"
       id="linearGradient3251"
       x1="16"
       y1="31"
       x2="16"
       y2="1"
       gradientUnits="userSpaceOnUse"
       gradientTransform="matrix(1.4666667,0,0,1.4666667,0.533333,0.5333333)" /></defs><path
     d="M 2,24 C 2,7.5 7.5,2 24,2 40.5,2 46,7.5 46,24 46,40.5 40.5,46 24,46 7.5,46 2,40.5 2,24"
     style="fill:url(#linearGradient3251);fill-opacity:1.0;stroke-width:0.22"
     id="path311" /><path
     id="rect419"
     style="fill:#bec4d3;fill-opacity:1;stroke-width:1.06066"
     d="m 11,10 c -1.107998,0 -2,0.892002 -2,2 v 12 c 0,1.107998 0.892002,2 2,2 h 15 v -7 c -1.104569,0 -2,-0.895431 -2,-2 v -5 c 0,-1.107998 -0.892002,-2 -2,-2 z"
     sodipodi:nodetypes="ssscccssss" /><rect
     style="fill:#ffffff;fill-opacity:1;stroke-width:1.08343"
     id="rect556"
     width="30"
     height="23"
     x="9"
     y="15"
     ry="3" /><path
     id="path8132"
     style="fill:#637290;stroke-linecap:round;stroke-linejoin:round;fill-opacity:1"
     d="M 20 18 C 18.338006 18 17 19.338006 17 21 L 17 25 L 19 25 L 19 21 C 19 20.446003 19.446003 20 20 20 L 24 20 L 24 23 C 24 24.107998 24.892002 25 26 25 L 29 25 L 29 32 C 29 32.553997 28.553997 33 28 33 L 27 33 L 27 35 L 28 35 C 29.661994 35 31 33.661994 31 32 L 31 24 L 25 18 L 20 18 z M 17 27 L 17 29 L 19 29 L 19 27 L 17 27 z M 17 31 L 17 32 C 17 33.661994 18.338006 35 20 35 L 21 35 L 21 33 L 20 33 C 19.446003 33 19 32.553997 19 32 L 19 31 L 17 31 z M 23 33 L 23 35 L 25 35 L 25 33 L 23 33 z " /></svg>
