<?xml version="1.0" encoding="UTF-8" standalone="no"?>
<!-- Created with Inkscape (http://www.inkscape.org/) -->

<svg
   width="48"
   height="48"
   viewBox="0 0 48 48"
   version="1.1"
   id="svg371"
   xml:space="preserve"
   inkscape:version="1.2.2 (1:1.2.2+202305151914+b0a8486541)"
   sodipodi:docname="folder-default-temp.svg"
   xmlns:inkscape="http://www.inkscape.org/namespaces/inkscape"
   xmlns:sodipodi="http://sodipodi.sourceforge.net/DTD/sodipodi-0.dtd"
   xmlns:xlink="http://www.w3.org/1999/xlink"
   xmlns="http://www.w3.org/2000/svg"
   xmlns:svg="http://www.w3.org/2000/svg"><sodipodi:namedview
     id="namedview373"
     pagecolor="#ffffff"
     bordercolor="#000000"
     borderopacity="0.25"
     inkscape:showpageshadow="2"
     inkscape:pageopacity="0.0"
     inkscape:pagecheckerboard="0"
     inkscape:deskcolor="#d1d1d1"
     inkscape:document-units="px"
     showgrid="false"
     inkscape:zoom="16.791667"
     inkscape:cx="24"
     inkscape:cy="24"
     inkscape:window-width="1920"
     inkscape:window-height="1008"
     inkscape:window-x="0"
     inkscape:window-y="0"
     inkscape:window-maximized="1"
     inkscape:current-layer="svg371"
     showguides="false" /><defs
     id="defs368"><linearGradient
       inkscape:collect="always"
       id="linearGradient1836"><stop
         style="stop-color:#f69000;stop-opacity:1;"
         offset="0"
         id="stop1832" /><stop
         style="stop-color:#f9a900;stop-opacity:1;"
         offset="1"
         id="stop1834" /></linearGradient><linearGradient
       inkscape:collect="always"
       xlink:href="#linearGradient1836"
       id="linearGradient15761"
       x1="24"
       y1="46"
       x2="24"
       y2="2"
       gradientUnits="userSpaceOnUse" /></defs><path
     d="M 2,24 C 2,7.5 7.5,2 24,2 40.5,2 46,7.5 46,24 46,40.5 40.5,46 24,46 7.5,46 2,40.5 2,24"
     style="fill:url(#linearGradient15761);fill-opacity:1;stroke-width:0.22"
     id="path311" /><path
     id="rect419"
     style="opacity:1;fill:#ffdea2;fill-opacity:1;stroke-width:1.06066"
     d="m 11,10 c -1.107998,0 -2,0.892002 -2,2 v 10 c 0,1.107998 0.892002,2 2,2 h 15 v -7 c -1.104569,0 -2,-0.895431 -2,-2 v -3 c 0,-1.107998 -0.892002,-2 -2,-2 z"
     sodipodi:nodetypes="ssscccssss" /><rect
     style="fill:#ffffff;fill-opacity:1;stroke-width:1.08343"
     id="rect556"
     width="30"
     height="23"
     x="9"
     y="15"
     ry="3" /><path
     id="path3931"
     style="fill:#e38300;fill-opacity:1;stroke-width:1.4;stroke-linecap:round;stroke-linejoin:round"
     d="M 24 20 C 20.134011 20 17 23.134011 17 27 C 17 30.865989 20.134011 34 24 34 C 27.865989 34 31 30.865989 31 27 C 31 23.134011 27.865989 20 24 20 z M 24 22 C 24.553998 22 25 22.446002 25 23 L 25 26 L 28 26 C 28.553998 26 29 26.446002 29 27 C 29 27.553998 28.553998 28 28 28 L 24 28 C 23.446002 28 23 27.553998 23 27 L 23 23 C 23 22.446002 23.446002 22 24 22 z " /></svg>
