<?xml version="1.0" encoding="UTF-8" standalone="no"?>
<!-- Created with Inkscape (http://www.inkscape.org/) -->

<svg
   width="48"
   height="48"
   viewBox="0 0 48 48"
   version="1.1"
   id="svg371"
   xml:space="preserve"
   inkscape:version="1.2.2 (1:1.2.2+202305151914+b0a8486541)"
   sodipodi:docname="folder-yellow-publicshare.svg"
   xmlns:inkscape="http://www.inkscape.org/namespaces/inkscape"
   xmlns:sodipodi="http://sodipodi.sourceforge.net/DTD/sodipodi-0.dtd"
   xmlns:xlink="http://www.w3.org/1999/xlink"
   xmlns="http://www.w3.org/2000/svg"
   xmlns:svg="http://www.w3.org/2000/svg"><sodipodi:namedview
     id="namedview373"
     pagecolor="#ffffff"
     bordercolor="#000000"
     borderopacity="0.25"
     inkscape:showpageshadow="2"
     inkscape:pageopacity="0.0"
     inkscape:pagecheckerboard="0"
     inkscape:deskcolor="#d1d1d1"
     inkscape:document-units="px"
     showgrid="false"
     inkscape:zoom="16.791667"
     inkscape:cx="24"
     inkscape:cy="24"
     inkscape:window-width="1920"
     inkscape:window-height="1008"
     inkscape:window-x="0"
     inkscape:window-y="0"
     inkscape:window-maximized="1"
     inkscape:current-layer="svg371"
     showguides="false" /><defs
     id="defs368"><linearGradient
       inkscape:collect="always"
       xlink:href="#linearGradient19728"
       id="linearGradient3251"
       x1="16"
       y1="31"
       x2="16"
       y2="1"
       gradientUnits="userSpaceOnUse"
       gradientTransform="matrix(1.4666667,0,0,1.4666667,0.533333,0.5333333)" /><linearGradient
       inkscape:collect="always"
       id="linearGradient19728"><stop
         style="stop-color:#ff9b11;stop-opacity:1;"
         offset="0"
         id="stop19724" /><stop
         style="stop-color:#f9c100;stop-opacity:1;"
         offset="1"
         id="stop19726" /></linearGradient></defs><path
     d="M 2,24 C 2,7.5 7.5,2 24,2 40.5,2 46,7.5 46,24 46,40.5 40.5,46 24,46 7.5,46 2,40.5 2,24"
     style="fill:url(#linearGradient3251);fill-opacity:1.0;stroke-width:0.22"
     id="path311" /><path
     id="rect419"
     style="fill:#ffea92;fill-opacity:1;stroke-width:1.06066"
     d="m 11,10 c -1.107998,0 -2,0.892002 -2,2 v 12 c 0,1.107998 0.892002,2 2,2 h 15 v -7 c -1.104569,0 -2,-0.895431 -2,-2 v -5 c 0,-1.107998 -0.892002,-2 -2,-2 z"
     sodipodi:nodetypes="ssscccssss" /><rect
     style="fill:#ffffff;fill-opacity:1;stroke-width:1.08343"
     id="rect556"
     width="30"
     height="23"
     x="9"
     y="15"
     ry="3" /><path
     d="M 27.46875,19.652342 18,25.679686 18.57422,26.5 18,27.320312 27.46875,33.347656 28.617188,31.710936 20.320312,26.5 28.617188,21.289062 Z"
     style="opacity:0.7;fill:#eaaa00;fill-opacity:1;stroke-width:2.0755;stroke-linecap:round;stroke-linejoin:round"
     id="path3003"
     sodipodi:nodetypes="ccccccccc" /><path
     id="path3632"
     style="fill:#eaaa00;fill-opacity:1;stroke-width:1.25;stroke-linecap:round;stroke-linejoin:round"
     d="M 28.5,18 C 27.119289,18 26,19.119289 26,20.5 26,21.88071 27.119289,23 28.5,23 29.88071,23 31,21.88071 31,20.5 31,19.119289 29.88071,18 28.5,18 Z m -10,6 C 17.119289,24 16,25.119289 16,26.5 16,27.88071 17.119289,29 18.5,29 19.88071,29 21,27.88071 21,26.5 21,25.119289 19.88071,24 18.5,24 Z m 10,6 C 27.119289,30 26,31.119289 26,32.5 26,33.88071 27.119289,35 28.5,35 29.88071,35 31,33.88071 31,32.5 31,31.119289 29.88071,30 28.5,30 Z" /></svg>
