<?xml version="1.0" encoding="UTF-8" standalone="no"?>
<!-- Created with Inkscape (http://www.inkscape.org/) -->

<svg
   width="16"
   height="16"
   viewBox="0 0 16 16"
   version="1.1"
   id="svg5"
   inkscape:version="1.3.2 (091e20ef0f, 2023-11-25, custom)"
   sodipodi:docname="user-trash-symbolic.svg"
   xmlns:inkscape="http://www.inkscape.org/namespaces/inkscape"
   xmlns:sodipodi="http://sodipodi.sourceforge.net/DTD/sodipodi-0.dtd"
   xmlns="http://www.w3.org/2000/svg"
   xmlns:svg="http://www.w3.org/2000/svg">
  <sodipodi:namedview
     id="namedview7"
     pagecolor="#ffffff"
     bordercolor="#000000"
     borderopacity="0.25"
     inkscape:showpageshadow="2"
     inkscape:pageopacity="0.0"
     inkscape:pagecheckerboard="0"
     inkscape:deskcolor="#d1d1d1"
     inkscape:document-units="px"
     showgrid="false"
     inkscape:zoom="50.375"
     inkscape:cx="8.0595533"
     inkscape:cy="7.9900744"
     inkscape:window-width="1920"
     inkscape:window-height="1008"
     inkscape:window-x="0"
     inkscape:window-y="0"
     inkscape:window-maximized="1"
     inkscape:current-layer="svg5" />
  <defs
     id="defs2" />
  <path
     d="M 6,1 C 5.4460005,1 5,1.4460007 5,2 V 3 H 2 v 1 h 1 l 1,9 c 0.1223582,1.101224 0.8920013,2 2,2 h 4 c 1.107999,0 1.877642,-0.898777 2,-2 l 1,-9 h 1 V 3 H 11 V 2 C 11,1.4460007 10.553999,1 10,1 Z m 0,1 h 4 V 3 H 6 Z M 4,4 h 8 l -1,9 c -0.06118,0.550611 -0.446001,1 -1,1 H 6 C 5.446001,14 5.061179,13.550611 5,13 Z M 6.4746094,6 C 6.2096946,6.0133417 6,6.231655 6,6.5 v 5 C 6,11.777002 6.2230003,12 6.5,12 6.7770017,12 7,11.777001 7,11.5 v -5 C 7,6.2229987 6.7769997,6 6.5,6 6.4913,6 6.4831494,5.9995699 6.4746094,6 Z M 9.474609,6 C 9.209696,6.0133417 9,6.231655 9,6.5 v 5 C 9,11.777002 9.223,12 9.5,12 9.777001,12 10,11.777001 10,11.5 v -5 C 10,6.2229987 9.777,6 9.5,6 9.4913,6 9.48315,5.9995699 9.47461,6 Z"
     style="fill:#dfdfdf;fill-opacity:1;stroke-width:18.8977;stroke-linecap:round;stroke-linejoin:round"
     id="path1" />
</svg>
