<?xml version="1.0" encoding="UTF-8" standalone="no"?>
<!-- Created with Inkscape (http://www.inkscape.org/) -->

<svg
   width="16"
   height="16"
   viewBox="0 0 16 16"
   version="1.1"
   id="svg5"
   inkscape:version="1.3.2 (091e20ef0f, 2023-11-25, custom)"
   sodipodi:docname="user-trash-full-symbolic.svg"
   xmlns:inkscape="http://www.inkscape.org/namespaces/inkscape"
   xmlns:sodipodi="http://sodipodi.sourceforge.net/DTD/sodipodi-0.dtd"
   xmlns="http://www.w3.org/2000/svg"
   xmlns:svg="http://www.w3.org/2000/svg">
  <sodipodi:namedview
     id="namedview7"
     pagecolor="#ffffff"
     bordercolor="#000000"
     borderopacity="0.25"
     inkscape:showpageshadow="2"
     inkscape:pageopacity="0.0"
     inkscape:pagecheckerboard="0"
     inkscape:deskcolor="#d1d1d1"
     inkscape:document-units="px"
     showgrid="false"
     inkscape:zoom="49.6875"
     inkscape:cx="7.9899371"
     inkscape:cy="8"
     inkscape:window-width="1920"
     inkscape:window-height="1008"
     inkscape:window-x="0"
     inkscape:window-y="0"
     inkscape:window-maximized="1"
     inkscape:current-layer="svg5" />
  <defs
     id="defs2" />
  <path
     id="path1"
     style="fill:#dfdfdf;fill-opacity:1;stroke-width:18.8977;stroke-linecap:round;stroke-linejoin:round"
     d="M 6 1 C 5.4460011 1 5 1.4460013 5 2 L 5 3 L 2 3 L 2 4 L 3 4 L 4 13 C 4.1223581 14.101223 4.8920024 15 6 15 L 10 15 C 11.107998 15 11.877642 14.101222 12 13 L 13 4 L 14 4 L 14 3 L 11 3 L 11 2 C 11 1.4460013 10.553998 1 10 1 L 6 1 z M 6 2 L 10 2 L 10 3 L 6 3 L 6 2 z M 6.4746094 6 C 6.4831494 5.9995699 6.4913 6 6.5 6 C 6.7769994 6 7 6.222999 7 6.5 L 7 11.5 C 7 11.777001 6.7770014 12 6.5 12 C 6.2230006 12 6 11.777002 6 11.5 L 6 6.5 C 6 6.2316553 6.2096948 6.0133417 6.4746094 6 z M 9.4746094 6 C 9.4831494 5.9995699 9.4913 6 9.5 6 C 9.7769997 6 10 6.222999 10 6.5 L 10 11.5 C 10 11.777001 9.7770007 12 9.5 12 C 9.2230003 12 9 11.777002 9 11.5 L 9 6.5 C 9 6.2316553 9.2096966 6.0133417 9.4746094 6 z " />
</svg>
