<?xml version="1.0" encoding="UTF-8" standalone="no"?>
<!-- Created with Inkscape (http://www.inkscape.org/) -->

<svg
   width="24"
   height="24"
   viewBox="0 0 24 24"
   version="1.1"
   id="svg405"
   inkscape:version="1.2.2 (1:1.2.2+202305151914+b0a8486541)"
   sodipodi:docname="fcitx-chewing.svg"
   xmlns:inkscape="http://www.inkscape.org/namespaces/inkscape"
   xmlns:sodipodi="http://sodipodi.sourceforge.net/DTD/sodipodi-0.dtd"
   xmlns="http://www.w3.org/2000/svg"
   xmlns:svg="http://www.w3.org/2000/svg">
  <sodipodi:namedview
     id="namedview407"
     pagecolor="#ffffff"
     bordercolor="#000000"
     borderopacity="0.25"
     inkscape:showpageshadow="2"
     inkscape:pageopacity="0.0"
     inkscape:pagecheckerboard="0"
     inkscape:deskcolor="#d1d1d1"
     inkscape:document-units="px"
     showgrid="false"
     inkscape:zoom="33.583333"
     inkscape:cx="11.985112"
     inkscape:cy="12"
     inkscape:window-width="1920"
     inkscape:window-height="1008"
     inkscape:window-x="0"
     inkscape:window-y="0"
     inkscape:window-maximized="1"
     inkscape:current-layer="svg405" />
  <defs
     id="defs402">
    <style
       id="current-color-scheme"
       type="text/css">
         .ColorScheme-Text { color:#dfdfdf; }
        </style>
  </defs>
  <path
     id="path343"
     style="fill:currentColor;fill-opacity:1;stroke-linecap:round;stroke-linejoin:round"
     class="ColorScheme-Text"
     d="M 7,4 C 5.3380085,4 4,5.3380085 4,7 v 10 c 0,1.66199 1.3380085,3 3,3 h 10 c 1.66199,0 3,-1.33801 3,-3 V 7 C 20,5.3380085 18.66199,4 17,4 Z m 0,1 h 10 c 1.107998,0 2,0.8920022 2,2 v 10 c 0,1.107998 -0.892002,2 -2,2 H 7 C 5.8920022,19 5,18.107998 5,17 V 7 C 5,5.8920022 5.8920022,5 7,5 Z M 6,6 v 1 h 1 v 3 H 6 v 8 h 6 V 10 H 11.5 10 V 7 h 2 V 6 Z m 6,4 0.400391,0.300781 c 0,0 0.398175,-0.5111826 0.796875,-1.300781 H 15 v 2 h -2 v 1 h 5 V 11 H 16 V 9 h 2 V 8 H 16 V 6 H 15 V 8 H 13.617188 C 13.834586,7.3887012 14,6.7086986 14,6 h -1 c 0,1.7499965 -1.400391,3.6992188 -1.400391,3.6992188 z M 8,7 h 1 v 3 H 8 Z m 0,4 h 1 v 3 h 1 v -3 h 1 v 6 H 7 v -1 h 3 V 15 H 7 v -1 h 1 z m 5,2 v 5 h 5 v -5 z m 1,1 h 3 v 3 h -3 z" />
</svg>
