<?xml version="1.0" encoding="UTF-8" standalone="no"?>
<!-- Created with Inkscape (http://www.inkscape.org/) -->

<svg
   width="24"
   height="24"
   viewBox="0 0 24 24"
   version="1.1"
   id="svg5"
   inkscape:version="1.2.2 (1:1.2.2+202305151914+b0a8486541)"
   sodipodi:docname="go-bottom.svg"
   xmlns:inkscape="http://www.inkscape.org/namespaces/inkscape"
   xmlns:sodipodi="http://sodipodi.sourceforge.net/DTD/sodipodi-0.dtd"
   xmlns="http://www.w3.org/2000/svg"
   xmlns:svg="http://www.w3.org/2000/svg">
  <sodipodi:namedview
     id="namedview7"
     pagecolor="#ffffff"
     bordercolor="#000000"
     borderopacity="0.25"
     inkscape:showpageshadow="2"
     inkscape:pageopacity="0.0"
     inkscape:pagecheckerboard="0"
     inkscape:deskcolor="#d1d1d1"
     inkscape:document-units="px"
     showgrid="false"
     inkscape:zoom="33.583333"
     inkscape:cx="12"
     inkscape:cy="12"
     inkscape:window-width="1920"
     inkscape:window-height="1008"
     inkscape:window-x="0"
     inkscape:window-y="0"
     inkscape:window-maximized="1"
     inkscape:current-layer="svg5" />
  <defs
     id="defs2">
    <style
       id="current-color-scheme"
       type="text/css">
         .ColorScheme-Text { color:#dfdfdf; }
        </style>
  </defs>
  <path
     id="path342"
     style="fill:currentColor;fill-opacity:1;stroke-width:5.00001;stroke-linecap:round;stroke-linejoin:round"
     class="ColorScheme-Text"
     d="m 19.65625,6.4980469 c -0.127809,10e-8 -0.255582,0.050503 -0.353516,0.1484375 L 12,13.949219 4.6972656,6.6464844 c -0.1958668,-0.1958708 -0.5111635,-0.1958708 -0.7070312,0 -0.1958698,0.1958698 -0.1958696,0.5111624 0,0.7070312 l 7.6562496,7.6562504 c 0.195881,0.195858 0.511164,0.195869 0.707032,0 0.0061,-0.0061 0.01379,-0.01318 0.01953,-0.01953 l 7.636719,-7.6367184 c 0.195857,-0.1958818 0.195868,-0.5111634 0,-0.7070312 C 19.911831,6.548549 19.784059,6.4980468 19.65625,6.4980469 Z M 12,16.5 c -0.552284,0 -1,0.447716 -1,1 0,0.552284 0.447716,1 1,1 0.552284,0 1,-0.447716 1,-1 0,-0.552284 -0.447716,-1 -1,-1 z" />
</svg>
