<?xml version="1.0" encoding="UTF-8" standalone="no"?>
<!-- Created with Inkscape (http://www.inkscape.org/) -->

<svg
   width="24"
   height="24"
   viewBox="0 0 24 24"
   version="1.1"
   id="svg5"
   inkscape:version="1.2.2 (1:1.2.2+202305151914+b0a8486541)"
   sodipodi:docname="view-media-playlist.svg"
   xmlns:inkscape="http://www.inkscape.org/namespaces/inkscape"
   xmlns:sodipodi="http://sodipodi.sourceforge.net/DTD/sodipodi-0.dtd"
   xmlns="http://www.w3.org/2000/svg"
   xmlns:svg="http://www.w3.org/2000/svg">
  <sodipodi:namedview
     id="namedview7"
     pagecolor="#ffffff"
     bordercolor="#000000"
     borderopacity="0.25"
     inkscape:showpageshadow="2"
     inkscape:pageopacity="0.0"
     inkscape:pagecheckerboard="0"
     inkscape:deskcolor="#d1d1d1"
     inkscape:document-units="px"
     showgrid="false"
     inkscape:zoom="33.583333"
     inkscape:cx="12"
     inkscape:cy="12"
     inkscape:window-width="1920"
     inkscape:window-height="1008"
     inkscape:window-x="0"
     inkscape:window-y="0"
     inkscape:window-maximized="1"
     inkscape:current-layer="svg5" />
  <defs
     id="defs2">
    <style
       id="current-color-scheme"
       type="text/css">
         .ColorScheme-Text { color:#dfdfdf; }
        </style>
  </defs>
  <path
     id="rect286"
     style="fill:currentColor;stroke-width:2;stroke-linecap:round;stroke-linejoin:round"
     class="ColorScheme-Text"
     d="M 4.5,5 C 4.2230006,5 4,5.2230006 4,5.5 4,5.7769994 4.2230006,6 4.5,6 h 15 C 19.777,6 20,5.7769994 20,5.5 20,5.2230006 19.777,5 19.5,5 Z m 0,4 C 4.2230006,9 4,9.2230006 4,9.5 4,9.7769994 4.2230006,10 4.5,10 h 15 C 19.777,10 20,9.7769994 20,9.5 20,9.2230006 19.777,9 19.5,9 Z m 0,4 C 4.2230006,13 4,13.223 4,13.5 4,13.777 4.2230006,14 4.5,14 h 15 C 19.777,14 20,13.777 20,13.5 20,13.223 19.777,13 19.5,13 Z m 0,4 C 4.2230006,17 4,17.223 4,17.5 4,17.777 4.2230006,18 4.5,18 h 15 C 19.777,18 20,17.777 20,17.5 20,17.223 19.777,17 19.5,17 Z"
     sodipodi:nodetypes="ssssssssssssssssssssssssssss" />
</svg>
