<?xml version="1.0" encoding="UTF-8" standalone="no"?>
<svg
   viewbox="0 0 200 200"
   version="1.1"
   id="svg4"
   sodipodi:docname="cs-applets.svg"
   width="48"
   height="48"
   inkscape:version="1.2.2 (1:1.2.2+202212051552+b0a8486541)"
   xmlns:inkscape="http://www.inkscape.org/namespaces/inkscape"
   xmlns:sodipodi="http://sodipodi.sourceforge.net/DTD/sodipodi-0.dtd"
   xmlns="http://www.w3.org/2000/svg"
   xmlns:svg="http://www.w3.org/2000/svg">
  <defs
     id="defs8" />
  <sodipodi:namedview
     id="namedview6"
     pagecolor="#ffffff"
     bordercolor="#666666"
     borderopacity="1.0"
     inkscape:pageshadow="2"
     inkscape:pageopacity="0.0"
     inkscape:pagecheckerboard="0"
     showgrid="false"
     inkscape:zoom="16.875"
     inkscape:cx="24"
     inkscape:cy="24"
     inkscape:window-width="1920"
     inkscape:window-height="1012"
     inkscape:window-x="0"
     inkscape:window-y="0"
     inkscape:window-maximized="1"
     inkscape:current-layer="svg4"
     showguides="false"
     inkscape:showpageshadow="2"
     inkscape:deskcolor="#d1d1d1" />
  <path
     d="M 2,24 C 2,7.4999997 7.5,2 24,2 40.5,2 46,7.4999997 46,24 46,40.5 40.5,46 24,46 7.5,46 2,40.5 2,24"
     style="fill:#28b9d8;fill-opacity:1;stroke-width:0.22"
     id="path311" />
  <path
     id="rect840"
     style="fill:#ffffff;stroke:none;stroke-width:1.06066;stroke-linecap:round;stroke-linejoin:round"
     d="m 11,26 c -1.1079978,0 -2,0.892002 -2,2 v 2 c 0,1.107998 0.8920022,2 2,2 h 2 c 1.107998,0 2,-0.892002 2,-2 v -2 c 0,-1.107998 -0.892002,-2 -2,-2 z m 8,0 c -1.107998,0 -2,0.892002 -2,2 v 2 c 0,1.107998 0.892002,2 2,2 h 2 c 1.107998,0 2,-0.892002 2,-2 v -2 c 0,-1.107998 -0.892002,-2 -2,-2 z m 8,0 c -1.107998,0 -2,0.892002 -2,2 v 2 c 0,1.107998 0.892002,2 2,2 h 2 c 1.107998,0 2,-0.892002 2,-2 v -2 c 0,-1.107998 -0.892002,-2 -2,-2 z m 8,0 c -1.107998,0 -2,0.892002 -2,2 v 2 c 0,1.107998 0.892002,2 2,2 h 2 c 1.107998,0 2,-0.892002 2,-2 v -2 c 0,-1.107998 -0.892002,-2 -2,-2 z M 10.5,34 C 9.6690016,34 9,34.669001 9,35.5 9,36.330997 9.6690016,37 10.5,37 h 27 C 38.330997,37 39,36.330997 39,35.5 39,34.669001 38.330997,34 37.5,34 Z" />
</svg>
