<?xml version="1.0" encoding="UTF-8" standalone="no"?>
<svg
   viewbox="0 0 200 200"
   version="1.1"
   id="svg4"
   sodipodi:docname="cs-desktop.svg"
   width="48"
   height="48"
   inkscape:version="1.2.2 (1:1.2.2+202212051552+b0a8486541)"
   xmlns:inkscape="http://www.inkscape.org/namespaces/inkscape"
   xmlns:sodipodi="http://sodipodi.sourceforge.net/DTD/sodipodi-0.dtd"
   xmlns="http://www.w3.org/2000/svg"
   xmlns:svg="http://www.w3.org/2000/svg">
  <defs
     id="defs8" />
  <sodipodi:namedview
     id="namedview6"
     pagecolor="#ffffff"
     bordercolor="#666666"
     borderopacity="1.0"
     inkscape:pageshadow="2"
     inkscape:pageopacity="0.0"
     inkscape:pagecheckerboard="0"
     showgrid="false"
     inkscape:zoom="16.875"
     inkscape:cx="24"
     inkscape:cy="24"
     inkscape:window-width="1920"
     inkscape:window-height="1012"
     inkscape:window-x="0"
     inkscape:window-y="0"
     inkscape:window-maximized="1"
     inkscape:current-layer="svg4"
     showguides="false"
     inkscape:showpageshadow="2"
     inkscape:deskcolor="#d1d1d1" />
  <path
     d="M 2,24 C 2,7.4999998 7.5,2 24,2 40.5,2 46,7.4999998 46,24 46,40.5 40.5,46 24,46 7.5,46 2,40.5 2,24"
     style="fill:#28b9d8;fill-opacity:1;stroke-width:0.22"
     id="path311" />
  <path
     id="path293"
     style="fill:#ffffff;stroke-width:2;stroke-linecap:round;stroke-linejoin:round"
     d="m 13,12 c -2.215998,0 -4,1.784002 -4,4 v 16 c 0,2.215998 1.784002,4 4,4 h 22 c 2.215998,0 4,-1.784002 4,-4 V 16 c 0,-2.215998 -1.784002,-4 -4,-4 z m 0.5,3 h 1 c 0.830998,0 1.5,0.669002 1.5,1.5 v 1 c 0,0.830998 -0.669002,1.5 -1.5,1.5 h -1 C 12.669002,19 12,18.330998 12,17.5 v -1 C 12,15.669002 12.669002,15 13.5,15 Z m 0,6 h 1 c 0.830998,0 1.5,0.669002 1.5,1.5 v 1 c 0,0.830998 -0.669002,1.5 -1.5,1.5 h -1 C 12.669002,25 12,24.330998 12,23.5 v -1 C 12,21.669002 12.669002,21 13.5,21 Z M 13,29 h 22 c 0.553999,0 1,0.446001 1,1 v 1 c 0,1.107999 -0.892001,2 -2,2 H 14 c -1.107999,0 -2,-0.892001 -2,-2 v -1 c 0,-0.553999 0.446001,-1 1,-1 z"
     sodipodi:nodetypes="ssssssssssssssssssssssssssssssssssss" />
</svg>
