<?xml version="1.0" encoding="UTF-8" standalone="no"?>
<!-- Created with Inkscape (http://www.inkscape.org/) -->

<svg
   width="48"
   height="48"
   viewBox="0 0 48 48"
   version="1.1"
   id="svg371"
   xml:space="preserve"
   inkscape:version="1.2.2 (1:1.2.2+202212051552+b0a8486541)"
   sodipodi:docname="preferences-desktop-default-applications.svg"
   xmlns:inkscape="http://www.inkscape.org/namespaces/inkscape"
   xmlns:sodipodi="http://sodipodi.sourceforge.net/DTD/sodipodi-0.dtd"
   xmlns="http://www.w3.org/2000/svg"
   xmlns:svg="http://www.w3.org/2000/svg"><sodipodi:namedview
     id="namedview373"
     pagecolor="#ffffff"
     bordercolor="#000000"
     borderopacity="0.25"
     inkscape:showpageshadow="2"
     inkscape:pageopacity="0.0"
     inkscape:pagecheckerboard="0"
     inkscape:deskcolor="#d1d1d1"
     inkscape:document-units="px"
     showgrid="false"
     inkscape:zoom="16.875"
     inkscape:cx="24"
     inkscape:cy="24"
     inkscape:window-width="1920"
     inkscape:window-height="1012"
     inkscape:window-x="0"
     inkscape:window-y="0"
     inkscape:window-maximized="1"
     inkscape:current-layer="svg371"
     showguides="true"
     inkscape:lockguides="true" /><defs
     id="defs368" /><path
     d="M 2,24 C 2,7.5 7.5,2 24,2 40.5,2 46,7.5 46,24 46,40.5 40.5,46 24,46 7.5,46 2,40.5 2,24"
     style="fill:#28b9d8;fill-opacity:1;stroke-width:0.22"
     id="path311" /><path
     id="path945"
     style="color:#000000;fill:#ffffff;stroke:none;stroke-width:5.04367;stroke-linecap:round;stroke-linejoin:round;-inkscape-stroke:none"
     d="m 23.927993,9.5857341 a 2.5220931,2.5220931 0 0 0 -2.252196,1.4188839 l -3.226269,6.646792 -7.308377,1.106391 a 2.5220931,2.5220931 0 0 0 -1.3682085,4.310141 l 5.3236275,5.123745 -1.204924,7.288668 a 2.5220931,2.5220931 0 0 0 3.673893,2.637884 l 6.517293,-3.479643 6.562335,3.395185 a 2.5220931,2.5220931 0 0 0 3.642927,-2.677297 l -1.292199,-7.274592 5.256063,-5.191311 A 2.5220931,2.5220931 0 0 0 36.827444,18.600147 L 29.510624,17.581029 26.19708,10.976465 A 2.5220931,2.5220931 0 0 0 23.927993,9.5857341 Z" /></svg>
