<?xml version="1.0" encoding="UTF-8" standalone="no"?>
<!-- Created with Inkscape (http://www.inkscape.org/) -->

<svg
   width="48"
   height="48"
   viewBox="0 0 48 48"
   version="1.1"
   id="svg371"
   xml:space="preserve"
   inkscape:version="1.2.2 (1:1.2.2+202212051552+b0a8486541)"
   sodipodi:docname="preferences-system-users.svg"
   xmlns:inkscape="http://www.inkscape.org/namespaces/inkscape"
   xmlns:sodipodi="http://sodipodi.sourceforge.net/DTD/sodipodi-0.dtd"
   xmlns="http://www.w3.org/2000/svg"
   xmlns:svg="http://www.w3.org/2000/svg"><sodipodi:namedview
     id="namedview373"
     pagecolor="#ffffff"
     bordercolor="#000000"
     borderopacity="0.25"
     inkscape:showpageshadow="2"
     inkscape:pageopacity="0.0"
     inkscape:pagecheckerboard="0"
     inkscape:deskcolor="#d1d1d1"
     inkscape:document-units="px"
     showgrid="false"
     inkscape:zoom="16.875"
     inkscape:cx="24"
     inkscape:cy="24"
     inkscape:window-width="1920"
     inkscape:window-height="1012"
     inkscape:window-x="0"
     inkscape:window-y="0"
     inkscape:window-maximized="1"
     inkscape:current-layer="svg371"
     showguides="false"
     inkscape:lockguides="true" /><defs
     id="defs368" /><path
     d="M 2,24 C 2,7.5 7.5,2 24,2 40.5,2 46,7.5 46,24 46,40.5 40.5,46 24,46 7.5,46 2,40.5 2,24"
     style="fill:#7999af;fill-opacity:1;stroke-width:0.22"
     id="path311" /><path
     id="path2315"
     style="fill:#ffffff;fill-opacity:1;stroke-width:0.666665"
     d="M 30 10 C 27.790863 10 26 11.790863 26 14 C 26 16.209137 27.790863 18 30 18 C 32.209137 18 34 16.209137 34 14 C 34 11.790863 32.209137 10 30 10 z M 18 16 C 15.790863 16 14 17.790863 14 20 C 14 22.209137 15.790863 24 18 24 C 20.209137 24 22 22.209137 22 20 C 22 17.790863 20.209137 16 18 16 z M 30 21 C 26.92004 21 24.202587 22.548713 22.580078 24.908203 C 25.03282 25.921912 27.073473 27.723841 28.390625 30 L 39 30 C 39 25.029448 34.970552 21 30 21 z M 18 27 C 13.029443 27 9 31.029443 9 36 L 27 36 C 27 31.029443 22.970557 27 18 27 z " /></svg>
