<?xml version="1.0" encoding="UTF-8" standalone="no"?>
<!-- Created with Inkscape (http://www.inkscape.org/) -->

<svg
   width="48"
   height="48"
   viewBox="0 0 48 48"
   version="1.1"
   id="svg371"
   xml:space="preserve"
   inkscape:version="1.2.2 (1:1.2.2+202212051552+b0a8486541)"
   sodipodi:docname="preferences-desktop-theme-global.svg"
   xmlns:inkscape="http://www.inkscape.org/namespaces/inkscape"
   xmlns:sodipodi="http://sodipodi.sourceforge.net/DTD/sodipodi-0.dtd"
   xmlns="http://www.w3.org/2000/svg"
   xmlns:svg="http://www.w3.org/2000/svg"><sodipodi:namedview
     id="namedview373"
     pagecolor="#ffffff"
     bordercolor="#000000"
     borderopacity="0.25"
     inkscape:showpageshadow="2"
     inkscape:pageopacity="0.0"
     inkscape:pagecheckerboard="0"
     inkscape:deskcolor="#d1d1d1"
     inkscape:document-units="px"
     showgrid="false"
     inkscape:zoom="16.875"
     inkscape:cx="24"
     inkscape:cy="24"
     inkscape:window-width="1920"
     inkscape:window-height="1012"
     inkscape:window-x="0"
     inkscape:window-y="0"
     inkscape:window-maximized="1"
     inkscape:current-layer="svg371"
     showguides="true" /><defs
     id="defs368" /><path
     d="M 2,24 C 2,7.5 7.5,2 24,2 40.5,2 46,7.5 46,24 46,40.5 40.5,46 24,46 7.5,46 2,40.5 2,24"
     style="fill:#c47bdf;fill-opacity:1;stroke-width:0.22"
     id="path311"
     sodipodi:nodetypes="csssc" /><path
     d="m 11.000003,12.000164 v 8.000072 h 26 V 12.999948 C 35.507537,12.471699 34.642394,11.98981 31.5,12.000164 c -5.049381,-0.0061 -8.503641,1.941232 -12.499997,1.999784 -2.61242,-0.0036 -5.83355,-0.1621 -8,-1.999784 z m 0,10.000072 v 6.000253 c -0.0039,1.509802 3.814422,2.446771 7,2.999999 2.335771,0.43528 3.989164,0.801928 4,3 0.0033,0.675601 -0.992868,2.090955 -1.000001,3 0,1.656849 1.34315,2.999999 2.999999,2.999999 1.65685,0 3,-1.34315 3,-2.999999 -0.0071,-0.909045 -0.993019,-2.292777 -0.999998,-3 -0.03125,-2.197876 1.664226,-2.564719 3.999997,-3 3.185578,-0.553227 7.003903,-1.490197 7.000003,-2.999999 v -6.000253 z"
     style="fill:#ffffff;stroke-width:0.75"
     id="path598"
     sodipodi:nodetypes="ccccccccccscscccccc" /></svg>
