<?xml version="1.0" encoding="UTF-8" standalone="no"?>
<!-- Created with Inkscape (http://www.inkscape.org/) -->

<svg
   width="48"
   height="48"
   viewBox="0 0 48 48"
   version="1.1"
   id="svg371"
   xml:space="preserve"
   inkscape:version="1.2.2 (1:1.2.2+202212051552+b0a8486541)"
   sodipodi:docname="preferences-desktop-emoticons.svg"
   xmlns:inkscape="http://www.inkscape.org/namespaces/inkscape"
   xmlns:sodipodi="http://sodipodi.sourceforge.net/DTD/sodipodi-0.dtd"
   xmlns="http://www.w3.org/2000/svg"
   xmlns:svg="http://www.w3.org/2000/svg"><sodipodi:namedview
     id="namedview373"
     pagecolor="#ffffff"
     bordercolor="#000000"
     borderopacity="0.25"
     inkscape:showpageshadow="2"
     inkscape:pageopacity="0.0"
     inkscape:pagecheckerboard="0"
     inkscape:deskcolor="#d1d1d1"
     inkscape:document-units="px"
     showgrid="false"
     inkscape:zoom="16.875"
     inkscape:cx="23.97037"
     inkscape:cy="24"
     inkscape:window-width="1920"
     inkscape:window-height="1012"
     inkscape:window-x="0"
     inkscape:window-y="0"
     inkscape:window-maximized="1"
     inkscape:current-layer="svg371"
     showguides="false" /><defs
     id="defs368" /><path
     d="M 2,24 C 2,7.5 7.5,2 24,2 40.5,2 46,7.5 46,24 46,40.5 40.5,46 24,46 7.5,46 2,40.5 2,24"
     style="fill:#e8b641;fill-opacity:1;stroke-width:0.22"
     id="path311" /><path
     id="path3018"
     style="fill:#ffffff;stroke-width:2;stroke-linecap:round;stroke-linejoin:round;stroke:none"
     d="M 24 9 A 15 15 0 0 0 9 24 A 15 15 0 0 0 24 39 A 15 15 0 0 0 39 24 A 15 15 0 0 0 24 9 z M 18 18 A 2 2 0 0 1 20 20 A 2 2 0 0 1 18 22 A 2 2 0 0 1 16 20 A 2 2 0 0 1 18 18 z M 30 18 A 2 2 0 0 1 32 20 A 2 2 0 0 1 30 22 A 2 2 0 0 1 28 20 A 2 2 0 0 1 30 18 z M 17.636719 29.363281 A 1 1 0 0 1 18.34375 29.65625 C 19.844307 31.156807 21.87789 32 24 32 C 26.12211 32 28.155693 31.156807 29.65625 29.65625 A 1 1 0 0 1 31.070312 29.65625 A 1 1 0 0 1 31.070312 31.070312 C 29.195226 32.945401 26.651772 34 24 34 C 21.348228 34 18.804775 32.945401 16.929688 31.070312 A 1 1 0 0 1 16.929688 29.65625 A 1 1 0 0 1 17.636719 29.363281 z " /></svg>
