<?xml version="1.0" encoding="UTF-8" standalone="no"?>
<svg
   viewbox="0 0 200 200"
   version="1.1"
   id="svg4"
   sodipodi:docname="preferences-system-sound.svg"
   width="48"
   height="48"
   inkscape:version="1.2.2 (1:1.2.2+202212051552+b0a8486541)"
   xmlns:inkscape="http://www.inkscape.org/namespaces/inkscape"
   xmlns:sodipodi="http://sodipodi.sourceforge.net/DTD/sodipodi-0.dtd"
   xmlns="http://www.w3.org/2000/svg"
   xmlns:svg="http://www.w3.org/2000/svg">
  <defs
     id="defs8" />
  <sodipodi:namedview
     id="namedview6"
     pagecolor="#ffffff"
     bordercolor="#666666"
     borderopacity="1.0"
     inkscape:pageshadow="2"
     inkscape:pageopacity="0.0"
     inkscape:pagecheckerboard="0"
     showgrid="false"
     inkscape:zoom="16.875"
     inkscape:cx="24"
     inkscape:cy="24"
     inkscape:window-width="1920"
     inkscape:window-height="1012"
     inkscape:window-x="0"
     inkscape:window-y="0"
     inkscape:window-maximized="1"
     inkscape:current-layer="svg4"
     showguides="false"
     inkscape:showpageshadow="2"
     inkscape:deskcolor="#d1d1d1" />
  <path
     d="M 2,24 C 2,7.4999997 7.5,2 24,2 40.5,2 46,7.4999997 46,24 46,40.5 40.5,46 24,46 7.5,46 2,40.5 2,24"
     style="fill:#7783fa;fill-opacity:1;stroke-width:0.22"
     id="path311" />
  <path
     id="path1143"
     style="color:#000000;fill:#ffffff;stroke:none;stroke-width:1.5;stroke-linecap:round;stroke-linejoin:round;-inkscape-stroke:none"
     d="m 23.322266,13.001953 c -0.223474,-0.0217 -0.444937,0.05785 -0.603516,0.216797 L 16.769531,19 H 12 c -1.661995,0 -3,1.338005 -3,3 v 4 c 0,1.661995 1.338005,3 3,3 h 4.769531 l 5.949219,5.779297 C 23.191232,35.251447 23.999739,34.917958 24,34.25 v -20.5 c -1.9e-5,-0.303292 -0.182707,-0.575284 -0.462891,-0.691406 -0.06822,-0.02852 -0.141286,-0.04921 -0.214843,-0.05664 z m 9.578515,0.09766 c -0.265201,4e-5 -0.519526,0.105423 -0.707031,0.292969 -0.390424,0.390507 -0.390424,1.023556 0,1.414063 2.43824,2.438239 3.806641,5.745167 3.806641,9.193359 0,3.448192 -1.368401,6.75512 -3.806641,9.193359 -0.390424,0.390507 -0.390424,1.023556 0,1.414063 0.390507,0.390424 1.023555,0.390424 1.414063,0 C 36.42058,31.794654 38.000391,27.977855 38.000391,24 c 0,-3.977855 -1.579811,-7.794654 -4.392578,-10.607422 -0.187506,-0.187546 -0.44183,-0.292929 -0.707032,-0.292969 z m -4.24414,4.244141 c -0.265202,4e-5 -0.519526,0.105423 -0.707032,0.292969 -0.390423,0.390507 -0.390423,1.023555 0,1.414062 1.313024,1.313024 2.050782,3.092323 2.050782,4.949219 0,1.856896 -0.737758,3.636195 -2.050782,4.949219 -0.390423,0.390507 -0.390423,1.023555 0,1.414062 0.390507,0.390423 1.023556,0.390423 1.414063,0 C 31.051225,28.675729 32.000391,26.38656 32.000391,24 c 0,-2.38656 -0.949166,-4.675729 -2.636719,-6.363281 -0.187506,-0.187546 -0.44183,-0.292929 -0.707031,-0.292969 z"
     sodipodi:nodetypes="cccsssscccccccscscccscccscscccscc" />
</svg>
