<?xml version="1.0" encoding="UTF-8" standalone="no"?>
<!-- Created with Inkscape (http://www.inkscape.org/) -->

<svg
   width="48"
   height="48"
   viewBox="0 0 48 48"
   version="1.1"
   id="svg371"
   xml:space="preserve"
   inkscape:version="1.2.2 (1:1.2.2+202212051552+b0a8486541)"
   sodipodi:docname="preferences-kde-connect.svg"
   xmlns:inkscape="http://www.inkscape.org/namespaces/inkscape"
   xmlns:sodipodi="http://sodipodi.sourceforge.net/DTD/sodipodi-0.dtd"
   xmlns="http://www.w3.org/2000/svg"
   xmlns:svg="http://www.w3.org/2000/svg"><sodipodi:namedview
     id="namedview373"
     pagecolor="#ffffff"
     bordercolor="#000000"
     borderopacity="0.25"
     inkscape:showpageshadow="2"
     inkscape:pageopacity="0.0"
     inkscape:pagecheckerboard="0"
     inkscape:deskcolor="#d1d1d1"
     inkscape:document-units="px"
     showgrid="false"
     inkscape:zoom="17.1875"
     inkscape:cx="22.283636"
     inkscape:cy="24"
     inkscape:window-width="1920"
     inkscape:window-height="1012"
     inkscape:window-x="0"
     inkscape:window-y="0"
     inkscape:window-maximized="1"
     inkscape:current-layer="svg371"
     showguides="true" /><defs
     id="defs368" /><path
     d="M 2,24 C 2,7.5 7.5,2 24,2 40.5,2 46,7.5 46,24 46,40.5 40.5,46 24,46 7.5,46 2,40.5 2,24"
     style="fill:#6ec1f0;fill-opacity:1;stroke-width:0.22"
     id="path311" /><rect
     style="fill:#ffffff;stroke-width:4.5;stroke-linecap:round;stroke-linejoin:round"
     id="rect1034"
     width="18"
     height="30"
     x="15"
     y="9"
     ry="3" /><rect
     style="fill:#108cd4;fill-opacity:1;stroke-width:4.24264;stroke-linecap:round;stroke-linejoin:round"
     id="rect1036"
     width="8"
     height="3"
     x="20"
     y="33"
     ry="1.5" /><path
     d="m 21,15 c -0.554,0 -1,0.446 -1,1 0,0.554 0.446,1 1,1 0.554,0 1,-0.446 1,-1 0,-0.554 -0.446,-1 -1,-1 z m 5,0 -2,2 3,3 -3,3 2,2 3,-3 2,-2 -2,-2 z m -7.5,5 C 17.669006,20 17,20.668994 17,21.5 17,22.330994 17.669006,23 18.5,23 19.331006,23 20,22.330994 20,21.5 20,20.668994 19.331006,20 18.5,20 Z m 3.5,5 c -1.108,0 -2,0.892 -2,2 0,1.108 0.892,2 2,2 1.108,0 2,-0.892 2,-2 0,-1.108 -0.892,-2 -2,-2 z"
     style="opacity:0.8;fill:#4ab2ec;fill-opacity:1"
     id="path360"
     sodipodi:nodetypes="ssssscccccccccssssssssss" /></svg>
