<?xml version="1.0" encoding="UTF-8" standalone="no"?>
<!-- Created with Inkscape (http://www.inkscape.org/) -->

<svg
   width="48"
   height="48"
   viewBox="0 0 48 48"
   version="1.1"
   id="svg371"
   xml:space="preserve"
   inkscape:version="1.2.2 (1:1.2.2+202305151914+b0a8486541)"
   sodipodi:docname="application-x-iso9660-appimage.svg"
   xmlns:inkscape="http://www.inkscape.org/namespaces/inkscape"
   xmlns:sodipodi="http://sodipodi.sourceforge.net/DTD/sodipodi-0.dtd"
   xmlns:xlink="http://www.w3.org/1999/xlink"
   xmlns="http://www.w3.org/2000/svg"
   xmlns:svg="http://www.w3.org/2000/svg"><sodipodi:namedview
     id="namedview373"
     pagecolor="#ffffff"
     bordercolor="#000000"
     borderopacity="0.25"
     inkscape:showpageshadow="2"
     inkscape:pageopacity="0.0"
     inkscape:pagecheckerboard="0"
     inkscape:deskcolor="#d1d1d1"
     inkscape:document-units="px"
     showgrid="false"
     inkscape:zoom="16.791667"
     inkscape:cx="23.970223"
     inkscape:cy="24"
     inkscape:window-width="1920"
     inkscape:window-height="1008"
     inkscape:window-x="0"
     inkscape:window-y="0"
     inkscape:window-maximized="1"
     inkscape:current-layer="svg371"
     showguides="true" /><defs
     id="defs368"><linearGradient
       inkscape:collect="always"
       xlink:href="#linearGradient3519"
       id="linearGradient3040"
       x1="32"
       y1="62"
       x2="32"
       y2="2"
       gradientUnits="userSpaceOnUse"
       gradientTransform="matrix(0.73333333,0,0,0.73333333,0.53333333,0.53333333)" /><linearGradient
       inkscape:collect="always"
       id="linearGradient3519"><stop
         style="stop-color:#e4e4e4;stop-opacity:1;"
         offset="0"
         id="stop3515" /><stop
         style="stop-color:#f1f1f1;stop-opacity:1;"
         offset="1"
         id="stop3517" /></linearGradient><linearGradient
       inkscape:collect="always"
       id="linearGradient3251"><stop
         style="stop-color:#1365de;stop-opacity:1;"
         offset="0"
         id="stop3247" /><stop
         style="stop-color:#1e87e9;stop-opacity:1;"
         offset="1"
         id="stop3249" /></linearGradient><linearGradient
       inkscape:collect="always"
       xlink:href="#linearGradient3251"
       id="linearGradient1452"
       x1="24"
       y1="46"
       x2="24"
       y2="2"
       gradientUnits="userSpaceOnUse" /></defs><path
     d="M 2,24 C 2,7.5 7.5,2 24,2 40.5,2 46,7.5 46,24 46,40.5 40.5,46 24,46 7.5,46 2,40.5 2,24"
     style="fill:url(#linearGradient3040);fill-opacity:1.0;stroke-width:0.22"
     id="path311"
     sodipodi:nodetypes="csssc" /><path
     id="path1179"
     style="fill:url(#linearGradient1452);fill-opacity:1;stroke-width:3.5;stroke-linecap:round;stroke-linejoin:round"
     d="m 22.25,10 c -0.969496,0 -1.546862,0.802022 -1.75,1.75 L 19.53125,16.261718 15.140624,14.84375 C 14.2409,14.48261 13.234748,14.64477 12.75,15.484374 L 11,18.515624 c -0.484748,0.83961 -0.07878,1.740716 0.640624,2.390626 L 15.066405,24 l -3.42578,3.09375 c -0.719402,0.649912 -1.125373,1.551016 -0.640624,2.390626 L 12.75,32.515624 c 0.484748,0.839612 1.490902,1.001766 2.390624,0.640626 L 19.53125,31.738282 20.5,36.25 c 0.13712,0.959752 0.780504,1.75 1.75,1.75 h 3.5 c 0.9695,0 1.546861,-0.802024 1.75,-1.75 l 0.96875,-4.511718 4.390626,1.417968 c 0.89972,0.36114 1.905876,0.199 2.390624,-0.640626 L 37,29.484376 c 0.48475,-0.83961 0.0788,-1.740714 -0.640624,-2.390626 L 32.933594,24 36.359376,20.90625 C 37.07878,20.25634 37.484751,19.355234 37,18.515624 l -1.75,-3.03125 C 34.765252,14.644766 33.759098,14.48261 32.859376,14.84375 L 28.46875,16.261718 27.5,11.75 C 27.36288,10.790246 26.7195,10 25.75,10 Z"
     sodipodi:nodetypes="scccccccccccccsscccccccccccccss" /><path
     id="rect1147"
     style="fill:#d4e2fc;stroke-width:2.20844;stroke-linecap:round;fill-opacity:1"
     d="m 24,17 c 1.108,0 2,0.892 2,2 v 6 h 4 l -6,6 -6,-6 h 4 v -6 c 0,-1.108 0.892,-2 2,-2 z"
     sodipodi:nodetypes="sscccccss" /></svg>
