<?xml version="1.0" encoding="UTF-8" standalone="no"?>
<!-- Created with Inkscape (http://www.inkscape.org/) -->

<svg
   width="48"
   height="48"
   viewBox="0 0 48 48"
   version="1.1"
   id="svg371"
   xml:space="preserve"
   inkscape:version="1.2.2 (1:1.2.2+202305151914+b0a8486541)"
   sodipodi:docname="application-x-theme.svg"
   xmlns:inkscape="http://www.inkscape.org/namespaces/inkscape"
   xmlns:sodipodi="http://sodipodi.sourceforge.net/DTD/sodipodi-0.dtd"
   xmlns:xlink="http://www.w3.org/1999/xlink"
   xmlns="http://www.w3.org/2000/svg"
   xmlns:svg="http://www.w3.org/2000/svg"><sodipodi:namedview
     id="namedview373"
     pagecolor="#ffffff"
     bordercolor="#000000"
     borderopacity="0.25"
     inkscape:showpageshadow="2"
     inkscape:pageopacity="0.0"
     inkscape:pagecheckerboard="0"
     inkscape:deskcolor="#d1d1d1"
     inkscape:document-units="px"
     showgrid="false"
     inkscape:zoom="16.791667"
     inkscape:cx="24"
     inkscape:cy="24"
     inkscape:window-width="1920"
     inkscape:window-height="1008"
     inkscape:window-x="0"
     inkscape:window-y="0"
     inkscape:window-maximized="1"
     inkscape:current-layer="svg371"
     showguides="true" /><defs
     id="defs368"><linearGradient
       inkscape:collect="always"
       id="linearGradient1349"><stop
         style="stop-color:#ef3b00;stop-opacity:1;"
         offset="0"
         id="stop1345" /><stop
         style="stop-color:#fe2794;stop-opacity:1;"
         offset="1"
         id="stop1347" /></linearGradient><linearGradient
       inkscape:collect="always"
       xlink:href="#linearGradient1349"
       id="linearGradient11432"
       x1="46"
       y1="46"
       x2="13.513922"
       y2="6.6501679"
       gradientUnits="userSpaceOnUse" /><linearGradient
       inkscape:collect="always"
       xlink:href="#linearGradient3519"
       id="linearGradient3040"
       x1="32"
       y1="62"
       x2="32"
       y2="2"
       gradientUnits="userSpaceOnUse"
       gradientTransform="matrix(0.73333333,0,0,0.73333333,0.5333333,0.533333)" /><linearGradient
       inkscape:collect="always"
       id="linearGradient3519"><stop
         style="stop-color:#e4e4e4;stop-opacity:1;"
         offset="0"
         id="stop3515" /><stop
         style="stop-color:#f1f1f1;stop-opacity:1;"
         offset="1"
         id="stop3517" /></linearGradient></defs><path
     d="M 2,24 C 2,7.5 7.5,2 24,2 40.5,2 46,7.5 46,24 46,40.5 40.5,46 24,46 7.5,46 2,40.5 2,24"
     style="fill:url(#linearGradient3040);fill-opacity:1;stroke-width:0.22"
     id="path311" /><path
     d="m 11,11.999964 v 8.000072 H 37 V 12.999748 C 35.507534,12.471499 34.642391,11.98961 31.499997,11.999964 26.450616,11.993864 22.996356,13.941196 19,13.999748 c -2.61242,-0.0036 -5.83355,-0.1621 -8,-1.999784 z m 0,10.000072 v 6.000253 c -0.0039,1.509802 3.814422,2.446771 7,2.999999 2.335771,0.43528 3.989164,0.801928 4,3 0.0033,0.675601 -0.992868,2.090955 -1.000001,3 0,1.656849 1.34315,2.999999 2.999999,2.999999 1.65685,0 3,-1.34315 3,-2.999999 -0.0071,-0.909045 -0.993019,-2.292777 -0.999998,-3 -0.03125,-2.197876 1.664226,-2.564719 3.999997,-3 C 33.185575,30.447061 37.0039,29.510091 37,28.000289 v -6.000253 z"
     style="fill:url(#linearGradient11432);stroke-width:0.75;fill-opacity:1"
     id="path598"
     sodipodi:nodetypes="ccccccccccscscccccc" /></svg>
