<?xml version="1.0" encoding="UTF-8" standalone="no"?>
<!-- Created with Inkscape (http://www.inkscape.org/) -->

<svg
   width="48"
   height="48"
   viewBox="0 0 48 48"
   version="1.1"
   id="svg371"
   xml:space="preserve"
   inkscape:version="1.2.2 (1:1.2.2+202305151914+b0a8486541)"
   sodipodi:docname="application-x-deb.svg"
   xmlns:inkscape="http://www.inkscape.org/namespaces/inkscape"
   xmlns:sodipodi="http://sodipodi.sourceforge.net/DTD/sodipodi-0.dtd"
   xmlns:xlink="http://www.w3.org/1999/xlink"
   xmlns="http://www.w3.org/2000/svg"
   xmlns:svg="http://www.w3.org/2000/svg"><sodipodi:namedview
     id="namedview373"
     pagecolor="#ffffff"
     bordercolor="#000000"
     borderopacity="0.25"
     inkscape:showpageshadow="2"
     inkscape:pageopacity="0.0"
     inkscape:pagecheckerboard="0"
     inkscape:deskcolor="#d1d1d1"
     inkscape:document-units="px"
     showgrid="false"
     inkscape:zoom="16.791667"
     inkscape:cx="24"
     inkscape:cy="24"
     inkscape:window-width="1920"
     inkscape:window-height="1008"
     inkscape:window-x="0"
     inkscape:window-y="0"
     inkscape:window-maximized="1"
     inkscape:current-layer="svg371"
     showguides="false" /><defs
     id="defs368"><linearGradient
       inkscape:collect="always"
       id="linearGradient919"><stop
         style="stop-color:#e5578f;stop-opacity:1;"
         offset="0"
         id="stop915" /><stop
         style="stop-color:#f181b0;stop-opacity:1;"
         offset="1"
         id="stop917" /></linearGradient><linearGradient
       inkscape:collect="always"
       xlink:href="#linearGradient919"
       id="linearGradient3040"
       x1="32"
       y1="62"
       x2="32"
       y2="2"
       gradientUnits="userSpaceOnUse"
       gradientTransform="matrix(0.73333335,0,0,0.73333335,0.5333333,0.5333333)" /></defs><path
     d="M 2,24 C 2,7.5 7.5,2 24,2 40.5,2 46,7.5 46,24 46,40.5 40.5,46 24,46 7.5,46 2,40.5 2,24"
     style="fill:url(#linearGradient3040);fill-opacity:1;stroke-width:0.22"
     id="path311" /><path
     id="path1235"
     style="fill:#ffffff;stroke-width:1.59348;stroke-linecap:round;stroke-linejoin:round"
     d="m 8.093,17 v 13 h 3.751855 c 1.939117,0 3.424269,-0.544688 4.453674,-1.633948 1.029412,-1.101225 1.543694,-2.723446 1.543694,-4.866051 0,-2.142605 -0.509136,-3.758122 -1.526574,-4.847379 C 15.298211,17.551395 13.826468,17 11.89932,17 Z m 12.407111,0 v 13 h 8.007901 v -1.598156 h -6.230787 v -4.237371 h 4.470792 v -1.61683 h -4.470792 v -3.949485 h 5.997367 V 17 Z m 10.342115,0 v 13 h 0.950803 4.111324 c 1.280773,0 2.275344,-0.329806 2.981565,-0.988149 0.718192,-0.65834 1.076849,-1.580243 1.076849,-2.765262 0,-1.639869 -0.808536,-2.675142 -2.424467,-3.106057 1.125167,-0.383034 1.688415,-1.227125 1.688415,-2.53184 0,-1.137137 -0.346808,-2.021931 -1.041062,-2.656334 C 37.491402,17.317957 36.522091,17 35.277226,17 h -2.657889 z m 1.777111,1.58104 h 2.567632 c 0.730164,0 1.280001,0.172624 1.651066,0.519751 0.371069,0.347125 0.5571,0.85626 0.5571,1.526575 0,0.634403 -0.17933,1.118278 -0.538426,1.453436 -0.359095,0.323185 -0.885232,0.485514 -1.579483,0.485514 H 32.619337 Z M 9.870114,18.59816 h 1.957624 c 1.376535,0 2.411806,0.412766 3.106058,1.238689 0.706221,0.813949 1.059733,2.035252 1.059733,3.663157 0,1.61593 -0.346807,2.837234 -1.041058,3.663155 -0.694253,0.825914 -1.724375,1.238681 -3.088942,1.238681 H 9.870113 Z m 22.749223,5.51185 h 3.285016 c 1.472292,0 2.209717,0.718872 2.209718,2.155256 0,0.706223 -0.180883,1.24421 -0.539979,1.615273 -0.359098,0.359099 -0.885232,0.538425 -1.579484,0.538425 h -3.375271 z" /></svg>
