<?xml version="1.0" encoding="UTF-8" standalone="no"?>
<!-- Created with Inkscape (http://www.inkscape.org/) -->

<svg
   width="48"
   height="48"
   viewBox="0 0 48 48"
   version="1.1"
   id="svg371"
   xml:space="preserve"
   inkscape:version="1.2.2 (1:1.2.2+202305151914+b0a8486541)"
   sodipodi:docname="text-x-generic.svg"
   xmlns:inkscape="http://www.inkscape.org/namespaces/inkscape"
   xmlns:sodipodi="http://sodipodi.sourceforge.net/DTD/sodipodi-0.dtd"
   xmlns:xlink="http://www.w3.org/1999/xlink"
   xmlns="http://www.w3.org/2000/svg"
   xmlns:svg="http://www.w3.org/2000/svg"><sodipodi:namedview
     id="namedview373"
     pagecolor="#ffffff"
     bordercolor="#000000"
     borderopacity="0.25"
     inkscape:showpageshadow="2"
     inkscape:pageopacity="0.0"
     inkscape:pagecheckerboard="0"
     inkscape:deskcolor="#d1d1d1"
     inkscape:document-units="px"
     showgrid="false"
     inkscape:zoom="17.291667"
     inkscape:cx="24"
     inkscape:cy="24"
     inkscape:window-width="1920"
     inkscape:window-height="1008"
     inkscape:window-x="0"
     inkscape:window-y="0"
     inkscape:window-maximized="1"
     inkscape:current-layer="svg371"
     showguides="true" /><defs
     id="defs368"><linearGradient
       inkscape:collect="always"
       xlink:href="#linearGradient3519"
       id="linearGradient3040"
       x1="32"
       y1="62"
       x2="32"
       y2="2"
       gradientUnits="userSpaceOnUse"
       gradientTransform="matrix(0.73333335,0,0,0.73333335,0.5333333,0.5333333)" /><linearGradient
       inkscape:collect="always"
       id="linearGradient3519"><stop
         style="stop-color:#e4e4e4;stop-opacity:1;"
         offset="0"
         id="stop3515" /><stop
         style="stop-color:#f1f1f1;stop-opacity:1;"
         offset="1"
         id="stop3517" /></linearGradient></defs><path
     d="M 2,24 C 2,7.5 7.5,2 24,2 40.5,2 46,7.5 46,24 46,40.5 40.5,46 24,46 7.5,46 2,40.5 2,24"
     style="fill:url(#linearGradient3040);fill-opacity:1;stroke-width:0.22"
     id="path311" /><path
     id="rect509"
     style="fill:#808080;stroke-width:0.5;stroke-linecap:round;stroke-linejoin:round"
     d="m 11,12 c -0.553999,0 -1,0.446001 -1,1 0,0.554 0.446001,1 1,1 h 26 c 0.553999,0 1,-0.446 1,-1 0,-0.553999 -0.446001,-1 -1,-1 z m 0,7 c -0.553999,0 -1,0.446001 -1,1 0,0.554 0.446001,1 1,1 h 26 c 0.553999,0 1,-0.446 1,-1 0,-0.553999 -0.446001,-1 -1,-1 z m 0,7 c -0.553999,0 -1,0.446 -1,1 0,0.553999 0.446001,1 1,1 h 26 c 0.553999,0 1,-0.446001 1,-1 0,-0.554 -0.446001,-1 -1,-1 z m 0,7 c -0.553999,0 -1,0.446 -1,1 0,0.553999 0.446001,1 1,1 h 13 c 0.553999,0 1,-0.446001 1,-1 0,-0.554 -0.446001,-1 -1,-1 z"
     sodipodi:nodetypes="ssssssssssssssssssssssssssss" /></svg>
