<?xml version="1.0" encoding="UTF-8" standalone="no"?>
<!-- Created with Inkscape (http://www.inkscape.org/) -->

<svg
   width="64"
   height="64"
   viewBox="0 0 64 64.000002"
   version="1.1"
   id="svg5"
   inkscape:version="1.2.2 (1:1.2.2+202305151914+b0a8486541)"
   sodipodi:docname="weather-few-clouds-night.svg"
   xmlns:inkscape="http://www.inkscape.org/namespaces/inkscape"
   xmlns:sodipodi="http://sodipodi.sourceforge.net/DTD/sodipodi-0.dtd"
   xmlns="http://www.w3.org/2000/svg"
   xmlns:svg="http://www.w3.org/2000/svg">
  <sodipodi:namedview
     id="namedview7"
     pagecolor="#ffffff"
     bordercolor="#000000"
     borderopacity="0.25"
     inkscape:showpageshadow="2"
     inkscape:pageopacity="0.0"
     inkscape:pagecheckerboard="0"
     inkscape:deskcolor="#d1d1d1"
     inkscape:document-units="px"
     showgrid="false"
     inkscape:zoom="12.59375"
     inkscape:cx="32"
     inkscape:cy="32"
     inkscape:window-width="1920"
     inkscape:window-height="1008"
     inkscape:window-x="0"
     inkscape:window-y="0"
     inkscape:window-maximized="1"
     inkscape:current-layer="svg5" />
  <defs
     id="defs2" />
  <path
     id="path286"
     style="fill:#fdbb1c;fill-opacity:1;stroke-width:3.6923;stroke-linecap:round;stroke-linejoin:round"
     d="M 29.042968,7.0429688 A 24,24 0 0 0 12,30 24,24 0 0 0 36,54 24,24 0 0 0 58.957032,36.957032 24,24 0 0 1 52,38 24,24 0 0 1 28,14 24,24 0 0 1 29.042968,7.0429688 Z" />
  <path
     id="rect340"
     style="fill:#dedede;stroke-width:2.66666;stroke-linecap:round;stroke-linejoin:round"
     d="M 19.333335,44 H 30 c 4.432,0 7.999999,3.568 7.999999,8 0,4.431999 -3.567999,7.999999 -7.999999,7.999999 H 16.000001 c 0,0 -4.666666,-3.568 -4.666666,-7.999999 0,-4.432 3.568,-8 8,-8 z"
     sodipodi:nodetypes="sssscss" />
  <circle
     style="fill:#f8f8f8;fill-opacity:1;stroke-width:4;stroke-linecap:round;stroke-linejoin:round"
     id="path340"
     cx="16"
     cy="48"
     r="11.999999" />
</svg>
