<?xml version="1.0" encoding="UTF-8" standalone="no"?>
<!-- Created with Inkscape (http://www.inkscape.org/) -->

<svg
   width="64"
   height="64"
   viewBox="0 0 64 64"
   version="1.1"
   id="svg371"
   xml:space="preserve"
   inkscape:version="1.2.1 (1:1.2.1+202210291243+9c6d41e410)"
   sodipodi:docname="accessories-calculator.svg"
   xmlns:inkscape="http://www.inkscape.org/namespaces/inkscape"
   xmlns:sodipodi="http://sodipodi.sourceforge.net/DTD/sodipodi-0.dtd"
   xmlns:xlink="http://www.w3.org/1999/xlink"
   xmlns="http://www.w3.org/2000/svg"
   xmlns:svg="http://www.w3.org/2000/svg"><sodipodi:namedview
     id="namedview373"
     pagecolor="#ffffff"
     bordercolor="#000000"
     borderopacity="0.25"
     inkscape:showpageshadow="2"
     inkscape:pageopacity="0.0"
     inkscape:pagecheckerboard="0"
     inkscape:deskcolor="#d1d1d1"
     inkscape:document-units="px"
     showgrid="false"
     inkscape:zoom="12.890625"
     inkscape:cx="31.961212"
     inkscape:cy="32"
     inkscape:window-width="1920"
     inkscape:window-height="1018"
     inkscape:window-x="0"
     inkscape:window-y="28"
     inkscape:window-maximized="1"
     inkscape:current-layer="svg371"
     showguides="true" /><defs
     id="defs368"><linearGradient
       inkscape:collect="always"
       id="linearGradient1285"><stop
         style="stop-color:#2e781e;stop-opacity:1;"
         offset="0"
         id="stop1281" /><stop
         style="stop-color:#83ba52;stop-opacity:1;"
         offset="1"
         id="stop1283" /></linearGradient><linearGradient
       inkscape:collect="always"
       xlink:href="#linearGradient1285"
       id="linearGradient3040"
       x1="32"
       y1="62"
       x2="32"
       y2="2"
       gradientUnits="userSpaceOnUse" /></defs><path
     d="M 2,32 C 2,9.5 9.5,2 32,2 54.5,2 62,9.5 62,32 62,54.5 54.5,62 32,62 9.5,62 2,54.5 2,32"
     style="fill:url(#linearGradient3040);fill-opacity:1;stroke-width:0.3"
     id="path311" /><path
     id="rect844"
     style="fill:#ffffff;stroke-width:7.15542;stroke-linecap:round;stroke-linejoin:round"
     d="m 21,13 c -1.107998,0 -2,0.892001 -2,2 v 4 h -4 c -1.107999,0 -2,0.892002 -2,2 0,1.107998 0.892001,2 2,2 h 4 v 4 c 0,1.107998 0.892002,2 2,2 1.107998,0 2,-0.892002 2,-2 v -4 h 4 c 1.107998,0 2,-0.892002 2,-2 0,-1.107998 -0.892002,-2 -2,-2 h -4 v -4 c 0,-1.107999 -0.892002,-2 -2,-2 z" /><path
     id="rect844-7"
     style="fill:#ffffff;stroke-width:7.15542;stroke-linecap:round;stroke-linejoin:round"
     d="m 14.343787,36.343788 c -0.783473,0.783472 -0.783474,2.04495 0,2.828426 L 18.171572,43 14.343786,46.827786 c -0.783473,0.783474 -0.783473,2.044954 0,2.828426 0.783473,0.783474 2.044954,0.783476 2.828428,0 L 21,45.828428 l 3.827788,3.827784 c 0.783472,0.783474 2.044954,0.783474 2.828426,0 0.783474,-0.783472 0.783472,-2.044952 0,-2.828426 L 23.828428,43 27.656214,39.172214 c 0.783472,-0.783474 0.783474,-2.044954 0,-2.828426 -0.783472,-0.783474 -2.044954,-0.783474 -2.828426,0 L 21,40.171572 17.172214,36.343788 c -0.783475,-0.783474 -2.044954,-0.783474 -2.828427,0 z"
     sodipodi:nodetypes="sscssscssscssscss" /><rect
     style="fill:#ffffff;stroke-width:8;stroke-linecap:round;stroke-linejoin:round"
     id="rect1008"
     width="16"
     height="4"
     x="35"
     y="19"
     ry="2" /><path
     id="rect1010"
     style="fill:#ffffff;stroke-width:8;stroke-linecap:round;stroke-linejoin:round"
     d="m 43,35 a 2,2 0 0 0 -2,2 2,2 0 0 0 2,2 2,2 0 0 0 2,-2 2,2 0 0 0 -2,-2 z m -6,6 c -1.107998,0 -2,0.892002 -2,2 0,1.107998 0.892002,2 2,2 h 12 c 1.107998,0 2,-0.892002 2,-2 0,-1.107998 -0.892002,-2 -2,-2 z m 6,6 a 2,2 0 0 0 -2,2 2,2 0 0 0 2,2 2,2 0 0 0 2,-2 2,2 0 0 0 -2,-2 z" /></svg>
