<?xml version="1.0" encoding="UTF-8" standalone="no"?>
<!-- Created with Inkscape (http://www.inkscape.org/) -->

<svg
   width="64"
   height="64"
   viewBox="0 0 64 64"
   version="1.1"
   id="svg371"
   xml:space="preserve"
   inkscape:version="1.2.2 (1:1.2.2+202212051552+b0a8486541)"
   sodipodi:docname="accessories-notes.svg"
   xmlns:inkscape="http://www.inkscape.org/namespaces/inkscape"
   xmlns:sodipodi="http://sodipodi.sourceforge.net/DTD/sodipodi-0.dtd"
   xmlns:xlink="http://www.w3.org/1999/xlink"
   xmlns="http://www.w3.org/2000/svg"
   xmlns:svg="http://www.w3.org/2000/svg"><sodipodi:namedview
     id="namedview373"
     pagecolor="#ffffff"
     bordercolor="#000000"
     borderopacity="0.25"
     inkscape:showpageshadow="2"
     inkscape:pageopacity="0.0"
     inkscape:pagecheckerboard="0"
     inkscape:deskcolor="#d1d1d1"
     inkscape:document-units="px"
     showgrid="false"
     inkscape:zoom="12.65625"
     inkscape:cx="32"
     inkscape:cy="32"
     inkscape:window-width="1920"
     inkscape:window-height="1012"
     inkscape:window-x="0"
     inkscape:window-y="0"
     inkscape:window-maximized="1"
     inkscape:current-layer="svg371"
     showguides="true" /><defs
     id="defs368"><linearGradient
       inkscape:collect="always"
       xlink:href="#linearGradient2604"
       id="linearGradient3040"
       x1="32"
       y1="62"
       x2="32"
       y2="2"
       gradientUnits="userSpaceOnUse" /><linearGradient
       inkscape:collect="always"
       id="linearGradient2604"><stop
         style="stop-color:#ff3512;stop-opacity:1;"
         offset="0"
         id="stop2600" /><stop
         style="stop-color:#ff6723;stop-opacity:1"
         offset="1"
         id="stop2602" /></linearGradient></defs><path
     d="M 2,32 C 2,9.5 9.5,2 32,2 54.5,2 62,9.5 62,32 62,54.5 54.5,62 32,62 9.5,62 2,54.5 2,32"
     style="fill:url(#linearGradient3040);fill-opacity:1.0;stroke-width:0.3"
     id="path311" /><path
     id="rect900"
     style="fill:#ffffff;stroke-width:5.4;stroke-linecap:round;stroke-linejoin:round"
     d="m 20,14 c -2.626547,0 -4.841408,1.674501 -5.658203,4.015625 C 16.410471,18.19304 17.999483,19.923732 18,22 c 0,2.209139 -1.790861,4 -4,4 v 2 c 2.209139,0 4,1.790861 4,4 0,2.209139 -1.790861,4 -4,4 v 2 c 2.209139,0 4,1.790861 4,4 -0.01198,2.070767 -1.602442,3.790022 -3.666016,3.962891 C 15.144615,48.315335 17.365379,50 20,50 H 34 L 40,40 50,34 V 20 c 0,-3.323997 -2.676003,-6 -6,-6 z"
     sodipodi:nodetypes="sccccsccccscccsss" /><path
     id="rect481"
     style="fill:#e1301f;stroke-width:1.16667;fill-opacity:1"
     d="M 40,34 H 50 L 34,50 V 40 c 0,-3.324 2.676,-6 6,-6 z"
     sodipodi:nodetypes="sccss" /></svg>
