<?xml version="1.0" encoding="UTF-8" standalone="no"?>
<!-- Created with Inkscape (http://www.inkscape.org/) -->

<svg
   width="64"
   height="64"
   viewBox="0 0 64 64"
   version="1.1"
   id="svg371"
   xml:space="preserve"
   inkscape:version="1.2.2 (1:1.2.2+202305151914+b0a8486541)"
   sodipodi:docname="akregator.svg"
   xmlns:inkscape="http://www.inkscape.org/namespaces/inkscape"
   xmlns:sodipodi="http://sodipodi.sourceforge.net/DTD/sodipodi-0.dtd"
   xmlns:xlink="http://www.w3.org/1999/xlink"
   xmlns="http://www.w3.org/2000/svg"
   xmlns:svg="http://www.w3.org/2000/svg"><sodipodi:namedview
     id="namedview373"
     pagecolor="#ffffff"
     bordercolor="#000000"
     borderopacity="0.25"
     inkscape:showpageshadow="2"
     inkscape:pageopacity="0.0"
     inkscape:pagecheckerboard="0"
     inkscape:deskcolor="#d1d1d1"
     inkscape:document-units="px"
     showgrid="false"
     inkscape:zoom="12.59375"
     inkscape:cx="31.960298"
     inkscape:cy="32"
     inkscape:window-width="1920"
     inkscape:window-height="1008"
     inkscape:window-x="0"
     inkscape:window-y="0"
     inkscape:window-maximized="1"
     inkscape:current-layer="svg371"
     showguides="true" /><defs
     id="defs368"><linearGradient
       inkscape:collect="always"
       id="linearGradient997"><stop
         style="stop-color:#fe7008;stop-opacity:1;"
         offset="0"
         id="stop993" /><stop
         style="stop-color:#ff940a;stop-opacity:1;"
         offset="1"
         id="stop995" /></linearGradient><linearGradient
       inkscape:collect="always"
       xlink:href="#linearGradient997"
       id="linearGradient3040"
       x1="32"
       y1="62"
       x2="32"
       y2="2"
       gradientUnits="userSpaceOnUse" /></defs><path
     d="M 2,32 C 2,9.5 9.5,2 32,2 54.5,2 62,9.5 62,32 62,54.5 54.5,62 32,62 9.5,62 2,54.5 2,32"
     style="fill:url(#linearGradient3040);fill-opacity:1;stroke-width:0.3"
     id="path311" /><rect
     style="fill:#ffffff;stroke-width:4;stroke-linecap:round"
     id="rect1051"
     width="36"
     height="36"
     x="14"
     y="14"
     ry="6" /><path
     id="path1232"
     style="fill:#da5b02;fill-opacity:1;stroke-width:0.818182;stroke-linecap:round"
     d="m 21,19 a 2,2 0 0 0 -2,2 2,2 0 0 0 2,2 c 11.069362,0 20,8.930638 20,20 a 2,2 0 0 0 2,2 2,2 0 0 0 2,-2 C 45,29.768882 34.231118,19 21,19 Z m 0,10 a 2,2 0 0 0 -2,2 2,2 0 0 0 2,2 c 5.546526,0 10,4.453474 10,10 a 2,2 0 0 0 2,2 2,2 0 0 0 2,-2 C 35,35.291718 28.708282,29 21,29 Z m 1,10 a 3,3 0 0 0 -3,3 3,3 0 0 0 3,3 3,3 0 0 0 3,-3 3,3 0 0 0 -3,-3 z" /></svg>
