<?xml version="1.0" encoding="UTF-8" standalone="no"?>
<!-- Created with Inkscape (http://www.inkscape.org/) -->

<svg
   width="64"
   height="64"
   viewBox="0 0 64 64"
   version="1.1"
   id="svg371"
   xml:space="preserve"
   inkscape:version="1.2.2 (1:1.2.2+202212051552+b0a8486541)"
   sodipodi:docname="applets-screenshooter.svg"
   xmlns:inkscape="http://www.inkscape.org/namespaces/inkscape"
   xmlns:sodipodi="http://sodipodi.sourceforge.net/DTD/sodipodi-0.dtd"
   xmlns:xlink="http://www.w3.org/1999/xlink"
   xmlns="http://www.w3.org/2000/svg"
   xmlns:svg="http://www.w3.org/2000/svg"><sodipodi:namedview
     id="namedview373"
     pagecolor="#ffffff"
     bordercolor="#000000"
     borderopacity="0.25"
     inkscape:showpageshadow="2"
     inkscape:pageopacity="0.0"
     inkscape:pagecheckerboard="0"
     inkscape:deskcolor="#d1d1d1"
     inkscape:document-units="px"
     showgrid="false"
     inkscape:zoom="12.65625"
     inkscape:cx="32"
     inkscape:cy="32"
     inkscape:window-width="1920"
     inkscape:window-height="1012"
     inkscape:window-x="0"
     inkscape:window-y="0"
     inkscape:window-maximized="1"
     inkscape:current-layer="svg371"
     showguides="false" /><defs
     id="defs368"><linearGradient
       inkscape:collect="always"
       id="linearGradient966"><stop
         style="stop-color:#2e36bc;stop-opacity:1;"
         offset="0"
         id="stop962" /><stop
         style="stop-color:#4960d1;stop-opacity:1;"
         offset="1"
         id="stop964" /></linearGradient><linearGradient
       inkscape:collect="always"
       xlink:href="#linearGradient966"
       id="linearGradient3040"
       x1="32"
       y1="62"
       x2="32"
       y2="2"
       gradientUnits="userSpaceOnUse" /></defs><path
     d="M 2,32 C 2,9.5 9.5,2 32,2 54.5,2 62,9.5 62,32 62,54.5 54.5,62 32,62 9.5,62 2,54.5 2,32"
     style="fill:url(#linearGradient3040);fill-opacity:1;stroke-width:0.3"
     id="path311" /><path
     d="m 16,12.000001 c -2.21599,0 -4,1.78401 -4,4 v 3 C 12,19.552283 12.447716,20 13,20 c 0.552284,0 1,-0.447717 1,-0.999999 4.3e-4,-0.017 4.3e-4,-0.03386 0,-0.05078 v -2.94922 c 0,-1.107994 0.892006,-2 2,-2 h 3 c 0.552284,0 1,-0.447718 1,-1 0,-0.552284 -0.447716,-1 -1,-1 z m 29,0 c -0.552284,1e-6 -1,0.447716 -1,1 0,0.552282 0.447716,1 1,1 h 3 c 1.107992,0 2,0.892006 2,2 v 2.949218 c -4.3e-4,0.017 -4.3e-4,0.03378 0,0.05078 0,0.552282 0.447716,1 1,1 0.552284,0 1,-0.447718 1,-1 v -3 c 0,-2.21599 -1.78401,-4.000001 -4,-4 z M 13,44 c -0.552284,0 -1,0.447716 -1,1 v 3 c 0,2.21599 1.78401,4 4,4 h 3 c 0.552284,0 1,-0.447716 1,-1 0,-0.552284 -0.447716,-1 -1,-1 h -3 c -1.107994,0 -2,-0.892008 -2,-2 v -2.949218 c 4.3e-4,-0.017 4.3e-4,-0.03378 0,-0.05078 0,-0.552284 -0.447716,-1 -1,-1.000002 z m 38,0 c -0.552284,0 -1,0.447716 -1,1 -4.3e-4,0.017 -4.3e-4,0.03378 0,0.05078 V 48 c 0,1.107992 -0.892008,2 -2,2 h -3 c -0.552284,0 -1,0.447716 -1,1 0,0.552284 0.447716,1 1,1 h 3 c 2.21599,0 4,-1.78401 4,-4 v -3 c 0,-0.552284 -0.447716,-1 -1,-1 z"
     style="opacity:0.6;fill:#ffffff;stroke-width:4;stroke-linecap:round;stroke-linejoin:round"
     id="path425"
     sodipodi:nodetypes="ssssccsssssssssssccssssssssssssssccssccsssssssss" /><path
     id="rect1020"
     style="fill:#ffffff;stroke-width:4;stroke-linecap:round;stroke-linejoin:round"
     d="m 29,22 -3,4 h -2 c -2.215994,0 -4,1.784006 -4,4 v 8 c 0,2.215994 1.784006,4 4,4 h 16 c 2.215994,0 4,-1.784006 4,-4 v -8 c 0,-2.215994 -1.784006,-4 -4,-4 h -2 l -3,-4 z m 3,7 c 2.76142,0 5,2.23858 5,5 0,2.761419 -2.23858,5 -5,5 -2.76142,0 -5,-2.238581 -5,-5 0,-2.76142 2.23858,-5 5,-5 z" /></svg>
