<?xml version="1.0" encoding="UTF-8" standalone="no"?>
<!-- Created with Inkscape (http://www.inkscape.org/) -->

<svg
   width="64"
   height="64"
   viewBox="0 0 64 64"
   version="1.1"
   id="svg371"
   xml:space="preserve"
   inkscape:version="1.2.2 (1:1.2.2+202212051552+b0a8486541)"
   sodipodi:docname="applications-all.svg"
   xmlns:inkscape="http://www.inkscape.org/namespaces/inkscape"
   xmlns:sodipodi="http://sodipodi.sourceforge.net/DTD/sodipodi-0.dtd"
   xmlns="http://www.w3.org/2000/svg"
   xmlns:svg="http://www.w3.org/2000/svg"><sodipodi:namedview
     id="namedview373"
     pagecolor="#ffffff"
     bordercolor="#000000"
     borderopacity="0.25"
     inkscape:showpageshadow="2"
     inkscape:pageopacity="0.0"
     inkscape:pagecheckerboard="0"
     inkscape:deskcolor="#d1d1d1"
     inkscape:document-units="px"
     showgrid="false"
     inkscape:zoom="12.65625"
     inkscape:cx="32"
     inkscape:cy="32"
     inkscape:window-width="1920"
     inkscape:window-height="1012"
     inkscape:window-x="0"
     inkscape:window-y="0"
     inkscape:window-maximized="1"
     inkscape:current-layer="svg371"
     showguides="false"
     inkscape:lockguides="true" /><defs
     id="defs368" /><path
     d="M 2,32 C 2,9.5 9.5,2 32,2 54.5,2 62,9.5 62,32 62,54.5 54.5,62 32,62 9.5,62 2,54.5 2,32"
     style="fill:#4aa9ed;fill-opacity:1;stroke-width:0.3"
     id="path311" /><path
     id="path341"
     style="fill:#ffffff;stroke-width:4"
     d="m 21,13 c -4.418269,0 -8,3.581731 -8,8 0,4.41827 3.581731,8 8,8 4.41827,0 8,-3.581728 8,-8 0,-4.418269 -3.58173,-8.000001 -8,-8 z m 22,0 c -4.41827,0 -8,3.581732 -8,8 0,4.41827 3.58173,8 8,8 4.41827,0 8,-3.581728 8,-8 0,-4.418268 -3.58173,-8.000001 -8,-8 z M 21,35 c -4.418269,0 -8,3.581732 -8,8 0,4.41827 3.581731,8 8,8 4.41827,0 8,-3.581728 8,-8 0,-4.418268 -3.58173,-8 -8,-8 z m 22,0 c -4.41827,0 -8,3.581732 -8,8 0,4.41827 3.58173,8 8,8 4.41827,0 8,-3.581728 8,-8 0,-4.418268 -3.58173,-8 -8,-8 z"
     sodipodi:nodetypes="ssssssssssssssssssss" /></svg>
