<?xml version="1.0" encoding="UTF-8" standalone="no"?>
<!-- Created with Inkscape (http://www.inkscape.org/) -->

<svg
   width="64"
   height="64"
   viewBox="0 0 64 64"
   version="1.1"
   id="svg371"
   xml:space="preserve"
   inkscape:version="1.2.1 (9c6d41e410, 2022-07-14, custom)"
   sodipodi:docname="calls-app.svg"
   xmlns:inkscape="http://www.inkscape.org/namespaces/inkscape"
   xmlns:sodipodi="http://sodipodi.sourceforge.net/DTD/sodipodi-0.dtd"
   xmlns:xlink="http://www.w3.org/1999/xlink"
   xmlns="http://www.w3.org/2000/svg"
   xmlns:svg="http://www.w3.org/2000/svg"><sodipodi:namedview
     id="namedview373"
     pagecolor="#ffffff"
     bordercolor="#000000"
     borderopacity="0.25"
     inkscape:showpageshadow="2"
     inkscape:pageopacity="0.0"
     inkscape:pagecheckerboard="0"
     inkscape:deskcolor="#d1d1d1"
     inkscape:document-units="px"
     showgrid="false"
     inkscape:zoom="11.3125"
     inkscape:cx="31.955801"
     inkscape:cy="32"
     inkscape:window-width="1920"
     inkscape:window-height="947"
     inkscape:window-x="0"
     inkscape:window-y="0"
     inkscape:window-maximized="1"
     inkscape:current-layer="svg371"
     showguides="true" /><defs
     id="defs368"><linearGradient
       inkscape:collect="always"
       xlink:href="#linearGradient2030"
       id="linearGradient3040"
       x1="32"
       y1="62"
       x2="32"
       y2="2"
       gradientUnits="userSpaceOnUse" /><linearGradient
       inkscape:collect="always"
       id="linearGradient2030"><stop
         style="stop-color:#00969a;stop-opacity:1"
         offset="0"
         id="stop2026" /><stop
         style="stop-color:#01b091;stop-opacity:1"
         offset="1"
         id="stop2028" /></linearGradient></defs><path
     d="M 2,32 C 2,9.5 9.5,2 32,2 54.5,2 62,9.5 62,32 62,54.5 54.5,62 32,62 9.5,62 2,54.5 2,32"
     style="fill:url(#linearGradient3040);fill-opacity:1.0;stroke-width:0.3"
     id="path311" /><path
     id="rect344"
     style="fill:#ffffff"
     d="m 33,12 c -7.731978,0 -14,6.268022 -14,14 v 12 c 0,7.731978 6.268022,14 14,14 h 3 c 2.215998,0 4,-1.784002 4,-4 v -3 c 0,-2.215998 -1.784002,-4 -4,-4 h -3 -1 c -2.215996,0 -4,-1.784004 -4,-4 V 27 c 0,-2.215996 1.784004,-4 4,-4 h 1 3 c 2.215998,0 4,-1.784002 4,-4 v -3 c 0,-2.215998 -1.784002,-4 -4,-4 z"
     sodipodi:nodetypes="sssssssscsssscsssss" /></svg>
