<?xml version="1.0" encoding="UTF-8" standalone="no"?>
<!-- Created with Inkscape (http://www.inkscape.org/) -->

<svg
   width="64"
   height="64"
   viewBox="0 0 64 64"
   version="1.1"
   id="svg371"
   xml:space="preserve"
   inkscape:version="1.2.2 (1:1.2.2+202305151914+b0a8486541)"
   sodipodi:docname="de.haeckerfelix.Fragments.svg"
   xmlns:inkscape="http://www.inkscape.org/namespaces/inkscape"
   xmlns:sodipodi="http://sodipodi.sourceforge.net/DTD/sodipodi-0.dtd"
   xmlns:xlink="http://www.w3.org/1999/xlink"
   xmlns="http://www.w3.org/2000/svg"
   xmlns:svg="http://www.w3.org/2000/svg"><sodipodi:namedview
     id="namedview373"
     pagecolor="#ffffff"
     bordercolor="#000000"
     borderopacity="0.25"
     inkscape:showpageshadow="2"
     inkscape:pageopacity="0.0"
     inkscape:pagecheckerboard="0"
     inkscape:deskcolor="#d1d1d1"
     inkscape:document-units="px"
     showgrid="false"
     inkscape:zoom="12.59375"
     inkscape:cx="31.960298"
     inkscape:cy="32"
     inkscape:window-width="1920"
     inkscape:window-height="1008"
     inkscape:window-x="0"
     inkscape:window-y="0"
     inkscape:window-maximized="1"
     inkscape:current-layer="svg371"
     showguides="false" /><defs
     id="defs368"><radialGradient
       inkscape:collect="always"
       xlink:href="#linearGradient1134"
       id="radialGradient1125"
       gradientUnits="userSpaceOnUse"
       gradientTransform="matrix(0.72062853,0.61319227,-0.65486537,0.76960319,29.834505,15.832085)"
       cx="-6.7739997"
       cy="37.021408"
       fx="-6.7739997"
       fy="37.021408"
       r="30" /><linearGradient
       inkscape:collect="always"
       id="linearGradient1134"><stop
         style="stop-color:#fae42f;stop-opacity:1;"
         offset="0"
         id="stop1128" /><stop
         style="stop-color:#fae422;stop-opacity:0.94117647"
         offset="0.5"
         id="stop1130" /><stop
         style="stop-color:#fae42f;stop-opacity:0"
         offset="1"
         id="stop1132" /></linearGradient><radialGradient
       inkscape:collect="always"
       xlink:href="#linearGradient1096"
       id="radialGradient1087"
       gradientUnits="userSpaceOnUse"
       gradientTransform="matrix(1.1039003,0.97347395,-0.59305885,0.67251718,-9.319352,-40.611491)"
       cx="32.31749"
       cy="35.957447"
       fx="32.31749"
       fy="35.957447"
       r="30" /><linearGradient
       inkscape:collect="always"
       id="linearGradient1096"><stop
         style="stop-color:#ffb25a;stop-opacity:1;"
         offset="0"
         id="stop1090" /><stop
         style="stop-color:#ffb25a;stop-opacity:0.50196081"
         offset="0.5"
         id="stop1092" /><stop
         style="stop-color:#ffb25a;stop-opacity:0"
         offset="1"
         id="stop1094" /></linearGradient><radialGradient
       inkscape:collect="always"
       xlink:href="#linearGradient1058"
       id="radialGradient1049"
       gradientUnits="userSpaceOnUse"
       gradientTransform="matrix(1.5488561,-1.3507606,0.96567074,1.1072914,-6.932578,39.448149)"
       cx="4.8273349"
       cy="29.936211"
       fx="4.8273349"
       fy="29.936211"
       r="30" /><linearGradient
       inkscape:collect="always"
       id="linearGradient1058"><stop
         style="stop-color:#32a9f4;stop-opacity:1;"
         offset="0"
         id="stop1052" /><stop
         style="stop-color:#32a9f4;stop-opacity:0.60000002"
         offset="0.5"
         id="stop1054" /><stop
         style="stop-color:#32a9f4;stop-opacity:0;"
         offset="1"
         id="stop1056" /></linearGradient><radialGradient
       inkscape:collect="always"
       xlink:href="#linearGradient990"
       id="radialGradient1019"
       gradientUnits="userSpaceOnUse"
       gradientTransform="matrix(-0.78591697,-0.66463655,0.88715255,-1.0490369,12.649762,79.149371)"
       cx="-1.4092577"
       cy="55.554527"
       fx="-1.4092577"
       fy="55.554527"
       r="30" /><linearGradient
       inkscape:collect="always"
       id="linearGradient990"><stop
         style="stop-color:#be3ce9;stop-opacity:1;"
         offset="0"
         id="stop984" /><stop
         style="stop-color:#be3ce9;stop-opacity:0.50196081"
         offset="0.5"
         id="stop986" /><stop
         style="stop-color:#be3ce9;stop-opacity:0"
         offset="1"
         id="stop988" /></linearGradient></defs><path
     d="M 2,32 C 2,9.5 9.5,2 32,2 54.5,2 62,9.5 62,32 62,54.5 54.5,62 32,62 9.5,62 2,54.5 2,32"
     style="fill:#f5466a;fill-opacity:1;stroke-width:0.3"
     id="path311" /><path
     id="path1106"
     style="fill:url(#radialGradient1125);fill-opacity:1;stroke-linecap:round;stroke-linejoin:round"
     d="M 32 2 C 9.5000225 2 2 9.5000225 2 32 C 2 54.499977 9.5000225 62 32 62 C 54.499977 62 62 54.499977 62 32 C 62 9.5000225 54.499977 2 32 2 z " /><path
     id="path1068"
     style="fill:url(#radialGradient1087);fill-opacity:1;stroke-linecap:round;stroke-linejoin:round"
     d="M 32 2 C 9.5000225 2 2 9.5000225 2 32 C 2 54.499977 9.5000225 62 32 62 C 54.499977 62 62 54.499977 62 32 C 62 9.5000225 54.499977 2 32 2 z " /><path
     id="path1030"
     style="fill:url(#radialGradient1049);fill-opacity:1;stroke-linecap:round;stroke-linejoin:round"
     d="M 32 2 C 9.5000223 2 2 9.5000226 2 32 C 2 54.499977 9.5000223 62 32 62 C 54.499977 62 62 54.499977 62 32 C 62 9.5000226 54.499977 2 32 2 z " /><path
     id="path1000"
     style="fill:url(#radialGradient1019);fill-opacity:1;stroke-linecap:round;stroke-linejoin:round"
     d="M 32 2 C 9.5000226 2 2 9.5000228 2 32 C 2 54.499977 9.5000226 62 32 62 C 54.499977 62 62 54.499977 62 32 C 62 9.5000228 54.499977 2 32 2 z " /><path
     id="path1144"
     style="fill:#ffffff;stroke-width:1.9653;stroke-linejoin:round"
     d="M 32 10 C 30.995264 10 29.990584 10.384417 29.220703 11.154297 L 11.154297 29.220703 C 9.6145338 30.760465 9.6145345 33.239535 11.154297 34.779297 L 29.220703 52.845703 C 30.760465 54.385466 33.239535 54.385466 34.779297 52.845703 L 52.845703 34.779297 C 54.385465 33.239535 54.385466 30.760465 52.845703 29.220703 L 34.779297 11.154297 C 34.009416 10.384417 33.004736 10 32 10 z M 32 18 C 33.107998 18 34 18.892002 34 20 L 34 38.34375 L 40.484375 31.857422 C 41.267847 31.073951 42.530982 31.073951 43.314453 31.857422 C 44.097925 32.640894 44.097925 33.902075 43.314453 34.685547 L 32 46 L 20.685547 34.685547 C 19.902075 33.902075 19.902075 32.640894 20.685547 31.857422 C 21.469018 31.073951 22.732153 31.073951 23.515625 31.857422 L 30 38.34375 L 30 20 C 30 18.892002 30.892002 18 32 18 z " /></svg>
