<?xml version="1.0" encoding="UTF-8" standalone="no"?>
<!-- Created with Inkscape (http://www.inkscape.org/) -->

<svg
   width="64"
   height="64"
   viewBox="0 0 64 64"
   version="1.1"
   id="svg371"
   xml:space="preserve"
   inkscape:version="1.2.2 (1:1.2.2+202305151914+b0a8486541)"
   sodipodi:docname="elisa.svg"
   xmlns:inkscape="http://www.inkscape.org/namespaces/inkscape"
   xmlns:sodipodi="http://sodipodi.sourceforge.net/DTD/sodipodi-0.dtd"
   xmlns:xlink="http://www.w3.org/1999/xlink"
   xmlns="http://www.w3.org/2000/svg"
   xmlns:svg="http://www.w3.org/2000/svg"><sodipodi:namedview
     id="namedview373"
     pagecolor="#ffffff"
     bordercolor="#000000"
     borderopacity="0.25"
     inkscape:showpageshadow="2"
     inkscape:pageopacity="0.0"
     inkscape:pagecheckerboard="0"
     inkscape:deskcolor="#d1d1d1"
     inkscape:document-units="px"
     showgrid="false"
     inkscape:zoom="12.59375"
     inkscape:cx="32"
     inkscape:cy="32"
     inkscape:window-width="1920"
     inkscape:window-height="1008"
     inkscape:window-x="0"
     inkscape:window-y="0"
     inkscape:window-maximized="1"
     inkscape:current-layer="svg371"
     showguides="false" /><defs
     id="defs368"><linearGradient
       inkscape:collect="always"
       xlink:href="#linearGradient11029"
       id="linearGradient3040"
       x1="32"
       y1="62"
       x2="32"
       y2="2"
       gradientUnits="userSpaceOnUse" /><linearGradient
       inkscape:collect="always"
       id="linearGradient11029"><stop
         style="stop-color:#4a9bf2;stop-opacity:1;"
         offset="0"
         id="stop11025" /><stop
         style="stop-color:#7ddac5;stop-opacity:1;"
         offset="1"
         id="stop11027" /></linearGradient></defs><path
     d="M 2,32 C 2,9.5 9.5,2 32,2 54.5,2 62,9.5 62,32 62,54.5 54.5,62 32,62 9.5,62 2,54.5 2,32"
     style="fill:url(#linearGradient3040);fill-opacity:1.0;stroke-width:0.3"
     id="path311" /><path
     id="rect2743"
     style="fill:#ffffff;stroke-width:0.544331"
     d="M 31,14 V 33.517578 C 29.520085,32.528386 27.78007,32.000264 26,32 c -4.970563,0 -9,4.029437 -9,9 0,4.970563 4.029437,9 9,9 4.577274,-0.0084 8.491421,-3.45106 9,-8 v 0 -1 -23 c 6.126134,0.01411 10,3.640942 10,9 v 3 c 0,1.104568 0.895432,2 2,2 1.104568,0 2,-0.895432 2,-2 V 27 C 49,20.514894 43.976548,14 35,14 Z"
     sodipodi:nodetypes="cccscccccssssssc" /><circle
     style="fill:#1ed0b8;fill-opacity:1;stroke-width:1"
     id="path2847"
     cx="26"
     cy="41"
     r="5" /></svg>
