<?xml version="1.0" encoding="UTF-8" standalone="no"?>
<!-- Created with Inkscape (http://www.inkscape.org/) -->

<svg
   width="64"
   height="64"
   viewBox="0 0 64 64"
   version="1.1"
   id="svg371"
   xml:space="preserve"
   inkscape:version="1.2.1 (1:1.2.1+202210291243+9c6d41e410)"
   sodipodi:docname="emacs.svg"
   xmlns:inkscape="http://www.inkscape.org/namespaces/inkscape"
   xmlns:sodipodi="http://sodipodi.sourceforge.net/DTD/sodipodi-0.dtd"
   xmlns:xlink="http://www.w3.org/1999/xlink"
   xmlns="http://www.w3.org/2000/svg"
   xmlns:svg="http://www.w3.org/2000/svg"><sodipodi:namedview
     id="namedview373"
     pagecolor="#ffffff"
     bordercolor="#000000"
     borderopacity="0.25"
     inkscape:showpageshadow="2"
     inkscape:pageopacity="0.0"
     inkscape:pagecheckerboard="0"
     inkscape:deskcolor="#d1d1d1"
     inkscape:document-units="px"
     showgrid="false"
     inkscape:zoom="12.890625"
     inkscape:cx="31.961212"
     inkscape:cy="32"
     inkscape:window-width="1920"
     inkscape:window-height="1018"
     inkscape:window-x="0"
     inkscape:window-y="28"
     inkscape:window-maximized="1"
     inkscape:current-layer="svg371"
     showguides="false" /><defs
     id="defs368"><linearGradient
       inkscape:collect="always"
       id="linearGradient1451"><stop
         style="stop-color:#923ec0;stop-opacity:1;"
         offset="0"
         id="stop1447" /><stop
         style="stop-color:#ab72cf;stop-opacity:1;"
         offset="1"
         id="stop1449" /></linearGradient><linearGradient
       inkscape:collect="always"
       xlink:href="#linearGradient1451"
       id="linearGradient3040"
       x1="32"
       y1="62"
       x2="32"
       y2="2"
       gradientUnits="userSpaceOnUse" /></defs><path
     d="M 2,32 C 2,9.5 9.5,2 32,2 54.5,2 62,9.5 62,32 62,54.5 54.5,62 32,62 9.5,62 2,54.5 2,32"
     style="fill:url(#linearGradient3040);fill-opacity:1;stroke-width:0.3"
     id="path311" /><path
     d="m 18.235338,50.2057 c 0,0 2.384408,0.692344 5.55814,1.088162 1.28536,0.16032 6.175908,0.720522 9.92563,0.705856 0,0 4.566598,0.0042 7.087452,-0.35293 2.637738,-0.374704 4.131938,-0.852876 4.96348,-1.807172 0.02178,-0.227508 0.401418,-0.96923 -0.6239,-1.68442 -2.622184,-1.831084 -6.0088,-2.328854 -12.592702,-3.893274 -7.27856,-1.831084 -9.453638,-3.582172 -10.54029,-4.848818 -1.03065,-1.271982 0.19334,-3.911498 6.058134,-5.206588 C 31.04057,33.483858 42.10174,33.35097 42.10174,33.35097 38.928454,30.831898 32.97032,26.321742 31.753004,25.362646 30.685108,24.521414 28.964158,23.2305 28.77927,22.076918 c -0.24955,-1.122962 1.518068,-1.663666 2.453966,-1.726022 3.015286,-0.207954 7.132782,0.14556 10.792726,0.87341 1.83975,0.365862 2.162724,0.311952 2.162724,0.311952 2.620184,0.1248 4.658154,-1.247716 4.554156,-4.138382 -0.0209,-2.93218 -2.952402,-5.283478 -6.196798,-5.386144 -3.05551,-0.09675 -10.58473,0.436705 -10.58473,0.436705 8.775868,1.809218 10.210514,2.270855 10.668284,3.327284 0.271108,0.624213 -0.451104,1.244426 -2.868844,1.123317 -2.633296,-0.132 -8.028772,-0.769544 -8.028772,-0.769544 -5.135478,-0.790211 -8.713204,-1.538866 -10.27318,0.499104 -1.018964,1.331447 0.1456,2.953065 0.603058,3.909496 2.037968,3.55617 5.56214,5.995912 7.798106,7.714996 0.84141,0.646926 3.410394,2.079572 3.410394,2.079572 -7.985216,-2.183524 -14.348678,-0.956608 -18.383283,1.16456 -4.637265,2.745068 -3.844166,7.377222 3.514391,11.707826 4.34638,2.55796 6.510128,3.78661 13.626466,4.660374 4.159492,0.663236 4.77904,0.934608 4.747486,1.280826 -0.04462,0.48746 -4.92304,0.672168 -6.26391,0.764656 -3.411504,0.235284 -12.234484,0.294084 -12.278484,0.294084 z"
     style="fill:#ffffff;stroke-width:4.44438"
     id="path397"
     sodipodi:nodetypes="cscccccccccccccccccccccccccccccc" /></svg>
