<?xml version="1.0" encoding="UTF-8" standalone="no"?>
<!-- Created with Inkscape (http://www.inkscape.org/) -->

<svg
   width="64"
   height="64"
   viewBox="0 0 64 64"
   version="1.1"
   id="svg371"
   xml:space="preserve"
   inkscape:version="1.2.2 (1:1.2.2+202305151914+b0a8486541)"
   sodipodi:docname="gnome-mines.svg"
   xmlns:inkscape="http://www.inkscape.org/namespaces/inkscape"
   xmlns:sodipodi="http://sodipodi.sourceforge.net/DTD/sodipodi-0.dtd"
   xmlns:xlink="http://www.w3.org/1999/xlink"
   xmlns="http://www.w3.org/2000/svg"
   xmlns:svg="http://www.w3.org/2000/svg"><sodipodi:namedview
     id="namedview373"
     pagecolor="#ffffff"
     bordercolor="#000000"
     borderopacity="0.25"
     inkscape:showpageshadow="2"
     inkscape:pageopacity="0.0"
     inkscape:pagecheckerboard="0"
     inkscape:deskcolor="#d1d1d1"
     inkscape:document-units="px"
     showgrid="false"
     inkscape:zoom="12.59375"
     inkscape:cx="31.960298"
     inkscape:cy="32"
     inkscape:window-width="1920"
     inkscape:window-height="1008"
     inkscape:window-x="0"
     inkscape:window-y="0"
     inkscape:window-maximized="1"
     inkscape:current-layer="svg371"
     showguides="false"
     inkscape:lockguides="true" /><defs
     id="defs368"><linearGradient
       inkscape:collect="always"
       id="linearGradient919"><stop
         style="stop-color:#5a5a5a;stop-opacity:1;"
         offset="0"
         id="stop915" /><stop
         style="stop-color:#939393;stop-opacity:1;"
         offset="1"
         id="stop917" /></linearGradient><linearGradient
       inkscape:collect="always"
       xlink:href="#linearGradient919"
       id="linearGradient1980"
       x1="16"
       y1="31"
       x2="16"
       y2="1"
       gradientUnits="userSpaceOnUse"
       gradientTransform="scale(2)" /></defs><path
     d="M 2,32 C 2,9.5 9.5,2 32,2 54.5,2 62,9.5 62,32 62,54.5 54.5,62 32,62 9.5,62 2,54.5 2,32"
     style="fill:url(#linearGradient1980);fill-opacity:1;stroke-width:0.3"
     id="path311" /><path
     id="path1109"
     style="opacity:1;fill:#ffffff;stroke-width:2;stroke-linecap:round"
     d="M 32 12 C 30.338002 12 29 13.338002 29 15 L 29 17.339844 A 15 15 0 0 0 20.78125 22.060547 L 18.777344 20.902344 C 17.338011 20.071345 15.510687 20.560667 14.679688 22 C 13.848688 23.439333 14.338011 25.266657 15.777344 26.097656 L 17.796875 27.263672 A 15 15 0 0 0 17 32 A 15 15 0 0 0 17.796875 36.736328 L 15.777344 37.902344 C 14.338011 38.733343 13.848688 40.560667 14.679688 42 C 15.510687 43.439333 17.338011 43.928655 18.777344 43.097656 L 20.78125 41.939453 A 15 15 0 0 0 29 46.660156 L 29 49 C 29 50.661998 30.338002 52 32 52 C 33.661998 52 35 50.661998 35 49 L 35 46.660156 A 15 15 0 0 0 43.21875 41.939453 L 45.222656 43.097656 C 46.661989 43.928655 48.489313 43.439333 49.320312 42 C 50.151312 40.560667 49.661989 38.733343 48.222656 37.902344 L 46.203125 36.736328 A 15 15 0 0 0 47 32 A 15 15 0 0 0 46.222656 27.251953 L 48.222656 26.097656 C 49.661989 25.266657 50.151312 23.439333 49.320312 22 C 48.489313 20.560667 46.661989 20.071345 45.222656 20.902344 L 43.226562 22.054688 A 15 15 0 0 0 35 17.304688 L 35 15 C 35 13.338002 33.661998 12 32 12 z " /></svg>
