<?xml version="1.0" encoding="UTF-8" standalone="no"?>
<!-- Created with Inkscape (http://www.inkscape.org/) -->

<svg
   width="64"
   height="64"
   viewBox="0 0 64 64"
   version="1.1"
   id="svg371"
   xml:space="preserve"
   inkscape:version="1.2.2 (1:1.2.2+202212051552+b0a8486541)"
   sodipodi:docname="hwinfo.svg"
   xmlns:inkscape="http://www.inkscape.org/namespaces/inkscape"
   xmlns:sodipodi="http://sodipodi.sourceforge.net/DTD/sodipodi-0.dtd"
   xmlns:xlink="http://www.w3.org/1999/xlink"
   xmlns="http://www.w3.org/2000/svg"
   xmlns:svg="http://www.w3.org/2000/svg"><sodipodi:namedview
     id="namedview373"
     pagecolor="#ffffff"
     bordercolor="#000000"
     borderopacity="0.25"
     inkscape:showpageshadow="2"
     inkscape:pageopacity="0.0"
     inkscape:pagecheckerboard="0"
     inkscape:deskcolor="#d1d1d1"
     inkscape:document-units="px"
     showgrid="false"
     inkscape:zoom="12.65625"
     inkscape:cx="27.812346"
     inkscape:cy="32"
     inkscape:window-width="1920"
     inkscape:window-height="1012"
     inkscape:window-x="0"
     inkscape:window-y="0"
     inkscape:window-maximized="1"
     inkscape:current-layer="svg371" /><defs
     id="defs368"><linearGradient
       inkscape:collect="always"
       xlink:href="#linearGradient869"
       id="linearGradient3040"
       x1="32"
       y1="62"
       x2="32"
       y2="2"
       gradientUnits="userSpaceOnUse" /><linearGradient
       inkscape:collect="always"
       id="linearGradient869"><stop
         style="stop-color:#268f82;stop-opacity:1;"
         offset="0"
         id="stop865" /><stop
         style="stop-color:#31b7a5;stop-opacity:1;"
         offset="1"
         id="stop867" /></linearGradient></defs><path
     d="M 2,32 C 2,9.5 9.5,2 32,2 54.5,2 62,9.5 62,32 62,54.5 54.5,62 32,62 9.5,62 2,54.5 2,32"
     style="fill:url(#linearGradient3040);fill-opacity:1.0;stroke-width:0.3"
     id="path311" /><path
     id="rect2575"
     style="fill:#b5ebe4;fill-opacity:1"
     d="M 24 12 C 22.892002 12 22 12.892002 22 14 L 22 22 L 14 22 C 12.892002 22 12 22.892001 12 24 C 12 25.107997 12.892002 26 14 26 L 22 26 L 22 30 L 14 30 C 12.892002 30 12 30.892001 12 32 C 12 33.107997 12.892002 34 14 34 L 22 34 L 22 38 L 14 38 C 12.892002 38 12 38.892002 12 40 C 12 41.107998 12.892002 42 14 42 L 22 42 L 22 50 C 22 51.107998 22.892002 52 24 52 C 25.107998 52 26 51.107998 26 50 L 26 42 L 30 42 L 30 50 C 30 51.107998 30.892002 52 32 52 C 33.107998 52 34 51.107998 34 50 L 34 42 L 38 42 L 38 50 C 38 51.107998 38.892002 52 40 52 C 41.107998 52 42 51.107998 42 50 L 42 42 L 50 42 C 51.107998 42 52 41.107998 52 40 C 52 38.892002 51.107998 38 50 38 L 42 38 L 42 34 L 50 34 C 51.107998 34 52 33.107997 52 32 C 52 30.892001 51.107998 30 50 30 L 42 30 L 42 26 L 50 26 C 51.107998 26 52 25.107997 52 24 C 52 22.892001 51.107998 22 50 22 L 42 22 L 42 14 C 42 12.892002 41.107998 12 40 12 C 38.892002 12 38 12.892002 38 14 L 38 22 L 34 22 L 34 14 C 34 12.892002 33.107998 12 32 12 C 30.892002 12 30 12.892002 30 14 L 30 22 L 26 22 L 26 14 C 26 12.892002 25.107998 12 24 12 z M 26 26 L 30 26 L 30 30 L 26 30 L 26 26 z M 34 26 L 38 26 L 38 30 L 34 30 L 34 26 z M 26 34 L 30 34 L 30 38 L 26 38 L 26 34 z M 34 34 L 38 34 L 38 38 L 34 38 L 34 34 z " /><rect
     style="fill:#ffffff;fill-opacity:1"
     id="rect2521"
     width="32"
     height="32"
     x="16"
     y="16"
     ry="6" /><path
     id="path1021"
     style="fill:#196359;fill-opacity:1;stroke-width:3;stroke-linecap:round;stroke-linejoin:round"
     d="m 32,22 c -1.104569,0 -2,0.895431 -2,2 0,1.104569 0.895431,2 2,2 1.104569,0 2,-0.895431 2,-2 0,-1.104569 -0.895431,-2 -2,-2 z m 0,6 c -1.107998,0 -2,0.892002 -2,2 v 10 c 0,1.107998 0.892002,2 2,2 1.107998,0 2,-0.892002 2,-2 V 30 c 0,-1.107998 -0.892002,-2 -2,-2 z"
     sodipodi:nodetypes="ssssssssssss" /></svg>
