<?xml version="1.0" encoding="UTF-8" standalone="no"?>
<!-- Created with Inkscape (http://www.inkscape.org/) -->

<svg
   width="64"
   height="64"
   viewBox="0 0 64 64"
   version="1.1"
   id="svg371"
   xml:space="preserve"
   inkscape:version="1.2 (1:1.2.1+202207142221+cd75a1ee6d)"
   sodipodi:docname="internet-mail.svg"
   xmlns:inkscape="http://www.inkscape.org/namespaces/inkscape"
   xmlns:sodipodi="http://sodipodi.sourceforge.net/DTD/sodipodi-0.dtd"
   xmlns:xlink="http://www.w3.org/1999/xlink"
   xmlns="http://www.w3.org/2000/svg"
   xmlns:svg="http://www.w3.org/2000/svg"><sodipodi:namedview
     id="namedview373"
     pagecolor="#ffffff"
     bordercolor="#000000"
     borderopacity="0.25"
     inkscape:showpageshadow="2"
     inkscape:pageopacity="0.0"
     inkscape:pagecheckerboard="0"
     inkscape:deskcolor="#d1d1d1"
     inkscape:document-units="px"
     showgrid="false"
     inkscape:zoom="12.890625"
     inkscape:cx="31.961212"
     inkscape:cy="32.155152"
     inkscape:window-width="1920"
     inkscape:window-height="1018"
     inkscape:window-x="0"
     inkscape:window-y="28"
     inkscape:window-maximized="1"
     inkscape:current-layer="svg371"
     showguides="false" /><defs
     id="defs368"><linearGradient
       inkscape:collect="always"
       id="linearGradient1120"><stop
         style="stop-color:#db280f;stop-opacity:1;"
         offset="0"
         id="stop1116" /><stop
         style="stop-color:#dd5b4e;stop-opacity:1;"
         offset="1"
         id="stop1118" /></linearGradient><linearGradient
       inkscape:collect="always"
       xlink:href="#linearGradient1120"
       id="linearGradient3040"
       x1="32"
       y1="62"
       x2="32"
       y2="2"
       gradientUnits="userSpaceOnUse" /></defs><path
     d="M 2,32 C 2,9.5 9.5,2 32,2 54.5,2 62,9.5 62,32 62,54.5 54.5,62 32,62 9.5,62 2,54.5 2,32"
     style="fill:url(#linearGradient3040);fill-opacity:1;stroke-width:0.3"
     id="path311" /><rect
     style="fill:#ffffff;stroke-width:5.84808;stroke-linecap:round;stroke-linejoin:round"
     id="rect898"
     width="38"
     height="30"
     x="13"
     y="17"
     ry="4" /><path
     id="rect952"
     style="fill:#c02a2a;fill-opacity:1;stroke-width:6.09714;stroke-linecap:round;stroke-linejoin:round"
     d="m 19.085484,21.000421 c -0.59445,-0.0049 -1.18787,0.237408 -1.601561,0.714845 -0.735454,0.848776 -0.622573,2.108105 0.253905,2.820312 l 12.86764,10.640203 c 0.407096,0.330797 0.904241,0.480424 1.394532,0.464845 0.490291,0.01558 0.987436,-0.134047 1.394532,-0.464844 l 12.86764,-10.64058 c 0.876478,-0.712208 0.989359,-1.971536 0.253906,-2.820312 -0.735452,-0.848775 -2.033677,-0.958301 -2.910156,-0.246093 l -11.605923,9.61714 -11.605921,-9.616765 c -0.383459,-0.31159 -0.846244,-0.464912 -1.308594,-0.468751 z"
     sodipodi:nodetypes="cscccccscccc" /></svg>
