<?xml version="1.0" encoding="UTF-8" standalone="no"?>
<!-- Created with Inkscape (http://www.inkscape.org/) -->

<svg
   width="64"
   height="64"
   viewBox="0 0 64 64"
   version="1.1"
   id="svg371"
   xml:space="preserve"
   inkscape:version="1.2 (1:1.2.1+202207142221+cd75a1ee6d)"
   sodipodi:docname="kate.svg"
   xmlns:inkscape="http://www.inkscape.org/namespaces/inkscape"
   xmlns:sodipodi="http://sodipodi.sourceforge.net/DTD/sodipodi-0.dtd"
   xmlns:xlink="http://www.w3.org/1999/xlink"
   xmlns="http://www.w3.org/2000/svg"
   xmlns:svg="http://www.w3.org/2000/svg"><sodipodi:namedview
     id="namedview373"
     pagecolor="#ffffff"
     bordercolor="#000000"
     borderopacity="0.25"
     inkscape:showpageshadow="2"
     inkscape:pageopacity="0.0"
     inkscape:pagecheckerboard="0"
     inkscape:deskcolor="#d1d1d1"
     inkscape:document-units="px"
     showgrid="false"
     inkscape:zoom="12.890625"
     inkscape:cx="31.961212"
     inkscape:cy="32"
     inkscape:window-width="1920"
     inkscape:window-height="1018"
     inkscape:window-x="0"
     inkscape:window-y="28"
     inkscape:window-maximized="1"
     inkscape:current-layer="svg371"
     showguides="true" /><defs
     id="defs368"><linearGradient
       inkscape:collect="always"
       id="linearGradient1795"><stop
         style="stop-color:#2374eb;stop-opacity:1;"
         offset="0"
         id="stop1791" /><stop
         style="stop-color:#1ebee9;stop-opacity:1;"
         offset="1"
         id="stop1793" /></linearGradient><linearGradient
       inkscape:collect="always"
       xlink:href="#linearGradient1795"
       id="linearGradient3040"
       x1="32"
       y1="62"
       x2="32"
       y2="2"
       gradientUnits="userSpaceOnUse" /></defs><path
     d="M 2,32 C 2,9.5 9.5,2 32,2 54.5,2 62,9.5 62,32 62,54.5 54.5,62 32,62 9.5,62 2,54.5 2,32"
     style="fill:url(#linearGradient3040);fill-opacity:1;stroke-width:0.3"
     id="path311" /><path
     d="m 26.028895,23.128752 c -1.520229,-5.046924 -10.111274,-3.82226 -11.547297,-3.931828 1.611772,-0.800081 3.059191,-0.50418 6.381943,-2.911209 6.401056,-4.636967 10.891964,-4.698599 14.285714,-2.857143 -9.278018,0.352696 -5.215212,5.524851 -3.848644,8.188191 -1.737872,0.504797 -4.481233,1.266824 -5.271716,1.511989 z"
     style="fill:#ececec;fill-opacity:1;stroke-width:1.42857"
     id="path1099" /><path
     d="m 48.930881,16.183957 c -3.341023,4.41308 -8.895818,10.375459 -14.975222,11.160855 -6.079404,0.785393 -12.446469,-0.08467 -13.788998,4.442979 -1.236342,4.169557 3.683342,8.062468 8.193313,7.124229 4.818061,-1.00234 3.777528,-6.463264 1.142241,-10.182016 2.00175,-0.114787 0.823939,0.583956 4.218468,0.412853 l 2.204872,6.874976 C 37.191237,39.194809 40.277553,46.405279 40.863541,52 38.045607,47.950803 36.596237,46.462732 32.229102,43.541517 26.63509,39.799632 21.533243,39.672955 18.911058,34.160011 c -2.616523,-5.501034 1.418137,-9.463638 7.615493,-11.179724 8.856475,-2.452416 16.487508,-4.77753 22.40433,-6.79633 z"
     style="fill:#ffffff;stroke-width:1.42857"
     id="path918" /><path
     d="m 29.502215,28.730004 c 2.001751,-0.114787 1.629394,-0.08507 5.023924,-0.256173 5.059732,4.312877 6.736831,5.805146 15.57649,12.097598 C 41.217582,39.935825 34.494917,37.052752 29.502215,28.730004 Z"
     style="fill:#ececec;fill-opacity:1;stroke-width:1.42857"
     id="path1066" /><path
     d="m 14.481598,19.196924 c 1.611772,-0.800081 3.068351,-1.45958 6.391103,-3.866609 6.401056,-4.636967 13.178078,-3.62571 16.571829,-1.784255 -9.278019,0.352697 -8.082572,2.201328 -8.116812,3.650544 -6.16434,-1.299364 -7.964196,0.468541 -14.84612,2.00032 z"
     style="fill:#cccccc;fill-opacity:1;stroke-width:1.42857"
     id="path1033" /><path
     d="m 37.44453,13.54606 c -9.278019,0.352697 -7.510487,5.407361 -6.143919,8.070701 -1.082692,0.314486 -1.54259,0.672758 -2.989928,1.055804 C 22.47083,12.266936 32.678174,10.913226 37.44453,13.54606 Z"
     style="fill:#ffffff;stroke-width:1.42857"
     id="path1132" /><path
     d="M 20.581738,36.752287 C 16.041583,30.90628 17.451209,25.547903 26.341489,22.763868 35.114721,20.016483 43.014059,18.202757 48.930881,16.183957 32.963562,22.267853 12.398016,26.333084 20.581738,36.752287 Z"
     style="fill:#cccccc;fill-opacity:1;stroke-width:1.42857"
     id="path1000" /></svg>
