<?xml version="1.0" encoding="UTF-8" standalone="no"?>
<!-- Created with Inkscape (http://www.inkscape.org/) -->

<svg
   width="64"
   height="64"
   viewBox="0 0 64 64"
   version="1.1"
   id="svg371"
   xml:space="preserve"
   inkscape:version="1.2.2 (1:1.2.2+202212051552+b0a8486541)"
   sodipodi:docname="kontact.svg"
   xmlns:inkscape="http://www.inkscape.org/namespaces/inkscape"
   xmlns:sodipodi="http://sodipodi.sourceforge.net/DTD/sodipodi-0.dtd"
   xmlns:xlink="http://www.w3.org/1999/xlink"
   xmlns="http://www.w3.org/2000/svg"
   xmlns:svg="http://www.w3.org/2000/svg"><sodipodi:namedview
     id="namedview373"
     pagecolor="#ffffff"
     bordercolor="#000000"
     borderopacity="0.25"
     inkscape:showpageshadow="2"
     inkscape:pageopacity="0.0"
     inkscape:pagecheckerboard="0"
     inkscape:deskcolor="#d1d1d1"
     inkscape:document-units="px"
     showgrid="false"
     inkscape:zoom="12.65625"
     inkscape:cx="31.960494"
     inkscape:cy="32"
     inkscape:window-width="1920"
     inkscape:window-height="1012"
     inkscape:window-x="0"
     inkscape:window-y="0"
     inkscape:window-maximized="1"
     inkscape:current-layer="svg371"
     showguides="false" /><defs
     id="defs368"><linearGradient
       inkscape:collect="always"
       id="linearGradient1014"><stop
         style="stop-color:#9e704b;stop-opacity:1;"
         offset="0"
         id="stop1010" /><stop
         style="stop-color:#c99970;stop-opacity:1;"
         offset="1"
         id="stop1012" /></linearGradient><linearGradient
       inkscape:collect="always"
       xlink:href="#linearGradient1014"
       id="linearGradient3040"
       x1="32"
       y1="62"
       x2="32"
       y2="2"
       gradientUnits="userSpaceOnUse" /></defs><path
     d="M 2,32 C 2,9.5 9.5,2 32,2 54.5,2 62,9.5 62,32 62,54.5 54.5,62 32,62 9.5,62 2,54.5 2,32"
     style="fill:url(#linearGradient3040);fill-opacity:1;stroke-width:0.3"
     id="path311" /><rect
     style="fill:#ffffff;stroke-width:5.6921;stroke-linecap:round;stroke-linejoin:round"
     id="rect898"
     width="36"
     height="28"
     x="14"
     y="18"
     ry="4" /><path
     id="rect952"
     style="fill:#71542a;fill-opacity:1;stroke-width:6.09714;stroke-linecap:round;stroke-linejoin:round"
     d="m 20.085938,22 c -0.594451,-0.005 -1.187871,0.237408 -1.601562,0.714844 -0.735454,0.848776 -0.622572,2.108106 0.253905,2.820312 l 11.867187,9.640626 c 0.407096,0.330796 0.90424,0.480424 1.394532,0.464844 0.490292,0.0156 0.987436,-0.13404 1.394532,-0.464844 l 11.867186,-9.640626 c 0.876478,-0.712208 0.98936,-1.971536 0.253906,-2.820312 -0.735452,-0.848776 -2.033676,-0.958302 -2.910156,-0.246094 L 32,31.085938 21.39453,22.46875 C 21.011072,22.15716 20.548288,22.003838 20.085938,22 Z" /></svg>
