<?xml version="1.0" encoding="UTF-8" standalone="no"?>
<!-- Created with Inkscape (http://www.inkscape.org/) -->

<svg
   width="64"
   height="64"
   viewBox="0 0 64 64"
   version="1.1"
   id="svg371"
   xml:space="preserve"
   inkscape:version="1.2.2 (b0a8486541, 2022-12-01)"
   sodipodi:docname="konversation.svg"
   xmlns:inkscape="http://www.inkscape.org/namespaces/inkscape"
   xmlns:sodipodi="http://sodipodi.sourceforge.net/DTD/sodipodi-0.dtd"
   xmlns:xlink="http://www.w3.org/1999/xlink"
   xmlns="http://www.w3.org/2000/svg"
   xmlns:svg="http://www.w3.org/2000/svg"><sodipodi:namedview
     id="namedview373"
     pagecolor="#ffffff"
     bordercolor="#000000"
     borderopacity="0.25"
     inkscape:showpageshadow="2"
     inkscape:pageopacity="0.0"
     inkscape:pagecheckerboard="0"
     inkscape:deskcolor="#d1d1d1"
     inkscape:document-units="px"
     showgrid="false"
     inkscape:zoom="12.34375"
     inkscape:cx="31.959494"
     inkscape:cy="32"
     inkscape:window-width="1920"
     inkscape:window-height="1011"
     inkscape:window-x="0"
     inkscape:window-y="0"
     inkscape:window-maximized="1"
     inkscape:current-layer="svg371"
     showguides="true" /><defs
     id="defs368"><linearGradient
       inkscape:collect="always"
       id="linearGradient1078"><stop
         style="stop-color:#139cde;stop-opacity:1;"
         offset="0"
         id="stop1074" /><stop
         style="stop-color:#1ecfe9;stop-opacity:1;"
         offset="1"
         id="stop1076" /></linearGradient><linearGradient
       inkscape:collect="always"
       xlink:href="#linearGradient1078"
       id="linearGradient3040"
       x1="32"
       y1="62"
       x2="32"
       y2="2"
       gradientUnits="userSpaceOnUse" /></defs><path
     d="M 2,32 C 2,9.5 9.5,2 32,2 54.5,2 62,9.5 62,32 62,54.5 54.5,62 32,62 9.5,62 2,54.5 2,32"
     style="fill:url(#linearGradient3040);fill-opacity:1;stroke-width:0.3"
     id="path311" /><path
     id="path921"
     style="opacity:1;fill:#ffffff;stroke-width:2.0494"
     d="M 32,12 A 21,18 0 0 0 11,30 21,18 0 0 0 20.542968,45.070312 C 19.986265,47.580256 19.181865,49.9367 18,52 c 3.00492,-1.433098 5.642666,-2.92681 8.105468,-4.726562 A 21,18 0 0 0 32,48 21,18 0 0 0 53,30 21,18 0 0 0 32,12 Z" /><path
     id="rect345"
     d="m 46,20 -22,4 v 10 l 22,4 z m -26,4 c -1.107998,0 -2,0.892004 -2,2 v 6 c 0,1.107996 0.892002,2 2,2 h 2 V 24 Z m 4,12 v 6 h 4 v -6 z"
     style="fill:#0f78a8;fill-opacity:1;stroke-width:2" /></svg>
