<?xml version="1.0" encoding="UTF-8" standalone="no"?>
<!-- Created with Inkscape (http://www.inkscape.org/) -->

<svg
   width="64"
   height="64"
   viewBox="0 0 64 64"
   version="1.1"
   id="svg371"
   xml:space="preserve"
   inkscape:version="1.2.1 (1:1.2.1+202210291243+9c6d41e410)"
   sodipodi:docname="kopete.svg"
   xmlns:inkscape="http://www.inkscape.org/namespaces/inkscape"
   xmlns:sodipodi="http://sodipodi.sourceforge.net/DTD/sodipodi-0.dtd"
   xmlns:xlink="http://www.w3.org/1999/xlink"
   xmlns="http://www.w3.org/2000/svg"
   xmlns:svg="http://www.w3.org/2000/svg"><sodipodi:namedview
     id="namedview373"
     pagecolor="#ffffff"
     bordercolor="#000000"
     borderopacity="0.25"
     inkscape:showpageshadow="2"
     inkscape:pageopacity="0.0"
     inkscape:pagecheckerboard="0"
     inkscape:deskcolor="#d1d1d1"
     inkscape:document-units="px"
     showgrid="false"
     inkscape:zoom="12.890625"
     inkscape:cx="31.961212"
     inkscape:cy="32"
     inkscape:window-width="1920"
     inkscape:window-height="1018"
     inkscape:window-x="0"
     inkscape:window-y="28"
     inkscape:window-maximized="1"
     inkscape:current-layer="svg371"
     showguides="true" /><defs
     id="defs368"><linearGradient
       inkscape:collect="always"
       xlink:href="#linearGradient3251"
       id="linearGradient3040"
       x1="32"
       y1="62"
       x2="32"
       y2="2"
       gradientUnits="userSpaceOnUse" /><linearGradient
       inkscape:collect="always"
       id="linearGradient3251"><stop
         style="stop-color:#1365de;stop-opacity:1;"
         offset="0"
         id="stop3247" /><stop
         style="stop-color:#1e87e9;stop-opacity:1;"
         offset="1"
         id="stop3249" /></linearGradient></defs><path
     d="M 2,32 C 2,9.5 9.5,2 32,2 54.5,2 62,9.5 62,32 62,54.5 54.5,62 32,62 9.5,62 2,54.5 2,32"
     style="fill:url(#linearGradient3040);fill-opacity:1;stroke-width:0.3"
     id="path311" /><path
     id="path921"
     style="opacity:1;fill:#ffffff;stroke-width:2.0494"
     d="M 32,12 A 21,18 0 0 0 11,30 21,18 0 0 0 20.542968,45.070312 C 19.986264,47.580256 19.181866,49.9367 18,52 c 3.00492,-1.433098 5.642666,-2.92681 8.105468,-4.726562 A 21,18 0 0 0 32,48 21,18 0 0 0 53,30 21,18 0 0 0 32,12 Z" /><path
     id="path1127"
     style="fill:#1c5cd7;fill-opacity:1;stroke-width:0.666666"
     d="m 40.484376,19.515626 c -0.530402,7.8e-5 -1.039052,0.210844 -1.414064,0.585936 -0.780848,0.781014 -0.780848,2.047112 0,2.828126 3.921986,3.921986 3.921986,10.218638 0,14.140624 -0.780848,0.781014 -0.780848,2.047112 0,2.828126 0.781014,0.780848 2.047112,0.780848 2.828126,0 5.450578,-5.45058 5.450578,-14.346296 0,-19.796876 -0.37501,-0.37509 -0.88366,-0.585856 -1.414062,-0.585936 z M 22,22 c -1.104568,0 -2,0.895434 -2,2 0,1.104568 0.895432,2 2,2 1.104568,0 2,-0.895432 2,-2 0,-1.104566 -0.895432,-2 -2,-2 z m 6,6 c -1.107998,0 -2,0.892002 -2,2 0,1.107998 0.892002,2 2,2 h 6 c 1.107998,0 2,-0.892002 2,-2 0,-1.107998 -0.892002,-2 -2,-2 z m -6,6 c -1.104568,0 -2,0.895436 -2,2 0,1.104568 0.895432,2 2,2 1.104568,0 2,-0.895432 2,-2 0,-1.104564 -0.895432,-2 -2,-2 z"
     sodipodi:nodetypes="csccccccsssssssssssssssss" /></svg>
