<?xml version="1.0" encoding="UTF-8" standalone="no"?>
<!-- Created with Inkscape (http://www.inkscape.org/) -->

<svg
   width="64"
   height="64"
   viewBox="0 0 64 64"
   version="1.1"
   id="svg371"
   xml:space="preserve"
   inkscape:version="1.2.2 (1:1.2.2+202305151914+b0a8486541)"
   sodipodi:docname="krdc.svg"
   xmlns:inkscape="http://www.inkscape.org/namespaces/inkscape"
   xmlns:sodipodi="http://sodipodi.sourceforge.net/DTD/sodipodi-0.dtd"
   xmlns:xlink="http://www.w3.org/1999/xlink"
   xmlns="http://www.w3.org/2000/svg"
   xmlns:svg="http://www.w3.org/2000/svg"><sodipodi:namedview
     id="namedview373"
     pagecolor="#ffffff"
     bordercolor="#000000"
     borderopacity="0.25"
     inkscape:showpageshadow="2"
     inkscape:pageopacity="0.0"
     inkscape:pagecheckerboard="0"
     inkscape:deskcolor="#d1d1d1"
     inkscape:document-units="px"
     showgrid="false"
     inkscape:zoom="12.59375"
     inkscape:cx="32"
     inkscape:cy="32"
     inkscape:window-width="1920"
     inkscape:window-height="1008"
     inkscape:window-x="0"
     inkscape:window-y="0"
     inkscape:window-maximized="1"
     inkscape:current-layer="svg371"
     showguides="false" /><defs
     id="defs368"><linearGradient
       inkscape:collect="always"
       xlink:href="#linearGradient1134"
       id="linearGradient3230"
       x1="32"
       y1="62"
       x2="32"
       y2="2"
       gradientUnits="userSpaceOnUse" /><linearGradient
       inkscape:collect="always"
       id="linearGradient1134"><stop
         style="stop-color:#1e7bdf;stop-opacity:1;"
         offset="0"
         id="stop1130" /><stop
         style="stop-color:#579cf0;stop-opacity:1;"
         offset="1"
         id="stop1132" /></linearGradient></defs><path
     d="M 2,32 C 2,9.5 9.5,2 32,2 54.5,2 62,9.5 62,32 62,54.5 54.5,62 32,62 9.5,62 2,54.5 2,32"
     style="fill:url(#linearGradient3230);fill-opacity:1.0;stroke-width:0.3"
     id="path311" /><rect
     style="fill:#ffffff;stroke-width:2;stroke-linecap:round;stroke-linejoin:round"
     id="rect5511"
     width="40"
     height="30"
     x="12"
     y="17"
     ry="6" /><path
     id="path524"
     style="fill:#2a8dff;fill-opacity:1;stroke-width:1.99999;stroke-linecap:round;stroke-linejoin:round"
     d="m 19,22 a 2,2 0 0 0 -2,2 2,2 0 0 0 2,2 c 7.755652,0 14,6.244348 14,14 a 2,2 0 0 0 2,2 2,2 0 0 0 2,-2 C 37,30.082594 28.917406,22 19,22 Z m 0,8 a 2,2 0 0 0 -2,2 2,2 0 0 0 2,2 c 3.337388,0 6,2.662612 6,6 a 2,2 0 0 0 2,2 2,2 0 0 0 2,-2 C 29,34.500857 24.499143,30 19,30 Z m -1,8 a 3,3 0 0 0 -3,3 3,3 0 0 0 3,3 3,3 0 0 0 3,-3 3,3 0 0 0 -3,-3 z" /></svg>
