<?xml version="1.0" encoding="UTF-8" standalone="no"?>
<!-- Created with Inkscape (http://www.inkscape.org/) -->

<svg
   width="64"
   height="64"
   viewBox="0 0 64 64"
   version="1.1"
   id="svg371"
   xml:space="preserve"
   inkscape:version="1.2.2 (b0a8486541, 2022-12-01)"
   sodipodi:docname="libreoffice-calc.svg"
   xmlns:inkscape="http://www.inkscape.org/namespaces/inkscape"
   xmlns:sodipodi="http://sodipodi.sourceforge.net/DTD/sodipodi-0.dtd"
   xmlns:xlink="http://www.w3.org/1999/xlink"
   xmlns="http://www.w3.org/2000/svg"
   xmlns:svg="http://www.w3.org/2000/svg"><sodipodi:namedview
     id="namedview373"
     pagecolor="#ffffff"
     bordercolor="#000000"
     borderopacity="0.25"
     inkscape:showpageshadow="2"
     inkscape:pageopacity="0.0"
     inkscape:pagecheckerboard="0"
     inkscape:deskcolor="#d1d1d1"
     inkscape:document-units="px"
     showgrid="false"
     inkscape:zoom="12.34375"
     inkscape:cx="31.959494"
     inkscape:cy="32"
     inkscape:window-width="1920"
     inkscape:window-height="1011"
     inkscape:window-x="0"
     inkscape:window-y="0"
     inkscape:window-maximized="1"
     inkscape:current-layer="svg371"
     showguides="true" /><defs
     id="defs368"><linearGradient
       inkscape:collect="always"
       id="linearGradient1177"><stop
         style="stop-color:#129f15;stop-opacity:1;"
         offset="0"
         id="stop1173" /><stop
         style="stop-color:#7edc29;stop-opacity:1;"
         offset="1"
         id="stop1175" /></linearGradient><linearGradient
       inkscape:collect="always"
       xlink:href="#linearGradient1177"
       id="linearGradient3040"
       x1="32"
       y1="62"
       x2="32"
       y2="2"
       gradientUnits="userSpaceOnUse" /></defs><path
     d="M 2,32 C 2,9.5 9.5,2 32,2 54.5,2 62,9.5 62,32 62,54.5 54.5,62 32,62 9.5,62 2,54.5 2,32"
     style="fill:url(#linearGradient3040);fill-opacity:1;stroke-width:0.3"
     id="path311" /><path
     id="rect293"
     style="fill:#ffffff;stroke-width:4;stroke-linecap:round;stroke-linejoin:round"
     d="m 16,17 c -2.215993,0 -4,1.784007 -4,4 v 18 c 0,2.215994 1.784007,4 4,4 h 24 c 2.215994,0 4,-1.784006 4,-4 V 21 c 0,-2.215993 -1.784006,-4 -4,-4 z m 0,2 h 6 v 4 h -8 v -2 c 0,-1.107996 0.892004,-2 2,-2 z m 8,0 h 8 v 4 h -8 z m 10,0 h 6 c 1.107994,0 2,0.892004 2,2 v 2 h -8 z m -20,6 h 8 v 4 h -8 z m 10,0 h 8 v 4 h -8 z m 10,0 h 8 v 4 h -8 z m -20,6 h 8 v 4 h -8 z m 10,0 h 8 v 4 h -8 z m 10,0 h 8 v 4 h -8 z m -20,6 h 8 v 4 h -6 c -1.107996,0 -2,-0.892006 -2,-2 z m 10,0 h 8 v 4 h -8 z m 10,0 h 8 v 2 c 0,1.107994 -0.892006,2 -2,2 h -6 z" /><rect
     style="fill:#c1f0aa;fill-opacity:1;stroke-width:4;stroke-linecap:round;stroke-linejoin:round"
     id="rect549"
     width="20"
     height="16"
     x="33"
     y="30"
     ry="2" /><path
     id="rect4651"
     style="fill:#4dad1f;fill-opacity:1;stroke-width:4;stroke-linecap:round;stroke-linejoin:round"
     d="m 41,32 v 12 h 4 V 32 Z m 6,4 v 8 h 4 v -8 z m -12,2 v 6 h 4 v -6 z" /></svg>
