<?xml version="1.0" encoding="UTF-8" standalone="no"?>
<!-- Created with Inkscape (http://www.inkscape.org/) -->

<svg
   width="64"
   height="64"
   viewBox="0 0 64 64"
   version="1.1"
   id="svg371"
   xml:space="preserve"
   inkscape:version="1.2.2 (b0a8486541, 2022-12-01)"
   sodipodi:docname="libreoffice-base.svg"
   xmlns:inkscape="http://www.inkscape.org/namespaces/inkscape"
   xmlns:sodipodi="http://sodipodi.sourceforge.net/DTD/sodipodi-0.dtd"
   xmlns:xlink="http://www.w3.org/1999/xlink"
   xmlns="http://www.w3.org/2000/svg"
   xmlns:svg="http://www.w3.org/2000/svg"><sodipodi:namedview
     id="namedview373"
     pagecolor="#ffffff"
     bordercolor="#000000"
     borderopacity="0.25"
     inkscape:showpageshadow="2"
     inkscape:pageopacity="0.0"
     inkscape:pagecheckerboard="0"
     inkscape:deskcolor="#d1d1d1"
     inkscape:document-units="px"
     showgrid="false"
     inkscape:zoom="12.34375"
     inkscape:cx="31.959494"
     inkscape:cy="32"
     inkscape:window-width="1920"
     inkscape:window-height="1011"
     inkscape:window-x="0"
     inkscape:window-y="0"
     inkscape:window-maximized="1"
     inkscape:current-layer="svg371"
     showguides="true" /><defs
     id="defs368"><linearGradient
       inkscape:collect="always"
       id="linearGradient1271"><stop
         style="stop-color:#9019ce;stop-opacity:1;"
         offset="0"
         id="stop1267" /><stop
         style="stop-color:#bd4ee2;stop-opacity:1;"
         offset="1"
         id="stop1269" /></linearGradient><linearGradient
       inkscape:collect="always"
       xlink:href="#linearGradient1271"
       id="linearGradient3040"
       x1="32"
       y1="62"
       x2="32"
       y2="2"
       gradientUnits="userSpaceOnUse" /></defs><path
     d="M 2,32 C 2,9.5 9.5,2 32,2 54.5,2 62,9.5 62,32 62,54.5 54.5,62 32,62 9.5,62 2,54.5 2,32"
     style="fill:url(#linearGradient3040);fill-opacity:1;stroke-width:0.3"
     id="path311" /><path
     id="rect293"
     style="fill:#ffffff;stroke-width:4;stroke-linecap:round;stroke-linejoin:round"
     d="m 38,23 c -2.215984,0 -4,1.784016 -4,4 v 15 c 0,2.215986 1.784016,4 4,4 h 10 c 2.215986,0 4,-1.784014 4,-4 V 27 c 0,-2.215984 -1.784014,-4 -4,-4 z m 0,2 h 4 v 5 h -6 v -3 c 0,-1.107988 0.89201,-2 2,-2 z m 6,0 h 4 c 1.107986,0 2,0.892012 2,2 v 3 h -6 z m -8,7 h 6 v 5 h -6 z m 8,0 h 6 v 5 h -6 z m -8,7 h 6 v 5 h -4 c -1.10799,0 -2,-0.892014 -2,-2 z m 8,0 h 6 v 3 c 0,1.107986 -0.892014,2 -2,2 h -4 z"
     sodipodi:nodetypes="sccssccssscccsscssccccccccccccccccsscccsscc" /><path
     id="path525"
     style="fill:#dd8ff5;fill-opacity:1;stroke-width:2.12132;stroke-linecap:round;stroke-linejoin:round"
     d="m 21,18 a 9,4 0 0 0 -9,4 v 2 a 9,4 0 0 0 9,4 9,4 0 0 0 9,-4 v -2 a 9,4 0 0 0 -9,-4 z m -9,8 v 4 c 0,2.209134 4.029447,4 9,4 4.970554,0 9,-1.790866 9,-4 v -4 a 9,4 0 0 1 -9,4 9,4 0 0 1 -9,-4 z m 0,6 v 4 c 0,2.209134 4.029448,4 9,4 4.970554,0 9,-1.790866 9,-4 v -4 a 9,4 0 0 1 -9,4 9,4 0 0 1 -9,-4 z m 0,6 v 4 c 0,2.209134 4.029447,4 9,4 4.970554,0 9,-1.790866 9,-4 v -4 a 9,4 0 0 1 -9,4 9,4 0 0 1 -9,-4 z" /></svg>
