<?xml version="1.0" encoding="UTF-8" standalone="no"?>
<!-- Created with Inkscape (http://www.inkscape.org/) -->

<svg
   width="64"
   height="64"
   viewBox="0 0 64 64"
   version="1.1"
   id="svg371"
   xml:space="preserve"
   inkscape:version="1.2.2 (1:1.2.2+202212051552+b0a8486541)"
   sodipodi:docname="libreoffice-math.svg"
   xmlns:inkscape="http://www.inkscape.org/namespaces/inkscape"
   xmlns:sodipodi="http://sodipodi.sourceforge.net/DTD/sodipodi-0.dtd"
   xmlns:xlink="http://www.w3.org/1999/xlink"
   xmlns="http://www.w3.org/2000/svg"
   xmlns:svg="http://www.w3.org/2000/svg"><sodipodi:namedview
     id="namedview373"
     pagecolor="#ffffff"
     bordercolor="#000000"
     borderopacity="0.25"
     inkscape:showpageshadow="2"
     inkscape:pageopacity="0.0"
     inkscape:pagecheckerboard="0"
     inkscape:deskcolor="#d1d1d1"
     inkscape:document-units="px"
     showgrid="false"
     inkscape:zoom="12.65625"
     inkscape:cx="32"
     inkscape:cy="32"
     inkscape:window-width="1920"
     inkscape:window-height="1012"
     inkscape:window-x="0"
     inkscape:window-y="0"
     inkscape:window-maximized="1"
     inkscape:current-layer="svg371"
     showguides="true" /><defs
     id="defs368"><linearGradient
       inkscape:collect="always"
       id="linearGradient1243"><stop
         style="stop-color:#dc2479;stop-opacity:1;"
         offset="0"
         id="stop1239" /><stop
         style="stop-color:#dc607d;stop-opacity:1;"
         offset="1"
         id="stop1241" /></linearGradient><linearGradient
       inkscape:collect="always"
       xlink:href="#linearGradient1243"
       id="linearGradient3040"
       x1="32"
       y1="62"
       x2="32"
       y2="2"
       gradientUnits="userSpaceOnUse" /></defs><path
     d="M 1.9999996,32 C 1.9999996,9.5 9.4999996,2 32,2 54.5,2 62,9.5 62,32 62,54.5 54.5,62 32,62 9.4999996,62 1.9999996,54.5 1.9999996,32"
     style="fill:url(#linearGradient3040);fill-opacity:1;stroke-width:0.3"
     id="path311" /><path
     id="rect293"
     style="fill:#ffffff;stroke-width:4;stroke-linecap:round;stroke-linejoin:round"
     d="m 27,18 v 0.0078 c -0.365962,0.04024 -0.693232,0.281727 -0.828124,0.652343 l -6.593751,18.101604 -1.613281,-6.01953 C 17.844551,30.29325 17.442932,29.998478 17,30 h -0.05859 -3.941407 c -0.553999,0 -1,0.446002 -1,1 0,0.554002 0.446001,1 1,1 h 3.234375 l 2.128907,7.953124 c 0.201366,0.685062 0.372567,0.992924 0.707031,1.128908 0.520588,0.18948 1.095677,-0.07706 1.285155,-0.597656 L 27.8125,20 H 51 c 0.554,0 1,-0.446 1,-1 0,-0.554 -0.446,-1 -1,-1 z"
     sodipodi:nodetypes="cccccccssscccccsssc" /><path
     id="rect1107"
     style="opacity:1;fill:#f693b8;fill-opacity:1;stroke-width:4;stroke-linecap:round;stroke-linejoin:round"
     d="m 32.343788,24.343786 c -0.783474,0.783472 -0.783474,2.044954 0,2.828428 L 37.171572,32 32.343788,36.827786 c -0.783474,0.783474 -0.783474,2.044954 0,2.828426 0.783472,0.783474 2.044952,0.783474 2.828426,0 L 40,34.828428 l 4.827786,4.827784 c 0.783474,0.783474 2.044954,0.783474 2.828426,0 0.783474,-0.783472 0.783474,-2.044952 0,-2.828426 L 42.828428,32 47.656212,27.172214 c 0.783474,-0.783474 0.783474,-2.044956 0,-2.828428 -0.783472,-0.783474 -2.044952,-0.783472 -2.828426,0 L 40,29.171572 35.172214,24.343786 c -0.783474,-0.783472 -2.044954,-0.783474 -2.828426,0 z"
     sodipodi:nodetypes="sscssscssscssscss" /><path
     id="rect1151"
     style="fill:#ffffff;stroke-width:4;stroke-linecap:round;stroke-linejoin:round"
     d="M 13 46 C 12.446002 46 12 46.446002 12 47 C 12 47.553998 12.446002 48 13 48 L 21 48 C 21.553998 48 22 47.553998 22 47 C 22 46.446002 21.553998 46 21 46 L 13 46 z M 28 46 C 27.446002 46 27 46.446002 27 47 C 27 47.553998 27.446002 48 28 48 L 36 48 C 36.553998 48 37 47.553998 37 47 C 37 46.446002 36.553998 46 36 46 L 28 46 z M 43 46 C 42.446002 46 42 46.446002 42 47 C 42 47.553998 42.446002 48 43 48 L 51 48 C 51.553998 48 52 47.553998 52 47 C 52 46.446002 51.553998 46 51 46 L 43 46 z " /></svg>
