<?xml version="1.0" encoding="UTF-8" standalone="no"?>
<!-- Created with Inkscape (http://www.inkscape.org/) -->

<svg
   width="64"
   height="64"
   viewBox="0 0 64 64"
   version="1.1"
   id="svg371"
   xml:space="preserve"
   inkscape:version="1.2.2 (b0a8486541, 2022-12-01)"
   sodipodi:docname="libreoffice-writer.svg"
   xmlns:inkscape="http://www.inkscape.org/namespaces/inkscape"
   xmlns:sodipodi="http://sodipodi.sourceforge.net/DTD/sodipodi-0.dtd"
   xmlns:xlink="http://www.w3.org/1999/xlink"
   xmlns="http://www.w3.org/2000/svg"
   xmlns:svg="http://www.w3.org/2000/svg"><sodipodi:namedview
     id="namedview373"
     pagecolor="#ffffff"
     bordercolor="#000000"
     borderopacity="0.25"
     inkscape:showpageshadow="2"
     inkscape:pageopacity="0.0"
     inkscape:pagecheckerboard="0"
     inkscape:deskcolor="#d1d1d1"
     inkscape:document-units="px"
     showgrid="false"
     inkscape:zoom="12.34375"
     inkscape:cx="31.959494"
     inkscape:cy="32"
     inkscape:window-width="1920"
     inkscape:window-height="1011"
     inkscape:window-x="0"
     inkscape:window-y="0"
     inkscape:window-maximized="1"
     inkscape:current-layer="svg371"
     showguides="true" /><defs
     id="defs368"><linearGradient
       inkscape:collect="always"
       id="linearGradient1147"><stop
         style="stop-color:#1171c6;stop-opacity:1;"
         offset="0"
         id="stop1143" /><stop
         style="stop-color:#3090ef;stop-opacity:1;"
         offset="1"
         id="stop1145" /></linearGradient><linearGradient
       inkscape:collect="always"
       xlink:href="#linearGradient1147"
       id="linearGradient3040"
       x1="32"
       y1="62"
       x2="32"
       y2="2"
       gradientUnits="userSpaceOnUse" /><linearGradient
       inkscape:collect="always"
       xlink:href="#linearGradient1147"
       id="linearGradient2139"
       x1="16"
       y1="31"
       x2="16"
       y2="1"
       gradientUnits="userSpaceOnUse"
       gradientTransform="scale(2)" /></defs><path
     d="M 2,32 C 2,9.5 9.5,2 32,2 54.5,2 62,9.5 62,32 62,54.5 54.5,62 32,62 9.5,62 2,54.5 2,32"
     style="fill:url(#linearGradient3040);fill-opacity:1;stroke-width:0.3"
     id="path311" /><rect
     style="fill:#97d1ed;fill-opacity:1;stroke-width:4.58258;stroke-linecap:round;stroke-linejoin:round"
     id="rect549"
     width="18"
     height="14"
     x="34"
     y="16"
     ry="2" /><path
     id="rect346"
     style="fill:#ffffff;stroke-width:1.99999;stroke-linecap:round;stroke-linejoin:round"
     d="M 13 16 C 12.446001 16 12 16.446001 12 17 C 12 17.553999 12.446001 18 13 18 L 29 18 C 29.553999 18 30 17.553999 30 17 C 30 16.446001 29.553999 16 29 16 L 13 16 z M 13 22 C 12.446001 22 12 22.446001 12 23 C 12 23.553999 12.446001 24 13 24 L 29 24 C 29.553999 24 30 23.553999 30 23 C 30 22.446001 29.553999 22 29 22 L 13 22 z M 13 28 C 12.446001 28 12 28.446001 12 29 C 12 29.553999 12.446001 30 13 30 L 29 30 C 29.553999 30 30 29.553999 30 29 C 30 28.446001 29.553999 28 29 28 L 13 28 z M 13 36 C 12.446001 36 12 36.446001 12 37 C 12 37.553999 12.446001 38 13 38 L 51 38 C 51.553999 38 52 37.553999 52 37 C 52 36.446001 51.553999 36 51 36 L 13 36 z M 13 42 C 12.446001 42 12 42.446001 12 43 C 12 43.553999 12.446001 44 13 44 L 51 44 C 51.553999 44 52 43.553999 52 43 C 52 42.446001 51.553999 42 51 42 L 13 42 z M 13 48 C 12.446001 48 12 48.446001 12 49 C 12 49.553999 12.446001 50 13 50 L 31 50 C 31.553999 50 32 49.553999 32 49 C 32 48.446001 31.553999 48 31 48 L 13 48 z " /><path
     id="rect1927"
     style="fill:url(#linearGradient2139);fill-opacity:1;stroke-width:4;stroke-linecap:round;stroke-linejoin:round"
     d="m 48,18 a 2,2 0 0 0 -2,2 2,2 0 0 0 2,2 2,2 0 0 0 2,-2 2,2 0 0 0 -2,-2 z m -8,2 -4,8 h 14 z" /></svg>
