<?xml version="1.0" encoding="UTF-8" standalone="no"?>
<!-- Created with Inkscape (http://www.inkscape.org/) -->

<svg
   width="64"
   height="64"
   viewBox="0 0 64 64"
   version="1.1"
   id="svg371"
   xml:space="preserve"
   inkscape:version="1.2.2 (1:1.2.2+202212051552+b0a8486541)"
   sodipodi:docname="manjaro-settings.svg"
   xmlns:inkscape="http://www.inkscape.org/namespaces/inkscape"
   xmlns:sodipodi="http://sodipodi.sourceforge.net/DTD/sodipodi-0.dtd"
   xmlns:xlink="http://www.w3.org/1999/xlink"
   xmlns="http://www.w3.org/2000/svg"
   xmlns:svg="http://www.w3.org/2000/svg"><sodipodi:namedview
     id="namedview373"
     pagecolor="#ffffff"
     bordercolor="#000000"
     borderopacity="0.25"
     inkscape:showpageshadow="2"
     inkscape:pageopacity="0.0"
     inkscape:pagecheckerboard="0"
     inkscape:deskcolor="#d1d1d1"
     inkscape:document-units="px"
     showgrid="false"
     inkscape:zoom="12.65625"
     inkscape:cx="32"
     inkscape:cy="32"
     inkscape:window-width="1920"
     inkscape:window-height="1012"
     inkscape:window-x="0"
     inkscape:window-y="0"
     inkscape:window-maximized="1"
     inkscape:current-layer="svg371" /><defs
     id="defs368"><linearGradient
       inkscape:collect="always"
       id="linearGradient920"><stop
         style="stop-color:#3f5d53;stop-opacity:1;"
         offset="0"
         id="stop916" /><stop
         style="stop-color:#4f7064;stop-opacity:1;"
         offset="1"
         id="stop918" /></linearGradient><linearGradient
       inkscape:collect="always"
       xlink:href="#linearGradient920"
       id="linearGradient3040"
       x1="32"
       y1="62"
       x2="32"
       y2="2"
       gradientUnits="userSpaceOnUse" /></defs><path
     d="M 2,32 C 2,9.5 9.5,2 32,2 54.5,2 62,9.5 62,32 62,54.500001 54.5,62 32,62 9.5,62 2,54.500001 2,32"
     style="fill:url(#linearGradient3040);fill-opacity:1.0;stroke-width:0.3"
     id="path311" /><path
     id="path289"
     style="fill:#ffffff"
     d="M 32 12 A 20 20 0 0 0 28.189453 12.414062 A 4 4 0 0 1 25.876953 17.21875 A 4 4 0 0 1 20.871094 15.412109 A 20 20 0 0 0 15.4375 20.835938 A 4 4 0 0 1 17.21875 25.876953 A 4 4 0 0 1 12.423828 28.144531 A 20 20 0 0 0 12 32 A 20 20 0 0 0 12.423828 35.855469 A 4 4 0 0 1 13.208984 35.666016 A 4 4 0 0 1 17.21875 38.123047 A 4 4 0 0 1 15.4375 43.164062 A 20 20 0 0 0 20.871094 48.587891 A 4 4 0 0 1 24.660156 46.490234 A 4 4 0 0 1 25.876953 46.78125 A 4 4 0 0 1 28.189453 51.585938 A 20 20 0 0 0 32 52 A 20 20 0 0 0 35.855469 51.576172 A 4 4 0 0 1 38.123047 46.78125 A 4 4 0 0 1 39.339844 46.490234 A 4 4 0 0 1 43.128906 48.587891 A 20 20 0 0 0 48.587891 43.128906 A 4 4 0 0 1 46.78125 38.123047 A 4 4 0 0 1 50.791016 35.666016 A 4 4 0 0 1 51.576172 35.855469 A 20 20 0 0 0 52 32 A 20 20 0 0 0 51.621094 28.134766 A 4 4 0 0 1 46.78125 25.876953 A 4 4 0 0 1 48.607422 20.859375 A 20 20 0 0 0 43.140625 15.392578 A 4 4 0 0 1 38.123047 17.21875 A 4 4 0 0 1 35.865234 12.378906 A 20 20 0 0 0 32 12 z " /><path
     id="rect4711"
     style="fill:#18462e;fill-opacity:1;stroke-width:4;stroke-linecap:round;stroke-linejoin:round"
     d="m 24,24 v 16 h 4 V 24 Z m 6,0 v 4 h 4 2 v 12 h 4 V 24 Z m 0,6 v 10 h 4 V 30 Z" /></svg>
