<?xml version="1.0" encoding="UTF-8" standalone="no"?>
<!-- Created with Inkscape (http://www.inkscape.org/) -->

<svg
   width="64"
   height="64"
   viewBox="0 0 64 64"
   version="1.1"
   id="svg371"
   xml:space="preserve"
   inkscape:version="1.2 (1:1.2.1+202207142221+cd75a1ee6d)"
   sodipodi:docname="multimedia-photo-manager.svg"
   xmlns:inkscape="http://www.inkscape.org/namespaces/inkscape"
   xmlns:sodipodi="http://sodipodi.sourceforge.net/DTD/sodipodi-0.dtd"
   xmlns:xlink="http://www.w3.org/1999/xlink"
   xmlns="http://www.w3.org/2000/svg"
   xmlns:svg="http://www.w3.org/2000/svg"><sodipodi:namedview
     id="namedview373"
     pagecolor="#ffffff"
     bordercolor="#000000"
     borderopacity="0.25"
     inkscape:showpageshadow="2"
     inkscape:pageopacity="0.0"
     inkscape:pagecheckerboard="0"
     inkscape:deskcolor="#d1d1d1"
     inkscape:document-units="px"
     showgrid="false"
     inkscape:zoom="12.890625"
     inkscape:cx="31.961212"
     inkscape:cy="32"
     inkscape:window-width="1920"
     inkscape:window-height="1018"
     inkscape:window-x="0"
     inkscape:window-y="28"
     inkscape:window-maximized="1"
     inkscape:current-layer="svg371"
     showguides="false" /><defs
     id="defs368"><linearGradient
       inkscape:collect="always"
       id="linearGradient2223"><stop
         style="stop-color:#ab1b50;stop-opacity:1;"
         offset="0"
         id="stop2219" /><stop
         style="stop-color:#b93f8a;stop-opacity:1;"
         offset="1"
         id="stop2221" /></linearGradient><linearGradient
       inkscape:collect="always"
       xlink:href="#linearGradient2223"
       id="linearGradient3040"
       x1="32"
       y1="62"
       x2="32"
       y2="2"
       gradientUnits="userSpaceOnUse" /></defs><path
     d="M 2,32 C 2,9.5 9.5,2 32,2 54.5,2 62,9.5 62,32 62,54.5 54.5,62 32,62 9.5,62 2,54.5 2,32"
     style="fill:url(#linearGradient3040);fill-opacity:1;stroke-width:0.3"
     id="path311" /><path
     id="path951"
     style="fill:#ffffff;stroke-width:2.66667;stroke-linecap:round;stroke-linejoin:round"
     d="m 32,12 c -2.945511,0 -5.333334,2.387823 -5.333334,5.333333 3.8e-5,0.06536 0.0079,0.146216 0.01823,0.234375 0.139821,1.46398 1.430556,6.351613 2.486978,9.533855 C 26.815165,24.450508 22.922602,20.599809 21.966145,20.046875 19.415261,18.574121 16.152441,19.449116 14.679688,22 c -1.472755,2.550884 -0.59776,5.813705 1.953124,7.286459 0.957458,0.552064 6.239386,1.9984 9.713542,2.713541 -3.474156,0.715141 -8.756084,2.161476 -9.713542,2.713541 -2.550884,1.472754 -3.425877,4.735576 -1.953124,7.286459 1.472754,2.550884 4.735573,3.425879 7.286457,1.953125 0.956457,-0.552936 4.849019,-4.403633 7.205729,-7.054688 -1.056422,3.182242 -2.347157,8.069875 -2.486978,9.533855 -0.01034,0.08816 -0.01819,0.16902 -0.01823,0.234375 C 26.666666,49.612176 29.054489,52 32,52 c 2.945509,0 5.333333,-2.387824 5.333333,-5.333333 -3.7e-5,-0.06535 -0.0079,-0.146216 -0.01823,-0.234375 -0.139822,-1.46398 -1.430555,-6.351613 -2.486979,-9.533855 2.356711,2.651055 6.249272,6.501752 7.205729,7.054688 C 44.584737,45.425879 47.847558,44.550884 49.320312,42 50.793065,39.449117 49.91807,36.186295 47.367188,34.713541 46.409729,34.161477 41.127802,32.715141 37.653645,32 41.127801,31.284859 46.409729,29.838521 47.367188,29.286459 49.918072,27.813705 50.793065,24.550885 49.320312,22 c -1.472754,-2.550883 -4.735575,-3.42588 -7.286458,-1.953125 -0.956457,0.552933 -4.849018,4.403633 -7.205729,7.054688 1.056424,-3.182242 2.347157,-8.069875 2.486979,-9.533855 0.01034,-0.08816 0.01819,-0.16902 0.01823,-0.234375 C 37.333333,14.387823 34.945509,12 32,12 Z m -1.539063,17.333333 h 3.078125 L 35.080729,32 33.539062,34.666667 H 30.460937 L 28.91927,32 Z" /><circle
     style="fill:#95144b;fill-opacity:1;stroke-width:4;stroke-linecap:round;stroke-linejoin:round"
     id="path2163"
     cx="32"
     cy="32"
     r="4" /></svg>
