<?xml version="1.0" encoding="UTF-8" standalone="no"?>
<!-- Created with Inkscape (http://www.inkscape.org/) -->

<svg
   width="64"
   height="64"
   viewBox="0 0 64 64"
   version="1.1"
   id="svg371"
   xml:space="preserve"
   inkscape:version="1.2.1 (1:1.2.1+202210291243+9c6d41e410)"
   sodipodi:docname="org.kde.kalendar.svg"
   xmlns:inkscape="http://www.inkscape.org/namespaces/inkscape"
   xmlns:sodipodi="http://sodipodi.sourceforge.net/DTD/sodipodi-0.dtd"
   xmlns:xlink="http://www.w3.org/1999/xlink"
   xmlns="http://www.w3.org/2000/svg"
   xmlns:svg="http://www.w3.org/2000/svg"><sodipodi:namedview
     id="namedview373"
     pagecolor="#ffffff"
     bordercolor="#000000"
     borderopacity="0.25"
     inkscape:showpageshadow="2"
     inkscape:pageopacity="0.0"
     inkscape:pagecheckerboard="0"
     inkscape:deskcolor="#d1d1d1"
     inkscape:document-units="px"
     showgrid="false"
     inkscape:zoom="12.890625"
     inkscape:cx="31.961212"
     inkscape:cy="32"
     inkscape:window-width="1920"
     inkscape:window-height="1018"
     inkscape:window-x="0"
     inkscape:window-y="28"
     inkscape:window-maximized="1"
     inkscape:current-layer="svg371"
     showguides="true" /><defs
     id="defs368"><linearGradient
       inkscape:collect="always"
       id="linearGradient1213"><stop
         style="stop-color:#1b94e6;stop-opacity:1;"
         offset="0"
         id="stop1209" /><stop
         style="stop-color:#46b6d7;stop-opacity:1;"
         offset="1"
         id="stop1211" /></linearGradient><linearGradient
       inkscape:collect="always"
       xlink:href="#linearGradient1213"
       id="linearGradient3040"
       x1="32"
       y1="62"
       x2="32"
       y2="2"
       gradientUnits="userSpaceOnUse" /></defs><path
     d="M 2,32 C 2,9.5 9.5,2 32,2 54.5,2 62,9.5 62,32 62,54.5 54.5,62 32,62 9.5,62 2,54.5 2,32"
     style="fill:url(#linearGradient3040);fill-opacity:1;stroke-width:0.3"
     id="path311" /><rect
     style="fill:#ffffff;stroke-width:5.4;stroke-linecap:round;stroke-linejoin:round"
     id="rect900"
     width="36"
     height="36"
     x="14"
     y="14"
     ry="6" /><path
     id="rect977"
     style="fill:#87c5e5;fill-opacity:1;stroke-width:6;stroke-linecap:round;stroke-linejoin:round"
     d="m 25,26 c -1.107998,0 -2,0.892 -2,2 v 4 c 0,1.107998 0.892002,2 2,2 h 4 c 1.108,0 2,-0.892002 2,-2 v -4 c 0,-1.108 -0.892,-2 -2,-2 z m 10,0 c -1.107998,0 -2,0.892 -2,2 v 4 c 0,1.107998 0.892002,2 2,2 h 4 c 1.108,0 2,-0.892002 2,-2 v -4 c 0,-1.108 -0.892,-2 -2,-2 z M 25,36 c -1.107998,0 -2,0.892 -2,2 v 4 c 0,1.107998 0.892002,2 2,2 h 4 c 1.108,0 2,-0.892002 2,-2 v -4 c 0,-1.108 -0.892,-2 -2,-2 z m 10,0 c -1.107998,0 -2,0.892 -2,2 v 4 c 0,1.107998 0.892002,2 2,2 h 4 c 1.108,0 2,-0.892002 2,-2 v -4 c 0,-1.108 -0.892,-2 -2,-2 z"
     sodipodi:nodetypes="ssssssssssssssssssssssssssssssssssss" /><path
     id="rect1103"
     style="fill:#2c86cd;fill-opacity:1;stroke-width:6;stroke-linecap:round;stroke-linejoin:round"
     d="m 24,20 c -0.554,0 -1,0.446 -1,1 v 2 c 0,0.554 0.446,1 1,1 h 6 c 0.554,0 1,-0.446 1,-1 v -2 c 0,-0.554 -0.446,-1 -1,-1 z m 10,0 c -0.554,0 -1,0.446 -1,1 v 2 c 0,0.554 0.446,1 1,1 h 6 c 0.554,0 1,-0.446 1,-1 v -2 c 0,-0.554 -0.446,-1 -1,-1 z" /><path
     style="color:#000000;fill:#226498;fill-opacity:1;stroke:none;stroke-width:2;stroke-linecap:round;stroke-linejoin:round;-inkscape-stroke:none"
     d="m 30.445312,37.106078 c -0.494068,-0.24549 -1.09361,-0.04448 -1.339844,0.44922 l -2.378906,2.757436 -1.01953,-1.019766 c -0.390508,-0.390424 -1.023556,-0.390424 -1.414064,0 -0.390424,0.390508 -0.390424,1.023556 0,1.414064 l 2,2.000234 c 0.48324,0.482302 1.296994,0.349322 1.601564,-0.26172 l 3,-3.999624 c 0.24549,-0.494068 0.04448,-1.09361 -0.44922,-1.339844 z"
     id="path1385"
     sodipodi:nodetypes="cccccccccc" /></svg>
