<?xml version="1.0" encoding="UTF-8" standalone="no"?>
<!-- Created with Inkscape (http://www.inkscape.org/) -->

<svg
   width="64"
   height="64"
   viewBox="0 0 64 64"
   version="1.1"
   id="svg371"
   xml:space="preserve"
   inkscape:version="1.2 (1:1.2.1+202207142221+cd75a1ee6d)"
   sodipodi:docname="org.gnome.Software.svg"
   xmlns:inkscape="http://www.inkscape.org/namespaces/inkscape"
   xmlns:sodipodi="http://sodipodi.sourceforge.net/DTD/sodipodi-0.dtd"
   xmlns:xlink="http://www.w3.org/1999/xlink"
   xmlns="http://www.w3.org/2000/svg"
   xmlns:svg="http://www.w3.org/2000/svg"><sodipodi:namedview
     id="namedview373"
     pagecolor="#ffffff"
     bordercolor="#000000"
     borderopacity="0.25"
     inkscape:showpageshadow="2"
     inkscape:pageopacity="0.0"
     inkscape:pagecheckerboard="0"
     inkscape:deskcolor="#d1d1d1"
     inkscape:document-units="px"
     showgrid="false"
     inkscape:zoom="12.890625"
     inkscape:cx="31.961212"
     inkscape:cy="32.077576"
     inkscape:window-width="1920"
     inkscape:window-height="1018"
     inkscape:window-x="0"
     inkscape:window-y="28"
     inkscape:window-maximized="1"
     inkscape:current-layer="svg371"
     showguides="true" /><defs
     id="defs368"><linearGradient
       inkscape:collect="always"
       id="linearGradient1349"><stop
         style="stop-color:#ef3b00;stop-opacity:1;"
         offset="0"
         id="stop1345" /><stop
         style="stop-color:#fe2794;stop-opacity:1;"
         offset="1"
         id="stop1347" /></linearGradient><linearGradient
       inkscape:collect="always"
       xlink:href="#linearGradient1349"
       id="linearGradient3040"
       x1="62"
       y1="62"
       x2="17.700407"
       y2="7.6766477"
       gradientUnits="userSpaceOnUse" /></defs><path
     d="M 2,32 C 2,9.5 9.5,2 32,2 54.5,2 62,9.5 62,32 62,54.5 54.5,62 32,62 9.5,62 2,54.5 2,32"
     style="fill:url(#linearGradient3040);fill-opacity:1;stroke-width:0.3"
     id="path311" /><path
     id="path898"
     style="fill:#ffffff;stroke-width:2"
     d="m 40,13 a 8,8 0 0 0 -8,8 8,8 0 0 0 8,8 8,8 0 0 0 8,-8 8,8 0 0 0 -8,-8 z M 16,23 c -2.215998,0 -4,1.784002 -4,4 v 8 c 0,2.215998 1.784002,4 4,4 h 8 c 2.215998,0 4,-1.784002 4,-4 v -8 c 0,-2.215998 -1.784002,-4 -4,-4 z m 29.277344,10.011718 a 2.9999064,2.9999068 0 0 0 -1.820312,0.414064 l -10,6 a 2.9999064,2.9999068 0 0 0 0,5.148436 l 10,6 A 2.9999064,2.9999068 0 0 0 48,48 V 36 a 2.9999064,2.9999068 0 0 0 -1.523438,-2.609376 2.9999064,2.9999068 0 0 0 -1.199218,-0.378906 z" /></svg>
