<?xml version="1.0" encoding="UTF-8" standalone="no"?>
<!-- Created with Inkscape (http://www.inkscape.org/) -->

<svg
   width="64"
   height="64"
   viewBox="0 0 64 64"
   version="1.1"
   id="svg371"
   xml:space="preserve"
   inkscape:version="1.2.1 (1:1.2.1+202210291243+9c6d41e410)"
   sodipodi:docname="plasmadiscover.svg"
   xmlns:inkscape="http://www.inkscape.org/namespaces/inkscape"
   xmlns:sodipodi="http://sodipodi.sourceforge.net/DTD/sodipodi-0.dtd"
   xmlns:xlink="http://www.w3.org/1999/xlink"
   xmlns="http://www.w3.org/2000/svg"
   xmlns:svg="http://www.w3.org/2000/svg"><sodipodi:namedview
     id="namedview373"
     pagecolor="#ffffff"
     bordercolor="#000000"
     borderopacity="0.25"
     inkscape:showpageshadow="2"
     inkscape:pageopacity="0.0"
     inkscape:pagecheckerboard="0"
     inkscape:deskcolor="#d1d1d1"
     inkscape:document-units="px"
     showgrid="false"
     inkscape:zoom="12.890625"
     inkscape:cx="31.961212"
     inkscape:cy="32"
     inkscape:window-width="1920"
     inkscape:window-height="1018"
     inkscape:window-x="0"
     inkscape:window-y="28"
     inkscape:window-maximized="1"
     inkscape:current-layer="svg371"
     showguides="true" /><defs
     id="defs368"><linearGradient
       inkscape:collect="always"
       id="linearGradient1171"><stop
         style="stop-color:#3de9de;stop-opacity:1;"
         offset="0"
         id="stop1167" /><stop
         style="stop-color:#3daee9;stop-opacity:1;"
         offset="1"
         id="stop1169" /></linearGradient><linearGradient
       inkscape:collect="always"
       xlink:href="#linearGradient1171"
       id="linearGradient3040"
       x1="62"
       y1="62"
       x2="17.700407"
       y2="7.6766477"
       gradientUnits="userSpaceOnUse" /></defs><path
     d="M 2,32 C 2,9.5 9.5,2 32,2 54.5,2 62,9.5 62,32 62,54.5 54.5,62 32,62 9.5,62 2,54.5 2,32"
     style="fill:url(#linearGradient3040);fill-opacity:1.0;stroke-width:0.3"
     id="path311" /><path
     id="rect790"
     style="fill:#ffffff;stroke-width:2.82842;stroke-linecap:round;stroke-linejoin:round"
     d="m 32,13 c -5.522836,0 -10,4.477164 -10,10 h -8 l 2,20 c 0.441,4.410002 3.568004,8 8,8 h 16 c 4.431996,0 7.559,-3.589998 8,-8 L 50,23 H 42 C 42,17.477164 37.522836,13 32,13 Z m 0,4 c 3.3137,0 6,2.6863 6,6 H 26 c 0,-3.3137 2.6863,-6 6,-6 z" /></svg>
