<?xml version="1.0" encoding="UTF-8" standalone="no"?>
<!-- Created with Inkscape (http://www.inkscape.org/) -->

<svg
   width="64"
   height="64"
   viewBox="0 0 64 64"
   version="1.1"
   id="svg371"
   xml:space="preserve"
   inkscape:version="1.2 (1:1.2.1+202207142221+cd75a1ee6d)"
   sodipodi:docname="ubuntusoftware.svg"
   xmlns:inkscape="http://www.inkscape.org/namespaces/inkscape"
   xmlns:sodipodi="http://sodipodi.sourceforge.net/DTD/sodipodi-0.dtd"
   xmlns:xlink="http://www.w3.org/1999/xlink"
   xmlns="http://www.w3.org/2000/svg"
   xmlns:svg="http://www.w3.org/2000/svg"><sodipodi:namedview
     id="namedview373"
     pagecolor="#ffffff"
     bordercolor="#000000"
     borderopacity="0.25"
     inkscape:showpageshadow="2"
     inkscape:pageopacity="0.0"
     inkscape:pagecheckerboard="0"
     inkscape:deskcolor="#d1d1d1"
     inkscape:document-units="px"
     showgrid="false"
     inkscape:zoom="12.890625"
     inkscape:cx="31.961212"
     inkscape:cy="32.077576"
     inkscape:window-width="1920"
     inkscape:window-height="1018"
     inkscape:window-x="0"
     inkscape:window-y="28"
     inkscape:window-maximized="1"
     inkscape:current-layer="svg371"
     showguides="true" /><defs
     id="defs368"><linearGradient
       inkscape:collect="always"
       id="linearGradient1065"><stop
         style="stop-color:#e95420;stop-opacity:1;"
         offset="0"
         id="stop1061" /><stop
         style="stop-color:#e78801;stop-opacity:1;"
         offset="1"
         id="stop1063" /></linearGradient><linearGradient
       inkscape:collect="always"
       xlink:href="#linearGradient1065"
       id="linearGradient3040"
       x1="32"
       y1="62"
       x2="32"
       y2="2"
       gradientUnits="userSpaceOnUse" /></defs><path
     d="M 2,32 C 2,9.5 9.5,2 32,2 54.5,2 62,9.5 62,32 62,54.5 54.5,62 32,62 9.5,62 2,54.5 2,32"
     style="fill:url(#linearGradient3040);fill-opacity:1;stroke-width:0.3"
     id="path311" /><path
     id="rect844"
     style="fill:#ffffff;stroke-width:6;stroke-linecap:round;stroke-linejoin:round"
     d="M 28,14 C 23.275498,24.643424 17.799505,37.495382 14,50 h 8 C 24.568372,41.266754 28.335826,31.986704 32,23.355468 35.664174,31.986704 39.431628,41.266754 42,50 h 8 C 46.200496,37.495382 40.724502,24.643424 36,14 Z" /><rect
     style="fill:#ffffff;stroke-width:6.32456;stroke-linecap:round;stroke-linejoin:round"
     id="rect980"
     width="40"
     height="8"
     x="12"
     y="34"
     ry="4" /><rect
     style="fill:#e95420;fill-opacity:1;stroke-width:4.0249;stroke-linecap:round;stroke-linejoin:round"
     id="rect982"
     width="36"
     height="4"
     x="14"
     y="36"
     ry="2" /></svg>
