<?xml version="1.0" encoding="UTF-8" standalone="no"?>
<!-- Created with Inkscape (http://www.inkscape.org/) -->

<svg
   width="64"
   height="64"
   viewBox="0 0 64 64"
   version="1.1"
   id="svg371"
   xml:space="preserve"
   inkscape:version="1.2.2 (1:1.2.2+202305151914+b0a8486541)"
   sodipodi:docname="utilities-system-monitor.svg"
   xmlns:inkscape="http://www.inkscape.org/namespaces/inkscape"
   xmlns:sodipodi="http://sodipodi.sourceforge.net/DTD/sodipodi-0.dtd"
   xmlns:xlink="http://www.w3.org/1999/xlink"
   xmlns="http://www.w3.org/2000/svg"
   xmlns:svg="http://www.w3.org/2000/svg"><sodipodi:namedview
     id="namedview373"
     pagecolor="#ffffff"
     bordercolor="#000000"
     borderopacity="0.25"
     inkscape:showpageshadow="2"
     inkscape:pageopacity="0.0"
     inkscape:pagecheckerboard="0"
     inkscape:deskcolor="#d1d1d1"
     inkscape:document-units="px"
     showgrid="false"
     inkscape:zoom="12.59375"
     inkscape:cx="32"
     inkscape:cy="32"
     inkscape:window-width="1920"
     inkscape:window-height="1008"
     inkscape:window-x="0"
     inkscape:window-y="0"
     inkscape:window-maximized="1"
     inkscape:current-layer="svg371" /><defs
     id="defs368"><linearGradient
       inkscape:collect="always"
       xlink:href="#linearGradient869"
       id="linearGradient3040"
       x1="32"
       y1="62"
       x2="32"
       y2="2"
       gradientUnits="userSpaceOnUse" /><linearGradient
       inkscape:collect="always"
       id="linearGradient869"><stop
         style="stop-color:#268f82;stop-opacity:1;"
         offset="0"
         id="stop865" /><stop
         style="stop-color:#31b7a5;stop-opacity:1;"
         offset="1"
         id="stop867" /></linearGradient></defs><path
     d="M 2,32 C 2,9.5 9.5,2 32,2 54.5,2 62,9.5 62,32 62,54.5 54.5,62 32,62 9.5,62 2,54.5 2,32"
     style="fill:url(#linearGradient3040);fill-opacity:1;stroke-width:0.3"
     id="path311" /><path
     style="color:#000000;fill:#18e1c7;fill-opacity:1;stroke-width:2;stroke-linecap:round;stroke-linejoin:round;-inkscape-stroke:none"
     d="m 28.179688,10.335937 c -8.64308,1.524008 -15.561957,8.050001 -17.585938,16.589845 -2.0239806,8.539842 1.229767,17.481744 8.269531,22.722656 7.039765,5.24091 16.536123,5.79055 24.136719,1.402344 A 2,2 0 0 0 43.730468,48.320312 2,2 0 0 0 41,47.589844 C 34.772824,51.185104 27.017684,50.731382 21.25,46.4375 15.482315,42.143618 12.826126,34.844358 14.484375,27.847656 16.142624,20.850954 21.793718,15.522058 28.875,14.273437 a 2,2 0 0 0 1.621094,-2.316406 2,2 0 0 0 -2.316406,-1.621094 z"
     id="path1023" /><path
     style="color:#000000;fill:#9bf8e7;fill-opacity:1;stroke-width:2;stroke-linecap:round;stroke-linejoin:round;-inkscape-stroke:none"
     d="m 35.820312,10.335937 a 2,2 0 0 0 -2.316406,1.621094 2,2 0 0 0 1.621094,2.316406 c 6.336234,1.117249 11.588512,5.524349 13.789062,11.570313 2.200552,6.045964 1.010684,12.797848 -3.125,17.726562 a 2,2 0 0 0 0.246094,2.816406 2,2 0 0 0 2.816406,-0.246094 C 53.901706,40.122098 55.359,31.859378 52.671874,24.476562 49.98475,17.093746 43.557582,11.700227 35.820312,10.335937 Z"
     id="path1029" /><path
     id="path2922"
     style="fill:#ffffff;fill-opacity:1;stroke:none;stroke-width:4;stroke-linecap:round;stroke-linejoin:round;stroke-opacity:1"
     d="m 32,22 v 4 a 6,6 0 0 1 6,6 6,6 0 0 1 -6,6 6,6 0 0 1 -6,-6 h 4 l -6,-6 -6,6 h 4 A 10,10 0 0 0 32,42 10,10 0 0 0 42,32 10,10 0 0 0 32,22 Z" /></svg>
