<?xml version="1.0" encoding="UTF-8" standalone="no"?>
<!-- Created with Inkscape (http://www.inkscape.org/) -->

<svg
   width="64"
   height="64"
   viewBox="0 0 64 64"
   version="1.1"
   id="svg371"
   xml:space="preserve"
   inkscape:version="1.2.2 (1:1.2.2+202212051552+b0a8486541)"
   sodipodi:docname="xorg.svg"
   xmlns:inkscape="http://www.inkscape.org/namespaces/inkscape"
   xmlns:sodipodi="http://sodipodi.sourceforge.net/DTD/sodipodi-0.dtd"
   xmlns:xlink="http://www.w3.org/1999/xlink"
   xmlns="http://www.w3.org/2000/svg"
   xmlns:svg="http://www.w3.org/2000/svg"><sodipodi:namedview
     id="namedview373"
     pagecolor="#ffffff"
     bordercolor="#000000"
     borderopacity="0.25"
     inkscape:showpageshadow="2"
     inkscape:pageopacity="0.0"
     inkscape:pagecheckerboard="0"
     inkscape:deskcolor="#d1d1d1"
     inkscape:document-units="px"
     showgrid="false"
     inkscape:zoom="12.65625"
     inkscape:cx="32"
     inkscape:cy="32"
     inkscape:window-width="1920"
     inkscape:window-height="1012"
     inkscape:window-x="0"
     inkscape:window-y="0"
     inkscape:window-maximized="1"
     inkscape:current-layer="svg371"
     showguides="false" /><defs
     id="defs368"><linearGradient
       inkscape:collect="always"
       id="linearGradient2587"><stop
         style="stop-color:#d3d3d3;stop-opacity:1;"
         offset="0"
         id="stop2583" /><stop
         style="stop-color:#e9e9e9;stop-opacity:1;"
         offset="1"
         id="stop2585" /></linearGradient><linearGradient
       inkscape:collect="always"
       xlink:href="#linearGradient3678"
       id="linearGradient3680"
       x1="11.2"
       y1="21.507999"
       x2="52.799999"
       y2="48.809299"
       gradientUnits="userSpaceOnUse"
       gradientTransform="matrix(1.0576923,0,0,1.0576923,-1.8461539,-2.7488462)" /><linearGradient
       inkscape:collect="always"
       id="linearGradient3678"><stop
         style="stop-color:#ec6e28;stop-opacity:1;"
         offset="0"
         id="stop3674" /><stop
         style="stop-color:#f3bf21;stop-opacity:1;"
         offset="1"
         id="stop3676" /></linearGradient><linearGradient
       inkscape:collect="always"
       xlink:href="#linearGradient2587"
       id="linearGradient2589"
       x1="16"
       y1="31"
       x2="16"
       y2="1"
       gradientUnits="userSpaceOnUse"
       gradientTransform="scale(2)" /></defs><path
     d="M 2,32 C 2,9.5 9.5,2 32,2 54.5,2 62,9.5 62,32 62,54.5 54.5,62 32,62 9.5,62 2,54.5 2,32"
     style="fill:url(#linearGradient2589);fill-opacity:1;stroke-width:0.3"
     id="path311" /><path
     id="rect2346"
     style="fill:#373a3d;fill-opacity:1;stroke-width:3.26598"
     d="M 14,14 28,33.386718 16,50 h 2 L 29,34.769532 34,27.847656 24,14 Z M 46,14 30,36.152344 40,50 H 50 L 36,30.613282 48,14 Z" /><path
     id="path3649"
     style="fill:url(#linearGradient3680);fill-opacity:1;stroke-width:1.05769"
     d="m 32,20 c -1.073872,0 -2.221284,0.08206 -3.253906,0.17968 1.839748,2.370498 3.363846,4.379034 5.121094,6.660156 -0.985876,-2.09687 -3.012376,-4.110532 -2.3125,-5.144532 0.694372,-1.022998 1.972688,-0.851562 2.070312,-0.851562 2.048748,0 4.023316,0.23022 5.867188,0.652344 l 0.429688,-0.585938 C 37.462004,20.284538 34.794,20 32,20 Z m 11.097656,1.914062 -0.398438,0.5625 c 5.681496,2.198624 9.523438,6.39338 9.523438,11.203126 0,7.085368 -8.331916,12.835936 -18.597656,12.835936 -10.26574,0 -18.601563,-5.746664 -18.601562,-12.83203 0,-3.563632 2.11326,-6.79027 5.515624,-9.117188 L 19.320312,22.59375 C 13.6842,25.214224 10,29.528932 10,34.410156 10,42.397522 19.856012,48.875 32,48.875 c 12.142614,0 22,-6.47885 22,-14.464844 0,-5.326744 -4.380724,-9.983972 -10.902344,-12.496094 z" /></svg>
