<?xml version="1.0" encoding="UTF-8" standalone="no"?>
<!-- Created with Inkscape (http://www.inkscape.org/) -->

<svg
   width="64"
   height="64"
   viewBox="0 0 64 64"
   version="1.1"
   id="svg371"
   xml:space="preserve"
   inkscape:version="1.2.2 (1:1.2.2+202212051552+b0a8486541)"
   sodipodi:docname="preferences-kde-connect.svg"
   xmlns:inkscape="http://www.inkscape.org/namespaces/inkscape"
   xmlns:sodipodi="http://sodipodi.sourceforge.net/DTD/sodipodi-0.dtd"
   xmlns="http://www.w3.org/2000/svg"
   xmlns:svg="http://www.w3.org/2000/svg"><sodipodi:namedview
   id="namedview373"
   pagecolor="#ffffff"
   bordercolor="#000000"
   borderopacity="0.25"
   inkscape:showpageshadow="2"
   inkscape:pageopacity="0.0"
   inkscape:pagecheckerboard="0"
   inkscape:deskcolor="#d1d1d1"
   inkscape:document-units="px"
   showgrid="false"
   inkscape:zoom="12.65625"
   inkscape:cx="31.960494"
   inkscape:cy="32"
   inkscape:window-width="1920"
   inkscape:window-height="1012"
   inkscape:window-x="0"
   inkscape:window-y="0"
   inkscape:window-maximized="1"
   inkscape:current-layer="svg371"
   showguides="true" />
    <defs
   id="defs368">
     <style
   id="current-color-scheme"
   type="text/css">
         .ColorScheme-Highlight { color:#3daee9; }
     </style>
    </defs>
    <path
   d="M 2,32 C 2,9.5 9.5,2 32,2 54.5,2 62,9.5 62,32 62,54.5 54.5,62 32,62 9.5,62 2,54.5 2,32"
   style="fill:currentColor;fill-opacity:1;stroke-width:0.3"
   class="ColorScheme-Highlight"
   id="path311" />
    <path
   id="rect1034"
   style="fill:#ffffff;stroke-width:6;stroke-linecap:round;stroke-linejoin:round"
   d="m 24,12 c -2.215998,0 -4,1.784002 -4,4 v 32 c 0,2.215998 1.784002,4 4,4 h 16 c 2.215998,0 4,-1.784002 4,-4 V 16 c 0,-2.215998 -1.784002,-4 -4,-4 z m 4.421876,10 c 0.02564,-0.0013 0.05216,0 0.07812,0 0.831004,0 1.5,0.668998 1.5,1.5 0,0.830994 -0.668996,1.5 -1.5,1.5 -0.830992,0 -1.5,-0.669006 -1.5,-1.5 0,-0.805034 0.627138,-1.459974 1.421876,-1.5 z m 5.86328,0 L 40,27.332032 34.285156,32.667968 32,30.535156 35.429688,27.332032 32,24.132812 Z M 26,28 c 1.108,0 2,0.892002 2,2 0,1.107988 -0.892,2 -2,2 -1.107984,0 -2,-0.892012 -2,-2 0,-1.107998 0.892016,-2 2,-2 z m 4,6 c 1.107994,0 2,0.892008 2,2 0,1.107992 -0.892006,2 -2,2 -1.107992,0 -2,-0.892008 -2,-2 0,-1.107992 0.892008,-2 2,-2 z m -2,10 h 8 c 1.107996,0 2,0.892004 2,2 0,1.107996 -0.892004,2 -2,2 h -8 c -1.107996,0 -2,-0.892004 -2,-2 0,-1.107996 0.892004,-2 2,-2 z" />
</svg>
