<?xml version="1.0" encoding="UTF-8" standalone="no"?>
<!-- Created with Inkscape (http://www.inkscape.org/) -->

<svg
   width="64"
   height="64"
   viewBox="0 0 64 64"
   version="1.1"
   id="svg371"
   xml:space="preserve"
   inkscape:version="1.2.2 (1:1.2.2+202212051552+b0a8486541)"
   sodipodi:docname="preferences-desktop-user-password.svg"
   xmlns:inkscape="http://www.inkscape.org/namespaces/inkscape"
   xmlns:sodipodi="http://sodipodi.sourceforge.net/DTD/sodipodi-0.dtd"
   xmlns="http://www.w3.org/2000/svg"
   xmlns:svg="http://www.w3.org/2000/svg"><sodipodi:namedview
   id="namedview373"
   pagecolor="#ffffff"
   bordercolor="#000000"
   borderopacity="0.25"
   inkscape:showpageshadow="2"
   inkscape:pageopacity="0.0"
   inkscape:pagecheckerboard="0"
   inkscape:deskcolor="#d1d1d1"
   inkscape:document-units="px"
   showgrid="false"
   inkscape:zoom="12.65625"
   inkscape:cx="31.960494"
   inkscape:cy="32"
   inkscape:window-width="1920"
   inkscape:window-height="1012"
   inkscape:window-x="0"
   inkscape:window-y="0"
   inkscape:window-maximized="1"
   inkscape:current-layer="svg371"
   showguides="true" />
    <defs
   id="defs368">
     <style
   id="current-color-scheme"
   type="text/css">
         .ColorScheme-Highlight { color:#3daee9; }
     </style>
    </defs>
    <path
   d="M 2,32 C 2,9.5 9.5,2 32,2 54.5,2 62,9.5 62,32 62,54.5 54.5,62 32,62 9.5,62 2,54.5 2,32"
   style="fill:currentColor;fill-opacity:1;stroke-width:0.3"
   class="ColorScheme-Highlight"
   id="path311" />
    
<path
   id="rect436"
   style="fill:#ffffff;stroke-width:2"
   d="m 32,12 c -5.539982,0 -10,4.460017 -10,10 v 6 h -2 c -2.215996,0 -4,1.784004 -4,4 v 16 c 0,2.215996 1.784004,4 4,4 h 24 c 2.215996,0 4,-1.784004 4,-4 V 32 c 0,-2.215996 -1.784004,-4 -4,-4 H 42 V 22 C 42,16.460017 37.539982,12 32,12 Z m 0,2 c 4.431988,0 8,3.568013 8,8 v 6 H 24 v -6 c 0,-4.431987 3.568012,-8 8,-8 z m 0,19.000438 c 2.209139,0 4,1.790861 4,4 -0.0039,1.425139 -0.765786,2.740557 -2,3.453124 V 48 h -4 v -7.546438 c -1.234214,-0.712567 -1.996086,-2.027985 -2,-3.453124 0,-2.209139 1.790861,-4 4,-4 z"
   sodipodi:nodetypes="sscsssssssscssssccsssccccccs" /></svg>
