<?xml version="1.0" encoding="UTF-8" standalone="no"?>
<!-- Created with Inkscape (http://www.inkscape.org/) -->

<svg
   width="32"
   height="32"
   viewBox="0 0 32 32"
   version="1.1"
   id="svg371"
   xml:space="preserve"
   inkscape:version="1.2.2 (1:1.2.2+202212051552+b0a8486541)"
   sodipodi:docname="preferences-desktop-user-password.svg"
   xmlns:inkscape="http://www.inkscape.org/namespaces/inkscape"
   xmlns:sodipodi="http://sodipodi.sourceforge.net/DTD/sodipodi-0.dtd"
   xmlns="http://www.w3.org/2000/svg"
   xmlns:svg="http://www.w3.org/2000/svg"><sodipodi:namedview
   id="namedview373"
   pagecolor="#ffffff"
   bordercolor="#000000"
   borderopacity="0.25"
   inkscape:showpageshadow="2"
   inkscape:pageopacity="0.0"
   inkscape:pagecheckerboard="0"
   inkscape:deskcolor="#d1d1d1"
   inkscape:document-units="px"
   showgrid="false"
   inkscape:zoom="25.3125"
   inkscape:cx="14.795062"
   inkscape:cy="16"
   inkscape:window-width="1920"
   inkscape:window-height="1012"
   inkscape:window-x="0"
   inkscape:window-y="0"
   inkscape:window-maximized="1"
   inkscape:current-layer="svg371"
   showguides="true" />
    <defs
   id="defs368">
     <style
   id="current-color-scheme"
   type="text/css">
         .ColorScheme-Highlight { color:#3daee9; }
     </style>
    </defs>
    <path
   d="M 1,16 C 1,4.75 4.75,1 16,1 27.25,1 31,4.75 31,16 31,27.25 27.25,31 16,31 4.75,31 1,27.25 1,16"
   style="fill:currentColor;fill-opacity:1;stroke-width:0.15"
   class="ColorScheme-Highlight"
   id="path311" />
    
<path
   id="rect436"
   style="fill:#ffffff"
   d="m 16,6 c -2.769991,0 -5,2.2300085 -5,5 v 3 H 9.9999999 C 8.8920022,14 8,14.892002 8,16 v 8 c 0,1.107998 0.8920022,2 1.9999999,2 H 22 c 1.107998,0 2,-0.892002 2,-2 v -8 c 0,-1.107998 -0.892002,-2 -2,-2 H 21 V 11 C 21,8.2300085 18.769991,6 16,6 Z m 0,1 c 2.215994,0 4,1.7840067 4,4 v 3 h -8 v -3 c 0,-2.2159933 1.784006,-4 4,-4 z m 0,10 a 2,2 0 0 1 2,2 2,2 0 0 1 -1,1.726562 V 24 H 15 V 20.726562 A 2,2 0 0 1 14,19 2,2 0 0 1 16,17 Z" /></svg>
