<?xml version="1.0" encoding="UTF-8" standalone="no"?>
<!-- Created with Inkscape (http://www.inkscape.org/) -->

<svg
   width="16"
   height="16"
   viewBox="0 0 16 16"
   version="1.1"
   id="svg371"
   xml:space="preserve"
   inkscape:version="1.2.2 (1:1.2.2+202212051552+b0a8486541)"
   sodipodi:docname="emblem-new.svg"
   xmlns:inkscape="http://www.inkscape.org/namespaces/inkscape"
   xmlns:sodipodi="http://sodipodi.sourceforge.net/DTD/sodipodi-0.dtd"
   xmlns="http://www.w3.org/2000/svg"
   xmlns:svg="http://www.w3.org/2000/svg"><sodipodi:namedview
     id="namedview373"
     pagecolor="#ffffff"
     bordercolor="#000000"
     borderopacity="0.25"
     inkscape:showpageshadow="2"
     inkscape:pageopacity="0.0"
     inkscape:pagecheckerboard="0"
     inkscape:deskcolor="#d1d1d1"
     inkscape:document-units="px"
     showgrid="false"
     inkscape:zoom="50.625"
     inkscape:cx="6.8148148"
     inkscape:cy="8"
     inkscape:window-width="1920"
     inkscape:window-height="1012"
     inkscape:window-x="0"
     inkscape:window-y="0"
     inkscape:window-maximized="1"
     inkscape:current-layer="svg371"
     showguides="true" /><defs
     id="defs368" /><path
     d="M 0,8 C 0,2 2,0 8,0 c 6,0 8,2 8,8 0,6 -2,8 -8,8 C 2,16 0,14 0,8"
     style="opacity:0.6;fill:#666666;fill-opacity:1;stroke-width:0.08"
     id="path311" /><path
     id="rect557"
     style="fill:#ffffff"
     d="M 8 3 C 7.4460012 3 7 3.4460016 7 4 L 7 7 L 4 7 C 3.4460016 7 3 7.4460012 3 8 C 3 8.5539988 3.4460016 9 4 9 L 7 9 L 7 12 C 7 12.553998 7.4460012 13 8 13 C 8.5539988 13 9 12.553998 9 12 L 9 9 L 12 9 C 12.553998 9 13 8.5539988 13 8 C 13 7.4460012 12.553998 7 12 7 L 9 7 L 9 4 C 9 3.4460016 8.5539988 3 8 3 z " /></svg>
