<?xml version="1.0" encoding="UTF-8" standalone="no"?>
<!-- Created with Inkscape (http://www.inkscape.org/) -->

<svg
   width="22"
   height="22"
   viewBox="0 0 22 22"
   version="1.1"
   id="svg405"
   inkscape:version="1.2.2 (1:1.2.2+202305151914+b0a8486541)"
   sodipodi:docname="fcitx-anthy.svg"
   xmlns:inkscape="http://www.inkscape.org/namespaces/inkscape"
   xmlns:sodipodi="http://sodipodi.sourceforge.net/DTD/sodipodi-0.dtd"
   xmlns="http://www.w3.org/2000/svg"
   xmlns:svg="http://www.w3.org/2000/svg">
  <sodipodi:namedview
     id="namedview407"
     pagecolor="#ffffff"
     bordercolor="#000000"
     borderopacity="0.25"
     inkscape:showpageshadow="2"
     inkscape:pageopacity="0.0"
     inkscape:pagecheckerboard="0"
     inkscape:deskcolor="#d1d1d1"
     inkscape:document-units="px"
     showgrid="false"
     inkscape:zoom="36.636364"
     inkscape:cx="11"
     inkscape:cy="11"
     inkscape:window-width="1920"
     inkscape:window-height="1008"
     inkscape:window-x="0"
     inkscape:window-y="0"
     inkscape:window-maximized="1"
     inkscape:current-layer="svg405" />
  <defs
     id="defs402">
    <style
       id="current-color-scheme"
       type="text/css">
         .ColorScheme-Text { color:#dfdfdf; }
        </style>
  </defs>
  <path
     id="path343"
     style="fill:currentColor;fill-opacity:1;stroke-linecap:round;stroke-linejoin:round"
     class="ColorScheme-Text"
     d="M 6 3 C 4.3380085 3 3 4.3380085 3 6 L 3 16 C 3 17.66199 4.3380085 19 6 19 L 16 19 C 17.66199 19 19 17.66199 19 16 L 19 6 C 19 4.3380085 17.66199 3 16 3 L 6 3 z M 6 4 L 16 4 C 17.107998 4 18 4.8920022 18 6 L 18 16 C 18 17.107998 17.107998 18 16 18 L 6 18 C 4.8920022 18 4 17.107998 4 16 L 4 6 C 4 4.8920022 4.8920022 4 6 4 z M 9.3339844 5 L 8.9453125 6.9335938 C 7.9321145 6.9652937 6.959098 6.9758688 6 6.9804688 L 6 8.0117188 L 8.6660156 8.0117188 C 8.2216166 9.9747145 7.7039269 12.438193 7.1113281 13.400391 L 8.1113281 14.177734 C 9.4447255 12.880838 10.669004 12.234375 12.1875 12.234375 C 12.965298 12.234375 13.556844 12.418664 13.964844 12.789062 C 14.371842 13.121962 14.576172 13.584736 14.576172 14.177734 C 14.576172 14.843734 14.261812 14.944344 13.632812 15.277344 C 13.039814 15.574342 12.150042 15.722656 10.964844 15.722656 C 9.8385458 15.722656 8.9442982 15.689047 8 15.498047 L 8 16.945312 C 9.1190978 17.006302 10.053974 17 11.076172 17 C 12.705768 17 13.929141 16.740656 14.744141 16.222656 C 15.596139 15.666658 16 15.251732 16 14.177734 C 16 13.251736 15.688484 12.492987 15.021484 11.900391 C 14.355486 11.307791 13.409998 11.011719 12.1875 11.011719 C 11.224502 11.011719 10.25897 11.474493 8.8886719 12.400391 L 8.7773438 12.345703 C 9.2588428 11.271605 9.6490131 9.2397851 9.9453125 8.0546875 C 12.904607 7.9216877 14.832002 7.9884684 16 7.8554688 L 16 6.5761719 C 14.609002 6.7398715 12.729652 6.8749627 10.222656 6.9765625 C 10.407756 6.1247643 10.537328 5.5555988 10.611328 5 L 9.3339844 5 z " />
</svg>
