<?xml version="1.0" encoding="UTF-8" standalone="no"?>
<!-- Created with Inkscape (http://www.inkscape.org/) -->

<svg
   width="22"
   height="22"
   viewBox="0 0 22 22"
   version="1.1"
   id="svg405"
   inkscape:version="1.2.2 (1:1.2.2+202305151914+b0a8486541)"
   sodipodi:docname="fcitx-chewing.svg"
   xmlns:inkscape="http://www.inkscape.org/namespaces/inkscape"
   xmlns:sodipodi="http://sodipodi.sourceforge.net/DTD/sodipodi-0.dtd"
   xmlns="http://www.w3.org/2000/svg"
   xmlns:svg="http://www.w3.org/2000/svg">
  <sodipodi:namedview
     id="namedview407"
     pagecolor="#ffffff"
     bordercolor="#000000"
     borderopacity="0.25"
     inkscape:showpageshadow="2"
     inkscape:pageopacity="0.0"
     inkscape:pagecheckerboard="0"
     inkscape:deskcolor="#d1d1d1"
     inkscape:document-units="px"
     showgrid="false"
     inkscape:zoom="36.636364"
     inkscape:cx="10.986352"
     inkscape:cy="11"
     inkscape:window-width="1920"
     inkscape:window-height="1008"
     inkscape:window-x="0"
     inkscape:window-y="0"
     inkscape:window-maximized="1"
     inkscape:current-layer="svg405" />
  <defs
     id="defs402">
    <style
       id="current-color-scheme"
       type="text/css">
         .ColorScheme-Text { color:#dfdfdf; }
        </style>
  </defs>
  <path
     id="path343"
     style="fill:currentColor;fill-opacity:1;stroke-linecap:round;stroke-linejoin:round"
     class="ColorScheme-Text"
     d="M 6 3 C 4.3380085 3 3 4.3380085 3 6 L 3 16 C 3 17.66199 4.3380085 19 6 19 L 16 19 C 17.66199 19 19 17.66199 19 16 L 19 6 C 19 4.3380085 17.66199 3 16 3 L 6 3 z M 6 4 L 16 4 C 17.107998 4 18 4.8920022 18 6 L 18 16 C 18 17.107998 17.107998 18 16 18 L 6 18 C 4.8920022 18 4 17.107998 4 16 L 4 6 C 4 4.8920022 4.8920022 4 6 4 z M 5 5 L 5 6 L 6 6 L 6 9 L 5 9 L 5 17 L 11 17 L 11 9 L 10.5 9 L 9 9 L 9 6 L 11 6 L 11 5 L 5 5 z M 11 9 L 11.400391 9.3007812 C 11.400391 9.3007813 11.798566 8.7895984 12.197266 8 L 14 8 L 14 10 L 12 10 L 12 11 L 17 11 L 17 10 L 15 10 L 15 8 L 17 8 L 17 7 L 15 7 L 15 5 L 14 5 L 14 7 L 12.617188 7 C 12.834586 6.3887012 13 5.7086986 13 5 L 12 5 C 12 6.7499965 10.599609 8.6992188 10.599609 8.6992188 L 11 9 z M 7 6 L 8 6 L 8 9 L 7 9 L 7 6 z M 7 10 L 8 10 L 8 13 L 9 13 L 9 10 L 10 10 L 10 16 L 6 16 L 6 15 L 9 15 L 9 14 L 6 14 L 6 13 L 7 13 L 7 10 z M 12 12 L 12 17 L 17 17 L 17 12 L 12 12 z M 13 13 L 16 13 L 16 16 L 13 16 L 13 13 z " />
</svg>
