<?xml version="1.0" encoding="UTF-8" standalone="no"?>
<!-- Created with Inkscape (http://www.inkscape.org/) -->

<svg
   width="22"
   height="22"
   viewBox="0 0 22 22"
   version="1.1"
   id="svg5"
   inkscape:version="1.2.2 (1:1.2.2+202305151914+b0a8486541)"
   sodipodi:docname="folder-new.svg"
   xmlns:inkscape="http://www.inkscape.org/namespaces/inkscape"
   xmlns:sodipodi="http://sodipodi.sourceforge.net/DTD/sodipodi-0.dtd"
   xmlns="http://www.w3.org/2000/svg"
   xmlns:svg="http://www.w3.org/2000/svg">
  <sodipodi:namedview
     id="namedview7"
     pagecolor="#ffffff"
     bordercolor="#000000"
     borderopacity="0.25"
     inkscape:showpageshadow="2"
     inkscape:pageopacity="0.0"
     inkscape:pagecheckerboard="0"
     inkscape:deskcolor="#d1d1d1"
     inkscape:document-units="px"
     showgrid="false"
     inkscape:zoom="36.636364"
     inkscape:cx="11"
     inkscape:cy="11"
     inkscape:window-width="1920"
     inkscape:window-height="1008"
     inkscape:window-x="0"
     inkscape:window-y="0"
     inkscape:window-maximized="1"
     inkscape:current-layer="svg5" />
  <defs
     id="defs2">
    <style
       id="current-color-scheme"
       type="text/css">
         .ColorScheme-Text { color:#dfdfdf; }
        </style>
  </defs>
  <path
     id="rect788"
     style="fill:currentColor;stroke:none"
     class="ColorScheme-Text"
     d="M 5,4 C 3.8920022,4 3,4.8920022 3,6 v 10 c 0,1.107998 0.8920022,2 2,2 h 7 V 17 H 5 C 4.4460012,17 4,16.553998 4,16 V 6 C 4,5.4460012 4.4460012,5 5,5 H 8.5 C 9.050835,4.99717 9.129922,5.1121009 9.412109,5.4121094 l 1.613282,2.1132812 C 11.415926,7.9446625 11.694738,8.002665 12.310547,8 H 17 c 0.673591,-0.00213 1.012178,0.3007602 1,1 v 2 h 1 V 9 C 19,7.8920022 18.107998,6.999982 17,7 H 12 L 10.154297,4.6542969 C 9.581874,4.0382464 9.309982,4 8.5,4 Z" />
  <path
     id="rect820"
     style="fill:#dfdfdf;fill-opacity:1;stroke-width:2;stroke-linecap:round"
     d="m 16,12 v 3 h -3 v 1 h 3 v 3 h 1 v -3 h 3 v -1 h -3 v -3 z" />
</svg>
