<?xml version="1.0" encoding="UTF-8" standalone="no"?>
<!-- Created with Inkscape (http://www.inkscape.org/) -->

<svg
   width="22"
   height="22"
   viewBox="0 0 22 22"
   version="1.1"
   id="svg5"
   inkscape:version="1.2.2 (1:1.2.2+202305151914+b0a8486541)"
   sodipodi:docname="media-playlist-play.svg"
   xmlns:inkscape="http://www.inkscape.org/namespaces/inkscape"
   xmlns:sodipodi="http://sodipodi.sourceforge.net/DTD/sodipodi-0.dtd"
   xmlns="http://www.w3.org/2000/svg"
   xmlns:svg="http://www.w3.org/2000/svg">
  <sodipodi:namedview
     id="namedview7"
     pagecolor="#ffffff"
     bordercolor="#000000"
     borderopacity="0.25"
     inkscape:showpageshadow="2"
     inkscape:pageopacity="0.0"
     inkscape:pagecheckerboard="0"
     inkscape:deskcolor="#d1d1d1"
     inkscape:document-units="px"
     showgrid="false"
     inkscape:zoom="36.636364"
     inkscape:cx="11"
     inkscape:cy="11"
     inkscape:window-width="1920"
     inkscape:window-height="1008"
     inkscape:window-x="0"
     inkscape:window-y="0"
     inkscape:window-maximized="1"
     inkscape:current-layer="svg5" />
  <defs
     id="defs2">
    <style
       id="current-color-scheme"
       type="text/css">
         .ColorScheme-Text { color:#dfdfdf; }
        </style>
  </defs>
  <path
     id="rect286"
     style="fill:currentColor;stroke-width:2;stroke-linecap:round;stroke-linejoin:round"
     class="ColorScheme-Text"
     d="M 3.5 4 C 3.2230009 4 3 4.2230009 3 4.5 C 3 4.7769991 3.2230009 5 3.5 5 L 18.5 5 C 18.777 5 19 4.7769991 19 4.5 C 19 4.2230009 18.777 4 18.5 4 L 3.5 4 z M 3.3359375 8 C 3.158693 8.0063022 3.0003135 8.1506575 3 8.3496094 L 3 12.650391 C 3.0004475 12.915659 3.2818592 13.083829 3.5136719 12.957031 L 7.3183594 10.806641 C 7.5606958 10.674075 7.5606958 10.325926 7.3183594 10.193359 L 3.5136719 8.0429688 C 3.4557187 8.0112691 3.395019 7.9978993 3.3359375 8 z M 9.5 8 C 9.2230009 8 9 8.2230009 9 8.5 C 9 8.7769991 9.2230009 9 9.5 9 L 18.5 9 C 18.777 9 19 8.7769991 19 8.5 C 19 8.2230009 18.777 8 18.5 8 L 9.5 8 z M 9.5 12 C 9.2230009 12 9 12.223 9 12.5 C 9 12.777 9.2230009 13 9.5 13 L 18.5 13 C 18.777 13 19 12.777 19 12.5 C 19 12.223 18.777 12 18.5 12 L 9.5 12 z M 3.5 16 C 3.2230009 16 3 16.223 3 16.5 C 3 16.777 3.2230009 17 3.5 17 L 18.5 17 C 18.777 17 19 16.777 19 16.5 C 19 16.223 18.777 16 18.5 16 L 3.5 16 z " />
</svg>
