<?xml version="1.0" encoding="UTF-8" standalone="no"?>
<!-- Created with Inkscape (http://www.inkscape.org/) -->

<svg
   width="22"
   height="22"
   viewBox="0 0 22 22"
   version="1.1"
   id="svg5"
   inkscape:version="1.2.2 (1:1.2.2+202305151914+b0a8486541)"
   sodipodi:docname="view-media-playlist.svg"
   xmlns:inkscape="http://www.inkscape.org/namespaces/inkscape"
   xmlns:sodipodi="http://sodipodi.sourceforge.net/DTD/sodipodi-0.dtd"
   xmlns="http://www.w3.org/2000/svg"
   xmlns:svg="http://www.w3.org/2000/svg">
  <sodipodi:namedview
     id="namedview7"
     pagecolor="#ffffff"
     bordercolor="#000000"
     borderopacity="0.25"
     inkscape:showpageshadow="2"
     inkscape:pageopacity="0.0"
     inkscape:pagecheckerboard="0"
     inkscape:deskcolor="#d1d1d1"
     inkscape:document-units="px"
     showgrid="false"
     inkscape:zoom="36.636364"
     inkscape:cx="11"
     inkscape:cy="11"
     inkscape:window-width="1920"
     inkscape:window-height="1008"
     inkscape:window-x="0"
     inkscape:window-y="0"
     inkscape:window-maximized="1"
     inkscape:current-layer="svg5" />
  <defs
     id="defs2">
    <style
       id="current-color-scheme"
       type="text/css">
         .ColorScheme-Text { color:#dfdfdf; }
        </style>
  </defs>
  <path
     id="rect286"
     style="fill:currentColor;stroke-width:2;stroke-linecap:round;stroke-linejoin:round"
     class="ColorScheme-Text"
     d="M 3.5,4 C 3.2230006,4 3,4.2230006 3,4.5 3,4.7769994 3.2230006,5 3.5,5 h 15 C 18.777,5 19,4.7769994 19,4.5 19,4.2230006 18.777,4 18.5,4 Z m 0,4 C 3.2230006,8 3,8.2230006 3,8.5 3,8.7769994 3.2230006,9 3.5,9 h 15 C 18.777,9 19,8.7769994 19,8.5 19,8.2230006 18.777,8 18.5,8 Z m 0,4 C 3.2230006,12 3,12.223 3,12.5 3,12.777 3.2230006,13 3.5,13 h 15 C 18.777,13 19,12.777 19,12.5 19,12.223 18.777,12 18.5,12 Z m 0,4 C 3.2230006,16 3,16.223 3,16.5 3,16.777 3.2230006,17 3.5,17 h 15 C 18.777,17 19,16.777 19,16.5 19,16.223 18.777,16 18.5,16 Z"
     sodipodi:nodetypes="ssssssssssssssssssssssssssss" />
</svg>
