<?xml version="1.0" encoding="UTF-8" standalone="no"?>
<!-- Created with Inkscape (http://www.inkscape.org/) -->

<svg
   width="16"
   height="16"
   viewBox="0 0 16 16.000001"
   version="1.1"
   id="svg5"
   inkscape:version="1.2.1 (9c6d41e410, 2022-07-14, custom)"
   sodipodi:docname="clocks-app-symbolic.svg"
   xmlns:inkscape="http://www.inkscape.org/namespaces/inkscape"
   xmlns:sodipodi="http://sodipodi.sourceforge.net/DTD/sodipodi-0.dtd"
   xmlns="http://www.w3.org/2000/svg"
   xmlns:svg="http://www.w3.org/2000/svg">
  <sodipodi:namedview
     id="namedview7"
     pagecolor="#ffffff"
     bordercolor="#000000"
     borderopacity="0.25"
     inkscape:showpageshadow="2"
     inkscape:pageopacity="0.0"
     inkscape:pagecheckerboard="0"
     inkscape:deskcolor="#d1d1d1"
     inkscape:document-units="px"
     showgrid="false"
     inkscape:zoom="45.25"
     inkscape:cx="7.9889503"
     inkscape:cy="8"
     inkscape:window-width="1920"
     inkscape:window-height="947"
     inkscape:window-x="0"
     inkscape:window-y="0"
     inkscape:window-maximized="1"
     inkscape:current-layer="svg5" />
  <defs
     id="defs2" />
  <path
     d="M 7.4999995,0 C 3.3578641,0 0,3.3578645 0,7.4999998 0,11.642135 3.3578641,15 7.4999995,15 11.642134,15 14.999998,11.642135 14.999998,7.4999998 14.999998,3.3578645 11.642134,0 7.4999995,0 Z m -0.025398,2 c 0.00854,-4.304e-4 0.016743,0 0.025398,0 0.2770015,0 0.5000001,0.2230001 0.5000001,0.5 v 4.9999998 l 2.5976564,1.5000004 c 0.23989,0.1385008 0.322095,0.4437038 0.183594,0.6835937 -0.138501,0.2398904 -0.443704,0.3201411 -0.683594,0.1816403 L 6.9999994,8.0000001 V 2.5 c 0,-0.2683438 0.2096957,-0.4866579 0.4746096,-0.5 z"
     style="fill:#4d4d4d;fill-opacity:1;stroke-width:16.1978;stroke-linecap:round;stroke-linejoin:round"
     id="path896" />
</svg>
