<?xml version="1.0" encoding="UTF-8" standalone="no"?>
<!-- Created with Inkscape (http://www.inkscape.org/) -->

<svg
   width="16"
   height="16"
   viewBox="0 0 16 16"
   version="1.1"
   id="svg5"
   inkscape:version="1.3 (0e150ed6c4, 2023-07-21)"
   sodipodi:docname="org.gnome.Settings-multitasking-symbolic.svg"
   xmlns:inkscape="http://www.inkscape.org/namespaces/inkscape"
   xmlns:sodipodi="http://sodipodi.sourceforge.net/DTD/sodipodi-0.dtd"
   xmlns="http://www.w3.org/2000/svg"
   xmlns:svg="http://www.w3.org/2000/svg">
  <sodipodi:namedview
     id="namedview7"
     pagecolor="#ffffff"
     bordercolor="#000000"
     borderopacity="0.25"
     inkscape:showpageshadow="2"
     inkscape:pageopacity="0.0"
     inkscape:pagecheckerboard="0"
     inkscape:deskcolor="#d1d1d1"
     inkscape:document-units="px"
     showgrid="false"
     inkscape:zoom="49.75"
     inkscape:cx="8"
     inkscape:cy="8"
     inkscape:window-width="1920"
     inkscape:window-height="1000"
     inkscape:window-x="0"
     inkscape:window-y="0"
     inkscape:window-maximized="1"
     inkscape:current-layer="svg5" />
  <defs
     id="defs2" />
  <path
     id="rect1"
     style="opacity:1;fill:#4d4d4d;fill-opacity:1;stroke:none;stroke-width:2"
     d="M 5 1 C 3.8920022 1 3 1.8920022 3 3 L 3 13 C 3 14.107998 3.8920022 15 5 15 L 11 15 C 12.107998 15 13 14.107998 13 13 L 13 3 C 13 1.8920022 12.107998 1 11 1 L 5 1 z M 1 3 C 0.44600055 3 0 3.4460006 0 4 L 0 12 C 0 12.553999 0.44600055 13 1 13 C 1.5539994 13 2 12.553999 2 12 L 2 4 C 2 3.4460006 1.5539994 3 1 3 z M 5 3 L 11 3 L 11 13 L 5 13 L 5 3 z M 15 3 C 14.446001 3 14 3.4460006 14 4 L 14 12 C 14 12.553999 14.446001 13 15 13 C 15.553999 13 16 12.553999 16 12 L 16 4 C 16 3.4460006 15.553999 3 15 3 z " />
</svg>
