<?xml version="1.0" encoding="UTF-8" standalone="no"?>
<!-- Created with Inkscape (http://www.inkscape.org/) -->

<svg
   width="16"
   height="16"
   viewBox="0 0 16 16"
   version="1.1"
   id="svg371"
   xml:space="preserve"
   inkscape:version="1.3.2 (091e20ef0f, 2023-11-25, custom)"
   sodipodi:docname="preferences-desktop-default-applications-symbolic.svg"
   xmlns:inkscape="http://www.inkscape.org/namespaces/inkscape"
   xmlns:sodipodi="http://sodipodi.sourceforge.net/DTD/sodipodi-0.dtd"
   xmlns="http://www.w3.org/2000/svg"
   xmlns:svg="http://www.w3.org/2000/svg"><path
     id="path945"
     style="color:#000000;fill:#4d4d4d;fill-opacity:1;stroke:none;stroke-width:2.35371;stroke-linecap:round;stroke-linejoin:round;-inkscape-stroke:none"
     d="M 7.9667969 1.2734375 C 7.5190229 1.2762499 7.1118751 1.5328703 6.9160156 1.9355469 L 5.4101562 5 L 2 5.5527344 C 1.0362586 5.699989 0.65896538 6.8883111 1.3613281 7.5644531 L 3.8457031 9.9570312 L 3.2832031 13.357422 C 3.1239384 14.319612 4.1372541 15.046378 4.9980469 14.587891 L 8.0390625 13 L 11.101562 14.548828 C 11.966945 14.996599 12.969724 14.258433 12.800781 13.298828 L 12.197266 9.9042969 L 14.650391 7.4824219 C 15.34289 6.7971176 14.951194 5.615492 13.986328 5.4804688 L 10.572266 5 L 9.0253906 1.921875 C 8.8245774 1.5217595 8.41447 1.2707816 7.9667969 1.2734375 z " /><sodipodi:namedview
     id="namedview373"
     pagecolor="#ffffff"
     bordercolor="#000000"
     borderopacity="0.25"
     inkscape:showpageshadow="2"
     inkscape:pageopacity="0.0"
     inkscape:pagecheckerboard="0"
     inkscape:deskcolor="#d1d1d1"
     inkscape:document-units="px"
     showgrid="false"
     inkscape:zoom="49.6875"
     inkscape:cx="7.9899371"
     inkscape:cy="8"
     inkscape:window-width="1920"
     inkscape:window-height="1008"
     inkscape:window-x="0"
     inkscape:window-y="0"
     inkscape:window-maximized="1"
     inkscape:current-layer="svg371"
     showguides="true"
     inkscape:lockguides="true" /><defs
     id="defs368" /></svg>
