<?xml version="1.0" encoding="UTF-8" standalone="no"?>
<!-- Created with Inkscape (http://www.inkscape.org/) -->

<svg
   width="16"
   height="16"
   viewBox="0 0 16 16.000001"
   version="1.1"
   id="svg5"
   inkscape:version="1.3 (0e150ed6c4, 2023-07-21)"
   sodipodi:docname="weather-app-symbolic.svg"
   xmlns:inkscape="http://www.inkscape.org/namespaces/inkscape"
   xmlns:sodipodi="http://sodipodi.sourceforge.net/DTD/sodipodi-0.dtd"
   xmlns="http://www.w3.org/2000/svg"
   xmlns:svg="http://www.w3.org/2000/svg">
  <sodipodi:namedview
     id="namedview7"
     pagecolor="#ffffff"
     bordercolor="#000000"
     borderopacity="0.25"
     inkscape:showpageshadow="2"
     inkscape:pageopacity="0.0"
     inkscape:pagecheckerboard="0"
     inkscape:deskcolor="#d1d1d1"
     inkscape:document-units="px"
     showgrid="false"
     inkscape:zoom="49.75"
     inkscape:cx="7.9899497"
     inkscape:cy="8"
     inkscape:window-width="1920"
     inkscape:window-height="1000"
     inkscape:window-x="0"
     inkscape:window-y="0"
     inkscape:window-maximized="1"
     inkscape:current-layer="svg5" />
  <defs
     id="defs2" />
  <path
     d="M 5.9999996,3.9999998 C 3.2385761,3.9999998 0.99999989,6.2385765 1,9 c -1.1e-7,2.761424 2.2385761,5 4.9999996,5 h 5.4999994 c 1.932997,0 3.5,-1.567003 3.5,-3.5 0,-1.932996 -1.567003,-3.4999999 -3.5,-3.4999999 -0.293971,0.00103 -0.586639,0.039088 -0.871094,0.11328 C 9.8620335,5.2312312 8.0322897,4.0005936 5.9999996,3.9999998 Z"
     style="fill:#4d4d4d;fill-opacity:1;stroke-width:2.5;stroke-linecap:round;stroke-linejoin:round"
     id="path1" />
  <path
     d="m 11.886994,1.0003415 c -0.213176,0.00822 -0.40464,0.1537002 -0.462891,0.3710937 l -0.259767,0.9648436 c -0.07169,0.2675615 0.08595,0.5415885 0.353514,0.6132814 0.267565,0.071693 0.541589,-0.085954 0.613282,-0.3535159 l 0.257815,-0.9667966 c 0.07169,-0.2675611 -0.08595,-0.5396352 -0.353518,-0.6113281 -0.05017,-0.013444 -0.09924,-0.0194759 -0.148435,-0.017578 z M 7.670197,1.1702634 c -0.080564,0.00218 -0.1613632,0.023123 -0.2363263,0.066406 -0.2398904,0.1385 -0.3220951,0.4437047 -0.1835943,0.6835938 L 7.7502761,2.787451 C 7.8887769,3.0273399 8.1939809,3.1075917 8.4338702,2.9690917 8.6737606,2.8305916 8.7540113,2.5273401 8.6155105,2.2874511 L 8.1155096,1.4202634 C 8.0202906,1.2553397 7.8474368,1.1654759 7.670197,1.1702634 Z m 2.2187496,2.515625 c -0.281359,0.013043 -0.559481,0.065641 -0.826172,0.1562502 0.89181,0.5288931 1.6313424,1.2798648 2.1464844,2.1796876 0.09675,-0.010318 0.193803,-0.017461 0.291016,-0.021468 0.499963,5.17e-4 0.996346,0.084348 1.46875,0.2480466 C 12.795504,5.0636702 11.934129,4.0955831 10.777619,3.7854979 10.488035,3.7080841 10.188484,3.6745081 9.8889466,3.6858884 Z m 5.1113284,0.1796875 c -0.08056,0.00218 -0.161363,0.025096 -0.236326,0.06836 l -0.86719,0.4999993 c -0.23989,0.1385008 -0.320141,0.4437044 -0.18164,0.6835937 0.138501,0.2398904 0.441751,0.3201411 0.68164,0.1816403 L 15.263947,4.7991698 C 15.503836,4.6606697 15.584088,4.3574182 15.445587,4.117529 15.350371,3.9526055 15.177515,3.8607883 15.000275,3.8655759 Z"
     style="opacity:0.4;fill:#4d4d4d;fill-opacity:1;stroke-width:7.55905;stroke-linecap:round;stroke-linejoin:round"
     id="path1-1" />
</svg>
