<?xml version="1.0" encoding="UTF-8" standalone="no"?>
<!-- Created with Inkscape (http://www.inkscape.org/) -->

<svg
   width="64"
   height="64"
   viewBox="0 0 64 64"
   version="1.1"
   id="svg371"
   xml:space="preserve"
   inkscape:version="1.2.2 (1:1.2.2+202305151914+b0a8486541)"
   sodipodi:docname="folder-yellow-videos.svg"
   xmlns:inkscape="http://www.inkscape.org/namespaces/inkscape"
   xmlns:sodipodi="http://sodipodi.sourceforge.net/DTD/sodipodi-0.dtd"
   xmlns:xlink="http://www.w3.org/1999/xlink"
   xmlns="http://www.w3.org/2000/svg"
   xmlns:svg="http://www.w3.org/2000/svg"><sodipodi:namedview
     id="namedview373"
     pagecolor="#ffffff"
     bordercolor="#000000"
     borderopacity="0.25"
     inkscape:showpageshadow="2"
     inkscape:pageopacity="0.0"
     inkscape:pagecheckerboard="0"
     inkscape:deskcolor="#d1d1d1"
     inkscape:document-units="px"
     showgrid="false"
     inkscape:zoom="12.59375"
     inkscape:cx="32.238213"
     inkscape:cy="32"
     inkscape:window-width="1920"
     inkscape:window-height="1008"
     inkscape:window-x="0"
     inkscape:window-y="0"
     inkscape:window-maximized="1"
     inkscape:current-layer="svg371"
     showguides="false" /><defs
     id="defs368"><linearGradient
       inkscape:collect="always"
       xlink:href="#linearGradient19728"
       id="linearGradient3251"
       x1="16"
       y1="31"
       x2="16"
       y2="1"
       gradientUnits="userSpaceOnUse"
       gradientTransform="scale(2)" /><linearGradient
       inkscape:collect="always"
       id="linearGradient19728"><stop
         style="stop-color:#ff9b11;stop-opacity:1;"
         offset="0"
         id="stop19724" /><stop
         style="stop-color:#f9c100;stop-opacity:1;"
         offset="1"
         id="stop19726" /></linearGradient></defs><path
     d="M 2,32 C 2,9.5 9.5,2 32,2 54.5,2 62,9.5 62,32 62,54.5 54.5,62 32,62 9.5,62 2,54.5 2,32"
     style="fill:url(#linearGradient3251);fill-opacity:1.0;stroke-width:0.3"
     id="path311" /><path
     d="m 15,14 c -1.662,0 -3,1.338 -3,3 v 13 h 21 v -8 c -1.10457,0 -2,-0.895432 -2,-2 v -3 c 0,-1.662 -1.338,-3 -3,-3 z"
     style="opacity:1;fill:#ffea92;fill-opacity:1;stroke-width:4;stroke-linecap:round;stroke-linejoin:round"
     id="path294"
     sodipodi:nodetypes="sscccssss" /><rect
     style="opacity:0.99;fill:#ffffff;fill-opacity:1;stroke-width:1.42878"
     id="rect556"
     width="40"
     height="30"
     x="12"
     y="20"
     ry="4" /><path
     d="M 27.375288,26.709167 C 26.305381,26.093287 25.001928,26.911203 25,28.199655 v 13.600691 c 0.002,1.288452 1.305381,2.106368 2.375288,1.490487 l 11.785854,-6.797685 c 1.118477,-0.643891 1.118477,-2.342404 0,-2.986297 z"
     style="color:#000000;fill:#eaaa00;fill-opacity:1;stroke-width:2.64998;stroke-linecap:round;stroke-linejoin:round;stroke-miterlimit:1"
     id="path11025"
     sodipodi:nodetypes="ccccccc" /></svg>
