<?xml version="1.0" encoding="UTF-8" standalone="no"?>
<!-- Created with Inkscape (http://www.inkscape.org/) -->

<svg
   width="64"
   height="64"
   viewBox="0 0 64 64"
   version="1.1"
   id="svg371"
   xml:space="preserve"
   inkscape:version="1.2.2 (1:1.2.2+202305151914+b0a8486541)"
   sodipodi:docname="folder-default-documents.svg"
   xmlns:inkscape="http://www.inkscape.org/namespaces/inkscape"
   xmlns:sodipodi="http://sodipodi.sourceforge.net/DTD/sodipodi-0.dtd"
   xmlns:xlink="http://www.w3.org/1999/xlink"
   xmlns="http://www.w3.org/2000/svg"
   xmlns:svg="http://www.w3.org/2000/svg"><sodipodi:namedview
     id="namedview373"
     pagecolor="#ffffff"
     bordercolor="#000000"
     borderopacity="0.25"
     inkscape:showpageshadow="2"
     inkscape:pageopacity="0.0"
     inkscape:pagecheckerboard="0"
     inkscape:deskcolor="#d1d1d1"
     inkscape:document-units="px"
     showgrid="false"
     inkscape:zoom="12.59375"
     inkscape:cx="32"
     inkscape:cy="32"
     inkscape:window-width="1920"
     inkscape:window-height="1008"
     inkscape:window-x="0"
     inkscape:window-y="0"
     inkscape:window-maximized="1"
     inkscape:current-layer="svg371"
     showguides="false" /><defs
     id="defs368"><linearGradient
       inkscape:collect="always"
       id="linearGradient7272"><stop
         style="stop-color:#637588;stop-opacity:1;"
         offset="0"
         id="stop7268" /><stop
         style="stop-color:#8aa8bd;stop-opacity:1;"
         offset="1"
         id="stop7270" /></linearGradient><linearGradient
       inkscape:collect="always"
       xlink:href="#linearGradient7272"
       id="linearGradient3251"
       x1="16"
       y1="31"
       x2="16"
       y2="1"
       gradientUnits="userSpaceOnUse"
       gradientTransform="scale(2)" /></defs><path
     d="M 2,32 C 2,9.5 9.5,2 32,2 54.5,2 62,9.5 62,32 62,54.5 54.5,62 32,62 9.5,62 2,54.5 2,32"
     style="fill:url(#linearGradient3251);fill-opacity:1.0;stroke-width:0.3"
     id="path311" /><path
     d="m 15,14 c -1.662,0 -3,1.338 -3,3 v 13 h 21 v -8 c -1.10457,0 -2,-0.895432 -2,-2 v -3 c 0,-1.662 -1.338,-3 -3,-3 z"
     style="opacity:1;fill:#c2cbd3;fill-opacity:1;stroke-width:4;stroke-linecap:round;stroke-linejoin:round"
     id="path294"
     sodipodi:nodetypes="sscccssss" /><rect
     style="opacity:0.99;fill:#ffffff;fill-opacity:1;stroke-width:1.42878"
     id="rect556"
     width="40"
     height="30"
     x="12"
     y="20"
     ry="4" /><path
     d="m 27,25 c -1.661996,0 -3,1.338004 -3,3 v 14 c 0,1.661996 1.338004,3 3,3 h 10 c 1.661996,0 3,-1.338004 3,-3 V 31 l -6,-6 z m 0,2 h 6 v 3 c 0,1.107999 0.892001,2 2,2 h 3 v 10 c 0,0.553998 -0.446002,1 -1,1 H 27 c -0.553998,0 -1,-0.446002 -1,-1 V 28 c 0,-0.553998 0.446002,-1 1,-1 z"
     style="fill:#677d90;stroke-linecap:round;stroke-linejoin:round"
     id="path7965" /></svg>
