<?xml version="1.0" encoding="UTF-8" standalone="no"?>
<!-- Created with Inkscape (http://www.inkscape.org/) -->

<svg
   width="64"
   height="64"
   viewBox="0 0 64 64"
   version="1.1"
   id="svg371"
   xml:space="preserve"
   inkscape:version="1.2.2 (1:1.2.2+202305151914+b0a8486541)"
   sodipodi:docname="user-trash-full.svg"
   xmlns:inkscape="http://www.inkscape.org/namespaces/inkscape"
   xmlns:sodipodi="http://sodipodi.sourceforge.net/DTD/sodipodi-0.dtd"
   xmlns:xlink="http://www.w3.org/1999/xlink"
   xmlns="http://www.w3.org/2000/svg"
   xmlns:svg="http://www.w3.org/2000/svg"><sodipodi:namedview
     id="namedview373"
     pagecolor="#ffffff"
     bordercolor="#000000"
     borderopacity="0.25"
     inkscape:showpageshadow="2"
     inkscape:pageopacity="0.0"
     inkscape:pagecheckerboard="0"
     inkscape:deskcolor="#d1d1d1"
     inkscape:document-units="px"
     showgrid="false"
     inkscape:zoom="12.59375"
     inkscape:cx="31.960298"
     inkscape:cy="32"
     inkscape:window-width="1920"
     inkscape:window-height="1008"
     inkscape:window-x="0"
     inkscape:window-y="0"
     inkscape:window-maximized="1"
     inkscape:current-layer="svg371"
     showguides="true" /><defs
     id="defs368"><linearGradient
       inkscape:collect="always"
       xlink:href="#linearGradient2308"
       id="linearGradient3251"
       x1="16"
       y1="31"
       x2="16"
       y2="1"
       gradientUnits="userSpaceOnUse"
       gradientTransform="scale(2)" /><linearGradient
       inkscape:collect="always"
       id="linearGradient2308"><stop
         style="stop-color:#b44859;stop-opacity:1;"
         offset="0"
         id="stop2304" /><stop
         style="stop-color:#b67d8a;stop-opacity:1;"
         offset="1"
         id="stop2306" /></linearGradient></defs><path
     d="M 2,32 C 2,9.5 9.5,2 32,2 54.5,2 62,9.5 62,32 62,54.5 54.5,62 32,62 9.5,62 2,54.5 2,32"
     style="fill:url(#linearGradient3251);fill-opacity:1.0;stroke-width:0.3"
     id="path311" /><path
     id="rect292"
     style="fill:#ffffff;stroke-width:3;stroke-linecap:round"
     d="m 28,12 c -1.661992,0 -3,1.338008 -3,3 v 3 h -8.5 c -0.830998,0 -1.5,0.669003 -1.5,1.5 0,0.830996 0.669002,1.5 1.5,1.5 h 31 C 48.330995,21 49,20.330996 49,19.5 49,18.669003 48.330995,18 47.5,18 H 39 v -3 c 0,-1.661992 -1.338008,-3 -3,-3 z m 0,3 h 8 v 3 h -8 z m -8.496094,9 c -0.830997,0 -1.567613,0.671758 -1.5,1.5 l 2,23.5 c 0.135225,1.656485 1.338005,3 3,3 h 18 c 1.661996,0 2.864779,-1.343515 3,-3 l 2,-23.5 c 0.0827,-0.826872 -0.669004,-1.5 -1.5,-1.5 z"
     sodipodi:nodetypes="sscsssssscssscccccsccssccss" /><path
     id="rect536"
     style="fill:#a62c42;fill-opacity:1;stroke-width:4;stroke-linecap:round"
     d="m 25,27 c -1.107998,0 -2,0.892002 -2,2 v 18 c 0,1.107998 0.892002,2 2,2 1.107998,0 2,-0.892002 2,-2 V 29 c 0,-1.107998 -0.892002,-2 -2,-2 z m 7,0 c -1.107998,0 -2,0.892002 -2,2 v 18 c 0,1.107998 0.892002,2 2,2 1.107998,0 2,-0.892002 2,-2 V 29 c 0,-1.107998 -0.892002,-2 -2,-2 z m 7,0 c -1.107998,0 -2,0.892002 -2,2 v 18 c 0,1.107998 0.892002,2 2,2 1.107998,0 2,-0.892002 2,-2 V 29 c 0,-1.107998 -0.892002,-2 -2,-2 z"
     sodipodi:nodetypes="sssssssssssssssssssss" /></svg>
