<?xml version="1.0" encoding="UTF-8" standalone="no"?>
<!-- Created with Inkscape (http://www.inkscape.org/) -->

<svg
   width="64"
   height="64"
   viewBox="0 0 64 64"
   version="1.1"
   id="svg371"
   xml:space="preserve"
   inkscape:version="1.2 (1:1.2.1+202207142221+cd75a1ee6d)"
   sodipodi:docname="accessories-clock.svg"
   xmlns:inkscape="http://www.inkscape.org/namespaces/inkscape"
   xmlns:sodipodi="http://sodipodi.sourceforge.net/DTD/sodipodi-0.dtd"
   xmlns:xlink="http://www.w3.org/1999/xlink"
   xmlns="http://www.w3.org/2000/svg"
   xmlns:svg="http://www.w3.org/2000/svg"><sodipodi:namedview
     id="namedview373"
     pagecolor="#ffffff"
     bordercolor="#000000"
     borderopacity="0.25"
     inkscape:showpageshadow="2"
     inkscape:pageopacity="0.0"
     inkscape:pagecheckerboard="0"
     inkscape:deskcolor="#d1d1d1"
     inkscape:document-units="px"
     showgrid="false"
     inkscape:zoom="12.890625"
     inkscape:cx="31.961212"
     inkscape:cy="32"
     inkscape:window-width="1920"
     inkscape:window-height="1018"
     inkscape:window-x="0"
     inkscape:window-y="28"
     inkscape:window-maximized="1"
     inkscape:current-layer="svg371"
     showguides="false" /><defs
     id="defs368"><linearGradient
       inkscape:collect="always"
       id="linearGradient16694"><stop
         style="stop-color:#4449bb;stop-opacity:1;"
         offset="0"
         id="stop16690" /><stop
         style="stop-color:#695bc5;stop-opacity:1;"
         offset="1"
         id="stop16692" /></linearGradient><linearGradient
       inkscape:collect="always"
       xlink:href="#linearGradient16694"
       id="linearGradient3040"
       x1="32"
       y1="62"
       x2="32"
       y2="2"
       gradientUnits="userSpaceOnUse" /></defs><path
     d="M 2,32 C 2,9.5 9.5,2 32,2 54.5,2 62,9.5 62,32 62,54.5 54.5,62 32,62 9.5,62 2,54.5 2,32"
     style="fill:url(#linearGradient3040);fill-opacity:1;stroke-width:0.3"
     id="path311" /><circle
     style="fill:#ffffff;stroke-width:6;stroke-linecap:round;stroke-linejoin:round"
     id="path920"
     cx="32"
     cy="32"
     r="20" /><path
     id="rect1026"
     style="fill:#4233a1;fill-opacity:1;stroke-width:6;stroke-linecap:round;stroke-linejoin:round"
     d="m 32,18 c -1.107998,0 -2,0.892001 -2,2 V 31.984376 32 c 0,0.0134 0.0036,0.02578 0.004,0.03906 10e-4,0.05476 0.0022,0.10958 0.0078,0.16406 0.0056,0.0545 0.0134,0.11016 0.02344,0.16406 0.0104,0.05622 0.02408,0.11354 0.03906,0.16796 0.0026,0.0092 0.0052,0.0182 0.0078,0.02734 0.017,0.05846 0.03658,0.11578 0.0586,0.17188 0.0162,0.04124 0.032,0.08126 0.05078,0.1211 0.0156,0.03306 0.03328,0.06536 0.05078,0.09766 0.0246,0.0454 0.0498,0.08912 0.07812,0.13282 0.03496,0.05414 0.0734,0.1059 0.11328,0.15626 0.03228,0.04072 0.06626,0.07914 0.10156,0.11718 0.0144,0.0156 0.028,0.03174 0.04296,0.04688 0.0136,0.0138 0.0289,0.02564 0.04298,0.03906 0.03136,0.02992 0.06006,0.06158 0.09374,0.08984 0.0036,0.003 0.0082,0.0048 0.0118,0.0078 l 9.183234,7.703126 c 0.848776,0.712208 2.104198,0.602682 2.816406,-0.246094 0.712208,-0.848776 0.602684,-2.104198 -0.246094,-2.816406 L 34,31.066406 V 20 c 0,-1.107999 -0.892002,-2 -2,-2 z"
     sodipodi:nodetypes="sscscscscscscscscsccsccss" /></svg>
