<?xml version="1.0" encoding="UTF-8" standalone="no"?>
<!-- Created with Inkscape (http://www.inkscape.org/) -->

<svg
   width="64"
   height="64"
   viewBox="0 0 64 64"
   version="1.1"
   id="svg371"
   xml:space="preserve"
   inkscape:version="1.2.2 (1:1.2.2+202305151914+b0a8486541)"
   sodipodi:docname="applications-graphics.svg"
   xmlns:inkscape="http://www.inkscape.org/namespaces/inkscape"
   xmlns:sodipodi="http://sodipodi.sourceforge.net/DTD/sodipodi-0.dtd"
   xmlns:xlink="http://www.w3.org/1999/xlink"
   xmlns="http://www.w3.org/2000/svg"
   xmlns:svg="http://www.w3.org/2000/svg"><sodipodi:namedview
     id="namedview373"
     pagecolor="#ffffff"
     bordercolor="#000000"
     borderopacity="0.25"
     inkscape:showpageshadow="2"
     inkscape:pageopacity="0.0"
     inkscape:pagecheckerboard="0"
     inkscape:deskcolor="#d1d1d1"
     inkscape:document-units="px"
     showgrid="false"
     inkscape:zoom="12.96875"
     inkscape:cx="31.961446"
     inkscape:cy="32"
     inkscape:window-width="1920"
     inkscape:window-height="1008"
     inkscape:window-x="0"
     inkscape:window-y="0"
     inkscape:window-maximized="1"
     inkscape:current-layer="svg371"
     showguides="false" /><defs
     id="defs368"><linearGradient
       inkscape:collect="always"
       id="linearGradient2222"><stop
         style="stop-color:#8550ec;stop-opacity:1;"
         offset="0"
         id="stop2218" /><stop
         style="stop-color:#7c86fc;stop-opacity:1;"
         offset="1"
         id="stop2220" /></linearGradient><linearGradient
       inkscape:collect="always"
       xlink:href="#linearGradient2222"
       id="linearGradient3251"
       x1="16"
       y1="31"
       x2="16"
       y2="1"
       gradientUnits="userSpaceOnUse"
       gradientTransform="scale(2)" /></defs><path
     d="M 2,32 C 2,9.5 9.5,2 32,2 54.5,2 62,9.5 62,32 62,54.5 54.5,62 32,62 9.5,62 2,54.5 2,32"
     style="fill:url(#linearGradient3251);fill-opacity:1.0;stroke-width:0.3"
     id="path311" /><path
     d="m 32.013211,14.000871 c -1.580138,0.01352 -2.901122,0.18142 -3.826172,0.300781 -2.121978,0.291773 -6.234183,0.823335 -10.212891,3.767578 -5.702815,4.21743 -9.7861045,12.412548 -7.160156,16.285157 0.95489,1.379286 2.544985,1.909905 3.685547,2.28125 4.960122,1.618007 8.250756,-1.724291 10.425781,-0.132813 1.883256,1.379286 -0.530497,5.093936 1.644531,7.693359 1.034466,1.24666 3.430149,3.111992 5.679112,3.066094 l 7.75387,-6.668592 9.6605,-17.538479 c -2.095454,-3.050343 -6.649619,-6.100393 -8.214575,-6.896132 -3.448215,-1.773841 -6.801985,-2.180739 -9.435547,-2.158203 z m 1.957031,4.943359 c 1.432332,0 2.625,1.168092 2.625,2.626953 0,1.432338 -1.166142,2.625 -2.625,2.625 -1.458862,0 -2.626953,-1.16614 -2.626953,-2.625 0.02658,-1.45886 1.194615,-2.626953 2.626953,-2.626953 z m -9.285156,1.564455 c 1.352762,0 2.441406,1.088645 2.441406,2.441407 0,1.352758 -1.088644,2.439453 -2.441406,2.439453 -1.35276,0 -2.439453,-1.086695 -2.439453,-2.439453 0,-1.352762 1.086693,-2.441407 2.439453,-2.441407 z m -6.523438,5.570313 c 1.19361,0 2.173829,0.982171 2.173829,2.175781 0.02658,1.220138 -0.953695,2.173828 -2.173829,2.173828 -1.193616,0 -2.175781,-0.980215 -2.175781,-2.173828 0,-1.19361 0.982165,-2.175781 2.175781,-2.175781 z"
     style="opacity:0.5;fill:#ffffff;stroke-width:0.25668"
     id="path3653"
     sodipodi:nodetypes="sccccccccccsssscssssssscsss" /><path
     d="m 51.921531,18.000554 c -0.802857,-0.02337 -1.595942,0.372189 -2.037109,1.095703 -4.132545,6.750676 -8.265965,12.501423 -12.398508,19.252094 l 5.236328,3.029297 c 0.205345,0.128343 0.487185,0.0516 0.589844,-0.205078 3.593512,-6.827675 7.238313,-12.631448 10.857493,-19.459125 0.641701,-1.15506 0.231231,-2.618068 -0.923828,-3.259766 l -0.25586,-0.154297 c -0.336893,-0.192509 -0.703425,-0.288207 -1.06836,-0.298828 z M 35.37026,41.129886 c -0.184968,0.0038 -0.369749,0.04049 -0.546876,0.109375 -1.180838,0.472335 -3.384556,1.600269 -4.355468,4.171875 -0.997155,2.571607 -0.367607,5.509851 1.574218,7.556641 0.104965,0.157445 0.628285,0.971572 1.310547,0.945312 0.419853,-0.02624 0.684102,-0.341442 0.789063,-0.472656 1.312043,-1.443249 1.941725,-2.178536 2.414062,-3.359375 0.498575,-1.207082 1.521039,-2.886715 4.066407,-5.117187 0.341123,-0.341133 0.288995,-0.918123 -0.13086,-1.154297 L 36.266744,41.370121 C 35.987935,41.206104 35.678539,41.123479 35.37026,41.129886 Z"
     style="fill:#ffffff;stroke-width:0.25668"
     id="path3825"
     sodipodi:nodetypes="scccccccsccccccccccc" /><path
     id="rect1333"
     style="fill:#5637bb;stroke-width:4;stroke-linecap:square"
     d="m 37.923884,38.601723 4.192494,2.425423 -1.625025,2.782428 -4.224609,-2.439453 z"
     sodipodi:nodetypes="ccccc" /></svg>
