<?xml version="1.0" encoding="UTF-8" standalone="no"?>
<!-- Created with Inkscape (http://www.inkscape.org/) -->

<svg
   width="64"
   height="64"
   viewBox="0 0 64 64"
   version="1.1"
   id="svg371"
   xml:space="preserve"
   inkscape:version="1.3.2 (1:1.3.2+202311252150+091e20ef0f)"
   sodipodi:docname="com.github.maoschanz.drawing.svg"
   xmlns:inkscape="http://www.inkscape.org/namespaces/inkscape"
   xmlns:sodipodi="http://sodipodi.sourceforge.net/DTD/sodipodi-0.dtd"
   xmlns:xlink="http://www.w3.org/1999/xlink"
   xmlns="http://www.w3.org/2000/svg"
   xmlns:svg="http://www.w3.org/2000/svg"><sodipodi:namedview
     id="namedview373"
     pagecolor="#ffffff"
     bordercolor="#000000"
     borderopacity="0.25"
     inkscape:showpageshadow="2"
     inkscape:pageopacity="0.0"
     inkscape:pagecheckerboard="0"
     inkscape:deskcolor="#d1d1d1"
     inkscape:document-units="px"
     showgrid="false"
     inkscape:zoom="12.671875"
     inkscape:cx="32"
     inkscape:cy="32"
     inkscape:window-width="1920"
     inkscape:window-height="1008"
     inkscape:window-x="0"
     inkscape:window-y="0"
     inkscape:window-maximized="1"
     inkscape:current-layer="svg371"
     showguides="false" /><defs
     id="defs368"><linearGradient
       inkscape:collect="always"
       id="linearGradient1120"><stop
         style="stop-color:#db280f;stop-opacity:1;"
         offset="0"
         id="stop1116" /><stop
         style="stop-color:#dd5b4e;stop-opacity:1;"
         offset="1"
         id="stop1118" /></linearGradient><linearGradient
       inkscape:collect="always"
       xlink:href="#linearGradient1120"
       id="linearGradient3040"
       x1="32"
       y1="62"
       x2="32"
       y2="2"
       gradientUnits="userSpaceOnUse" /></defs><path
     d="M 2,32 C 2,9.5 9.5,2 32,2 54.5,2 62,9.5 62,32 62,54.5 54.5,62 32,62 9.5,62 2,54.5 2,32"
     style="fill:url(#linearGradient3040);fill-opacity:1;stroke-width:0.3"
     id="path311" /><path
     d="m 9.9925514,25.637844 c -0.7615732,-0.257082 -1.5872964,0.15228 -1.84375,0.914064 -0.257088,0.761572 0.152276,1.587296 0.9140624,1.843748 1.4412982,0.489156 1.5428472,0.8662 1.6328122,1.679692 0.08996,0.813488 -0.218392,2.135104 -0.515625,3.5625 -0.2972316,1.42739 -0.63425,3.087648 0.234376,4.679688 0.868625,1.592036 2.789939,2.464536 5.664063,2.648432 1.231418,0.0788 1.925098,0.485398 2.476562,1.070314 0.551466,0.584914 0.936808,1.42153 1.164062,2.320314 0.454512,1.797566 0.257812,3.656244 0.257812,3.656244 -0.09082,0.795516 0.478354,1.514848 1.273438,1.609374 0.79838,0.09548 1.52276,-0.474936 1.617188,-1.27344 0,0 0.2878,-2.275048 -0.32812,-4.710932 -0.30796,-1.21794 -0.851564,-2.524334 -1.867194,-3.60156 -1.015628,-1.077224 -2.529168,-1.856458 -4.40625,-1.976564 -2.415212,-0.15454 -3.062294,-0.702868 -3.296874,-1.132812 -0.23458,-0.429944 -0.209172,-1.390676 0.0625,-2.695312 0.27167,-1.304636 0.737728,-2.82148 0.554688,-4.476564 -0.18304,-1.655084 -1.406112,-3.374732 -3.5937506,-4.117186 z"
     style="color:#000000;opacity:1;fill:#eea096;stroke:none;stroke-width:4;stroke-linecap:round;-inkscape-stroke:none;fill-opacity:1"
     id="path1648" /><g
     id="g1288"
     transform="matrix(2.828427,2.828427,-2.828427,2.828427,33.41336,-12.959156)"><path
       id="path1089"
       style="fill:#ffffff;stroke-width:0.25"
       d="m 7.7583128,2.0349205 c -0.080591,0.088707 -0.1298204,0.2071369 -0.1298204,0.3369805 0,0.017312 -3.199e-4,0.03425 0.00138,0.051099 l -0.00138,8.947938 0.9998932,1.999787 L 9.628279,11.370938 9.626879,2.423 c 8.5e-4,-0.00842 9.5e-4,-0.017695 0.0014,-0.02624 V 2.371901 c 0,-0.2769997 -0.222947,-0.4999466 -0.4999468,-0.4999466 H 8.128439 c -0.1471561,0 -0.2787892,0.062432 -0.3701262,0.1629661 z" /></g></svg>
