<?xml version="1.0" encoding="UTF-8" standalone="no"?>
<!-- Created with Inkscape (http://www.inkscape.org/) -->

<svg
   width="64"
   height="64"
   viewBox="0 0 64 64"
   version="1.1"
   id="svg371"
   xml:space="preserve"
   inkscape:version="1.2.2 (1:1.2.2+202305151914+b0a8486541)"
   sodipodi:docname="desktop-environment-kde.svg"
   xmlns:inkscape="http://www.inkscape.org/namespaces/inkscape"
   xmlns:sodipodi="http://sodipodi.sourceforge.net/DTD/sodipodi-0.dtd"
   xmlns:xlink="http://www.w3.org/1999/xlink"
   xmlns="http://www.w3.org/2000/svg"
   xmlns:svg="http://www.w3.org/2000/svg"><sodipodi:namedview
     id="namedview373"
     pagecolor="#ffffff"
     bordercolor="#000000"
     borderopacity="0.25"
     inkscape:showpageshadow="2"
     inkscape:pageopacity="0.0"
     inkscape:pagecheckerboard="0"
     inkscape:deskcolor="#d1d1d1"
     inkscape:document-units="px"
     showgrid="false"
     inkscape:zoom="12.59375"
     inkscape:cx="32"
     inkscape:cy="32"
     inkscape:window-width="1920"
     inkscape:window-height="1008"
     inkscape:window-x="0"
     inkscape:window-y="0"
     inkscape:window-maximized="1"
     inkscape:current-layer="svg371"
     showguides="true" /><defs
     id="defs368"><linearGradient
       inkscape:collect="always"
       id="linearGradient933"><stop
         style="stop-color:#2092e9;stop-opacity:1;"
         offset="0"
         id="stop929" /><stop
         style="stop-color:#1ebee9;stop-opacity:1;"
         offset="1"
         id="stop931" /></linearGradient><linearGradient
       inkscape:collect="always"
       xlink:href="#linearGradient933"
       id="linearGradient3040"
       x1="32"
       y1="62"
       x2="32"
       y2="2"
       gradientUnits="userSpaceOnUse" /></defs><path
     d="M 2,32 C 2,9.5 9.5,2 32,2 54.5,2 62,9.5 62,32 62,54.5 54.5,62 32,62 9.5,62 2,54.5 2,32"
     style="fill:url(#linearGradient3040);fill-opacity:1;stroke-width:0.3"
     id="path311" /><path
     d="m 36.000006,10 -8.000002,1.210938 v 28.937508 l 8.000002,-2.14844 V 26.820316 L 44.000008,40.000008 52.00001,37.000006 42.000008,25.000004 52.003916,12.003906 44.242196,10 36.000006,23.117192 Z M 19.71094,17.847658 c -0.18918,0 -0.378372,0.07368 -0.523438,0.21875 L 16.04297,21.21094 c -0.290136,0.290134 -0.220288,0.704614 0,1.05078 l 3.253906,5.109378 c -0.241084,0.500442 -0.449846,1.01582 -0.625,1.542968 -0.0076,0.02268 -0.0198,0.04368 -0.02734,0.0664 l -5.902344,1.3125 C 12.341648,30.382006 12,30.62485 12,31.035162 v 1.964844 1.964844 c 0,0.41031 0.341648,0.65318 0.742188,0.742188 l 5.902344,1.3125 c 0.013,0.0388 0.03356,0.07462 0.04686,0.11328 0.1705,0.512084 0.372704,1.013054 0.60547,1.5 l -3.253908,5.105472 c -0.220288,0.346166 -0.290134,0.760646 0,1.05078 l 3.144534,3.144534 c 0.290134,0.290134 0.756734,0.290134 1.046876,0 l 5.101564,-3.250002 c 0.501518,0.243898 1.01821,0.455272 1.546874,0.632812 0.0347,0.0122 0.06678,0.03108 0.10156,0.04296 l 1.308592,5.898438 c 0,0.410312 0.33188,0.742188 0.742188,0.742188 h 4.441408 c 0.41031,0 0.65318,-0.341648 0.742188,-0.742188 l 1.308594,-6.078126 c 0.601208,-0.226026 1.184836,-0.496298 1.746094,-0.808594 l 4.98047,3.562502 c 0.290136,0.290134 0.756742,0.290134 1.046876,0 l 3.14453,-3.144534 c 0.290136,-0.290134 0.220288,-0.704614 0,-1.05078 l -1.89453,-2.875 -0.19922,0.07422 c -0.450502,0.16922 -0.95765,-0.0064 -1.20703,-0.417968 L 41.15234,37.238288 c -1.659872,3.970392 -5.579866,6.76172 -10.152346,6.76172 -6.075132,0 -11.000002,-4.92487 -11.000002,-11.000002 0,-4.661842 2.905598,-8.636702 7.000002,-10.238284 v -2.191408 l -0.0156,0.07032 c -0.04416,0.015 -0.0849,0.03914 -0.1289,0.05468 -0.52165,0.17324 -1.03179,0.379376 -1.527344,0.617188 l -5.093782,-3.246094 c -0.14508,-0.14506 -0.334254,-0.21875 -0.523438,-0.21875 z"
     style="fill:#ffffff;stroke-width:1"
     id="path957" /></svg>
