<?xml version="1.0" encoding="UTF-8" standalone="no"?>
<!-- Created with Inkscape (http://www.inkscape.org/) -->

<svg
   width="64"
   height="64"
   viewBox="0 0 64 64"
   version="1.1"
   id="svg371"
   xml:space="preserve"
   inkscape:version="1.2.2 (1:1.2.2+202305151914+b0a8486541)"
   sodipodi:docname="discord.svg"
   xmlns:inkscape="http://www.inkscape.org/namespaces/inkscape"
   xmlns:sodipodi="http://sodipodi.sourceforge.net/DTD/sodipodi-0.dtd"
   xmlns:xlink="http://www.w3.org/1999/xlink"
   xmlns="http://www.w3.org/2000/svg"
   xmlns:svg="http://www.w3.org/2000/svg"><sodipodi:namedview
     id="namedview373"
     pagecolor="#ffffff"
     bordercolor="#000000"
     borderopacity="0.25"
     inkscape:showpageshadow="2"
     inkscape:pageopacity="0.0"
     inkscape:pagecheckerboard="0"
     inkscape:deskcolor="#d1d1d1"
     inkscape:document-units="px"
     showgrid="false"
     inkscape:zoom="12.59375"
     inkscape:cx="32"
     inkscape:cy="32"
     inkscape:window-width="1920"
     inkscape:window-height="1008"
     inkscape:window-x="0"
     inkscape:window-y="0"
     inkscape:window-maximized="1"
     inkscape:current-layer="svg371"
     showguides="false" /><defs
     id="defs368"><linearGradient
       inkscape:collect="always"
       id="linearGradient1503"><stop
         style="stop-color:#5865f2;stop-opacity:1;"
         offset="0"
         id="stop1499" /><stop
         style="stop-color:#6887f3;stop-opacity:1;"
         offset="1"
         id="stop1501" /></linearGradient><linearGradient
       inkscape:collect="always"
       xlink:href="#linearGradient1503"
       id="linearGradient1505"
       x1="32"
       y1="62"
       x2="32"
       y2="2"
       gradientUnits="userSpaceOnUse" /></defs><path
     d="M 2,32 C 2,9.5 9.5,2 32,2 54.5,2 62,9.5 62,32 62,54.5 54.5,62 32,62 9.5,62 2,54.5 2,32"
     style="fill:url(#linearGradient1505);fill-opacity:1;stroke-width:0.3"
     id="path311" /><path
     id="path3158"
     style="fill:#ffffff;stroke-width:1.10912"
     d="M 37.681641 16 C 37.643368 16.004311 37.608006 16.026283 37.587891 16.0625 C 37.236297 16.698378 36.848889 16.775703 36.576172 17.427734 C 33.501808 16.959713 30.441007 16.959713 27.429688 17.427734 C 27.156904 16.761221 26.753561 16.698378 26.400391 16.0625 C 26.373611 16.01566 26.321577 15.993873 26.269531 16.001953 C 23.41273 16.502281 20.677905 17.377283 18.126953 18.568359 C 18.104843 18.578359 18.088732 18.594294 18.076172 18.615234 C 12.890704 26.492807 11.469162 34.176932 12.166016 41.765625 C 12.169316 41.802715 12.188357 41.838868 12.216797 41.861328 C 15.638021 44.416144 18.950631 45.966084 22.203125 46.994141 C 22.255235 47.010301 22.312537 46.992419 22.345703 46.949219 C 23.115088 45.880839 23.800638 44.997167 24.388672 43.8125 C 24.423342 43.74308 24.390852 43.660247 24.320312 43.632812 C 23.232467 43.213187 22.197586 42.704043 21.201172 42.123047 C 21.122392 42.076217 21.113217 41.961133 21.185547 41.90625 C 21.395221 41.746476 21.606423 41.578013 21.806641 41.410156 C 21.842861 41.379486 21.894961 41.373198 21.9375 41.392578 C 28.483508 44.431644 35.570286 44.431644 42.039062 41.392578 C 42.081622 41.371658 42.128205 41.377313 42.166016 41.408203 C 42.366289 41.576049 42.5778 41.746485 42.789062 41.90625 C 42.861502 41.96117 42.856124 42.076247 42.777344 42.123047 C 41.78093 42.715335 40.745685 43.216756 39.65625 43.634766 C 39.58536 43.662226 39.553223 43.743068 39.587891 43.8125 C 40.188546 44.995505 40.87372 45.87883 41.628906 46.947266 C 41.660466 46.992436 41.717478 47.010301 41.769531 46.994141 C 45.037813 45.966083 48.352214 44.416155 51.773438 41.861328 C 51.803437 41.838738 51.825015 41.802705 51.828125 41.765625 C 52.66212 32.992266 50.427115 25.375069 45.910156 18.619141 C 45.899046 18.596551 45.881485 18.577999 45.859375 18.568359 C 43.310002 17.378879 40.579071 16.503876 37.720703 16.001953 C 37.707676 15.999453 37.694398 15.998563 37.681641 16 z M 24.996094 30 C 27.240942 30 29.035095 31.810882 29 34 C 29 36.204886 27.2234 38 24.996094 38 C 22.803768 38 21 36.204886 21 34 C 21 31.795112 22.768741 30 24.996094 30 z M 38.996094 30 C 41.240942 30 43.035095 31.810882 43 34 C 43 36.204886 41.2234 38 38.996094 38 C 36.803768 38 35 36.204886 35 34 C 35 31.795112 36.768741 30 38.996094 30 z " /></svg>
