<?xml version="1.0" encoding="UTF-8" standalone="no"?>
<!-- Created with Inkscape (http://www.inkscape.org/) -->

<svg
   width="64"
   height="64"
   viewBox="0 0 64 64"
   version="1.1"
   id="svg371"
   xml:space="preserve"
   inkscape:version="1.3.2 (091e20ef0f, 2023-11-25, custom)"
   sodipodi:docname="github-desktop.svg"
   xmlns:inkscape="http://www.inkscape.org/namespaces/inkscape"
   xmlns:sodipodi="http://sodipodi.sourceforge.net/DTD/sodipodi-0.dtd"
   xmlns:xlink="http://www.w3.org/1999/xlink"
   xmlns="http://www.w3.org/2000/svg"
   xmlns:svg="http://www.w3.org/2000/svg"><sodipodi:namedview
     id="namedview373"
     pagecolor="#ffffff"
     bordercolor="#000000"
     borderopacity="0.25"
     inkscape:showpageshadow="2"
     inkscape:pageopacity="0.0"
     inkscape:pagecheckerboard="0"
     inkscape:deskcolor="#d1d1d1"
     inkscape:document-units="px"
     showgrid="false"
     inkscape:zoom="12.890625"
     inkscape:cx="31.922424"
     inkscape:cy="32"
     inkscape:window-width="1920"
     inkscape:window-height="1004"
     inkscape:window-x="0"
     inkscape:window-y="30"
     inkscape:window-maximized="1"
     inkscape:current-layer="svg371"
     showguides="false" /><defs
     id="defs368"><linearGradient
       inkscape:collect="always"
       xlink:href="#linearGradient2"
       id="linearGradient3040"
       x1="32"
       y1="62"
       x2="32"
       y2="2"
       gradientUnits="userSpaceOnUse" /><linearGradient
       inkscape:collect="always"
       id="linearGradient2"><stop
         style="stop-color:#7944bb;stop-opacity:1;"
         offset="0"
         id="stop1" /><stop
         style="stop-color:#9d5bc5;stop-opacity:1;"
         offset="1"
         id="stop2" /></linearGradient></defs><path
     d="M 2,32 C 2,9.5 9.5,2 32,2 54.5,2 62,9.5 62,32 62,54.5 54.5,62 32,62 9.5,62 2,54.5 2,32"
     style="fill:url(#linearGradient3040);fill-opacity:1;stroke-width:0.3"
     id="path311" /><path
     id="path920"
     style="fill:#ffffff;stroke-width:6;stroke-linecap:round;stroke-linejoin:round"
     d="M 32,12 A 20,20 0 0 0 12,32 20,20 0 0 0 25.972656,51.042968 v -3.257812 c -5.062622,1.1172 -6.246094,-2.226562 -6.246094,-2.226562 -0.827974,-2.136546 -2.023438,-2.304688 -2.023438,-2.304688 -1.65257,-1.146418 0.1211,-1.125 0.1211,-1.125 1.8268,0.13048 2.789064,1.90625 2.789064,1.90625 1.623502,2.825798 4.381094,2.012462 5.417968,1.539062 0.16538,-1.194322 0.4492,-3.010582 0.96875,-3.472656 -4.041246,-0.46675 -7,-3.25335 -7,-10.339844 0,-2.0185 1.191218,-4.66918 2.355468,-5.960936 -0.18774,-0.46775 -0.815218,-3.173506 0.17578,-5.71875 0,0 0.09548,-0.03006 0.292968,-0.03906 0.59225,-0.02774 1.924504,0.920096 4.53125,2.714844 1.573862,-0.452158 3.387116,-0.661674 4.644532,-0.671874 1.417828,-0.0118 2.860406,0.23027 4.339844,0.671874 2.607498,-1.794748 4.273282,-2.74625 4.86328,-2.71875 h 0.004 c 0.19726,0.0092 0.292966,0.03906 0.292968,0.03906 0.99329,2.545146 0.366268,5.25491 0.17968,5.722658 C 42.845984,27.092782 44,29.743214 44,31.761718 c 0,7.104544 -4.552118,9.866694 -8.605468,10.32422 0.652518,0.570998 0.61328,1.50204 0.61328,3.226562 0,2.082798 -0.011,3.4366 -0.0156,4.296876 v 1.9375 A 20,20 0 0 0 52,32 20,20 0 0 0 32,12 Z m -5.863282,39.105468 a 20,20 0 0 0 0.816406,0.214844 20,20 0 0 1 -0.816406,-0.214844 z m 9.35547,0.550782 a 20,20 0 0 1 -1.089844,0.17188 20,20 0 0 0 1.089844,-0.17188 z m -6.82422,0.03516 a 20,20 0 0 0 0.828126,0.1289 20,20 0 0 1 -0.828126,-0.1289 z" /></svg>
