<?xml version="1.0" encoding="UTF-8" standalone="no"?>
<!-- Created with Inkscape (http://www.inkscape.org/) -->

<svg
   width="64"
   height="64"
   viewBox="0 0 64 64"
   version="1.1"
   id="svg371"
   xml:space="preserve"
   inkscape:version="1.2.2 (1:1.2.2+202305151914+b0a8486541)"
   sodipodi:docname="hwloc.svg"
   xmlns:inkscape="http://www.inkscape.org/namespaces/inkscape"
   xmlns:sodipodi="http://sodipodi.sourceforge.net/DTD/sodipodi-0.dtd"
   xmlns:xlink="http://www.w3.org/1999/xlink"
   xmlns="http://www.w3.org/2000/svg"
   xmlns:svg="http://www.w3.org/2000/svg"><sodipodi:namedview
     id="namedview373"
     pagecolor="#ffffff"
     bordercolor="#000000"
     borderopacity="0.25"
     inkscape:showpageshadow="2"
     inkscape:pageopacity="0.0"
     inkscape:pagecheckerboard="0"
     inkscape:deskcolor="#d1d1d1"
     inkscape:document-units="px"
     showgrid="false"
     inkscape:zoom="12.59375"
     inkscape:cx="32"
     inkscape:cy="32"
     inkscape:window-width="1920"
     inkscape:window-height="1008"
     inkscape:window-x="0"
     inkscape:window-y="0"
     inkscape:window-maximized="1"
     inkscape:current-layer="svg371" /><defs
     id="defs368"><linearGradient
       inkscape:collect="always"
       xlink:href="#linearGradient869"
       id="linearGradient3040"
       x1="32"
       y1="62"
       x2="32"
       y2="2"
       gradientUnits="userSpaceOnUse" /><linearGradient
       inkscape:collect="always"
       id="linearGradient869"><stop
         style="stop-color:#268f82;stop-opacity:1;"
         offset="0"
         id="stop865" /><stop
         style="stop-color:#31b7a5;stop-opacity:1;"
         offset="1"
         id="stop867" /></linearGradient></defs><path
     d="M 2,32 C 2,9.5 9.5,2 32,2 54.5,2 62,9.5 62,32 62,54.5 54.5,62 32,62 9.5,62 2,54.5 2,32"
     style="fill:url(#linearGradient3040);fill-opacity:1.0;stroke-width:0.3"
     id="path311" /><path
     id="rect2575"
     style="fill:#b5ebe4;fill-opacity:1"
     d="m 51.79899,23.514719 c 0.783473,0.783473 0.783473,2.044954 0,2.828427 L 46.142136,32 51.79899,37.656854 c 0.783473,0.783473 0.783474,2.044954 0,2.828427 -0.783472,0.783473 -2.044954,0.783473 -2.828427,0 l -5.656854,-5.656854 -2.828428,2.828427 5.656855,5.656854 c 0.783473,0.783473 0.783473,2.044954 0,2.828428 -0.783473,0.783472 -2.044955,0.783472 -2.828427,0 l -5.656855,-5.656855 -2.828427,2.828427 5.656854,5.656855 c 0.783473,0.783473 0.783473,2.044954 0,2.828427 -0.783472,0.783473 -2.044954,0.783473 -2.828427,0 L 32,46.142136 26.343146,51.79899 c -0.783473,0.783473 -2.044954,0.783473 -2.828427,0 -0.783473,-0.783473 -0.783473,-2.044954 0,-2.828427 l 5.656854,-5.656855 -2.828427,-2.828427 -5.656854,5.656855 c -0.783473,0.783472 -2.044955,0.783472 -2.828428,0 -0.783472,-0.783473 -0.783472,-2.044955 0,-2.828428 l 5.656855,-5.656854 -2.828427,-2.828427 -5.656855,5.656854 c -0.783473,0.783473 -2.044954,0.783473 -2.828427,0 -0.783473,-0.783473 -0.783473,-2.044954 0,-2.828427 L 17.857864,32 12.20101,26.343146 c -0.783473,-0.783473 -0.783473,-2.044954 0,-2.828427 0.783473,-0.783473 2.044954,-0.783473 2.828427,0 l 5.656855,5.656854 2.828427,-2.828427 -5.656855,-5.656854 c -0.783472,-0.783473 -0.783472,-2.044955 0,-2.828428 0.783474,-0.783473 2.044955,-0.783472 2.828428,0 l 5.656854,5.656855 2.828427,-2.828427 -5.656854,-5.656855 c -0.783473,-0.783473 -0.783472,-2.044955 0,-2.828427 0.783473,-0.783473 2.044954,-0.783473 2.828427,0 L 32,17.857864 37.656854,12.20101 c 0.783473,-0.783473 2.044955,-0.783473 2.828427,0 0.783473,0.783473 0.783473,2.044954 0,2.828427 l -5.656854,5.656855 2.828427,2.828427 5.656855,-5.656855 c 0.783472,-0.783472 2.044954,-0.783472 2.828427,0 0.783473,0.783473 0.783473,2.044955 0,2.828428 l -5.656855,5.656854 2.828428,2.828427 5.656854,-5.656854 c 0.783473,-0.783473 2.044954,-0.783473 2.828427,0 z M 40.485281,32 37.656854,29.171573 34.828427,32 37.656854,34.828427 Z M 34.828427,26.343146 32,23.514719 29.171573,26.343146 32,29.171573 Z m 0,11.313708 L 32,34.828427 29.171573,37.656854 32,40.485281 Z M 29.171573,32 26.343146,29.171573 23.514719,32 l 2.828427,2.828427 z" /><rect
     style="fill:#ffffff;fill-opacity:1"
     id="rect2521"
     width="32"
     height="32"
     x="-61.254833"
     y="-16"
     ry="6"
     transform="matrix(-0.70710678,-0.70710678,-0.70710678,0.70710678,0,0)" /><rect
     style="fill:#196359;fill-opacity:1;stroke-linecap:round;stroke-linejoin:round"
     id="rect6876"
     width="12"
     height="12"
     x="-58.254833"
     y="0.99999994"
     ry="2"
     transform="matrix(-0.70710678,-0.70710678,-0.70710678,0.70710678,0,0)" /><rect
     style="fill:#196359;fill-opacity:1;stroke-linecap:round;stroke-linejoin:round"
     id="rect6878"
     width="12"
     height="12"
     x="-44.254833"
     y="0.99999994"
     ry="2"
     transform="matrix(-0.70710678,-0.70710678,-0.70710678,0.70710678,0,0)" /></svg>
