<?xml version="1.0" encoding="UTF-8" standalone="no"?>
<!-- Created with Inkscape (http://www.inkscape.org/) -->

<svg
   width="64"
   height="64"
   viewBox="0 0 64 64"
   version="1.1"
   id="svg371"
   xml:space="preserve"
   inkscape:version="1.2 (1:1.2.1+202207142221+cd75a1ee6d)"
   sodipodi:docname="internet-web-browser.svg"
   xmlns:inkscape="http://www.inkscape.org/namespaces/inkscape"
   xmlns:sodipodi="http://sodipodi.sourceforge.net/DTD/sodipodi-0.dtd"
   xmlns:xlink="http://www.w3.org/1999/xlink"
   xmlns="http://www.w3.org/2000/svg"
   xmlns:svg="http://www.w3.org/2000/svg"><sodipodi:namedview
     id="namedview373"
     pagecolor="#ffffff"
     bordercolor="#000000"
     borderopacity="0.25"
     inkscape:showpageshadow="2"
     inkscape:pageopacity="0.0"
     inkscape:pagecheckerboard="0"
     inkscape:deskcolor="#d1d1d1"
     inkscape:document-units="px"
     showgrid="false"
     inkscape:zoom="12.890625"
     inkscape:cx="31.961212"
     inkscape:cy="32"
     inkscape:window-width="1920"
     inkscape:window-height="1018"
     inkscape:window-x="0"
     inkscape:window-y="28"
     inkscape:window-maximized="1"
     inkscape:current-layer="svg371"
     showguides="false" /><defs
     id="defs368"><linearGradient
       inkscape:collect="always"
       id="linearGradient1258"><stop
         style="stop-color:#583cbb;stop-opacity:1;"
         offset="0"
         id="stop1254" /><stop
         style="stop-color:#9370c9;stop-opacity:1;"
         offset="1"
         id="stop1256" /></linearGradient><linearGradient
       inkscape:collect="always"
       xlink:href="#linearGradient1258"
       id="linearGradient3040"
       x1="32"
       y1="62"
       x2="32"
       y2="2"
       gradientUnits="userSpaceOnUse" /></defs><path
     d="M 2,32 C 2,9.5 9.5,2 32,2 54.5,2 62,9.5 62,32 62,54.5 54.5,62 32,62 9.5,62 2,54.5 2,32"
     style="fill:url(#linearGradient3040);fill-opacity:1;stroke-width:0.3"
     id="path311" /><circle
     style="fill:#ffffff;stroke-width:6.75;stroke-linecap:round;stroke-linejoin:round"
     id="path898"
     cx="32"
     cy="32"
     r="17.999998" /><ellipse
     style="fill:#483b8e;fill-opacity:1;stroke-width:6;stroke-linecap:round;stroke-linejoin:round"
     id="path952"
     cx="41.014812"
     cy="19.125519"
     rx="23"
     ry="11"
     transform="rotate(20)" /><path
     id="path898-3"
     style="fill:#ffffff;stroke-width:6.75;stroke-linecap:round;stroke-linejoin:round"
     d="m 32,13.999999 c -7.547563,0.0024 -14.292206,4.712973 -16.892577,11.798437 l 0.007,0.0036 a 17.999998,5.3999995 20 0 0 -0.02813,0.04219 17.999998,5.3999995 20 0 0 15.067968,11.228905 17.999998,5.3999995 20 0 0 18.759373,1.082814 17.999998,5.3999995 20 0 0 0.014,-0.04922 c 0.70802,-1.95829 1.070827,-4.024484 1.072348,-6.106728 C 49.999998,22.058884 41.941113,13.999999 32,13.999999 Z" /></svg>
