<?xml version="1.0" encoding="UTF-8" standalone="no"?>
<!-- Created with Inkscape (http://www.inkscape.org/) -->

<svg
   width="64"
   height="64"
   viewBox="0 0 64 64"
   version="1.1"
   id="svg371"
   xml:space="preserve"
   inkscape:version="1.2.2 (1:1.2.2+202305151914+b0a8486541)"
   sodipodi:docname="kalarm.svg"
   xmlns:inkscape="http://www.inkscape.org/namespaces/inkscape"
   xmlns:sodipodi="http://sodipodi.sourceforge.net/DTD/sodipodi-0.dtd"
   xmlns:xlink="http://www.w3.org/1999/xlink"
   xmlns="http://www.w3.org/2000/svg"
   xmlns:svg="http://www.w3.org/2000/svg"><sodipodi:namedview
     id="namedview373"
     pagecolor="#ffffff"
     bordercolor="#000000"
     borderopacity="0.25"
     inkscape:showpageshadow="2"
     inkscape:pageopacity="0.0"
     inkscape:pagecheckerboard="0"
     inkscape:deskcolor="#d1d1d1"
     inkscape:document-units="px"
     showgrid="false"
     inkscape:zoom="12.59375"
     inkscape:cx="32"
     inkscape:cy="32"
     inkscape:window-width="1920"
     inkscape:window-height="1008"
     inkscape:window-x="0"
     inkscape:window-y="0"
     inkscape:window-maximized="1"
     inkscape:current-layer="svg371"
     showguides="false" /><defs
     id="defs368"><linearGradient
       inkscape:collect="always"
       id="linearGradient1836"><stop
         style="stop-color:#ff9b11;stop-opacity:1;"
         offset="0"
         id="stop1832" /><stop
         style="stop-color:#f9c100;stop-opacity:1;"
         offset="1"
         id="stop1834" /></linearGradient><linearGradient
       inkscape:collect="always"
       xlink:href="#linearGradient1836"
       id="linearGradient4585"
       x1="32"
       y1="62"
       x2="32"
       y2="2"
       gradientUnits="userSpaceOnUse" /></defs><path
     d="M 2,32 C 2,9.5 9.5,2 32,2 54.5,2 62,9.5 62,32 62,54.5 54.5,62 32,62 9.5,62 2,54.5 2,32"
     style="fill:url(#linearGradient4585);fill-opacity:1;stroke-width:0.3"
     id="path311" /><path
     id="path6057"
     style="color:#000000;display:inline;overflow:visible;visibility:visible;fill:#ffffff;fill-opacity:1;fill-rule:nonzero;stroke:none;stroke-width:8;marker:none;enable-background:accumulate"
     d="m 32,10 c -1.38503,0 -2.99998,1.115061 -3,2.5 -5.8e-4,0.02762 -3.6e-4,0.05138 0,0.07813 -5.661698,1.070546 -7.99091,5.225388 -8,11.42187 0.0118,6.073398 -0.158304,11.6348 -5,14 0.598817,1.89556 8.938198,3.926728 16,4 7.061802,-0.07328 15.401182,-2.10444 16,-4 -4.841702,-2.3652 -5.0118,-7.926602 -5,-14 -0.009,-6.196482 -2.338302,-10.351325 -8,-11.421875 3.6e-4,-0.02674 5.8e-4,-0.0505 0,-0.07813 C 34.99998,11.115062 33.38503,10 32,10 Z"
     sodipodi:nodetypes="scccccccccs" /><circle
     style="fill:#ffdd86;fill-opacity:1;stroke-width:4;stroke-linecap:round;stroke-linejoin:round"
     id="path415"
     cx="32"
     cy="50"
     r="4" /></svg>
