<?xml version="1.0" encoding="UTF-8" standalone="no"?>
<!-- Created with Inkscape (http://www.inkscape.org/) -->

<svg
   width="64"
   height="64"
   viewBox="0 0 64 64"
   version="1.1"
   id="svg371"
   xml:space="preserve"
   inkscape:version="1.2.2 (1:1.2.2+202212051552+b0a8486541)"
   sodipodi:docname="knotes.svg"
   xmlns:inkscape="http://www.inkscape.org/namespaces/inkscape"
   xmlns:sodipodi="http://sodipodi.sourceforge.net/DTD/sodipodi-0.dtd"
   xmlns:xlink="http://www.w3.org/1999/xlink"
   xmlns="http://www.w3.org/2000/svg"
   xmlns:svg="http://www.w3.org/2000/svg"><sodipodi:namedview
     id="namedview373"
     pagecolor="#ffffff"
     bordercolor="#000000"
     borderopacity="0.25"
     inkscape:showpageshadow="2"
     inkscape:pageopacity="0.0"
     inkscape:pagecheckerboard="0"
     inkscape:deskcolor="#d1d1d1"
     inkscape:document-units="px"
     showgrid="false"
     inkscape:zoom="12.65625"
     inkscape:cx="31.960494"
     inkscape:cy="32"
     inkscape:window-width="1920"
     inkscape:window-height="1012"
     inkscape:window-x="0"
     inkscape:window-y="0"
     inkscape:window-maximized="1"
     inkscape:current-layer="svg371"
     showguides="true" /><defs
     id="defs368"><linearGradient
       inkscape:collect="always"
       id="linearGradient1836"><stop
         style="stop-color:#ff9b11;stop-opacity:1;"
         offset="0"
         id="stop1832" /><stop
         style="stop-color:#f9c100;stop-opacity:1;"
         offset="1"
         id="stop1834" /></linearGradient><linearGradient
       inkscape:collect="always"
       xlink:href="#linearGradient1836"
       id="linearGradient3040"
       x1="32"
       y1="62"
       x2="32"
       y2="2"
       gradientUnits="userSpaceOnUse" /></defs><path
     d="M 2,32 C 2,9.5 9.5,2 32,2 54.5,2 62,9.5 62,32 62,54.5 54.5,62 32,62 9.5,62 2,54.5 2,32"
     style="fill:url(#linearGradient3040);fill-opacity:1;stroke-width:0.3"
     id="path311" /><path
     id="rect342"
     style="fill:#ffffff;stroke-width:2"
     d="m 20,14 h 24 c 3.324,0 6,2.676 6,6 V 34 L 40,40 34,50 H 20 c -3.324,0 -6,-2.676 -6,-6 V 20 c 0,-3.324 2.676,-6 6,-6 z"
     sodipodi:nodetypes="ssscccssss" /><path
     id="rect481"
     style="fill:#e18b1f;fill-opacity:1;stroke-width:1.16667"
     d="M 40,34 H 50 L 34,50 V 40 c 0,-3.324 2.676,-6 6,-6 z"
     sodipodi:nodetypes="sccss" /></svg>
