<?xml version="1.0" encoding="UTF-8" standalone="no"?>
<!-- Created with Inkscape (http://www.inkscape.org/) -->

<svg
   width="64"
   height="64"
   viewBox="0 0 64 64"
   version="1.1"
   id="svg371"
   xml:space="preserve"
   inkscape:version="1.2 (1:1.2.1+202207142221+cd75a1ee6d)"
   sodipodi:docname="konquest.svg"
   xmlns:inkscape="http://www.inkscape.org/namespaces/inkscape"
   xmlns:sodipodi="http://sodipodi.sourceforge.net/DTD/sodipodi-0.dtd"
   xmlns:xlink="http://www.w3.org/1999/xlink"
   xmlns="http://www.w3.org/2000/svg"
   xmlns:svg="http://www.w3.org/2000/svg"><sodipodi:namedview
     id="namedview373"
     pagecolor="#ffffff"
     bordercolor="#000000"
     borderopacity="0.25"
     inkscape:showpageshadow="2"
     inkscape:pageopacity="0.0"
     inkscape:pagecheckerboard="0"
     inkscape:deskcolor="#d1d1d1"
     inkscape:document-units="px"
     showgrid="false"
     inkscape:zoom="12.890625"
     inkscape:cx="31.961212"
     inkscape:cy="32"
     inkscape:window-width="1920"
     inkscape:window-height="1018"
     inkscape:window-x="0"
     inkscape:window-y="28"
     inkscape:window-maximized="1"
     inkscape:current-layer="svg371"
     showguides="false" /><defs
     id="defs368"><linearGradient
       inkscape:collect="always"
       id="linearGradient1014"><stop
         style="stop-color:#9e704b;stop-opacity:1;"
         offset="0"
         id="stop1010" /><stop
         style="stop-color:#c99970;stop-opacity:1;"
         offset="1"
         id="stop1012" /></linearGradient><linearGradient
       inkscape:collect="always"
       xlink:href="#linearGradient1014"
       id="linearGradient3040"
       x1="32"
       y1="62"
       x2="32"
       y2="2"
       gradientUnits="userSpaceOnUse" /></defs><path
     d="M 2,32 C 2,9.5 9.5,2 32,2 54.5,2 62,9.5 62,32 62,54.5 54.5,62 32,62 9.5,62 2,54.5 2,32"
     style="fill:url(#linearGradient3040);fill-opacity:1;stroke-width:0.3"
     id="path311" /><circle
     style="fill:#ffffff;stroke-width:6;stroke-linecap:round;stroke-linejoin:round"
     id="path898"
     cx="32"
     cy="32.000004"
     r="16" /><path
     id="path952"
     style="fill:#71542a;fill-opacity:1;stroke-width:6;stroke-linecap:round;stroke-linejoin:round"
     d="m 21.828124,19.011719 a 23,11 20 0 0 -11.441405,5.121094 23,11 20 0 0 17.851562,18.203125 23,11 20 0 0 25.375,-2.46875 A 23,11 20 0 0 35.761718,21.664062 23,11 20 0 0 21.828124,19.011719 Z M 20.69922,23.652344 A 18,6 20 0 1 34.050782,26.363282 18,6 20 0 1 48.914063,38.15625 18,6 20 0 1 29.949219,37.636718 18,6 20 0 1 15.085938,25.84375 18,6 20 0 1 20.69922,23.652344 Z" /><path
     id="path898-3"
     style="fill:#ffffff;stroke-width:6;stroke-linecap:round;stroke-linejoin:round"
     d="m 32,16 c -6.708946,0.002 -12.704186,4.18931 -15.015625,10.4875 l 0.0063,0.0032 a 16,4.8 20 0 0 -0.025,0.03748 16,4.8 20 0 0 13.393749,9.98125 16,4.8 20 0 0 16.675,0.9625 16,4.8 20 0 0 0.0124,-0.04374 C 47.676154,35.6875 47.998646,33.850884 48,32 48,23.163454 40.836546,16 32,16 Z" /></svg>
