<?xml version="1.0" encoding="UTF-8" standalone="no"?>
<!-- Created with Inkscape (http://www.inkscape.org/) -->

<svg
   width="64"
   height="64"
   viewBox="0 0 64 64"
   version="1.1"
   id="svg371"
   xml:space="preserve"
   inkscape:version="1.2.2 (b0a8486541, 2022-12-01)"
   sodipodi:docname="libreoffice-impress.svg"
   xmlns:inkscape="http://www.inkscape.org/namespaces/inkscape"
   xmlns:sodipodi="http://sodipodi.sourceforge.net/DTD/sodipodi-0.dtd"
   xmlns:xlink="http://www.w3.org/1999/xlink"
   xmlns="http://www.w3.org/2000/svg"
   xmlns:svg="http://www.w3.org/2000/svg"><sodipodi:namedview
     id="namedview373"
     pagecolor="#ffffff"
     bordercolor="#000000"
     borderopacity="0.25"
     inkscape:showpageshadow="2"
     inkscape:pageopacity="0.0"
     inkscape:pagecheckerboard="0"
     inkscape:deskcolor="#d1d1d1"
     inkscape:document-units="px"
     showgrid="false"
     inkscape:zoom="12.34375"
     inkscape:cx="32"
     inkscape:cy="32"
     inkscape:window-width="1920"
     inkscape:window-height="1011"
     inkscape:window-x="0"
     inkscape:window-y="0"
     inkscape:window-maximized="1"
     inkscape:current-layer="svg371"
     showguides="false" /><defs
     id="defs368"><linearGradient
       inkscape:collect="always"
       xlink:href="#linearGradient2102"
       id="linearGradient3040"
       x1="32"
       y1="62"
       x2="32"
       y2="2"
       gradientUnits="userSpaceOnUse" /><linearGradient
       inkscape:collect="always"
       id="linearGradient2102"><stop
         style="stop-color:#ce5309;stop-opacity:1;"
         offset="0"
         id="stop2098" /><stop
         style="stop-color:#f07d16;stop-opacity:1;"
         offset="1"
         id="stop2100" /></linearGradient><linearGradient
       inkscape:collect="always"
       xlink:href="#linearGradient2102"
       id="linearGradient2110"
       x1="21.000254"
       y1="51.999744"
       x2="21.000254"
       y2="-8.0002537"
       gradientUnits="userSpaceOnUse"
       gradientTransform="translate(10.999746,9.000254)" /></defs><path
     d="M 2,32 C 2,9.5 9.5,2 32,2 54.5,2 62,9.5 62,32 62,54.5 54.5,62 32,62 9.5,62 2,54.5 2,32"
     style="fill:url(#linearGradient3040);fill-opacity:1.0;stroke-width:0.3"
     id="path311" /><rect
     style="fill:#f7c195;fill-opacity:1;stroke-width:4.58258;stroke-linecap:round;stroke-linejoin:round"
     id="rect549"
     width="18"
     height="14"
     x="34"
     y="32"
     ry="2" /><path
     id="rect346"
     style="fill:#ffffff;stroke-width:1.99999;stroke-linecap:round;stroke-linejoin:round"
     d="m 13,18 c -0.553998,0 -1,0.446002 -1,1 0,0.553998 0.446002,1 1,1 h 38 c 0.553998,0 1,-0.446002 1,-1 0,-0.553998 -0.446002,-1 -1,-1 z m 6,5 c -0.553998,0 -1,0.446002 -1,1 0,0.553998 0.446002,1 1,1 h 26 c 0.553998,0 1,-0.446002 1,-1 0,-0.553998 -0.446002,-1 -1,-1 z m -6,9 c -0.552285,0 -1,0.447715 -1,1 0,0.552285 0.447715,1 1,1 0.552285,0 1,-0.447715 1,-1 0,-0.552285 -0.447715,-1 -1,-1 z m 4,0 c -0.553998,0 -1,0.446002 -1,1 0,0.553998 0.446002,1 1,1 h 13 c 0.553998,0 1,-0.446002 1,-1 0,-0.553998 -0.446002,-1 -1,-1 z m -4,5 c -0.552285,0 -1,0.447715 -1,1 0,0.552285 0.447715,1 1,1 0.552285,0 1,-0.447715 1,-1 0,-0.552285 -0.447715,-1 -1,-1 z m 4,0 c -0.553998,0 -1,0.446002 -1,1 0,0.553998 0.446002,1 1,1 h 13 c 0.553998,0 1,-0.446002 1,-1 0,-0.553998 -0.446002,-1 -1,-1 z m -4,5 c -0.552285,0 -1,0.447715 -1,1 0,0.552285 0.447715,1 1,1 0.552285,0 1,-0.447715 1,-1 0,-0.552285 -0.447715,-1 -1,-1 z m 4,0 c -0.553998,0 -1,0.446002 -1,1 0,0.553998 0.446002,1 1,1 h 13 c 0.553998,0 1,-0.446002 1,-1 0,-0.553998 -0.446002,-1 -1,-1 z"
     sodipodi:nodetypes="ssssssssssssssssssssssssssssssssssssssssssssssssss" /><path
     style="color:#000000;fill:url(#linearGradient2110);fill-opacity:1;stroke-linecap:round;stroke-linejoin:round;-inkscape-stroke:none"
     d="m 49.625,34.218875 c -0.431391,-0.345458 -1.061213,-0.275478 -1.40625,0.15625 l -4.363535,5.203254 -2.214844,-1.847656 c -0.420215,-0.350735 -1.044312,-0.29851 -1.400391,0.117187 l -3.999746,4.502011 c -0.359273,0.419584 -0.3103,1.05099 0.109375,1.410157 0.419584,0.359273 1.05099,0.3103 1.410157,-0.109375 l 3.357167,-3.752012 2.242188,1.869141 c 0.430175,0.359305 1.071606,0.294986 1.421875,-0.142578 l 5.000254,-6.000129 c 0.345458,-0.431391 0.275478,-1.061213 -0.15625,-1.40625 z"
     id="path691"
     sodipodi:nodetypes="ccccccccccccc" /></svg>
