<?xml version="1.0" encoding="UTF-8" standalone="no"?>
<!-- Created with Inkscape (http://www.inkscape.org/) -->

<svg
   width="64"
   height="64"
   viewBox="0 0 64 64"
   version="1.1"
   id="svg371"
   xml:space="preserve"
   inkscape:version="1.3 (0e150ed6c4, 2023-07-21)"
   sodipodi:docname="lollypop.svg"
   xmlns:inkscape="http://www.inkscape.org/namespaces/inkscape"
   xmlns:sodipodi="http://sodipodi.sourceforge.net/DTD/sodipodi-0.dtd"
   xmlns:xlink="http://www.w3.org/1999/xlink"
   xmlns="http://www.w3.org/2000/svg"
   xmlns:svg="http://www.w3.org/2000/svg"><sodipodi:namedview
     id="namedview373"
     pagecolor="#ffffff"
     bordercolor="#000000"
     borderopacity="0.25"
     inkscape:showpageshadow="2"
     inkscape:pageopacity="0.0"
     inkscape:pagecheckerboard="0"
     inkscape:deskcolor="#d1d1d1"
     inkscape:document-units="px"
     showgrid="false"
     inkscape:zoom="12.4375"
     inkscape:cx="32"
     inkscape:cy="32"
     inkscape:window-width="1920"
     inkscape:window-height="1000"
     inkscape:window-x="0"
     inkscape:window-y="0"
     inkscape:window-maximized="1"
     inkscape:current-layer="svg371"
     showguides="true" /><defs
     id="defs368"><linearGradient
       id="linearGradient3"
       inkscape:collect="always"><stop
         style="stop-color:#e4e4e4;stop-opacity:1;"
         offset="0"
         id="stop3" /><stop
         style="stop-color:#f1f1f1;stop-opacity:1;"
         offset="1"
         id="stop4" /></linearGradient><linearGradient
       id="linearGradient1"
       inkscape:collect="always"><stop
         style="stop-color:#fa4b8c;stop-opacity:1;"
         offset="0"
         id="stop1" /><stop
         style="stop-color:#fa5994;stop-opacity:1;"
         offset="1"
         id="stop2" /></linearGradient><linearGradient
       inkscape:collect="always"
       xlink:href="#linearGradient1"
       id="linearGradient2"
       x1="16"
       y1="31"
       x2="16"
       y2="1"
       gradientUnits="userSpaceOnUse"
       gradientTransform="scale(2)" /><linearGradient
       inkscape:collect="always"
       xlink:href="#linearGradient3"
       id="linearGradient4"
       x1="16"
       y1="31"
       x2="16"
       y2="1"
       gradientUnits="userSpaceOnUse"
       gradientTransform="scale(2)" /></defs><path
     d="M 2,32 C 2,9.5 9.5,2 32,2 54.5,2 62,9.5 62,32 62,54.5 54.5,62 32,62 9.5,62 2,54.5 2,32"
     style="fill:url(#linearGradient4);stroke-width:0.3"
     id="path311" /><path
     id="path5170"
     mask="none"
     style="fill:url(#linearGradient2);stroke-width:6.32456;stroke-linecap:round;stroke-linejoin:round"
     d="M 32,2 C 29.433036,2 27.070436,2.1022178 24.882812,2.3085938 24.354768,4.9317858 23.992852,8.0533158 24,12 c -0.0011,0.562854 0.0172,1.121667 0.05468,1.671875 A 20,20 0 0 1 32,12 20,20 0 0 1 36.625,12.546875 C 37.974544,9.1789438 39.707328,5.7657254 41.929688,2.6484376 39.002426,2.2072878 35.70879,2 32,2 Z M 11.632812,6.1367188 C 6.4736712,9.353049 3.6658762,14.63966 2.5625,22.644532 c 2.0424888,2.021546 4.6208758,4.27498 8.117188,6.285156 0.489792,0.284432 0.985848,0.537374 1.484374,0.78125 A 20,20 0 0 1 18.117188,17.671875 C 15.566994,14.220994 13.2218,10.313672 11.632812,6.1367188 Z m 44.707032,3.40625 c -3.488176,1.1785302 -6.615204,2.9738532 -11.019532,5.5273432 -0.48238,0.276884 -0.94572,0.571226 -1.398436,0.875 A 20,20 0 0 1 50.632812,24.75 C 54.07058,24.046906 57.774868,23.646326 61.582032,23.820312 60.873194,17.596092 59.220266,12.926081 56.339844,9.5429688 Z M 26.070312,20 C 24.979578,20.043216 24.001928,21.034196 24,22.398438 v 19.203124 c 0.0026,1.818986 1.74143,2.971042 3.167968,2.101562 l 15.714844,-9.593748 c 1.491304,-0.909024 1.491304,-3.309726 0,-4.218752 L 27.167968,20.296876 C 26.811336,20.079506 26.433892,19.985594 26.070312,20 Z m 25.765626,14.289062 a 20,20 0 0 1 -5.351562,11.4375 c 2.31068,3.540484 4.219432,7.750326 5.054686,12.621094 5.93202,-3.293982 8.987066,-9.041222 10.03125,-18.09375 -2.266792,-1.595462 -4.419112,-2.981058 -8.25,-5.183594 -0.489796,-0.284426 -0.985842,-0.537378 -1.484374,-0.78125 z m -39.039063,3.28125 c -3.23008,0.419222 -6.7908294,0.622162 -10.5820312,0.51172 0.5295546,6.888568 2.0722032,12.026114 4.9375,15.73828 3.1410082,-0.825224 6.8345412,-2.169884 11.5273442,-4.890624 0.49585,-0.2846 0.972978,-0.58547 1.4375,-0.898438 A 20,20 0 0 1 12.796875,37.570312 Z M 39.9375,50.328124 A 20,20 0 0 1 32,52 20,20 0 0 1 27.390624,51.414062 c -1.351744,3.380426 -3.089408,6.808192 -5.320312,9.9375 C 24.997574,61.792712 28.29121,62 32,62 34.368434,62 36.560702,61.91324 38.605468,61.738282 39.29954,59.106652 40.007192,55.978306 40,52 40.0014,51.436228 39.9752,50.879308 39.9375,50.328124 Z" /></svg>
