<?xml version="1.0" encoding="UTF-8" standalone="no"?>
<!-- Created with Inkscape (http://www.inkscape.org/) -->

<svg
   width="64"
   height="64"
   viewBox="0 0 64 64"
   version="1.1"
   id="svg371"
   xml:space="preserve"
   inkscape:version="1.2.2 (b0a8486541, 2022-12-01)"
   sodipodi:docname="okular.svg"
   xmlns:inkscape="http://www.inkscape.org/namespaces/inkscape"
   xmlns:sodipodi="http://sodipodi.sourceforge.net/DTD/sodipodi-0.dtd"
   xmlns:xlink="http://www.w3.org/1999/xlink"
   xmlns="http://www.w3.org/2000/svg"
   xmlns:svg="http://www.w3.org/2000/svg"><sodipodi:namedview
     id="namedview373"
     pagecolor="#ffffff"
     bordercolor="#000000"
     borderopacity="0.25"
     inkscape:showpageshadow="2"
     inkscape:pageopacity="0.0"
     inkscape:pagecheckerboard="0"
     inkscape:deskcolor="#d1d1d1"
     inkscape:document-units="px"
     showgrid="false"
     inkscape:zoom="12.34375"
     inkscape:cx="31.959494"
     inkscape:cy="32"
     inkscape:window-width="1920"
     inkscape:window-height="1011"
     inkscape:window-x="0"
     inkscape:window-y="0"
     inkscape:window-maximized="1"
     inkscape:current-layer="svg371"
     showguides="false" /><defs
     id="defs368"><linearGradient
       inkscape:collect="always"
       id="linearGradient1318"><stop
         style="stop-color:#2a67b6;stop-opacity:1;"
         offset="0"
         id="stop1314" /><stop
         style="stop-color:#5d78bb;stop-opacity:1;"
         offset="1"
         id="stop1316" /></linearGradient><linearGradient
       inkscape:collect="always"
       xlink:href="#linearGradient1318"
       id="linearGradient3040"
       x1="32"
       y1="62"
       x2="32"
       y2="2"
       gradientUnits="userSpaceOnUse" /></defs><path
     d="M 2,32 C 2,9.5 9.5,2 32,2 54.5,2 62,9.5 62,32 62,54.5 54.5,62 32,62 9.5,62 2,54.5 2,32"
     style="fill:url(#linearGradient3040);fill-opacity:1;stroke-width:0.3"
     id="path311" /><rect
     style="fill:#ffffff;stroke-width:2"
     id="rect292"
     width="32"
     height="40"
     x="16"
     y="12"
     ry="6" /><path
     id="path452"
     style="fill:#2c5a8d;fill-opacity:1;stroke-width:2.41522"
     d="m 36.000031,12 -2.414062,2.585938 C 25.774647,22.396916 22.875238,33.161808 28.34375,38.628906 32.842334,43.128652 40.924672,42.666356 48,38 V 34 C 42.541834,37.629272 35.31777,40.017814 31.398438,36.10156 26.710768,31.415242 30.031416,21.467736 35.5,16 L 40,12 Z"
     sodipodi:nodetypes="ccccccccc" /></svg>
