<?xml version="1.0" encoding="UTF-8" standalone="no"?>
<!-- Created with Inkscape (http://www.inkscape.org/) -->

<svg
   width="64"
   height="64"
   viewBox="0 0 64 64"
   version="1.1"
   id="svg371"
   xml:space="preserve"
   inkscape:version="1.3.2 (091e20ef0f, 2023-11-25, custom)"
   sodipodi:docname="org.kde.merkuro.calendar.svg"
   xmlns:inkscape="http://www.inkscape.org/namespaces/inkscape"
   xmlns:sodipodi="http://sodipodi.sourceforge.net/DTD/sodipodi-0.dtd"
   xmlns:xlink="http://www.w3.org/1999/xlink"
   xmlns="http://www.w3.org/2000/svg"
   xmlns:svg="http://www.w3.org/2000/svg"><sodipodi:namedview
     id="namedview373"
     pagecolor="#ffffff"
     bordercolor="#000000"
     borderopacity="0.25"
     inkscape:showpageshadow="2"
     inkscape:pageopacity="0.0"
     inkscape:pagecheckerboard="0"
     inkscape:deskcolor="#d1d1d1"
     inkscape:document-units="px"
     showgrid="false"
     inkscape:zoom="12.734375"
     inkscape:cx="32"
     inkscape:cy="32"
     inkscape:window-width="1920"
     inkscape:window-height="1004"
     inkscape:window-x="0"
     inkscape:window-y="30"
     inkscape:window-maximized="1"
     inkscape:current-layer="svg371"
     showguides="true" /><defs
     id="defs368"><linearGradient
       inkscape:collect="always"
       xlink:href="#linearGradient2"
       id="linearGradient3040"
       x1="32"
       y1="62"
       x2="32"
       y2="2"
       gradientUnits="userSpaceOnUse" /><linearGradient
       id="linearGradient2"
       inkscape:collect="always"><stop
         style="stop-color:#fd7f01;stop-opacity:1;"
         offset="0"
         id="stop2" /><stop
         style="stop-color:#f8ae41;stop-opacity:1;"
         offset="1"
         id="stop3" /></linearGradient></defs><path
     d="M 2,32 C 2,9.5 9.5,2 32,2 54.5,2 62,9.5 62,32 62,54.5 54.5,62 32,62 9.5,62 2,54.5 2,32"
     style="fill:url(#linearGradient3040);fill-opacity:1;stroke-width:0.3"
     id="path311" /><path
     id="rect900"
     style="fill:#ffffff;stroke-width:5.4;stroke-linecap:round;stroke-linejoin:round"
     d="m 20,14 c -3.323997,0 -6,2.676003 -6,6 v 24 c 0,3.323996 2.676003,6 6,6 h 24 c 3.323996,0 6,-2.676004 6,-6 V 20 c 0,-3.323997 -2.676004,-6 -6,-6 h -2 a 4,4 0 0 1 -4,4 4,4 0 0 1 -4,-4 h -4 a 4,4 0 0 1 -4,4 4,4 0 0 1 -4,-4 z" /><rect
     style="fill:#f47f08;fill-opacity:1"
     width="6"
     height="6"
     x="41"
     y="27"
     ry="1.5"
     id="rect6" /><rect
     style="fill:#f47f08;fill-opacity:1"
     width="6"
     height="6"
     x="25"
     y="27"
     ry="1.5"
     id="rect7" /><rect
     style="fill:#f47f08;fill-opacity:1"
     width="6"
     height="6"
     x="25"
     y="35"
     ry="1.5"
     id="rect8" /><rect
     style="fill:#f47f08;fill-opacity:1"
     width="6"
     height="6"
     x="17"
     y="35"
     ry="1.5"
     id="rect9" /><rect
     style="fill:#f47f08;fill-opacity:1"
     width="6"
     height="6"
     x="41"
     y="35"
     ry="1.5"
     id="rect10" /><rect
     style="fill:#f47f08;fill-opacity:1"
     width="6"
     height="6"
     x="33"
     y="27"
     ry="1.5"
     id="rect11" /><path
     style="color:#000000;fill:#f47f08;stroke-linecap:round;stroke-linejoin:round;-inkscape-stroke:none;fill-opacity:1"
     d="M 39.146484,36.146484 35.5,39.792969 33.853516,38.146484 a 0.5,0.5 0 0 0 -0.707032,0 0.5,0.5 0 0 0 0,0.707032 l 2,2 a 0.50005,0.50005 0 0 0 0.707032,0 l 4,-4 a 0.5,0.5 0 0 0 0,-0.707032 0.5,0.5 0 0 0 -0.707032,0 z"
     id="path11" /></svg>
