<?xml version="1.0" encoding="UTF-8" standalone="no"?>
<!-- Created with Inkscape (http://www.inkscape.org/) -->

<svg
   width="64"
   height="64"
   viewBox="0 0 64 64"
   version="1.1"
   id="svg371"
   xml:space="preserve"
   inkscape:version="1.2 (1:1.2.1+202207142221+cd75a1ee6d)"
   sodipodi:docname="org.gnome.Polari.svg"
   xmlns:inkscape="http://www.inkscape.org/namespaces/inkscape"
   xmlns:sodipodi="http://sodipodi.sourceforge.net/DTD/sodipodi-0.dtd"
   xmlns:xlink="http://www.w3.org/1999/xlink"
   xmlns="http://www.w3.org/2000/svg"
   xmlns:svg="http://www.w3.org/2000/svg"><sodipodi:namedview
     id="namedview373"
     pagecolor="#ffffff"
     bordercolor="#000000"
     borderopacity="0.25"
     inkscape:showpageshadow="2"
     inkscape:pageopacity="0.0"
     inkscape:pagecheckerboard="0"
     inkscape:deskcolor="#d1d1d1"
     inkscape:document-units="px"
     showgrid="false"
     inkscape:zoom="12.890625"
     inkscape:cx="31.961212"
     inkscape:cy="32"
     inkscape:window-width="1920"
     inkscape:window-height="1018"
     inkscape:window-x="0"
     inkscape:window-y="28"
     inkscape:window-maximized="1"
     inkscape:current-layer="svg371"
     showguides="true" /><defs
     id="defs368"><linearGradient
       inkscape:collect="always"
       xlink:href="#linearGradient1070"
       id="linearGradient3040"
       x1="32"
       y1="62"
       x2="32"
       y2="2"
       gradientUnits="userSpaceOnUse" /><linearGradient
       inkscape:collect="always"
       id="linearGradient1070"><stop
         style="stop-color:#1f9424;stop-opacity:1;"
         offset="0"
         id="stop1066" /><stop
         style="stop-color:#61b855;stop-opacity:1;"
         offset="1"
         id="stop1068" /></linearGradient></defs><path
     d="M 2,32 C 2,9.5 9.5,2 32,2 54.5,2 62,9.5 62,32 62,54.5 54.5,62 32,62 9.5,62 2,54.5 2,32"
     style="fill:url(#linearGradient3040);fill-opacity:1;stroke-width:0.3"
     id="path311" /><path
     id="path921"
     style="opacity:1;fill:#ffffff;stroke-width:2.0494"
     d="M 32,12 A 21,18 0 0 0 11,30 21,18 0 0 0 20.542968,45.070312 C 19.986265,47.580256 19.181865,49.9367 18,52 c 3.00492,-1.433098 5.642666,-2.92681 8.105468,-4.726562 A 21,18 0 0 0 32,48 21,18 0 0 0 53,30 21,18 0 0 0 32,12 Z" /><path
     id="rect845"
     style="fill:#1e8522;fill-opacity:1"
     d="m 28,20 c -0.553998,0 -1,0.446002 -1,1 v 4 h -4 c -0.553998,0 -1,0.446002 -1,1 0,0.553998 0.446002,1 1,1 h 4 v 6 h -4 c -0.553998,0 -1,0.446002 -1,1 0,0.553998 0.446002,1 1,1 h 4 v 4 c 0,0.553998 0.446002,1 1,1 0.553998,0 1,-0.446002 1,-1 v -4 h 6 v 4 c 0,0.553998 0.446002,1 1,1 0.553998,0 1,-0.446002 1,-1 v -4 h 4 c 0.553998,0 1,-0.446002 1,-1 0,-0.553998 -0.446002,-1 -1,-1 h -4 v -6 h 4 c 0.553998,0 1,-0.446002 1,-1 0,-0.553998 -0.446002,-1 -1,-1 h -4 v -4 c 0,-0.553998 -0.446002,-1 -1,-1 -0.553998,0 -1,0.446002 -1,1 v 4 h -6 v -4 c 0,-0.553998 -0.446002,-1 -1,-1 z m 1,7 h 6 v 6 h -6 z"
     sodipodi:nodetypes="sscsssccssscsssccssscsssccssscsssccssccccc" /></svg>
