<?xml version="1.0" encoding="UTF-8" standalone="no"?>
<!-- Created with Inkscape (http://www.inkscape.org/) -->

<svg
   width="64"
   height="64"
   viewBox="0 0 64 64"
   version="1.1"
   id="svg371"
   xml:space="preserve"
   inkscape:version="1.3 (0e150ed6c4, 2023-07-21)"
   sodipodi:docname="system-software-install.svg"
   xmlns:inkscape="http://www.inkscape.org/namespaces/inkscape"
   xmlns:sodipodi="http://sodipodi.sourceforge.net/DTD/sodipodi-0.dtd"
   xmlns:xlink="http://www.w3.org/1999/xlink"
   xmlns="http://www.w3.org/2000/svg"
   xmlns:svg="http://www.w3.org/2000/svg"><sodipodi:namedview
     id="namedview373"
     pagecolor="#ffffff"
     bordercolor="#000000"
     borderopacity="0.25"
     inkscape:showpageshadow="2"
     inkscape:pageopacity="0.0"
     inkscape:pagecheckerboard="0"
     inkscape:deskcolor="#d1d1d1"
     inkscape:document-units="px"
     showgrid="false"
     inkscape:zoom="12.234375"
     inkscape:cx="31.959132"
     inkscape:cy="32"
     inkscape:window-width="1920"
     inkscape:window-height="984"
     inkscape:window-x="0"
     inkscape:window-y="29"
     inkscape:window-maximized="1"
     inkscape:current-layer="svg371"
     showguides="false" /><defs
     id="defs368"><linearGradient
       inkscape:collect="always"
       id="linearGradient1349"><stop
         style="stop-color:#ef3b00;stop-opacity:1;"
         offset="0"
         id="stop1345" /><stop
         style="stop-color:#fe2794;stop-opacity:1;"
         offset="1"
         id="stop1347" /></linearGradient><linearGradient
       inkscape:collect="always"
       xlink:href="#linearGradient1349"
       id="linearGradient3040"
       x1="62"
       y1="62"
       x2="17.700407"
       y2="7.6766477"
       gradientUnits="userSpaceOnUse" /></defs><path
     d="M 2,32 C 2,9.5 9.5,2 32,2 54.5,2 62,9.5 62,32 62,54.5 54.5,62 32,62 9.5,62 2,54.5 2,32"
     style="fill:url(#linearGradient3040);fill-opacity:1;stroke-width:0.3"
     id="path311" /><path
     id="rect1"
     style="fill:#ffffff;stroke-width:1.33333;stroke-linecap:round;stroke-linejoin:round"
     d="M 20 14 C 16.676003 14 14 16.676003 14 20 L 14 24 C 14 27.323997 16.676003 30 20 30 L 24 30 C 27.323997 30 30 27.323997 30 24 L 30 20 C 30 16.676003 27.323997 14 24 14 L 20 14 z M 40 14 C 36.676003 14 34 16.676003 34 20 L 34 24 C 34 27.323997 36.676003 30 40 30 L 44 30 C 47.323997 30 50 27.323997 50 24 L 50 20 C 50 16.676003 47.323997 14 44 14 L 40 14 z M 20 34 C 16.676003 34 14 36.676003 14 40 L 14 44 C 14 47.323997 16.676003 50 20 50 L 24 50 C 27.323997 50 30 47.323997 30 44 L 30 40 C 30 36.676003 27.323997 34 24 34 L 20 34 z " /><path
     id="rect2"
     style="opacity:0.6;fill:#ffffff;stroke-linecap:round;stroke-linejoin:round"
     d="M 42 34 C 40.338004 34 39 35.338004 39 37 L 39 42 L 34 42 L 42 50 L 50 42 L 45 42 L 45 37 C 45 35.338004 43.661996 34 42 34 z " /></svg>
