<?xml version="1.0" encoding="UTF-8" standalone="no"?>
<!-- Created with Inkscape (http://www.inkscape.org/) -->

<svg
   width="64"
   height="64"
   viewBox="0 0 64 64"
   version="1.1"
   id="svg371"
   xml:space="preserve"
   inkscape:version="1.3.2 (091e20ef0f, 2023-11-25, custom)"
   sodipodi:docname="telegram.svg"
   xmlns:inkscape="http://www.inkscape.org/namespaces/inkscape"
   xmlns:sodipodi="http://sodipodi.sourceforge.net/DTD/sodipodi-0.dtd"
   xmlns:xlink="http://www.w3.org/1999/xlink"
   xmlns="http://www.w3.org/2000/svg"
   xmlns:svg="http://www.w3.org/2000/svg"><sodipodi:namedview
     id="namedview373"
     pagecolor="#ffffff"
     bordercolor="#000000"
     borderopacity="0.25"
     inkscape:showpageshadow="2"
     inkscape:pageopacity="0.0"
     inkscape:pagecheckerboard="0"
     inkscape:deskcolor="#d1d1d1"
     inkscape:document-units="px"
     showgrid="false"
     inkscape:zoom="12.421875"
     inkscape:cx="31.959748"
     inkscape:cy="32"
     inkscape:window-width="1920"
     inkscape:window-height="1008"
     inkscape:window-x="0"
     inkscape:window-y="0"
     inkscape:window-maximized="1"
     inkscape:current-layer="svg371"
     showguides="true" /><defs
     id="defs368"><linearGradient
       inkscape:collect="always"
       xlink:href="#linearGradient1595"
       id="linearGradient3040"
       x1="32"
       y1="62"
       x2="32"
       y2="2"
       gradientUnits="userSpaceOnUse" /><linearGradient
       inkscape:collect="always"
       id="linearGradient1595"><stop
         style="stop-color:#1d9ad8;stop-opacity:1"
         offset="0"
         id="stop1591" /><stop
         style="stop-color:#3cacde;stop-opacity:1"
         offset="1"
         id="stop1593" /></linearGradient></defs><path
     d="M 2,32 C 2,9.5 9.5,2 32,2 54.5,2 62,9.5 62,32 62,54.5 54.5,62 32,62 9.5,62 2,54.5 2,32"
     style="fill:url(#linearGradient3040);fill-opacity:1;stroke-width:0.3"
     id="path311" /><path
     id="path10"
     style="fill:#ffffff;stroke-width:2.1302"
     d="m 48.013582,18.001302 c -0.794518,0.02282 -1.734592,0.341668 -2.647014,0.648704 -5.969542,2.015974 -24.84459,10.186412 -30.010501,12.882092 -1.271634,0.527132 -1.818762,1.423678 -0.893364,2.197238 0.796672,0.65571 3.712125,1.558708 6.063309,2.017274 2.004314,0.60642 3.558374,0.02528 4.99623,-0.786822 3.453828,-2.046402 13.745306,-8.558596 14.29801,-8.922876 0.554808,-0.362138 1.161174,0.310438 0.852,0.63615 -0.309166,0.327852 -7.595438,6.86355 -9.988334,9.818514 -1.268446,1.624264 -1.23202,2.491306 0.07044,3.515582 2.922302,2.290686 10.728316,7.515548 11.890882,7.830544 1.480208,0.402842 2.349054,0.0681 2.97375,-1.142564 0.569532,-1.10784 3.849814,-20.02669 4.317806,-24.918774 0.31767,-3.028756 -0.598982,-3.813085 -1.923208,-3.775062 z" /></svg>
