<?xml version="1.0" encoding="UTF-8" standalone="no"?>
<!-- Created with Inkscape (http://www.inkscape.org/) -->

<svg
   width="64"
   height="64"
   viewBox="0 0 64 64"
   version="1.1"
   id="svg371"
   xml:space="preserve"
   inkscape:version="1.2.1 (9c6d41e410, 2022-07-14, custom)"
   sodipodi:docname="utilities-terminal.svg"
   xmlns:inkscape="http://www.inkscape.org/namespaces/inkscape"
   xmlns:sodipodi="http://sodipodi.sourceforge.net/DTD/sodipodi-0.dtd"
   xmlns:xlink="http://www.w3.org/1999/xlink"
   xmlns="http://www.w3.org/2000/svg"
   xmlns:svg="http://www.w3.org/2000/svg"><sodipodi:namedview
     id="namedview373"
     pagecolor="#ffffff"
     bordercolor="#000000"
     borderopacity="0.25"
     inkscape:showpageshadow="2"
     inkscape:pageopacity="0.0"
     inkscape:pagecheckerboard="0"
     inkscape:deskcolor="#d1d1d1"
     inkscape:document-units="px"
     showgrid="false"
     inkscape:zoom="11.3125"
     inkscape:cx="31.955801"
     inkscape:cy="32"
     inkscape:window-width="1920"
     inkscape:window-height="947"
     inkscape:window-x="0"
     inkscape:window-y="0"
     inkscape:window-maximized="1"
     inkscape:current-layer="svg371"
     showguides="false" /><defs
     id="defs368"><linearGradient
       inkscape:collect="always"
       id="linearGradient5601"><stop
         style="stop-color:#3b3b3b;stop-opacity:1;"
         offset="0"
         id="stop5597" /><stop
         style="stop-color:#6d6d6d;stop-opacity:1;"
         offset="1"
         id="stop5599" /></linearGradient><linearGradient
       inkscape:collect="always"
       xlink:href="#linearGradient5601"
       id="linearGradient3040"
       x1="32"
       y1="62"
       x2="32"
       y2="2"
       gradientUnits="userSpaceOnUse" /></defs><path
     d="M 2,32 C 2,9.5 9.5,2 32,2 54.5,2 62,9.5 62,32 62,54.5 54.5,62 32,62 9.5,62 2,54.5 2,32"
     style="fill:url(#linearGradient3040);fill-opacity:1;stroke-width:0.3"
     id="path311" /><path
     d="m 16.001667,18 c -0.511238,0 -1.022324,0.196153 -1.414062,0.587891 -0.783474,0.783475 -0.783474,2.044651 0,2.828125 L 24.730183,31.558594 14.587605,41.701172 c -0.783473,0.783473 -0.783474,2.04465 0,2.828125 0.783475,0.783474 2.044652,0.783473 2.828125,0 L 28.97237,32.972656 c 0.783474,-0.783475 0.783474,-2.04465 0,-2.828125 L 17.41573,18.587891 C 17.023994,18.196154 16.512905,18 16.001667,18 Z m 15.998047,24 c -1.108,0 -2,0.892 -2,2 0,1.108 0.892,2 2,2 h 16 c 1.108,0 2,-0.892 2,-2 0,-1.108 -0.892,-2 -2,-2 z"
     style="fill:#ffffff;fill-opacity:1;stroke:none;stroke-width:2;stroke-linecap:round;stroke-linejoin:round"
     id="path342" /></svg>
