<?xml version="1.0" encoding="UTF-8" standalone="no"?>
<!-- Created with Inkscape (http://www.inkscape.org/) -->

<svg
   width="64"
   height="64"
   viewBox="0 0 64 64"
   version="1.1"
   id="svg371"
   xml:space="preserve"
   inkscape:version="1.2.2 (1:1.2.2+202305151914+b0a8486541)"
   sodipodi:docname="weather-app.svg"
   xmlns:inkscape="http://www.inkscape.org/namespaces/inkscape"
   xmlns:sodipodi="http://sodipodi.sourceforge.net/DTD/sodipodi-0.dtd"
   xmlns:xlink="http://www.w3.org/1999/xlink"
   xmlns="http://www.w3.org/2000/svg"
   xmlns:svg="http://www.w3.org/2000/svg"><sodipodi:namedview
     id="namedview373"
     pagecolor="#ffffff"
     bordercolor="#000000"
     borderopacity="0.25"
     inkscape:showpageshadow="2"
     inkscape:pageopacity="0.0"
     inkscape:pagecheckerboard="0"
     inkscape:deskcolor="#d1d1d1"
     inkscape:document-units="px"
     showgrid="false"
     inkscape:zoom="12.59375"
     inkscape:cx="31.960298"
     inkscape:cy="32"
     inkscape:window-width="1920"
     inkscape:window-height="1008"
     inkscape:window-x="0"
     inkscape:window-y="0"
     inkscape:window-maximized="1"
     inkscape:current-layer="svg371"
     showguides="false" /><defs
     id="defs368"><linearGradient
       inkscape:collect="always"
       id="linearGradient1846"><stop
         style="stop-color:#358ff8;stop-opacity:1;"
         offset="0"
         id="stop1842" /><stop
         style="stop-color:#61b0f8;stop-opacity:1;"
         offset="1"
         id="stop1844" /></linearGradient><linearGradient
       inkscape:collect="always"
       xlink:href="#linearGradient1846"
       id="linearGradient1505"
       x1="32"
       y1="62"
       x2="32"
       y2="2"
       gradientUnits="userSpaceOnUse" /></defs><path
     d="M 2,32 C 2,9.5 9.5,2 32,2 54.5,2 62,9.5 62,32 62,54.5 54.5,62 32,62 9.5,62 2,54.5 2,32"
     style="fill:url(#linearGradient1505);fill-opacity:1;stroke-width:0.3"
     id="path311" /><path
     id="path467"
     style="fill:#fdbb1c;stroke-width:3.6;stroke-linecap:round;stroke-linejoin:round"
     d="m 37.359376,12.472151 c -0.0641,0.0011 -0.1266,0.0095 -0.1914,0.02344 -0.0168,0.0037 -0.0341,0.01104 -0.05078,0.01562 -0.535134,0.143386 -0.850416,0.687537 -0.707032,1.222656 l 0.519532,1.933594 c 0.14338,0.535123 0.687536,0.85041 1.222656,0.707031 0.535112,-0.143384 0.850414,-0.691445 0.707032,-1.226562 L 38.34375,13.218245 c -0.10636,-0.396904 -0.435448,-0.676084 -0.816406,-0.734375 -0.05444,-0.0083 -0.11192,-0.01266 -0.16796,-0.01172 z m 7.277342,0 c -0.05608,-10e-4 -0.11352,0.0033 -0.16796,0.01172 -0.380954,0.05829 -0.70614,0.337472 -0.8125,0.734375 l -0.515626,1.933594 c -0.14338,0.535116 0.17192,1.079269 0.707032,1.222656 0.53512,0.143378 1.079266,-0.171908 1.222656,-0.707031 l 0.515626,-1.929688 c 0.14338,-0.53512 -0.1719,-1.083176 -0.707032,-1.226562 -0.0168,-0.0046 -0.03008,-0.01206 -0.04688,-0.01562 -0.06482,-0.01388 -0.13122,-0.02243 -0.19532,-0.02344 z m 6.015626,3.324219 c -0.287712,-0.0024 -0.577042,0.12065 -0.777344,0.359375 l -1.285156,1.53125 c -0.356106,0.424386 -0.299388,1.050148 0.125,1.40625 0.0134,0.011 0.02566,0.02076 0.03906,0.03126 0.10578,0.08 0.22241,0.13942 0.34375,0.17188 0.363942,0.09754 0.768628,-0.0158 1.027344,-0.32422 l 1.285158,-1.531264 c 0.356094,-0.424382 0.299396,-1.054064 -0.125,-1.410156 C 51.099484,15.874952 50.87612,15.79826 50.652344,15.79637 Z m -19.566406,0.300781 c -0.11862,0.0013 -0.235448,0.02266 -0.347656,0.06641 -0.05132,0.01998 -0.10422,0.04536 -0.15234,0.07422 -0.05496,0.03301 -0.1071,0.07274 -0.15626,0.117188 -0.0126,0.01154 -0.02298,0.02675 -0.03516,0.03906 -0.391748,0.391743 -0.391742,1.022329 0,1.414063 l 1.414062,1.414062 c 0.391728,0.391736 1.02232,0.391732 1.414062,0 0.391726,-0.39173 0.391726,-1.022328 0,-1.414062 L 31.808594,16.394026 C 31.608832,16.194273 31.346902,16.094197 31.085938,16.097151 Z M 41,17.999495 a 9,9 0 0 0 -9,8.999999 9,9 0 0 0 9,9 9,9 0 0 0 9,-9 9,9 0 0 0 -9,-8.999999 z m 13.105468,3.210937 c -0.09832,0.0048 -0.19536,0.02306 -0.292968,0.0586 l -1.878906,0.683594 c -0.52059,0.18948 -0.787128,0.760662 -0.597656,1.28125 0.18948,0.52058 0.760664,0.787138 1.28125,0.597656 l 1.878906,-0.683594 c 0.38614,-0.14054 0.635294,-0.49041 0.660156,-0.875 0.0036,-0.05494 0.002,-0.11226 -0.004,-0.16798 -0.0066,-0.06376 -0.0196,-0.12808 -0.03906,-0.1914 -0.005,-0.0164 -0.0136,-0.03062 -0.0196,-0.04688 -0.15394,-0.422996 -0.562238,-0.677026 -0.988282,-0.65625 z m -1.316406,6.871094 c -0.465616,0.0122 -0.872856,0.350736 -0.95703,0.828124 -0.003,0.017 -0.0056,0.02988 -0.0078,0.04688 -0.0164,0.13162 -0.0092,0.265438 0.02344,0.386718 0.0975,0.36396 0.400442,0.652788 0.796876,0.722656 l 1.96875,0.347656 c 0.545586,0.0962 1.06005,-0.266916 1.15625,-0.8125 0.0962,-0.54558 -0.263014,-1.06005 -0.808594,-1.15625 l -1.96875,-0.347656 c -0.0682,-0.012 -0.1366,-0.0174 -0.203126,-0.0156 z" /><path
     d="M 23.333334,19.999495 C 15.969538,19.999495 10,25.969032 10,33.332828 10,40.696624 15.969538,46.66616 23.333334,46.66616 h 19.04762 C 46.601906,46.66616 50,43.268066 50,39.047114 50,34.82616 46.601906,31.428066 42.380954,31.428066 H 36.527158 C 35.580452,24.869088 29.960284,20.000864 23.333334,19.999495 Z"
     style="fill:#ffffff;fill-opacity:1;stroke-width:4.44444;stroke-linecap:round;stroke-linejoin:round"
     id="path1142" /><path
     id="path1162"
     style="fill:#ffffff;stroke-width:4;stroke-linecap:round;stroke-linejoin:round"
     d="m 24,20 a 14,14 0 0 0 -14,13.999999 14,14 0 0 0 14,14 h 19 c 4.985996,0 9,-4.014004 9,-9 0,-4.985996 -4.014004,-9 -9,-9 H 37.414062 A 14,14 0 0 0 24,20 Z" /></svg>
