<?xml version="1.0" encoding="UTF-8" standalone="no"?>
<!-- Created with Inkscape (http://www.inkscape.org/) -->

<svg
   width="64"
   height="64"
   viewBox="0 0 64 64"
   version="1.1"
   id="svg371"
   xml:space="preserve"
   inkscape:version="1.2 (1:1.2.1+202207142221+cd75a1ee6d)"
   sodipodi:docname="youtube-dl.svg"
   xmlns:inkscape="http://www.inkscape.org/namespaces/inkscape"
   xmlns:sodipodi="http://sodipodi.sourceforge.net/DTD/sodipodi-0.dtd"
   xmlns="http://www.w3.org/2000/svg"
   xmlns:svg="http://www.w3.org/2000/svg"><sodipodi:namedview
     id="namedview373"
     pagecolor="#ffffff"
     bordercolor="#000000"
     borderopacity="0.25"
     inkscape:showpageshadow="2"
     inkscape:pageopacity="0.0"
     inkscape:pagecheckerboard="0"
     inkscape:deskcolor="#d1d1d1"
     inkscape:document-units="px"
     showgrid="false"
     inkscape:zoom="12.890625"
     inkscape:cx="31.961212"
     inkscape:cy="32"
     inkscape:window-width="1920"
     inkscape:window-height="1018"
     inkscape:window-x="0"
     inkscape:window-y="28"
     inkscape:window-maximized="1"
     inkscape:current-layer="svg371"
     showguides="false" /><defs
     id="defs368" /><path
     d="M 2,32 C 2,9.5 9.5,2 32,2 54.5,2 62,9.5 62,32 62,54.5 54.5,62 32,62 9.5,62 2,54.5 2,32"
     style="fill:#f5f5f5;fill-opacity:1;stroke-width:0.3"
     id="path311" /><path
     id="path1633"
     style="fill:#ff0000;fill-opacity:1;stroke-width:0.338475"
     d="m 31.999933,18 c 0,0 -12.108351,0.0013 -15.412275,0.824869 -1.773687,0.461161 -3.232711,1.841752 -3.719605,3.554686 C 11.998598,25.508962 12,32 12,32 c 0,0 -0.0014,6.523975 0.868053,9.620445 0.486896,1.712934 1.911143,3.061613 3.719605,3.522785 C 19.926358,45.999701 31.999933,46 31.999933,46 c 0,0 12.104008,-0.0014 15.407933,-0.824869 1.808466,-0.461161 3.232711,-1.809852 3.719608,-3.522785 0.869454,-3.129411 0.872392,-9.620443 0.872392,-9.620443 0,0 0.03156,-6.522939 -0.872392,-9.652347 -0.486897,-1.712934 -1.911142,-3.06161 -3.719608,-3.522785 C 44.103941,18.000304 31.999933,18 31.999933,18 Z"
     sodipodi:nodetypes="ccccccccccccc" /><path
     id="rect1087"
     style="fill:#ffffff;stroke-width:0.904381"
     d="m 29,24 h 6 v 8 h 5 l -8,8 -8,-8 h 5 z"
     sodipodi:nodetypes="cccccccc" /></svg>
