<?xml version="1.0" encoding="UTF-8" standalone="no"?>
<!-- Created with Inkscape (http://www.inkscape.org/) -->

<svg
   width="64"
   height="64"
   viewBox="0 0 64 64"
   version="1.1"
   id="svg371"
   xml:space="preserve"
   inkscape:version="1.2.2 (b0a8486541, 2022-12-01)"
   sodipodi:docname="zanshin.svg"
   xmlns:inkscape="http://www.inkscape.org/namespaces/inkscape"
   xmlns:sodipodi="http://sodipodi.sourceforge.net/DTD/sodipodi-0.dtd"
   xmlns:xlink="http://www.w3.org/1999/xlink"
   xmlns="http://www.w3.org/2000/svg"
   xmlns:svg="http://www.w3.org/2000/svg"><sodipodi:namedview
     id="namedview373"
     pagecolor="#ffffff"
     bordercolor="#000000"
     borderopacity="0.25"
     inkscape:showpageshadow="2"
     inkscape:pageopacity="0.0"
     inkscape:pagecheckerboard="0"
     inkscape:deskcolor="#d1d1d1"
     inkscape:document-units="px"
     showgrid="false"
     inkscape:zoom="12.34375"
     inkscape:cx="31.959494"
     inkscape:cy="32"
     inkscape:window-width="1920"
     inkscape:window-height="1011"
     inkscape:window-x="0"
     inkscape:window-y="0"
     inkscape:window-maximized="1"
     inkscape:current-layer="svg371"
     showguides="false" /><defs
     id="defs368"><linearGradient
       inkscape:collect="always"
       id="linearGradient1208"><stop
         style="stop-color:#304a75;stop-opacity:1;"
         offset="0"
         id="stop1204" /><stop
         style="stop-color:#2a689a;stop-opacity:1;"
         offset="1"
         id="stop1206" /></linearGradient><linearGradient
       inkscape:collect="always"
       xlink:href="#linearGradient1208"
       id="linearGradient3040"
       x1="32"
       y1="62"
       x2="32"
       y2="2"
       gradientUnits="userSpaceOnUse" /></defs><path
     d="M 2,32 C 2,9.5 9.5,2 32,2 54.5,2 62,9.5 62,32 62,54.5 54.5,62 32,62 9.5,62 2,54.5 2,32"
     style="fill:url(#linearGradient3040);fill-opacity:1.0;stroke-width:0.3"
     id="path311" /><path
     id="rect898"
     style="fill:#ffffff;stroke-width:5.84808;stroke-linecap:round;stroke-linejoin:round"
     d="m 20,34 c -2.215996,0 -3.099999,0.974997 -4,3 l -4,9 c -0.94047,1.998028 0.160511,4 4,4 h 32 c 3.839489,0 4.94047,-2.001972 4,-4 l -4,-9 c -0.900001,-2.025003 -1.784004,-3 -4,-3 z"
     sodipodi:nodetypes="csccccscc" /><path
     id="path397"
     style="fill:#70a1c9;fill-opacity:1;stroke-width:0.666665;stroke-linecap:round;stroke-linejoin:round"
     d="m 32,11 c -2.209139,0 -4,1.790861 -4,4 0,2.209139 1.790861,4 4,4 2.209139,0 4,-1.790861 4,-4 0,-2.209139 -1.790861,-4 -4,-4 z m 0,12 c -2.209139,0 -4,1.790861 -4,4 0,2.209139 1.790861,4 4,4 2.209139,0 4,-1.790861 4,-4 0,-2.209139 -1.790861,-4 -4,-4 z m 0,15 c -6.627417,0 -12,1.790861 -12,4 0,2.209139 5.372583,4 12,4 6.627417,0 12,-1.790861 12,-4 0,-2.209139 -5.372583,-4 -12,-4 z"
     sodipodi:nodetypes="sssssssssssssss" /></svg>
