<?xml version="1.0" encoding="UTF-8" standalone="no"?>
<!-- Created with Inkscape (http://www.inkscape.org/) -->

<svg
   width="64"
   height="64"
   viewBox="0 0 64 64"
   version="1.1"
   id="svg371"
   xml:space="preserve"
   inkscape:version="1.2.2 (1:1.2.2+202305151914+b0a8486541)"
   sodipodi:docname="application-x-iso9660-appimage.svg"
   xmlns:inkscape="http://www.inkscape.org/namespaces/inkscape"
   xmlns:sodipodi="http://sodipodi.sourceforge.net/DTD/sodipodi-0.dtd"
   xmlns:xlink="http://www.w3.org/1999/xlink"
   xmlns="http://www.w3.org/2000/svg"
   xmlns:svg="http://www.w3.org/2000/svg"><sodipodi:namedview
     id="namedview373"
     pagecolor="#ffffff"
     bordercolor="#000000"
     borderopacity="0.25"
     inkscape:showpageshadow="2"
     inkscape:pageopacity="0.0"
     inkscape:pagecheckerboard="0"
     inkscape:deskcolor="#d1d1d1"
     inkscape:document-units="px"
     showgrid="false"
     inkscape:zoom="12.59375"
     inkscape:cx="31.960298"
     inkscape:cy="32"
     inkscape:window-width="1920"
     inkscape:window-height="1008"
     inkscape:window-x="0"
     inkscape:window-y="0"
     inkscape:window-maximized="1"
     inkscape:current-layer="svg371"
     showguides="true" /><defs
     id="defs368"><linearGradient
       inkscape:collect="always"
       xlink:href="#linearGradient3519"
       id="linearGradient3040"
       x1="32"
       y1="62"
       x2="32"
       y2="2"
       gradientUnits="userSpaceOnUse" /><linearGradient
       inkscape:collect="always"
       id="linearGradient3519"><stop
         style="stop-color:#e4e4e4;stop-opacity:1;"
         offset="0"
         id="stop3515" /><stop
         style="stop-color:#f1f1f1;stop-opacity:1;"
         offset="1"
         id="stop3517" /></linearGradient><linearGradient
       inkscape:collect="always"
       xlink:href="#linearGradient3251"
       id="linearGradient1452"
       x1="24"
       y1="46"
       x2="24"
       y2="2"
       gradientUnits="userSpaceOnUse"
       gradientTransform="matrix(1.4285714,0,0,1.4285714,-2.2857168,-2.2857142)" /><linearGradient
       inkscape:collect="always"
       id="linearGradient3251"><stop
         style="stop-color:#1365de;stop-opacity:1;"
         offset="0"
         id="stop3247" /><stop
         style="stop-color:#1e87e9;stop-opacity:1;"
         offset="1"
         id="stop3249" /></linearGradient></defs><path
     d="M 2,32 C 2,9.5 9.5,2 32,2 54.5,2 62,9.5 62,32 62,54.5 54.5,62 32,62 9.5,62 2,54.5 2,32"
     style="fill:url(#linearGradient3040);fill-opacity:1;stroke-width:0.3"
     id="path311" /><path
     id="path1179"
     style="fill:url(#linearGradient1452);fill-opacity:1;stroke-width:5;stroke-linecap:round;stroke-linejoin:round"
     d="m 29.499998,12 c -1.384994,0 -2.209802,1.145745 -2.5,2.5 l -1.383928,6.445312 -6.272325,-2.025669 c -1.28532,-0.515914 -2.72268,-0.284257 -3.415176,0.915177 l -2.5,4.330356 c -0.692497,1.199444 -0.112546,2.486738 0.915176,3.41518 L 19.237719,32 14.343747,36.419644 c -1.027717,0.928444 -1.607675,2.215736 -0.915177,3.41518 l 2.499999,4.330352 c 0.692496,1.199448 2.12986,1.431094 3.415176,0.91518 L 25.61607,43.054688 26.999998,49.5 c 0.19588,1.371074 1.115006,2.5 2.5,2.5 h 5 c 1.385,0 2.209802,-1.14575 2.5,-2.5 l 1.383928,-6.445312 6.272324,2.025668 c 1.285314,0.515914 2.72268,0.284288 3.415176,-0.91518 l 2.500002,-4.330352 c 0.6925,-1.199444 0.11256,-2.486736 -0.915178,-3.41518 L 44.762276,32 49.65625,27.580356 c 1.02772,-0.928442 1.607678,-2.215736 0.915178,-3.41518 L 48.071426,19.83482 C 47.37893,18.63538 45.941566,18.403729 44.65625,18.919643 L 38.383926,20.945312 36.999998,14.5 c -0.19588,-1.371077 -1.115,-2.5 -2.5,-2.5 z"
     sodipodi:nodetypes="scccccccccccccsscccccccccccccss" /><path
     id="rect1147"
     style="fill:#d4e2fc;fill-opacity:1;stroke-width:3.31266;stroke-linecap:round"
     d="m 31.999998,22 c 1.662,0 3,1.338 3,3 v 9 H 40 L 31.999998,42 24,34 h 4.999998 v -9 c 0,-1.662 1.338,-3 3,-3 z"
     sodipodi:nodetypes="sscccccss" /></svg>
