<?xml version="1.0" encoding="UTF-8" standalone="no"?>
<!-- Created with Inkscape (http://www.inkscape.org/) -->

<svg
   width="64"
   height="64"
   viewBox="0 0 64 64"
   version="1.1"
   id="svg371"
   xml:space="preserve"
   inkscape:version="1.3 (0e150ed6c4, 2023-07-21)"
   sodipodi:docname="application-x-desktop.svg"
   xmlns:inkscape="http://www.inkscape.org/namespaces/inkscape"
   xmlns:sodipodi="http://sodipodi.sourceforge.net/DTD/sodipodi-0.dtd"
   xmlns:xlink="http://www.w3.org/1999/xlink"
   xmlns="http://www.w3.org/2000/svg"
   xmlns:svg="http://www.w3.org/2000/svg"><sodipodi:namedview
     id="namedview373"
     pagecolor="#ffffff"
     bordercolor="#000000"
     borderopacity="0.25"
     inkscape:showpageshadow="2"
     inkscape:pageopacity="0.0"
     inkscape:pagecheckerboard="0"
     inkscape:deskcolor="#d1d1d1"
     inkscape:document-units="px"
     showgrid="false"
     inkscape:zoom="12.4375"
     inkscape:cx="31.959799"
     inkscape:cy="32"
     inkscape:window-width="1920"
     inkscape:window-height="1000"
     inkscape:window-x="0"
     inkscape:window-y="0"
     inkscape:window-maximized="1"
     inkscape:current-layer="svg371"
     showguides="true" /><defs
     id="defs368"><linearGradient
       inkscape:collect="always"
       xlink:href="#linearGradient3519"
       id="linearGradient3040"
       x1="32"
       y1="62"
       x2="32"
       y2="2"
       gradientUnits="userSpaceOnUse" /><linearGradient
       inkscape:collect="always"
       id="linearGradient3519"><stop
         style="stop-color:#e4e4e4;stop-opacity:1;"
         offset="0"
         id="stop3515" /><stop
         style="stop-color:#f1f1f1;stop-opacity:1;"
         offset="1"
         id="stop3517" /></linearGradient></defs><path
     d="M 2,32 C 2,9.5 9.5,2 32,2 54.5,2 62,9.5 62,32 62,54.5 54.5,62 32,62 9.5,62 2,54.5 2,32"
     style="fill:url(#linearGradient3040);fill-opacity:1;stroke-width:0.3"
     id="path311" /><path
     id="path1179"
     style="fill:#8e8e8e;fill-opacity:1;stroke-width:5;stroke-linecap:round;stroke-linejoin:round"
     d="m 29.499998,12 c -1.384993,0 -2.209802,1.145746 -2.5,2.5 l -1.384766,6.445312 -6.271484,-2.02539 c -1.285319,-0.515914 -2.72352,-0.28537 -3.416016,0.914062 l -2.5,4.332032 c -0.692496,1.199442 -0.111705,2.485621 0.916016,3.414062 L 19.238279,32 14.343748,36.419922 c -1.027716,0.928443 -1.608513,2.21462 -0.916016,3.414062 l 2.5,4.332032 c 0.692496,1.199446 2.130701,1.429976 3.416016,0.914062 L 25.615232,43.054688 26.999998,49.5 c 0.19588,1.371073 1.115007,2.5 2.5,2.5 h 5 c 1.384999,0 2.209802,-1.145751 2.5,-2.5 l 1.384766,-6.445312 6.271484,2.02539 c 1.285313,0.515914 2.72352,0.285404 3.416016,-0.914062 l 2.5,-4.332032 c 0.692499,-1.199442 0.111721,-2.485619 -0.916016,-3.414062 L 44.761717,32 49.656248,27.580078 c 1.027719,-0.928441 1.608515,-2.21462 0.916016,-3.414062 l -2.5,-4.332032 C 47.379768,18.634546 45.941563,18.404008 44.656248,18.919922 L 38.384764,20.945312 36.999998,14.5 c -0.19588,-1.371076 -1.115001,-2.5 -2.5,-2.5 z m 2.5,12 a 8,8 0 0 1 8,8 8,8 0 0 1 -8,8 8,8 0 0 1 -8,-8 8,8 0 0 1 8,-8 z" /></svg>
