<?xml version="1.0" encoding="UTF-8" standalone="no"?>
<!-- Created with Inkscape (http://www.inkscape.org/) -->

<svg
   width="64"
   height="64"
   viewBox="0 0 64 64"
   version="1.1"
   id="svg371"
   xml:space="preserve"
   inkscape:version="1.3 (0e150ed6c4, 2023-07-21)"
   sodipodi:docname="application-x-exectuable.svg"
   xmlns:inkscape="http://www.inkscape.org/namespaces/inkscape"
   xmlns:sodipodi="http://sodipodi.sourceforge.net/DTD/sodipodi-0.dtd"
   xmlns:xlink="http://www.w3.org/1999/xlink"
   xmlns="http://www.w3.org/2000/svg"
   xmlns:svg="http://www.w3.org/2000/svg"><sodipodi:namedview
     id="namedview373"
     pagecolor="#ffffff"
     bordercolor="#000000"
     borderopacity="0.25"
     inkscape:showpageshadow="2"
     inkscape:pageopacity="0.0"
     inkscape:pagecheckerboard="0"
     inkscape:deskcolor="#d1d1d1"
     inkscape:document-units="px"
     showgrid="false"
     inkscape:zoom="12.4375"
     inkscape:cx="32"
     inkscape:cy="32"
     inkscape:window-width="1920"
     inkscape:window-height="1000"
     inkscape:window-x="0"
     inkscape:window-y="0"
     inkscape:window-maximized="1"
     inkscape:current-layer="svg371"
     showguides="true" /><defs
     id="defs368"><linearGradient
       inkscape:collect="always"
       xlink:href="#linearGradient3038"
       id="linearGradient3040"
       x1="32"
       y1="62"
       x2="32"
       y2="2"
       gradientUnits="userSpaceOnUse" /><linearGradient
       inkscape:collect="always"
       id="linearGradient3038"><stop
         style="stop-color:#3f495d;stop-opacity:1;"
         offset="0"
         id="stop3034" /><stop
         style="stop-color:#4f5b70;stop-opacity:1;"
         offset="1"
         id="stop3036" /></linearGradient></defs><path
     d="M 2,32 C 2,9.5 9.5,2 32,2 54.5,2 62,9.5 62,32 62,54.5 54.5,62 32,62 9.5,62 2,54.5 2,32"
     style="fill:url(#linearGradient3040);fill-opacity:1;stroke-width:0.3"
     id="path311" /><path
     id="path1179"
     style="fill:#ffffff;fill-opacity:1;stroke-width:5;stroke-linecap:round;stroke-linejoin:round"
     d="M 29.5 12 C 28.115007 12 27.290198 13.145746 27 14.5 L 25.615234 20.945312 L 19.34375 18.919922 C 18.058431 18.404008 16.62023 18.634552 15.927734 19.833984 L 13.427734 24.166016 C 12.735238 25.365458 13.316029 26.651637 14.34375 27.580078 L 19.238281 32 L 14.34375 36.419922 C 13.316034 37.348365 12.735237 38.634542 13.427734 39.833984 L 15.927734 44.166016 C 16.62023 45.365462 18.058435 45.595992 19.34375 45.080078 L 25.615234 43.054688 L 27 49.5 C 27.19588 50.871073 28.115007 52 29.5 52 L 34.5 52 C 35.884999 52 36.709802 50.854249 37 49.5 L 38.384766 43.054688 L 44.65625 45.080078 C 45.941563 45.595992 47.37977 45.365482 48.072266 44.166016 L 50.572266 39.833984 C 51.264765 38.634542 50.683987 37.348365 49.65625 36.419922 L 44.761719 32 L 49.65625 27.580078 C 50.683969 26.651637 51.264765 25.365458 50.572266 24.166016 L 48.072266 19.833984 C 47.37977 18.634546 45.941565 18.404008 44.65625 18.919922 L 38.384766 20.945312 L 37 14.5 C 36.80412 13.128924 35.884999 12 34.5 12 L 29.5 12 z M 32 24 A 8 8 0 0 1 40 32 A 8 8 0 0 1 32 40 A 8 8 0 0 1 24 32 A 8 8 0 0 1 32 24 z " /></svg>
