<?xml version="1.0" encoding="UTF-8" standalone="no"?>
<!-- Created with Inkscape (http://www.inkscape.org/) -->

<svg
   width="64"
   height="64"
   viewBox="0 0 64 64"
   version="1.1"
   id="svg371"
   xml:space="preserve"
   inkscape:version="1.2.2 (1:1.2.2+202305151914+b0a8486541)"
   sodipodi:docname="application-x-deb.svg"
   xmlns:inkscape="http://www.inkscape.org/namespaces/inkscape"
   xmlns:sodipodi="http://sodipodi.sourceforge.net/DTD/sodipodi-0.dtd"
   xmlns:xlink="http://www.w3.org/1999/xlink"
   xmlns="http://www.w3.org/2000/svg"
   xmlns:svg="http://www.w3.org/2000/svg"><sodipodi:namedview
     id="namedview373"
     pagecolor="#ffffff"
     bordercolor="#000000"
     borderopacity="0.25"
     inkscape:showpageshadow="2"
     inkscape:pageopacity="0.0"
     inkscape:pagecheckerboard="0"
     inkscape:deskcolor="#d1d1d1"
     inkscape:document-units="px"
     showgrid="false"
     inkscape:zoom="12.59375"
     inkscape:cx="32"
     inkscape:cy="32"
     inkscape:window-width="1920"
     inkscape:window-height="1008"
     inkscape:window-x="0"
     inkscape:window-y="0"
     inkscape:window-maximized="1"
     inkscape:current-layer="svg371"
     showguides="false" /><defs
     id="defs368"><linearGradient
       inkscape:collect="always"
       id="linearGradient919"><stop
         style="stop-color:#e5578f;stop-opacity:1;"
         offset="0"
         id="stop915" /><stop
         style="stop-color:#f181b0;stop-opacity:1;"
         offset="1"
         id="stop917" /></linearGradient><linearGradient
       inkscape:collect="always"
       xlink:href="#linearGradient919"
       id="linearGradient3040"
       x1="32"
       y1="62"
       x2="32"
       y2="2"
       gradientUnits="userSpaceOnUse" /></defs><path
     d="M 2,32 C 2,9.5 9.5,2 32,2 54.5,2 62,9.5 62,32 62,54.5 54.5,62 32,62 9.5,62 2,54.5 2,32"
     style="fill:url(#linearGradient3040);fill-opacity:1.0;stroke-width:0.3"
     id="path311" /><path
     id="path1235"
     style="fill:#ffffff;stroke-width:2;stroke-linecap:round;stroke-linejoin:round"
     d="M 12 23.841797 L 12 40.158203 L 16.708984 40.158203 C 19.142787 40.158203 21.006809 39.474558 22.298828 38.107422 C 23.590847 36.725262 24.236328 34.689201 24.236328 32 C 24.236328 29.310799 23.597308 27.283151 22.320312 25.916016 C 21.043318 24.533855 19.196122 23.841797 16.777344 23.841797 L 12 23.841797 z M 27.572266 23.841797 L 27.572266 40.158203 L 37.623047 40.158203 L 37.623047 38.152344 L 29.802734 38.152344 L 29.802734 32.833984 L 35.414062 32.833984 L 35.414062 30.804688 L 29.802734 30.804688 L 29.802734 25.847656 L 37.330078 25.847656 L 37.330078 23.841797 L 27.572266 23.841797 z M 40.552734 23.841797 L 40.552734 40.158203 L 41.746094 40.158203 L 46.90625 40.158203 C 48.513761 40.158203 49.762052 39.74426 50.648438 38.917969 C 51.549846 38.091678 52 36.934589 52 35.447266 C 52 33.38905 50.9852 32.089674 48.957031 31.548828 C 50.369238 31.068078 51.076172 30.008652 51.076172 28.371094 C 51.076172 26.943864 50.640892 25.833354 49.769531 25.037109 C 48.89817 24.240865 47.681581 23.841797 46.119141 23.841797 L 42.783203 23.841797 L 40.552734 23.841797 z M 42.783203 25.826172 L 46.005859 25.826172 C 46.922291 25.826172 47.612397 26.042835 48.078125 26.478516 C 48.543853 26.914196 48.777344 27.553217 48.777344 28.394531 C 48.777344 29.190775 48.552267 29.798092 48.101562 30.21875 C 47.650859 30.624384 46.990501 30.828125 46.119141 30.828125 L 42.783203 30.828125 L 42.783203 25.826172 z M 14.230469 25.847656 L 16.6875 25.847656 C 18.415199 25.847656 19.714575 26.365724 20.585938 27.402344 C 21.472322 28.42394 21.916016 29.956807 21.916016 32 C 21.916016 34.028169 21.480736 35.561036 20.609375 36.597656 C 19.738014 37.634276 18.445097 38.152344 16.732422 38.152344 L 14.230469 38.152344 L 14.230469 25.847656 z M 42.783203 32.765625 L 46.90625 32.765625 C 48.754137 32.765625 49.679687 33.667887 49.679688 35.470703 C 49.679688 36.357088 49.452658 37.032319 49.001953 37.498047 C 48.551249 37.94875 47.890892 38.173828 47.019531 38.173828 L 42.783203 38.173828 L 42.783203 32.765625 z " /></svg>
