<?xml version="1.0" encoding="UTF-8" standalone="no"?>
<!-- Created with Inkscape (http://www.inkscape.org/) -->

<svg
   width="64"
   height="64"
   viewBox="0 0 64 64"
   version="1.1"
   id="svg371"
   xml:space="preserve"
   inkscape:version="1.2.2 (1:1.2.2+202305151914+b0a8486541)"
   sodipodi:docname="font-x-generic.svg"
   xmlns:inkscape="http://www.inkscape.org/namespaces/inkscape"
   xmlns:sodipodi="http://sodipodi.sourceforge.net/DTD/sodipodi-0.dtd"
   xmlns:xlink="http://www.w3.org/1999/xlink"
   xmlns="http://www.w3.org/2000/svg"
   xmlns:svg="http://www.w3.org/2000/svg"><sodipodi:namedview
     id="namedview373"
     pagecolor="#ffffff"
     bordercolor="#000000"
     borderopacity="0.25"
     inkscape:showpageshadow="2"
     inkscape:pageopacity="0.0"
     inkscape:pagecheckerboard="0"
     inkscape:deskcolor="#d1d1d1"
     inkscape:document-units="px"
     showgrid="false"
     inkscape:zoom="12.59375"
     inkscape:cx="32"
     inkscape:cy="32"
     inkscape:window-width="1920"
     inkscape:window-height="1008"
     inkscape:window-x="0"
     inkscape:window-y="0"
     inkscape:window-maximized="1"
     inkscape:current-layer="svg371"
     showguides="true" /><defs
     id="defs368"><linearGradient
       inkscape:collect="always"
       xlink:href="#linearGradient3519"
       id="linearGradient3040"
       x1="32"
       y1="62"
       x2="32"
       y2="2"
       gradientUnits="userSpaceOnUse" /><linearGradient
       inkscape:collect="always"
       id="linearGradient3519"><stop
         style="stop-color:#e4e4e4;stop-opacity:1;"
         offset="0"
         id="stop3515" /><stop
         style="stop-color:#f1f1f1;stop-opacity:1;"
         offset="1"
         id="stop3517" /></linearGradient></defs><path
     d="M 2,32 C 2,9.5 9.5,2 32,2 54.5,2 62,9.5 62,32 62,54.5 54.5,62 32,62 9.5,62 2,54.5 2,32"
     style="fill:url(#linearGradient3040);fill-opacity:1;stroke-width:0.3"
     id="path311" /><path
     d="M 21.5,18 12,44.750001 h 3.275391 l 2.375,-7.099609 h 11.048828 l 2.425781,7.125 h 3.324219 L 24.949219,18 Z m 1.673828,3.25 4.601563,13.675782 H 18.59961 Z m 21.650391,3.201172 c -2.075,0 -3.998828,0.475 -5.798828,1.375001 l 0.773437,2.474609 c 1.45,-0.675001 3.000391,-1.02539 4.650391,-1.02539 1.5,0 2.650781,0.301172 3.425781,0.951171 0.775,0.625 1.173828,1.573828 1.173828,2.798829 v 1.300781 c -4.1,0.025 -7.123828,0.599218 -9.048828,1.699219 -1.925,1.125 -2.875,2.849609 -2.875,5.224609 0,1.85 0.55,3.326563 1.625,4.351562 1.075,1.025 2.599219,1.548829 4.574219,1.548829 2.675,0 4.676172,-0.973828 5.951172,-2.923829 v 2.523438 H 52 V 30.775392 c 0,-2.075001 -0.626172,-3.649611 -1.951172,-4.72461 -1.325,-1.075001 -3.049609,-1.59961 -5.224609,-1.59961 z m 4.224609,10.250001 v 5.423828 c -0.725,0.799999 -1.499218,1.375391 -2.324218,1.775391 -0.825,0.375 -1.75,0.576171 -2.75,0.576171 -1.275,0 -2.250391,-0.299999 -2.900391,-0.875 -0.65,-0.575 -0.974609,-1.451171 -0.974609,-2.576171 0,-1.475001 0.725781,-2.55 2.175781,-3.25 1.425,-0.700001 3.698437,-1.04922 6.773437,-1.074219 z"
     style="fill:#808080;stroke-width:3;stroke-linecap:round;stroke-linejoin:round;fill-opacity:1"
     id="path2581" /></svg>
