<?xml version="1.0" encoding="UTF-8" standalone="no"?>
<!-- Created with Inkscape (http://www.inkscape.org/) -->

<svg
   width="64"
   height="64"
   viewBox="0 0 64 64"
   version="1.1"
   id="svg371"
   xml:space="preserve"
   inkscape:version="1.2.2 (1:1.2.2+202305151914+b0a8486541)"
   sodipodi:docname="rpm.svg"
   xmlns:inkscape="http://www.inkscape.org/namespaces/inkscape"
   xmlns:sodipodi="http://sodipodi.sourceforge.net/DTD/sodipodi-0.dtd"
   xmlns:xlink="http://www.w3.org/1999/xlink"
   xmlns="http://www.w3.org/2000/svg"
   xmlns:svg="http://www.w3.org/2000/svg"><sodipodi:namedview
     id="namedview373"
     pagecolor="#ffffff"
     bordercolor="#000000"
     borderopacity="0.25"
     inkscape:showpageshadow="2"
     inkscape:pageopacity="0.0"
     inkscape:pagecheckerboard="0"
     inkscape:deskcolor="#d1d1d1"
     inkscape:document-units="px"
     showgrid="false"
     inkscape:zoom="12.59375"
     inkscape:cx="32.079404"
     inkscape:cy="32"
     inkscape:window-width="1920"
     inkscape:window-height="1008"
     inkscape:window-x="0"
     inkscape:window-y="0"
     inkscape:window-maximized="1"
     inkscape:current-layer="svg371"
     showguides="false" /><defs
     id="defs368"><linearGradient
       inkscape:collect="always"
       id="linearGradient1120"><stop
         style="stop-color:#db280f;stop-opacity:1;"
         offset="0"
         id="stop1116" /><stop
         style="stop-color:#dd5b4e;stop-opacity:1;"
         offset="1"
         id="stop1118" /></linearGradient><linearGradient
       inkscape:collect="always"
       xlink:href="#linearGradient1120"
       id="linearGradient3040"
       x1="32"
       y1="62"
       x2="32"
       y2="2"
       gradientUnits="userSpaceOnUse" /></defs><path
     d="M 2,32 C 2,9.5 9.5,2 32,2 54.5,2 62,9.5 62,32 62,54.5 54.5,62 32,62 9.5,62 2,54.5 2,32"
     style="fill:url(#linearGradient3040);fill-opacity:1;stroke-width:0.3"
     id="path311" /><path
     id="path447"
     style="font-weight:600;font-size:24px;font-family:SamsungOneKorean;-inkscape-font-specification:'SamsungOneKorean Semi-Bold';fill:#ffffff;stroke-width:4.57407;stroke-linecap:round;stroke-linejoin:round"
     d="m 10,24 v 16.783984 h 2.295048 v -6.236038 h 2.874605 l 3.964173,6.236037 h 2.781876 l -4.33509,-6.491043 c 1.112749,-0.309097 1.962768,-0.896383 2.550052,-1.761854 0.602739,-0.880927 0.904109,-1.970497 0.904109,-3.268704 0,-1.653669 -0.471374,-2.944153 -1.414119,-3.871444 C 18.693363,24.463647 17.395151,24 15.726028,24 h -3.43098 z m 14.674394,0 v 16.783984 h 2.295047 v -5.749211 h 3.523709 c 1.715489,0 3.052338,-0.486828 4.010538,-1.460484 0.973656,-0.973655 1.460485,-2.333685 1.460485,-4.080084 0,-1.730943 -0.471374,-3.075518 -1.41412,-4.033719 -0.927291,-0.973655 -2.240957,-1.460485 -3.940991,-1.460485 h -3.639621 z m 13.839832,0 v 16.783984 h 2.202318 V 27.616438 l 4.311907,9.759748 h 2.410959 l 4.311907,-9.759748 V 40.783984 H 54 V 24 H 51.194942 L 46.280295,35.220233 41.272919,24 Z m -26.219178,2.040042 h 3.338251 c 0.98911,0 1.738672,0.278189 2.248682,0.834563 0.51001,0.540919 0.765016,1.344574 0.765016,2.410959 0,2.16368 -0.973658,3.245522 -2.920969,3.245522 h -3.43098 z m 14.674393,0.02318 h 3.523709 c 1.020021,0 1.785038,0.293643 2.295048,0.880928 0.525465,0.57183 0.788198,1.429577 0.788198,2.573236 0,1.128204 -0.255005,1.985949 -0.765016,2.573233 -0.494555,0.587285 -1.228662,0.880928 -2.202318,0.880928 h -3.639621 z" /></svg>
