<?xml version="1.0" encoding="UTF-8" standalone="no"?>
<!-- Created with Inkscape (http://www.inkscape.org/) -->

<svg
   width="64"
   height="64"
   viewBox="0 0 64 64"
   version="1.1"
   id="svg371"
   xml:space="preserve"
   inkscape:version="1.2.2 (b0a8486541, 2022-12-01)"
   sodipodi:docname="preferences-desktop-plasma-theme.svg"
   xmlns:inkscape="http://www.inkscape.org/namespaces/inkscape"
   xmlns:sodipodi="http://sodipodi.sourceforge.net/DTD/sodipodi-0.dtd"
   xmlns="http://www.w3.org/2000/svg"
   xmlns:svg="http://www.w3.org/2000/svg"><sodipodi:namedview
     id="namedview373"
     pagecolor="#ffffff"
     bordercolor="#000000"
     borderopacity="0.25"
     inkscape:showpageshadow="2"
     inkscape:pageopacity="0.0"
     inkscape:pagecheckerboard="0"
     inkscape:deskcolor="#d1d1d1"
     inkscape:document-units="px"
     showgrid="false"
     inkscape:zoom="12.65625"
     inkscape:cx="32.118519"
     inkscape:cy="32"
     inkscape:window-width="1920"
     inkscape:window-height="1011"
     inkscape:window-x="0"
     inkscape:window-y="0"
     inkscape:window-maximized="1"
     inkscape:current-layer="svg371"
     showguides="true" /><defs
     id="defs368" /><path
     d="M 2,32 C 2,9.5 9.5,2 32,2 54.5,2 62,9.5 62,32 62,54.5 54.5,62 32,62 9.5,62 2,54.5 2,32"
     style="fill:#c47bdf;fill-opacity:1;stroke-width:0.3"
     id="path311" /><path
     id="path360"
     style="fill:#ffffff;stroke-width:2"
     d="m 22,12 c -1.661998,0 -3,1.338002 -3,3 0,1.661998 1.338002,3 3,3 1.661998,0 3,-1.338002 3,-3 0,-1.661998 -1.338002,-3 -3,-3 z M 37.714844,12 32,17.59961 40.572266,26 32,34.40039 37.714844,40 52,26 Z M 15.5,28 C 13.561016,28 12,29.560988 12,31.5 12,33.438984 13.561016,35 15.5,35 17.439012,35 19,33.438984 19,31.5 19,29.560988 17.439012,28 15.5,28 Z M 27,42 c -2.769996,0 -5,2.230002 -5,5 0,2.769998 2.230004,5 5,5 2.769998,0 5,-2.230002 5,-5 0,-2.769998 -2.230002,-5 -5,-5 z" /></svg>
