<?xml version="1.0" encoding="UTF-8" standalone="no"?>
<svg
   viewbox="0 0 200 200"
   version="1.1"
   id="svg4"
   sodipodi:docname="preferences-desktop-user-password.svg"
   width="64"
   height="64"
   inkscape:version="1.2.2 (1:1.2.2+202212051552+b0a8486541)"
   xmlns:inkscape="http://www.inkscape.org/namespaces/inkscape"
   xmlns:sodipodi="http://sodipodi.sourceforge.net/DTD/sodipodi-0.dtd"
   xmlns="http://www.w3.org/2000/svg"
   xmlns:svg="http://www.w3.org/2000/svg">
  <defs
     id="defs8" />
  <sodipodi:namedview
     id="namedview6"
     pagecolor="#ffffff"
     bordercolor="#666666"
     borderopacity="1.0"
     inkscape:pageshadow="2"
     inkscape:pageopacity="0.0"
     inkscape:pagecheckerboard="0"
     showgrid="false"
     inkscape:zoom="12.65625"
     inkscape:cx="32"
     inkscape:cy="32"
     inkscape:window-width="1920"
     inkscape:window-height="1012"
     inkscape:window-x="0"
     inkscape:window-y="0"
     inkscape:window-maximized="1"
     inkscape:current-layer="svg4"
     showguides="false"
     inkscape:showpageshadow="2"
     inkscape:deskcolor="#d1d1d1" />
  <path
     d="M 2,32 C 2,10.4 10.4,2 32,2 53.6,2 62,10.4 62,32 62,53.6 53.6,62 32,62 10.4,62 2,53.6 2,32"
     id="path2"
     style="fill:#2daa9a;fill-opacity:1;stroke-width:0.3" />
  <path
     id="rect436"
     style="fill:#ffffff;stroke-width:2"
     d="m 32,12 c -5.539982,0 -10,4.460017 -10,10 v 6 h -2 c -2.215996,0 -4,1.784004 -4,4 v 16 c 0,2.215996 1.784004,4 4,4 h 24 c 2.215996,0 4,-1.784004 4,-4 V 32 c 0,-2.215996 -1.784004,-4 -4,-4 H 42 V 22 C 42,16.460017 37.539982,12 32,12 Z m 0,2 c 4.431988,0 8,3.568013 8,8 v 6 H 24 v -6 c 0,-4.431987 3.568012,-8 8,-8 z m 0,20 a 4,4 0 0 1 4,4 4,4 0 0 1 -2,3.453124 V 48 H 30 V 41.453124 A 4,4 0 0 1 28,38 4,4 0 0 1 32,34 Z" />
</svg>
