<?xml version="1.0" encoding="UTF-8" standalone="no"?>
<svg
   viewbox="0 0 200 200"
   version="1.1"
   id="svg4"
   sodipodi:docname="preferences-desktop-icons.svg"
   width="64"
   height="64"
   inkscape:version="1.2.2 (1:1.2.2+202212051552+b0a8486541)"
   xmlns:inkscape="http://www.inkscape.org/namespaces/inkscape"
   xmlns:sodipodi="http://sodipodi.sourceforge.net/DTD/sodipodi-0.dtd"
   xmlns="http://www.w3.org/2000/svg"
   xmlns:svg="http://www.w3.org/2000/svg">
  <defs
     id="defs8" />
  <sodipodi:namedview
     id="namedview6"
     pagecolor="#ffffff"
     bordercolor="#666666"
     borderopacity="1.0"
     inkscape:pageshadow="2"
     inkscape:pageopacity="0.0"
     inkscape:pagecheckerboard="0"
     showgrid="false"
     inkscape:zoom="12.65625"
     inkscape:cx="27.930864"
     inkscape:cy="32"
     inkscape:window-width="1920"
     inkscape:window-height="1012"
     inkscape:window-x="0"
     inkscape:window-y="0"
     inkscape:window-maximized="1"
     inkscape:current-layer="svg4"
     showguides="false"
     inkscape:showpageshadow="2"
     inkscape:deskcolor="#d1d1d1" />
  <path
     d="M 2,32 C 2,9.4999997 9.5,2 32,2 54.5,2 62,9.4999997 62,32 62,54.5 54.5,62 32,62 9.5,62 2,54.5 2,32"
     style="fill:#c47bdf;fill-opacity:1;stroke-width:0.3"
     id="path311" />
  <path
     d="m 17,17 c -2.216,0 -4,1.784 -4,4 v 22 c 0,2.216 1.784,4 4,4 h 30 c 2.216,0 4,-1.784 4,-4 V 21 c 0,-2.216 -1.784,-4 -4,-4 z m 1,3 h 1 c 1.108,0 2,0.892 2,2 v 1 c 0,1.108 -0.892,2 -2,2 h -1 c -1.108,0 -2,-0.892 -2,-2 v -1 c 0,-1.108 0.892,-2 2,-2 z m 0,7 h 1 c 1.108,0 2,0.892 2,2 v 1 c 0,1.108 -0.892,2 -2,2 h -1 c -1.108,0 -2,-0.892 -2,-2 v -1 c 0,-1.108 0.892,-2 2,-2 z m -1,13 h 30 c 0.554,0 1,0.446 1,1 v 1 c 0,1.108 -0.892,2 -2,2 H 18 c -1.108,0 -2,-0.892 -2,-2 v -1 c 0,-0.554 0.446,-1 1,-1 z"
     style="fill:#ffffff;stroke-width:2;stroke-linecap:round;stroke-linejoin:round"
     id="path293" />
</svg>
