<?xml version="1.0" encoding="UTF-8" standalone="no"?>
<svg
   viewbox="0 0 200 200"
   version="1.1"
   id="svg4"
   sodipodi:docname="preferences-system-splash.svg"
   width="64"
   height="64"
   inkscape:version="1.2.2 (1:1.2.2+202212051552+b0a8486541)"
   xmlns:inkscape="http://www.inkscape.org/namespaces/inkscape"
   xmlns:sodipodi="http://sodipodi.sourceforge.net/DTD/sodipodi-0.dtd"
   xmlns="http://www.w3.org/2000/svg"
   xmlns:svg="http://www.w3.org/2000/svg">
  <defs
     id="defs8" />
  <sodipodi:namedview
     id="namedview6"
     pagecolor="#ffffff"
     bordercolor="#666666"
     borderopacity="1.0"
     inkscape:pageshadow="2"
     inkscape:pageopacity="0.0"
     inkscape:pagecheckerboard="0"
     showgrid="false"
     inkscape:zoom="12.65625"
     inkscape:cx="31.960494"
     inkscape:cy="32"
     inkscape:window-width="1920"
     inkscape:window-height="1012"
     inkscape:window-x="0"
     inkscape:window-y="0"
     inkscape:window-maximized="1"
     inkscape:current-layer="svg4"
     showguides="false"
     inkscape:showpageshadow="2"
     inkscape:deskcolor="#d1d1d1" />
  <path
     d="M 2,32 C 2,9.4999997 9.5,2 32,2 54.5,2 62,9.4999997 62,32 62,54.5 54.5,62 32,62 9.5,62 2,54.5 2,32"
     style="fill:#c47bdf;fill-opacity:1;stroke-width:0.3"
     id="path311" />
  <path
     id="path3858"
     style="fill:#ffffff;stroke-width:2;stroke-linecap:round;stroke-linejoin:round"
     d="M 32 12 A 20 20 0 0 0 12 32 A 20 20 0 0 0 32 52 A 20 20 0 0 0 46.105469 46.105469 L 43.314453 43.314453 A 16 16 0 0 1 32 48 A 16 16 0 0 1 16 32 A 16 16 0 0 1 32 16 L 32 12 z " />
  <path
     id="path3939"
     style="fill:#ffffff;stroke-width:2;stroke-linecap:round;stroke-linejoin:round;opacity:0.5"
     d="M 32 12 L 32 16 A 16 16 0 0 1 48 32 A 16 16 0 0 1 43.314453 43.314453 L 46.105469 46.105469 A 20 20 0 0 0 52 32 A 20 20 0 0 0 32 12 z " />
</svg>
