<?xml version="1.0" encoding="UTF-8" standalone="no"?>
<!-- Created with Inkscape (http://www.inkscape.org/) -->

<svg
   width="64"
   height="64"
   viewBox="0 0 64 64"
   version="1.1"
   id="svg371"
   xml:space="preserve"
   inkscape:version="1.2.2 (1:1.2.2+202212051552+b0a8486541)"
   sodipodi:docname="preferences-desktop-keyboard.svg"
   xmlns:inkscape="http://www.inkscape.org/namespaces/inkscape"
   xmlns:sodipodi="http://sodipodi.sourceforge.net/DTD/sodipodi-0.dtd"
   xmlns="http://www.w3.org/2000/svg"
   xmlns:svg="http://www.w3.org/2000/svg"><sodipodi:namedview
     id="namedview373"
     pagecolor="#ffffff"
     bordercolor="#000000"
     borderopacity="0.25"
     inkscape:showpageshadow="2"
     inkscape:pageopacity="0.0"
     inkscape:pagecheckerboard="0"
     inkscape:deskcolor="#d1d1d1"
     inkscape:document-units="px"
     showgrid="false"
     inkscape:zoom="12.65625"
     inkscape:cx="27.930864"
     inkscape:cy="32"
     inkscape:window-width="1920"
     inkscape:window-height="1012"
     inkscape:window-x="0"
     inkscape:window-y="0"
     inkscape:window-maximized="1"
     inkscape:current-layer="svg371"
     showguides="true" /><defs
     id="defs368" /><path
     d="M 2,32 C 2,9.5 9.5,2 32,2 54.5,2 62,9.5 62,32 62,54.5 54.5,62 32,62 9.5,62 2,54.5 2,32"
     style="fill:#0091b1;fill-opacity:1;stroke-width:0.3"
     id="path311" /><path
     id="rect924"
     style="fill:#ffffff;stroke-width:4;stroke-linecap:round;stroke-linejoin:round"
     d="m 16,18 c -2.216,0 -4,1.784 -4,4 v 20 c 0,2.216 1.784,4 4,4 h 32 c 2.216,0 4,-1.784 4,-4 V 22 c 0,-2.216 -1.784,-4 -4,-4 z m 2.5,4 A 2.5,2.5 0 0 1 21,24.5 2.5,2.5 0 0 1 18.5,27 2.5,2.5 0 0 1 16,24.5 2.5,2.5 0 0 1 18.5,22 Z m 6.75,0 a 2.5,2.5 0 0 1 2.5,2.5 2.5,2.5 0 0 1 -2.5,2.5 2.5,2.5 0 0 1 -2.5,-2.5 2.5,2.5 0 0 1 2.5,-2.5 z M 32,22 A 2.5,2.5 0 0 1 34.5,24.5 2.5,2.5 0 0 1 32,27 2.5,2.5 0 0 1 29.5,24.5 2.5,2.5 0 0 1 32,22 Z m 6.75,0 a 2.5,2.5 0 0 1 2.5,2.5 2.5,2.5 0 0 1 -2.5,2.5 2.5,2.5 0 0 1 -2.5,-2.5 2.5,2.5 0 0 1 2.5,-2.5 z m 6.75,0 A 2.5,2.5 0 0 1 48,24.5 2.5,2.5 0 0 1 45.5,27 2.5,2.5 0 0 1 43,24.5 2.5,2.5 0 0 1 45.5,22 Z m -27,7 A 2.5,2.5 0 0 1 21,31.5 2.5,2.5 0 0 1 18.5,34 2.5,2.5 0 0 1 16,31.5 2.5,2.5 0 0 1 18.5,29 Z m 6.75,0 a 2.5,2.5 0 0 1 2.5,2.5 2.5,2.5 0 0 1 -2.5,2.5 2.5,2.5 0 0 1 -2.5,-2.5 2.5,2.5 0 0 1 2.5,-2.5 z M 32,29 A 2.5,2.5 0 0 1 34.5,31.5 2.5,2.5 0 0 1 32,34 2.5,2.5 0 0 1 29.5,31.5 2.5,2.5 0 0 1 32,29 Z m 6.75,0 a 2.5,2.5 0 0 1 2.5,2.5 2.5,2.5 0 0 1 -2.5,2.5 2.5,2.5 0 0 1 -2.5,-2.5 2.5,2.5 0 0 1 2.5,-2.5 z m 6.75,0 A 2.5,2.5 0 0 1 48,31.5 2.5,2.5 0 0 1 45.5,34 2.5,2.5 0 0 1 43,31.5 2.5,2.5 0 0 1 45.5,29 Z M 23,37 h 18 v 5 H 23 Z" /></svg>
