<?xml version="1.0" encoding="UTF-8" standalone="no"?>
<!-- Created with Inkscape (http://www.inkscape.org/) -->

<svg
   width="64"
   height="64"
   viewBox="0 0 64 64"
   version="1.1"
   id="svg371"
   xml:space="preserve"
   inkscape:version="1.2.2 (b0a8486541, 2022-12-01)"
   sodipodi:docname="preferences-system-network.svg"
   xmlns:inkscape="http://www.inkscape.org/namespaces/inkscape"
   xmlns:sodipodi="http://sodipodi.sourceforge.net/DTD/sodipodi-0.dtd"
   xmlns="http://www.w3.org/2000/svg"
   xmlns:svg="http://www.w3.org/2000/svg"><sodipodi:namedview
     id="namedview373"
     pagecolor="#ffffff"
     bordercolor="#000000"
     borderopacity="0.25"
     inkscape:showpageshadow="2"
     inkscape:pageopacity="0.0"
     inkscape:pagecheckerboard="0"
     inkscape:deskcolor="#d1d1d1"
     inkscape:document-units="px"
     showgrid="false"
     inkscape:zoom="12.34375"
     inkscape:cx="31.959494"
     inkscape:cy="32"
     inkscape:window-width="1920"
     inkscape:window-height="1011"
     inkscape:window-x="0"
     inkscape:window-y="0"
     inkscape:window-maximized="1"
     inkscape:current-layer="svg371"
     showguides="false" /><defs
     id="defs368" /><path
     d="M 2,32 C 2,9.5 9.5,2 32,2 54.5,2 62,9.5 62,32 62,54.5 54.5,62 32,62 9.5,62 2,54.5 2,32"
     style="fill:#9e4edf;fill-opacity:1;stroke-width:0.3"
     id="path311" /><path
     id="path898"
     style="fill:#ffffff;stroke-width:6.75;stroke-linecap:round;stroke-linejoin:round"
     d="m 32,14 c -4.802556,0.0014 -9.278772,1.91203 -12.570312,5.125 a 23,11 20 0 0 -9.042969,5.007812 23,11 20 0 0 3.722656,9.660156 A 18,18 0 0 0 32,50 18,18 0 0 0 44.484376,44.878906 23,11 20 0 0 53.613282,39.867188 23,11 20 0 0 49.910156,30.226562 C 49.018872,21.118384 41.342324,14 32,14 Z m -14.472656,7.308594 c -0.998759,1.352216 -1.822525,2.855178 -2.421875,4.488282 l 0.0078,0.004 a 18,5.4 20 0 0 -0.02734,0.04296 18,5.4 20 0 0 15.070313,11.230468 18,5.4 20 0 0 18.757812,1.082032 18,5.4 20 0 0 0.0118,-0.05078 c 0.585702,-1.620036 0.934952,-3.311608 1.039062,-5.027344 a 21,9 20 0 1 1.769532,6.10547 21,9 20 0 1 -22.8125,1.273438 21,9 20 0 1 -16.656252,-15.640626 21,9 20 0 1 5.261719,-3.507812 z" /></svg>
