<?xml version="1.0" encoding="UTF-8" standalone="no"?>
<!-- Created with Inkscape (http://www.inkscape.org/) -->

<svg
   width="64"
   height="64"
   viewBox="0 0 64 64"
   version="1.1"
   id="svg371"
   xml:space="preserve"
   inkscape:version="1.2.2 (1:1.2.2+202212051552+b0a8486541)"
   sodipodi:docname="preferences-desktop-default-applications.svg"
   xmlns:inkscape="http://www.inkscape.org/namespaces/inkscape"
   xmlns:sodipodi="http://sodipodi.sourceforge.net/DTD/sodipodi-0.dtd"
   xmlns="http://www.w3.org/2000/svg"
   xmlns:svg="http://www.w3.org/2000/svg"><sodipodi:namedview
     id="namedview373"
     pagecolor="#ffffff"
     bordercolor="#000000"
     borderopacity="0.25"
     inkscape:showpageshadow="2"
     inkscape:pageopacity="0.0"
     inkscape:pagecheckerboard="0"
     inkscape:deskcolor="#d1d1d1"
     inkscape:document-units="px"
     showgrid="false"
     inkscape:zoom="12.65625"
     inkscape:cx="32"
     inkscape:cy="32"
     inkscape:window-width="1920"
     inkscape:window-height="1012"
     inkscape:window-x="0"
     inkscape:window-y="0"
     inkscape:window-maximized="1"
     inkscape:current-layer="svg371"
     showguides="true"
     inkscape:lockguides="true" /><defs
     id="defs368" /><path
     d="M 2,32 C 2,9.5 9.5,2 32,2 54.5,2 62,9.5 62,32 62,54.5 54.5,62 32,62 9.5,62 2,54.5 2,32"
     style="fill:#28b9d8;fill-opacity:1;stroke-width:0.3"
     id="path311" /><path
     id="path945"
     style="color:#000000;fill:#ffffff;stroke:none;stroke-width:6.7249;stroke-linecap:round;stroke-linejoin:round;-inkscape-stroke:none"
     d="m 31.90399,12.780979 a 3.3627908,3.3627908 0 0 0 -3.002928,1.891845 l -4.301692,8.86239 -9.744502,1.475188 a 3.3627908,3.3627908 0 0 0 -1.824278,5.746854 l 7.09817,6.83166 -1.606566,9.718224 a 3.3627908,3.3627908 0 0 0 4.898524,3.517178 l 8.689724,-4.639524 8.74978,4.526914 a 3.3627908,3.3627908 0 0 0 4.857236,-3.56973 l -1.722932,-9.699456 7.008084,-6.921748 a 3.3627908,3.3627908 0 0 0 -1.899352,-5.720578 l -9.75576,-1.358824 -4.418058,-8.806085 a 3.3627908,3.3627908 0 0 0 -3.02545,-1.854308 z" /></svg>
