<?xml version="1.0" encoding="UTF-8" standalone="no"?>
<!-- Created with Inkscape (http://www.inkscape.org/) -->

<svg
   width="24"
   height="24"
   viewBox="0 0 24 24"
   version="1.1"
   id="svg371"
   xml:space="preserve"
   inkscape:version="1.3.2 (1:1.3.2+202311252150+091e20ef0f)"
   sodipodi:docname="preferences-system-network.svg"
   xmlns:inkscape="http://www.inkscape.org/namespaces/inkscape"
   xmlns:sodipodi="http://sodipodi.sourceforge.net/DTD/sodipodi-0.dtd"
   xmlns="http://www.w3.org/2000/svg"
   xmlns:svg="http://www.w3.org/2000/svg"><sodipodi:namedview
     id="namedview373"
     pagecolor="#ffffff"
     bordercolor="#000000"
     borderopacity="0.25"
     inkscape:showpageshadow="2"
     inkscape:pageopacity="0.0"
     inkscape:pagecheckerboard="0"
     inkscape:deskcolor="#d1d1d1"
     inkscape:document-units="px"
     showgrid="false"
     inkscape:zoom="33.791667"
     inkscape:cx="12"
     inkscape:cy="12"
     inkscape:window-width="1920"
     inkscape:window-height="1008"
     inkscape:window-x="0"
     inkscape:window-y="0"
     inkscape:window-maximized="1"
     inkscape:current-layer="svg371"
     showguides="false" /><defs
     id="defs368" /><path
     d="M 2,12 C 2,4.5 4.5,2 12,2 19.5,2 22,4.5 22,12 22,19.5 19.5,22 12,22 4.5,22 2,19.5 2,12"
     style="fill:#9e4edf;fill-opacity:1;stroke-width:0.1"
     id="path311" /><path
     id="path898"
     style="fill:#ffffff;stroke-width:2.62499;stroke-linecap:round;stroke-linejoin:round"
     d="M 11.999512,5 C 10.129743,5.0005735 8.3873772,5.7450275 7.1069337,6.9970705 A 9,4.25 20 0 0 3.5424804,8.921875 9,4.25 20 0 0 5.0629882,12.712891 6.999987,6.999987 0 0 0 11.999512,19 6.999987,6.999987 0 0 0 16.853027,17.008789 9,4.25 20 0 0 20.456543,15.078125 9,4.25 20 0 0 18.965332,11.311524 C 18.619413,7.768726 15.633155,5 11.999512,5 Z M 6.2104492,8.069336 C 5.8944122,8.535035 5.6301807,9.04292 5.4301757,9.587891 l 0.00293,0.002 a 6.999987,2.0999961 20 0 0 -0.010743,0.0166 6.999987,2.0999961 20 0 0 5.8593763,4.36621 6.999987,2.0999961 20 0 0 7.294921,0.420899 6.999987,2.0999961 20 0 0 0.0059,-0.01855 c 0.194327,-0.537476 0.320517,-1.096362 0.378906,-1.663086 A 8,3.25 20 0 1 19.51713,14.736378 8,3.25 20 0 1 10.888224,15.053761 8,3.25 20 0 1 4.4819731,9.263722 8,3.25 20 0 1 6.2104887,8.069386 Z" /></svg>
