<?xml version="1.0" encoding="UTF-8" standalone="no"?>
<!-- Created with Inkscape (http://www.inkscape.org/) -->

<svg
   width="24"
   height="24"
   viewBox="0 0 24 24"
   version="1.1"
   id="svg371"
   xml:space="preserve"
   inkscape:version="1.3.2 (1:1.3.2+202311252150+091e20ef0f)"
   sodipodi:docname="preferences-desktop-theme-global.svg"
   xmlns:inkscape="http://www.inkscape.org/namespaces/inkscape"
   xmlns:sodipodi="http://sodipodi.sourceforge.net/DTD/sodipodi-0.dtd"
   xmlns="http://www.w3.org/2000/svg"
   xmlns:svg="http://www.w3.org/2000/svg"><sodipodi:namedview
     id="namedview373"
     pagecolor="#ffffff"
     bordercolor="#000000"
     borderopacity="0.25"
     inkscape:showpageshadow="2"
     inkscape:pageopacity="0.0"
     inkscape:pagecheckerboard="0"
     inkscape:deskcolor="#d1d1d1"
     inkscape:document-units="px"
     showgrid="false"
     inkscape:zoom="33.791667"
     inkscape:cx="12"
     inkscape:cy="12"
     inkscape:window-width="1920"
     inkscape:window-height="1008"
     inkscape:window-x="0"
     inkscape:window-y="0"
     inkscape:window-maximized="1"
     inkscape:current-layer="svg371"
     showguides="false"
     inkscape:lockguides="true" /><defs
     id="defs368" /><path
     d="M 2,12 C 2,4.5 4.5,2 12,2 19.5,2 22,4.5 22,12 22,19.5 19.5,22 12,22 4.5,22 2,19.5 2,12"
     style="fill:#c47bdf;fill-opacity:1;stroke-width:0.1"
     id="path311" /><path
     id="path1079"
     style="fill:#ffffff;fill-opacity:1;stroke-width:5.00001;stroke-linecap:round;stroke-linejoin:round"
     d="M 14.503906,6 C 12.579566,6.0081 11.508171,6.9838798 8.9999995,7 7.9153592,6.9303326 7.3630117,6.9616567 6.7597651,6.5566406 6.4260902,6.3532271 5.9990756,6.5935872 5.9999994,6.984375 V 10 H 18 V 6.9980469 C 18.000584,6.8005664 17.885243,6.6218849 17.705078,6.5410156 16.637353,6.0720802 16.500957,6.0089015 14.503906,6 Z m -8.5039066,5 v 2 c -5.343e-4,0.591948 0.4625416,0.865636 1,1 l 2.7753907,0.699219 c 0.8733359,0.221612 1.1877489,1.476425 0.8105469,1.886719 C 10.210846,16.960942 10.00008,17.469599 9.9999998,18 c 0,1.104568 0.8954312,2 2.0000002,2 1.104568,0 2,-0.895432 2,-2 -8.1e-5,-0.530401 -0.210846,-1.039057 -0.585938,-1.414062 -0.377201,-0.410295 -0.06279,-1.665107 0.810548,-1.886719 L 17,14 c 0.537459,-0.134364 1.000534,-0.408052 1,-1 v -2 z" /></svg>
