<?xml version="1.0" encoding="UTF-8" standalone="no"?>
<!-- Created with Inkscape (http://www.inkscape.org/) -->

<svg
   width="24"
   height="24"
   viewBox="0 0 24 24"
   version="1.1"
   id="svg371"
   xml:space="preserve"
   inkscape:version="1.2.2 (1:1.2.2+202212051552+b0a8486541)"
   sodipodi:docname="emblem-pause.svg"
   xmlns:inkscape="http://www.inkscape.org/namespaces/inkscape"
   xmlns:sodipodi="http://sodipodi.sourceforge.net/DTD/sodipodi-0.dtd"
   xmlns="http://www.w3.org/2000/svg"
   xmlns:svg="http://www.w3.org/2000/svg"><sodipodi:namedview
     id="namedview373"
     pagecolor="#ffffff"
     bordercolor="#000000"
     borderopacity="0.25"
     inkscape:showpageshadow="2"
     inkscape:pageopacity="0.0"
     inkscape:pagecheckerboard="0"
     inkscape:deskcolor="#d1d1d1"
     inkscape:document-units="px"
     showgrid="false"
     inkscape:zoom="33.75"
     inkscape:cx="11.985185"
     inkscape:cy="12"
     inkscape:window-width="1920"
     inkscape:window-height="1012"
     inkscape:window-x="0"
     inkscape:window-y="0"
     inkscape:window-maximized="1"
     inkscape:current-layer="svg371"
     showguides="true" /><defs
     id="defs368" /><path
     d="m 1.9999998,12 c 0,-7.5 2.5,-10 10.0000002,-10 7.5,0 10,2.5 10,10 0,7.5 -2.5,10 -10,10 C 4.4999998,22 1.9999998,19.5 1.9999998,12"
     style="opacity:0.6;fill:#666666;fill-opacity:1;stroke-width:0.1"
     id="path311" /><path
     id="rect340"
     style="fill:#ffffff"
     d="M 8 6 C 7.4460012 6 7 6.4460012 7 7 L 7 17 C 7 17.553998 7.4460012 18 8 18 L 9 18 C 9.5539988 18 10 17.553998 10 17 L 10 7 C 10 6.4460012 9.5539988 6 9 6 L 8 6 z M 15 6 C 14.446002 6 14 6.4460012 14 7 L 14 17 C 14 17.553998 14.446002 18 15 18 L 16 18 C 16.553998 18 17 17.553998 17 17 L 17 7 C 17 6.4460012 16.553998 6 16 6 L 15 6 z " /></svg>
