<?xml version="1.0" encoding="UTF-8" standalone="no"?>
<!-- Created with Inkscape (http://www.inkscape.org/) -->

<svg
   width="22"
   height="22"
   viewBox="0 0 22 22"
   version="1.1"
   id="svg11945"
   inkscape:version="1.2.2 (1:1.2.2+202305151914+b0a8486541)"
   sodipodi:docname="network-server.svg"
   xmlns:inkscape="http://www.inkscape.org/namespaces/inkscape"
   xmlns:sodipodi="http://sodipodi.sourceforge.net/DTD/sodipodi-0.dtd"
   xmlns="http://www.w3.org/2000/svg"
   xmlns:svg="http://www.w3.org/2000/svg">
  <sodipodi:namedview
     id="namedview11947"
     pagecolor="#ffffff"
     bordercolor="#666666"
     borderopacity="1.0"
     inkscape:pageshadow="2"
     inkscape:pageopacity="0.0"
     inkscape:pagecheckerboard="0"
     inkscape:document-units="px"
     showgrid="false"
     units="in"
     inkscape:zoom="36.636364"
     inkscape:cx="11"
     inkscape:cy="11"
     inkscape:window-width="1920"
     inkscape:window-height="1008"
     inkscape:window-x="0"
     inkscape:window-y="0"
     inkscape:window-maximized="1"
     inkscape:current-layer="svg11945"
     showguides="true"
     inkscape:showpageshadow="2"
     inkscape:deskcolor="#d1d1d1" />
  <defs
     id="defs11942">
    <style
       id="current-color-scheme"
       type="text/css">
         .ColorScheme-Text { color:#dfdfdf; }
        </style>
  </defs>
  <path
     id="path4457"
     style="fill:currentColor;stroke-width:5.00001;stroke-linecap:round;stroke-linejoin:round"
     class="ColorScheme-Text"
     d="M 5.0000001,4 C 3.8920067,4 3,4.892007 3,5.9999997 V 7.9999998 C 3,9.1079932 3.8920067,9.9999999 5.0000001,9.9999999 H 17 c 1.107995,0 2,-0.8920067 2,-2.0000001 V 5.9999997 C 19,4.892007 18.107995,4 17,4 Z m 0,0.9999999 H 17 c 0.553998,0 1,0.4460039 1,0.9999998 v 2.0000001 c 0,0.5539975 -0.446002,0.9999999 -1,0.9999999 H 5.0000001 c -0.5539967,0 -0.9999999,-0.4460024 -0.9999999,-0.9999999 V 5.9999997 c 0,-0.5539959 0.4460032,-0.9999998 0.9999999,-0.9999998 z M 6,5.9999997 C 5.4477157,5.9999997 5.0000001,6.4477157 5.0000001,7 5.0000001,7.5522838 5.4477161,7.9999998 6,7.9999998 6.5522842,7.9999998 7.0000002,7.5522838 7.0000002,7 7.0000002,6.4477154 6.5522845,5.9999997 6,5.9999997 Z M 5.0000001,12 C 3.8920067,12 3,12.892007 3,14 v 1.999999 C 3,17.107993 3.8920067,18 5.0000001,18 H 17 c 1.107995,0 2,-0.892007 2,-2.000001 V 14 c 0,-1.107993 -0.892005,-2 -2,-2 z m 0,0.999999 H 17 c 0.553998,0 1,0.446004 1,1.000001 v 1.999999 C 18,16.553997 17.553998,17 17,17 H 5.0000001 C 4.4460034,17 4.0000002,16.553997 4.0000002,15.999999 V 14 c 0,-0.553997 0.4460032,-1.000001 0.9999999,-1.000001 z M 6,14 c -0.5522843,0 -0.9999999,0.447716 -0.9999999,1 0,0.552284 0.447716,0.999999 0.9999999,0.999999 0.5522842,0 1.0000002,-0.447715 1.0000002,-0.999999 0,-0.552285 -0.4477157,-1 -1.0000002,-1 z"
     sodipodi:nodetypes="ssssssssssssssssssssssssssssssssssssssssssssss" />
</svg>
