<?xml version="1.0" encoding="UTF-8" standalone="no"?>
<!-- Created with Inkscape (http://www.inkscape.org/) -->

<svg
   width="24"
   height="24"
   viewBox="0 0 24 24"
   version="1.1"
   id="svg371"
   xml:space="preserve"
   inkscape:version="1.2.2 (1:1.2.2+202305151914+b0a8486541)"
   sodipodi:docname="application-x-gettext-translation.svg"
   xmlns:inkscape="http://www.inkscape.org/namespaces/inkscape"
   xmlns:sodipodi="http://sodipodi.sourceforge.net/DTD/sodipodi-0.dtd"
   xmlns:xlink="http://www.w3.org/1999/xlink"
   xmlns="http://www.w3.org/2000/svg"
   xmlns:svg="http://www.w3.org/2000/svg"><sodipodi:namedview
     id="namedview373"
     pagecolor="#ffffff"
     bordercolor="#000000"
     borderopacity="0.25"
     inkscape:showpageshadow="2"
     inkscape:pageopacity="0.0"
     inkscape:pagecheckerboard="0"
     inkscape:deskcolor="#d1d1d1"
     inkscape:document-units="px"
     showgrid="false"
     inkscape:zoom="33.583333"
     inkscape:cx="12"
     inkscape:cy="12"
     inkscape:window-width="1920"
     inkscape:window-height="1008"
     inkscape:window-x="0"
     inkscape:window-y="0"
     inkscape:window-maximized="1"
     inkscape:current-layer="svg371"
     showguides="true" /><defs
     id="defs368"><linearGradient
       inkscape:collect="always"
       xlink:href="#linearGradient3519"
       id="linearGradient3040"
       x1="32"
       y1="62"
       x2="32"
       y2="2"
       gradientUnits="userSpaceOnUse"
       gradientTransform="matrix(0.33333333,0,0,0.33333333,1.3333333,1.3333333)" /><linearGradient
       inkscape:collect="always"
       id="linearGradient3519"><stop
         style="stop-color:#e4e4e4;stop-opacity:1;"
         offset="0"
         id="stop3515" /><stop
         style="stop-color:#f1f1f1;stop-opacity:1;"
         offset="1"
         id="stop3517" /></linearGradient></defs><path
     d="M 2,12 C 2,4.5 4.5,2 12,2 19.5,2 22,4.5 22,12 22,19.5 19.5,22 12,22 4.5,22 2,19.5 2,12"
     style="fill:url(#linearGradient3040);fill-opacity:1;stroke-width:0.1"
     id="path311"
     sodipodi:nodetypes="csssc" /><rect
     style="fill:#b3b3b3;stroke-width:2.95579;stroke-linecap:round;stroke-linejoin:round"
     id="rect3300"
     width="8"
     height="8"
     x="11"
     y="11"
     ry="1" /><rect
     style="fill:#808080;stroke-width:2.92594;stroke-linecap:round;stroke-linejoin:round"
     id="rect3298"
     width="8"
     height="8"
     x="5"
     y="5"
     ry="1" /><path
     d="m 15.999999,12 h 1 v 2 h 1 v 1 h -1 v 3 h -1 z M 12,13 h 2.999999 v 0.5 c 0,3.056844 -1.676793,3.314375 -2.999999,3.5 v -1 c 1.055979,-0.10782 2,-0.499762 2,-2 h -2 z"
     style="fill:#ffffff;fill-opacity:1;stroke-width:0.5;stroke-linecap:round;stroke-linejoin:round"
     id="path3112" /><path
     d="M 8.5,6 6,12 H 7 L 7.8339844,10 H 10.166016 L 11,12 h 1 L 9.5,6 Z M 9,7.1992188 9.75,9 h -1.5 z"
     style="fill:#ffffff;stroke-width:3;stroke-linecap:round;stroke-linejoin:round"
     id="path4400" /></svg>
