<?xml version="1.0" encoding="UTF-8" standalone="no"?>
<!-- Created with Inkscape (http://www.inkscape.org/) -->

<svg
   width="24"
   height="24"
   viewBox="0 0 24 24"
   version="1.1"
   id="svg371"
   xml:space="preserve"
   inkscape:version="1.2.2 (1:1.2.2+202305151914+b0a8486541)"
   sodipodi:docname="application-x-iso9660-appimage.svg"
   xmlns:inkscape="http://www.inkscape.org/namespaces/inkscape"
   xmlns:sodipodi="http://sodipodi.sourceforge.net/DTD/sodipodi-0.dtd"
   xmlns:xlink="http://www.w3.org/1999/xlink"
   xmlns="http://www.w3.org/2000/svg"
   xmlns:svg="http://www.w3.org/2000/svg"><sodipodi:namedview
     id="namedview373"
     pagecolor="#ffffff"
     bordercolor="#000000"
     borderopacity="0.25"
     inkscape:showpageshadow="2"
     inkscape:pageopacity="0.0"
     inkscape:pagecheckerboard="0"
     inkscape:deskcolor="#d1d1d1"
     inkscape:document-units="px"
     showgrid="false"
     inkscape:zoom="33.583333"
     inkscape:cx="11.985112"
     inkscape:cy="12"
     inkscape:window-width="1920"
     inkscape:window-height="1008"
     inkscape:window-x="0"
     inkscape:window-y="0"
     inkscape:window-maximized="1"
     inkscape:current-layer="svg371"
     showguides="true" /><defs
     id="defs368"><linearGradient
       inkscape:collect="always"
       xlink:href="#linearGradient3519"
       id="linearGradient3040"
       x1="32"
       y1="62"
       x2="32"
       y2="2"
       gradientUnits="userSpaceOnUse"
       gradientTransform="matrix(0.33333333,0,0,0.33333333,1.3333333,1.3333333)" /><linearGradient
       inkscape:collect="always"
       id="linearGradient3519"><stop
         style="stop-color:#e4e4e4;stop-opacity:1;"
         offset="0"
         id="stop3515" /><stop
         style="stop-color:#f1f1f1;stop-opacity:1;"
         offset="1"
         id="stop3517" /></linearGradient><linearGradient
       inkscape:collect="always"
       id="linearGradient3251"><stop
         style="stop-color:#1365de;stop-opacity:1;"
         offset="0"
         id="stop3247" /><stop
         style="stop-color:#1e87e9;stop-opacity:1;"
         offset="1"
         id="stop3249" /></linearGradient><linearGradient
       inkscape:collect="always"
       xlink:href="#linearGradient3251"
       id="linearGradient1452"
       x1="24"
       y1="46"
       x2="24"
       y2="2"
       gradientUnits="userSpaceOnUse"
       gradientTransform="scale(0.5)" /></defs><path
     d="M 2,12 C 2,4.5 4.5,2 12,2 19.5,2 22,4.5 22,12 22,19.5 19.5,22 12,22 4.5,22 2,19.5 2,12"
     style="fill:url(#linearGradient3040);fill-opacity:1;stroke-width:0.1"
     id="path311"
     sodipodi:nodetypes="csssc" /><path
     id="path1179"
     style="fill:url(#linearGradient1452);fill-opacity:1;stroke-width:1.75;stroke-linecap:round;stroke-linejoin:round"
     d="M 11.125,5 C 10.640252,5 10.351569,5.401011 10.25,5.875 L 9.765625,8.130859 7.570312,7.421875 C 7.12045,7.241305 6.617374,7.322385 6.375,7.742187 L 5.5,9.257812 C 5.257626,9.677617 5.46061,10.12817 5.820312,10.453125 L 7.533203,12 5.820313,13.546875 C 5.460612,13.871831 5.257626,14.322383 5.500001,14.742188 L 6.375,16.257812 c 0.242374,0.419806 0.745451,0.500883 1.195312,0.320313 L 9.765625,15.869141 10.25,18.125 C 10.31856,18.604876 10.640252,19 11.125,19 h 1.75 c 0.48475,0 0.773431,-0.401012 0.875,-0.875 l 0.484375,-2.255859 2.195313,0.708984 c 0.44986,0.18057 0.952938,0.0995 1.195312,-0.320313 L 18.5,14.742188 c 0.242375,-0.419805 0.0394,-0.870357 -0.320312,-1.195313 L 16.466797,12 18.179688,10.453125 C 18.53939,10.12817 18.742376,9.677617 18.5,9.257812 L 17.625,7.742187 C 17.382626,7.322383 16.879549,7.241305 16.429688,7.421875 L 14.234375,8.130859 13.75,5.875 C 13.68144,5.395123 13.35975,5 12.875,5 Z"
     sodipodi:nodetypes="scccccccccccccsscccccccccccccss" /><path
     id="rect1147"
     style="fill:#d4e2fc;fill-opacity:1;stroke-width:1.10422;stroke-linecap:round"
     d="m 12,9 c 0.554,0 1,0.446 1,1 v 3 h 2 l -3,3 -3,-3 h 2 v -3 c 0,-0.554 0.446,-1 1,-1 z"
     sodipodi:nodetypes="sscccccss" /></svg>
