<?xml version="1.0" encoding="UTF-8" standalone="no"?>
<!-- Created with Inkscape (http://www.inkscape.org/) -->

<svg
   width="48"
   height="48"
   viewBox="0 0 48 48"
   version="1.1"
   id="svg371"
   xml:space="preserve"
   inkscape:version="1.2.2 (1:1.2.2+202305151914+b0a8486541)"
   sodipodi:docname="bluetooth.svg"
   xmlns:inkscape="http://www.inkscape.org/namespaces/inkscape"
   xmlns:sodipodi="http://sodipodi.sourceforge.net/DTD/sodipodi-0.dtd"
   xmlns:xlink="http://www.w3.org/1999/xlink"
   xmlns="http://www.w3.org/2000/svg"
   xmlns:svg="http://www.w3.org/2000/svg"><sodipodi:namedview
     id="namedview373"
     pagecolor="#ffffff"
     bordercolor="#000000"
     borderopacity="0.25"
     inkscape:showpageshadow="2"
     inkscape:pageopacity="0.0"
     inkscape:pagecheckerboard="0"
     inkscape:deskcolor="#d1d1d1"
     inkscape:document-units="px"
     showgrid="false"
     inkscape:zoom="16.791667"
     inkscape:cx="23.970223"
     inkscape:cy="24"
     inkscape:window-width="1920"
     inkscape:window-height="1008"
     inkscape:window-x="0"
     inkscape:window-y="0"
     inkscape:window-maximized="1"
     inkscape:current-layer="svg371"
     showguides="false" /><defs
     id="defs368"><linearGradient
       inkscape:collect="always"
       id="linearGradient3251"><stop
         style="stop-color:#1365de;stop-opacity:1;"
         offset="0"
         id="stop3247" /><stop
         style="stop-color:#1e87e9;stop-opacity:1;"
         offset="1"
         id="stop3249" /></linearGradient><linearGradient
       inkscape:collect="always"
       xlink:href="#linearGradient3251"
       id="linearGradient1321"
       x1="24"
       y1="46"
       x2="24"
       y2="2"
       gradientUnits="userSpaceOnUse" /></defs><path
     d="M 2,24 C 2,7.5 7.5,2 24,2 40.5,2 46,7.5 46,24 46,40.5 40.5,46 24,46 7.5,46 2,40.5 2,24"
     style="fill:url(#linearGradient1321);fill-opacity:1;stroke-width:0.22"
     id="path311" /><path
     d="m 22.6445,10.061938 c -0.388086,0.14754 -0.644628,0.51954 -0.644628,0.93472 V 21.653063 L 15.617888,17.20968 c -0.434286,-0.3412 -1.062934,-0.26578 -1.404156,0.1685 -0.341226,0.43428 -0.265784,1.06292 0.1685,1.40414 l 7.362596,5.213783 -7.362596,5.213597 c -0.434284,0.3412 -0.509726,0.9698 -0.1685,1.404 0.341222,0.4344 0.96987,0.5098 1.404156,0.1686 l 6.381984,-4.442997 v 10.656676 c 0,0.4152 0.256542,0.7872 0.644628,0.9348 0.388085,0.1476 0.826971,0.04 1.102813,-0.2704 l 9.350177,-6.999876 c 0.18318,-0.206 0.273164,-0.4786 0.248622,-0.7534 -0.02454,-0.2746 -0.1614,-0.527 -0.378224,-0.6972 l -7.985761,-5.2138 7.985761,-5.213601 c 0.216824,-0.17036 0.353684,-0.4227 0.378224,-0.69734 0.02454,-0.27466 -0.06544,-0.54724 -0.248622,-0.75334 l -9.350177,-6.999604 c -0.332379,-0.248821 -0.714728,-0.4179 -1.102813,-0.27036 z m 1.355397,15.706005 6.146177,4.358 -6.146177,4.239876 z m 0,-3.5436 v -8.597605 l 6.146177,4.239604 z"
     id="path346"
     sodipodi:nodetypes="csccsccccccssccccccscscccccccccc"
     style="fill:#ffffff;stroke-width:2.00002" /></svg>
