<?xml version="1.0" encoding="UTF-8" standalone="no"?>
<!-- Created with Inkscape (http://www.inkscape.org/) -->

<svg
   width="48"
   height="48"
   viewBox="0 0 48 48"
   version="1.1"
   id="svg371"
   xml:space="preserve"
   inkscape:version="1.2.2 (1:1.2.2+202305151914+b0a8486541)"
   sodipodi:docname="network-server.svg"
   xmlns:inkscape="http://www.inkscape.org/namespaces/inkscape"
   xmlns:sodipodi="http://sodipodi.sourceforge.net/DTD/sodipodi-0.dtd"
   xmlns:xlink="http://www.w3.org/1999/xlink"
   xmlns="http://www.w3.org/2000/svg"
   xmlns:svg="http://www.w3.org/2000/svg"><sodipodi:namedview
     id="namedview373"
     pagecolor="#ffffff"
     bordercolor="#000000"
     borderopacity="0.25"
     inkscape:showpageshadow="2"
     inkscape:pageopacity="0.0"
     inkscape:pagecheckerboard="0"
     inkscape:deskcolor="#d1d1d1"
     inkscape:document-units="px"
     showgrid="false"
     inkscape:zoom="16.791667"
     inkscape:cx="24"
     inkscape:cy="24"
     inkscape:window-width="1920"
     inkscape:window-height="1008"
     inkscape:window-x="0"
     inkscape:window-y="0"
     inkscape:window-maximized="1"
     inkscape:current-layer="svg371"
     showguides="false" /><defs
     id="defs368"><linearGradient
       inkscape:collect="always"
       xlink:href="#linearGradient1223"
       id="linearGradient3040"
       x1="32"
       y1="62"
       x2="32"
       y2="2"
       gradientUnits="userSpaceOnUse"
       gradientTransform="matrix(0.73333335,0,0,0.73333335,0.53333333,0.53333333)" /><linearGradient
       inkscape:collect="always"
       id="linearGradient1223"><stop
         style="stop-color:#fa7490;stop-opacity:1;"
         offset="0"
         id="stop1219" /><stop
         style="stop-color:#fc9caf;stop-opacity:1;"
         offset="1"
         id="stop1221" /></linearGradient></defs><path
     d="M 2,24 C 2,7.5 7.5,2 24,2 40.5,2 46,7.5 46,24 46,40.5 40.5,46 24,46 7.5,46 2,40.5 2,24"
     style="fill:url(#linearGradient3040);fill-opacity:1.0;stroke-width:0.22"
     id="path311" /><path
     id="rect345"
     style="fill:#ffffff;stroke-width:2;stroke-linecap:round;stroke-linejoin:round"
     d="M 13 13 C 11.338002 13 10 14.338002 10 16 L 10 19 C 10 20.661998 11.338002 22 13 22 L 35 22 C 36.661998 22 38 20.661998 38 19 L 38 16 C 38 14.338002 36.661998 13 35 13 L 13 13 z M 13 26 C 11.338002 26 10 27.338002 10 29 L 10 32 C 10 33.661998 11.338002 35 13 35 L 35 35 C 36.661998 35 38 33.661998 38 32 L 38 29 C 38 27.338002 36.661998 26 35 26 L 13 26 z " /><path
     id="path1763"
     style="fill:#ec4366;fill-opacity:1;stroke-width:1;stroke-linecap:round"
     d="M 14.5 15 A 2.5 2.5 0 0 0 12 17.5 A 2.5 2.5 0 0 0 14.5 20 A 2.5 2.5 0 0 0 17 17.5 A 2.5 2.5 0 0 0 14.5 15 z M 14.5 28 A 2.5 2.5 0 0 0 12 30.5 A 2.5 2.5 0 0 0 14.5 33 A 2.5 2.5 0 0 0 17 30.5 A 2.5 2.5 0 0 0 14.5 28 z " /></svg>
