<?xml version="1.0" encoding="UTF-8" standalone="no"?>
<!-- Created with Inkscape (http://www.inkscape.org/) -->

<svg
   width="16"
   height="16"
   viewBox="0 0 16 16"
   version="1.1"
   id="svg405"
   inkscape:version="1.2.2 (1:1.2.2+202305151914+b0a8486541)"
   sodipodi:docname="input-keyboard.svg"
   xmlns:inkscape="http://www.inkscape.org/namespaces/inkscape"
   xmlns:sodipodi="http://sodipodi.sourceforge.net/DTD/sodipodi-0.dtd"
   xmlns="http://www.w3.org/2000/svg"
   xmlns:svg="http://www.w3.org/2000/svg">
  <sodipodi:namedview
     id="namedview407"
     pagecolor="#ffffff"
     bordercolor="#000000"
     borderopacity="0.25"
     inkscape:showpageshadow="2"
     inkscape:pageopacity="0.0"
     inkscape:pagecheckerboard="0"
     inkscape:deskcolor="#d1d1d1"
     inkscape:document-units="px"
     showgrid="false"
     inkscape:zoom="50.375"
     inkscape:cx="8"
     inkscape:cy="8"
     inkscape:window-width="1920"
     inkscape:window-height="1008"
     inkscape:window-x="0"
     inkscape:window-y="0"
     inkscape:window-maximized="1"
     inkscape:current-layer="svg405" />
  <defs
     id="defs402">
    <style
       id="current-color-scheme"
       type="text/css">
         .ColorScheme-Text { color:#4d4d4d; }
        </style>
  </defs>
  <path
     id="path788"
     style="fill:currentColor;stroke-width:2;stroke-linecap:round;stroke-linejoin:round"
     class="ColorScheme-Text"
     d="M 2 2 C 0.89200333 2 0 2.8920033 0 4 L 0 12 C 0 13.107997 0.89200333 14 2 14 L 13 14 C 14.107997 14 15 13.107997 15 12 L 15 4 C 15 2.8920033 14.107997 2 13 2 L 2 2 z M 2 3 L 13 3 C 13.553998 3 14 3.4460012 14 4 L 14 12 C 14 12.553998 13.553998 13 13 13 L 2 13 C 1.4460012 13 1 12.553998 1 12 L 1 4 C 1 3.4460012 1.4460012 3 2 3 z M 3 4 C 2.4477165 4 2 4.4477165 2 5 C 2 5.5522835 2.4477165 6 3 6 C 3.5522835 6 4 5.5522835 4 5 C 4 4.4477165 3.5522835 4 3 4 z M 6 4 C 5.4477165 4 5 4.4477165 5 5 C 5 5.5522835 5.4477165 6 6 6 C 6.5522835 6 7 5.5522835 7 5 C 7 4.4477165 6.5522835 4 6 4 z M 9 4 C 8.4477165 4 8 4.4477165 8 5 C 8 5.5522835 8.4477165 6 9 6 C 9.5522838 6 10 5.5522835 10 5 C 10 4.4477165 9.5522838 4 9 4 z M 12 4 C 11.447717 3.9999997 11 4.4477163 11 5 C 11 5.5522837 11.447717 6.0000003 12 6 C 12.552283 6 13 5.5522835 13 5 C 13 4.4477165 12.552283 4 12 4 z M 3 7 C 2.4477165 7 2 7.4477165 2 8 C 2 8.5522835 2.4477165 9 3 9 C 3.5522835 9 4 8.5522835 4 8 C 4 7.4477165 3.5522835 7 3 7 z M 6 7 C 5.4477165 7 5 7.4477165 5 8 C 5 8.5522835 5.4477165 9 6 9 C 6.5522835 9 7 8.5522835 7 8 C 7 7.4477165 6.5522835 7 6 7 z M 9 7 C 8.4477165 7 8 7.4477165 8 8 C 8 8.5522835 8.4477165 9 9 9 C 9.5522838 9 10 8.5522835 10 8 C 10 7.4477165 9.5522838 7 9 7 z M 12 7 C 11.447717 6.9999997 11 7.4477163 11 8 C 11 8.5522837 11.447717 9 12 9 C 12.552283 9 13 8.5522835 13 8 C 13 7.4477165 12.552283 7 12 7 z M 4 10 L 4 12 L 11 12 L 11 10 L 4 10 z " />
</svg>
