<?xml version="1.0" encoding="UTF-8" standalone="no"?>
<!-- Created with Inkscape (http://www.inkscape.org/) -->

<svg
   width="16"
   height="16"
   viewBox="0 0 4.2333332 4.2333335"
   version="1.1"
   id="svg11945"
   inkscape:version="1.2.2 (1:1.2.2+202305151914+b0a8486541)"
   sodipodi:docname="network-server.svg"
   xmlns:inkscape="http://www.inkscape.org/namespaces/inkscape"
   xmlns:sodipodi="http://sodipodi.sourceforge.net/DTD/sodipodi-0.dtd"
   xmlns="http://www.w3.org/2000/svg"
   xmlns:svg="http://www.w3.org/2000/svg">
  <sodipodi:namedview
     id="namedview11947"
     pagecolor="#ffffff"
     bordercolor="#666666"
     borderopacity="1.0"
     inkscape:pageshadow="2"
     inkscape:pageopacity="0.0"
     inkscape:pagecheckerboard="0"
     inkscape:document-units="px"
     showgrid="false"
     units="in"
     inkscape:zoom="50.375"
     inkscape:cx="8"
     inkscape:cy="8"
     inkscape:window-width="1920"
     inkscape:window-height="1008"
     inkscape:window-x="0"
     inkscape:window-y="0"
     inkscape:window-maximized="1"
     inkscape:current-layer="svg11945"
     showguides="true"
     inkscape:showpageshadow="2"
     inkscape:deskcolor="#d1d1d1" />
  <defs
     id="defs11942">
    <style
       id="current-color-scheme"
       type="text/css">
         .ColorScheme-Text { color:#4d4d4d; }
        </style>
  </defs>
  <path
     id="path4457"
     style="fill:currentColor;stroke-width:1.32292;stroke-linecap:round;stroke-linejoin:round"
     class="ColorScheme-Text"
     d="M 0.79375 0.52916667 C 0.50059345 0.52916667 0.26458333 0.76517693 0.26458333 1.0583333 L 0.26458333 1.5875 C 0.26458333 1.8806566 0.50059345 2.1166667 0.79375 2.1166667 L 3.4395833 2.1166667 C 3.7327404 2.1166667 3.96875 1.8806566 3.96875 1.5875 L 3.96875 1.0583333 C 3.96875 0.76517693 3.7327404 0.52916667 3.4395833 0.52916667 L 0.79375 0.52916667 z M 0.79375 0.79375 L 3.4395833 0.79375 C 3.5861619 0.79375 3.7041667 0.91175521 3.7041667 1.0583333 L 3.7041667 1.5875 C 3.7041667 1.7340785 3.5861619 1.8520833 3.4395833 1.8520833 L 0.79375 1.8520833 C 0.64717172 1.8520833 0.52916667 1.7340785 0.52916667 1.5875 L 0.52916667 1.0583333 C 0.52916667 0.91175521 0.64717172 0.79375 0.79375 0.79375 z M 1.0583333 1.0583333 C 0.91220813 1.0583333 0.79374997 1.1767915 0.79375 1.3229167 C 0.79375003 1.4690418 0.91220817 1.5875 1.0583333 1.5875 C 1.2044585 1.5875 1.3229167 1.4690418 1.3229167 1.3229167 C 1.3229167 1.1767914 1.2044586 1.0583333 1.0583333 1.0583333 z M 0.79375 2.38125 C 0.50059345 2.38125 0.26458333 2.6172603 0.26458333 2.9104167 L 0.26458333 3.4395833 C 0.26458333 3.73274 0.50059345 3.96875 0.79375 3.96875 L 3.4395833 3.96875 C 3.7327404 3.96875 3.96875 3.73274 3.96875 3.4395833 L 3.96875 2.9104167 C 3.96875 2.6172603 3.7327404 2.38125 3.4395833 2.38125 L 0.79375 2.38125 z M 0.79375 2.6458333 L 3.4395833 2.6458333 C 3.5861619 2.6458333 3.7041667 2.7638385 3.7041667 2.9104167 L 3.7041667 3.4395833 C 3.7041667 3.5861618 3.5861619 3.7041667 3.4395833 3.7041667 L 0.79375 3.7041667 C 0.64717172 3.7041667 0.52916667 3.5861618 0.52916667 3.4395833 L 0.52916667 2.9104167 C 0.52916667 2.7638385 0.64717172 2.6458333 0.79375 2.6458333 z M 1.0583333 2.9104167 C 0.91220815 2.9104167 0.79374997 3.0288749 0.79375 3.175 C 0.79375003 3.3211252 0.91220819 3.4395833 1.0583333 3.4395833 C 1.2044585 3.4395833 1.3229167 3.3211252 1.3229167 3.175 C 1.3229167 3.0288748 1.2044586 2.9104167 1.0583333 2.9104167 z " />
</svg>
