<?xml version="1.0" encoding="UTF-8" standalone="no"?>
<!-- Created with Inkscape (http://www.inkscape.org/) -->

<svg
   width="16"
   height="16"
   viewBox="0 0 16 16"
   version="1.1"
   id="svg5"
   inkscape:version="1.2.2 (1:1.2.2+202305151914+b0a8486541)"
   sodipodi:docname="printer.svg"
   xmlns:inkscape="http://www.inkscape.org/namespaces/inkscape"
   xmlns:sodipodi="http://sodipodi.sourceforge.net/DTD/sodipodi-0.dtd"
   xmlns="http://www.w3.org/2000/svg"
   xmlns:svg="http://www.w3.org/2000/svg">
  <sodipodi:namedview
     id="namedview7"
     pagecolor="#ffffff"
     bordercolor="#000000"
     borderopacity="0.25"
     inkscape:showpageshadow="2"
     inkscape:pageopacity="0.0"
     inkscape:pagecheckerboard="0"
     inkscape:deskcolor="#d1d1d1"
     inkscape:document-units="px"
     showgrid="false"
     inkscape:zoom="50.375"
     inkscape:cx="8.0397022"
     inkscape:cy="8"
     inkscape:window-width="1920"
     inkscape:window-height="1008"
     inkscape:window-x="0"
     inkscape:window-y="0"
     inkscape:window-maximized="1"
     inkscape:current-layer="svg5" />
  <defs
     id="defs2">
    <style
       id="current-color-scheme"
       type="text/css">
         .ColorScheme-Text { color:#4d4d4d; }
        </style>
  </defs>
  <path
     id="path1407"
     style="fill:currentColor;stroke:none;stroke-width:2;stroke-linecap:round;stroke-linejoin:round;stroke-dasharray:none;stroke-opacity:1"
     class="ColorScheme-Text"
     d="M 5 1 C 3.8920043 1 3 1.8920041 3 3 L 3 8 C 1.8920044 8 1 8.8920044 1 10 L 1 13 C 1 14.107995 1.8920044 15 3 15 L 13 15 C 14.107996 15 15 14.107995 15 13 L 15 10 C 15 8.8920044 14.107996 8 13 8 L 13 5.5 C 13.0035 4.659485 12.825643 4.3296719 12.5 4 L 10 1.5 C 9.537032 1.0712072 9.1954956 1 8.5 1 L 5 1 z M 5 2 L 8 2 L 8 4 C 8 5.1079955 8.8920048 6 10 6 L 12 6 L 12 8 L 4 8 L 4 3 C 4 2.4460023 4.4460018 2 5 2 z M 9 2 L 12 5 L 10 5 C 9.4460025 5 9 4.5539978 9 4 L 9 2 z M 3 9 L 13 9 C 13.553996 9 14 9.4460024 14 10 L 14 13 C 14 13.553996 13.553996 14 13 14 L 3 14 C 2.4460024 14 2 13.553996 2 13 L 2 10 C 2 9.4460024 2.4460024 9 3 9 z M 3 12 L 3 13 L 13 13 L 13 12 L 3 12 z " />
</svg>
