<?xml version="1.0" encoding="UTF-8" standalone="no"?>
<!-- Created with Inkscape (http://www.inkscape.org/) -->

<svg
   width="22"
   height="22"
   viewBox="0 0 22 22"
   version="1.1"
   id="svg5"
   inkscape:version="1.2.2 (1:1.2.2+202305151914+b0a8486541)"
   sodipodi:docname="application-menu.svg"
   xmlns:inkscape="http://www.inkscape.org/namespaces/inkscape"
   xmlns:sodipodi="http://sodipodi.sourceforge.net/DTD/sodipodi-0.dtd"
   xmlns="http://www.w3.org/2000/svg"
   xmlns:svg="http://www.w3.org/2000/svg">
  <sodipodi:namedview
     id="namedview7"
     pagecolor="#ffffff"
     bordercolor="#000000"
     borderopacity="0.25"
     inkscape:showpageshadow="2"
     inkscape:pageopacity="0.0"
     inkscape:pagecheckerboard="0"
     inkscape:deskcolor="#d1d1d1"
     inkscape:document-units="px"
     showgrid="false"
     inkscape:zoom="36.636364"
     inkscape:cx="11"
     inkscape:cy="11"
     inkscape:window-width="1920"
     inkscape:window-height="1008"
     inkscape:window-x="0"
     inkscape:window-y="0"
     inkscape:window-maximized="1"
     inkscape:current-layer="svg5" />
  <defs
     id="defs2">
    <style
       id="current-color-scheme"
       type="text/css">
         .ColorScheme-Text { color:#dfdfdf; }
        </style>
  </defs>
  <path
     id="rect286"
     style="fill:currentColor;stroke-width:2;stroke-linecap:round;stroke-linejoin:round"
     d="M 4.5,6 C 4.2230003,6 4,6.2230003 4,6.5 4,6.7769997 4.2230003,7 4.5,7 h 13 C 17.777,7 18,6.7769997 18,6.5 18,6.2230003 17.777,6 17.5,6 Z m 0,5 C 4.2230003,11 4,11.223 4,11.5 4,11.777 4.2230003,12 4.5,12 h 13 C 17.777,12 18,11.777 18,11.5 18,11.223 17.777,11 17.5,11 Z m 0,5 C 4.2230003,16 4,16.223 4,16.5 4,16.777 4.2230003,17 4.5,17 h 13 C 17.777,17 18,16.777 18,16.5 18,16.223 17.777,16 17.5,16 Z"
     sodipodi:nodetypes="sssssssssssssssssssss"
     class="ColorScheme-Text" />
</svg>
