<?xml version="1.0" encoding="UTF-8" standalone="no"?>
<!-- Created with Inkscape (http://www.inkscape.org/) -->

<svg
   width="16"
   height="16"
   viewBox="0 0 16 16"
   version="1.1"
   id="svg5"
   inkscape:version="1.2.2 (1:1.2.2+202305151914+b0a8486541)"
   sodipodi:docname="audio-volume-overamplified-symbolic.svg"
   xmlns:inkscape="http://www.inkscape.org/namespaces/inkscape"
   xmlns:sodipodi="http://sodipodi.sourceforge.net/DTD/sodipodi-0.dtd"
   xmlns="http://www.w3.org/2000/svg"
   xmlns:svg="http://www.w3.org/2000/svg">
  <sodipodi:namedview
     id="namedview7"
     pagecolor="#ffffff"
     bordercolor="#000000"
     borderopacity="0.25"
     inkscape:showpageshadow="2"
     inkscape:pageopacity="0.0"
     inkscape:pagecheckerboard="0"
     inkscape:deskcolor="#d1d1d1"
     inkscape:document-units="px"
     showgrid="false"
     inkscape:zoom="50.375"
     inkscape:cx="8"
     inkscape:cy="8"
     inkscape:window-width="1920"
     inkscape:window-height="1008"
     inkscape:window-x="0"
     inkscape:window-y="0"
     inkscape:window-maximized="1"
     inkscape:current-layer="svg5" />
  <defs
     id="defs2" />
  <path
     d="M 6.2539061,1.999879 C 6.1056995,2.0075439 5.9598777,2.0643018 5.8398437,2.1658948 L 3.0000001,4.999879 H 0.99999994 C 0.4459999,4.999879 0,5.4458788 0,5.9998789 V 9.9998791 C 0,10.553879 0.4459999,10.999879 0.99999994,10.999879 H 3.0000001 l 2.8398436,2.833984 c 0.4682135,0.392247 1.1606717,0.04281 1.1601562,-0.585937 V 2.7479259 C 6.9995766,2.4596028 6.8415621,2.1965996 6.5937498,2.0721446 6.4853417,2.0183018 6.3691779,1.9939182 6.2539061,1.999879 Z"
     style="fill:#dfdfdf;fill-opacity:1;stroke:none;stroke-width:1.88975"
     id="path463"
     sodipodi:nodetypes="sccsssscccccs" />
  <path
     id="rect340"
     style="opacity:1;fill:#dfdfdf;fill-opacity:1;stroke-width:2;stroke-linecap:round;stroke-linejoin:round"
     d="m 14,1 c -0.553999,0 -1,0.4460006 -1,1 v 12 c 0,0.553999 0.446001,1 1,1 0.553999,0 1,-0.446001 1,-1 V 2 C 15,1.4460006 14.553999,1 14,1 Z M 10,4 C 9.446001,4 9,4.4460006 9,5 v 6 c 0,0.553999 0.446001,1 1,1 0.553999,0 1,-0.446001 1,-1 V 5 C 11,4.4460006 10.553999,4 10,4 Z"
     sodipodi:nodetypes="ssssssssssssss" />
</svg>
