<?xml version="1.0" encoding="UTF-8" standalone="no"?>
<!-- Created with Inkscape (http://www.inkscape.org/) -->

<svg
   width="16"
   height="16"
   viewBox="0 0 16 16.000001"
   version="1.1"
   id="svg5"
   sodipodi:docname="battery-level-0-symbolic.svg"
   inkscape:version="1.2.2 (1:1.2.2+202305151914+b0a8486541)"
   xmlns:inkscape="http://www.inkscape.org/namespaces/inkscape"
   xmlns:sodipodi="http://sodipodi.sourceforge.net/DTD/sodipodi-0.dtd"
   xmlns="http://www.w3.org/2000/svg"
   xmlns:svg="http://www.w3.org/2000/svg">
  <sodipodi:namedview
     id="namedview7"
     pagecolor="#ffffff"
     bordercolor="#000000"
     borderopacity="0.25"
     inkscape:showpageshadow="2"
     inkscape:pageopacity="0.0"
     inkscape:pagecheckerboard="0"
     inkscape:deskcolor="#d1d1d1"
     inkscape:document-units="px"
     showgrid="false"
     inkscape:zoom="50.375"
     inkscape:cx="7.9900744"
     inkscape:cy="8"
     inkscape:window-width="1920"
     inkscape:window-height="1008"
     inkscape:window-x="0"
     inkscape:window-y="0"
     inkscape:window-maximized="1"
     inkscape:current-layer="svg5" />
  <defs
     id="defs2" />
  <path
     id="rect788"
     style="fill:#dfdfdf;stroke-width:3;stroke-linecap:round;stroke-linejoin:round;fill-opacity:1;opacity:0.3"
     d="M 6 1 L 6 2 L 5 2 C 4.4460006 2 4 2.4460006 4 3 L 4 14 C 4 14.553999 4.4460006 15 5 15 L 11 15 C 11.553999 15 12 14.553999 12 14 L 12 3 C 12 2.4460006 11.553999 2 11 2 L 10 2 L 10 1 L 6 1 z " />
  <path
     id="path951"
     style="opacity:1;fill:#f44336;stroke-width:3;stroke-linecap:round;stroke-linejoin:round"
     d="M 8 4 C 7.4460006 4 7 4.4460006 7 5 L 7 9 C 7 9.5539994 7.4460006 10 8 10 C 8.5539994 10 9 9.5539994 9 9 L 9 5 C 9 4.4460006 8.5539994 4 8 4 z M 8 11 C 7.4477159 11 7 11.447716 7 12 C 7 12.552284 7.4477159 13 8 13 C 8.5522841 13 9 12.552284 9 12 C 9 11.447716 8.5522841 11 8 11 z " />
</svg>
