<?xml version="1.0" encoding="UTF-8" standalone="no"?>
<!-- Created with Inkscape (http://www.inkscape.org/) -->

<svg
   width="16"
   height="16"
   viewBox="0 0 16 16"
   version="1.1"
   id="svg11945"
   inkscape:version="1.2.2 (1:1.2.2+202305151914+b0a8486541)"
   sodipodi:docname="folder-templates.svg"
   xmlns:inkscape="http://www.inkscape.org/namespaces/inkscape"
   xmlns:sodipodi="http://sodipodi.sourceforge.net/DTD/sodipodi-0.dtd"
   xmlns="http://www.w3.org/2000/svg"
   xmlns:svg="http://www.w3.org/2000/svg">
  <sodipodi:namedview
     id="namedview11947"
     pagecolor="#ffffff"
     bordercolor="#666666"
     borderopacity="1.0"
     inkscape:pageshadow="2"
     inkscape:pageopacity="0.0"
     inkscape:pagecheckerboard="0"
     inkscape:document-units="px"
     showgrid="false"
     units="in"
     inkscape:zoom="50.375"
     inkscape:cx="8"
     inkscape:cy="8"
     inkscape:window-width="1920"
     inkscape:window-height="1008"
     inkscape:window-x="0"
     inkscape:window-y="0"
     inkscape:window-maximized="1"
     inkscape:current-layer="svg11945"
     showguides="true"
     inkscape:showpageshadow="2"
     inkscape:deskcolor="#d1d1d1" />
  <defs
     id="defs11942">
    <style
       id="current-color-scheme"
       type="text/css">
         .ColorScheme-Text { color:#4d4d4d; }
        </style>
  </defs>
  <path
     id="path4457"
     style="fill:currentColor;stroke-width:5.00001;stroke-linecap:round;stroke-linejoin:round"
     class="ColorScheme-Text"
     d="M 5 1 C 3.8920008 1 3 1.8920009 3 3 L 3 8 L 4 8 L 4 3 C 4 2.4460005 4.4460004 2 5 2 L 8 2 L 8 4 C 8 5.1079988 8.8920013 6 10 6 L 12 6 L 12 13 C 12 13.553999 11.554 14 11 14 L 10 14 L 10 15 L 11 15 C 12.108 15 13 14.107999 13 13 L 13 5.5 C 13.0035 4.6594826 12.825642 4.3296728 12.5 4 L 10 1.5 C 9.5370303 1.071206 9.1954978 1 8.5 1 L 5 1 z M 9 2 L 12 5 L 10 5 C 9.4460005 5 9 4.5539995 9 4 L 9 2 z M 3 9 L 3 10 L 4 10 L 4 9 L 3 9 z M 3 11 L 3 12 L 4 12 L 4 11 L 3 11 z M 3 13 C 3 14.107999 3.8920008 15 5 15 L 5 14 C 4.4460004 14 4 13.553999 4 13 L 3 13 z M 6 14 L 6 15 L 7 15 L 7 14 L 6 14 z M 8 14 L 8 15 L 9 15 L 9 14 L 8 14 z " />
</svg>
