<?xml version="1.0" encoding="UTF-8" standalone="no"?>
<!-- Created with Inkscape (http://www.inkscape.org/) -->

<svg
   width="16"
   height="16"
   viewBox="0 0 16 16"
   version="1.1"
   id="svg5"
   inkscape:version="1.2.2 (1:1.2.2+202305151914+b0a8486541)"
   sodipodi:docname="folder-videos.svg"
   xmlns:inkscape="http://www.inkscape.org/namespaces/inkscape"
   xmlns:sodipodi="http://sodipodi.sourceforge.net/DTD/sodipodi-0.dtd"
   xmlns="http://www.w3.org/2000/svg"
   xmlns:svg="http://www.w3.org/2000/svg">
  <sodipodi:namedview
     id="namedview7"
     pagecolor="#ffffff"
     bordercolor="#000000"
     borderopacity="0.25"
     inkscape:showpageshadow="2"
     inkscape:pageopacity="0.0"
     inkscape:pagecheckerboard="0"
     inkscape:deskcolor="#d1d1d1"
     inkscape:document-units="px"
     showgrid="false"
     inkscape:zoom="50.375"
     inkscape:cx="8"
     inkscape:cy="8"
     inkscape:window-width="1920"
     inkscape:window-height="1008"
     inkscape:window-x="0"
     inkscape:window-y="0"
     inkscape:window-maximized="1"
     inkscape:current-layer="svg5" />
  <defs
     id="defs2">
    <style
       id="current-color-scheme"
       type="text/css">
         .ColorScheme-Text { color:#4d4d4d; }
        </style>
  </defs>
  <path
     d="m 3,1.0000002 c -1.108,0 -1.9999999,0.892 -1.9999999,2 V 13.000001 c 0,1.108 0.8919999,2 1.9999999,2 h 10 c 1.107999,0 1.999999,-0.892 1.999999,-2 V 3.0000002 c 0,-1.108 -0.892,-2 -1.999999,-2 z m 0,1 h 10 c 0.553999,0 0.999999,0.446 0.999999,1 V 13.000001 c 0,0.554 -0.446,1 -0.999999,1 H 3 c -0.554,0 -1,-0.446 -1,-1 V 3.0000002 c 0,-0.554 0.446,-1 1,-1 z M 6.0117185,3.9980471 C 5.8353204,3.9958206 5.6614719,4.0402936 5.5078122,4.1269532 5.1930906,4.3039957 4.9982473,4.6369464 4.9980466,4.998047 v 6.000001 c 5.756e-4,0.776534 0.8473462,1.256188 1.513672,0.857422 L 11.515625,8.8574223 c 0.642737,-0.3892233 0.642737,-1.3217144 0,-1.7109377 L 6.5117186,4.1406253 C 6.3605375,4.0498486 6.1880399,4.0006618 6.0117185,3.9980471 Z M 6.0000015,5.0000003 11.000002,8.0000002 6.0000015,11 Z"
     style="fill:currentColor;fill-opacity:1;stroke:none;stroke-width:4.31947;stroke-linecap:round;stroke-miterlimit:4;stroke-dasharray:none"
     class="ColorScheme-Text"
     id="path342" />
</svg>
