<?xml version="1.0" encoding="UTF-8" standalone="no"?>
<!-- Created with Inkscape (http://www.inkscape.org/) -->

<svg
   width="16"
   height="16"
   viewBox="0 0 16 16"
   version="1.1"
   id="svg405"
   inkscape:version="1.2.2 (1:1.2.2+202305151914+b0a8486541)"
   sodipodi:docname="fcitx-chewing-panel.svg"
   xmlns:inkscape="http://www.inkscape.org/namespaces/inkscape"
   xmlns:sodipodi="http://sodipodi.sourceforge.net/DTD/sodipodi-0.dtd"
   xmlns="http://www.w3.org/2000/svg"
   xmlns:svg="http://www.w3.org/2000/svg">
  <sodipodi:namedview
     id="namedview407"
     pagecolor="#ffffff"
     bordercolor="#000000"
     borderopacity="0.25"
     inkscape:showpageshadow="2"
     inkscape:pageopacity="0.0"
     inkscape:pagecheckerboard="0"
     inkscape:deskcolor="#d1d1d1"
     inkscape:document-units="px"
     showgrid="false"
     inkscape:zoom="50.375"
     inkscape:cx="7.9900744"
     inkscape:cy="8"
     inkscape:window-width="1920"
     inkscape:window-height="1008"
     inkscape:window-x="0"
     inkscape:window-y="0"
     inkscape:window-maximized="1"
     inkscape:current-layer="svg405" />
  <defs
     id="defs402">
    <style
       id="current-color-scheme"
       type="text/css">
         .ColorScheme-Text { color:#dfdfdf; }
        </style>
  </defs>
  <path
     id="path343"
     style="fill:currentColor;fill-opacity:1;stroke-linecap:round;stroke-linejoin:round"
     class="ColorScheme-Text"
     d="M 3 1 C 1.8920055 1 1 1.8920055 1 3 L 1 13 C 1 14.107995 1.8920055 15 3 15 L 13 15 C 14.107995 15 15 14.107995 15 13 L 15 3 C 15 1.8920055 14.107995 1 13 1 L 3 1 z M 3 3 L 9 3 L 9 4 L 7 4 L 7 7 L 8.5 7 L 9 7 L 8.5996094 6.6992188 C 8.5996094 6.6992188 10 4.7499982 10 3 L 11 3 C 11 3.7086993 10.834587 4.3887006 10.617188 5 L 12 5 L 12 3 L 13 3 L 13 5 L 14 5 L 14 6 L 13 6 L 13 8 L 14 8 L 14 9 L 10 9 L 10 8 L 12 8 L 12 6 L 10.197266 6 C 9.798566 6.7895992 9.4003906 7.3007812 9.4003906 7.3007812 L 9 7 L 9 14 L 3 14 L 3 7 L 4 7 L 4 4 L 3 4 L 3 3 z M 5 4 L 5 7 L 6 7 L 6 4 L 5 4 z M 5 8 L 5 10 L 4 10 L 4 11 L 7 11 L 7 12 L 4 12 L 4 13 L 8 13 L 8 8 L 7 8 L 7 10 L 6 10 L 6 8 L 5 8 z M 10 10 L 14 10 L 14 14 L 10 14 L 10 10 z M 11 11 L 11 13 L 13 13 L 13 11 L 11 11 z " />
</svg>
