<?xml version="1.0" encoding="UTF-8" standalone="no"?>
<!-- Created with Inkscape (http://www.inkscape.org/) -->

<svg
   width="22"
   height="22"
   viewBox="0 0 22 22"
   version="1.1"
   id="svg11945"
   inkscape:version="1.2.2 (1:1.2.2+202305151914+b0a8486541)"
   sodipodi:docname="folder-templates.svg"
   xmlns:inkscape="http://www.inkscape.org/namespaces/inkscape"
   xmlns:sodipodi="http://sodipodi.sourceforge.net/DTD/sodipodi-0.dtd"
   xmlns="http://www.w3.org/2000/svg"
   xmlns:svg="http://www.w3.org/2000/svg">
  <sodipodi:namedview
     id="namedview11947"
     pagecolor="#ffffff"
     bordercolor="#666666"
     borderopacity="1.0"
     inkscape:pageshadow="2"
     inkscape:pageopacity="0.0"
     inkscape:pagecheckerboard="0"
     inkscape:document-units="px"
     showgrid="false"
     units="in"
     inkscape:zoom="36.636364"
     inkscape:cx="10.986352"
     inkscape:cy="11"
     inkscape:window-width="1920"
     inkscape:window-height="1008"
     inkscape:window-x="0"
     inkscape:window-y="0"
     inkscape:window-maximized="1"
     inkscape:current-layer="svg11945"
     showguides="true"
     inkscape:showpageshadow="2"
     inkscape:deskcolor="#d1d1d1" />
  <defs
     id="defs11942">
    <style
       id="current-color-scheme"
       type="text/css">
         .ColorScheme-Text { color:#4d4d4d; }
        </style>
  </defs>
  <path
     id="path4457"
     style="fill:currentColor;stroke-width:5.00001;stroke-linecap:round;stroke-linejoin:round"
     class="ColorScheme-Text"
     d="m 6.9999745,3 c -1.1079981,0 -2,0.892002 -2,2 v 5 h 1 V 5 c 0,-0.5539989 0.446001,-1 1,-1 h 4.0000005 v 3 c 0,1.1079977 0.892002,2 2,2 h 3 v 8 c 0,0.553998 -0.446001,1 -1,1 h -1 v 1 h 1 c 1.107999,0 2,-0.892002 2,-2 V 8.5 c 0.0035,-0.8405166 -0.174358,-1.1703275 -0.5,-1.5 l -3.5,-3.5 C 12.537005,3.0712064 12.195472,3 11.499975,3 Z m 5.0000005,1 4,4 h -3 c -0.553998,0 -1,-0.4460011 -1,-1 z m -7.0000005,7 v 1 h 1 v -1 z m 0,2 v 1 h 1 v -1 z m 0,2 v 1 h 1 v -1 z m 0,2 c 0,1.107998 0.8920019,2 2,2 v -1 c -0.553999,0 -1,-0.446002 -1,-1 z m 3,1 v 1 h 1 v -1 z m 2,0 v 1 h 1.0000005 v -1 z m 2.0000005,0 v 1 h 1 v -1 z" />
</svg>
