<?xml version="1.0" encoding="UTF-8" standalone="no"?>
<!-- Created with Inkscape (http://www.inkscape.org/) -->

<svg
   width="48"
   height="48"
   viewBox="0 0 48 48"
   version="1.1"
   id="svg371"
   xml:space="preserve"
   inkscape:version="1.2.2 (1:1.2.2+202305151914+b0a8486541)"
   sodipodi:docname="printer.svg"
   xmlns:inkscape="http://www.inkscape.org/namespaces/inkscape"
   xmlns:sodipodi="http://sodipodi.sourceforge.net/DTD/sodipodi-0.dtd"
   xmlns:xlink="http://www.w3.org/1999/xlink"
   xmlns="http://www.w3.org/2000/svg"
   xmlns:svg="http://www.w3.org/2000/svg"><sodipodi:namedview
     id="namedview373"
     pagecolor="#ffffff"
     bordercolor="#000000"
     borderopacity="0.25"
     inkscape:showpageshadow="2"
     inkscape:pageopacity="0.0"
     inkscape:pagecheckerboard="0"
     inkscape:deskcolor="#d1d1d1"
     inkscape:document-units="px"
     showgrid="false"
     inkscape:zoom="16.791667"
     inkscape:cx="24"
     inkscape:cy="24"
     inkscape:window-width="1920"
     inkscape:window-height="1008"
     inkscape:window-x="0"
     inkscape:window-y="0"
     inkscape:window-maximized="1"
     inkscape:current-layer="svg371"
     showguides="true" /><defs
     id="defs368"><linearGradient
       inkscape:collect="always"
       xlink:href="#linearGradient1134"
       id="linearGradient3040"
       x1="32"
       y1="62"
       x2="32"
       y2="2"
       gradientUnits="userSpaceOnUse"
       gradientTransform="matrix(0.73333333,0,0,0.73333333,0.53333333,0.53333333)" /><linearGradient
       inkscape:collect="always"
       id="linearGradient1134"><stop
         style="stop-color:#1e7bdf;stop-opacity:1;"
         offset="0"
         id="stop1130" /><stop
         style="stop-color:#579cf0;stop-opacity:1;"
         offset="1"
         id="stop1132" /></linearGradient></defs><path
     d="M 2,24 C 2,7.5 7.5,2 24,2 40.5,2 46,7.5 46,24 46,40.5 40.5,46 24,46 7.5,46 2,40.5 2,24"
     style="fill:url(#linearGradient3040);fill-opacity:1;stroke-width:0.22"
     id="path311" /><path
     id="rect342"
     style="fill:#a2c9f5;fill-opacity:1;stroke-width:1"
     d="m 17,36.000001 h 14 c 1.662,0 3,-1.338 3,-3 V 18 l -7,-3 -1,-5 h -9 c -1.662,0 -3,1.338 -3,3 v 20.000001 c 0,1.662 1.338,3 3,3 z"
     sodipodi:nodetypes="ssscccssss" /><path
     id="rect481"
     style="fill:#d6e9fa;fill-opacity:1;stroke-width:0.583335"
     d="m 29,18 h 5 l -8,-8 v 5 c 0,1.662 1.338,3 3,3 z"
     sodipodi:nodetypes="sccss" /><rect
     style="fill:#ffffff;stroke-width:4;stroke-linecap:round;stroke-linejoin:round"
     id="rect392"
     width="28"
     height="14"
     x="10"
     y="23.999998"
     ry="3" /><rect
     style="fill:#1c81e8;fill-opacity:1;stroke-width:3;stroke-linecap:round;stroke-linejoin:round"
     id="rect466"
     width="22"
     height="3"
     x="13"
     y="32"
     ry="1.5" /></svg>
