<?xml version="1.0" encoding="UTF-8" standalone="no"?>
<!-- Created with Inkscape (http://www.inkscape.org/) -->

<svg
   width="22"
   height="22"
   viewBox="0 0 22 22"
   version="1.1"
   id="svg371"
   xml:space="preserve"
   inkscape:version="1.2.2 (1:1.2.2+202305151914+b0a8486541)"
   sodipodi:docname="configure.svg"
   xmlns:inkscape="http://www.inkscape.org/namespaces/inkscape"
   xmlns:sodipodi="http://sodipodi.sourceforge.net/DTD/sodipodi-0.dtd"
   xmlns="http://www.w3.org/2000/svg"
   xmlns:svg="http://www.w3.org/2000/svg"><sodipodi:namedview
   id="namedview373"
   pagecolor="#ffffff"
   bordercolor="#000000"
   borderopacity="0.25"
   inkscape:showpageshadow="2"
   inkscape:pageopacity="0.0"
   inkscape:pagecheckerboard="0"
   inkscape:deskcolor="#d1d1d1"
   inkscape:document-units="px"
   showgrid="false"
   inkscape:zoom="36.636364"
   inkscape:cx="11"
   inkscape:cy="11"
   inkscape:window-width="1920"
   inkscape:window-height="1008"
   inkscape:window-x="0"
   inkscape:window-y="0"
   inkscape:window-maximized="1"
   inkscape:current-layer="svg371"
   showguides="false" />
    <defs
   id="defs368">
        <style
   id="current-color-scheme"
   type="text/css">
         .ColorScheme-Text { color:#4d4d4d; }
        </style>
    </defs>
    
    <path
   id="path1430"
   style="fill:currentColor;stroke:none;stroke-width:2;stroke-linecap:round;stroke-linejoin:round;-inkscape-stroke:none"
   class="ColorScheme-Text"
   d="M 10,3 C 9.4460032,3 9.1160787,3.4583003 9,4 L 8.4472656,6.578125 5.9375,5.7675781 C 5.4233728,5.5612137 4.8492641,5.65499 4.5722656,6.1347656 l -1,1.7304688 C 3.295267,8.3450099 3.5264135,8.8610447 3.9375,9.2324219 L 5.8945312,11 3.9375,12.767578 c -0.411087,0.371378 -0.642233,0.887411 -0.3652344,1.367188 l 1,1.730468 C 4.8492641,16.345012 5.4233735,16.438788 5.9375,16.232422 L 8.4472656,15.421875 9,18 c 0.07835,0.548428 0.4460032,1 1,1 h 2 c 0.553999,0 0.883921,-0.458301 1,-1 l 0.552734,-2.578125 2.509766,0.810547 c 0.514124,0.206366 1.088237,0.112598 1.365234,-0.367188 l 1,-1.730468 c 0.277,-0.479777 0.04587,-0.99581 -0.365234,-1.367188 L 16.105469,11 18.0625,9.2324219 c 0.411088,-0.3713772 0.642234,-0.887412 0.365234,-1.3671875 l -1,-1.7304688 C 17.150737,5.65499 16.576625,5.5612137 16.0625,5.7675781 L 13.552734,6.578125 13,4 C 12.92165,3.4515708 12.553999,3 12,3 Z m 0.0625,1 h 1.896484 c 0.01149,0.016525 0.03882,0.056927 0.05078,0.140625 a 1.0001,1.0001 0 0 0 0.01172,0.068359 l 0.554688,2.578125 a 1.0001,1.0001 0 0 0 1.285156,0.7421879 L 16.369141,6.71875 a 1.0001,1.0001 0 0 0 0.06641,-0.023437 c 0.078,-0.031309 0.126035,-0.02705 0.146484,-0.025391 L 17.53125,8.3125 c -0.01379,0.028557 -0.04728,0.095167 -0.138672,0.1777344 l -1.957031,1.7675786 a 1.0001,1.0001 0 0 0 0,1.484375 l 1.957031,1.767578 c 0.0914,0.08256 0.124889,0.149182 0.138672,0.177734 l -0.949219,1.642578 c -0.02045,0.0017 -0.06848,0.0059 -0.146484,-0.02539 a 1.0001,1.0001 0 0 0 -0.06641,-0.02344 l -2.507809,-0.810545 a 1.0001,1.0001 0 0 0 -1.285156,0.742188 l -0.554688,2.578125 C 11.995631,17.911665 11.95525,17.973963 11.9375,18 h -1.896484 c -0.01149,-0.01652 -0.03882,-0.05693 -0.050781,-0.140625 a 1.0001,1.0001 0 0 0 -0.011719,-0.06836 L 9.4238281,15.212891 A 1.0001,1.0001 0 0 0 8.1386719,14.470703 L 5.6308594,15.28125 a 1.0001,1.0001 0 0 0 -0.066406,0.02344 C 5.4864514,15.336 5.4384174,15.33174 5.4179691,15.33008 L 4.46875,13.6875 c 0.013786,-0.02856 0.047275,-0.09517 0.1386719,-0.177734 l 1.9570312,-1.767578 a 1.0001,1.0001 0 0 0 0,-1.484375 L 4.6074219,8.4902344 C 4.5160256,8.4076667 4.4825356,8.3410578 4.46875,8.3125 L 5.4179688,6.6699219 c 0.020449,-0.00166 0.068481,-0.00592 0.1464843,0.025391 A 1.0001,1.0001 0 0 0 5.6308594,6.71875 L 8.1386719,7.5292969 A 1.0001,1.0001 0 0 0 9.4238281,6.7871094 L 9.9785156,4.2089844 C 10.004369,4.0883362 10.044749,4.026037 10.0625,4 Z M 11,8 c -1.656849,0 -3,1.3431512 -3,3 0,1.656849 1.343151,3 3,3 1.656849,0 3,-1.343151 3,-3 0,-1.6568488 -1.343151,-3 -3,-3 z m 0,1 c 1.104566,0 2,0.895434 2,2 0,1.104566 -0.895434,2 -2,2 C 9.8954338,13 9,12.104566 9,11 9,9.895434 9.8954338,9 11,9 Z" /></svg>
