<?xml version="1.0" encoding="UTF-8" standalone="no"?>
<!-- Created with Inkscape (http://www.inkscape.org/) -->

<svg
   width="22"
   height="22"
   viewBox="0 0 22 22"
   version="1.1"
   id="svg11945"
   inkscape:version="1.2.2 (1:1.2.2+202305151914+b0a8486541)"
   sodipodi:docname="edit-delete.svg"
   xmlns:inkscape="http://www.inkscape.org/namespaces/inkscape"
   xmlns:sodipodi="http://sodipodi.sourceforge.net/DTD/sodipodi-0.dtd"
   xmlns="http://www.w3.org/2000/svg"
   xmlns:svg="http://www.w3.org/2000/svg">
  <sodipodi:namedview
     id="namedview11947"
     pagecolor="#ffffff"
     bordercolor="#666666"
     borderopacity="1.0"
     inkscape:pageshadow="2"
     inkscape:pageopacity="0.0"
     inkscape:pagecheckerboard="0"
     inkscape:document-units="px"
     showgrid="false"
     units="in"
     inkscape:zoom="36.636364"
     inkscape:cx="10.986352"
     inkscape:cy="11"
     inkscape:window-width="1920"
     inkscape:window-height="1008"
     inkscape:window-x="0"
     inkscape:window-y="0"
     inkscape:window-maximized="1"
     inkscape:current-layer="svg11945"
     showguides="true"
     inkscape:showpageshadow="2"
     inkscape:deskcolor="#d1d1d1" />
  <defs
     id="defs11942">
    <style
       id="current-color-scheme"
       type="text/css">
         .ColorScheme-Text { color:#4d4d4d; }
         .ColorScheme-Highlight { color:#4285f4; } 
	 .ColorScheme-NeutralText { color:#ff9800; }
	 .ColorScheme-PositiveText { color:#4caf50; }
	 .ColorScheme-NegativeText { color:#f44336; }</style>
  </defs>
  <path
     id="path5833"
     style="fill:currentColor;fill-opacity:1;stroke-width:18.8977;stroke-linecap:round;stroke-linejoin:round"
     class="ColorScheme-Text"
     d="M 8,3 C 7.4460005,3 7,3.4460007 7,4 V 5 H 3 v 1 h 1 l 1,11 c 0.1003136,1.10345 0.8920013,2 2,2 h 7 c 1.107999,0 1.899686,-0.896551 2,-2 L 17,6 h 1 V 5 H 14 V 4 C 14,3.4460007 13.553999,3 13,3 Z m 0,1 h 5 V 5 H 8 Z M 5,6 h 11 l -1,11 c -0.06118,0.550611 -0.446001,1 -1,1 H 7 C 6.446001,18 6.0501567,17.551724 6,17 Z M 7.4746094,8 C 7.2096946,8.0133417 7,8.231655 7,8.5 v 7 C 7,15.777002 7.2230003,16 7.5,16 7.7770017,16 8,15.777001 8,15.5 v -7 C 8,8.2229987 7.7769997,8 7.5,8 7.4913,8 7.4831494,7.9995699 7.4746094,8 Z M 10.474609,8 C 10.209696,8.0133417 10,8.231655 10,8.5 v 7 c 0,0.277002 0.223,0.5 0.5,0.5 0.277001,0 0.5,-0.222999 0.5,-0.5 v -7 C 11,8.2229987 10.777,8 10.5,8 10.4913,8 10.48315,7.9995699 10.47461,8 Z m 3,0 C 13.209696,8.013342 13,8.231655 13,8.5 v 7 c 0,0.277002 0.223,0.5 0.5,0.5 0.277001,0 0.5,-0.222999 0.5,-0.5 v -7 C 14,8.2229987 13.777,8 13.5,8 13.4913,8 13.48315,7.9995698 13.47461,8 Z"
     sodipodi:nodetypes="ssccccssssccccsssccccccccssscssssssssssssssssssssssssss" />
</svg>
