<?xml version="1.0" encoding="UTF-8" standalone="no"?>
<!-- Created with Inkscape (http://www.inkscape.org/) -->

<svg
   width="22"
   height="22"
   viewBox="0 0 22 22"
   version="1.1"
   id="svg5"
   inkscape:version="1.2.2 (1:1.2.2+202305151914+b0a8486541)"
   sodipodi:docname="go-bottom.svg"
   xmlns:inkscape="http://www.inkscape.org/namespaces/inkscape"
   xmlns:sodipodi="http://sodipodi.sourceforge.net/DTD/sodipodi-0.dtd"
   xmlns="http://www.w3.org/2000/svg"
   xmlns:svg="http://www.w3.org/2000/svg">
  <sodipodi:namedview
     id="namedview7"
     pagecolor="#ffffff"
     bordercolor="#000000"
     borderopacity="0.25"
     inkscape:showpageshadow="2"
     inkscape:pageopacity="0.0"
     inkscape:pagecheckerboard="0"
     inkscape:deskcolor="#d1d1d1"
     inkscape:document-units="px"
     showgrid="false"
     inkscape:zoom="36.636364"
     inkscape:cx="11"
     inkscape:cy="11"
     inkscape:window-width="1920"
     inkscape:window-height="1008"
     inkscape:window-x="0"
     inkscape:window-y="0"
     inkscape:window-maximized="1"
     inkscape:current-layer="svg5" />
  <defs
     id="defs2">
    <style
       id="current-color-scheme"
       type="text/css">
         .ColorScheme-Text { color:#4d4d4d; }
        </style>
  </defs>
  <path
     id="path342"
     style="fill:currentColor;fill-opacity:1;stroke-width:5.00001;stroke-linecap:round;stroke-linejoin:round"
     class="ColorScheme-Text"
     d="M 18.65625 5.4980469 C 18.528441 5.498047 18.400668 5.5485495 18.302734 5.6464844 L 11 12.949219 L 3.6972656 5.6464844 C 3.5013988 5.4506136 3.1861021 5.4506136 2.9902344 5.6464844 C 2.7943646 5.8423542 2.7943648 6.1576468 2.9902344 6.3535156 L 10.646484 14.009766 C 10.842365 14.205624 11.157648 14.205635 11.353516 14.009766 C 11.359616 14.003666 11.367307 13.996584 11.373047 13.990234 L 19.009766 6.3535156 C 19.205623 6.1576338 19.205634 5.8423522 19.009766 5.6464844 C 18.911831 5.548549 18.784059 5.4980468 18.65625 5.4980469 z M 11 15.5 C 10.447716 15.5 10 15.947716 10 16.5 C 10 17.052284 10.447716 17.5 11 17.5 C 11.552284 17.5 12 17.052284 12 16.5 C 12 15.947716 11.552284 15.5 11 15.5 z " />
</svg>
