<?xml version="1.0" encoding="UTF-8" standalone="no"?>
<!-- Created with Inkscape (http://www.inkscape.org/) -->

<svg
   width="22"
   height="22"
   viewBox="0 0 22 22"
   version="1.1"
   id="svg5"
   inkscape:version="1.2.2 (1:1.2.2+202305151914+b0a8486541)"
   sodipodi:docname="go-first.svg"
   xmlns:inkscape="http://www.inkscape.org/namespaces/inkscape"
   xmlns:sodipodi="http://sodipodi.sourceforge.net/DTD/sodipodi-0.dtd"
   xmlns="http://www.w3.org/2000/svg"
   xmlns:svg="http://www.w3.org/2000/svg">
  <sodipodi:namedview
     id="namedview7"
     pagecolor="#ffffff"
     bordercolor="#000000"
     borderopacity="0.25"
     inkscape:showpageshadow="2"
     inkscape:pageopacity="0.0"
     inkscape:pagecheckerboard="0"
     inkscape:deskcolor="#d1d1d1"
     inkscape:document-units="px"
     showgrid="false"
     inkscape:zoom="36.636364"
     inkscape:cx="10.986352"
     inkscape:cy="11"
     inkscape:window-width="1920"
     inkscape:window-height="1008"
     inkscape:window-x="0"
     inkscape:window-y="0"
     inkscape:window-maximized="1"
     inkscape:current-layer="svg5" />
  <defs
     id="defs2">
    <style
       id="current-color-scheme"
       type="text/css">
         .ColorScheme-Text { color:#4d4d4d; }
        </style>
  </defs>
  <path
     id="path342"
     style="fill:currentColor;fill-opacity:1;stroke-width:5.00001;stroke-linecap:round;stroke-linejoin:round"
     class="ColorScheme-Text"
     d="m 16.5,2.8417969 c -0.127809,0 -0.255581,0.050503 -0.353516,0.1484375 L 8.4902344,10.646484 c -0.1958588,0.195881 -0.1958698,0.511164 0,0.707032 0.0061,0.0061 0.013181,0.01379 0.019531,0.01953 l 7.6367184,7.636719 c 0.195882,0.195857 0.513117,0.195868 0.708985,0 0.195871,-0.19587 0.19587,-0.511165 0,-0.707032 L 9.5507812,11 16.853516,3.6972656 c 0.19587,-0.1958668 0.19587,-0.5111635 0,-0.7070312 C 16.755581,2.8922995 16.627809,2.8417969 16.5,2.8417969 Z M 6,10 c -0.5522841,0 -1,0.447716 -1,1 0,0.552284 0.4477159,1 1,1 0.5522841,0 1,-0.447716 1,-1 0,-0.552284 -0.4477159,-1 -1,-1 z" />
</svg>
