<?xml version="1.0" encoding="UTF-8" standalone="no"?>
<!-- Created with Inkscape (http://www.inkscape.org/) -->

<svg
   width="22"
   height="22"
   viewBox="0 0 22 22"
   version="1.1"
   id="svg11945"
   inkscape:version="1.2.2 (1:1.2.2+202305151914+b0a8486541)"
   sodipodi:docname="im-user-offline.svg"
   xmlns:inkscape="http://www.inkscape.org/namespaces/inkscape"
   xmlns:sodipodi="http://sodipodi.sourceforge.net/DTD/sodipodi-0.dtd"
   xmlns="http://www.w3.org/2000/svg"
   xmlns:svg="http://www.w3.org/2000/svg">
  <sodipodi:namedview
     id="namedview11947"
     pagecolor="#ffffff"
     bordercolor="#666666"
     borderopacity="1.0"
     inkscape:pageshadow="2"
     inkscape:pageopacity="0.0"
     inkscape:pagecheckerboard="0"
     inkscape:document-units="px"
     showgrid="false"
     units="in"
     inkscape:zoom="36.636364"
     inkscape:cx="11.027295"
     inkscape:cy="11"
     inkscape:window-width="1920"
     inkscape:window-height="1008"
     inkscape:window-x="0"
     inkscape:window-y="0"
     inkscape:window-maximized="1"
     inkscape:current-layer="svg11945"
     showguides="true"
     inkscape:showpageshadow="2"
     inkscape:deskcolor="#d1d1d1" />
  <defs
     id="defs11942">
    <style
       id="current-color-scheme"
       type="text/css">
         .ColorScheme-Text { color:#4d4d4d; }
        </style>
  </defs>
  <path
     id="path1130"
     style="fill:currentColor;fill-opacity:1;stroke-width:0.666663;opacity:0.35"
     class="ColorScheme-Text"
     d="M 11 3 C 8.7908853 3 7 4.7908831 7 7 C 7 9.209115 8.7908853 11 11 11 C 13.209116 11 15 9.209115 15 7 C 15 4.7908831 13.209116 3 11 3 z M 10.921875 4 C 10.947617 3.999348 10.97411 4 11 4 C 12.656837 4 14 5.3431622 14 7 C 14 8.6568362 12.656837 10 11 10 C 9.3431641 10 8 8.6568362 8 7 C 8 5.3690502 9.3008259 4.0410704 10.921875 4 z M 11 12 C 6.4481543 12 3.9999996 14.947583 4 18 C 4 18.553994 4.4460048 19 5 19 L 17 19 C 17.553995 19 18 18.553994 18 18 C 18 14.947583 15.551846 12 11 12 z M 11 13 C 14.499991 12.997 16.991882 15.173482 17 18 L 5 18 C 5.00812 15.173482 7.5000106 12.996959 11 13 z " />
</svg>
