<?xml version="1.0" encoding="UTF-8" standalone="no"?>
<!-- Created with Inkscape (http://www.inkscape.org/) -->

<svg
   width="32"
   height="32"
   viewBox="0 0 32 32"
   version="1.1"
   id="svg371"
   xml:space="preserve"
   inkscape:version="1.2.2 (1:1.2.2+202305151914+b0a8486541)"
   sodipodi:docname="application-x-deb.svg"
   xmlns:inkscape="http://www.inkscape.org/namespaces/inkscape"
   xmlns:sodipodi="http://sodipodi.sourceforge.net/DTD/sodipodi-0.dtd"
   xmlns:xlink="http://www.w3.org/1999/xlink"
   xmlns="http://www.w3.org/2000/svg"
   xmlns:svg="http://www.w3.org/2000/svg"><sodipodi:namedview
     id="namedview373"
     pagecolor="#ffffff"
     bordercolor="#000000"
     borderopacity="0.25"
     inkscape:showpageshadow="2"
     inkscape:pageopacity="0.0"
     inkscape:pagecheckerboard="0"
     inkscape:deskcolor="#d1d1d1"
     inkscape:document-units="px"
     showgrid="false"
     inkscape:zoom="25.1875"
     inkscape:cx="16"
     inkscape:cy="16"
     inkscape:window-width="1920"
     inkscape:window-height="1008"
     inkscape:window-x="0"
     inkscape:window-y="0"
     inkscape:window-maximized="1"
     inkscape:current-layer="svg371"
     showguides="false" /><defs
     id="defs368"><linearGradient
       inkscape:collect="always"
       id="linearGradient919"><stop
         style="stop-color:#e5578f;stop-opacity:1;"
         offset="0"
         id="stop915" /><stop
         style="stop-color:#f181b0;stop-opacity:1;"
         offset="1"
         id="stop917" /></linearGradient><linearGradient
       inkscape:collect="always"
       xlink:href="#linearGradient919"
       id="linearGradient3040"
       x1="32"
       y1="62"
       x2="32"
       y2="2"
       gradientUnits="userSpaceOnUse"
       gradientTransform="scale(0.5)" /></defs><path
     d="M 1,16 C 1,4.75 4.75,1 16,1 27.25,1 31,4.75 31,16 31,27.25 27.25,31 16,31 4.75,31 1,27.25 1,16"
     style="fill:url(#linearGradient3040);fill-opacity:1;stroke-width:0.15"
     id="path311" /><path
     id="path1235"
     style="fill:#ffffff;stroke-width:1.1;stroke-linecap:round;stroke-linejoin:round"
     d="m 5,12 v 8.974022 h 2.5899412 c 1.3385908,0 2.3638048,-0.376004 3.0744138,-1.127929 0.710611,-0.760188 1.065625,-1.880022 1.065625,-3.359082 0,-1.47906 -0.351461,-2.594266 -1.053808,-3.346191 C 9.973825,12.380632 8.957867,12 7.6275392,12 Z m 8.564746,0 v 8.974022 h 5.527929 V 19.8708 h -4.301171 v -2.925098 h 3.08623 v -1.116113 h -3.08623 v -2.726367 h 4.140039 V 12 Z m 7.139258,0 v 8.974022 h 0.656348 2.838086 c 0.88413,0 1.570691,-0.227668 2.058203,-0.682129 C 26.752415,19.837434 27,19.201036 27,18.383007 c 0,-1.132018 -0.55814,-1.846675 -1.673633,-2.14414 0.776714,-0.264413 1.165528,-0.847097 1.165528,-1.747754 0,-0.784977 -0.239404,-1.395757 -0.718653,-1.833691 C 25.293993,12.219487 24.624869,12 23.765527,12 h -1.834766 z m 1.226757,1.091406 h 1.772461 c 0.504038,0 0.883596,0.119165 1.139746,0.358789 0.256151,0.239624 0.384571,0.591086 0.384571,1.053809 0,0.437933 -0.123793,0.771958 -0.37168,1.00332 -0.247887,0.223098 -0.611084,0.335155 -1.090332,0.335155 h -1.834766 z m -15.704003,0.01182 h 1.351367 c 0.950235,0 1.664892,0.284937 2.144141,0.855078 0.487511,0.561878 0.731543,1.404955 0.731543,2.528711 0,1.115492 -0.239404,1.95857 -0.718652,2.528711 C 9.255908,19.585863 8.544804,19.8708 7.6028321,19.8708 H 6.226758 Z m 15.704003,3.804882 h 2.267677 c 1.016337,0 1.525389,0.496244 1.52539,1.487793 0,0.487513 -0.124866,0.858889 -0.372754,1.115039 -0.247888,0.247888 -0.611083,0.37168 -1.090332,0.37168 h -2.329981 z" /></svg>
