<?xml version="1.0" encoding="UTF-8" standalone="no"?>
<!-- Created with Inkscape (http://www.inkscape.org/) -->

<svg
   width="32"
   height="32"
   viewBox="0 0 32 32"
   version="1.1"
   id="svg371"
   xml:space="preserve"
   inkscape:version="1.2.2 (1:1.2.2+202305151914+b0a8486541)"
   sodipodi:docname="application-x-plasma.svg"
   xmlns:inkscape="http://www.inkscape.org/namespaces/inkscape"
   xmlns:sodipodi="http://sodipodi.sourceforge.net/DTD/sodipodi-0.dtd"
   xmlns:xlink="http://www.w3.org/1999/xlink"
   xmlns="http://www.w3.org/2000/svg"
   xmlns:svg="http://www.w3.org/2000/svg"><sodipodi:namedview
     id="namedview373"
     pagecolor="#ffffff"
     bordercolor="#000000"
     borderopacity="0.25"
     inkscape:showpageshadow="2"
     inkscape:pageopacity="0.0"
     inkscape:pagecheckerboard="0"
     inkscape:deskcolor="#d1d1d1"
     inkscape:document-units="px"
     showgrid="false"
     inkscape:zoom="25.1875"
     inkscape:cx="16"
     inkscape:cy="16"
     inkscape:window-width="1920"
     inkscape:window-height="1008"
     inkscape:window-x="0"
     inkscape:window-y="0"
     inkscape:window-maximized="1"
     inkscape:current-layer="svg371"
     showguides="true" /><defs
     id="defs368"><linearGradient
       inkscape:collect="always"
       xlink:href="#linearGradient3519"
       id="linearGradient3040"
       x1="32"
       y1="62"
       x2="32"
       y2="2"
       gradientUnits="userSpaceOnUse"
       gradientTransform="scale(0.5)" /><linearGradient
       inkscape:collect="always"
       id="linearGradient3519"><stop
         style="stop-color:#e4e4e4;stop-opacity:1;"
         offset="0"
         id="stop3515" /><stop
         style="stop-color:#f1f1f1;stop-opacity:1;"
         offset="1"
         id="stop3517" /></linearGradient><linearGradient
       inkscape:collect="always"
       xlink:href="#linearGradient933"
       id="linearGradient5025"
       x1="32"
       y1="62"
       x2="32"
       y2="2.0000007"
       gradientUnits="userSpaceOnUse"
       gradientTransform="scale(0.5)" /><linearGradient
       inkscape:collect="always"
       id="linearGradient933"><stop
         style="stop-color:#2092e9;stop-opacity:1;"
         offset="0"
         id="stop929" /><stop
         style="stop-color:#1ebee9;stop-opacity:1;"
         offset="1"
         id="stop931" /></linearGradient></defs><path
     d="m 1.0000001,16 c 0,-11.2499997 3.75,-14.9999997 14.9999999,-14.9999997 11.25,0 15,3.75 15,14.9999997 C 31,27.25 27.25,31 16,31 4.7500001,31 1.0000001,27.25 1.0000001,16"
     style="fill:url(#linearGradient3040);fill-opacity:1;stroke-width:0.15"
     id="path311" /><path
     id="path360"
     style="fill:url(#linearGradient5025);fill-opacity:1;stroke-width:1"
     d="m 11,6.0000001 c -0.830999,0 -1.4999999,0.669001 -1.4999999,1.5 0,0.830999 0.6690009,1.5 1.4999999,1.5 0.830999,0 1.5,-0.669001 1.5,-1.5 0,-0.830999 -0.669001,-1.5 -1.5,-1.5 z m 7.857422,0 L 16,8.7998051 20.286133,13 16,17.200195 18.857422,20 26,13 Z M 7.7500001,14 c -0.969492,0 -1.75,0.780494 -1.75,1.75 0,0.969492 0.780508,1.75 1.75,1.75 0.969506,0 1.75,-0.780508 1.75,-1.75 0,-0.969506 -0.780494,-1.75 -1.75,-1.75 z M 13.5,21 C 12.115002,21 11,22.115001 11,23.5 11,24.884999 12.115002,26 13.5,26 14.884999,26 16,24.884999 16,23.5 16,22.115001 14.884999,21 13.5,21 Z" /></svg>
