<?xml version="1.0" encoding="UTF-8" standalone="no"?>
<!-- Created with Inkscape (http://www.inkscape.org/) -->

<svg
   width="32"
   height="32"
   viewBox="0 0 32 32"
   version="1.1"
   id="svg371"
   xml:space="preserve"
   inkscape:version="1.2.2 (1:1.2.2+202305151914+b0a8486541)"
   sodipodi:docname="application-x-iso9660-appimage.svg"
   xmlns:inkscape="http://www.inkscape.org/namespaces/inkscape"
   xmlns:sodipodi="http://sodipodi.sourceforge.net/DTD/sodipodi-0.dtd"
   xmlns:xlink="http://www.w3.org/1999/xlink"
   xmlns="http://www.w3.org/2000/svg"
   xmlns:svg="http://www.w3.org/2000/svg"><sodipodi:namedview
     id="namedview373"
     pagecolor="#ffffff"
     bordercolor="#000000"
     borderopacity="0.25"
     inkscape:showpageshadow="2"
     inkscape:pageopacity="0.0"
     inkscape:pagecheckerboard="0"
     inkscape:deskcolor="#d1d1d1"
     inkscape:document-units="px"
     showgrid="false"
     inkscape:zoom="25.1875"
     inkscape:cx="15.980149"
     inkscape:cy="16"
     inkscape:window-width="1920"
     inkscape:window-height="1008"
     inkscape:window-x="0"
     inkscape:window-y="0"
     inkscape:window-maximized="1"
     inkscape:current-layer="svg371"
     showguides="true" /><defs
     id="defs368"><linearGradient
       inkscape:collect="always"
       xlink:href="#linearGradient3519"
       id="linearGradient3040"
       x1="32"
       y1="62"
       x2="32"
       y2="2"
       gradientUnits="userSpaceOnUse"
       gradientTransform="scale(0.5)" /><linearGradient
       inkscape:collect="always"
       id="linearGradient3519"><stop
         style="stop-color:#e4e4e4;stop-opacity:1;"
         offset="0"
         id="stop3515" /><stop
         style="stop-color:#f1f1f1;stop-opacity:1;"
         offset="1"
         id="stop3517" /></linearGradient><linearGradient
       inkscape:collect="always"
       xlink:href="#linearGradient3251"
       id="linearGradient1452"
       x1="24"
       y1="46"
       x2="24"
       y2="2"
       gradientUnits="userSpaceOnUse"
       gradientTransform="matrix(0.71428571,0,0,0.71428571,-1.1428584,-1.1428571)" /><linearGradient
       inkscape:collect="always"
       id="linearGradient3251"><stop
         style="stop-color:#1365de;stop-opacity:1;"
         offset="0"
         id="stop3247" /><stop
         style="stop-color:#1e87e9;stop-opacity:1;"
         offset="1"
         id="stop3249" /></linearGradient></defs><path
     d="M 1,16 C 1,4.75 4.75,1 16,1 27.25,1 31,4.75 31,16 31,27.25 27.25,31 16,31 4.75,31 1,27.25 1,16"
     style="fill:url(#linearGradient3040);fill-opacity:1;stroke-width:0.15"
     id="path311" /><path
     id="path1179"
     style="fill:url(#linearGradient1452);fill-opacity:1;stroke-width:2.5;stroke-linecap:round;stroke-linejoin:round"
     d="m 14.749999,6 c -0.692497,0 -1.104901,0.5728727 -1.25,1.25 L 12.808035,10.472656 9.6718725,9.4598214 C 9.0292125,9.2018643 8.3105325,9.3176928 7.9642843,9.91741 l -1.25,2.165178 c -0.3462482,0.599722 -0.056273,1.243369 0.4575882,1.70759 L 9.6188597,16 7.1718734,18.209822 c -0.5138582,0.464222 -0.8038373,1.107868 -0.4575882,1.70759 l 1.2499991,2.165176 c 0.3462482,0.599724 1.06493,0.715547 1.7075882,0.45759 L 12.808035,21.527344 13.499999,24.75 c 0.09794,0.685537 0.557503,1.25 1.25,1.25 h 2.5 c 0.6925,0 1.104901,-0.572875 1.25,-1.25 l 0.691964,-3.222656 3.136162,1.012834 c 0.642657,0.257957 1.36134,0.142144 1.707588,-0.45759 l 1.250001,-2.165176 c 0.34625,-0.599722 0.05628,-1.243368 -0.457589,-1.70759 L 22.381138,16 24.828125,13.790178 c 0.51386,-0.464221 0.803839,-1.107868 0.457589,-1.70759 L 24.035713,9.91741 C 23.689465,9.31769 22.970783,9.2018643 22.328125,9.4598214 L 19.191963,10.472656 18.499999,7.25 C 18.402059,6.5644613 17.942499,6 17.249999,6 Z"
     sodipodi:nodetypes="scccccccccccccsscccccccccccccss" /><path
     id="rect1147"
     style="fill:#d4e2fc;fill-opacity:1;stroke-width:1.10422;stroke-linecap:round"
     d="m 16,11 c 0.554,0 1,0.446 1,1 v 5 h 3 l -4,4 -4,-4 h 3 v -5 c 0,-0.554 0.446,-1 1,-1 z"
     sodipodi:nodetypes="sscccccss" /></svg>
