<?xml version="1.0" encoding="UTF-8" standalone="no"?>
<!-- Created with Inkscape (http://www.inkscape.org/) -->

<svg
   width="32"
   height="32"
   viewBox="0 0 32 32"
   version="1.1"
   id="svg371"
   xml:space="preserve"
   inkscape:version="1.3 (0e150ed6c4, 2023-07-21)"
   sodipodi:docname="application-x-desktop.svg"
   xmlns:inkscape="http://www.inkscape.org/namespaces/inkscape"
   xmlns:sodipodi="http://sodipodi.sourceforge.net/DTD/sodipodi-0.dtd"
   xmlns:xlink="http://www.w3.org/1999/xlink"
   xmlns="http://www.w3.org/2000/svg"
   xmlns:svg="http://www.w3.org/2000/svg"><sodipodi:namedview
     id="namedview373"
     pagecolor="#ffffff"
     bordercolor="#000000"
     borderopacity="0.25"
     inkscape:showpageshadow="2"
     inkscape:pageopacity="0.0"
     inkscape:pagecheckerboard="0"
     inkscape:deskcolor="#d1d1d1"
     inkscape:document-units="px"
     showgrid="false"
     inkscape:zoom="24.875"
     inkscape:cx="15.979899"
     inkscape:cy="16"
     inkscape:window-width="1920"
     inkscape:window-height="1000"
     inkscape:window-x="0"
     inkscape:window-y="0"
     inkscape:window-maximized="1"
     inkscape:current-layer="svg371"
     showguides="true" /><defs
     id="defs368"><linearGradient
       inkscape:collect="always"
       xlink:href="#linearGradient3519"
       id="linearGradient3040"
       x1="32"
       y1="62"
       x2="32"
       y2="2"
       gradientUnits="userSpaceOnUse"
       gradientTransform="scale(0.5)" /><linearGradient
       inkscape:collect="always"
       id="linearGradient3519"><stop
         style="stop-color:#e4e4e4;stop-opacity:1;"
         offset="0"
         id="stop3515" /><stop
         style="stop-color:#f1f1f1;stop-opacity:1;"
         offset="1"
         id="stop3517" /></linearGradient></defs><path
     d="M 1,16 C 1,4.75 4.75,1 16,1 27.25,1 31,4.75 31,16 31,27.25 27.25,31 16,31 4.75,31 1,27.25 1,16"
     style="fill:url(#linearGradient3040);fill-opacity:1;stroke-width:0.15"
     id="path311" /><path
     id="path1179"
     style="fill:#8e8e8e;fill-opacity:1;stroke-width:2.5;stroke-linecap:round;stroke-linejoin:round"
     d="M 14.75 6 C 14.057504 6 13.645099 6.5728734 13.5 7.25 L 12.808594 10.472656 L 9.671875 9.4589844 C 9.0292156 9.2010275 8.3110916 9.3182521 7.9648438 9.9179688 L 6.7148438 12.082031 C 6.3685959 12.681753 6.6580143 13.326795 7.171875 13.791016 L 9.6191406 16 L 7.171875 18.208984 C 6.6580173 18.673206 6.368595 19.318247 6.7148438 19.917969 L 7.9648438 22.082031 C 8.3110916 22.681755 9.0292174 22.798972 9.671875 22.541016 L 12.808594 21.527344 L 13.5 24.75 C 13.59794 25.435536 14.057504 26 14.75 26 L 17.25 26 C 17.942499 26 18.354901 25.427124 18.5 24.75 L 19.191406 21.527344 L 22.328125 22.541016 C 22.970781 22.798972 23.688909 22.681765 24.035156 22.082031 L 25.285156 19.917969 C 25.631406 19.318247 25.341993 18.673206 24.828125 18.208984 L 22.380859 16 L 24.828125 13.791016 C 25.341984 13.326795 25.631406 12.681753 25.285156 12.082031 L 24.035156 9.9179688 C 23.688909 9.3182493 22.970782 9.2010275 22.328125 9.4589844 L 19.191406 10.472656 L 18.5 7.25 C 18.40206 6.564462 17.942499 6 17.25 6 L 14.75 6 z M 16 12 A 4 4 0 0 1 20 16 A 4 4 0 0 1 16 20 A 4 4 0 0 1 12 16 A 4 4 0 0 1 16 12 z " /></svg>
