<?xml version="1.0" encoding="UTF-8" standalone="no"?>
<!-- Created with Inkscape (http://www.inkscape.org/) -->

<svg
   width="32"
   height="32"
   viewBox="0 0 32 32"
   version="1.1"
   id="svg371"
   xml:space="preserve"
   inkscape:version="1.2.2 (1:1.2.2+202305151914+b0a8486541)"
   sodipodi:docname="font-x-generic.svg"
   xmlns:inkscape="http://www.inkscape.org/namespaces/inkscape"
   xmlns:sodipodi="http://sodipodi.sourceforge.net/DTD/sodipodi-0.dtd"
   xmlns:xlink="http://www.w3.org/1999/xlink"
   xmlns="http://www.w3.org/2000/svg"
   xmlns:svg="http://www.w3.org/2000/svg"><sodipodi:namedview
     id="namedview373"
     pagecolor="#ffffff"
     bordercolor="#000000"
     borderopacity="0.25"
     inkscape:showpageshadow="2"
     inkscape:pageopacity="0.0"
     inkscape:pagecheckerboard="0"
     inkscape:deskcolor="#d1d1d1"
     inkscape:document-units="px"
     showgrid="false"
     inkscape:zoom="25.1875"
     inkscape:cx="16"
     inkscape:cy="16"
     inkscape:window-width="1920"
     inkscape:window-height="1008"
     inkscape:window-x="0"
     inkscape:window-y="0"
     inkscape:window-maximized="1"
     inkscape:current-layer="svg371"
     showguides="true" /><defs
     id="defs368"><linearGradient
       inkscape:collect="always"
       xlink:href="#linearGradient3519"
       id="linearGradient3040"
       x1="32"
       y1="62"
       x2="32"
       y2="2"
       gradientUnits="userSpaceOnUse"
       gradientTransform="scale(0.5)" /><linearGradient
       inkscape:collect="always"
       id="linearGradient3519"><stop
         style="stop-color:#e4e4e4;stop-opacity:1;"
         offset="0"
         id="stop3515" /><stop
         style="stop-color:#f1f1f1;stop-opacity:1;"
         offset="1"
         id="stop3517" /></linearGradient></defs><path
     d="M 1,16 C 1,4.75 4.75,1 16,1 27.25,1 31,4.75 31,16 31,27.25 27.25,31 16,31 4.75,31 1,27.25 1,16"
     style="fill:url(#linearGradient3040);fill-opacity:1;stroke-width:0.15"
     id="path311" /><path
     d="M 10.75,9 6,22.375 h 1.6376955 l 1.1875,-3.549804 H 14.34961 l 1.21289,3.5625 h 1.662109 L 12.47461,9 Z m 0.836914,1.625 2.300782,6.837891 H 9.299805 Z m 10.825195,1.600586 c -1.0375,0 -1.999414,0.2375 -2.899414,0.687501 l 0.386719,1.237304 c 0.725,-0.3375 1.500195,-0.512695 2.325195,-0.512695 0.75,0 1.325391,0.150586 1.712891,0.475585 0.3875,0.3125 0.586914,0.786914 0.586914,1.399415 v 0.65039 c -2.05,0.0125 -3.561914,0.299609 -4.524414,0.84961 -0.9625,0.5625 -1.4375,1.424804 -1.4375,2.612304 0,0.925 0.275,1.663282 0.8125,2.175781 0.5375,0.5125 1.299609,0.774415 2.287109,0.774415 1.3375,0 2.338086,-0.486914 2.975586,-1.461915 V 22.375 H 26 v -6.987304 c 0,-1.0375 -0.313086,-1.824805 -0.975586,-2.362305 -0.6625,-0.537501 -1.524804,-0.799805 -2.612305,-0.799805 z m 2.112305,5.125 V 20.0625 c -0.3625,0.4 -0.749609,0.687696 -1.162109,0.887696 -0.4125,0.1875 -0.875,0.288085 -1.375,0.288085 -0.6375,0 -1.125196,-0.149999 -1.450196,-0.4375 -0.325,-0.2875 -0.487304,-0.725585 -0.487304,-1.288085 0,-0.737501 0.36289,-1.275 1.08789,-1.625 0.7125,-0.350001 1.849219,-0.52461 3.386719,-0.53711 z"
     style="fill:#808080;fill-opacity:1;stroke-width:1.5;stroke-linecap:round;stroke-linejoin:round"
     id="path2581" /></svg>
