<?xml version="1.0" encoding="UTF-8" standalone="no"?>
<!-- Created with Inkscape (http://www.inkscape.org/) -->

<svg
   width="32"
   height="32"
   viewBox="0 0 32 32"
   version="1.1"
   id="svg371"
   xml:space="preserve"
   inkscape:version="1.3 (0e150ed6c4, 2023-07-21)"
   sodipodi:docname="package-x-generic.svg"
   xmlns:inkscape="http://www.inkscape.org/namespaces/inkscape"
   xmlns:sodipodi="http://sodipodi.sourceforge.net/DTD/sodipodi-0.dtd"
   xmlns:xlink="http://www.w3.org/1999/xlink"
   xmlns="http://www.w3.org/2000/svg"
   xmlns:svg="http://www.w3.org/2000/svg"><sodipodi:namedview
     id="namedview373"
     pagecolor="#ffffff"
     bordercolor="#000000"
     borderopacity="0.25"
     inkscape:showpageshadow="2"
     inkscape:pageopacity="0.0"
     inkscape:pagecheckerboard="0"
     inkscape:deskcolor="#d1d1d1"
     inkscape:document-units="px"
     showgrid="false"
     inkscape:zoom="24.875"
     inkscape:cx="15.979899"
     inkscape:cy="16"
     inkscape:window-width="1920"
     inkscape:window-height="1000"
     inkscape:window-x="0"
     inkscape:window-y="0"
     inkscape:window-maximized="1"
     inkscape:current-layer="svg371"
     showguides="false" /><defs
     id="defs368"><linearGradient
       inkscape:collect="always"
       xlink:href="#linearGradient3519"
       id="linearGradient3251"
       x1="16"
       y1="31"
       x2="16"
       y2="1"
       gradientUnits="userSpaceOnUse" /><linearGradient
       inkscape:collect="always"
       xlink:href="#linearGradient3519"
       id="linearGradient1012"
       x1="16"
       y1="31"
       x2="16"
       y2="1"
       gradientUnits="userSpaceOnUse" /><linearGradient
       inkscape:collect="always"
       id="linearGradient1836"><stop
         style="stop-color:#f69000;stop-opacity:1;"
         offset="0"
         id="stop1832" /><stop
         style="stop-color:#f9a900;stop-opacity:1;"
         offset="1"
         id="stop1834" /></linearGradient><linearGradient
       inkscape:collect="always"
       xlink:href="#linearGradient1836"
       id="linearGradient4"
       x1="6"
       y1="25"
       x2="6"
       y2="7"
       gradientUnits="userSpaceOnUse" /><linearGradient
       inkscape:collect="always"
       id="linearGradient3519"><stop
         style="stop-color:#e4e4e4;stop-opacity:1;"
         offset="0"
         id="stop3515" /><stop
         style="stop-color:#f1f1f1;stop-opacity:1;"
         offset="1"
         id="stop3517" /></linearGradient></defs><path
     d="M 1,16 C 1,4.75 4.75,1 16,1 27.25,1 31,4.75 31,16 31,27.25 27.25,31 16,31 4.75,31 1,27.25 1,16"
     style="fill:url(#linearGradient3251);fill-opacity:1.0;stroke-width:0.15"
     id="path311" /><path
     id="path294"
     style="opacity:1;fill:url(#linearGradient4);fill-opacity:1;stroke-width:2;stroke-linecap:round;stroke-linejoin:round"
     d="M 7.5,7 C 6.6690008,7 6,7.6690008 6,8.5 V 23 c 0,1.107999 0.8920011,2 2,2 h 16 c 1.107999,0 2,-0.892001 2,-2 V 12 c 0,-1.107999 -0.892001,-2 -2,-2 H 16 V 8.5 C 16,7.6690008 15.330999,7 14.5,7 Z"
     sodipodi:nodetypes="sssssssscsss" /><path
     id="path345"
     style="fill:url(#linearGradient1012);fill-opacity:1.0;stroke-width:0.75"
     d="M 9.5,6 C 8.6715729,6 8,6.6715729 8,7.5 8,8.3284271 8.6715729,9 9.5,9 10.328427,9 11,8.3284271 11,7.5 11,6.6715729 10.328427,6 9.5,6 Z m 0,4 C 8.6715729,10 8,10.671573 8,11.5 8,12.328427 8.6715729,13 9.5,13 10.328427,13 11,12.328427 11,11.5 11,10.671573 10.328427,10 9.5,10 Z m 0,4 C 8.6715729,14 8,14.671573 8,15.5 8,16.328427 8.6715729,17 9.5,17 10.328427,17 11,16.328427 11,15.5 11,14.671573 10.328427,14 9.5,14 Z m 0,4 C 8.6715729,18 8,18.671573 8,19.5 8,20.328427 8.6715729,21 9.5,21 10.328427,21 11,20.328427 11,19.5 11,18.671573 10.328427,18 9.5,18 Z"
     sodipodi:nodetypes="ssssssssssssssssssss" /></svg>
