<?xml version="1.0" encoding="UTF-8" standalone="no"?>
<svg
   viewbox="0 0 200 200"
   version="1.1"
   id="svg4"
   sodipodi:docname="cs-applets.svg"
   width="64"
   height="64"
   inkscape:version="1.2.2 (1:1.2.2+202212051552+b0a8486541)"
   xmlns:inkscape="http://www.inkscape.org/namespaces/inkscape"
   xmlns:sodipodi="http://sodipodi.sourceforge.net/DTD/sodipodi-0.dtd"
   xmlns="http://www.w3.org/2000/svg"
   xmlns:svg="http://www.w3.org/2000/svg">
  <defs
     id="defs8" />
  <sodipodi:namedview
     id="namedview6"
     pagecolor="#ffffff"
     bordercolor="#666666"
     borderopacity="1.0"
     inkscape:pageshadow="2"
     inkscape:pageopacity="0.0"
     inkscape:pagecheckerboard="0"
     showgrid="false"
     inkscape:zoom="12.65625"
     inkscape:cx="31.960494"
     inkscape:cy="32"
     inkscape:window-width="1920"
     inkscape:window-height="1012"
     inkscape:window-x="0"
     inkscape:window-y="0"
     inkscape:window-maximized="1"
     inkscape:current-layer="svg4"
     showguides="false"
     inkscape:showpageshadow="2"
     inkscape:deskcolor="#d1d1d1" />
  <path
     d="M 2,32 C 2,9.4999997 9.5,2 32,2 54.5,2 62,9.4999997 62,32 62,54.5 54.5,62 32,62 9.5,62 2,54.5 2,32"
     style="fill:#28b9d8;fill-opacity:1;stroke-width:0.3"
     id="path311" />
  <path
     id="rect840"
     style="fill:#ffffff;stroke:none;stroke-width:1.41421;stroke-linecap:round;stroke-linejoin:round"
     d="M 14 32 C 12.338002 32 11 33.338002 11 35 L 11 37 C 11 38.661998 12.338002 40 14 40 L 16 40 C 17.661998 40 19 38.661998 19 37 L 19 35 C 19 33.338002 17.661998 32 16 32 L 14 32 z M 25 32 C 23.338002 32 22 33.338002 22 35 L 22 37 C 22 38.661998 23.338002 40 25 40 L 27 40 C 28.661998 40 30 38.661998 30 37 L 30 35 C 30 33.338002 28.661998 32 27 32 L 25 32 z M 36 32 C 34.338002 32 33 33.338002 33 35 L 33 37 C 33 38.661998 34.338002 40 36 40 L 38 40 C 39.661998 40 41 38.661998 41 37 L 41 35 C 41 33.338002 39.661998 32 38 32 L 36 32 z M 47 32 C 45.338002 32 44 33.338002 44 35 L 44 37 C 44 38.661998 45.338002 40 47 40 L 49 40 C 50.661998 40 52 38.661998 52 37 L 52 35 C 52 33.338002 50.661998 32 49 32 L 47 32 z M 14 44 C 12.892001 44 12 44.892001 12 46 C 12 47.107999 12.892001 48 14 48 L 50 48 C 51.107999 48 52 47.107999 52 46 C 52 44.892001 51.107999 44 50 44 L 14 44 z " />
</svg>
