<?xml version="1.0" encoding="UTF-8" standalone="no"?>
<!-- Created with Inkscape (http://www.inkscape.org/) -->

<svg
   width="64"
   height="64"
   viewBox="0 0 64 64"
   version="1.1"
   id="svg371"
   xml:space="preserve"
   inkscape:version="1.2.2 (1:1.2.2+202305151914+b0a8486541)"
   sodipodi:docname="preferences-devices-printer.svg"
   xmlns:inkscape="http://www.inkscape.org/namespaces/inkscape"
   xmlns:sodipodi="http://sodipodi.sourceforge.net/DTD/sodipodi-0.dtd"
   xmlns="http://www.w3.org/2000/svg"
   xmlns:svg="http://www.w3.org/2000/svg"><sodipodi:namedview
     id="namedview373"
     pagecolor="#ffffff"
     bordercolor="#000000"
     borderopacity="0.25"
     inkscape:showpageshadow="2"
     inkscape:pageopacity="0.0"
     inkscape:pagecheckerboard="0"
     inkscape:deskcolor="#d1d1d1"
     inkscape:document-units="px"
     showgrid="false"
     inkscape:zoom="12.59375"
     inkscape:cx="31.960298"
     inkscape:cy="32"
     inkscape:window-width="1920"
     inkscape:window-height="1008"
     inkscape:window-x="0"
     inkscape:window-y="0"
     inkscape:window-maximized="1"
     inkscape:current-layer="svg371"
     showguides="true" /><defs
     id="defs368" /><path
     d="M 2,32 C 2,9.5 9.5,2 32,2 54.5,2 62,9.5 62,32 62,54.5 54.5,62 32,62 9.5,62 2,54.5 2,32"
     style="fill:#5098ee;fill-opacity:1;stroke-width:0.3"
     id="path311" /><path
     id="rect342"
     style="fill:#ffffff;fill-opacity:1;stroke-width:2"
     d="M 24 12 C 20.676009 12 18 14.676009 18 18 L 18 30 L 46 30 L 46 26 L 40 26 C 39.736901 26 39.472966 25.979942 39.208984 25.943359 A 8 8 0 0 1 32.056641 18.791016 C 32.020058 18.527034 32 18.263099 32 18 L 32 12 L 24 12 z " /><path
     id="rect481"
     style="fill:#ffffff;fill-opacity:1;stroke-width:1.16667"
     d="m 40,24 h 6 L 34,12 v 6 c 0,3.324 2.676,6 6,6 z"
     sodipodi:nodetypes="sccss" /><path
     id="rect392"
     style="fill:#ffffff;stroke-width:4;stroke-linecap:round;stroke-linejoin:round"
     d="M 18 32 C 14.676003 32 12 34.676003 12 38 L 12 46 C 12 49.323997 14.676003 52 18 52 L 46 52 C 49.323997 52 52 49.323997 52 46 L 52 38 C 52 34.676003 49.323997 32 46 32 L 18 32 z M 18 44 L 46 44 C 47.107999 44 48 44.892001 48 46 C 48 47.107999 47.107999 48 46 48 L 18 48 C 16.892001 48 16 47.107999 16 46 C 16 44.892001 16.892001 44 18 44 z " /></svg>
