<?xml version="1.0" encoding="UTF-8" standalone="no"?>
<svg
   viewbox="0 0 200 200"
   version="1.1"
   id="svg4"
   sodipodi:docname="preferences-system-sound.svg"
   width="64"
   height="64"
   inkscape:version="1.2.2 (1:1.2.2+202212051552+b0a8486541)"
   xmlns:inkscape="http://www.inkscape.org/namespaces/inkscape"
   xmlns:sodipodi="http://sodipodi.sourceforge.net/DTD/sodipodi-0.dtd"
   xmlns="http://www.w3.org/2000/svg"
   xmlns:svg="http://www.w3.org/2000/svg">
  <defs
     id="defs8" />
  <sodipodi:namedview
     id="namedview6"
     pagecolor="#ffffff"
     bordercolor="#666666"
     borderopacity="1.0"
     inkscape:pageshadow="2"
     inkscape:pageopacity="0.0"
     inkscape:pagecheckerboard="0"
     showgrid="false"
     inkscape:zoom="12.65625"
     inkscape:cx="32"
     inkscape:cy="32"
     inkscape:window-width="1920"
     inkscape:window-height="1012"
     inkscape:window-x="0"
     inkscape:window-y="0"
     inkscape:window-maximized="1"
     inkscape:current-layer="svg4"
     showguides="false"
     inkscape:showpageshadow="2"
     inkscape:deskcolor="#d1d1d1" />
  <path
     d="M 2,32 C 2,9.4999996 9.5,2 32,2 54.5,2 62,9.4999996 62,32 62,54.5 54.5,62 32,62 9.5,62 2,54.5 2,32"
     style="fill:#7783fa;fill-opacity:1;stroke-width:0.3"
     id="path311" />
  <path
     id="path1143"
     style="color:#000000;fill:#ffffff;stroke:none;stroke-width:2;stroke-linecap:round;stroke-linejoin:round;-inkscape-stroke:none"
     d="M 31.097656 16.003906 C 30.799691 15.974966 30.504407 16.081037 30.292969 16.292969 L 22.359375 24 L 16 24 C 13.784006 24 12 25.784006 12 28 L 12 36 C 12 38.215994 13.784006 40 16 40 L 22.359375 40 L 30.292969 47.707031 C 30.922944 48.336565 31.999652 47.890609 32 47 L 32 17 C 31.999974 16.595609 31.75639 16.232955 31.382812 16.078125 C 31.291853 16.040115 31.195742 16.013806 31.097656 16.003906 z M 45.082031 17.417969 A 1.5 1.5 0 0 0 44.021484 17.857422 A 1.5 1.5 0 0 0 44.021484 19.978516 C 47.210004 23.167034 49 27.490753 49 32 C 49 36.509247 47.210004 40.832966 44.021484 44.021484 A 1.5 1.5 0 0 0 44.021484 46.142578 A 1.5 1.5 0 0 0 46.142578 46.142578 C 49.89289 42.392266 52 37.303743 52 32 C 52 26.696256 49.892891 21.607734 46.142578 17.857422 A 1.5 1.5 0 0 0 45.082031 17.417969 z M 38.191406 23.095703 A 1.5 1.5 0 0 0 37.365234 23.515625 A 1.5 1.5 0 0 0 37.365234 25.636719 C 39.053467 27.32495 40 29.61248 40 32 C 40 34.38752 39.053467 36.67505 37.365234 38.363281 A 1.5 1.5 0 0 0 37.365234 40.484375 A 1.5 1.5 0 0 0 39.486328 40.484375 C 41.736353 38.23435 43 35.182015 43 32 C 43 28.817984 41.736353 25.76565 39.486328 23.515625 A 1.5 1.5 0 0 0 38.191406 23.095703 z " />
</svg>
