<?xml version="1.0" encoding="UTF-8" standalone="no"?>
<!-- Created with Inkscape (http://www.inkscape.org/) -->

<svg
   width="64"
   height="64"
   viewBox="0 0 64 64"
   version="1.1"
   id="svg371"
   xml:space="preserve"
   inkscape:version="1.2.2 (1:1.2.2+202212051552+b0a8486541)"
   sodipodi:docname="preferences-system-users.svg"
   xmlns:inkscape="http://www.inkscape.org/namespaces/inkscape"
   xmlns:sodipodi="http://sodipodi.sourceforge.net/DTD/sodipodi-0.dtd"
   xmlns="http://www.w3.org/2000/svg"
   xmlns:svg="http://www.w3.org/2000/svg"><sodipodi:namedview
     id="namedview373"
     pagecolor="#ffffff"
     bordercolor="#000000"
     borderopacity="0.25"
     inkscape:showpageshadow="2"
     inkscape:pageopacity="0.0"
     inkscape:pagecheckerboard="0"
     inkscape:deskcolor="#d1d1d1"
     inkscape:document-units="px"
     showgrid="false"
     inkscape:zoom="12.65625"
     inkscape:cx="32"
     inkscape:cy="32"
     inkscape:window-width="1920"
     inkscape:window-height="1012"
     inkscape:window-x="0"
     inkscape:window-y="0"
     inkscape:window-maximized="1"
     inkscape:current-layer="svg371"
     showguides="false"
     inkscape:lockguides="true" /><defs
     id="defs368" /><path
     d="M 2,32 C 2,9.5 9.5,2 32,2 54.5,2 62,9.5 62,32 62,54.5 54.5,62 32,62 9.5,62 2,54.5 2,32"
     style="fill:#7999af;fill-opacity:1;stroke-width:0.3"
     id="path311" /><path
     id="path2315"
     style="fill:#ffffff;fill-opacity:1;stroke-width:0.999992"
     d="m 40,14 c -3.313702,0 -6,2.686296 -6,6 0,3.313704 2.686298,6 6,6 3.313706,0 6,-2.686296 6,-6 0,-3.313704 -2.686294,-6 -6,-6 z m -16,8 c -3.313702,0 -6,2.686296 -6,6 0,3.313704 2.686298,6 6,6 3.313706,0 6,-2.686296 6,-6 0,-3.313704 -2.686294,-6 -6,-6 z m 16,8 c -4.107744,0 -7.731396,2.063486 -9.894532,5.210938 3.269684,1.35162 5.993976,3.754738 7.75,6.789062 H 52 C 52,35.372596 46.627404,30 40,30 Z M 24,38 C 17.372591,38 12,43.37259 12,50 H 36 C 36,43.37259 30.62741,38 24,38 Z" /></svg>
