<?xml version="1.0" encoding="UTF-8" standalone="no"?>
<!-- Created with Inkscape (http://www.inkscape.org/) -->

<svg
   width="64"
   height="64"
   viewBox="0 0 64 64"
   version="1.1"
   id="svg371"
   xml:space="preserve"
   inkscape:version="1.2.2 (1:1.2.2+202212051552+b0a8486541)"
   sodipodi:docname="preferences-system-login.svg"
   xmlns:inkscape="http://www.inkscape.org/namespaces/inkscape"
   xmlns:sodipodi="http://sodipodi.sourceforge.net/DTD/sodipodi-0.dtd"
   xmlns="http://www.w3.org/2000/svg"
   xmlns:svg="http://www.w3.org/2000/svg"><sodipodi:namedview
     id="namedview373"
     pagecolor="#ffffff"
     bordercolor="#000000"
     borderopacity="0.25"
     inkscape:showpageshadow="2"
     inkscape:pageopacity="0.0"
     inkscape:pagecheckerboard="0"
     inkscape:deskcolor="#d1d1d1"
     inkscape:document-units="px"
     showgrid="false"
     inkscape:zoom="12.65625"
     inkscape:cx="32"
     inkscape:cy="32"
     inkscape:window-width="1920"
     inkscape:window-height="1012"
     inkscape:window-x="0"
     inkscape:window-y="0"
     inkscape:window-maximized="1"
     inkscape:current-layer="svg371"
     showguides="false"
     inkscape:lockguides="true" /><defs
     id="defs368" /><path
     d="M 2,32 C 2,9.5 9.5,2 32,2 54.5,2 62,9.5 62,32 62,54.5 54.5,62 32,62 9.5,62 2,54.5 2,32"
     style="fill:#7999af;fill-opacity:1;stroke-width:0.3"
     id="path311" /><path
     id="path2315"
     style="fill:#ffffff;fill-opacity:1;stroke-width:0.666662"
     d="m 32,14 c -2.209132,0 -4,1.790866 -4,4 0,2.209134 1.790868,4 4,4 2.209136,0 4,-1.790866 4,-4 0,-2.209134 -1.790864,-4 -4,-4 z m 0,12 C 26.477164,26 22,30.477164 22,36 H 42 C 42,30.477164 37.522836,26 32,26 Z M 14,42 c -1.107998,0 -2,0.892004 -2,2 v 4 c 0,1.107996 0.892002,2 2,2 h 36 c 1.107996,0 2,-0.892004 2,-2 v -4 c 0,-1.107996 -0.892004,-2 -2,-2 z m 2,2 c 1.104566,0 2,0.895438 2,2 0,1.104562 -0.895434,2 -2,2 -1.104562,0 -2,-0.895438 -2,-2 0,-1.104562 0.895438,-2 2,-2 z m 6,0 c 1.104564,0 2,0.895438 2,2 0,1.104562 -0.895436,2 -2,2 -1.10456,0 -2,-0.895438 -2,-2 0,-1.104562 0.89544,-2 2,-2 z m 6,0 c 1.104564,0 2,0.895438 2,2 0,1.104562 -0.895436,2 -2,2 -1.10456,0 -2,-0.895438 -2,-2 0,-1.104562 0.89544,-2 2,-2 z m 6,0 c 1.104564,0 2,0.895438 2,2 0,1.104562 -0.895436,2 -2,2 -1.10456,0 -2,-0.895438 -2,-2 0,-1.104562 0.89544,-2 2,-2 z" /></svg>
