<?xml version="1.0" encoding="UTF-8" standalone="no"?>
<svg
   viewbox="0 0 200 200"
   version="1.1"
   id="svg4"
   sodipodi:docname="preferences-desktop-theme-global.svg"
   width="64"
   height="64"
   inkscape:version="1.2.2 (1:1.2.2+202212051552+b0a8486541)"
   xmlns:inkscape="http://www.inkscape.org/namespaces/inkscape"
   xmlns:sodipodi="http://sodipodi.sourceforge.net/DTD/sodipodi-0.dtd"
   xmlns="http://www.w3.org/2000/svg"
   xmlns:svg="http://www.w3.org/2000/svg">
  <defs
     id="defs8" />
  <sodipodi:namedview
     id="namedview6"
     pagecolor="#ffffff"
     bordercolor="#666666"
     borderopacity="1.0"
     inkscape:pageshadow="2"
     inkscape:pageopacity="0.0"
     inkscape:pagecheckerboard="0"
     showgrid="false"
     inkscape:zoom="12.65625"
     inkscape:cx="29.708642"
     inkscape:cy="32"
     inkscape:window-width="1920"
     inkscape:window-height="1012"
     inkscape:window-x="0"
     inkscape:window-y="0"
     inkscape:window-maximized="1"
     inkscape:current-layer="svg4"
     showguides="false"
     inkscape:showpageshadow="2"
     inkscape:deskcolor="#d1d1d1" />
  <path
     d="M 2,32 C 2,9.4999997 9.5,2 32,2 54.5,2 62,9.4999997 62,32 62,54.5 54.5,62 32,62 9.5,62 2,54.5 2,32"
     style="fill:#c47bdf;fill-opacity:1;stroke-width:0.3"
     id="path311" />
  <path
     d="m 14.000004,16.000289 v 10 h 35.999999 v -8 c -1.287428,-0.848265 -2.310176,-2.021397 -8,-2 -6.73251,-0.0082 -10.671525,2.92193 -16,3 -3.483228,-0.0048 -9.111399,-0.549754 -11.999999,-3 z m 0,13 v 9 c -0.0052,2.01307 5.752561,3.262362 9.999999,4 3.114363,0.580373 5.041674,1.569497 5,4.5 -0.01334,0.937741 -0.990489,2.287941 -1,3.5 0,2.209133 1.790867,4 4,4 2.209133,0 4,-1.790867 4,-4 -0.0095,-1.212059 -0.98666,-2.562259 -1,-3.5 -0.04167,-2.930503 1.885637,-3.919627 5,-4.5 4.247438,-0.737638 10.0052,-1.98693 10,-4 v -9 z"
     style="fill:#ffffff"
     id="path598"
     sodipodi:nodetypes="ccccccccccscscccccc" />
</svg>
