<?xml version="1.0" encoding="UTF-8" standalone="no"?>
<svg
   viewbox="0 0 200 200"
   version="1.1"
   id="svg4"
   sodipodi:docname="preferences-desktop-theme-applications.svg"
   width="64"
   height="64"
   inkscape:version="1.2.2 (1:1.2.2+202212051552+b0a8486541)"
   xmlns:inkscape="http://www.inkscape.org/namespaces/inkscape"
   xmlns:sodipodi="http://sodipodi.sourceforge.net/DTD/sodipodi-0.dtd"
   xmlns="http://www.w3.org/2000/svg"
   xmlns:svg="http://www.w3.org/2000/svg">
  <defs
     id="defs8" />
  <sodipodi:namedview
     id="namedview6"
     pagecolor="#ffffff"
     bordercolor="#666666"
     borderopacity="1.0"
     inkscape:pageshadow="2"
     inkscape:pageopacity="0.0"
     inkscape:pagecheckerboard="0"
     showgrid="false"
     inkscape:zoom="12.65625"
     inkscape:cx="32"
     inkscape:cy="32"
     inkscape:window-width="1920"
     inkscape:window-height="1012"
     inkscape:window-x="0"
     inkscape:window-y="0"
     inkscape:window-maximized="1"
     inkscape:current-layer="svg4"
     showguides="false"
     inkscape:showpageshadow="2"
     inkscape:deskcolor="#d1d1d1" />
  <path
     d="M 2,32 C 2,9.4999996 9.5,2 32,2 54.5,2 62,9.4999996 62,32 62,54.5 54.5,62 32,62 9.5,62 2,54.5 2,32"
     style="fill:#c47bdf;fill-opacity:1;stroke-width:0.3"
     id="path311" />
  <path
     id="rect899"
     style="fill:#ffffff;fill-opacity:1;stroke-width:6;stroke-linecap:round;stroke-linejoin:round"
     d="m 42,16 a 6,6 0 0 0 -5.640624,4 H 14 c -1.107999,0 -2,0.892002 -2,2 0,1.107998 0.892001,2 2,2 H 36.359376 A 6,6 0 0 0 42,28 6,6 0 0 0 47.640624,24 H 50 c 1.107998,0 2,-0.892002 2,-2 0,-1.107998 -0.892002,-2 -2,-2 H 47.65625 A 6,6 0 0 0 42,16 Z M 22,36 a 6,6 0 0 0 -5.640625,4 H 14 c -1.107999,0 -2,0.892002 -2,2 0,1.107998 0.892001,2 2,2 h 2.359375 A 6,6 0 0 0 22,48 6,6 0 0 0 27.640624,44 H 50 c 1.107998,0 2,-0.892002 2,-2 0,-1.107998 -0.892002,-2 -2,-2 H 27.65625 A 6,6 0 0 0 22,36 Z" />
</svg>
