<?xml version="1.0" encoding="UTF-8" standalone="no"?>
<!-- Created with Inkscape (http://www.inkscape.org/) -->

<svg
   width="64"
   height="64"
   viewBox="0 0 64 64"
   version="1.1"
   id="svg371"
   xml:space="preserve"
   inkscape:version="1.2.2 (b0a8486541, 2022-12-01)"
   sodipodi:docname="preferences-system-network-ethernet.svg"
   xmlns:inkscape="http://www.inkscape.org/namespaces/inkscape"
   xmlns:sodipodi="http://sodipodi.sourceforge.net/DTD/sodipodi-0.dtd"
   xmlns="http://www.w3.org/2000/svg"
   xmlns:svg="http://www.w3.org/2000/svg"><sodipodi:namedview
     id="namedview373"
     pagecolor="#ffffff"
     bordercolor="#000000"
     borderopacity="0.25"
     inkscape:showpageshadow="2"
     inkscape:pageopacity="0.0"
     inkscape:pagecheckerboard="0"
     inkscape:deskcolor="#d1d1d1"
     inkscape:document-units="px"
     showgrid="false"
     inkscape:zoom="12.34375"
     inkscape:cx="31.959494"
     inkscape:cy="32"
     inkscape:window-width="1920"
     inkscape:window-height="1011"
     inkscape:window-x="0"
     inkscape:window-y="0"
     inkscape:window-maximized="1"
     inkscape:current-layer="svg371"
     showguides="false" /><defs
     id="defs368" /><path
     d="M 2,32 C 2,9.5 9.5,2 32,2 54.5,2 62,9.5 62,32 62,54.5 54.5,62 32,62 9.5,62 2,54.5 2,32"
     style="fill:#54abe9;fill-opacity:1;stroke-width:0.3"
     id="path311" /><path
     id="rect894"
     style="fill:#ffffff;fill-opacity:1;stroke-width:2;stroke-linecap:round;stroke-linejoin:round"
     d="m 20.488282,21.511718 c -0.511239,0 -1.022327,0.198108 -1.414063,0.589844 l -8.488281,8.484376 c -0.7834738,0.783472 -0.7834738,2.044652 0,2.828124 l 8.488281,8.484376 c 0.783473,0.783472 2.044651,0.783472 2.828125,0 0.78347,-0.783472 0.78347,-2.044654 0,-2.828126 L 14.832031,32 21.902344,24.929688 c 0.783472,-0.783472 0.783472,-2.044654 0,-2.828126 -0.391736,-0.391736 -0.902824,-0.589844 -1.414062,-0.589844 z m 23.027342,0 c -0.511236,0 -1.026232,0.198108 -1.417968,0.589844 -0.783472,0.783472 -0.783472,2.044654 0,2.828126 L 49.171876,32 l -7.07422,7.070312 c -0.78347,0.783472 -0.78347,2.044654 0,2.828126 0.783474,0.783472 2.048558,0.783472 2.832032,0 l 8.484374,-8.484376 c 0.783474,-0.783472 0.783474,-2.044652 0,-2.828124 L 44.929688,22.101562 C 44.53795,21.709826 44.026862,21.511718 43.515624,21.511718 Z M 24,30 c -1.107998,0 -2,0.892002 -2,2 0,1.107998 0.892002,2 2,2 h 16 c 1.107998,0 2,-0.892002 2,-2 0,-1.107998 -0.892002,-2 -2,-2 z" /></svg>
