<?xml version="1.0" encoding="UTF-8" standalone="no"?>
<svg
   viewbox="0 0 200 200"
   version="1.1"
   id="svg4"
   sodipodi:docname="preferences-desktop-theme-windowdecorations.svg"
   width="64"
   height="64"
   inkscape:version="1.2.2 (1:1.2.2+202212051552+b0a8486541)"
   xmlns:inkscape="http://www.inkscape.org/namespaces/inkscape"
   xmlns:sodipodi="http://sodipodi.sourceforge.net/DTD/sodipodi-0.dtd"
   xmlns="http://www.w3.org/2000/svg"
   xmlns:svg="http://www.w3.org/2000/svg">
  <defs
     id="defs8" />
  <sodipodi:namedview
     id="namedview6"
     pagecolor="#ffffff"
     bordercolor="#666666"
     borderopacity="1.0"
     inkscape:pageshadow="2"
     inkscape:pageopacity="0.0"
     inkscape:pagecheckerboard="0"
     showgrid="false"
     inkscape:zoom="12.65625"
     inkscape:cx="29.708642"
     inkscape:cy="32"
     inkscape:window-width="1920"
     inkscape:window-height="1012"
     inkscape:window-x="0"
     inkscape:window-y="0"
     inkscape:window-maximized="1"
     inkscape:current-layer="svg4"
     showguides="false"
     inkscape:showpageshadow="2"
     inkscape:deskcolor="#d1d1d1" />
  <path
     d="M 2,32 C 2,9.4999996 9.5,2 32,2 54.5,2 62,9.4999996 62,32 62,54.5 54.5,62 32,62 9.5,62 2,54.5 2,32"
     style="fill:#c47bdf;fill-opacity:1;stroke-width:0.3"
     id="path311" />
  <path
     id="rect2476"
     style="fill:#f9f9f9;fill-opacity:1;stroke-width:4;stroke-linecap:round;stroke-linejoin:round"
     d="m 16,16 a 4,4 0 0 0 -4,4 v 22 c 0,3.323992 2.676007,6 6,6 h 28 c 3.323992,0 6,-2.676008 6,-6 V 20 a 4,4 0 0 0 -4,-4 z m 0,6 h 32 c 1.107994,0 2,0.892006 2,2 v 18 c 0,2.215994 -1.784006,4 -4,4 H 18 c -2.215993,0 -4,-1.784006 -4,-4 V 24 c 0,-1.107994 0.892004,-2 2,-2 z" />
</svg>
