<?xml version="1.0" encoding="UTF-8" standalone="no"?>
<!-- Created with Inkscape (http://www.inkscape.org/) -->

<svg
   width="64"
   height="64"
   viewBox="0 0 64 64"
   version="1.1"
   id="svg371"
   xml:space="preserve"
   inkscape:version="1.2.2 (1:1.2.2+202212051552+b0a8486541)"
   sodipodi:docname="preferences-system-language.svg"
   xmlns:inkscape="http://www.inkscape.org/namespaces/inkscape"
   xmlns:sodipodi="http://sodipodi.sourceforge.net/DTD/sodipodi-0.dtd"
   xmlns="http://www.w3.org/2000/svg"
   xmlns:svg="http://www.w3.org/2000/svg"><sodipodi:namedview
     id="namedview373"
     pagecolor="#ffffff"
     bordercolor="#000000"
     borderopacity="0.25"
     inkscape:showpageshadow="2"
     inkscape:pageopacity="0.0"
     inkscape:pagecheckerboard="0"
     inkscape:deskcolor="#d1d1d1"
     inkscape:document-units="px"
     showgrid="false"
     inkscape:zoom="12.65625"
     inkscape:cx="32"
     inkscape:cy="32"
     inkscape:window-width="1920"
     inkscape:window-height="1012"
     inkscape:window-x="0"
     inkscape:window-y="0"
     inkscape:window-maximized="1"
     inkscape:current-layer="svg371"
     showguides="true"
     inkscape:lockguides="true" /><defs
     id="defs368" /><path
     d="M 2,32 C 2,9.5 9.5,2 32,2 54.5,2 62,9.5 62,32 62,54.5 54.5,62 32,62 9.5,62 2,54.5 2,32"
     style="fill:#088d9c;fill-opacity:1;stroke-width:0.3"
     id="path311" /><rect
     style="fill:#61b6bb;fill-opacity:1;stroke-width:4;stroke-linecap:round;stroke-linejoin:round"
     id="rect7209"
     width="22"
     height="22"
     x="30"
     y="30.000002"
     ry="4" /><rect
     style="fill:#ffffff;stroke-width:4;stroke-linecap:round;stroke-linejoin:round"
     id="rect7207"
     width="22"
     height="22"
     x="12"
     y="12"
     ry="4" /><path
     id="rect7152"
     style="fill:#088d9c;fill-opacity:1;stroke-width:4;stroke-linecap:round;stroke-linejoin:round"
     d="m 22,16 -6,14 h 2 l 1.75,-4 H 26 l 2,4 h 2 L 24,16 Z M 23,18.667969 25,24 h -4 z"
     sodipodi:nodetypes="ccccccccccccc" /><path
     id="rect7305"
     style="fill:#ffffff;stroke-width:4;stroke-linecap:round;stroke-linejoin:round"
     d="m 44,33 v 16 h 2 v -8 h 2 v -2 h -2 v -6 z m -10,2 v 2 h 6 c 0,4.418272 -3.042034,6.606864 -6,7 v 2 c 3.768252,-0.502162 8,-3.47716 8,-9 v -2 z"
     sodipodi:nodetypes="ccccccccccccccscc" /></svg>
