<?xml version="1.0" encoding="UTF-8" standalone="no"?>
<!-- Created with Inkscape (http://www.inkscape.org/) -->

<svg
   width="32"
   height="32"
   viewBox="0 0 32 32"
   version="1.1"
   id="svg371"
   xml:space="preserve"
   inkscape:version="1.2.2 (1:1.2.2+202305151914+b0a8486541)"
   sodipodi:docname="network-server.svg"
   xmlns:inkscape="http://www.inkscape.org/namespaces/inkscape"
   xmlns:sodipodi="http://sodipodi.sourceforge.net/DTD/sodipodi-0.dtd"
   xmlns:xlink="http://www.w3.org/1999/xlink"
   xmlns="http://www.w3.org/2000/svg"
   xmlns:svg="http://www.w3.org/2000/svg"><sodipodi:namedview
     id="namedview373"
     pagecolor="#ffffff"
     bordercolor="#000000"
     borderopacity="0.25"
     inkscape:showpageshadow="2"
     inkscape:pageopacity="0.0"
     inkscape:pagecheckerboard="0"
     inkscape:deskcolor="#d1d1d1"
     inkscape:document-units="px"
     showgrid="false"
     inkscape:zoom="25.1875"
     inkscape:cx="16"
     inkscape:cy="16"
     inkscape:window-width="1920"
     inkscape:window-height="1008"
     inkscape:window-x="0"
     inkscape:window-y="0"
     inkscape:window-maximized="1"
     inkscape:current-layer="svg371"
     showguides="false" /><defs
     id="defs368"><linearGradient
       inkscape:collect="always"
       id="linearGradient1223"><stop
         style="stop-color:#fa7490;stop-opacity:1;"
         offset="0"
         id="stop1219" /><stop
         style="stop-color:#fc9caf;stop-opacity:1;"
         offset="1"
         id="stop1221" /></linearGradient><linearGradient
       inkscape:collect="always"
       xlink:href="#linearGradient1223"
       id="linearGradient3040"
       x1="32"
       y1="62"
       x2="32"
       y2="2"
       gradientUnits="userSpaceOnUse"
       gradientTransform="scale(0.5)" /></defs><path
     d="M 1,16 C 1,4.75 4.75,1 16,1 27.25,1 31,4.75 31,16 31,27.25 27.25,31 16,31 4.75,31 1,27.25 1,16"
     style="fill:url(#linearGradient3040);fill-opacity:1;stroke-width:0.15"
     id="path311" /><path
     id="rect3845"
     style="fill:#ffffff;stroke-width:2;stroke-linecap:round;stroke-linejoin:round"
     d="M 9 8 C 7.8920011 8 7 8.8920011 7 10 L 7 13 C 7 14.107999 7.8920011 15 9 15 L 23 15 C 24.107999 15 25 14.107999 25 13 L 25 10 C 25 8.8920011 24.107999 8 23 8 L 9 8 z M 9 17 C 7.8920011 17 7 17.892001 7 19 L 7 22 C 7 23.107999 7.8920011 24 9 24 L 23 24 C 24.107999 24 25 23.107999 25 22 L 25 19 C 25 17.892001 24.107999 17 23 17 L 9 17 z " /><path
     id="path1763"
     style="fill:#ec4366;fill-opacity:1;stroke-width:0.6;stroke-linecap:round"
     d="M 10.5 10 A 1.5 1.5 0 0 0 9 11.5 A 1.5 1.5 0 0 0 10.5 13 A 1.5 1.5 0 0 0 12 11.5 A 1.5 1.5 0 0 0 10.5 10 z M 10.5 19 A 1.5 1.5 0 0 0 9 20.5 A 1.5 1.5 0 0 0 10.5 22 A 1.5 1.5 0 0 0 12 20.5 A 1.5 1.5 0 0 0 10.5 19 z " /></svg>
