<?xml version="1.0" encoding="UTF-8" standalone="no"?>
<!-- Created with Inkscape (http://www.inkscape.org/) -->

<svg
   width="24"
   height="24"
   viewBox="0 0 24 24"
   version="1.1"
   id="svg5"
   inkscape:version="1.3.2 (091e20ef0f, 2023-11-25, custom)"
   sodipodi:docname="audio-volume-high.svg"
   xmlns:inkscape="http://www.inkscape.org/namespaces/inkscape"
   xmlns:sodipodi="http://sodipodi.sourceforge.net/DTD/sodipodi-0.dtd"
   xmlns="http://www.w3.org/2000/svg"
   xmlns:svg="http://www.w3.org/2000/svg">
  <sodipodi:namedview
     id="namedview7"
     pagecolor="#ffffff"
     bordercolor="#000000"
     borderopacity="0.25"
     inkscape:showpageshadow="2"
     inkscape:pageopacity="0.0"
     inkscape:pagecheckerboard="0"
     inkscape:deskcolor="#d1d1d1"
     inkscape:document-units="px"
     showgrid="false"
     inkscape:zoom="33.666667"
     inkscape:cx="12"
     inkscape:cy="12"
     inkscape:window-width="1920"
     inkscape:window-height="1012"
     inkscape:window-x="0"
     inkscape:window-y="0"
     inkscape:window-maximized="1"
     inkscape:current-layer="svg5" />
  <defs
     id="defs2">
    <style
       id="current-color-scheme"
       type="text/css">
        .ColorScheme-Text { color:#4d4d4d; }
        .ColorScheme-Highlight { color:#4285f4; }
        .ColorScheme-NeutralText { color:#ff9800; }
        .ColorScheme-PositiveText { color:#4caf50; }
        .ColorScheme-NegativeText { color:#f44336; }
     </style>
  </defs>
  <path
     id="path463"
     style="fill:currentColor;fill-opacity:1;stroke:none;stroke-width:1.88975"
     class="ColorScheme-Text"
     d="m 16.369141,4.637 c -0.255889,0 -0.511778,0.097758 -0.707032,0.2929687 -0.390422,0.3905058 -0.390422,1.0235567 0,1.4140625 3.132554,3.1325539 3.132554,8.1799448 0,11.3124998 -0.390422,0.390507 -0.390422,1.023559 0,1.414062 0.390507,0.390424 1.023557,0.390424 1.414063,0 C 19.024595,17.12217 20,14.561582 20,12.000281 19.999999,9.4389768 19.024596,6.8783934 17.076172,4.9299687 16.880919,4.7347576 16.625029,4.637 16.369141,4.637 Z M 10.253906,6.0002812 C 10.1057,6.0079461 9.9598776,6.0647039 9.8398438,6.1662968 L 7,9.0002812 H 5 c -0.5539995,0 -1,0.4460005 -1,0.9999998 v 4 c 0,0.553999 0.4460005,1 1,1 h 2 l 2.8398438,2.833984 C 10.308057,18.226512 11.000516,17.877074 11,17.248328 V 6.7483281 C 10.999577,6.4600053 10.841562,6.1970017 10.59375,6.0725468 10.485342,6.0187041 10.369178,5.9943204 10.253906,6.0002812 Z m 3.28711,1.4648438 c -0.255889,0 -0.511779,0.097757 -0.707032,0.2929687 -0.390422,0.3905056 -0.390422,1.0235569 0,1.4140625 1.570465,1.5704638 1.570465,4.0857868 0,5.6562498 -0.390422,0.390507 -0.390422,1.023556 0,1.414063 0.390506,0.390421 1.023557,0.390421 1.414063,0 C 15.415427,15.075088 16,13.537901 16,12.000281 16,10.462661 15.415427,8.9254725 14.248047,7.7580937 14.052794,7.5628824 13.796904,7.465125 13.541016,7.465125 Z" />
</svg>
