<?xml version="1.0" encoding="UTF-8" standalone="no"?>
<!-- Created with Inkscape (http://www.inkscape.org/) -->

<svg
   width="32"
   height="32"
   viewBox="0 0 32 32"
   version="1.1"
   id="svg371"
   xml:space="preserve"
   inkscape:version="1.2 (1:1.2.1+202207142221+cd75a1ee6d)"
   sodipodi:docname="accessories-clock.svg"
   xmlns:inkscape="http://www.inkscape.org/namespaces/inkscape"
   xmlns:sodipodi="http://sodipodi.sourceforge.net/DTD/sodipodi-0.dtd"
   xmlns:xlink="http://www.w3.org/1999/xlink"
   xmlns="http://www.w3.org/2000/svg"
   xmlns:svg="http://www.w3.org/2000/svg"><sodipodi:namedview
     id="namedview373"
     pagecolor="#ffffff"
     bordercolor="#000000"
     borderopacity="0.25"
     inkscape:showpageshadow="2"
     inkscape:pageopacity="0.0"
     inkscape:pagecheckerboard="0"
     inkscape:deskcolor="#d1d1d1"
     inkscape:document-units="px"
     showgrid="false"
     inkscape:zoom="25.78125"
     inkscape:cx="15.980606"
     inkscape:cy="16"
     inkscape:window-width="1920"
     inkscape:window-height="1018"
     inkscape:window-x="0"
     inkscape:window-y="28"
     inkscape:window-maximized="1"
     inkscape:current-layer="svg371"
     showguides="false" /><defs
     id="defs368"><linearGradient
       inkscape:collect="always"
       id="linearGradient16694"><stop
         style="stop-color:#4449bb;stop-opacity:1;"
         offset="0"
         id="stop16690" /><stop
         style="stop-color:#695bc5;stop-opacity:1;"
         offset="1"
         id="stop16692" /></linearGradient><linearGradient
       inkscape:collect="always"
       xlink:href="#linearGradient16694"
       id="linearGradient3040"
       x1="32"
       y1="62"
       x2="32"
       y2="2"
       gradientUnits="userSpaceOnUse"
       gradientTransform="scale(0.5)" /></defs><path
     d="M 1,16 C 1,4.75 4.75,1 16,1 27.25,1 31,4.75 31,16 31,27.25 27.25,31 16,31 4.75,31 1,27.25 1,16"
     style="fill:url(#linearGradient3040);fill-opacity:1.0;stroke-width:0.15"
     id="path311" /><circle
     style="fill:#ffffff;stroke-width:3;stroke-linecap:round;stroke-linejoin:round"
     id="path920"
     cx="16"
     cy="16"
     r="10" /><path
     id="rect1026"
     style="fill:#4233a1;fill-opacity:1;stroke-width:3;stroke-linecap:round;stroke-linejoin:round"
     d="m 16,9 c -0.553999,0 -1,0.4460006 -1,1 V 15.992188 16 c 0,0.0067 0.0018,0.01289 0.002,0.01953 5.17e-4,0.02738 0.0011,0.05479 0.0039,0.08203 0.0028,0.02725 0.0067,0.05508 0.01172,0.08203 0.0052,0.02811 0.01204,0.05677 0.01953,0.08398 0.0013,0.0046 0.0026,0.0091 0.0039,0.01367 0.0085,0.02923 0.01829,0.05789 0.0293,0.08594 0.0081,0.02062 0.016,0.04063 0.02539,0.06055 0.0078,0.01653 0.01664,0.03268 0.02539,0.04883 0.0123,0.0227 0.0249,0.04456 0.03906,0.06641 0.01748,0.02707 0.0367,0.05295 0.05664,0.07813 0.01614,0.02036 0.03313,0.03957 0.05078,0.05859 0.0072,0.0078 0.014,0.01587 0.02148,0.02344 0.0068,0.0069 0.01445,0.01282 0.02149,0.01953 0.01568,0.01496 0.03003,0.03079 0.04687,0.04492 0.0018,0.0015 0.0041,0.0024 0.0059,0.0039 l 4.591617,3.851563 c 0.424388,0.356104 1.052099,0.301341 1.408203,-0.123047 0.356104,-0.424388 0.301342,-1.052099 -0.123047,-1.408203 L 17,15.533203 V 10 C 17,9.4460006 16.553999,9 16,9 Z"
     sodipodi:nodetypes="sscscscscscscscscsccsccss" /></svg>
