<?xml version="1.0" encoding="UTF-8" standalone="no"?>
<!-- Created with Inkscape (http://www.inkscape.org/) -->

<svg
   width="32"
   height="32"
   viewBox="0 0 32 32"
   version="1.1"
   id="svg371"
   xml:space="preserve"
   inkscape:version="1.2.2 (1:1.2.2+202305151914+b0a8486541)"
   sodipodi:docname="applications-multimedia.svg"
   xmlns:inkscape="http://www.inkscape.org/namespaces/inkscape"
   xmlns:sodipodi="http://sodipodi.sourceforge.net/DTD/sodipodi-0.dtd"
   xmlns:xlink="http://www.w3.org/1999/xlink"
   xmlns="http://www.w3.org/2000/svg"
   xmlns:svg="http://www.w3.org/2000/svg"><sodipodi:namedview
     id="namedview373"
     pagecolor="#ffffff"
     bordercolor="#000000"
     borderopacity="0.25"
     inkscape:showpageshadow="2"
     inkscape:pageopacity="0.0"
     inkscape:pagecheckerboard="0"
     inkscape:deskcolor="#d1d1d1"
     inkscape:document-units="px"
     showgrid="false"
     inkscape:zoom="25.1875"
     inkscape:cx="16"
     inkscape:cy="16"
     inkscape:window-width="1920"
     inkscape:window-height="1008"
     inkscape:window-x="0"
     inkscape:window-y="0"
     inkscape:window-maximized="1"
     inkscape:current-layer="svg371"
     showguides="false" /><defs
     id="defs368"><linearGradient
       inkscape:collect="always"
       xlink:href="#linearGradient2222"
       id="linearGradient3251"
       x1="16"
       y1="31"
       x2="16"
       y2="1"
       gradientUnits="userSpaceOnUse" /><linearGradient
       inkscape:collect="always"
       id="linearGradient2222"><stop
         style="stop-color:#8550ec;stop-opacity:1;"
         offset="0"
         id="stop2218" /><stop
         style="stop-color:#7c86fc;stop-opacity:1;"
         offset="1"
         id="stop2220" /></linearGradient></defs><path
     d="M 1,16 C 1,4.75 4.75,1 16,1 27.25,1 31,4.75 31,16 31,27.25 27.25,31 16,31 4.75,31 1,27.25 1,16"
     style="fill:url(#linearGradient3251);fill-opacity:1.0;stroke-width:0.15"
     id="path311" /><path
     id="path517"
     style="fill:#ffffff;fill-opacity:1;stroke-linecap:round;stroke-linejoin:round"
     d="m 20,12 c -0.553996,0 -1,0.446004 -1,1 v 6.537109 A 4,4 0 0 0 17,19 a 4,4 0 0 0 -4,4 4,4 0 0 0 4,4 4,4 0 0 0 4,-4 v -8.943359 c 3.404646,0.01165 4,1.812855 4,3.943359 v 1 c 0.0055,0.552254 0.447719,1 1,1 0.552281,0 1,-0.447719 1,-1 v -1 c 0,-2.949373 -1.937619,-6 -6,-6 z" /><circle
     style="fill:#687cfb;fill-opacity:1;stroke-width:0.5;stroke-linecap:round;stroke-linejoin:round"
     id="path3673"
     cx="17"
     cy="23"
     r="2" /><rect
     style="opacity:0.99;fill:#ffffff;fill-opacity:1;stroke-width:1.42878"
     id="rect556"
     width="11"
     height="11"
     x="6"
     y="6"
     ry="2" /><path
     d="M 9.9501155,8.0861272 C 9.5221525,7.8325296 9.0007715,8.1693191 9,8.6998576 v 5.6002844 c 8.245e-4,0.530539 0.5221525,0.867328 0.9501155,0.613731 l 4.7143415,-2.799048 c 0.447391,-0.265131 0.447391,-0.964519 0,-1.229651 z"
     style="color:#000000;fill:#a065de;fill-opacity:1;stroke-width:1.07547;stroke-linecap:round;stroke-linejoin:round;stroke-miterlimit:1"
     id="path11025"
     sodipodi:nodetypes="ccccccc" /></svg>
