<?xml version="1.0" encoding="UTF-8" standalone="no"?>
<!-- Created with Inkscape (http://www.inkscape.org/) -->

<svg
   width="32"
   height="32"
   viewBox="0 0 32 32"
   version="1.1"
   id="svg371"
   xml:space="preserve"
   inkscape:version="1.2.2 (1:1.2.2+202212051552+b0a8486541)"
   sodipodi:docname="applications-all.svg"
   xmlns:inkscape="http://www.inkscape.org/namespaces/inkscape"
   xmlns:sodipodi="http://sodipodi.sourceforge.net/DTD/sodipodi-0.dtd"
   xmlns="http://www.w3.org/2000/svg"
   xmlns:svg="http://www.w3.org/2000/svg"><sodipodi:namedview
     id="namedview373"
     pagecolor="#ffffff"
     bordercolor="#000000"
     borderopacity="0.25"
     inkscape:showpageshadow="2"
     inkscape:pageopacity="0.0"
     inkscape:pagecheckerboard="0"
     inkscape:deskcolor="#d1d1d1"
     inkscape:document-units="px"
     showgrid="false"
     inkscape:zoom="25.3125"
     inkscape:cx="16"
     inkscape:cy="16"
     inkscape:window-width="1920"
     inkscape:window-height="1012"
     inkscape:window-x="0"
     inkscape:window-y="0"
     inkscape:window-maximized="1"
     inkscape:current-layer="svg371"
     showguides="false"
     inkscape:lockguides="true" /><defs
     id="defs368" /><path
     d="M 1,16 C 1,4.75 4.75,1 16,1 27.25,1 31,4.75 31,16 31,27.25 27.25,31 16,31 4.75,31 1,27.25 1,16"
     style="fill:#4aa9ed;fill-opacity:1;stroke-width:0.15"
     id="path311" /><path
     id="path341"
     style="fill:#ffffff;stroke-width:2"
     d="m 10,6 c -2.2091346,0 -4,1.7908657 -4,4 0,2.209135 1.7908654,4 4,4 2.209135,0 4,-1.790864 4,-4 0,-2.2091343 -1.790865,-4.0000003 -4,-4 z m 12,0 c -2.209135,0 -4,1.7908662 -4,4 0,2.209135 1.790865,4 4,4 2.209135,0 4,-1.790864 4,-4 C 26,7.7908662 24.209135,5.9999997 22,6 Z M 10,18 c -2.2091343,0 -4,1.790866 -4,4 0,2.209135 1.7908657,4 4,4 2.209135,0 4,-1.790864 4,-4 0,-2.209134 -1.790865,-4 -4,-4 z m 12,0 c -2.209135,0 -4,1.790866 -4,4 0,2.209135 1.790865,4 4,4 2.209135,0 4,-1.790864 4,-4 0,-2.209134 -1.790865,-4 -4,-4 z" /></svg>
