<?xml version="1.0" encoding="UTF-8" standalone="no"?>
<!-- Created with Inkscape (http://www.inkscape.org/) -->

<svg
   width="32"
   height="32"
   viewBox="0 0 32 32"
   version="1.1"
   id="svg371"
   xml:space="preserve"
   inkscape:version="1.2.2 (1:1.2.2+202212051552+b0a8486541)"
   sodipodi:docname="calls-app.svg"
   xmlns:inkscape="http://www.inkscape.org/namespaces/inkscape"
   xmlns:sodipodi="http://sodipodi.sourceforge.net/DTD/sodipodi-0.dtd"
   xmlns:xlink="http://www.w3.org/1999/xlink"
   xmlns="http://www.w3.org/2000/svg"
   xmlns:svg="http://www.w3.org/2000/svg"><sodipodi:namedview
     id="namedview373"
     pagecolor="#ffffff"
     bordercolor="#000000"
     borderopacity="0.25"
     inkscape:showpageshadow="2"
     inkscape:pageopacity="0.0"
     inkscape:pagecheckerboard="0"
     inkscape:deskcolor="#d1d1d1"
     inkscape:document-units="px"
     showgrid="false"
     inkscape:zoom="25.3125"
     inkscape:cx="16"
     inkscape:cy="16"
     inkscape:window-width="1920"
     inkscape:window-height="1012"
     inkscape:window-x="0"
     inkscape:window-y="0"
     inkscape:window-maximized="1"
     inkscape:current-layer="svg371"
     showguides="true" /><defs
     id="defs368"><linearGradient
       inkscape:collect="always"
       xlink:href="#linearGradient2030"
       id="linearGradient3040"
       x1="32"
       y1="62"
       x2="32"
       y2="2"
       gradientUnits="userSpaceOnUse"
       gradientTransform="scale(0.5)" /><linearGradient
       inkscape:collect="always"
       id="linearGradient2030"><stop
         style="stop-color:#03a169;stop-opacity:1;"
         offset="0"
         id="stop2026" /><stop
         style="stop-color:#10b86b;stop-opacity:1;"
         offset="1"
         id="stop2028" /></linearGradient></defs><path
     d="M 1,16 C 1,4.75 4.75,1 16,1 27.25,1 31,4.75 31,16 31,27.25 27.25,31 16,31 4.75,31 1,27.25 1,16"
     style="fill:url(#linearGradient3040);fill-opacity:1;stroke-width:0.15"
     id="path311" /><path
     id="rect344"
     style="fill:#ffffff;stroke-width:0.5"
     d="m 17,6 c -3.865989,0 -7,3.134011 -7,7 v 6 c 0,3.865989 3.134011,7 7,7 h 1 c 1.107999,0 2,-0.892001 2,-2 v -2 c 0,-1.107999 -0.892001,-2 -2,-2 h -1 -1 c -1.107998,0 -2,-0.892002 -2,-2 v -4 c 0,-1.107998 0.892002,-2 2,-2 h 1 1 c 1.107999,0 2,-0.892001 2,-2 V 8 C 20,6.892001 19.107999,6 18,6 Z"
     sodipodi:nodetypes="sssssssscsssscsssss" /></svg>
