<?xml version="1.0" encoding="UTF-8" standalone="no"?>
<!-- Created with Inkscape (http://www.inkscape.org/) -->

<svg
   width="32"
   height="32"
   viewBox="0 0 32 32"
   version="1.1"
   id="svg371"
   xml:space="preserve"
   inkscape:version="1.2.2 (1:1.2.2+202305151914+b0a8486541)"
   sodipodi:docname="discord.svg"
   xmlns:inkscape="http://www.inkscape.org/namespaces/inkscape"
   xmlns:sodipodi="http://sodipodi.sourceforge.net/DTD/sodipodi-0.dtd"
   xmlns:xlink="http://www.w3.org/1999/xlink"
   xmlns="http://www.w3.org/2000/svg"
   xmlns:svg="http://www.w3.org/2000/svg"><sodipodi:namedview
     id="namedview373"
     pagecolor="#ffffff"
     bordercolor="#000000"
     borderopacity="0.25"
     inkscape:showpageshadow="2"
     inkscape:pageopacity="0.0"
     inkscape:pagecheckerboard="0"
     inkscape:deskcolor="#d1d1d1"
     inkscape:document-units="px"
     showgrid="false"
     inkscape:zoom="25.1875"
     inkscape:cx="16"
     inkscape:cy="16"
     inkscape:window-width="1920"
     inkscape:window-height="1008"
     inkscape:window-x="0"
     inkscape:window-y="0"
     inkscape:window-maximized="1"
     inkscape:current-layer="svg371"
     showguides="false" /><defs
     id="defs368"><linearGradient
       inkscape:collect="always"
       id="linearGradient1503"><stop
         style="stop-color:#5865f2;stop-opacity:1;"
         offset="0"
         id="stop1499" /><stop
         style="stop-color:#6887f3;stop-opacity:1;"
         offset="1"
         id="stop1501" /></linearGradient><linearGradient
       inkscape:collect="always"
       xlink:href="#linearGradient1503"
       id="linearGradient1505"
       x1="32"
       y1="62"
       x2="32"
       y2="2"
       gradientUnits="userSpaceOnUse"
       gradientTransform="scale(0.5)" /></defs><path
     d="M 1,16 C 1,4.75 4.75,1 16,1 27.25,1 31,4.75 31,16 31,27.25 27.25,31 16,31 4.75,31 1,27.25 1,16"
     style="fill:url(#linearGradient1505);fill-opacity:1;stroke-width:0.15"
     id="path311" /><path
     id="path3158"
     style="fill:#ffffff;stroke-width:0.609119"
     d="m 19.125,8 c -0.02105,0.0024 -0.04166,0.015286 -0.05273,0.035156 -0.19338,0.3486977 -0.404691,0.3904903 -0.554688,0.7480469 -1.690929,-0.2566507 -3.374998,-0.2566507 -5.03125,0 -0.150034,-0.3654976 -0.372159,-0.3993492 -0.566406,-0.7480469 -0.01473,-0.02568 -0.04365,-0.037633 -0.07227,-0.033203 -1.571267,0.2743648 -3.075467,0.7530963 -4.4785154,1.40625 -0.01217,0.0055 -0.020434,0.01392 -0.027344,0.02539 -2.8520562,4.319846 -3.6332756,8.53388 -3.25,12.695312 0.0018,0.02034 0.011704,0.04042 0.027344,0.05273 1.8817041,1.40099 3.703285,2.250695 5.4921874,2.814453 0.02867,0.009 0.05988,2.6e-4 0.07813,-0.02344 0.423169,-0.58587 0.801576,-1.071063 1.125,-1.720703 0.01906,-0.03807 -2.62e-4,-0.08261 -0.03906,-0.09766 -0.598325,-0.230111 -1.166808,-0.509521 -1.714844,-0.828125 -0.04333,-0.02568 -0.04955,-0.08905 -0.0098,-0.119141 0.115323,-0.08762 0.231675,-0.179436 0.341797,-0.271484 0.01992,-0.01682 0.04888,-0.02035 0.07227,-0.0098 3.600365,1.666541 7.498753,1.666541 11.05664,0 0.02341,-0.01147 0.04951,-0.0091 0.07031,0.0078 0.110152,0.09204 0.2256,0.185827 0.341797,0.273437 0.03984,0.03012 0.03752,0.09348 -0.0059,0.119141 -0.548036,0.324796 -1.117596,0.598899 -1.716796,0.828125 -0.03898,0.01506 -0.05617,0.05959 -0.03711,0.09766 0.330366,0.648726 0.705735,1.132849 1.121094,1.71875 0.01736,0.02476 0.0495,0.03427 0.07813,0.02539 1.797585,-0.563759 3.620249,-1.413454 5.501953,-2.814453 0.0165,-0.01238 0.02954,-0.03241 0.03125,-0.05273 0.458705,-4.811071 -0.77149,-8.986639 -3.255859,-12.691406 -0.0062,-0.01239 -0.01518,-0.024 -0.02734,-0.0293 C 22.220868,8.7559254 20.718614,8.2771938 19.146484,8.0019531 19.139384,8.0007531 19.132,7.9991 19.125,8 Z m -7.626953,7 C 12.901075,15 14.021934,16.131803 14,17.5 14,18.878053 12.890111,20 11.498047,20 10.127844,20 9,18.878053 9,17.5 9,16.121946 10.105952,15 11.498047,15 Z M 20.5,15 c 1.403029,0 2.521934,1.131803 2.5,2.5 C 23,18.878053 21.892065,20 20.5,20 19.129797,20 18,18.878053 18,17.5 18,16.121946 19.107905,15 20.5,15 Z"
     sodipodi:nodetypes="ccccccccccccccccccccccccccccccccscsssscsss" /></svg>
