<?xml version="1.0" encoding="UTF-8" standalone="no"?>
<!-- Created with Inkscape (http://www.inkscape.org/) -->

<svg
   width="32"
   height="32"
   viewBox="0 0 32 32"
   version="1.1"
   id="svg371"
   xml:space="preserve"
   inkscape:version="1.2.2 (1:1.2.2+202305151914+b0a8486541)"
   sodipodi:docname="elisa.svg"
   xmlns:inkscape="http://www.inkscape.org/namespaces/inkscape"
   xmlns:sodipodi="http://sodipodi.sourceforge.net/DTD/sodipodi-0.dtd"
   xmlns:xlink="http://www.w3.org/1999/xlink"
   xmlns="http://www.w3.org/2000/svg"
   xmlns:svg="http://www.w3.org/2000/svg"><sodipodi:namedview
     id="namedview373"
     pagecolor="#ffffff"
     bordercolor="#000000"
     borderopacity="0.25"
     inkscape:showpageshadow="2"
     inkscape:pageopacity="0.0"
     inkscape:pagecheckerboard="0"
     inkscape:deskcolor="#d1d1d1"
     inkscape:document-units="px"
     showgrid="false"
     inkscape:zoom="25.1875"
     inkscape:cx="16"
     inkscape:cy="16"
     inkscape:window-width="1920"
     inkscape:window-height="1008"
     inkscape:window-x="0"
     inkscape:window-y="0"
     inkscape:window-maximized="1"
     inkscape:current-layer="svg371"
     showguides="false" /><defs
     id="defs368"><linearGradient
       inkscape:collect="always"
       id="linearGradient11029"><stop
         style="stop-color:#4a9bf2;stop-opacity:1;"
         offset="0"
         id="stop11025" /><stop
         style="stop-color:#7ddac5;stop-opacity:1;"
         offset="1"
         id="stop11027" /></linearGradient><linearGradient
       inkscape:collect="always"
       xlink:href="#linearGradient11029"
       id="linearGradient3040"
       x1="32"
       y1="62"
       x2="32"
       y2="2"
       gradientUnits="userSpaceOnUse"
       gradientTransform="scale(0.5)" /></defs><path
     d="M 1,16 C 1,4.75 4.75,1 16,1 27.25,1 31,4.75 31,16 31,27.25 27.25,31 16,31 4.75,31 1,27.25 1,16"
     style="fill:url(#linearGradient3040);fill-opacity:1.0;stroke-width:0.15"
     id="path311" /><path
     id="rect2743"
     style="fill:#ffffff;stroke-width:0.272166"
     d="m 15,7 v 9.757812 A 4.5,4.5 0 0 0 12.5,16 4.5,4.5 0 0 0 8,20.5 4.5,4.5 0 0 0 12.5,25 4.5,4.5 0 0 0 17,20.5 V 9 c 3.063064,0.007 5,1.820474 5,4.5 V 15 c 0,0.552283 0.447717,1 1,1 0.552283,0 1,-0.447717 1,-1 V 13.5 C 24,10.25745 21.48827,7 17,7 Z" /><circle
     style="fill:#1ed0b8;fill-opacity:1;stroke-width:0.833334"
     id="path1059"
     cx="12.5"
     cy="20.5"
     r="2.5" /></svg>
