<?xml version="1.0" encoding="UTF-8" standalone="no"?>
<!-- Created with Inkscape (http://www.inkscape.org/) -->

<svg
   width="32"
   height="32"
   viewBox="0 0 32 32"
   version="1.1"
   id="svg371"
   xml:space="preserve"
   inkscape:version="1.2.1 (1:1.2.1+202210291243+9c6d41e410)"
   sodipodi:docname="emacs.svg"
   xmlns:inkscape="http://www.inkscape.org/namespaces/inkscape"
   xmlns:sodipodi="http://sodipodi.sourceforge.net/DTD/sodipodi-0.dtd"
   xmlns:xlink="http://www.w3.org/1999/xlink"
   xmlns="http://www.w3.org/2000/svg"
   xmlns:svg="http://www.w3.org/2000/svg"><sodipodi:namedview
     id="namedview373"
     pagecolor="#ffffff"
     bordercolor="#000000"
     borderopacity="0.25"
     inkscape:showpageshadow="2"
     inkscape:pageopacity="0.0"
     inkscape:pagecheckerboard="0"
     inkscape:deskcolor="#d1d1d1"
     inkscape:document-units="px"
     showgrid="false"
     inkscape:zoom="25.78125"
     inkscape:cx="15.980606"
     inkscape:cy="16"
     inkscape:window-width="1920"
     inkscape:window-height="1018"
     inkscape:window-x="0"
     inkscape:window-y="28"
     inkscape:window-maximized="1"
     inkscape:current-layer="svg371"
     showguides="false" /><defs
     id="defs368"><linearGradient
       inkscape:collect="always"
       id="linearGradient1451"><stop
         style="stop-color:#923ec0;stop-opacity:1;"
         offset="0"
         id="stop1447" /><stop
         style="stop-color:#ab72cf;stop-opacity:1;"
         offset="1"
         id="stop1449" /></linearGradient><linearGradient
       inkscape:collect="always"
       xlink:href="#linearGradient1451"
       id="linearGradient3040"
       x1="32"
       y1="62"
       x2="32"
       y2="2"
       gradientUnits="userSpaceOnUse"
       gradientTransform="scale(0.5)" /></defs><path
     d="M 1,16 C 1,4.75 4.75,1 16,1 27.25,1 31,4.75 31,16 31,27.25 27.25,31 16,31 4.75,31 1,27.25 1,16"
     style="fill:url(#linearGradient3040);fill-opacity:1.0;stroke-width:0.15"
     id="path311" /><path
     d="m 9.1176691,25.10285 c 0,0 1.1922039,0.346172 2.7790699,0.544081 0.64268,0.08016 3.087954,0.360261 4.962815,0.352928 0,0 2.283299,0.0021 3.543726,-0.176465 1.318869,-0.187352 2.065969,-0.426438 2.48174,-0.903586 0.01089,-0.113754 0.200709,-0.484615 -0.31195,-0.84221 -1.311092,-0.915542 -3.0044,-1.164427 -6.296351,-1.946637 -3.63928,-0.915542 -4.726819,-1.791086 -5.270145,-2.424409 -0.515325,-0.635991 0.09667,-1.955749 3.029067,-2.603294 1.484644,-0.361329 7.015229,-0.427773 7.015229,-0.427773 -1.586643,-1.259536 -4.56571,-3.514614 -5.174368,-3.994162 -0.533948,-0.420616 -1.394423,-1.066073 -1.486867,-1.642864 -0.124775,-0.561481 0.759034,-0.831833 1.226983,-0.863011 1.507643,-0.103977 3.566391,0.07278 5.396363,0.436705 0.919875,0.182931 1.081362,0.155976 1.081362,0.155976 1.310092,0.0624 2.329077,-0.623858 2.277078,-2.069191 -0.01045,-1.46609 -1.476201,-2.6417392 -3.098399,-2.6930718 -1.527755,-0.048377 -5.292365,0.2183524 -5.292365,0.2183524 4.387934,0.9046087 5.105257,1.1354275 5.334142,1.6636419 0.135554,0.3121065 -0.225552,0.622213 -1.434422,0.5616586 -1.316648,-0.066 -4.014386,-0.3847723 -4.014386,-0.3847723 -2.567739,-0.3951053 -4.356602,-0.769433 -5.13659,0.2495523 -0.509482,0.6657233 0.0728,1.4765326 0.301529,1.9547479 1.018984,1.778085 2.78107,2.997956 3.899053,3.857498 0.420705,0.323463 1.705197,1.039786 1.705197,1.039786 -3.992608,-1.091762 -7.1743389,-0.478304 -9.1916416,0.58228 -2.3186325,1.372534 -1.9220828,3.688611 1.7571957,5.853913 2.1731899,1.27898 3.2550639,1.893305 6.8132329,2.330187 2.079746,0.331618 2.38952,0.467304 2.373743,0.640413 -0.02231,0.24373 -2.46152,0.336084 -3.131955,0.382328 -1.705752,0.117642 -6.1172419,0.147042 -6.1392419,0.147042 z"
     style="fill:#ffffff;stroke-width:2.22219"
     id="path397"
     sodipodi:nodetypes="cscccccccccccccccccccccccccccccc" /></svg>
