<?xml version="1.0" encoding="UTF-8" standalone="no"?>
<!-- Created with Inkscape (http://www.inkscape.org/) -->

<svg
   width="32"
   height="32"
   viewBox="0 0 32 32"
   version="1.1"
   id="svg371"
   xml:space="preserve"
   inkscape:version="1.3.2 (091e20ef0f, 2023-11-25, custom)"
   sodipodi:docname="github-desktop.svg"
   xmlns:inkscape="http://www.inkscape.org/namespaces/inkscape"
   xmlns:sodipodi="http://sodipodi.sourceforge.net/DTD/sodipodi-0.dtd"
   xmlns:xlink="http://www.w3.org/1999/xlink"
   xmlns="http://www.w3.org/2000/svg"
   xmlns:svg="http://www.w3.org/2000/svg"><sodipodi:namedview
     id="namedview373"
     pagecolor="#ffffff"
     bordercolor="#000000"
     borderopacity="0.25"
     inkscape:showpageshadow="2"
     inkscape:pageopacity="0.0"
     inkscape:pagecheckerboard="0"
     inkscape:deskcolor="#d1d1d1"
     inkscape:document-units="px"
     showgrid="false"
     inkscape:zoom="25.46875"
     inkscape:cx="16"
     inkscape:cy="16"
     inkscape:window-width="1920"
     inkscape:window-height="1004"
     inkscape:window-x="0"
     inkscape:window-y="30"
     inkscape:window-maximized="1"
     inkscape:current-layer="svg371"
     showguides="false" /><defs
     id="defs368"><linearGradient
       inkscape:collect="always"
       id="linearGradient2"><stop
         style="stop-color:#7944bb;stop-opacity:1;"
         offset="0"
         id="stop1" /><stop
         style="stop-color:#9d5bc5;stop-opacity:1;"
         offset="1"
         id="stop2" /></linearGradient><linearGradient
       inkscape:collect="always"
       xlink:href="#linearGradient2"
       id="linearGradient3040"
       x1="32"
       y1="62"
       x2="32"
       y2="2"
       gradientUnits="userSpaceOnUse"
       gradientTransform="scale(0.5)" /></defs><path
     d="M 1,16 C 1,4.75 4.75,1 16,1 27.25,1 31,4.75 31,16 31,27.25 27.25,31 16,31 4.75,31 1,27.25 1,16"
     style="fill:url(#linearGradient3040);fill-opacity:1.0;stroke-width:0.15"
     id="path311" /><path
     id="path920"
     style="fill:#ffffff;stroke-width:3;stroke-linecap:round;stroke-linejoin:round"
     d="M 16 6 A 10 10 0 0 0 6 16 A 10 10 0 0 0 12.986328 25.521484 L 12.986328 23.892578 C 10.455017 24.451178 9.8632812 22.779297 9.8632812 22.779297 C 9.449294 21.711024 8.8515625 21.626953 8.8515625 21.626953 C 8.0252766 21.053744 8.9121094 21.064453 8.9121094 21.064453 C 9.8255085 21.129693 10.306641 22.017578 10.306641 22.017578 C 11.118392 23.430477 12.497188 23.023809 13.015625 22.787109 C 13.098315 22.189948 13.240225 21.281818 13.5 21.050781 C 11.479377 20.817406 10 19.424106 10 15.880859 C 10 14.871609 10.595609 13.546269 11.177734 12.900391 C 11.083863 12.666516 10.770125 11.313638 11.265625 10.041016 C 11.265625 10.041016 11.313369 10.025984 11.412109 10.021484 C 11.708234 10.007614 12.374361 10.481532 13.677734 11.378906 C 14.464665 11.152827 15.371292 11.048069 16 11.042969 C 16.708914 11.037069 17.430203 11.158104 18.169922 11.378906 C 19.473671 10.481532 20.306563 10.005781 20.601562 10.019531 L 20.603516 10.019531 C 20.70215 10.024131 20.749999 10.039062 20.75 10.039062 C 21.246645 11.311635 20.933134 12.666517 20.839844 12.900391 C 21.422992 13.546391 22 14.871607 22 15.880859 C 22 19.433131 19.723941 20.814206 17.697266 21.042969 C 18.023525 21.328468 18.003906 21.793989 18.003906 22.65625 C 18.003906 23.697649 17.998394 24.37455 17.996094 24.804688 L 17.996094 25.773438 A 10 10 0 0 0 26 16 A 10 10 0 0 0 16 6 z M 13.068359 25.552734 A 10 10 0 0 0 13.476562 25.660156 A 10 10 0 0 1 13.068359 25.552734 z M 17.746094 25.828125 A 10 10 0 0 1 17.201172 25.914062 A 10 10 0 0 0 17.746094 25.828125 z M 14.333984 25.845703 A 10 10 0 0 0 14.748047 25.910156 A 10 10 0 0 1 14.333984 25.845703 z " /></svg>
