<?xml version="1.0" encoding="UTF-8" standalone="no"?>
<!-- Created with Inkscape (http://www.inkscape.org/) -->

<svg
   width="32"
   height="32"
   viewBox="0 0 32 32"
   version="1.1"
   id="svg371"
   xml:space="preserve"
   inkscape:version="1.2.2 (1:1.2.2+202305151914+b0a8486541)"
   sodipodi:docname="gnome-mines.svg"
   xmlns:inkscape="http://www.inkscape.org/namespaces/inkscape"
   xmlns:sodipodi="http://sodipodi.sourceforge.net/DTD/sodipodi-0.dtd"
   xmlns:xlink="http://www.w3.org/1999/xlink"
   xmlns="http://www.w3.org/2000/svg"
   xmlns:svg="http://www.w3.org/2000/svg"><sodipodi:namedview
     id="namedview373"
     pagecolor="#ffffff"
     bordercolor="#000000"
     borderopacity="0.25"
     inkscape:showpageshadow="2"
     inkscape:pageopacity="0.0"
     inkscape:pagecheckerboard="0"
     inkscape:deskcolor="#d1d1d1"
     inkscape:document-units="px"
     showgrid="false"
     inkscape:zoom="25.1875"
     inkscape:cx="15.980149"
     inkscape:cy="16"
     inkscape:window-width="1920"
     inkscape:window-height="1008"
     inkscape:window-x="0"
     inkscape:window-y="0"
     inkscape:window-maximized="1"
     inkscape:current-layer="svg371"
     showguides="false"
     inkscape:lockguides="true" /><defs
     id="defs368"><linearGradient
       inkscape:collect="always"
       id="linearGradient919"><stop
         style="stop-color:#5a5a5a;stop-opacity:1;"
         offset="0"
         id="stop915" /><stop
         style="stop-color:#939393;stop-opacity:1;"
         offset="1"
         id="stop917" /></linearGradient><linearGradient
       inkscape:collect="always"
       xlink:href="#linearGradient919"
       id="linearGradient1980"
       x1="16"
       y1="31"
       x2="16"
       y2="1"
       gradientUnits="userSpaceOnUse" /></defs><path
     d="M 1,16 C 1,4.75 4.75,1 16,1 27.25,1 31,4.75 31,16 31,27.25 27.25,31 16,31 4.75,31 1,27.25 1,16"
     style="fill:url(#linearGradient1980);fill-opacity:1.0;stroke-width:0.15"
     id="path311" /><path
     id="path973"
     style="opacity:1;fill:#ffffff;stroke-width:2;stroke-linecap:round"
     d="M 16 6 C 15.446001 6 15 6.4460006 15 7 L 15 9.0703125 A 7 7 0 0 0 10.513672 11.677734 L 8.7050781 10.634766 C 8.2253005 10.357766 7.6168435 10.520222 7.3398438 11 C 7.062844 11.479778 7.2253005 12.088235 7.7050781 12.365234 L 9.5136719 13.410156 A 7 7 0 0 0 9 16 A 7 7 0 0 0 9.5136719 18.589844 L 7.7050781 19.634766 C 7.2253005 19.911765 7.062844 20.520222 7.3398438 21 C 7.6168435 21.479778 8.2253005 21.642234 8.7050781 21.365234 L 10.513672 20.322266 A 7 7 0 0 0 15 22.929688 L 15 25 C 15 25.553999 15.446001 26 16 26 C 16.553999 26 17 25.553999 17 25 L 17 22.929688 A 7 7 0 0 0 21.486328 20.322266 L 23.294922 21.365234 C 23.774699 21.642234 24.383157 21.479778 24.660156 21 C 24.937156 20.520222 24.774699 19.911765 24.294922 19.634766 L 22.486328 18.589844 A 7 7 0 0 0 23 16 A 7 7 0 0 0 22.498047 13.402344 L 24.294922 12.365234 C 24.774699 12.088235 24.937156 11.479778 24.660156 11 C 24.383157 10.520222 23.774699 10.357766 23.294922 10.634766 L 21.498047 11.671875 A 7 7 0 0 0 17 9.0722656 L 17 7 C 17 6.4460006 16.553999 6 16 6 z " /></svg>
