<?xml version="1.0" encoding="UTF-8" standalone="no"?>
<!-- Created with Inkscape (http://www.inkscape.org/) -->

<svg
   width="32"
   height="32"
   viewBox="0 0 32 32"
   version="1.1"
   id="svg371"
   xml:space="preserve"
   inkscape:version="1.2 (1:1.2.1+202207142221+cd75a1ee6d)"
   sodipodi:docname="konquest.svg"
   xmlns:inkscape="http://www.inkscape.org/namespaces/inkscape"
   xmlns:sodipodi="http://sodipodi.sourceforge.net/DTD/sodipodi-0.dtd"
   xmlns:xlink="http://www.w3.org/1999/xlink"
   xmlns="http://www.w3.org/2000/svg"
   xmlns:svg="http://www.w3.org/2000/svg"><sodipodi:namedview
     id="namedview373"
     pagecolor="#ffffff"
     bordercolor="#000000"
     borderopacity="0.25"
     inkscape:showpageshadow="2"
     inkscape:pageopacity="0.0"
     inkscape:pagecheckerboard="0"
     inkscape:deskcolor="#d1d1d1"
     inkscape:document-units="px"
     showgrid="false"
     inkscape:zoom="25.78125"
     inkscape:cx="15.980606"
     inkscape:cy="16"
     inkscape:window-width="1920"
     inkscape:window-height="1018"
     inkscape:window-x="0"
     inkscape:window-y="28"
     inkscape:window-maximized="1"
     inkscape:current-layer="svg371"
     showguides="false" /><defs
     id="defs368"><linearGradient
       inkscape:collect="always"
       id="linearGradient1014"><stop
         style="stop-color:#9e704b;stop-opacity:1;"
         offset="0"
         id="stop1010" /><stop
         style="stop-color:#c99970;stop-opacity:1;"
         offset="1"
         id="stop1012" /></linearGradient><linearGradient
       inkscape:collect="always"
       xlink:href="#linearGradient1014"
       id="linearGradient3040"
       x1="32"
       y1="62"
       x2="32"
       y2="2"
       gradientUnits="userSpaceOnUse"
       gradientTransform="scale(0.5)" /></defs><path
     d="M 1,16 C 1,4.75 4.75,1 16,1 27.25,1 31,4.75 31,16 31,27.25 27.25,31 16,31 4.75,31 1,27.25 1,16"
     style="fill:url(#linearGradient3040);fill-opacity:1.0;stroke-width:0.15"
     id="path311" /><circle
     style="fill:#ffffff;stroke-width:3;stroke-linecap:round;stroke-linejoin:round"
     id="path898"
     cx="16"
     cy="16.000002"
     r="8" /><path
     id="path952"
     style="fill:#71542a;fill-opacity:1;stroke-width:3;stroke-linecap:round;stroke-linejoin:round"
     d="M 13.507059 5.1997567 A 11.5 5.5 3.8982867e-15 0 0 9.0071155 9.5624794 A 11.5 5.5 3.8982867e-15 0 0 20.507524 15.062354 A 11.5 5.5 3.8982867e-15 0 0 32.007693 9.5630399 A 11.5 5.5 3.8982867e-15 0 0 20.507284 4.0631657 A 11.5 5.5 3.8982867e-15 0 0 13.507059 5.1997567 z M 13.770241 7.5731916 A 9 3 8.5539527e-15 0 1 20.507021 6.5636639 A 9 3 8.5539527e-15 0 1 29.507195 9.5627759 A 9 3 8.5539527e-15 0 1 20.507788 12.561855 A 9 3 8.5539527e-15 0 1 11.507614 9.5627433 A 9 3 8.5539527e-15 0 1 13.770241 7.5731916 z "
     transform="rotate(20)" /><path
     id="path898-3"
     style="fill:#ffffff;stroke-width:3;stroke-linecap:round;stroke-linejoin:round"
     d="m 16,8 c -3.354473,10e-4 -6.352093,2.094655 -7.5078127,5.24375 l 0.00313,0.0016 a 8,2.4 20 0 0 -0.012499,0.01874 8,2.4 20 0 0 6.6968747,4.990625 8,2.4 20 0 0 8.3375,0.48125 8,2.4 20 0 0 0.0062,-0.02187 C 23.838077,17.84375 23.999323,16.925442 24,16 24,11.581727 20.418273,8 16,8 Z" /></svg>
