<?xml version="1.0" encoding="UTF-8" standalone="no"?>
<!-- Created with Inkscape (http://www.inkscape.org/) -->

<svg
   width="32"
   height="32"
   viewBox="0 0 32 32"
   version="1.1"
   id="svg371"
   xml:space="preserve"
   inkscape:version="1.2.2 (1:1.2.2+202305151914+b0a8486541)"
   sodipodi:docname="krdc.svg"
   xmlns:inkscape="http://www.inkscape.org/namespaces/inkscape"
   xmlns:sodipodi="http://sodipodi.sourceforge.net/DTD/sodipodi-0.dtd"
   xmlns:xlink="http://www.w3.org/1999/xlink"
   xmlns="http://www.w3.org/2000/svg"
   xmlns:svg="http://www.w3.org/2000/svg"><sodipodi:namedview
     id="namedview373"
     pagecolor="#ffffff"
     bordercolor="#000000"
     borderopacity="0.25"
     inkscape:showpageshadow="2"
     inkscape:pageopacity="0.0"
     inkscape:pagecheckerboard="0"
     inkscape:deskcolor="#d1d1d1"
     inkscape:document-units="px"
     showgrid="false"
     inkscape:zoom="25.1875"
     inkscape:cx="16"
     inkscape:cy="16"
     inkscape:window-width="1920"
     inkscape:window-height="1008"
     inkscape:window-x="0"
     inkscape:window-y="0"
     inkscape:window-maximized="1"
     inkscape:current-layer="svg371"
     showguides="false" /><defs
     id="defs368"><linearGradient
       inkscape:collect="always"
       xlink:href="#linearGradient1134"
       id="linearGradient3040"
       x1="32"
       y1="62"
       x2="32"
       y2="2"
       gradientUnits="userSpaceOnUse"
       gradientTransform="scale(0.5)" /><linearGradient
       inkscape:collect="always"
       id="linearGradient1134"><stop
         style="stop-color:#1e7bdf;stop-opacity:1;"
         offset="0"
         id="stop1130" /><stop
         style="stop-color:#579cf0;stop-opacity:1;"
         offset="1"
         id="stop1132" /></linearGradient></defs><path
     d="M 1,16 C 1,4.75 4.75,1 16,1 27.25,1 31,4.75 31,16 31,27.25 27.25,31 16,31 4.75,31 1,27.25 1,16"
     style="fill:url(#linearGradient3040);fill-opacity:1.0;stroke-width:0.15"
     id="path311" /><rect
     style="fill:#ffffff;stroke-width:2.84605;stroke-linecap:round;stroke-linejoin:round"
     id="rect898"
     width="18"
     height="14"
     x="7"
     y="9"
     ry="2" /><path
     id="path499"
     style="fill:#2a8dff;stroke-width:4.5;stroke-linecap:round;stroke-linejoin:round;stroke:none"
     d="M 10 11 A 1 1 0 0 0 9 12 A 1 1 0 0 0 10 13 C 13.87783 13 17 16.12217 17 20 A 1 1 0 0 0 18 21 A 1 1 0 0 0 19 20 C 19 15.041292 14.958708 11 10 11 z M 10 15 A 1 1 0 0 0 9 16 A 1 1 0 0 0 10 17 C 11.668695 17 13 18.331305 13 20 A 1 1 0 0 0 14 21 A 1 1 0 0 0 15 20 C 15 17.250427 12.749573 15 10 15 z M 9.5 19 A 1.5 1.5 0 0 0 8 20.5 A 1.5 1.5 0 0 0 9.5 22 A 1.5 1.5 0 0 0 11 20.5 A 1.5 1.5 0 0 0 9.5 19 z " /></svg>
