<?xml version="1.0" encoding="UTF-8" standalone="no"?>
<!-- Created with Inkscape (http://www.inkscape.org/) -->

<svg
   width="32"
   height="32"
   viewBox="0 0 32 32"
   version="1.1"
   id="svg371"
   xml:space="preserve"
   inkscape:version="1.2.2 (b0a8486541, 2022-12-01)"
   sodipodi:docname="libreoffice-base.svg"
   xmlns:inkscape="http://www.inkscape.org/namespaces/inkscape"
   xmlns:sodipodi="http://sodipodi.sourceforge.net/DTD/sodipodi-0.dtd"
   xmlns:xlink="http://www.w3.org/1999/xlink"
   xmlns="http://www.w3.org/2000/svg"
   xmlns:svg="http://www.w3.org/2000/svg"><sodipodi:namedview
     id="namedview373"
     pagecolor="#ffffff"
     bordercolor="#000000"
     borderopacity="0.25"
     inkscape:showpageshadow="2"
     inkscape:pageopacity="0.0"
     inkscape:pagecheckerboard="0"
     inkscape:deskcolor="#d1d1d1"
     inkscape:document-units="px"
     showgrid="false"
     inkscape:zoom="24.6875"
     inkscape:cx="16"
     inkscape:cy="16"
     inkscape:window-width="1920"
     inkscape:window-height="1011"
     inkscape:window-x="0"
     inkscape:window-y="0"
     inkscape:window-maximized="1"
     inkscape:current-layer="svg371"
     showguides="true" /><defs
     id="defs368"><linearGradient
       inkscape:collect="always"
       id="linearGradient1271"><stop
         style="stop-color:#9019ce;stop-opacity:1;"
         offset="0"
         id="stop1267" /><stop
         style="stop-color:#bd4ee2;stop-opacity:1;"
         offset="1"
         id="stop1269" /></linearGradient><linearGradient
       inkscape:collect="always"
       xlink:href="#linearGradient1271"
       id="linearGradient3040"
       x1="32"
       y1="62"
       x2="32"
       y2="2"
       gradientUnits="userSpaceOnUse"
       gradientTransform="scale(0.5)" /></defs><path
     d="M 1,16 C 1,4.75 4.75,1 16,1 27.25,1 31,4.75 31,16 31,27.25 27.25,31 16,31 4.75,31 1,27.25 1,16"
     style="fill:url(#linearGradient3040);fill-opacity:1.0;stroke-width:0.15"
     id="path311" /><path
     id="rect293"
     style="fill:#ffffff;stroke-width:2;stroke-linecap:round;stroke-linejoin:round"
     d="m 19,10 c -1.107992,0 -2,0.892008 -2,2 v 9 c 0,1.107993 0.892008,2 2,2 h 5 c 1.107993,0 2,-0.892007 2,-2 v -9 c 0,-1.107992 -0.892007,-2 -2,-2 z m 0,1 h 2 v 3 h -3 v -2 c 0,-0.553994 0.446005,-1 1,-1 z m 3,0 h 2 c 0.553993,0 1,0.446006 1,1 v 2 h -3 z m -4,4 h 3 v 3 h -3 z m 4,0 h 3 v 3 h -3 z m -4,4 h 3 v 3 h -2 c -0.553995,0 -1,-0.446007 -1,-1 z m 4,0 h 3 v 2 c 0,0.553993 -0.446007,1 -1,1 h -2 z"
     sodipodi:nodetypes="sccssccssscccsscssccccccccccccccccsscccsscc" /><path
     id="path525"
     style="fill:#dd8ff5;stroke-width:1.06066;stroke-linecap:round;stroke-linejoin:round;fill-opacity:1"
     d="M 10.5 9 A 4.5 2 0 0 0 6 11 L 6 12 A 4.5 2 0 0 0 10.5 14 A 4.5 2 0 0 0 15 12 L 15 11 A 4.5 2 0 0 0 10.5 9 z M 6 13 L 6 15 C 6 16.104567 8.0147233 17 10.5 17 C 12.985277 17 15 16.104567 15 15 L 15 13 A 4.5 2 0 0 1 10.5 15 A 4.5 2 0 0 1 6 13 z M 6 16 L 6 18 C 6 19.104567 8.0147238 20 10.5 20 C 12.985277 20 15 19.104567 15 18 L 15 16 A 4.5 2 0 0 1 10.5 18 A 4.5 2 0 0 1 6 16 z M 6 19 L 6 21 C 6 22.104567 8.0147236 23 10.5 23 C 12.985277 23 15 22.104567 15 21 L 15 19 A 4.5 2 0 0 1 10.5 21 A 4.5 2 0 0 1 6 19 z " /></svg>
