<?xml version="1.0" encoding="UTF-8" standalone="no"?>
<!-- Created with Inkscape (http://www.inkscape.org/) -->

<svg
   width="32"
   height="32"
   viewBox="0 0 32 32"
   version="1.1"
   id="svg371"
   xml:space="preserve"
   inkscape:version="1.3 (0e150ed6c4, 2023-07-21)"
   sodipodi:docname="lollypop.svg"
   xmlns:inkscape="http://www.inkscape.org/namespaces/inkscape"
   xmlns:sodipodi="http://sodipodi.sourceforge.net/DTD/sodipodi-0.dtd"
   xmlns:xlink="http://www.w3.org/1999/xlink"
   xmlns="http://www.w3.org/2000/svg"
   xmlns:svg="http://www.w3.org/2000/svg"><sodipodi:namedview
     id="namedview373"
     pagecolor="#ffffff"
     bordercolor="#000000"
     borderopacity="0.25"
     inkscape:showpageshadow="2"
     inkscape:pageopacity="0.0"
     inkscape:pagecheckerboard="0"
     inkscape:deskcolor="#d1d1d1"
     inkscape:document-units="px"
     showgrid="false"
     inkscape:zoom="24.875"
     inkscape:cx="16"
     inkscape:cy="16"
     inkscape:window-width="1920"
     inkscape:window-height="1000"
     inkscape:window-x="0"
     inkscape:window-y="0"
     inkscape:window-maximized="1"
     inkscape:current-layer="svg371"
     showguides="true" /><defs
     id="defs368"><linearGradient
       id="linearGradient3"
       inkscape:collect="always"><stop
         style="stop-color:#e4e4e4;stop-opacity:1;"
         offset="0"
         id="stop3" /><stop
         style="stop-color:#f1f1f1;stop-opacity:1;"
         offset="1"
         id="stop4" /></linearGradient><linearGradient
       id="linearGradient1"
       inkscape:collect="always"><stop
         style="stop-color:#fa4b8c;stop-opacity:1;"
         offset="0"
         id="stop1" /><stop
         style="stop-color:#fa5994;stop-opacity:1;"
         offset="1"
         id="stop2" /></linearGradient><linearGradient
       inkscape:collect="always"
       xlink:href="#linearGradient1"
       id="linearGradient2"
       x1="16"
       y1="31"
       x2="16"
       y2="1"
       gradientUnits="userSpaceOnUse" /><linearGradient
       inkscape:collect="always"
       xlink:href="#linearGradient3"
       id="linearGradient4"
       x1="16"
       y1="31"
       x2="16"
       y2="1"
       gradientUnits="userSpaceOnUse" /></defs><path
     d="M 1,16 C 1,4.75 4.75,1 16,1 27.25,1 31,4.75 31,16 31,27.25 27.25,31 16,31 4.75,31 1,27.25 1,16"
     style="fill:url(#linearGradient4);fill-opacity:1;stroke-width:0.15"
     id="path311" /><path
     id="path5170"
     mask="none"
     style="fill:url(#linearGradient2);fill-opacity:1;stroke-width:3.16228;stroke-linecap:round;stroke-linejoin:round"
     d="M 16 1 C 14.716518 1 13.535218 1.0511089 12.441406 1.1542969 C 12.177384 2.4658929 11.996426 4.0266579 12 6 C 11.999462 6.2814272 12.008604 6.5608335 12.027344 6.8359375 A 10 10 0 0 1 16 6 A 10 10 0 0 1 18.3125 6.2734375 C 18.987272 4.5894719 19.853664 2.8828627 20.964844 1.3242188 C 19.501213 1.1036439 17.854395 1 16 1 z M 5.8164062 3.0683594 C 3.2368356 4.6765245 1.8329381 7.3198302 1.28125 11.322266 C 2.3024944 12.333039 3.5916879 13.459756 5.3398438 14.464844 C 5.5847402 14.60706 5.8327678 14.733531 6.0820312 14.855469 A 10 10 0 0 1 9.0585938 8.8359375 C 7.7834972 7.110497 6.6108999 5.1568359 5.8164062 3.0683594 z M 28.169922 4.7714844 C 26.425834 5.3607497 24.86232 6.2584111 22.660156 7.5351562 C 22.418966 7.673598 22.187296 7.8207692 21.960938 7.9726562 A 10 10 0 0 1 25.316406 12.375 C 27.03529 12.023453 28.887434 11.823163 30.791016 11.910156 C 30.436597 8.7980461 29.610133 6.4630403 28.169922 4.7714844 z M 13.035156 10 C 12.489789 10.021608 12.000964 10.517098 12 11.199219 L 12 20.800781 C 12.0013 21.710274 12.870715 22.286302 13.583984 21.851562 L 21.441406 17.054688 C 22.187058 16.600176 22.187058 15.399825 21.441406 14.945312 L 13.583984 10.148438 C 13.405668 10.039753 13.216946 9.9927974 13.035156 10 z M 25.917969 17.144531 A 10 10 0 0 1 23.242188 22.863281 C 24.397528 24.633523 25.351904 26.738444 25.769531 29.173828 C 28.735541 27.526837 30.263064 24.653217 30.785156 20.126953 C 29.65176 19.329222 28.5756 18.636424 26.660156 17.535156 C 26.415258 17.392943 26.167235 17.266467 25.917969 17.144531 z M 6.3984375 18.785156 C 4.7833975 18.994767 3.0030228 19.096237 1.1074219 19.041016 C 1.3721992 22.4853 2.1435235 25.054073 3.5761719 26.910156 C 5.1466761 26.497544 6.9934426 25.825214 9.3398438 24.464844 C 9.587769 24.322544 9.8263326 24.172109 10.058594 24.015625 A 10 10 0 0 1 6.3984375 18.785156 z M 19.96875 25.164062 A 10 10 0 0 1 16 26 A 10 10 0 0 1 13.695312 25.707031 C 13.01944 27.397244 12.150608 29.111127 11.035156 30.675781 C 12.498787 30.896356 14.145605 31 16 31 C 17.184217 31 18.280351 30.956618 19.302734 30.869141 C 19.64977 29.553326 20.003596 27.989153 20 26 C 20.000708 25.718114 19.9876 25.439654 19.96875 25.164062 z " /></svg>
