<?xml version="1.0" encoding="UTF-8" standalone="no"?>
<!-- Created with Inkscape (http://www.inkscape.org/) -->

<svg
   width="32"
   height="32"
   viewBox="0 0 32 32"
   version="1.1"
   id="svg371"
   xml:space="preserve"
   inkscape:version="1.2.2 (1:1.2.2+202212051552+b0a8486541)"
   sodipodi:docname="manjaro-settings.svg"
   xmlns:inkscape="http://www.inkscape.org/namespaces/inkscape"
   xmlns:sodipodi="http://sodipodi.sourceforge.net/DTD/sodipodi-0.dtd"
   xmlns:xlink="http://www.w3.org/1999/xlink"
   xmlns="http://www.w3.org/2000/svg"
   xmlns:svg="http://www.w3.org/2000/svg"><sodipodi:namedview
     id="namedview373"
     pagecolor="#ffffff"
     bordercolor="#000000"
     borderopacity="0.25"
     inkscape:showpageshadow="2"
     inkscape:pageopacity="0.0"
     inkscape:pagecheckerboard="0"
     inkscape:deskcolor="#d1d1d1"
     inkscape:document-units="px"
     showgrid="false"
     inkscape:zoom="25.3125"
     inkscape:cx="15.980247"
     inkscape:cy="16"
     inkscape:window-width="1920"
     inkscape:window-height="1012"
     inkscape:window-x="0"
     inkscape:window-y="0"
     inkscape:window-maximized="1"
     inkscape:current-layer="svg371" /><defs
     id="defs368"><linearGradient
       inkscape:collect="always"
       id="linearGradient920"><stop
         style="stop-color:#3f5d53;stop-opacity:1;"
         offset="0"
         id="stop916" /><stop
         style="stop-color:#4f7064;stop-opacity:1;"
         offset="1"
         id="stop918" /></linearGradient><linearGradient
       inkscape:collect="always"
       xlink:href="#linearGradient920"
       id="linearGradient3040"
       x1="32"
       y1="62"
       x2="32"
       y2="2"
       gradientUnits="userSpaceOnUse"
       gradientTransform="scale(0.5)" /></defs><path
     d="M 1,16 C 1,4.75 4.75,1 16,1 27.25,1 31,4.75 31,16 31,27.25 27.25,31 16,31 4.75,31 1,27.25 1,16"
     style="fill:url(#linearGradient3040);fill-opacity:1;stroke-width:0.15"
     id="path311" /><path
     id="path289"
     style="fill:#ffffff;stroke-width:0.5"
     d="M 16,6 A 10,10 0 0 0 14.094727,6.207031 2,2 0 0 1 12.938477,8.609375 2,2 0 0 1 10.435547,7.7060545 10,10 0 0 0 7.71875,10.417969 2,2 0 0 1 8.609375,12.938477 2,2 0 0 1 6.211914,14.072266 10,10 0 0 0 6,16 a 10,10 0 0 0 0.211914,1.927734 2,2 0 0 1 0.392578,-0.09473 2,2 0 0 1 2.004883,1.228515 2,2 0 0 1 -0.890625,2.520508 10,10 0 0 0 2.716797,2.711914 2,2 0 0 1 1.894531,-1.048828 2,2 0 0 1 0.608399,0.145508 2,2 0 0 1 1.15625,2.402344 A 10,10 0 0 0 16,26 a 10,10 0 0 0 1.927734,-0.211914 2,2 0 0 1 1.133789,-2.397461 2,2 0 0 1 0.608399,-0.145508 2,2 0 0 1 1.894531,1.048828 10,10 0 0 0 2.729492,-2.729492 2,2 0 0 1 -0.90332,-2.50293 2,2 0 0 1 2.004883,-1.228515 2,2 0 0 1 0.392578,0.09473 A 10,10 0 0 0 26,16 10,10 0 0 0 25.810547,14.067383 2,2 0 0 1 23.390625,12.938477 2,2 0 0 1 24.303711,10.429688 10,10 0 0 0 21.570312,7.696289 2,2 0 0 1 19.061523,8.609375 2,2 0 0 1 17.932617,6.189453 10,10 0 0 0 16,6 Z" /><path
     id="rect4711"
     style="fill:#18462e;fill-opacity:1;stroke-width:2;stroke-linecap:round;stroke-linejoin:round"
     d="m 12,12 v 8 h 2 v -8 z m 3,0 v 2 h 3 v 6 h 2 v -8 z m 0,3 v 5 h 2 v -5 z"
     sodipodi:nodetypes="ccccccccccccccccc" /></svg>
