<?xml version="1.0" encoding="UTF-8" standalone="no"?>
<!-- Created with Inkscape (http://www.inkscape.org/) -->

<svg
   width="32"
   height="32"
   viewBox="0 0 32 32"
   version="1.1"
   id="svg371"
   xml:space="preserve"
   inkscape:version="1.2.2 (b0a8486541, 2022-12-01)"
   sodipodi:docname="okular.svg"
   xmlns:inkscape="http://www.inkscape.org/namespaces/inkscape"
   xmlns:sodipodi="http://sodipodi.sourceforge.net/DTD/sodipodi-0.dtd"
   xmlns:xlink="http://www.w3.org/1999/xlink"
   xmlns="http://www.w3.org/2000/svg"
   xmlns:svg="http://www.w3.org/2000/svg"><sodipodi:namedview
     id="namedview373"
     pagecolor="#ffffff"
     bordercolor="#000000"
     borderopacity="0.25"
     inkscape:showpageshadow="2"
     inkscape:pageopacity="0.0"
     inkscape:pagecheckerboard="0"
     inkscape:deskcolor="#d1d1d1"
     inkscape:document-units="px"
     showgrid="false"
     inkscape:zoom="24.6875"
     inkscape:cx="15.979747"
     inkscape:cy="16"
     inkscape:window-width="1920"
     inkscape:window-height="1011"
     inkscape:window-x="0"
     inkscape:window-y="0"
     inkscape:window-maximized="1"
     inkscape:current-layer="svg371"
     showguides="false" /><defs
     id="defs368"><linearGradient
       inkscape:collect="always"
       id="linearGradient1318"><stop
         style="stop-color:#2a67b6;stop-opacity:1;"
         offset="0"
         id="stop1314" /><stop
         style="stop-color:#5d78bb;stop-opacity:1;"
         offset="1"
         id="stop1316" /></linearGradient><linearGradient
       inkscape:collect="always"
       xlink:href="#linearGradient1318"
       id="linearGradient3040"
       x1="32"
       y1="62"
       x2="32"
       y2="2"
       gradientUnits="userSpaceOnUse"
       gradientTransform="scale(0.5)" /></defs><path
     d="M 1,16 C 1,4.75 4.75,1 16,1 27.25,1 31,4.75 31,16 31,27.25 27.25,31 16,31 4.75,31 1,27.25 1,16"
     style="fill:url(#linearGradient3040);fill-opacity:1.0;stroke-width:0.15"
     id="path311" /><rect
     style="fill:#ffffff"
     id="rect292"
     width="16"
     height="20"
     x="8"
     y="6"
     ry="3" /><path
     id="path452"
     style="fill:#2c5a8d;stroke-width:1.20761;fill-opacity:1"
     d="M 17.5,6 16.292969,7.2929688 C 12.387308,11.198458 11.437619,16.580904 14.171875,19.314453 16.421167,21.564326 20.462336,21.333178 24,19 v -1 c -2.729083,1.814636 -6.341115,2.008907 -8.300781,0.05078 C 13.355384,15.707621 14.265708,10.733868 17,8 l 2,-2 z"
     sodipodi:nodetypes="ccccccccc" /></svg>
