<?xml version="1.0" encoding="UTF-8" standalone="no"?>
<!-- Created with Inkscape (http://www.inkscape.org/) -->

<svg
   width="32"
   height="32"
   viewBox="0 0 32 32"
   version="1.1"
   id="svg371"
   xml:space="preserve"
   inkscape:version="1.3.2 (091e20ef0f, 2023-11-25, custom)"
   sodipodi:docname="org.kde.merkuro.calendar.svg"
   xmlns:inkscape="http://www.inkscape.org/namespaces/inkscape"
   xmlns:sodipodi="http://sodipodi.sourceforge.net/DTD/sodipodi-0.dtd"
   xmlns:xlink="http://www.w3.org/1999/xlink"
   xmlns="http://www.w3.org/2000/svg"
   xmlns:svg="http://www.w3.org/2000/svg"><sodipodi:namedview
     id="namedview373"
     pagecolor="#ffffff"
     bordercolor="#000000"
     borderopacity="0.25"
     inkscape:showpageshadow="2"
     inkscape:pageopacity="0.0"
     inkscape:pagecheckerboard="0"
     inkscape:deskcolor="#d1d1d1"
     inkscape:document-units="px"
     showgrid="false"
     inkscape:zoom="25.46875"
     inkscape:cx="16"
     inkscape:cy="16"
     inkscape:window-width="1920"
     inkscape:window-height="1004"
     inkscape:window-x="0"
     inkscape:window-y="30"
     inkscape:window-maximized="1"
     inkscape:current-layer="svg371"
     showguides="true" /><defs
     id="defs368"><linearGradient
       id="linearGradient2"
       inkscape:collect="always"><stop
         style="stop-color:#fd7f01;stop-opacity:1;"
         offset="0"
         id="stop2" /><stop
         style="stop-color:#f8ae41;stop-opacity:1;"
         offset="1"
         id="stop3" /></linearGradient><linearGradient
       inkscape:collect="always"
       xlink:href="#linearGradient2"
       id="linearGradient3040"
       x1="32"
       y1="62"
       x2="32"
       y2="2"
       gradientUnits="userSpaceOnUse"
       gradientTransform="scale(0.5)" /></defs><path
     d="M 1,16 C 1,4.75 4.75,1 16,1 27.25,1 31,4.75 31,16 31,27.25 27.25,31 16,31 4.75,31 1,27.25 1,16"
     style="fill:url(#linearGradient3040);fill-opacity:1.0;stroke-width:0.15"
     id="path311" /><path
     id="rect900"
     style="fill:#ffffff;stroke-width:2.7;stroke-linecap:round;stroke-linejoin:round"
     d="M 10 7 C 8.3380017 7 7 8.3380017 7 10 L 7 22 C 7 23.661998 8.3380017 25 10 25 L 22 25 C 23.661998 25 25 23.661998 25 22 L 25 10 C 25 8.3380017 23.661998 7 22 7 L 21 7 A 2 2 0 0 1 19 9 A 2 2 0 0 1 17 7 L 15 7 A 2 2 0 0 1 13 9 A 2 2 0 0 1 11 7 L 10 7 z " /><rect
     style="fill:#f47f08;fill-opacity:1"
     width="3"
     height="3"
     x="21"
     y="13"
     ry="0.75"
     id="rect6" /><rect
     style="fill:#f47f08;fill-opacity:1"
     width="3"
     height="3"
     x="13"
     y="13"
     ry="0.75"
     id="rect7" /><rect
     style="fill:#f47f08;fill-opacity:1"
     width="3"
     height="3"
     x="13"
     y="17"
     ry="0.75"
     id="rect8" /><rect
     style="fill:#f47f08;fill-opacity:1"
     width="3"
     height="3"
     x="9"
     y="17"
     ry="0.75"
     id="rect9" /><rect
     style="fill:#f47f08;fill-opacity:1"
     width="3"
     height="3"
     x="21"
     y="17"
     ry="0.75"
     id="rect10" /><rect
     style="fill:#f47f08;fill-opacity:1"
     width="3"
     height="3"
     x="17"
     y="13"
     ry="0.75"
     id="rect11" /><path
     style="color:#000000;fill:#f47f08;stroke-linecap:round;stroke-linejoin:round;-inkscape-stroke:none;fill-opacity:1"
     d="M 20.146484,17.146484 18.5,18.792969 17.853516,18.146484 a 0.5,0.5 0 0 0 -0.707032,0 0.5,0.5 0 0 0 0,0.707032 l 1,1 a 0.50005,0.50005 0 0 0 0.707032,0 l 2,-2 a 0.5,0.5 0 0 0 0,-0.707032 0.5,0.5 0 0 0 -0.707032,0 z"
     id="path11" /></svg>
