<?xml version="1.0" encoding="UTF-8" standalone="no"?>
<!-- Created with Inkscape (http://www.inkscape.org/) -->

<svg
   width="32"
   height="32"
   viewBox="0 0 32 32"
   version="1.1"
   id="svg371"
   xml:space="preserve"
   inkscape:version="1.2 (1:1.2.1+202207142221+cd75a1ee6d)"
   sodipodi:docname="org.gnome.Polari.svg"
   xmlns:inkscape="http://www.inkscape.org/namespaces/inkscape"
   xmlns:sodipodi="http://sodipodi.sourceforge.net/DTD/sodipodi-0.dtd"
   xmlns:xlink="http://www.w3.org/1999/xlink"
   xmlns="http://www.w3.org/2000/svg"
   xmlns:svg="http://www.w3.org/2000/svg"><sodipodi:namedview
     id="namedview373"
     pagecolor="#ffffff"
     bordercolor="#000000"
     borderopacity="0.25"
     inkscape:showpageshadow="2"
     inkscape:pageopacity="0.0"
     inkscape:pagecheckerboard="0"
     inkscape:deskcolor="#d1d1d1"
     inkscape:document-units="px"
     showgrid="false"
     inkscape:zoom="25.78125"
     inkscape:cx="15.980606"
     inkscape:cy="16.038788"
     inkscape:window-width="1920"
     inkscape:window-height="1018"
     inkscape:window-x="0"
     inkscape:window-y="28"
     inkscape:window-maximized="1"
     inkscape:current-layer="svg371"
     showguides="true" /><defs
     id="defs368"><linearGradient
       inkscape:collect="always"
       xlink:href="#linearGradient1070"
       id="linearGradient3040"
       x1="32"
       y1="62"
       x2="32"
       y2="2"
       gradientUnits="userSpaceOnUse"
       gradientTransform="scale(0.5)" /><linearGradient
       inkscape:collect="always"
       id="linearGradient1070"><stop
         style="stop-color:#1f9424;stop-opacity:1;"
         offset="0"
         id="stop1066" /><stop
         style="stop-color:#61b855;stop-opacity:1;"
         offset="1"
         id="stop1068" /></linearGradient></defs><path
     d="M 1,16 C 1,4.75 4.75,1 16,1 27.25,1 31,4.75 31,16 31,27.25 27.25,31 16,31 4.75,31 1,27.25 1,16"
     style="fill:url(#linearGradient3040);fill-opacity:1.0;stroke-width:0.15"
     id="path311" /><path
     id="path921"
     style="opacity:1;fill:#ffffff;stroke-width:1.0247"
     d="M 16 6 A 10.5 9 0 0 0 5.5 15 A 10.5 9 0 0 0 10.271484 22.535156 C 9.9931324 23.790128 9.5909326 24.96835 9 26 C 10.50246 25.283451 11.821333 24.536595 13.052734 23.636719 A 10.5 9 0 0 0 16 24 A 10.5 9 0 0 0 26.5 15 A 10.5 9 0 0 0 16 6 z " /><path
     id="rect845"
     style="fill:#1e8522;fill-opacity:1;stroke-width:0.5"
     d="M 14.5,10 C 14.223001,10 14,10.223001 14,10.5 V 13 h -2.5 c -0.276999,0 -0.5,0.223001 -0.5,0.5 0,0.276999 0.223001,0.5 0.5,0.5 H 14 v 2 h -2.5 c -0.276999,0 -0.5,0.223001 -0.5,0.5 0,0.276999 0.223001,0.5 0.5,0.5 H 14 v 2.5 c 0,0.276999 0.223001,0.5 0.5,0.5 0.276999,0 0.5,-0.223001 0.5,-0.5 V 17 h 2 v 2.5 c 0,0.276999 0.223001,0.5 0.5,0.5 0.276999,0 0.5,-0.223001 0.5,-0.5 V 17 h 2.5 C 20.776999,17 21,16.776999 21,16.5 21,16.223001 20.776999,16 20.5,16 H 18 v -2 h 2.5 C 20.776999,14 21,13.776999 21,13.5 21,13.223001 20.776999,13 20.5,13 H 18 V 10.5 C 18,10.223001 17.776999,10 17.5,10 17.223001,10 17,10.223001 17,10.5 V 13 H 15 V 10.5 C 15,10.223001 14.776999,10 14.5,10 Z m 0.5,4 h 2 v 2 h -2 z"
     sodipodi:nodetypes="sscsssccssscsssccssscsssccssscsssccssccccc" /></svg>
