<?xml version="1.0" encoding="UTF-8" standalone="no"?>
<!-- Created with Inkscape (http://www.inkscape.org/) -->

<svg
   width="32"
   height="32"
   viewBox="0 0 32 32"
   version="1.1"
   id="svg371"
   xml:space="preserve"
   inkscape:version="1.2.1 (1:1.2.1+202210291243+9c6d41e410)"
   sodipodi:docname="plasmadiscover.svg"
   xmlns:inkscape="http://www.inkscape.org/namespaces/inkscape"
   xmlns:sodipodi="http://sodipodi.sourceforge.net/DTD/sodipodi-0.dtd"
   xmlns:xlink="http://www.w3.org/1999/xlink"
   xmlns="http://www.w3.org/2000/svg"
   xmlns:svg="http://www.w3.org/2000/svg"><sodipodi:namedview
     id="namedview373"
     pagecolor="#ffffff"
     bordercolor="#000000"
     borderopacity="0.25"
     inkscape:showpageshadow="2"
     inkscape:pageopacity="0.0"
     inkscape:pagecheckerboard="0"
     inkscape:deskcolor="#d1d1d1"
     inkscape:document-units="px"
     showgrid="false"
     inkscape:zoom="25.78125"
     inkscape:cx="15.980606"
     inkscape:cy="16"
     inkscape:window-width="1920"
     inkscape:window-height="1018"
     inkscape:window-x="0"
     inkscape:window-y="28"
     inkscape:window-maximized="1"
     inkscape:current-layer="svg371"
     showguides="true" /><defs
     id="defs368"><linearGradient
       inkscape:collect="always"
       id="linearGradient1171"><stop
         style="stop-color:#3de9de;stop-opacity:1;"
         offset="0"
         id="stop1167" /><stop
         style="stop-color:#3daee9;stop-opacity:1;"
         offset="1"
         id="stop1169" /></linearGradient><linearGradient
       inkscape:collect="always"
       xlink:href="#linearGradient1171"
       id="linearGradient3040"
       x1="62"
       y1="62"
       x2="17.700407"
       y2="7.6766477"
       gradientUnits="userSpaceOnUse"
       gradientTransform="scale(0.5)" /></defs><path
     d="M 1,16 C 1,4.75 4.75,1 16,1 27.25,1 31,4.75 31,16 31,27.25 27.25,31 16,31 4.75,31 1,27.25 1,16"
     style="fill:url(#linearGradient3040);fill-opacity:1;stroke-width:0.15"
     id="path311" /><path
     id="rect790"
     style="fill:#ffffff;stroke-width:1.41421;stroke-linecap:round;stroke-linejoin:round"
     d="m 16,6 c -2.761418,0 -5,2.238582 -5,5 H 7 l 1,10 c 0.2205,2.205001 1.784002,4 4,4 h 8 c 2.215998,0 3.7795,-1.794999 4,-4 L 25,11 H 21 C 21,8.238582 18.761418,6 16,6 Z m 0,2 c 1.65685,0 3,1.34315 3,3 h -6 c 0,-1.65685 1.34315,-3 3,-3 z" /></svg>
