<?xml version="1.0" encoding="UTF-8" standalone="no"?>
<!-- Created with Inkscape (http://www.inkscape.org/) -->

<svg
   width="32"
   height="32"
   viewBox="0 0 32 32"
   version="1.1"
   id="svg371"
   xml:space="preserve"
   inkscape:version="1.3 (0e150ed6c4, 2023-07-21)"
   sodipodi:docname="system-software-install.svg"
   xmlns:inkscape="http://www.inkscape.org/namespaces/inkscape"
   xmlns:sodipodi="http://sodipodi.sourceforge.net/DTD/sodipodi-0.dtd"
   xmlns:xlink="http://www.w3.org/1999/xlink"
   xmlns="http://www.w3.org/2000/svg"
   xmlns:svg="http://www.w3.org/2000/svg"><sodipodi:namedview
     id="namedview373"
     pagecolor="#ffffff"
     bordercolor="#000000"
     borderopacity="0.25"
     inkscape:showpageshadow="2"
     inkscape:pageopacity="0.0"
     inkscape:pagecheckerboard="0"
     inkscape:deskcolor="#d1d1d1"
     inkscape:document-units="px"
     showgrid="false"
     inkscape:zoom="24.46875"
     inkscape:cx="15.979566"
     inkscape:cy="16"
     inkscape:window-width="1920"
     inkscape:window-height="984"
     inkscape:window-x="0"
     inkscape:window-y="29"
     inkscape:window-maximized="1"
     inkscape:current-layer="svg371"
     showguides="false" /><defs
     id="defs368"><linearGradient
       inkscape:collect="always"
       id="linearGradient1349"><stop
         style="stop-color:#ef3b00;stop-opacity:1;"
         offset="0"
         id="stop1345" /><stop
         style="stop-color:#fe2794;stop-opacity:1;"
         offset="1"
         id="stop1347" /></linearGradient><linearGradient
       inkscape:collect="always"
       xlink:href="#linearGradient1349"
       id="linearGradient3040"
       x1="62"
       y1="62"
       x2="17.700407"
       y2="7.6766477"
       gradientUnits="userSpaceOnUse"
       gradientTransform="scale(0.5)" /></defs><path
     d="M 1,16 C 1,4.75 4.75,1 16,1 27.25,1 31,4.75 31,16 31,27.25 27.25,31 16,31 4.75,31 1,27.25 1,16"
     style="fill:url(#linearGradient3040);fill-opacity:1;stroke-width:0.15"
     id="path311" /><path
     id="rect1"
     style="fill:#ffffff;stroke-width:0.999997;stroke-linecap:round;stroke-linejoin:round"
     d="M 9.5 7 C 8.1150028 7 7 8.1150028 7 9.5 L 7 12.5 C 7 13.884998 8.1150028 15 9.5 15 L 12.5 15 C 13.884998 15 15 13.884998 15 12.5 L 15 9.5 C 15 8.1150028 13.884998 7 12.5 7 L 9.5 7 z M 19.5 7 C 18.115001 7 17 8.1150014 17 9.5 L 17 12.5 C 17 13.884999 18.115001 15 19.5 15 L 22.5 15 C 23.884999 15 25 13.884999 25 12.5 L 25 9.5 C 25 8.1150014 23.884999 7 22.5 7 L 19.5 7 z M 9.5 17 C 8.1150014 17 7 18.115001 7 19.5 L 7 22.5 C 7 23.884999 8.1150014 25 9.5 25 L 12.5 25 C 13.884999 25 15 23.884999 15 22.5 L 15 19.5 C 15 18.115001 13.884999 17 12.5 17 L 9.5 17 z " /><path
     id="rect2"
     style="opacity:0.6;fill:#ffffff;stroke-width:0.5;stroke-linecap:round;stroke-linejoin:round"
     d="m 21,17 c -0.553998,0 -1,0.446002 -1,1 v 3 h -3 l 4,4 4,-4 h -3 v -3 c 0,-0.553998 -0.446002,-1 -1,-1 z" /></svg>
