<?xml version="1.0" encoding="UTF-8" standalone="no"?>
<!-- Created with Inkscape (http://www.inkscape.org/) -->

<svg
   width="32"
   height="32"
   viewBox="0 0 32 32"
   version="1.1"
   id="svg371"
   xml:space="preserve"
   inkscape:version="1.2.2 (1:1.2.2+202305151914+b0a8486541)"
   sodipodi:docname="utilities-system-monitor.svg"
   xmlns:inkscape="http://www.inkscape.org/namespaces/inkscape"
   xmlns:sodipodi="http://sodipodi.sourceforge.net/DTD/sodipodi-0.dtd"
   xmlns:xlink="http://www.w3.org/1999/xlink"
   xmlns="http://www.w3.org/2000/svg"
   xmlns:svg="http://www.w3.org/2000/svg"><sodipodi:namedview
     id="namedview373"
     pagecolor="#ffffff"
     bordercolor="#000000"
     borderopacity="0.25"
     inkscape:showpageshadow="2"
     inkscape:pageopacity="0.0"
     inkscape:pagecheckerboard="0"
     inkscape:deskcolor="#d1d1d1"
     inkscape:document-units="px"
     showgrid="false"
     inkscape:zoom="25.1875"
     inkscape:cx="16"
     inkscape:cy="16"
     inkscape:window-width="1920"
     inkscape:window-height="1008"
     inkscape:window-x="0"
     inkscape:window-y="0"
     inkscape:window-maximized="1"
     inkscape:current-layer="svg371" /><defs
     id="defs368"><linearGradient
       inkscape:collect="always"
       xlink:href="#linearGradient869"
       id="linearGradient3040"
       x1="32"
       y1="62"
       x2="32"
       y2="2"
       gradientUnits="userSpaceOnUse"
       gradientTransform="scale(0.5)" /><linearGradient
       inkscape:collect="always"
       id="linearGradient869"><stop
         style="stop-color:#268f82;stop-opacity:1;"
         offset="0"
         id="stop865" /><stop
         style="stop-color:#31b7a5;stop-opacity:1;"
         offset="1"
         id="stop867" /></linearGradient></defs><path
     d="M 1,16 C 1,4.75 4.75,1 16,1 27.25,1 31,4.75 31,16 31,27.25 27.25,31 16,31 4.75,31 1,27.25 1,16"
     style="fill:url(#linearGradient3040);fill-opacity:1;stroke-width:0.15"
     id="path311" /><path
     style="color:#000000;fill:#18e1c7;fill-opacity:1;stroke-linecap:round;stroke-linejoin:round;-inkscape-stroke:none"
     d="M 14.089844,5.1679687 C 9.7683039,5.9299726 6.3088653,9.1929688 5.296875,13.462891 4.2848847,17.732812 5.9117585,22.203763 9.4316406,24.824219 12.951523,27.444674 17.699702,27.719494 21.5,25.525391 A 1,1 0 0 0 21.865234,24.160156 1,1 0 0 0 20.5,23.794922 C 17.386412,25.592552 13.508842,25.365691 10.625,23.21875 7.7411575,21.071809 6.413063,17.422179 7.2421875,13.923828 8.071312,10.425477 10.896859,7.7610292 14.4375,7.1367187 A 1,1 0 0 0 15.248047,5.9785156 1,1 0 0 0 14.089844,5.1679687 Z"
     id="path1023" /><path
     style="color:#000000;fill:#9bf8e7;fill-opacity:1;stroke-linecap:round;stroke-linejoin:round;-inkscape-stroke:none"
     d="M 17.910156,5.1679687 A 1,1 0 0 0 16.751953,5.9785156 1,1 0 0 0 17.5625,7.1367187 c 3.168117,0.5586245 5.794256,2.7621743 6.894531,5.7851563 1.100276,3.022982 0.505342,6.398924 -1.5625,8.863281 a 1,1 0 0 0 0.123047,1.408203 1,1 0 0 0 1.408203,-0.123047 C 26.950853,20.061049 27.6795,15.929689 26.335937,12.238281 24.992375,8.5468732 21.778791,5.8501134 17.910156,5.1679687 Z"
     id="path1029" /><path
     id="path2922"
     style="fill:#ffffff;fill-opacity:1;stroke:none;stroke-width:2;stroke-linecap:round;stroke-linejoin:round;stroke-opacity:1"
     d="M 16 11 L 16 13 A 3 3 0 0 1 19 16 A 3 3 0 0 1 16 19 A 3 3 0 0 1 13 16 L 15 16 L 12 13 L 9 16 L 11 16 A 5 5 0 0 0 16 21 A 5 5 0 0 0 21 16 A 5 5 0 0 0 16 11 z " /></svg>
