<?xml version="1.0" encoding="UTF-8" standalone="no"?>
<!-- Created with Inkscape (http://www.inkscape.org/) -->

<svg
   width="32"
   height="32"
   viewBox="0 0 32 32"
   version="1.1"
   id="svg371"
   xml:space="preserve"
   inkscape:version="1.2.1 (9c6d41e410, 2022-07-14, custom)"
   sodipodi:docname="vim.svg"
   xmlns:inkscape="http://www.inkscape.org/namespaces/inkscape"
   xmlns:sodipodi="http://sodipodi.sourceforge.net/DTD/sodipodi-0.dtd"
   xmlns:xlink="http://www.w3.org/1999/xlink"
   xmlns="http://www.w3.org/2000/svg"
   xmlns:svg="http://www.w3.org/2000/svg"><sodipodi:namedview
     id="namedview373"
     pagecolor="#ffffff"
     bordercolor="#000000"
     borderopacity="0.25"
     inkscape:showpageshadow="2"
     inkscape:pageopacity="0.0"
     inkscape:pagecheckerboard="0"
     inkscape:deskcolor="#d1d1d1"
     inkscape:document-units="px"
     showgrid="false"
     inkscape:zoom="22.625"
     inkscape:cx="15.977901"
     inkscape:cy="16"
     inkscape:window-width="1920"
     inkscape:window-height="947"
     inkscape:window-x="0"
     inkscape:window-y="0"
     inkscape:window-maximized="1"
     inkscape:current-layer="svg371"
     showguides="false" /><defs
     id="defs368"><linearGradient
       inkscape:collect="always"
       id="linearGradient1034"><stop
         style="stop-color:#51c251;stop-opacity:1;"
         offset="0"
         id="stop1030" /><stop
         style="stop-color:#6fcd6f;stop-opacity:1;"
         offset="1"
         id="stop1032" /></linearGradient><linearGradient
       inkscape:collect="always"
       xlink:href="#linearGradient1034"
       id="linearGradient1036"
       x1="32"
       y1="62"
       x2="32"
       y2="2"
       gradientUnits="userSpaceOnUse"
       gradientTransform="scale(0.5)" /></defs><path
     d="M 1,16 C 1,4.75 4.75,1 16,1 27.25,1 31,4.75 31,16 31,27.25 27.25,31 16,31 4.75,31 1,27.25 1,16"
     style="fill:url(#linearGradient1036);fill-opacity:1;stroke-width:0.15"
     id="path311" /><rect
     style="opacity:0.5;fill:#ffffff;stroke:none;stroke-width:4;stroke-linecap:square;stroke-linejoin:miter;stroke-dasharray:none;stroke-opacity:1;paint-order:stroke fill markers"
     id="rect4147"
     width="16"
     height="16"
     x="14.627417"
     y="-8"
     ry="2"
     transform="rotate(45)" /><path
     id="rect898"
     style="fill:#ffffff;stroke:none;stroke-width:1.5;stroke-linecap:round;stroke-linejoin:round;paint-order:stroke fill markers"
     d="m 9,9.000001 c -0.5539989,0 -0.9999995,0.446001 -0.9999995,1 0,0.553999 0.4460006,1 0.9999995,1 h 0.5 v 0.25 11.249898 c 0.0015,1.366255 1.680769,2.01945 2.605469,1.013672 L 23.597656,10.802735 C 23.842268,10.620775 24,10.329646 24,10.000001 c 0,-0.553999 -0.446001,-1 -1,-1 h -4 c -0.553999,0 -1,0.446001 -1,1 0,0.553999 0.446001,1 1,1 h 0.304688 L 12.5,18.64443 v -7.394429 -0.25 H 13 c 0.553999,0 1,-0.446001 1,-1 0,-0.553999 -0.446001,-1 -1,-1 z"
     sodipodi:nodetypes="ssscccccsssssccccssss" /></svg>
