<?xml version="1.0" encoding="UTF-8" standalone="no"?>
<!-- Created with Inkscape (http://www.inkscape.org/) -->

<svg
   width="32"
   height="32"
   viewBox="0 0 32 32"
   version="1.1"
   id="svg371"
   xml:space="preserve"
   inkscape:version="1.2 (1:1.2.1+202207142221+cd75a1ee6d)"
   sodipodi:docname="youtube.svg"
   xmlns:inkscape="http://www.inkscape.org/namespaces/inkscape"
   xmlns:sodipodi="http://sodipodi.sourceforge.net/DTD/sodipodi-0.dtd"
   xmlns="http://www.w3.org/2000/svg"
   xmlns:svg="http://www.w3.org/2000/svg"><sodipodi:namedview
     id="namedview373"
     pagecolor="#ffffff"
     bordercolor="#000000"
     borderopacity="0.25"
     inkscape:showpageshadow="2"
     inkscape:pageopacity="0.0"
     inkscape:pagecheckerboard="0"
     inkscape:deskcolor="#d1d1d1"
     inkscape:document-units="px"
     showgrid="false"
     inkscape:zoom="25.78125"
     inkscape:cx="15.980606"
     inkscape:cy="16"
     inkscape:window-width="1920"
     inkscape:window-height="1018"
     inkscape:window-x="0"
     inkscape:window-y="28"
     inkscape:window-maximized="1"
     inkscape:current-layer="svg371"
     showguides="false" /><defs
     id="defs368" /><path
     d="M 1,16 C 1,4.75 4.75,1 16,1 27.25,1 31,4.75 31,16 31,27.25 27.25,31 16,31 4.75,31 1,27.25 1,16"
     style="fill:#f5f5f5;fill-opacity:1;stroke-width:0.15"
     id="path311" /><path
     id="path1633"
     style="fill:#ff0000;fill-opacity:1;stroke-width:0.169237"
     d="m 15.999966,9 c 0,0 -6.054175,6.499e-4 -7.7061369,0.4124349 C 7.4069855,9.6430149 6.6774735,10.333312 6.4340265,11.189779 5.999299,12.754481 6,16 6,16 c 0,0 -7e-4,3.261987 0.4340265,4.810222 0.243448,0.856468 0.9555715,1.530808 1.8598026,1.761393 C 9.963179,22.999849 15.999966,23 15.999966,23 c 0,0 6.052004,-7e-4 7.703968,-0.412436 0.904232,-0.23058 1.616354,-0.904925 1.859803,-1.76139 0.434727,-1.564706 0.436196,-4.810224 0.436196,-4.810224 0,0 0.01578,-3.261469 -0.436196,-4.826171 C 25.320288,10.333312 24.608166,9.658973 23.703934,9.428386 22.05197,9.0001521 15.999966,9 15.999966,9 Z"
     sodipodi:nodetypes="ccccccccccccc" /><path
     d="M 13,12 20,15.999973 13,20 Z"
     style="fill:#ffffff;stroke-width:0.203085"
     id="path301" /></svg>
