<?xml version="1.0" encoding="UTF-8" standalone="no"?>
<!-- Created with Inkscape (http://www.inkscape.org/) -->

<svg
   width="22"
   height="22"
   viewBox="0 0 22 22"
   version="1.1"
   id="svg11945"
   inkscape:version="1.2.2 (1:1.2.2+202305151914+b0a8486541)"
   sodipodi:docname="folder-desktop.svg"
   xmlns:inkscape="http://www.inkscape.org/namespaces/inkscape"
   xmlns:sodipodi="http://sodipodi.sourceforge.net/DTD/sodipodi-0.dtd"
   xmlns="http://www.w3.org/2000/svg"
   xmlns:svg="http://www.w3.org/2000/svg">
  <sodipodi:namedview
     id="namedview11947"
     pagecolor="#ffffff"
     bordercolor="#666666"
     borderopacity="1.0"
     inkscape:pageshadow="2"
     inkscape:pageopacity="0.0"
     inkscape:pagecheckerboard="0"
     inkscape:document-units="px"
     showgrid="false"
     units="in"
     inkscape:zoom="36.636364"
     inkscape:cx="10.986352"
     inkscape:cy="11"
     inkscape:window-width="1920"
     inkscape:window-height="1008"
     inkscape:window-x="0"
     inkscape:window-y="0"
     inkscape:window-maximized="1"
     inkscape:current-layer="svg11945"
     showguides="true"
     inkscape:showpageshadow="2"
     inkscape:deskcolor="#d1d1d1" />
  <defs
     id="defs11942">
    <style
       id="current-color-scheme"
       type="text/css">
         .ColorScheme-Text { color:#dfdfdf; }
        </style>
  </defs>
  <path
     id="path4457"
     style="fill:currentColor;stroke-width:5.00003;stroke-linecap:round;stroke-linejoin:round"
     class="ColorScheme-Text"
     d="M 5.0000003,4 C 3.8920058,4 3.0000002,4.892006 3.0000002,5.9999999 V 15 c 0,1.107994 0.8920056,2 2.0000001,2 H 17 c 1.107996,0 2,-0.892006 2,-2 V 5.9999999 C 19,4.892006 18.107996,4 17,4 Z m 0,1 H 17 c 0.553998,0 1.000001,0.4460032 1.000001,0.9999999 V 15 c 0,0.553998 -0.446003,1 -1.000001,1 H 5.0000003 c -0.5539973,0 -1,-0.446002 -1,-1 V 5.9999999 C 4.0000003,5.4460032 4.446003,5 5.0000003,5 Z M 6,5.9999999 c -0.5522847,2e-7 -0.9999998,0.4477155 -0.9999997,1.0000002 0,0.5522846 0.4477151,0.9999998 0.9999997,1 0.552285,3e-7 1.0000005,-0.4477151 1.0000005,-1 C 7.0000006,6.447715 6.552285,5.9999996 6,5.9999999 Z m 0,3 C 5.4477154,9.0000001 5.0000003,9.4477153 5.0000003,10 5.0000003,10.552285 5.4477154,11 6,11 6.552285,11 7.0000005,10.552285 7.0000005,10 7.0000005,9.447715 6.552285,8.9999996 6,8.9999999 Z M 5.0000003,14 v 1 H 17 v -1 z"
     sodipodi:nodetypes="ssssssssssssssssssssssssssssccccc" />
</svg>
