<?xml version="1.0" encoding="UTF-8" standalone="no"?>
<!-- Created with Inkscape (http://www.inkscape.org/) -->

<svg
   width="22"
   height="22"
   viewBox="0 0 22 22"
   version="1.1"
   id="svg5"
   inkscape:version="1.2.2 (1:1.2.2+202305151914+b0a8486541)"
   sodipodi:docname="folder-default.svg"
   xmlns:inkscape="http://www.inkscape.org/namespaces/inkscape"
   xmlns:sodipodi="http://sodipodi.sourceforge.net/DTD/sodipodi-0.dtd"
   xmlns="http://www.w3.org/2000/svg"
   xmlns:svg="http://www.w3.org/2000/svg">
  <sodipodi:namedview
     id="namedview7"
     pagecolor="#ffffff"
     bordercolor="#000000"
     borderopacity="0.25"
     inkscape:showpageshadow="2"
     inkscape:pageopacity="0.0"
     inkscape:pagecheckerboard="0"
     inkscape:deskcolor="#d1d1d1"
     inkscape:document-units="px"
     showgrid="false"
     inkscape:zoom="36.636364"
     inkscape:cx="11.040943"
     inkscape:cy="11"
     inkscape:window-width="1920"
     inkscape:window-height="1008"
     inkscape:window-x="0"
     inkscape:window-y="0"
     inkscape:window-maximized="1"
     inkscape:current-layer="svg5" />
  <defs
     id="defs2">
    <style
       id="current-color-scheme"
       type="text/css">
         .ColorScheme-Text { color:#dfdfdf; }
        </style>
  </defs>
  <path
     id="rect788"
     style="fill:currentColor;stroke:none"
     class="ColorScheme-Text"
     d="M 5,4 C 3.8920011,4 3,4.8920011 3,6 v 10 c 0,1.107999 0.8920011,2 2,2 h 12 c 1.107999,0 2,-0.892001 2,-2 V 9 C 19,7.8920011 18.107999,6.999982 17,7 l -4.999817,8.11e-5 -1.846236,-2.3461623 C 9.5815239,4.0378677 9.3100357,4 8.5000531,4 Z M 5,5 H 8.500053 C 9.0508888,4.99717 9.1296365,5.1117884 9.411825,5.4117972 l 1.614003,2.1139294 c 0.390536,0.4192723 0.668535,0.4770195 1.284344,0.4743545 L 17,8 c 0.673592,-0.00213 1.012178,0.3007595 1,1 v 7 c 0,0.553999 -0.446001,1 -1,1 H 5 C 4.4460006,17 4,16.553999 4,16 V 6 C 4,5.4460006 4.4460006,5 5,5 Z"
     sodipodi:nodetypes="sssssssscccssccccccssssss" />
</svg>
