<?xml version="1.0" encoding="UTF-8" standalone="no"?>
<!-- Created with Inkscape (http://www.inkscape.org/) -->

<svg
   width="22"
   height="22"
   viewBox="0 0 22 22"
   version="1.1"
   id="svg11945"
   inkscape:version="1.2.2 (1:1.2.2+202305151914+b0a8486541)"
   sodipodi:docname="folder-download.svg"
   xmlns:inkscape="http://www.inkscape.org/namespaces/inkscape"
   xmlns:sodipodi="http://sodipodi.sourceforge.net/DTD/sodipodi-0.dtd"
   xmlns="http://www.w3.org/2000/svg"
   xmlns:svg="http://www.w3.org/2000/svg">
  <sodipodi:namedview
     id="namedview11947"
     pagecolor="#ffffff"
     bordercolor="#666666"
     borderopacity="1.0"
     inkscape:pageshadow="2"
     inkscape:pageopacity="0.0"
     inkscape:pagecheckerboard="0"
     inkscape:document-units="px"
     showgrid="false"
     units="in"
     inkscape:zoom="36.636364"
     inkscape:cx="10.986352"
     inkscape:cy="11"
     inkscape:window-width="1920"
     inkscape:window-height="1008"
     inkscape:window-x="0"
     inkscape:window-y="0"
     inkscape:window-maximized="1"
     inkscape:current-layer="svg11945"
     showguides="true"
     inkscape:showpageshadow="2"
     inkscape:deskcolor="#d1d1d1" />
  <defs
     id="defs11942">
    <style
       id="current-color-scheme"
       type="text/css">
         .ColorScheme-Text { color:#dfdfdf; }
        </style>
  </defs>
  <path
     d="m 10.5,2.9999995 c -0.277002,0 -0.5,0.2230001 -0.5,0.5 V 15.265625 L 4.34375,9.6093748 c -0.1958702,-0.1958702 -0.5111611,-0.1958702 -0.7070312,0 -0.1958702,0.1958665 -0.1958702,0.5111612 0,0.7070312 L 10,16.666017 c 0.238084,0.252426 0.325213,0.336033 0.5,0.333985 0.18144,0.0012 0.334632,-0.151488 0.5,-0.33594 l 6.363281,-6.347656 c 0.19587,-0.19587 0.19587,-0.5111628 0,-0.7070312 -0.19587,-0.1958702 -0.511163,-0.1958702 -0.707031,0 L 11,15.265625 V 3.4999995 c 0,-0.277 -0.223,-0.5 -0.5,-0.5 z M 3.5,18 C 3.2230003,18 3,18.222996 3,18.5 3,18.777002 3.2229997,19 3.5,19 h 14 C 17.777002,19 18,18.777001 18,18.5 18,18.222999 17.777001,18 17.5,18 Z"
     style="fill:currentColor;fill-opacity:1;stroke-width:18.8977;stroke-linecap:round;stroke-linejoin:round"
     class="ColorScheme-Text"
     id="path2029"
     sodipodi:nodetypes="sscsccccccsccsssssssss" />
</svg>
