<?xml version="1.0" encoding="UTF-8" standalone="no"?>
<!-- Created with Inkscape (http://www.inkscape.org/) -->

<svg
   width="24"
   height="24"
   viewBox="0 0 24 24"
   version="1.1"
   id="svg11945"
   inkscape:version="1.2.2 (1:1.2.2+202305151914+b0a8486541)"
   sodipodi:docname="input-mouse.svg"
   xmlns:inkscape="http://www.inkscape.org/namespaces/inkscape"
   xmlns:sodipodi="http://sodipodi.sourceforge.net/DTD/sodipodi-0.dtd"
   xmlns="http://www.w3.org/2000/svg"
   xmlns:svg="http://www.w3.org/2000/svg">
  <sodipodi:namedview
     id="namedview11947"
     pagecolor="#ffffff"
     bordercolor="#666666"
     borderopacity="1.0"
     inkscape:pageshadow="2"
     inkscape:pageopacity="0.0"
     inkscape:pagecheckerboard="0"
     inkscape:document-units="px"
     showgrid="false"
     units="in"
     inkscape:zoom="33.583333"
     inkscape:cx="12"
     inkscape:cy="12"
     inkscape:window-width="1920"
     inkscape:window-height="1008"
     inkscape:window-x="0"
     inkscape:window-y="0"
     inkscape:window-maximized="1"
     inkscape:current-layer="svg11945"
     showguides="true"
     inkscape:showpageshadow="2"
     inkscape:deskcolor="#d1d1d1" />
  <defs
     id="defs11942">
    <style
       id="current-color-scheme"
       type="text/css">
         .ColorScheme-Text { color:#dfdfdf; }
        </style>
  </defs>
  <path
     id="path496"
     style="fill:currentColor;stroke-width:2;stroke-linecap:round;stroke-linejoin:round"
     class="ColorScheme-Text"
     d="M 10,4 C 7.7840123,4 6,5.7840132 6,8 v 6.5 A 5.5,5.5 0 0 0 11.5,20 5.5,5.5 0 0 0 17,14.5 V 8 C 17,5.7840132 15.215987,4 13,4 Z m 0,1 h 3 c 1.661989,0 3,1.3380102 3,3 v 6.5 A 4.5,4.5 0 0 1 11.5,19 4.5,4.5 0 0 1 7,14.5 V 8 C 7,6.3380102 8.3380104,5 10,5 Z m 1,1 v 4 h 1 V 6 Z" />
</svg>
