<?xml version="1.0" encoding="UTF-8" standalone="no"?>
<!-- Created with Inkscape (http://www.inkscape.org/) -->

<svg
   width="24"
   height="24"
   viewBox="0 0 24 24"
   version="1.1"
   id="svg405"
   inkscape:version="1.2.2 (1:1.2.2+202305151914+b0a8486541)"
   sodipodi:docname="input-keyboard.svg"
   xmlns:inkscape="http://www.inkscape.org/namespaces/inkscape"
   xmlns:sodipodi="http://sodipodi.sourceforge.net/DTD/sodipodi-0.dtd"
   xmlns="http://www.w3.org/2000/svg"
   xmlns:svg="http://www.w3.org/2000/svg">
  <sodipodi:namedview
     id="namedview407"
     pagecolor="#ffffff"
     bordercolor="#000000"
     borderopacity="0.25"
     inkscape:showpageshadow="2"
     inkscape:pageopacity="0.0"
     inkscape:pagecheckerboard="0"
     inkscape:deskcolor="#d1d1d1"
     inkscape:document-units="px"
     showgrid="false"
     inkscape:zoom="33.583333"
     inkscape:cx="12"
     inkscape:cy="12"
     inkscape:window-width="1920"
     inkscape:window-height="1008"
     inkscape:window-x="0"
     inkscape:window-y="0"
     inkscape:window-maximized="1"
     inkscape:current-layer="svg405" />
  <defs
     id="defs402">
    <style
       id="current-color-scheme"
       type="text/css">
         .ColorScheme-Text { color:#dfdfdf; }
        </style>
  </defs>
  <path
     id="path788"
     style="fill:currentColor;stroke-width:2;stroke-linecap:round;stroke-linejoin:round"
     class="ColorScheme-Text"
     d="M 6,6 C 4.8920033,6 4,6.8920033 4,8 v 8 c 0,1.107997 0.8920033,2 2,2 h 11 c 1.107997,0 2,-0.892003 2,-2 V 8 C 19,6.8920033 18.107997,6 17,6 Z m 0,1 h 11 c 0.553998,0 1,0.4460012 1,1 v 8 c 0,0.553998 -0.446002,1 -1,1 H 6 C 5.4460012,17 5,16.553998 5,16 V 8 C 5,7.4460012 5.4460012,7 6,7 Z M 7,8 C 6.4477165,8 6,8.4477165 6,9 6,9.5522835 6.4477165,10 7,10 7.5522835,10 8,9.5522835 8,9 8,8.4477165 7.5522835,8 7,8 Z m 3,0 C 9.4477165,8 9,8.4477165 9,9 c 0,0.5522835 0.4477165,1 1,1 0.552284,0 1,-0.4477165 1,-1 0,-0.5522835 -0.447716,-1 -1,-1 z m 3,0 c -0.552283,0 -1,0.4477165 -1,1 0,0.5522835 0.447717,1 1,1 0.552284,0 1,-0.4477165 1,-1 0,-0.5522835 -0.447716,-1 -1,-1 z m 3,0 c -0.552283,-3e-7 -1,0.4477163 -1,1 0,0.5522837 0.447717,1 1,1 0.552283,0 1,-0.4477165 1,-1 0,-0.5522835 -0.447717,-1 -1,-1 z m -9,3 c -0.5522835,0 -1,0.447717 -1,1 0,0.552284 0.4477165,1 1,1 0.5522835,0 1,-0.447716 1,-1 0,-0.552283 -0.4477165,-1 -1,-1 z m 3,0 c -0.5522835,0 -1,0.447717 -1,1 0,0.552284 0.4477165,1 1,1 0.552284,0 1,-0.447716 1,-1 0,-0.552283 -0.447716,-1 -1,-1 z m 3,0 c -0.552283,0 -1,0.447717 -1,1 0,0.552284 0.447717,1 1,1 0.552284,0 1,-0.447716 1,-1 0,-0.552283 -0.447716,-1 -1,-1 z m 3,0 c -0.552283,0 -1,0.447716 -1,1 0,0.552284 0.447717,1 1,1 0.552283,0 1,-0.447716 1,-1 0,-0.552283 -0.447717,-1 -1,-1 z m -8,3 v 2 h 7 v -2 z" />
</svg>
