<?xml version="1.0" encoding="UTF-8" standalone="no"?>
<!-- Created with Inkscape (http://www.inkscape.org/) -->

<svg
   width="24"
   height="24"
   viewBox="0 0 24 24"
   version="1.1"
   id="svg11945"
   inkscape:version="1.2.2 (1:1.2.2+202305151914+b0a8486541)"
   sodipodi:docname="network-server.svg"
   xmlns:inkscape="http://www.inkscape.org/namespaces/inkscape"
   xmlns:sodipodi="http://sodipodi.sourceforge.net/DTD/sodipodi-0.dtd"
   xmlns="http://www.w3.org/2000/svg"
   xmlns:svg="http://www.w3.org/2000/svg">
  <sodipodi:namedview
     id="namedview11947"
     pagecolor="#ffffff"
     bordercolor="#666666"
     borderopacity="1.0"
     inkscape:pageshadow="2"
     inkscape:pageopacity="0.0"
     inkscape:pagecheckerboard="0"
     inkscape:document-units="px"
     showgrid="false"
     units="in"
     inkscape:zoom="33.583333"
     inkscape:cx="12"
     inkscape:cy="12"
     inkscape:window-width="1920"
     inkscape:window-height="1008"
     inkscape:window-x="0"
     inkscape:window-y="0"
     inkscape:window-maximized="1"
     inkscape:current-layer="svg11945"
     showguides="true"
     inkscape:showpageshadow="2"
     inkscape:deskcolor="#d1d1d1" />
  <defs
     id="defs11942">
    <style
       id="current-color-scheme"
       type="text/css">
         .ColorScheme-Text { color:#dfdfdf; }
        </style>
  </defs>
  <path
     id="path4457"
     style="fill:currentColor;stroke-width:5.00001;stroke-linecap:round;stroke-linejoin:round"
     class="ColorScheme-Text"
     d="M 6.0000001,5 C 4.8920067,5 4,5.892007 4,6.9999997 V 8.9999998 C 4,10.107993 4.8920067,11 6.0000001,11 H 18 c 1.107995,0 2,-0.892007 2,-2.0000002 V 6.9999997 C 20,5.892007 19.107995,5 18,5 Z m 0,0.9999999 H 18 c 0.553998,0 1,0.4460039 1,0.9999998 v 2.0000001 c 0,0.5539975 -0.446002,0.9999999 -1,0.9999999 H 6.0000001 c -0.5539967,0 -0.9999999,-0.4460024 -0.9999999,-0.9999999 V 6.9999997 c 0,-0.5539959 0.4460032,-0.9999998 0.9999999,-0.9999998 z M 7,6.9999997 C 6.4477157,6.9999997 6.0000001,7.4477157 6.0000001,8 6.0000001,8.5522838 6.4477161,8.9999998 7,8.9999998 7.5522842,8.9999998 8.0000002,8.5522838 8.0000002,8 8.0000002,7.4477154 7.5522845,6.9999997 7,6.9999997 Z M 6.0000001,13 C 4.8920067,13 4,13.892007 4,15 v 1.999999 C 4,18.107993 4.8920067,19 6.0000001,19 H 18 c 1.107995,0 2,-0.892007 2,-2.000001 V 15 c 0,-1.107993 -0.892005,-2 -2,-2 z m 0,0.999999 H 18 c 0.553998,0 1,0.446004 1,1.000001 v 1.999999 C 19,17.553997 18.553998,18 18,18 H 6.0000001 C 5.4460034,18 5.0000002,17.553997 5.0000002,16.999999 V 15 c 0,-0.553997 0.4460032,-1.000001 0.9999999,-1.000001 z M 7,15 c -0.5522843,0 -0.9999999,0.447716 -0.9999999,1 0,0.552284 0.447716,0.999999 0.9999999,0.999999 0.5522842,0 1.0000002,-0.447715 1.0000002,-0.999999 0,-0.552285 -0.4477157,-1 -1.0000002,-1 z"
     sodipodi:nodetypes="ssssssssssssssssssssssssssssssssssssssssssssss" />
</svg>
