<?xml version="1.0" encoding="UTF-8" standalone="no"?>
<!-- Created with Inkscape (http://www.inkscape.org/) -->

<svg
   width="24"
   height="24"
   viewBox="0 0 24 24"
   version="1.1"
   id="svg371"
   xml:space="preserve"
   inkscape:version="1.2.2 (1:1.2.2+202212051552+b0a8486541)"
   sodipodi:docname="applications-all.svg"
   xmlns:inkscape="http://www.inkscape.org/namespaces/inkscape"
   xmlns:sodipodi="http://sodipodi.sourceforge.net/DTD/sodipodi-0.dtd"
   xmlns="http://www.w3.org/2000/svg"
   xmlns:svg="http://www.w3.org/2000/svg"><sodipodi:namedview
     id="namedview373"
     pagecolor="#ffffff"
     bordercolor="#000000"
     borderopacity="0.25"
     inkscape:showpageshadow="2"
     inkscape:pageopacity="0.0"
     inkscape:pagecheckerboard="0"
     inkscape:deskcolor="#d1d1d1"
     inkscape:document-units="px"
     showgrid="false"
     inkscape:zoom="33.75"
     inkscape:cx="12"
     inkscape:cy="12"
     inkscape:window-width="1920"
     inkscape:window-height="1012"
     inkscape:window-x="0"
     inkscape:window-y="0"
     inkscape:window-maximized="1"
     inkscape:current-layer="svg371"
     showguides="false"
     inkscape:lockguides="true" /><defs
     id="defs368" /><path
     d="M 2,12 C 2,4.5 4.5,2 12,2 19.5,2 22,4.5 22,12 22,19.5 19.5,22 12,22 4.5,22 2,19.5 2,12"
     style="fill:#4aa9ed;fill-opacity:1;stroke-width:0.1"
     id="path311" /><path
     id="path341"
     style="fill:#ffffff;stroke-width:1.25"
     d="M 8.5,6 C 7.1192895,6 6,7.1192897 6,8.5 6,9.8807103 7.1192895,11 8.5,11 9.8807103,11 11,9.8807111 11,8.5 11,7.1192897 9.8807103,5.9999998 8.5,6 Z m 7,0 C 14.119289,6 13,7.1192897 13,8.5 13,9.8807099 14.119289,11 15.5,11 16.880711,11 18,9.8807108 18,8.5 18,7.1192897 16.880711,5.9999998 15.5,6 Z m -7,7 C 7.1192892,13 6,14.119289 6,15.5 6,16.88071 7.1192892,18 8.5,18 9.8807101,18 11,16.880711 11,15.5 11,14.119289 9.8807101,13 8.5,13 Z m 7,0 C 14.119289,13 13,14.119289 13,15.5 13,16.880711 14.119289,18 15.5,18 16.880711,18 18,16.880711 18,15.5 18,14.119289 16.880711,13 15.5,13 Z" /></svg>
