<?xml version="1.0" encoding="UTF-8" standalone="no"?>
<!-- Created with Inkscape (http://www.inkscape.org/) -->

<svg
   width="24"
   height="24"
   viewBox="0 0 24 24"
   version="1.1"
   id="svg371"
   xml:space="preserve"
   inkscape:version="1.2.2 (1:1.2.2+202305151914+b0a8486541)"
   sodipodi:docname="applications-graphics.svg"
   xmlns:inkscape="http://www.inkscape.org/namespaces/inkscape"
   xmlns:sodipodi="http://sodipodi.sourceforge.net/DTD/sodipodi-0.dtd"
   xmlns:xlink="http://www.w3.org/1999/xlink"
   xmlns="http://www.w3.org/2000/svg"
   xmlns:svg="http://www.w3.org/2000/svg"><sodipodi:namedview
     id="namedview373"
     pagecolor="#ffffff"
     bordercolor="#000000"
     borderopacity="0.25"
     inkscape:showpageshadow="2"
     inkscape:pageopacity="0.0"
     inkscape:pagecheckerboard="0"
     inkscape:deskcolor="#d1d1d1"
     inkscape:document-units="px"
     showgrid="false"
     inkscape:zoom="34.583333"
     inkscape:cx="11.985542"
     inkscape:cy="12"
     inkscape:window-width="1920"
     inkscape:window-height="1008"
     inkscape:window-x="0"
     inkscape:window-y="0"
     inkscape:window-maximized="1"
     inkscape:current-layer="svg371"
     showguides="false" /><defs
     id="defs368"><linearGradient
       inkscape:collect="always"
       id="linearGradient2222"><stop
         style="stop-color:#8550ec;stop-opacity:1;"
         offset="0"
         id="stop2218" /><stop
         style="stop-color:#7c86fc;stop-opacity:1;"
         offset="1"
         id="stop2220" /></linearGradient><linearGradient
       inkscape:collect="always"
       xlink:href="#linearGradient2222"
       id="linearGradient3251"
       x1="16"
       y1="31"
       x2="16"
       y2="1"
       gradientUnits="userSpaceOnUse"
       gradientTransform="matrix(0.66666666,0,0,0.66666666,1.3333333,1.3333333)" /></defs><path
     d="M 2,12 C 2,4.5 4.5,2 12,2 19.5,2 22,4.5 22,12 22,19.5 19.5,22 12,22 4.5,22 2,19.5 2,12"
     style="fill:url(#linearGradient3251);fill-opacity:1;stroke-width:0.1"
     id="path311" /><path
     id="path295"
     style="opacity:0.5;fill:#ffffff;stroke-width:0.0838179"
     d="M 11.957031,6 C 11.457712,6.00427 11.040361,6.057985 10.748047,6.095703 10.077507,6.187902 8.776793,6.3547823 7.5195312,7.2851561 5.7174561,8.6178537 4.4280193,11.207906 5.2578125,12.431641 c 0.3017427,0.43585 0.8036479,0.603359 1.1640625,0.720703 1.5673864,0.511286 2.6076196,-0.543919 3.2949219,-0.04102 0.5951041,0.435851 -0.1677721,1.608276 0.5195311,2.429688 0.326889,0.393941 0.453062,0.592844 0.65625,0.570312 0.434698,0.0046 3.488281,-1.509766 3.488281,-1.509766 L 17,8.375 C 16.337842,7.4111002 15.432023,6.9330925 14.9375,6.6816406 13.847873,6.1211112 12.789231,5.9928789 11.957031,6 Z M 12,7 A 1,1 0 0 1 13,8 1,1 0 0 1 12,9 1,1 0 0 1 11,8 1,1 0 0 1 12,7 Z M 9,8 A 1,1 0 0 1 10,9 1,1 0 0 1 9,10 1,1 0 0 1 8,9 1,1 0 0 1 9,8 Z m -2,2 a 1,1 0 0 1 1,1 1,1 0 0 1 -1,1 1,1 0 0 1 -1,-1 1,1 0 0 1 1,-1 z" /><path
     d="m 12.353106,19.169934 c -0.275216,0.01059 -0.486921,-0.317558 -0.529262,-0.381069 -0.783309,-0.82565 -1.037355,-2.011198 -0.635115,-3.048553 0.391654,-1.037354 1.280815,-1.49252 1.757151,-1.683054 0.190535,-0.0741 0.40224,-0.05293 0.582189,0.05293 l 1.704225,0.984428 c 0.169364,0.09527 0.190535,0.328143 0.05293,0.465751 -1.02677,0.899746 -1.439595,1.577202 -1.640714,2.064124 -0.190535,0.476336 -0.444581,0.772723 -0.973843,1.354912 -0.04234,0.05293 -0.148194,0.179949 -0.317558,0.190535 z m 3.491387,-5.059639 -1.849507,-1.069813 4.128994,-6.6529829 c 0.226655,-0.3717145 0.71623,-0.4986418 1.097011,-0.2810527 l 0.09066,0.054396 c 0.40798,0.2266552 0.553039,0.7434288 0.326383,1.151409 -1.278335,2.4116117 -2.315751,4.3139006 -3.58502,6.7255116 -0.03626,0.09066 -0.269003,0.01205 -0.208523,0.07253 z"
     style="fill:#ffffff;stroke-width:0.0838179"
     id="path1238"
     sodipodi:nodetypes="sccccccccsscccccccsc" /><path
     id="rect1333"
     style="fill:#5637bb;stroke-width:4;stroke-linecap:square"
     d="m 14.165193,13.138935 1.679298,0.971358 -0.612197,0.984323 -1.704225,-0.984428 z"
     sodipodi:nodetypes="ccccc" /></svg>
