<?xml version="1.0" encoding="UTF-8" standalone="no"?>
<!-- Created with Inkscape (http://www.inkscape.org/) -->

<svg
   width="24"
   height="24"
   viewBox="0 0 24 24"
   version="1.1"
   id="svg371"
   xml:space="preserve"
   inkscape:version="1.3.2 (1:1.3.2+202311252150+091e20ef0f)"
   sodipodi:docname="preferences-system.svg"
   xmlns:inkscape="http://www.inkscape.org/namespaces/inkscape"
   xmlns:sodipodi="http://sodipodi.sourceforge.net/DTD/sodipodi-0.dtd"
   xmlns:xlink="http://www.w3.org/1999/xlink"
   xmlns="http://www.w3.org/2000/svg"
   xmlns:svg="http://www.w3.org/2000/svg"><sodipodi:namedview
     id="namedview373"
     pagecolor="#ffffff"
     bordercolor="#000000"
     borderopacity="0.25"
     inkscape:showpageshadow="2"
     inkscape:pageopacity="0.0"
     inkscape:pagecheckerboard="0"
     inkscape:deskcolor="#d1d1d1"
     inkscape:document-units="px"
     showgrid="false"
     inkscape:zoom="33.791667"
     inkscape:cx="12"
     inkscape:cy="12"
     inkscape:window-width="1920"
     inkscape:window-height="1008"
     inkscape:window-x="0"
     inkscape:window-y="0"
     inkscape:window-maximized="1"
     inkscape:current-layer="svg371"
     showguides="false"
     inkscape:lockguides="true" /><defs
     id="defs368"><linearGradient
       inkscape:collect="always"
       id="linearGradient3038"><stop
         style="stop-color:#3f495d;stop-opacity:1;"
         offset="0"
         id="stop3034" /><stop
         style="stop-color:#4f5b70;stop-opacity:1;"
         offset="1"
         id="stop3036" /></linearGradient><linearGradient
       inkscape:collect="always"
       xlink:href="#linearGradient3038"
       id="linearGradient2101"
       x1="11"
       y1="21"
       x2="11"
       y2="1"
       gradientUnits="userSpaceOnUse"
       gradientTransform="translate(1,1)" /></defs><path
     d="M 2,12 C 2,4.5 4.5,2 12,2 19.5,2 22,4.5 22,12 22,19.5 19.5,22 12,22 4.5,22 2,19.5 2,12"
     style="fill:url(#linearGradient2101);fill-opacity:1;stroke-width:0.1"
     id="path311" /><path
     id="path235"
     style="fill:#ffffff;stroke-width:0.4375"
     d="M 12,5 A 7,7 0 0 0 10.763672,5.123047 1.5,1.5 0 0 1 9.895508,6.918946 1.5,1.5 0 0 1 8.025391,6.253906 7,7 0 0 0 6.263672,8.012696 1.5,1.5 0 0 1 6.918946,9.895508 1.5,1.5 0 0 1 5.126953,10.747071 7,7 0 0 0 5,12 a 7,7 0 0 0 0.125977,1.248047 1.5,1.5 0 0 1 0.210937,-0.05664 1.5,1.5 0 0 1 1.582032,0.913086 1.5,1.5 0 0 1 -0.655274,1.882812 7,7 0 0 0 1.758789,1.75586 A 1.5,1.5 0 0 1 9.125,16.98047 1.5,1.5 0 0 1 9.895508,17.081055 1.5,1.5 0 0 1 10.763672,18.876954 7,7 0 0 0 12,19 a 7,7 0 0 0 1.252929,-0.126953 1.5,1.5 0 0 1 0.851563,-1.791993 1.5,1.5 0 0 1 0.378906,-0.100585 1.5,1.5 0 0 1 1.490235,0.766601 7,7 0 0 0 1.772461,-1.772461 1.5,1.5 0 0 1 -0.66504,-1.870117 1.5,1.5 0 0 1 1.19043,-0.913086 1.5,1.5 0 0 1 0.602539,0.05664 A 7,7 0 0 0 19,12 7,7 0 0 0 18.884765,10.744141 1.5,1.5 0 0 1 17.081054,9.895508 1.5,1.5 0 0 1 17.755859,8.019531 7,7 0 0 0 15.980469,6.244141 1.5,1.5 0 0 1 14.104492,6.918946 1.5,1.5 0 0 1 13.255859,5.115235 7,7 0 0 0 12,5 Z" /><circle
     style="fill:#3c4862;fill-opacity:1;stroke-width:0.500001"
     id="path686"
     cx="12"
     cy="12"
     r="3" /></svg>
