<?xml version="1.0" encoding="UTF-8" standalone="no"?>
<svg
   viewbox="0 0 200 200"
   version="1.1"
   id="svg4"
   sodipodi:docname="dialog-error.svg"
   width="48"
   height="48"
   inkscape:version="1.2.2 (1:1.2.2+202305151914+b0a8486541)"
   xmlns:inkscape="http://www.inkscape.org/namespaces/inkscape"
   xmlns:sodipodi="http://sodipodi.sourceforge.net/DTD/sodipodi-0.dtd"
   xmlns:xlink="http://www.w3.org/1999/xlink"
   xmlns="http://www.w3.org/2000/svg"
   xmlns:svg="http://www.w3.org/2000/svg">
  <defs
     id="defs8">
    <linearGradient
       inkscape:collect="always"
       xlink:href="#linearGradient869"
       id="linearGradient918"
       x1="16"
       y1="31"
       x2="16"
       y2="0.9999997"
       gradientUnits="userSpaceOnUse"
       gradientTransform="matrix(1.4666667,0,0,1.4666667,0.5333335,0.5333338)" />
    <linearGradient
       inkscape:collect="always"
       id="linearGradient869">
      <stop
         style="stop-color:#d82727;stop-opacity:1;"
         offset="0"
         id="stop865" />
      <stop
         style="stop-color:#de4949;stop-opacity:1;"
         offset="1"
         id="stop867" />
    </linearGradient>
  </defs>
  <sodipodi:namedview
     id="namedview6"
     pagecolor="#ffffff"
     bordercolor="#666666"
     borderopacity="1.0"
     inkscape:pageshadow="2"
     inkscape:pageopacity="0.0"
     inkscape:pagecheckerboard="0"
     showgrid="false"
     inkscape:zoom="16.791667"
     inkscape:cx="24"
     inkscape:cy="24"
     inkscape:window-width="1920"
     inkscape:window-height="1008"
     inkscape:window-x="0"
     inkscape:window-y="0"
     inkscape:window-maximized="1"
     inkscape:current-layer="svg4"
     showguides="false"
     inkscape:showpageshadow="2"
     inkscape:deskcolor="#d1d1d1" />
  <path
     d="M 2,24 C 2,7.5 7.5,2 24,2 40.5,2 46,7.5 46,24 46,40.5 40.5,46 24,46 7.5,46 2,40.5 2,24"
     style="fill:url(#linearGradient918);fill-opacity:1.0;stroke-width:0.22"
     id="path311" />
  <path
     id="rect344"
     style="fill:#ffffff;stroke-width:0.57735;stroke-linecap:round;stroke-linejoin:round"
     d="m 24,10 c -1.108,0 -2,0.892001 -2,2 v 16 c 0,1.107998 0.892,2 2,2 1.107999,0 2,-0.892002 2,-2 V 12 c 0,-1.107999 -0.892001,-2 -2,-2 z m 0,24 c -1.104569,0 -2,0.895431 -2,2 0,1.10457 0.895431,2 2,2 1.104569,0 2,-0.89543 2,-2 0,-1.104569 -0.895431,-2 -2,-2 z"
     sodipodi:nodetypes="ssssssssssss" />
</svg>
