<?xml version="1.0" encoding="UTF-8" standalone="no"?>
<svg
   viewbox="0 0 200 200"
   version="1.1"
   id="svg4"
   sodipodi:docname="dialog-warning.svg"
   width="48"
   height="48"
   inkscape:version="1.2.2 (1:1.2.2+202305151914+b0a8486541)"
   xmlns:inkscape="http://www.inkscape.org/namespaces/inkscape"
   xmlns:sodipodi="http://sodipodi.sourceforge.net/DTD/sodipodi-0.dtd"
   xmlns:xlink="http://www.w3.org/1999/xlink"
   xmlns="http://www.w3.org/2000/svg"
   xmlns:svg="http://www.w3.org/2000/svg">
  <defs
     id="defs8">
    <linearGradient
       inkscape:collect="always"
       id="linearGradient1836">
      <stop
         style="stop-color:#ff9b11;stop-opacity:1;"
         offset="0"
         id="stop1832" />
      <stop
         style="stop-color:#f9c100;stop-opacity:1;"
         offset="1"
         id="stop1834" />
    </linearGradient>
    <linearGradient
       inkscape:collect="always"
       xlink:href="#linearGradient1836"
       id="linearGradient1147"
       x1="16"
       y1="31"
       x2="16"
       y2="1"
       gradientUnits="userSpaceOnUse"
       gradientTransform="matrix(1.4666667,0,0,1.4666667,0.53333333,0.53333333)" />
  </defs>
  <sodipodi:namedview
     id="namedview6"
     pagecolor="#ffffff"
     bordercolor="#666666"
     borderopacity="1.0"
     inkscape:pageshadow="2"
     inkscape:pageopacity="0.0"
     inkscape:pagecheckerboard="0"
     showgrid="false"
     inkscape:zoom="16.791667"
     inkscape:cx="24"
     inkscape:cy="24"
     inkscape:window-width="1920"
     inkscape:window-height="1008"
     inkscape:window-x="0"
     inkscape:window-y="0"
     inkscape:window-maximized="1"
     inkscape:current-layer="svg4"
     showguides="false"
     inkscape:showpageshadow="2"
     inkscape:deskcolor="#d1d1d1" />
  <path
     d="M 2,24 C 2,7.5 7.5,2 24,2 40.5,2 46,7.5 46,24 46,40.5 40.5,46 24,46 7.5,46 2,40.5 2,24"
     style="fill:url(#linearGradient1147);fill-opacity:1;stroke-width:0.22"
     id="path311" />
  <path
     id="rect850"
     style="fill:#ffffff;stroke-width:0.39985;stroke-linecap:round;stroke-linejoin:round"
     d="m 23.994307,9.67547 c -0.819692,0 -1.639152,0.404692 -2.108977,1.214388 L 8.3302584,34.361131 C 7.3906112,35.980523 8.5701694,38 10.429474,38 h 27.109751 c 1.899287,0.02 3.059086,-1.999483 2.139431,-3.638869 L 26.103668,10.889858 C 25.633847,10.080162 24.813999,9.67547 23.994307,9.67547 Z"
     sodipodi:nodetypes="sccscccs" />
  <path
     id="path1462"
     style="fill:#e18b1f;fill-opacity:1;stroke-width:4;stroke-linecap:round;stroke-linejoin:round"
     d="m 24,16 c -1.107998,0 -2,0.892002 -2,2 v 9 c 0,1.107998 0.892002,2 2,2 1.107998,0 2,-0.892002 2,-2 v -9 c 0,-1.107998 -0.892002,-2 -2,-2 z m 0,15 c -1.10457,0 -2,0.89543 -2,2 0,1.10457 0.89543,2 2,2 1.10457,0 2,-0.89543 2,-2 0,-1.10457 -0.89543,-2 -2,-2 z"
     sodipodi:nodetypes="ssssssssssss" />
</svg>
