<?xml version="1.0" encoding="UTF-8" standalone="no"?>
<!-- Created with Inkscape (http://www.inkscape.org/) -->

<svg
   width="48"
   height="48"
   viewBox="0 0 48 48.000001"
   version="1.1"
   id="svg5"
   inkscape:version="1.2.2 (1:1.2.2+202305151914+b0a8486541)"
   sodipodi:docname="weather-clouds-night.svg"
   xmlns:inkscape="http://www.inkscape.org/namespaces/inkscape"
   xmlns:sodipodi="http://sodipodi.sourceforge.net/DTD/sodipodi-0.dtd"
   xmlns="http://www.w3.org/2000/svg"
   xmlns:svg="http://www.w3.org/2000/svg">
  <sodipodi:namedview
     id="namedview7"
     pagecolor="#ffffff"
     bordercolor="#000000"
     borderopacity="0.25"
     inkscape:showpageshadow="2"
     inkscape:pageopacity="0.0"
     inkscape:pagecheckerboard="0"
     inkscape:deskcolor="#d1d1d1"
     inkscape:document-units="px"
     showgrid="false"
     inkscape:zoom="16.791667"
     inkscape:cx="24"
     inkscape:cy="24"
     inkscape:window-width="1920"
     inkscape:window-height="1008"
     inkscape:window-x="0"
     inkscape:window-y="0"
     inkscape:window-maximized="1"
     inkscape:current-layer="svg5" />
  <defs
     id="defs2" />
  <path
     id="path286"
     style="fill:#fdbb1c;fill-opacity:1;stroke-width:1.38461;stroke-linecap:round;stroke-linejoin:round"
     d="M 32.391113,6.3911132 A 9,9 0 0 0 26,15 9,9 0 0 0 35,24 9,9 0 0 0 43.608887,17.608887 9,9 0 0 1 41,18 9,9 0 0 1 32,9 9,9 0 0 1 32.391113,6.3911132 Z" />
  <path
     id="rect340"
     style="fill:#dedede;stroke-width:3;stroke-linecap:round;stroke-linejoin:round"
     d="m 23.000001,22 h 12 C 39.986001,22 44,26.014 44,31 c 0,4.986 -4.013999,9 -8.999999,9 H 18 c 0,0 -3.999999,-4.014 -3.999999,-9 0,-4.986 4.014,-9 9,-9 z"
     sodipodi:nodetypes="sssscss" />
  <circle
     style="fill:#f8f8f8;fill-opacity:1;stroke-width:3.11111;stroke-linecap:round;stroke-linejoin:round"
     id="path1224"
     cx="18"
     cy="26"
     r="14" />
</svg>
