<?xml version="1.0" encoding="UTF-8" standalone="no"?>
<svg
   viewbox="0 0 200 200"
   version="1.1"
   id="svg4"
   sodipodi:docname="dialog-information.svg"
   width="32"
   height="32"
   inkscape:version="1.2.1 (9c6d41e410, 2022-07-14, custom)"
   xmlns:inkscape="http://www.inkscape.org/namespaces/inkscape"
   xmlns:sodipodi="http://sodipodi.sourceforge.net/DTD/sodipodi-0.dtd"
   xmlns="http://www.w3.org/2000/svg"
   xmlns:svg="http://www.w3.org/2000/svg">
  <defs
     id="defs8" />
  <sodipodi:namedview
     id="namedview6"
     pagecolor="#ffffff"
     bordercolor="#666666"
     borderopacity="1.0"
     inkscape:pageshadow="2"
     inkscape:pageopacity="0.0"
     inkscape:pagecheckerboard="0"
     showgrid="false"
     inkscape:zoom="22.625"
     inkscape:cx="15.977901"
     inkscape:cy="16"
     inkscape:window-width="1920"
     inkscape:window-height="947"
     inkscape:window-x="0"
     inkscape:window-y="0"
     inkscape:window-maximized="1"
     inkscape:current-layer="svg4"
     showguides="false"
     inkscape:showpageshadow="2"
     inkscape:deskcolor="#d1d1d1" />
  <path
     d="m 0.9999999,16 c 0,-11.2500003 3.75,-15.0000003 15.0000001,-15.0000003 11.25,0 15,3.75 15,15.0000003 C 31,27.25 27.25,31 16,31 4.7499999,31 0.9999999,27.25 0.9999999,16"
     style="fill:#66ccff;fill-opacity:1;stroke-width:0.15"
     id="path311" />
  <path
     id="rect850"
     style="fill:#ffffff;fill-opacity:1;stroke-width:0.25;stroke-linecap:round;stroke-linejoin:round"
     d="M 16,6 C 10.475,6 6,10.475 6,16 6,21.525 10.475,26 16,26 21.525,26 26,21.525 26,16 26,10.475 21.525,6 16,6 Z m 0,2.8125 c 0.4125,0 0.724902,0.1124025 0.962402,0.3374025 0.2375,0.225 0.350098,0.5375485 0.350098,0.9250485 0,0.4125 -0.112403,0.724952 -0.337403,0.949952 -0.225,0.224999 -0.550097,0.337646 -0.975097,0.337646 -0.4125,0 -0.724903,-0.112647 -0.962402,-0.337646 -0.2375,-0.225 -0.350098,-0.537305 -0.350098,-0.924805 0,-0.4125005 0.112403,-0.7251955 0.337403,-0.9501955 C 15.249902,8.9249025 15.575,8.8125 16,8.8125 Z m -1.0625,3.949951 h 2.125 V 22.5625 h -2.125 z" />
</svg>
