<?xml version="1.0" encoding="UTF-8" standalone="no"?>
<!-- Created with Inkscape (http://www.inkscape.org/) -->

<svg
   width="32"
   height="32"
   viewBox="0 0 32 32.000001"
   version="1.1"
   id="svg5"
   inkscape:version="1.2.2 (1:1.2.2+202305151914+b0a8486541)"
   sodipodi:docname="weather-few-clouds-night.svg"
   xmlns:inkscape="http://www.inkscape.org/namespaces/inkscape"
   xmlns:sodipodi="http://sodipodi.sourceforge.net/DTD/sodipodi-0.dtd"
   xmlns="http://www.w3.org/2000/svg"
   xmlns:svg="http://www.w3.org/2000/svg">
  <sodipodi:namedview
     id="namedview7"
     pagecolor="#ffffff"
     bordercolor="#000000"
     borderopacity="0.25"
     inkscape:showpageshadow="2"
     inkscape:pageopacity="0.0"
     inkscape:pagecheckerboard="0"
     inkscape:deskcolor="#d1d1d1"
     inkscape:document-units="px"
     showgrid="false"
     inkscape:zoom="25.3125"
     inkscape:cx="14.893827"
     inkscape:cy="16"
     inkscape:window-width="1920"
     inkscape:window-height="1008"
     inkscape:window-x="0"
     inkscape:window-y="0"
     inkscape:window-maximized="1"
     inkscape:current-layer="svg5" />
  <defs
     id="defs2" />
  <path
     id="path286"
     style="fill:#fdbb1c;fill-opacity:1;stroke-width:1.84615;stroke-linecap:round;stroke-linejoin:round"
     d="M 14.521484,4.5214844 A 12,12 0 0 0 6,16 12,12 0 0 0 18,28 12,12 0 0 0 29.478516,19.478516 12,12 0 0 1 26,20 12,12 0 0 1 14,8 12,12 0 0 1 14.521484,4.5214844 Z" />
  <path
     id="rect340"
     style="fill:#dedede;stroke-width:1.33333;stroke-linecap:round;stroke-linejoin:round"
     d="M 9.6666667,22 H 15 c 2.216,0 4,1.784 4,4 0,2.216 -1.784,4 -4,4 H 7.9999998 c 0,0 -2.333333,-1.784 -2.333333,-4 0,-2.216 1.784,-4 3.9999999,-4 z"
     sodipodi:nodetypes="sssscss" />
  <circle
     style="fill:#f8f8f8;fill-opacity:1;stroke-width:2;stroke-linecap:round;stroke-linejoin:round"
     id="path340"
     cx="8"
     cy="24"
     r="6" />
</svg>
