<?xml version="1.0" encoding="UTF-8" standalone="no"?>
<!-- Created with Inkscape (http://www.inkscape.org/) -->

<svg
   width="48"
   height="48"
   viewBox="0 0 48 48"
   version="1.1"
   id="svg371"
   xml:space="preserve"
   inkscape:version="1.2.2 (1:1.2.2+202305151914+b0a8486541)"
   sodipodi:docname="folder-default-desktop.svg"
   xmlns:inkscape="http://www.inkscape.org/namespaces/inkscape"
   xmlns:sodipodi="http://sodipodi.sourceforge.net/DTD/sodipodi-0.dtd"
   xmlns:xlink="http://www.w3.org/1999/xlink"
   xmlns="http://www.w3.org/2000/svg"
   xmlns:svg="http://www.w3.org/2000/svg"><sodipodi:namedview
     id="namedview373"
     pagecolor="#ffffff"
     bordercolor="#000000"
     borderopacity="0.25"
     inkscape:showpageshadow="2"
     inkscape:pageopacity="0.0"
     inkscape:pagecheckerboard="0"
     inkscape:deskcolor="#d1d1d1"
     inkscape:document-units="px"
     showgrid="false"
     inkscape:zoom="16.791667"
     inkscape:cx="23.970223"
     inkscape:cy="24"
     inkscape:window-width="1920"
     inkscape:window-height="1008"
     inkscape:window-x="0"
     inkscape:window-y="0"
     inkscape:window-maximized="1"
     inkscape:current-layer="svg371"
     showguides="true" /><defs
     id="defs368"><linearGradient
       inkscape:collect="always"
       xlink:href="#linearGradient3251"
       id="linearGradient11098"
       x1="32"
       y1="62"
       x2="32"
       y2="2"
       gradientUnits="userSpaceOnUse"
       gradientTransform="matrix(0.73333335,0,0,0.73333335,0.5333333,0.5333333)" /><linearGradient
       inkscape:collect="always"
       id="linearGradient3251"><stop
         style="stop-color:#1365de;stop-opacity:1;"
         offset="0"
         id="stop3247" /><stop
         style="stop-color:#1e87e9;stop-opacity:1;"
         offset="1"
         id="stop3249" /></linearGradient></defs><path
     d="M 2,24 C 2,7.5 7.5,2 24,2 40.5,2 46,7.5 46,24 46,40.5 40.5,46 24,46 7.5,46 2,40.5 2,24"
     style="fill:url(#linearGradient11098);fill-opacity:1.0;stroke-width:0.22"
     id="path311" /><rect
     style="fill:#ffffff;fill-opacity:1;stroke-width:1.5;stroke-linecap:round;stroke-linejoin:round"
     id="rect3064"
     width="30"
     height="24"
     x="9"
     y="12"
     ry="3" /><path
     id="path1251"
     style="fill:#3a7af3;fill-opacity:1;stroke-width:1.00002;stroke-linecap:round"
     d="m 13,14 c -1.104556,0 -1.999982,0.895425 -2,2 1.8e-5,1.104575 0.895444,2 2,2 1.104556,0 1.999982,-0.895425 2,-2 -1.8e-5,-1.104575 -0.895444,-2 -2,-2 z m 0,6 c -1.104556,-1e-6 -1.999982,0.895425 -2,2 1.9e-5,1.104574 0.895444,1.999999 2,1.999999 1.104556,0 1.999981,-0.895425 2,-1.999999 -1.8e-5,-1.104575 -0.895444,-2.000001 -2,-2 z"
     sodipodi:nodetypes="scscsscscs" /><rect
     style="fill:#1c5cd7;fill-opacity:1;stroke-width:1.5;stroke-linecap:round"
     id="rect524"
     width="26"
     height="3"
     x="11"
     y="31"
     ry="1.5" /></svg>
