<?xml version="1.0" encoding="UTF-8" standalone="no"?>
<!-- Created with Inkscape (http://www.inkscape.org/) -->

<svg
   width="48"
   height="48"
   viewBox="0 0 48 48"
   version="1.1"
   id="svg371"
   xml:space="preserve"
   inkscape:version="1.2.2 (1:1.2.2+202305151914+b0a8486541)"
   sodipodi:docname="folder-default-development.svg"
   xmlns:inkscape="http://www.inkscape.org/namespaces/inkscape"
   xmlns:sodipodi="http://sodipodi.sourceforge.net/DTD/sodipodi-0.dtd"
   xmlns:xlink="http://www.w3.org/1999/xlink"
   xmlns="http://www.w3.org/2000/svg"
   xmlns:svg="http://www.w3.org/2000/svg"><sodipodi:namedview
     id="namedview373"
     pagecolor="#ffffff"
     bordercolor="#000000"
     borderopacity="0.25"
     inkscape:showpageshadow="2"
     inkscape:pageopacity="0.0"
     inkscape:pagecheckerboard="0"
     inkscape:deskcolor="#d1d1d1"
     inkscape:document-units="px"
     showgrid="false"
     inkscape:zoom="16.791667"
     inkscape:cx="24"
     inkscape:cy="24"
     inkscape:window-width="1920"
     inkscape:window-height="1008"
     inkscape:window-x="0"
     inkscape:window-y="0"
     inkscape:window-maximized="1"
     inkscape:current-layer="svg371"
     showguides="false" /><defs
     id="defs368"><linearGradient
       inkscape:collect="always"
       id="linearGradient1836"><stop
         style="stop-color:#f69000;stop-opacity:1;"
         offset="0"
         id="stop1832" /><stop
         style="stop-color:#f9a900;stop-opacity:1;"
         offset="1"
         id="stop1834" /></linearGradient><linearGradient
       inkscape:collect="always"
       xlink:href="#linearGradient1836"
       id="linearGradient2614"
       x1="24"
       y1="46"
       x2="24"
       y2="2"
       gradientUnits="userSpaceOnUse" /></defs><path
     d="M 2,24 C 2,7.5 7.5,2 24,2 40.5,2 46,7.5 46,24 46,40.5 40.5,46 24,46 7.5,46 2,40.5 2,24"
     style="fill:url(#linearGradient2614);fill-opacity:1;stroke-width:0.22"
     id="path311" /><path
     id="rect419"
     style="opacity:1;fill:#ffdea2;fill-opacity:1;stroke-width:1.06066"
     d="m 11,10 c -1.107998,0 -2,0.892002 -2,2 v 10 c 0,1.107998 0.892002,2 2,2 h 15 v -7 c -1.104569,0 -2,-0.895431 -2,-2 v -3 c 0,-1.107998 -0.892002,-2 -2,-2 z"
     sodipodi:nodetypes="ssscccssss" /><rect
     style="fill:#ffffff;fill-opacity:1;stroke-width:1.08343"
     id="rect556"
     width="30"
     height="23"
     x="9"
     y="15"
     ry="3" /><path
     id="path1179"
     style="fill:#e38300;fill-opacity:1;stroke-width:1.75;stroke-linecap:round;stroke-linejoin:round"
     d="m 23.124999,20 c -0.484748,0 -0.773431,0.401012 -0.875,0.875 l -0.484375,2.255859 -2.195313,-0.708984 c -0.449862,-0.180569 -0.952938,-0.09949 -1.195312,0.320313 l -0.875,1.515625 c -0.242374,0.419804 -0.03939,0.870356 0.320312,1.195312 L 19.533202,27 17.820311,28.546875 c -0.359701,0.324956 -0.562686,0.775508 -0.320312,1.195313 l 0.875,1.515624 c 0.242374,0.419806 0.745451,0.500883 1.195312,0.320313 l 2.195313,-0.708984 0.484375,2.255859 c 0.06856,0.479876 0.390252,0.875 0.875,0.875 h 1.75 c 0.48475,0 0.773431,-0.401012 0.875,-0.875 l 0.484375,-2.255859 2.195313,0.708984 c 0.44986,0.180571 0.952938,0.0995 1.195312,-0.320313 l 0.875,-1.515623 c 0.242375,-0.419806 0.0394,-0.870357 -0.320312,-1.195313 L 28.466796,27 30.179687,25.453125 c 0.359702,-0.324956 0.562687,-0.775508 0.320312,-1.195312 l -0.875,-1.515625 C 29.382625,22.322383 28.879548,22.241306 28.429687,22.421875 L 26.234374,23.130859 25.749999,20.875 C 25.681439,20.395124 25.359749,20 24.874999,20 Z m 0.875,4 c 1.656852,0 3,1.343148 3,3 0,1.656852 -1.343148,3 -3,3 -1.656852,0 -3,-1.343148 -3,-3 0,-1.656852 1.343148,-3 3,-3 z" /></svg>
