<?xml version="1.0" encoding="UTF-8" standalone="no"?>
<!-- Created with Inkscape (http://www.inkscape.org/) -->

<svg
   width="48"
   height="48"
   viewBox="0 0 48 48"
   version="1.1"
   id="svg371"
   xml:space="preserve"
   inkscape:version="1.2.2 (1:1.2.2+202305151914+b0a8486541)"
   sodipodi:docname="folder-yellow-recent.svg"
   xmlns:inkscape="http://www.inkscape.org/namespaces/inkscape"
   xmlns:sodipodi="http://sodipodi.sourceforge.net/DTD/sodipodi-0.dtd"
   xmlns:xlink="http://www.w3.org/1999/xlink"
   xmlns="http://www.w3.org/2000/svg"
   xmlns:svg="http://www.w3.org/2000/svg"><sodipodi:namedview
     id="namedview373"
     pagecolor="#ffffff"
     bordercolor="#000000"
     borderopacity="0.25"
     inkscape:showpageshadow="2"
     inkscape:pageopacity="0.0"
     inkscape:pagecheckerboard="0"
     inkscape:deskcolor="#d1d1d1"
     inkscape:document-units="px"
     showgrid="false"
     inkscape:zoom="16.791667"
     inkscape:cx="24.059553"
     inkscape:cy="24"
     inkscape:window-width="1920"
     inkscape:window-height="1008"
     inkscape:window-x="0"
     inkscape:window-y="0"
     inkscape:window-maximized="1"
     inkscape:current-layer="svg371"
     showguides="false" /><defs
     id="defs368"><linearGradient
       inkscape:collect="always"
       xlink:href="#linearGradient19728"
       id="linearGradient14812"
       x1="24"
       y1="46"
       x2="24"
       y2="2"
       gradientUnits="userSpaceOnUse" /><linearGradient
       inkscape:collect="always"
       id="linearGradient19728"><stop
         style="stop-color:#ff9b11;stop-opacity:1;"
         offset="0"
         id="stop19724" /><stop
         style="stop-color:#f9c100;stop-opacity:1;"
         offset="1"
         id="stop19726" /></linearGradient></defs><path
     d="M 2,24 C 2,7.5 7.5,2 24,2 40.5,2 46,7.5 46,24 46,40.5 40.5,46 24,46 7.5,46 2,40.5 2,24"
     style="fill:url(#linearGradient14812);fill-opacity:1.0;stroke-width:0.22"
     id="path311" /><path
     id="rect419"
     style="opacity:1;fill:#ffea92;fill-opacity:1;stroke-width:1.06066"
     d="m 11,10 c -1.107998,0 -2,0.892002 -2,2 v 10 c 0,1.107998 0.892002,2 2,2 h 15 v -7 c -1.104569,0 -2,-0.895431 -2,-2 v -3 c 0,-1.107998 -0.892002,-2 -2,-2 z"
     sodipodi:nodetypes="ssscccssss" /><rect
     style="fill:#ffffff;fill-opacity:1;stroke-width:1.08343"
     id="rect556"
     width="30"
     height="23"
     x="9"
     y="15"
     ry="3" /><path
     id="path3931"
     style="fill:#eaaa00;fill-opacity:1;stroke-width:1.4;stroke-linecap:round;stroke-linejoin:round"
     d="M 24 20 C 20.134015 20 17 23.134015 17 27 C 17 30.865985 20.134015 34 24 34 C 27.865985 34 31 30.865985 31 27 C 31 23.134015 27.865985 20 24 20 z M 24 22 C 24.553997 22 25 22.446003 25 23 L 25 26.583984 L 26.951172 28.537109 C 27.342907 28.928846 27.342907 29.559435 26.951172 29.951172 C 26.559435 30.342907 25.928887 30.342868 25.537109 29.951172 L 23.292969 27.707031 C 23.270149 27.684211 23.248676 27.661059 23.228516 27.636719 C 23.227016 27.634919 23.226109 27.632759 23.224609 27.630859 C 23.185729 27.583029 23.150689 27.531178 23.121094 27.476562 C 23.118994 27.472663 23.117334 27.468764 23.115234 27.464844 C 23.100104 27.436024 23.086539 27.407373 23.074219 27.376953 C 23.063759 27.351243 23.053152 27.325158 23.044922 27.298828 C 23.043965 27.295728 23.043969 27.292162 23.042969 27.289062 C 23.039069 27.276043 23.03467 27.26314 23.03125 27.25 C 23.02685 27.23284 23.023051 27.214766 23.019531 27.197266 C 23.013231 27.165786 23.009109 27.133412 23.005859 27.101562 C 23.002459 27.067812 23 27.033964 23 27 L 23 23 C 23 22.446003 23.446003 22 24 22 z " /></svg>
