<?xml version="1.0" encoding="UTF-8" standalone="no"?>
<!-- Created with Inkscape (http://www.inkscape.org/) -->

<svg
   width="48"
   height="48"
   viewBox="0 0 48 48"
   version="1.1"
   id="svg371"
   xml:space="preserve"
   inkscape:version="1.2.2 (1:1.2.2+202305151914+b0a8486541)"
   sodipodi:docname="folder-default-home.svg"
   xmlns:inkscape="http://www.inkscape.org/namespaces/inkscape"
   xmlns:sodipodi="http://sodipodi.sourceforge.net/DTD/sodipodi-0.dtd"
   xmlns:xlink="http://www.w3.org/1999/xlink"
   xmlns="http://www.w3.org/2000/svg"
   xmlns:svg="http://www.w3.org/2000/svg"><sodipodi:namedview
     id="namedview373"
     pagecolor="#ffffff"
     bordercolor="#000000"
     borderopacity="0.25"
     inkscape:showpageshadow="2"
     inkscape:pageopacity="0.0"
     inkscape:pagecheckerboard="0"
     inkscape:deskcolor="#d1d1d1"
     inkscape:document-units="px"
     showgrid="false"
     inkscape:zoom="16.791667"
     inkscape:cx="24"
     inkscape:cy="24"
     inkscape:window-width="1920"
     inkscape:window-height="1008"
     inkscape:window-x="0"
     inkscape:window-y="0"
     inkscape:window-maximized="1"
     inkscape:current-layer="svg371"
     showguides="false" /><defs
     id="defs368"><linearGradient
       inkscape:collect="always"
       xlink:href="#linearGradient1836"
       id="linearGradient3251"
       x1="16"
       y1="31"
       x2="16"
       y2="1"
       gradientUnits="userSpaceOnUse"
       gradientTransform="matrix(1.4666667,0,0,1.4666667,0.533333,0.5333333)" /><linearGradient
       inkscape:collect="always"
       id="linearGradient1836"><stop
         style="stop-color:#f69000;stop-opacity:1;"
         offset="0"
         id="stop1832" /><stop
         style="stop-color:#f9a900;stop-opacity:1;"
         offset="1"
         id="stop1834" /></linearGradient></defs><path
     d="M 2,24 C 2,7.5 7.5,2 24,2 40.5,2 46,7.5 46,24 46,40.5 40.5,46 24,46 7.5,46 2,40.5 2,24"
     style="fill:url(#linearGradient3251);fill-opacity:1;stroke-width:0.22"
     id="path311" /><path
     id="rect419"
     style="fill:#ffdea2;fill-opacity:1;stroke-width:1.06066"
     d="m 11,10 c -1.107998,0 -2,0.892002 -2,2 v 12 c 0,1.107998 0.892002,2 2,2 h 15 v -7 c -1.104569,0 -2,-0.895431 -2,-2 v -5 c 0,-1.107998 -0.892002,-2 -2,-2 z"
     sodipodi:nodetypes="ssscccssss" /><rect
     style="fill:#ffffff;fill-opacity:1;stroke-width:1.08343"
     id="rect556"
     width="30"
     height="23"
     x="9"
     y="15"
     ry="3" /><path
     id="path476"
     style="fill:#e38300;fill-opacity:1;stroke-linecap:round;stroke-linejoin:round"
     d="m 24,20.046875 c -0.766851,0 -1.533488,0.295209 -2.121094,0.882813 l -3.949218,3.949218 C 17.046204,25.647415 16.999505,25.891397 17,27 v 5 c 0,1.104566 0.895434,2 2,2 h 1 c 0.552284,0 1,-0.447717 1,-1 V 28.5 C 21,27.671573 21.671573,27 22.5,27 h 3 c 0.828427,0 1.5,0.671573 1.5,1.5 V 33 c 0,0.552283 0.447718,1 1,1 h 1 c 1.104566,0 2,-0.895434 2,-2 V 27 C 30.9348,25.86119 30.761743,25.595076 30.070312,24.878906 L 26.121094,20.929688 C 25.53349,20.342082 24.766853,20.046875 24,20.046875 Z"
     sodipodi:nodetypes="scccsssssssssssscccs" /></svg>
