<?xml version="1.0" encoding="UTF-8" standalone="no"?>
<!-- Created with Inkscape (http://www.inkscape.org/) -->

<svg
   width="48"
   height="48"
   viewBox="0 0 48 48"
   version="1.1"
   id="svg371"
   xml:space="preserve"
   inkscape:version="1.2.2 (1:1.2.2+202305151914+b0a8486541)"
   sodipodi:docname="user-trash.svg"
   xmlns:inkscape="http://www.inkscape.org/namespaces/inkscape"
   xmlns:sodipodi="http://sodipodi.sourceforge.net/DTD/sodipodi-0.dtd"
   xmlns:xlink="http://www.w3.org/1999/xlink"
   xmlns="http://www.w3.org/2000/svg"
   xmlns:svg="http://www.w3.org/2000/svg"><sodipodi:namedview
     id="namedview373"
     pagecolor="#ffffff"
     bordercolor="#000000"
     borderopacity="0.25"
     inkscape:showpageshadow="2"
     inkscape:pageopacity="0.0"
     inkscape:pagecheckerboard="0"
     inkscape:deskcolor="#d1d1d1"
     inkscape:document-units="px"
     showgrid="false"
     inkscape:zoom="16.791667"
     inkscape:cx="23.970223"
     inkscape:cy="24"
     inkscape:window-width="1920"
     inkscape:window-height="1008"
     inkscape:window-x="0"
     inkscape:window-y="0"
     inkscape:window-maximized="1"
     inkscape:current-layer="svg371"
     showguides="false" /><defs
     id="defs368"><linearGradient
       inkscape:collect="always"
       xlink:href="#linearGradient1141"
       id="linearGradient3251"
       x1="16"
       y1="31"
       x2="16"
       y2="1"
       gradientUnits="userSpaceOnUse"
       gradientTransform="matrix(1.4666667,0,0,1.4666667,0.5333333,0.5333333)" /><linearGradient
       inkscape:collect="always"
       id="linearGradient1141"><stop
         style="stop-color:#6a7d92;stop-opacity:1;"
         offset="0"
         id="stop1137" /><stop
         style="stop-color:#97b4c4;stop-opacity:1;"
         offset="1"
         id="stop1139" /></linearGradient></defs><path
     d="M 2,24 C 2,7.5 7.5,2 24,2 40.5,2 46,7.5 46,24 46,40.5 40.5,46 24,46 7.5,46 2,40.5 2,24"
     style="fill:url(#linearGradient3251);fill-opacity:1.0;stroke-width:0.22"
     id="path311" /><path
     id="rect292"
     style="fill:#ffffff;stroke-width:2;stroke-linecap:round"
     d="m 19,9 c -1.107995,0 -2,0.8920053 -2,2 v 2 h -4 c -0.553998,0 -1,0.446003 -1,1 0,0.553997 0.446002,1 1,1 h 22 c 0.553997,0 1,-0.446003 1,-1 0,-0.553997 -0.446003,-1 -1,-1 H 31 V 11 C 31,9.8920053 30.107995,9 29,9 Z m 0,2 h 10 v 2 H 19 Z m -4,6 c -0.553998,0 -1.061179,0.44939 -1,1 l 2,18 c 0.183537,1.651833 1.338002,3 3,3 h 10 c 1.661998,0 2.816463,-1.348167 3,-3 l 2,-18 c 0.05513,-0.551248 -0.446003,-1 -1,-1 z"
     sodipodi:nodetypes="sscsssssscssscccccsssssscss" /><path
     id="rect536"
     style="fill:#687b90;fill-opacity:1;stroke-width:2;stroke-linecap:round"
     d="m 19,19 c -0.553999,0 -1,0.446001 -1,1 v 16 c 0,0.553999 0.446001,1 1,1 0.553999,0 1,-0.446001 1,-1 V 20 c 0,-0.553999 -0.446001,-1 -1,-1 z m 5,0 c -0.553999,0 -1,0.446001 -1,1 v 16 c 0,0.553999 0.446001,1 1,1 0.553999,0 1,-0.446001 1,-1 V 20 c 0,-0.553999 -0.446001,-1 -1,-1 z m 5,0 c -0.553999,0 -1,0.446001 -1,1 v 16 c 0,0.553999 0.446001,1 1,1 0.553999,0 1,-0.446001 1,-1 V 20 c 0,-0.553999 -0.446001,-1 -1,-1 z"
     sodipodi:nodetypes="sssssssssssssssssssss" /></svg>
