<?xml version="1.0" encoding="UTF-8" standalone="no"?>
<!-- Created with Inkscape (http://www.inkscape.org/) -->

<svg
   width="16"
   height="16"
   viewBox="0 0 16 16.000001"
   version="1.1"
   id="svg5"
   inkscape:version="1.2.2 (1:1.2.2+202212051552+b0a8486541)"
   sodipodi:docname="preferences-desktop-accessibility-symbolic.svg"
   xmlns:inkscape="http://www.inkscape.org/namespaces/inkscape"
   xmlns:sodipodi="http://sodipodi.sourceforge.net/DTD/sodipodi-0.dtd"
   xmlns="http://www.w3.org/2000/svg"
   xmlns:svg="http://www.w3.org/2000/svg">
  <sodipodi:namedview
     id="namedview7"
     pagecolor="#ffffff"
     bordercolor="#000000"
     borderopacity="0.25"
     inkscape:showpageshadow="2"
     inkscape:pageopacity="0.0"
     inkscape:pagecheckerboard="0"
     inkscape:deskcolor="#d1d1d1"
     inkscape:document-units="px"
     showgrid="false"
     inkscape:zoom="50.625"
     inkscape:cx="6.982716"
     inkscape:cy="8"
     inkscape:window-width="1920"
     inkscape:window-height="1012"
     inkscape:window-x="0"
     inkscape:window-y="0"
     inkscape:window-maximized="1"
     inkscape:current-layer="svg5" />
  <defs
     id="defs2" />
  <path
     id="path391"
     style="fill:#dfdfdf;fill-opacity:1;stroke-width:1"
     d="M 8,0 C 6.8954338,0 6,0.89543381 6,2 6,3.1045662 6.8954338,4 8,4 9.1045662,4 10,3.1045662 10,2 10,0.89543381 9.1045662,0 8,0 Z M 2,5 C 1.4460018,5 1,5.4460018 1,6 1,6.5539982 1.4460018,7 2,7 H 6 V 8.8710938 L 3.75,14 C 3.4437559,14.642643 3.4755905,15.294269 3.6816406,15.541016 3.8942544,15.795621 3.9886774,16 4.5,16 4.9914986,16 5.3666035,15.658958 5.6230469,15.232422 L 8,11 10.376953,15.232422 C 10.633396,15.658958 11.0085,16 11.5,16 12.011322,16 12.105745,15.795621 12.318359,15.541016 12.524409,15.294269 12.556244,14.642643 12.25,14 L 10,8.8710938 V 7 h 4 C 14.553998,7 15,6.5539982 15,6 15,5.4460017 14.553998,5 14,5 Z"
     sodipodi:nodetypes="ssssscsscccsscccsscccsscc" />
</svg>
