<?xml version="1.0" encoding="UTF-8" standalone="no"?>
<!-- Created with Inkscape (http://www.inkscape.org/) -->

<svg
   width="16"
   height="16"
   viewBox="0 0 16 16"
   version="1.1"
   id="svg5"
   inkscape:version="1.3.2 (091e20ef0f, 2023-11-25, custom)"
   sodipodi:docname="audio-volume-high.svg"
   xmlns:inkscape="http://www.inkscape.org/namespaces/inkscape"
   xmlns:sodipodi="http://sodipodi.sourceforge.net/DTD/sodipodi-0.dtd"
   xmlns="http://www.w3.org/2000/svg"
   xmlns:svg="http://www.w3.org/2000/svg">
  <sodipodi:namedview
     id="namedview7"
     pagecolor="#ffffff"
     bordercolor="#000000"
     borderopacity="0.25"
     inkscape:showpageshadow="2"
     inkscape:pageopacity="0.0"
     inkscape:pagecheckerboard="0"
     inkscape:deskcolor="#d1d1d1"
     inkscape:document-units="px"
     showgrid="false"
     inkscape:zoom="50.5"
     inkscape:cx="8"
     inkscape:cy="8"
     inkscape:window-width="1920"
     inkscape:window-height="1012"
     inkscape:window-x="0"
     inkscape:window-y="0"
     inkscape:window-maximized="1"
     inkscape:current-layer="svg5" />
  <defs
     id="defs2">
    <style
       id="current-color-scheme"
       type="text/css">
        .ColorScheme-Text { color:#4d4d4d; }
        .ColorScheme-Highlight { color:#4285f4; }
        .ColorScheme-NeutralText { color:#ff9800; }
        .ColorScheme-PositiveText { color:#4caf50; }
        .ColorScheme-NegativeText { color:#f44336; }
     </style>
  </defs>
  <path
     id="path463"
     style="fill:currentColor;fill-opacity:1;stroke:none;stroke-width:1.88975"
     class="ColorScheme-Text"
     d="m 12.369141,0.637 c -0.255889,0 -0.511778,0.097758 -0.707032,0.2929687 -0.390422,0.3905058 -0.390422,1.0235567 0,1.4140625 3.132554,3.1325539 3.132554,8.1799448 0,11.3124998 -0.390422,0.390507 -0.390422,1.023559 0,1.414062 0.390507,0.390424 1.023557,0.390424 1.414063,0 C 15.024595,13.12217 16,10.561582 16,8.000281 15.999999,5.4389768 15.024596,2.8783934 13.076172,0.9299687 12.880919,0.7347576 12.625029,0.637 12.369141,0.637 Z M 6.253906,2.0002812 C 6.1057,2.0079461 5.9598776,2.0647039 5.8398438,2.1662968 L 3,5.0002812 H 1 c -0.5539995,0 -1,0.4460005 -1,0.9999998 v 4 c 0,0.553999 0.4460005,1 1,1 h 2 l 2.8398438,2.833984 C 6.308057,14.226512 7.000516,13.877074 7,13.248328 V 2.7483281 C 6.999577,2.4600053 6.841562,2.1970017 6.59375,2.0725468 6.485342,2.0187041 6.369178,1.9943204 6.253906,2.0002812 Z m 3.28711,1.4648438 c -0.255889,0 -0.511779,0.097757 -0.707032,0.2929687 -0.390422,0.3905056 -0.390422,1.0235569 0,1.4140625 1.570465,1.5704638 1.570465,4.0857868 0,5.6562498 -0.390422,0.390507 -0.390422,1.023556 0,1.414063 0.390506,0.390421 1.023557,0.390421 1.414063,0 C 11.415427,11.075088 12,9.537901 12,8.000281 12,6.462661 11.415427,4.9254725 10.248047,3.7580937 10.052794,3.5628824 9.796904,3.465125 9.541016,3.465125 Z" />
</svg>
