<?xml version="1.0" encoding="UTF-8" standalone="no"?>
<svg
   width="16"
   height="16"
   version="1.1"
   id="svg1"
   sodipodi:docname="microphone-sensitivity-none-symbolic.svg"
   inkscape:version="1.3.2 (091e20ef0f, 2023-11-25, custom)"
   xmlns:inkscape="http://www.inkscape.org/namespaces/inkscape"
   xmlns:sodipodi="http://sodipodi.sourceforge.net/DTD/sodipodi-0.dtd"
   xmlns="http://www.w3.org/2000/svg"
   xmlns:svg="http://www.w3.org/2000/svg">
  <defs
     id="defs1" />
  <sodipodi:namedview
     id="namedview1"
     pagecolor="#ffffff"
     bordercolor="#000000"
     borderopacity="0.25"
     inkscape:showpageshadow="2"
     inkscape:pageopacity="0.0"
     inkscape:pagecheckerboard="0"
     inkscape:deskcolor="#d1d1d1"
     showguides="false"
     inkscape:zoom="46.375"
     inkscape:cx="7.9892183"
     inkscape:cy="8"
     inkscape:window-width="1920"
     inkscape:window-height="962"
     inkscape:window-x="0"
     inkscape:window-y="0"
     inkscape:window-maximized="1"
     inkscape:current-layer="svg1" />
  <path
     id="path1"
     style="fill:#4d4d4d;stroke-width:1.5;opacity:0.3"
     d="M 8 0 C 6.3380017 0 5 1.3380017 5 3 L 5 7 C 5 8.6619983 6.3380017 10 8 10 C 9.6619983 10 11 8.6619983 11 7 L 11 3 C 11 1.3380017 9.6619983 0 8 0 z M 3 6 C 2.4477159 6 2 6.4477159 2 7 C 2 10.313696 4.6863049 13 8 13 C 11.313696 13 14 10.313696 14 7 C 14 6.4477159 13.552284 6 13 6 C 12.447716 6 12 6.4477159 12 7 C 12 9.2091304 10.209131 11 8 11 C 5.7908696 11 4 9.2091304 4 7 C 4 6.4477159 3.5522841 6 3 6 z M 5 14 C 4.4460018 14 4 14.446003 4 15 C 4 15.553997 4.4460018 16 5 16 L 11 16 C 11.553997 16 12 15.553997 12 15 C 12 14.446003 11.553997 14 11 14 L 5 14 z " />
</svg>
