<?xml version="1.0" encoding="UTF-8" standalone="no"?>
<svg
   width="16"
   height="16"
   version="1.1"
   id="svg1"
   sodipodi:docname="microphone-sensitivity-low-symbolic.svg"
   inkscape:version="1.3.2 (091e20ef0f, 2023-11-25, custom)"
   xmlns:inkscape="http://www.inkscape.org/namespaces/inkscape"
   xmlns:sodipodi="http://sodipodi.sourceforge.net/DTD/sodipodi-0.dtd"
   xmlns="http://www.w3.org/2000/svg"
   xmlns:svg="http://www.w3.org/2000/svg">
  <defs
     id="defs1" />
  <sodipodi:namedview
     id="namedview1"
     pagecolor="#ffffff"
     bordercolor="#000000"
     borderopacity="0.25"
     inkscape:showpageshadow="2"
     inkscape:pageopacity="0.0"
     inkscape:pagecheckerboard="0"
     inkscape:deskcolor="#d1d1d1"
     showguides="false"
     inkscape:zoom="46.375"
     inkscape:cx="7.9892183"
     inkscape:cy="8"
     inkscape:window-width="1920"
     inkscape:window-height="962"
     inkscape:window-x="0"
     inkscape:window-y="0"
     inkscape:window-maximized="1"
     inkscape:current-layer="svg1" />
  <path
     id="path1"
     style="fill:#4d4d4d;stroke-width:1.5"
     d="M 3,6 C 2.4477153,6 2,6.4477153 2,7 c 0,3.313699 2.6863016,6 6,6 3.313699,0 6,-2.686301 6,-6 C 14,6.4477153 13.552285,6 13,6 12.447715,6 12,6.4477153 12,7 12,9.2091326 10.209133,11 8,11 5.7908674,11 4,9.2091326 4,7 4,6.4477153 3.5522847,6 3,6 Z m 2,8 c -0.5539988,0 -1,0.446002 -1,1 0,0.553998 0.4460012,1 1,1 h 6 c 0.553998,0 1,-0.446002 1,-1 0,-0.553998 -0.446002,-1 -1,-1 z"
     sodipodi:nodetypes="ssssssssssssssss" />
  <rect
     style="fill:#4d4d4d;fill-opacity:1;opacity:0.3"
     id="rect2"
     width="6"
     height="10"
     x="5"
     y="0"
     ry="3" />
</svg>
