<?xml version="1.0" encoding="UTF-8" standalone="no"?>
<!-- Created with Inkscape (http://www.inkscape.org/) -->

<svg
   width="24"
   height="24"
   viewBox="0 0 24 24"
   version="1.1"
   id="svg371"
   xml:space="preserve"
   inkscape:version="1.2.2 (1:1.2.2+202212051552+b0a8486541)"
   sodipodi:docname="emblem-symbolic-link.svg"
   xmlns:inkscape="http://www.inkscape.org/namespaces/inkscape"
   xmlns:sodipodi="http://sodipodi.sourceforge.net/DTD/sodipodi-0.dtd"
   xmlns="http://www.w3.org/2000/svg"
   xmlns:svg="http://www.w3.org/2000/svg"><sodipodi:namedview
     id="namedview373"
     pagecolor="#ffffff"
     bordercolor="#000000"
     borderopacity="0.25"
     inkscape:showpageshadow="2"
     inkscape:pageopacity="0.0"
     inkscape:pagecheckerboard="0"
     inkscape:deskcolor="#d1d1d1"
     inkscape:document-units="px"
     showgrid="false"
     inkscape:zoom="33.75"
     inkscape:cx="11.985185"
     inkscape:cy="12"
     inkscape:window-width="1920"
     inkscape:window-height="1012"
     inkscape:window-x="0"
     inkscape:window-y="0"
     inkscape:window-maximized="1"
     inkscape:current-layer="svg371"
     showguides="true" /><defs
     id="defs368" /><path
     d="M 2,12 C 2,4.5 4.5,2 12,2 19.5,2 22,4.5 22,12 22,19.5 19.5,22 12,22 4.5,22 2,19.5 2,12"
     style="opacity:0.6;fill:#666666;fill-opacity:1;stroke-width:0.1"
     id="path311" /><path
     id="rect370"
     style="opacity:1;fill:#ffffff"
     d="m 11,6 c -0.553999,0 -1,0.4460006 -1,1 0,0.5539994 0.446001,1 1,1 h 3.583984 l -8.1914059,8.193359 c -0.3917367,0.391737 -0.3917367,1.022326 0,1.414063 0.3917368,0.391737 1.0223258,0.391737 1.4140625,0 L 16,9.4160156 V 13 c 0,0.553999 0.446001,1 1,1 0.553999,0 1,-0.446001 1,-1 V 7 c 0,-0.034003 -0.0024,-0.0677 -0.0059,-0.1015625 -0.003,-0.029718 -0.0062,-0.059013 -0.01172,-0.087891 -7.5e-4,-0.00386 -0.0012,-0.00787 -0.002,-0.011719 C 17.97478,6.7714245 17.96665,6.7433215 17.9589,6.7167965 17.94039,6.6535115 17.91465,6.5944522 17.88468,6.537109 17.85357,6.477582 17.8173,6.4208035 17.775305,6.3691402 c -0.0015,-0.00179 -0.0024,-0.00408 -0.0039,-0.00586 -0.02035,-0.024675 -0.04186,-0.047719 -0.06445,-0.070312 -0.02282,-0.022816 -0.04597,-0.044295 -0.07031,-0.064453 -0.0018,-0.00149 -0.004,-0.00243 -0.0059,-0.00391 -0.05166,-0.041996 -0.108441,-0.078266 -0.167968,-0.109375 -0.05734,-0.029968 -0.116403,-0.05571 -0.179688,-0.074219 -0.02712,-0.00806 -0.05446,-0.015784 -0.08203,-0.021484 -0.03261,-0.00664 -0.06591,-0.01027 -0.09961,-0.013672 C 17.0677,6.0023935 17.034003,6 17,6 Z" /></svg>
