<?xml version="1.0" encoding="UTF-8" standalone="no"?>
<!-- Created with Inkscape (http://www.inkscape.org/) -->

<svg
   width="24"
   height="24"
   viewBox="0 0 24 24"
   version="1.1"
   id="svg371"
   xml:space="preserve"
   inkscape:version="1.2.2 (1:1.2.2+202305151914+b0a8486541)"
   sodipodi:docname="emblem-unreadable.svg"
   xmlns:inkscape="http://www.inkscape.org/namespaces/inkscape"
   xmlns:sodipodi="http://sodipodi.sourceforge.net/DTD/sodipodi-0.dtd"
   xmlns="http://www.w3.org/2000/svg"
   xmlns:svg="http://www.w3.org/2000/svg"><sodipodi:namedview
     id="namedview373"
     pagecolor="#ffffff"
     bordercolor="#000000"
     borderopacity="0.25"
     inkscape:showpageshadow="2"
     inkscape:pageopacity="0.0"
     inkscape:pagecheckerboard="0"
     inkscape:deskcolor="#d1d1d1"
     inkscape:document-units="px"
     showgrid="false"
     inkscape:zoom="33.583333"
     inkscape:cx="12"
     inkscape:cy="12"
     inkscape:window-width="1920"
     inkscape:window-height="1008"
     inkscape:window-x="0"
     inkscape:window-y="0"
     inkscape:window-maximized="1"
     inkscape:current-layer="svg371"
     showguides="true" /><defs
     id="defs368" /><path
     d="M 2,12 C 2,4.5 4.5,2 12,2 19.5,2 22,4.5 22,12 22,19.5 19.5,22 12,22 4.5,22 2,19.5 2,12"
     style="opacity:0.6;fill:#666666;fill-opacity:1;stroke-width:0.1"
     id="path311" /><path
     id="rect340"
     style="fill:#ffffff"
     d="m 17.949747,6.0502527 c -0.391736,-0.3917364 -1.022476,-0.3917368 -1.414213,0 L 12,10.585786 7.4644663,6.0502528 c -0.3917367,-0.3917367 -1.0224771,-0.3917364 -1.4142136,0 -0.3917364,0.3917365 -0.3917367,1.0224769 0,1.4142136 L 10.585786,12 6.0502527,16.535534 c -0.3917361,0.391736 -0.3917364,1.022477 0,1.414213 0.3917365,0.391737 1.0224771,0.391737 1.4142136,0 L 12,13.414214 l 4.535534,4.535533 c 0.391736,0.391737 1.022477,0.391737 1.414213,0 0.391737,-0.391736 0.391737,-1.022477 0,-1.414213 L 13.414214,12 17.949747,7.4644663 c 0.391737,-0.3917368 0.391737,-1.0224771 0,-1.4142136 z"
     sodipodi:nodetypes="sscssscsscccsccss" /></svg>
