<?xml version="1.0" encoding="UTF-8" standalone="no"?>
<!-- Created with Inkscape (http://www.inkscape.org/) -->

<svg
   width="16"
   height="16"
   viewBox="0 0 4.2333332 4.2333335"
   version="1.1"
   id="svg11945"
   inkscape:version="1.2.2 (1:1.2.2+202305151914+b0a8486541)"
   sodipodi:docname="folder-music-symbolic.svg"
   xmlns:inkscape="http://www.inkscape.org/namespaces/inkscape"
   xmlns:sodipodi="http://sodipodi.sourceforge.net/DTD/sodipodi-0.dtd"
   xmlns="http://www.w3.org/2000/svg"
   xmlns:svg="http://www.w3.org/2000/svg">
  <sodipodi:namedview
     id="namedview11947"
     pagecolor="#ffffff"
     bordercolor="#666666"
     borderopacity="1.0"
     inkscape:pageshadow="2"
     inkscape:pageopacity="0.0"
     inkscape:pagecheckerboard="0"
     inkscape:document-units="px"
     showgrid="false"
     units="in"
     inkscape:zoom="50.375"
     inkscape:cx="8"
     inkscape:cy="8"
     inkscape:window-width="1920"
     inkscape:window-height="1008"
     inkscape:window-x="0"
     inkscape:window-y="0"
     inkscape:window-maximized="1"
     inkscape:current-layer="svg11945"
     showguides="true"
     inkscape:showpageshadow="2"
     inkscape:deskcolor="#d1d1d1" />
  <defs
     id="defs11942" />
  <path
     id="path989"
     style="fill:#4d4d4d;fill-opacity:1;stroke-width:0.705556;stroke-linecap:round;stroke-linejoin:round"
     d="M 2.2417236 0.26458333 A 0.13229166 0.13229167 0 0 0 2.1166667 0.396875 L 2.1166667 2.2107178 C 1.9158037 1.9827918 1.6267089 1.852165 1.3229167 1.8520833 C 0.73841699 1.8520833 0.26458333 2.3259171 0.26458333 2.9104167 C 0.26458339 3.4949162 0.73841703 3.96875 1.3229167 3.96875 C 1.9074162 3.9687499 2.3812499 3.4949162 2.38125 2.9104167 L 2.38125 0.53226725 C 3.0394372 0.57146039 3.3481247 0.90487194 3.5196818 1.2479858 C 3.6675932 1.5438081 3.7041667 1.748833 3.7041667 1.8520833 L 3.7041667 1.984375 C 3.7049604 2.0570568 3.7637729 2.1170115 3.8364583 2.1166667 C 3.9091433 2.1170107 3.9679547 2.0570565 3.96875 1.984375 L 3.96875 1.8520833 C 3.96875 1.702464 3.9085477 1.4365974 3.7558431 1.1311971 C 3.5447155 0.70894062 3.1965338 0.26458333 2.38125 0.26458333 L 2.2489583 0.26458333 A 0.13229166 0.13229167 0 0 0 2.2417236 0.26458333 z M 1.3229167 2.1166667 A 0.79374999 0.79374999 0 0 1 2.1166667 2.9104167 A 0.79374999 0.79374999 0 0 1 1.3229167 3.7041667 A 0.79374999 0.79374999 0 0 1 0.52916667 2.9104167 A 0.79374999 0.79374999 0 0 1 1.3229167 2.1166667 z " />
</svg>
