<?xml version="1.0" encoding="UTF-8" standalone="no"?>
<!-- Created with Inkscape (http://www.inkscape.org/) -->

<svg
   width="16"
   height="16"
   viewBox="0 0 4.2333332 4.2333335"
   version="1.1"
   id="svg11945"
   inkscape:version="1.3 (0e150ed6c4, 2023-07-21)"
   sodipodi:docname="folder-download-symbolic.svg"
   xmlns:inkscape="http://www.inkscape.org/namespaces/inkscape"
   xmlns:sodipodi="http://sodipodi.sourceforge.net/DTD/sodipodi-0.dtd"
   xmlns="http://www.w3.org/2000/svg"
   xmlns:svg="http://www.w3.org/2000/svg">
  <sodipodi:namedview
     id="namedview11947"
     pagecolor="#ffffff"
     bordercolor="#666666"
     borderopacity="1.0"
     inkscape:pageshadow="2"
     inkscape:pageopacity="0.0"
     inkscape:pagecheckerboard="0"
     inkscape:document-units="px"
     showgrid="false"
     units="in"
     inkscape:zoom="48.9375"
     inkscape:cx="7.9897829"
     inkscape:cy="8"
     inkscape:window-width="1920"
     inkscape:window-height="984"
     inkscape:window-x="0"
     inkscape:window-y="29"
     inkscape:window-maximized="1"
     inkscape:current-layer="svg11945"
     showguides="true"
     inkscape:showpageshadow="2"
     inkscape:deskcolor="#d1d1d1" />
  <defs
     id="defs11942" />
  <path
     d="m 1.9843749,0.26458333 c -0.07329,0 -0.1322917,0.0590021 -0.1322917,0.13229166 V 2.9806968 L 0.88470051,2.0133138 c -0.051824,-0.051824 -0.13524471,-0.051824 -0.18706867,0 -0.051824,0.051823 -0.051824,0.1352448 0,0.1870687 L 1.8520832,3.3512169 c 0.062993,0.066788 0.086046,0.088909 0.1322917,0.088367 0.048006,3.175e-4 0.088538,-0.040081 0.1322917,-0.088884 L 3.271118,2.2003825 c 0.051824,-0.051824 0.051824,-0.1352452 0,-0.1870687 -0.051824,-0.051824 -0.1352452,-0.051824 -0.1870686,0 L 2.1166666,2.9806968 V 0.39687499 c 0,-0.0732896 -0.059002,-0.13229166 -0.1322917,-0.13229166 z M 0.39687499,3.7041669 c -0.0732895,0 -0.13229166,0.059001 -0.13229166,0.1322916 0,0.07329 0.059002,0.1322917 0.13229166,0.1322917 H 3.5718749 c 0.07329,0 0.1322917,-0.059002 0.1322917,-0.1322917 0,-0.07329 -0.059002,-0.1322916 -0.1322917,-0.1322916 z"
     style="fill:#4d4d4d;fill-opacity:1;stroke-width:5.00002;stroke-linecap:round;stroke-linejoin:round"
     id="path1" />
</svg>
