<?xml version="1.0" encoding="UTF-8" standalone="no"?>
<!-- Created with Inkscape (http://www.inkscape.org/) -->

<svg
   width="16"
   height="16"
   viewBox="0 0 16 16"
   version="1.1"
   id="svg1"
   inkscape:version="1.3.2 (091e20ef0f, 2023-11-25, custom)"
   sodipodi:docname="user-desktop-symbolic.svg"
   xmlns:inkscape="http://www.inkscape.org/namespaces/inkscape"
   xmlns:sodipodi="http://sodipodi.sourceforge.net/DTD/sodipodi-0.dtd"
   xmlns="http://www.w3.org/2000/svg"
   xmlns:svg="http://www.w3.org/2000/svg">
  <sodipodi:namedview
     id="namedview1"
     pagecolor="#ffffff"
     bordercolor="#000000"
     borderopacity="0.25"
     inkscape:showpageshadow="2"
     inkscape:pageopacity="0.0"
     inkscape:pagecheckerboard="0"
     inkscape:deskcolor="#d1d1d1"
     inkscape:document-units="px"
     inkscape:zoom="50.5"
     inkscape:cx="8"
     inkscape:cy="8"
     inkscape:window-width="1920"
     inkscape:window-height="1012"
     inkscape:window-x="0"
     inkscape:window-y="0"
     inkscape:window-maximized="1"
     inkscape:current-layer="svg1" />
  <defs
     id="defs1" />
  <path
     d="M 3.0000001,2 C 1.8920056,2 1,2.892006 1,3.9999999 V 12 c 0,1.107994 0.8920056,2 2.0000001,2 h 9.9999989 c 1.107996,0 2,-0.892006 2,-2 V 3.9999999 C 14.999999,2.892006 14.107995,2 12.999999,2 Z m 0,1 H 12.999999 C 13.553997,3 14,3.4460032 14,3.9999999 V 12 c 0,0.553998 -0.446003,1 -1.000001,1 H 3.0000001 c -0.5539973,0 -1,-0.446002 -1,-1 V 3.9999999 C 2.0000001,3.4460032 2.4460028,3 3.0000001,3 Z M 3.9999998,3.9999999 C 3.4477151,4.0000001 3,4.4477154 3.0000001,5.0000001 c 0,0.5522846 0.4477151,0.9999999 0.9999997,1.0000001 0.552285,2e-7 1.0000005,-0.4477151 1.0000005,-1.0000001 1e-7,-0.552285 -0.4477155,-1.0000004 -1.0000005,-1.0000002 z m 0,3 C 3.4477152,7.0000001 3.0000001,7.4477154 3.0000001,8 c 0,0.5522846 0.4477151,0.9999999 0.9999997,1 0.552285,0 1.0000005,-0.447715 1.0000005,-1 0,-0.552285 -0.4477155,-1.0000003 -1.0000005,-1.0000001 z M 3.0000001,11 v 1 h 9.9999989 v -1 z"
     style="fill:#4d4d4d;fill-opacity:1;stroke-width:5.00003;stroke-linecap:round;stroke-linejoin:round"
     id="path1" />
</svg>
